<svg width="133" height="46" viewBox="0 0 133 46" fill="none" xmlns="http://www.w3.org/2000/svg">
<rect x="0.391566" y="0.391566" width="132.217" height="45.2169" rx="7.43976" stroke="white" stroke-width="0.783133"/>
<mask id="mask0_2019_25697" style="mask-type:alpha" maskUnits="userSpaceOnUse" x="16" y="10" width="24" height="26">
<path d="M39.0484 21.4619C40.3172 22.1333 40.3172 23.8667 39.0484 24.5381L18.7563 35.2749C17.5205 35.9287 16 35.0802 16 33.7368V12.2632C16 10.9198 17.5205 10.0713 18.7563 10.7251L39.0484 21.4619Z" fill="#C4C4C4"/>
</mask>
<g mask="url(#mask0_2019_25697)">
<path d="M16.6347 35.0643L29.2923 22.8251L16.8432 10.7876C16.3465 11.0937 16 11.6223 16 12.2636V33.7371C16 34.2844 16.2522 34.7494 16.6347 35.0643Z" fill="url(#paint0_linear_2019_25697)"/>
<path d="M39.0451 21.4618C40.314 22.1331 40.314 23.8665 39.0451 24.5378L33.9258 27.2466L29.2891 22.8245L33.6894 18.6279L39.0451 21.4618Z" fill="url(#paint1_linear_2019_25697)"/>
<path d="M33.9272 27.247L29.2904 22.825L16.6328 35.0641C17.1894 35.5223 18.0219 35.6626 18.7544 35.275L33.9272 27.247Z" fill="url(#paint2_linear_2019_25697)"/>
<path d="M16.8438 10.7872L29.2929 22.8247L33.6932 18.6282L18.7568 10.7251C18.111 10.3834 17.3874 10.452 16.8438 10.7872Z" fill="url(#paint3_linear_2019_25697)"/>
</g>
<path d="M51.5929 14.6136H54.057V17.6926C53.7358 17.8272 53.3932 17.9281 53.0292 17.9954C52.6651 18.0597 52.2782 18.0918 51.8682 18.0918C51.1555 18.0918 50.5544 17.9572 50.0649 17.688C49.5785 17.4157 49.2099 17.0226 48.959 16.5087C48.7082 15.9948 48.5828 15.3768 48.5828 14.6549C48.5828 13.9819 48.7189 13.3838 48.9912 12.8607C49.2665 12.3376 49.6596 11.9277 50.1704 11.6309C50.6813 11.3342 51.2931 11.1858 52.0059 11.1858C52.373 11.1858 52.7187 11.2195 53.0429 11.2868C53.3703 11.3541 53.6808 11.455 53.9744 11.5896L53.7863 12.0118C53.4957 11.8772 53.199 11.7762 52.8961 11.7089C52.5963 11.6416 52.2919 11.608 51.983 11.608C51.3773 11.608 50.8557 11.738 50.4182 11.998C49.9838 12.255 49.6504 12.6129 49.4179 13.0718C49.1885 13.5276 49.0737 14.0537 49.0737 14.6503C49.0737 15.3263 49.1854 15.8877 49.4087 16.3343C49.632 16.7809 49.9578 17.1159 50.3861 17.3392C50.8174 17.5625 51.3405 17.6742 51.9554 17.6742C52.2919 17.6742 52.5933 17.6497 52.8594 17.6008C53.1286 17.5518 53.3718 17.4876 53.589 17.4081V15.0449H51.5929V14.6136ZM57.5169 12.9158C57.9421 12.9158 58.2954 13.0152 58.5769 13.214C58.8614 13.4129 59.0725 13.6851 59.2101 14.0308C59.3508 14.3765 59.4212 14.7726 59.4212 15.2193V15.5542H55.8191C55.8191 16.2395 55.9766 16.7656 56.2917 17.1327C56.6099 17.4998 57.0641 17.6834 57.6546 17.6834C57.9635 17.6834 58.2312 17.6589 58.4576 17.61C58.687 17.558 58.9409 17.4708 59.2193 17.3484V17.7752C58.9746 17.8853 58.7298 17.9648 58.4851 18.0138C58.2404 18.0658 57.9589 18.0918 57.6408 18.0918C57.136 18.0918 56.7123 17.9878 56.3697 17.7797C56.0302 17.5687 55.7732 17.2719 55.5988 16.8895C55.4275 16.5072 55.3419 16.0605 55.3419 15.5497C55.3419 15.051 55.4245 14.6029 55.5897 14.2052C55.7579 13.8075 56.0026 13.4939 56.3238 13.2645C56.6481 13.032 57.0458 12.9158 57.5169 12.9158ZM57.5123 13.315C57.0351 13.315 56.6481 13.474 56.3514 13.7922C56.0577 14.1073 55.8849 14.5631 55.8329 15.1596H58.9394C58.9394 14.7956 58.8874 14.4744 58.7834 14.196C58.6794 13.9176 58.5218 13.7019 58.3107 13.549C58.1027 13.393 57.8366 13.315 57.5123 13.315ZM62.1423 17.6926C62.2861 17.6926 62.4191 17.6819 62.5415 17.6604C62.6669 17.639 62.777 17.6115 62.8719 17.5778V17.9633C62.774 17.9969 62.6593 18.026 62.5277 18.0505C62.3962 18.078 62.2509 18.0918 62.0918 18.0918C61.8104 18.0918 61.5763 18.0398 61.3897 17.9358C61.2031 17.8287 61.0624 17.6681 60.9676 17.4539C60.8727 17.2368 60.8253 16.9614 60.8253 16.628V13.3976H60.082V13.1222L60.8207 12.98L60.9813 11.8053H61.2888V13.0121H62.8443V13.3976H61.2888V16.6005C61.2888 16.9584 61.3546 17.2306 61.4861 17.4172C61.6207 17.6008 61.8394 17.6926 62.1423 17.6926ZM66.8457 13.0121V18H66.3822V13.0121H66.8457ZM66.6208 11.1675C66.7371 11.1675 66.8227 11.2027 66.8778 11.273C66.9328 11.3403 66.9604 11.4321 66.9604 11.5483C66.9604 11.6646 66.9328 11.7564 66.8778 11.8237C66.8227 11.891 66.7371 11.9246 66.6208 11.9246C66.5107 11.9246 66.4281 11.891 66.373 11.8237C66.318 11.7564 66.2904 11.6646 66.2904 11.5483C66.2904 11.4321 66.318 11.3403 66.373 11.273C66.4281 11.2027 66.5107 11.1675 66.6208 11.1675ZM69.8604 17.6926C70.0042 17.6926 70.1373 17.6819 70.2596 17.6604C70.385 17.639 70.4952 17.6115 70.59 17.5778V17.9633C70.4921 17.9969 70.3774 18.026 70.2459 18.0505C70.1143 18.078 69.969 18.0918 69.8099 18.0918C69.5285 18.0918 69.2945 18.0398 69.1079 17.9358C68.9213 17.8287 68.7805 17.6681 68.6857 17.4539C68.5909 17.2368 68.5435 16.9614 68.5435 16.628V13.3976H67.8001V13.1222L68.5389 12.98L68.6995 11.8053H69.0069V13.0121H70.5625V13.3976H69.0069V16.6005C69.0069 16.9584 69.0727 17.2306 69.2042 17.4172C69.3388 17.6008 69.5576 17.6926 69.8604 17.6926ZM78.2393 15.4992C78.2393 15.8846 78.1919 16.2364 78.0971 16.5546C78.0022 16.8697 77.8615 17.1419 77.6749 17.3714C77.4883 17.6008 77.2558 17.7782 76.9774 17.9036C76.7021 18.0291 76.3809 18.0918 76.0138 18.0918C75.6651 18.0918 75.3546 18.0306 75.0823 17.9082C74.8101 17.7828 74.5791 17.6054 74.3894 17.3759C74.2028 17.1465 74.0606 16.8742 73.9627 16.5592C73.8648 16.241 73.8158 15.8877 73.8158 15.4992C73.8158 14.9638 73.9046 14.5034 74.082 14.118C74.2625 13.7295 74.5194 13.4327 74.8529 13.2278C75.1894 13.0198 75.5917 12.9158 76.0597 12.9158C76.543 12.9158 76.9453 13.0259 77.2665 13.2461C77.5908 13.4633 77.834 13.7662 77.9961 14.1547C78.1583 14.5432 78.2393 14.9914 78.2393 15.4992ZM74.2931 15.4992C74.2931 15.9366 74.3558 16.319 74.4812 16.6463C74.6066 16.9737 74.7963 17.2291 75.0502 17.4127C75.3072 17.5962 75.6314 17.688 76.023 17.688C76.4237 17.688 76.7526 17.5962 77.0096 17.4127C77.2665 17.2291 77.4562 16.9721 77.5785 16.6418C77.7009 16.3114 77.7621 15.9305 77.7621 15.4992C77.7621 15.0801 77.704 14.7069 77.5877 14.3795C77.4715 14.0522 77.2879 13.7953 77.0371 13.6086C76.7862 13.419 76.4589 13.3241 76.0551 13.3241C75.4769 13.3241 75.038 13.5169 74.7382 13.9023C74.4414 14.2878 74.2931 14.8201 74.2931 15.4992ZM81.8139 12.9158C82.3737 12.9158 82.8035 13.0626 83.1033 13.3563C83.4031 13.6499 83.553 14.1103 83.553 14.7375V18H83.0941V14.765C83.0941 14.2694 82.9809 13.9054 82.7546 13.6729C82.5282 13.4404 82.1993 13.3241 81.768 13.3241C81.2204 13.3241 80.8013 13.4848 80.5107 13.806C80.2232 14.1241 80.0794 14.6059 80.0794 15.2514V18H79.6159V13.0121H79.9922L80.061 13.9207H80.0885C80.1773 13.7341 80.2981 13.5658 80.4511 13.4159C80.6071 13.263 80.7983 13.1421 81.0246 13.0534C81.251 12.9616 81.5141 12.9158 81.8139 12.9158Z" fill="white"/>
<path d="M53.0475 29.3134H56.1739V33.6513C55.7049 33.8103 55.2215 33.9286 54.7239 34.0061C54.2304 34.0836 53.6777 34.1224 53.0659 34.1224C52.1359 34.1224 51.3507 33.9368 50.7104 33.5656C50.0741 33.1944 49.5907 32.6662 49.2604 31.981C48.93 31.2917 48.7648 30.4739 48.7648 29.5276C48.7648 28.6017 48.9463 27.7941 49.3093 27.1048C49.6764 26.4154 50.2046 25.8811 50.8939 25.5018C51.5873 25.1184 52.4194 24.9267 53.3902 24.9267C53.8878 24.9267 54.3589 24.9736 54.8035 25.0674C55.2521 25.1571 55.6682 25.2856 56.0516 25.4528L55.6539 26.3583C55.3235 26.2156 54.9585 26.0932 54.5587 25.9912C54.1631 25.8893 53.7532 25.8383 53.329 25.8383C52.5989 25.8383 51.9728 25.9892 51.4507 26.291C50.9327 26.5929 50.535 27.0191 50.2576 27.5697C49.9843 28.1204 49.8477 28.773 49.8477 29.5276C49.8477 30.274 49.968 30.9246 50.2087 31.4793C50.4493 32.0299 50.8246 32.4582 51.3344 32.7641C51.8443 33.07 52.501 33.223 53.3045 33.223C53.7083 33.223 54.055 33.2006 54.3446 33.1557C54.6342 33.1067 54.8973 33.0496 55.1338 32.9844V30.2434H53.0475V29.3134ZM63.9686 30.635C63.9686 31.1856 63.8972 31.6771 63.7544 32.1095C63.6117 32.5418 63.4057 32.9069 63.1365 33.2046C62.8673 33.5024 62.541 33.7308 62.1576 33.8899C61.7782 34.0449 61.3479 34.1224 60.8666 34.1224C60.418 34.1224 60.006 34.0449 59.6307 33.8899C59.2596 33.7308 58.9373 33.5024 58.6641 33.2046C58.3949 32.9069 58.1848 32.5418 58.0339 32.1095C57.887 31.6771 57.8136 31.1856 57.8136 30.635C57.8136 29.9008 57.938 29.2767 58.1868 28.7628C58.4356 28.2448 58.7905 27.8512 59.2514 27.582C59.7164 27.3087 60.2691 27.1721 60.9095 27.1721C61.5213 27.1721 62.0556 27.3087 62.5124 27.582C62.9733 27.8553 63.3302 28.2509 63.5831 28.7689C63.8401 29.2829 63.9686 29.9049 63.9686 30.635ZM58.866 30.635C58.866 31.1734 58.9373 31.6404 59.0801 32.0361C59.2229 32.4317 59.4431 32.7376 59.7409 32.9538C60.0386 33.17 60.422 33.278 60.8911 33.278C61.3561 33.278 61.7375 33.17 62.0352 32.9538C62.337 32.7376 62.5593 32.4317 62.7021 32.0361C62.8448 31.6404 62.9162 31.1734 62.9162 30.635C62.9162 30.1007 62.8448 29.6397 62.7021 29.2523C62.5593 28.8607 62.3391 28.5589 62.0413 28.3468C61.7436 28.1347 61.3581 28.0286 60.885 28.0286C60.1875 28.0286 59.6756 28.2591 59.3493 28.72C59.0271 29.1809 58.866 29.8192 58.866 30.635ZM71.5062 30.635C71.5062 31.1856 71.4348 31.6771 71.2921 32.1095C71.1493 32.5418 70.9433 32.9069 70.6741 33.2046C70.4049 33.5024 70.0786 33.7308 69.6952 33.8899C69.3159 34.0449 68.8856 34.1224 68.4043 34.1224C67.9556 34.1224 67.5436 34.0449 67.1684 33.8899C66.7972 33.7308 66.475 33.5024 66.2017 33.2046C65.9325 32.9069 65.7225 32.5418 65.5715 32.1095C65.4247 31.6771 65.3513 31.1856 65.3513 30.635C65.3513 29.9008 65.4757 29.2767 65.7245 28.7628C65.9733 28.2448 66.3282 27.8512 66.7891 27.582C67.254 27.3087 67.8067 27.1721 68.4471 27.1721C69.0589 27.1721 69.5933 27.3087 70.0501 27.582C70.511 27.8553 70.8679 28.2509 71.1208 28.7689C71.3777 29.2829 71.5062 29.9049 71.5062 30.635ZM66.4036 30.635C66.4036 31.1734 66.475 31.6404 66.6178 32.0361C66.7605 32.4317 66.9808 32.7376 67.2785 32.9538C67.5763 33.17 67.9597 33.278 68.4287 33.278C68.8937 33.278 69.2751 33.17 69.5729 32.9538C69.8747 32.7376 70.097 32.4317 70.2397 32.0361C70.3825 31.6404 70.4539 31.1734 70.4539 30.635C70.4539 30.1007 70.3825 29.6397 70.2397 29.2523C70.097 28.8607 69.8767 28.5589 69.579 28.3468C69.2812 28.1347 68.8958 28.0286 68.4226 28.0286C67.7252 28.0286 67.2133 28.2591 66.887 28.72C66.5647 29.1809 66.4036 29.8192 66.4036 30.635ZM75.1343 37.0102C74.2533 37.0102 73.5742 36.845 73.097 36.5146C72.6197 36.1883 72.3811 35.7294 72.3811 35.138C72.3811 34.7179 72.5137 34.3589 72.7788 34.0612C73.048 33.7634 73.4192 33.5656 73.8923 33.4677C73.7169 33.3861 73.566 33.2638 73.4396 33.1006C73.3172 32.9375 73.256 32.7498 73.256 32.5377C73.256 32.293 73.3233 32.0789 73.4579 31.8953C73.5966 31.7077 73.8067 31.5282 74.0881 31.3569C73.7373 31.2142 73.4518 30.9735 73.2316 30.635C73.0154 30.2924 72.9073 29.8947 72.9073 29.4419C72.9073 28.9606 73.0072 28.5507 73.2071 28.2122C73.4069 27.8695 73.6965 27.6085 74.0759 27.429C74.4552 27.2496 74.9141 27.1598 75.4525 27.1598C75.5708 27.1598 75.689 27.1659 75.8073 27.1782C75.9297 27.1863 76.0459 27.2006 76.1561 27.221C76.2662 27.2373 76.362 27.2577 76.4436 27.2822H78.7441V27.9368L77.5082 28.0898C77.6306 28.2489 77.7325 28.4406 77.8141 28.6649C77.8957 28.8892 77.9365 29.1381 77.9365 29.4113C77.9365 30.0803 77.7101 30.6125 77.2573 31.0082C76.8046 31.3998 76.1826 31.5955 75.3913 31.5955C75.2037 31.5955 75.012 31.5792 74.8162 31.5466C74.6163 31.6567 74.4634 31.7791 74.3573 31.9137C74.2553 32.0483 74.2044 32.2033 74.2044 32.3787C74.2044 32.5092 74.2431 32.6132 74.3206 32.6907C74.4022 32.7682 74.5184 32.8253 74.6693 32.862C74.8203 32.8946 75.0018 32.911 75.2139 32.911H76.3947C77.1248 32.911 77.6836 33.0639 78.0711 33.3698C78.4626 33.6757 78.6584 34.1224 78.6584 34.7097C78.6584 35.4521 78.3566 36.0211 77.7529 36.4167C77.1493 36.8123 76.2764 37.0102 75.1343 37.0102ZM75.1649 36.2148C75.7196 36.2148 76.1785 36.1577 76.5415 36.0435C76.9086 35.9334 77.1819 35.7722 77.3614 35.5601C77.5449 35.3521 77.6367 35.1033 77.6367 34.8137C77.6367 34.5445 77.5755 34.3406 77.4531 34.2019C77.3308 34.0673 77.1513 33.9776 76.9147 33.9327C76.6782 33.8838 76.3886 33.8593 76.0459 33.8593H74.8835C74.5816 33.8593 74.3186 33.9062 74.0942 34C73.8699 34.0938 73.6965 34.2325 73.5742 34.416C73.4559 34.5996 73.3967 34.828 73.3967 35.1013C73.3967 35.4643 73.5497 35.7396 73.8556 35.9272C74.1615 36.1189 74.598 36.2148 75.1649 36.2148ZM75.428 30.8552C75.9134 30.8552 76.2784 30.7329 76.5232 30.4881C76.7679 30.2434 76.8903 29.8865 76.8903 29.4175C76.8903 28.9158 76.7658 28.5405 76.517 28.2917C76.2682 28.0388 75.9011 27.9124 75.4158 27.9124C74.9508 27.9124 74.5918 28.0429 74.339 28.3039C74.0901 28.5609 73.9657 28.9382 73.9657 29.4358C73.9657 29.8926 74.0922 30.2434 74.3451 30.4881C74.598 30.7329 74.9589 30.8552 75.428 30.8552ZM81.0874 34H80.0656V24.48H81.0874V34ZM85.8167 27.1721C86.3878 27.1721 86.8772 27.2985 87.2851 27.5514C87.693 27.8043 88.005 28.1591 88.2212 28.616C88.4374 29.0687 88.5455 29.599 88.5455 30.2067V30.8369H83.914C83.9262 31.6241 84.122 32.2237 84.5013 32.6356C84.8806 33.0476 85.415 33.2536 86.1043 33.2536C86.5285 33.2536 86.9037 33.2148 87.23 33.1373C87.5564 33.0598 87.8949 32.9456 88.2457 32.7947V33.688C87.9071 33.8389 87.5706 33.949 87.2362 34.0184C86.9058 34.0877 86.5142 34.1224 86.0615 34.1224C85.417 34.1224 84.8541 33.9918 84.3728 33.7308C83.8956 33.4657 83.5244 33.0782 83.2593 32.5683C82.9942 32.0585 82.8616 31.4344 82.8616 30.6962C82.8616 29.9742 82.982 29.3502 83.2226 28.824C83.4673 28.2937 83.81 27.8859 84.2505 27.6003C84.6951 27.3148 85.2172 27.1721 85.8167 27.1721ZM85.8045 28.0041C85.262 28.0041 84.8297 28.1816 84.5074 28.5364C84.1852 28.8913 83.9935 29.3869 83.9323 30.0232H87.4809C87.4768 29.6234 87.4136 29.2727 87.2912 28.9708C87.1729 28.6649 86.9914 28.4283 86.7467 28.2611C86.502 28.0898 86.1879 28.0041 85.8045 28.0041ZM96.0158 25.0552C97.1701 25.0552 98.0124 25.2815 98.5426 25.7343C99.077 26.183 99.3441 26.8274 99.3441 27.6676C99.3441 28.047 99.2809 28.4079 99.1545 28.7506C99.0321 29.0891 98.8322 29.3889 98.5549 29.6499C98.2775 29.9069 97.9125 30.1108 97.4597 30.2618C97.011 30.4086 96.4604 30.482 95.8078 30.482H94.7188V34H93.6787V25.0552H96.0158ZM95.9179 25.9423H94.7188V29.5888H95.6915C96.2626 29.5888 96.7378 29.5276 97.1171 29.4052C97.5005 29.2829 97.7881 29.085 97.9798 28.8117C98.1715 28.5344 98.2673 28.1673 98.2673 27.7105C98.2673 27.115 98.0777 26.6724 97.6983 26.3828C97.319 26.0891 96.7255 25.9423 95.9179 25.9423ZM102.085 34H101.063V24.48H102.085V34ZM106.741 27.1843C107.541 27.1843 108.134 27.3638 108.521 27.7227C108.909 28.0816 109.103 28.6547 109.103 29.4419V34H108.362L108.167 33.0088H108.118C107.93 33.2536 107.734 33.4596 107.53 33.6268C107.326 33.7899 107.09 33.9143 106.821 34C106.555 34.0816 106.229 34.1224 105.842 34.1224C105.434 34.1224 105.071 34.051 104.753 33.9082C104.439 33.7655 104.19 33.5493 104.006 33.2597C103.827 32.9701 103.737 32.603 103.737 32.1584C103.737 31.4895 104.002 30.9756 104.532 30.6166C105.063 30.2577 105.87 30.0619 106.955 30.0293L108.112 29.9803V29.5704C108.112 28.9912 107.987 28.5854 107.738 28.3529C107.49 28.1204 107.139 28.0041 106.686 28.0041C106.335 28.0041 106.001 28.0551 105.683 28.1571C105.364 28.2591 105.063 28.3794 104.777 28.5181L104.465 27.7472C104.767 27.5922 105.114 27.4596 105.505 27.3495C105.897 27.2394 106.309 27.1843 106.741 27.1843ZM108.099 30.6962L107.078 30.739C106.241 30.7716 105.652 30.9083 105.309 31.1489C104.967 31.3896 104.795 31.7301 104.795 32.1707C104.795 32.5541 104.912 32.8375 105.144 33.0211C105.377 33.2046 105.685 33.2964 106.068 33.2964C106.664 33.2964 107.151 33.1312 107.53 32.8008C107.91 32.4704 108.099 31.9749 108.099 31.3141V30.6962ZM110.137 27.2944H111.226L112.706 31.1856C112.792 31.414 112.872 31.6343 112.945 31.8464C113.018 32.0544 113.084 32.2543 113.141 32.446C113.198 32.6377 113.243 32.8233 113.275 33.0027H113.318C113.375 32.7988 113.457 32.5316 113.563 32.2012C113.669 31.8668 113.783 31.5262 113.906 31.1795L115.307 27.2944H116.402L113.483 34.985C113.328 35.397 113.147 35.7559 112.939 36.0618C112.735 36.3678 112.486 36.6023 112.192 36.7654C111.899 36.9327 111.544 37.0163 111.128 37.0163C110.936 37.0163 110.767 37.004 110.62 36.9796C110.473 36.9592 110.347 36.9347 110.241 36.9062V36.0924C110.33 36.1128 110.439 36.1312 110.565 36.1475C110.695 36.1638 110.83 36.172 110.969 36.172C111.222 36.172 111.44 36.123 111.623 36.0251C111.811 35.9313 111.972 35.7926 112.107 35.6091C112.241 35.4255 112.358 35.2073 112.455 34.9544L112.823 34.0122L110.137 27.2944Z" fill="white"/>
<defs>
<linearGradient id="paint0_linear_2019_25697" x1="24.6769" y1="18.0714" x2="16.4111" y2="26.7386" gradientUnits="userSpaceOnUse">
<stop stop-color="#00C3FF"/>
<stop offset="1" stop-color="#1BE2FA"/>
</linearGradient>
<linearGradient id="paint1_linear_2019_25697" x1="29.2891" y1="22.8246" x2="40.7352" y2="22.8246" gradientUnits="userSpaceOnUse">
<stop stop-color="#FFCE00"/>
<stop offset="1" stop-color="#FFEA00"/>
</linearGradient>
<linearGradient id="paint2_linear_2019_25697" x1="16.3674" y1="36.5581" x2="31.1219" y2="24.2559" gradientUnits="userSpaceOnUse">
<stop stop-color="#DE2453"/>
<stop offset="1" stop-color="#FE3944"/>
</linearGradient>
<linearGradient id="paint3_linear_2019_25697" x1="17.1082" y1="9.44363" x2="31.1399" y2="21.363" gradientUnits="userSpaceOnUse">
<stop stop-color="#11D574"/>
<stop offset="1" stop-color="#01F176"/>
</linearGradient>
</defs>
</svg>
