<svg width="132" height="46" viewBox="0 0 132 46" fill="none" xmlns="http://www.w3.org/2000/svg">
<rect x="0.391566" y="0.391566" width="131.217" height="45.2169" rx="7.43976" stroke="white" stroke-width="0.783133"/>
<path d="M37.6465 32.8871L37.6465 32.8871L37.643 32.8919C37.0276 33.7309 36.4194 34.5227 35.7316 35.1105C35.0516 35.6916 34.3155 36.0543 33.4421 36.0662L33.4394 36.0662C32.5462 36.0845 31.96 35.8529 31.2855 35.5864L31.2579 35.5755C30.5588 35.2993 29.7813 34.9997 28.581 34.9997C27.3783 34.9997 26.5859 35.2793 25.8768 35.5544C25.8296 35.5727 25.7829 35.5909 25.7367 35.6089C25.096 35.859 24.5349 36.0779 23.7304 36.1069C22.8991 36.1358 22.1419 35.7566 21.4169 35.1318C20.689 34.5045 20.0355 33.6664 19.4113 32.8459C18.1827 31.2261 17.0912 28.9127 16.6276 26.504C16.1635 24.0931 16.3369 21.6369 17.5672 19.6846L17.5677 19.6839C18.7825 17.7469 20.9659 16.5177 23.3358 16.4791C24.2054 16.4667 25.071 16.737 25.9037 17.0335C26.0069 17.0703 26.1105 17.1078 26.2136 17.1451C26.5161 17.2545 26.8151 17.3627 27.0937 17.4488C27.4672 17.5642 27.8444 17.6536 28.1964 17.6536C28.5526 17.6536 28.9576 17.5446 29.3632 17.4118C29.5833 17.3397 29.8334 17.2499 30.091 17.1574C30.2975 17.0832 30.5088 17.0073 30.7137 16.9373C31.6821 16.6065 32.7361 16.3236 33.7952 16.4234L33.8054 16.4244L33.8155 16.4248C34.696 16.4619 37.0135 16.734 38.6334 18.6059C38.5713 18.6471 38.5036 18.6936 38.4312 18.7453C38.1081 18.9762 37.6903 19.3137 37.277 19.7623C36.4499 20.6598 35.6284 22.017 35.6443 23.8529L35.6444 23.8538C35.6681 26.0324 36.7208 27.491 37.761 28.3956C38.4285 28.976 39.0967 29.3345 39.5016 29.5202C39.2562 30.1634 38.6912 31.5067 37.6465 32.8871ZM32.0341 13.5422L32.0341 13.5422L32.0307 13.546C31.1408 14.5465 29.722 15.3229 28.3179 15.3422C28.2657 14.0478 28.9652 12.6972 29.7978 11.7935C30.7233 10.8348 32.2103 10.0868 33.5005 9.92251C33.5353 11.2397 32.9289 12.5622 32.0341 13.5422Z" stroke="white" stroke-width="0.783133"/>
<path d="M53.1439 18L52.2308 15.6277H49.4133L48.4818 18H48L50.6385 11.2684H51.0698L53.6395 18H53.1439ZM52.0793 15.2009L51.1524 12.6863C51.1279 12.6221 51.0974 12.5395 51.0606 12.4385C51.027 12.3376 50.9903 12.2305 50.9505 12.1173C50.9138 12.0041 50.8771 11.8971 50.8404 11.7961C50.8098 11.9032 50.7761 12.0103 50.7394 12.1173C50.7027 12.2244 50.6675 12.3284 50.6339 12.4294C50.6002 12.5272 50.5681 12.616 50.5375 12.6955L49.5739 15.2009H52.0793ZM55.5575 18L53.6441 13.0121H54.135L55.4153 16.4123C55.4948 16.6173 55.5652 16.8146 55.6264 17.0043C55.6906 17.1909 55.7441 17.3606 55.787 17.5136H55.8099C55.8589 17.3606 55.9139 17.1893 55.9751 16.9997C56.0393 16.81 56.1097 16.6142 56.1862 16.4123L57.4664 13.0121H57.962L56.0439 18H55.5575ZM60.5362 12.9249C61.0838 12.9249 61.4937 13.0626 61.766 13.3379C62.0383 13.6132 62.1744 14.0522 62.1744 14.6549V18H61.8165L61.7339 17.1282H61.7063C61.5993 17.3148 61.4693 17.4815 61.3163 17.6283C61.1634 17.7721 60.9752 17.8853 60.7519 17.9679C60.5317 18.0505 60.2624 18.0918 59.9443 18.0918C59.6231 18.0918 59.3478 18.0382 59.1183 17.9312C58.892 17.8241 58.7161 17.6681 58.5906 17.4631C58.4683 17.2582 58.4071 17.0088 58.4071 16.7152C58.4071 16.2196 58.6121 15.8433 59.022 15.5864C59.4319 15.3263 60.0208 15.1795 60.7886 15.1458L61.7155 15.1V14.7375C61.7155 14.2266 61.6146 13.8626 61.4127 13.6454C61.2108 13.4282 60.9125 13.3196 60.5179 13.3196C60.2609 13.3196 60.0131 13.3532 59.7745 13.4205C59.539 13.4848 59.2988 13.5781 59.0541 13.7004L58.9073 13.315C59.1459 13.2018 59.4013 13.1085 59.6736 13.0351C59.9489 12.9616 60.2364 12.9249 60.5362 12.9249ZM61.7109 15.4625L60.8391 15.4992C60.2059 15.5298 59.724 15.643 59.3937 15.8387C59.0633 16.0345 58.8981 16.3282 58.8981 16.7198C58.8981 17.0349 58.996 17.2765 59.1918 17.4448C59.3906 17.613 59.6659 17.6971 60.0177 17.6971C60.5653 17.6971 60.9829 17.5411 61.2704 17.2291C61.561 16.9171 61.7079 16.4919 61.7109 15.9535V15.4625ZM64.2393 13.0121V18H63.7758V13.0121H64.2393ZM64.0144 11.1675C64.1307 11.1675 64.2163 11.2027 64.2714 11.273C64.3265 11.3403 64.354 11.4321 64.354 11.5483C64.354 11.6646 64.3265 11.7564 64.2714 11.8237C64.2163 11.891 64.1307 11.9246 64.0144 11.9246C63.9043 11.9246 63.8217 11.891 63.7667 11.8237C63.7116 11.7564 63.6841 11.6646 63.6841 11.5483C63.6841 11.4321 63.7116 11.3403 63.7667 11.273C63.8217 11.2027 63.9043 11.1675 64.0144 11.1675ZM66.3776 18H65.9096V10.86H66.3776V18ZM69.7778 12.9249C70.3254 12.9249 70.7353 13.0626 71.0076 13.3379C71.2798 13.6132 71.416 14.0522 71.416 14.6549V18H71.0581L70.9755 17.1282H70.9479C70.8409 17.3148 70.7108 17.4815 70.5579 17.6283C70.4049 17.7721 70.2168 17.8853 69.9935 17.9679C69.7732 18.0505 69.504 18.0918 69.1859 18.0918C68.8647 18.0918 68.5893 18.0382 68.3599 17.9312C68.1335 17.8241 67.9576 17.6681 67.8322 17.4631C67.7099 17.2582 67.6487 17.0088 67.6487 16.7152C67.6487 16.2196 67.8536 15.8433 68.2636 15.5864C68.6735 15.3263 69.2624 15.1795 70.0302 15.1458L70.9571 15.1V14.7375C70.9571 14.2266 70.8562 13.8626 70.6542 13.6454C70.4523 13.4282 70.1541 13.3196 69.7595 13.3196C69.5025 13.3196 69.2547 13.3532 69.0161 13.4205C68.7805 13.4848 68.5404 13.5781 68.2957 13.7004L68.1488 13.315C68.3874 13.2018 68.6429 13.1085 68.9151 13.0351C69.1905 12.9616 69.478 12.9249 69.7778 12.9249ZM70.9525 15.4625L70.0807 15.4992C69.4474 15.5298 68.9656 15.643 68.6352 15.8387C68.3049 16.0345 68.1397 16.3282 68.1397 16.7198C68.1397 17.0349 68.2376 17.2765 68.4333 17.4448C68.6322 17.613 68.9075 17.6971 69.2593 17.6971C69.8069 17.6971 70.2244 17.5411 70.512 17.2291C70.8026 16.9171 70.9495 16.4919 70.9525 15.9535V15.4625ZM73.4763 10.86V12.8882C73.4763 13.0626 73.4732 13.2538 73.4671 13.4618C73.461 13.6698 73.4549 13.8427 73.4487 13.9803H73.4763C73.5956 13.6714 73.8036 13.4159 74.1003 13.214C74.3971 13.0121 74.7672 12.9112 75.2108 12.9112C75.8593 12.9112 76.3595 13.1299 76.7113 13.5673C77.0661 14.0048 77.2436 14.6457 77.2436 15.49C77.2436 16.007 77.164 16.4613 77.005 16.8528C76.8459 17.2413 76.6088 17.5457 76.2937 17.766C75.9817 17.9832 75.5901 18.0918 75.119 18.0918C74.6938 18.0918 74.3466 18.0031 74.0774 17.8256C73.8082 17.6451 73.6124 17.4203 73.49 17.1511H73.4533L73.3662 18H73.0128V10.86H73.4763ZM75.1603 13.315C74.7657 13.315 74.4445 13.4006 74.1967 13.5719C73.9489 13.7402 73.7669 13.9864 73.6507 14.3107C73.5344 14.635 73.4763 15.0311 73.4763 15.4992V15.5726C73.4763 16.2609 73.6017 16.7855 73.8526 17.1465C74.1034 17.5075 74.5103 17.688 75.0731 17.688C75.6299 17.688 76.0505 17.4983 76.335 17.119C76.6226 16.7366 76.7664 16.1936 76.7664 15.49C76.7664 14.7711 76.6333 14.2296 76.3671 13.8656C76.101 13.4985 75.6987 13.315 75.1603 13.315ZM79.0882 18H78.6202V10.86H79.0882V18ZM82.6353 12.9158C83.0605 12.9158 83.4138 13.0152 83.6952 13.214C83.9797 13.4129 84.1908 13.6851 84.3285 14.0308C84.4692 14.3765 84.5396 14.7726 84.5396 15.2193V15.5542H80.9375C80.9375 16.2395 81.095 16.7656 81.4101 17.1327C81.7282 17.4998 82.1825 17.6834 82.7729 17.6834C83.0819 17.6834 83.3496 17.6589 83.5759 17.61C83.8054 17.558 84.0593 17.4708 84.3377 17.3484V17.7752C84.0929 17.8853 83.8482 17.9648 83.6035 18.0138C83.3587 18.0658 83.0773 18.0918 82.7592 18.0918C82.2544 18.0918 81.8307 17.9878 81.4881 17.7797C81.1485 17.5687 80.8916 17.2719 80.7172 16.8895C80.5459 16.5072 80.4602 16.0605 80.4602 15.5497C80.4602 15.051 80.5428 14.6029 80.708 14.2052C80.8763 13.8075 81.121 13.4939 81.4422 13.2645C81.7665 13.032 82.1642 12.9158 82.6353 12.9158ZM82.6307 13.315C82.1535 13.315 81.7665 13.474 81.4697 13.7922C81.1761 14.1073 81.0032 14.5631 80.9512 15.1596H84.0577C84.0577 14.7956 84.0057 14.4744 83.9017 14.196C83.7977 13.9176 83.6402 13.7019 83.4291 13.549C83.2211 13.393 82.9549 13.315 82.6307 13.315ZM92.4917 15.4992C92.4917 15.8846 92.4443 16.2364 92.3495 16.5546C92.2546 16.8697 92.1139 17.1419 91.9273 17.3714C91.7407 17.6008 91.5082 17.7782 91.2298 17.9036C90.9545 18.0291 90.6333 18.0918 90.2662 18.0918C89.9175 18.0918 89.607 18.0306 89.3347 17.9082C89.0625 17.7828 88.8315 17.6054 88.6418 17.3759C88.4552 17.1465 88.313 16.8742 88.2151 16.5592C88.1172 16.241 88.0682 15.8877 88.0682 15.4992C88.0682 14.9638 88.157 14.5034 88.3344 14.118C88.5149 13.7295 88.7718 13.4327 89.1053 13.2278C89.4418 13.0198 89.8441 12.9158 90.3121 12.9158C90.7954 12.9158 91.1977 13.0259 91.5189 13.2461C91.8432 13.4633 92.0864 13.7662 92.2485 14.1547C92.4107 14.5432 92.4917 14.9914 92.4917 15.4992ZM88.5455 15.4992C88.5455 15.9366 88.6082 16.319 88.7336 16.6463C88.859 16.9737 89.0487 17.2291 89.3026 17.4127C89.5596 17.5962 89.8838 17.688 90.2754 17.688C90.6761 17.688 91.005 17.5962 91.262 17.4127C91.5189 17.2291 91.7086 16.9721 91.8309 16.6418C91.9533 16.3114 92.0145 15.9305 92.0145 15.4992C92.0145 15.0801 91.9564 14.7069 91.8401 14.3795C91.7239 14.0522 91.5403 13.7953 91.2895 13.6086C91.0386 13.419 90.7113 13.3241 90.3075 13.3241C89.7293 13.3241 89.2904 13.5169 88.9906 13.9023C88.6938 14.2878 88.5455 14.8201 88.5455 15.4992ZM96.0663 12.9158C96.6261 12.9158 97.0559 13.0626 97.3557 13.3563C97.6555 13.6499 97.8054 14.1103 97.8054 14.7375V18H97.3465V14.765C97.3465 14.2694 97.2333 13.9054 97.007 13.6729C96.7806 13.4404 96.4517 13.3241 96.0204 13.3241C95.4728 13.3241 95.0537 13.4848 94.7631 13.806C94.4756 14.1241 94.3318 14.6059 94.3318 15.2514V18H93.8683V13.0121H94.2446L94.3134 13.9207H94.341C94.4297 13.7341 94.5505 13.5658 94.7035 13.4159C94.8595 13.263 95.0507 13.1421 95.277 13.0534C95.5034 12.9616 95.7665 12.9158 96.0663 12.9158ZM103.211 17.6926C103.355 17.6926 103.488 17.6819 103.61 17.6604C103.735 17.639 103.846 17.6115 103.94 17.5778V17.9633C103.843 17.9969 103.728 18.026 103.596 18.0505C103.465 18.078 103.319 18.0918 103.16 18.0918C102.879 18.0918 102.645 18.0398 102.458 17.9358C102.272 17.8287 102.131 17.6681 102.036 17.4539C101.941 17.2368 101.894 16.9614 101.894 16.628V13.3976H101.151V13.1222L101.889 12.98L102.05 11.8053H102.357V13.0121H103.913V13.3976H102.357V16.6005C102.357 16.9584 102.423 17.2306 102.555 17.4172C102.689 17.6008 102.908 17.6926 103.211 17.6926ZM105.473 10.86V13.1911C105.473 13.3257 105.47 13.4511 105.464 13.5673C105.461 13.6836 105.455 13.8014 105.446 13.9207H105.478C105.56 13.731 105.678 13.5612 105.831 13.4113C105.987 13.2614 106.178 13.1421 106.405 13.0534C106.634 12.9647 106.899 12.9203 107.198 12.9203C107.578 12.9203 107.896 12.9861 108.153 13.1177C108.413 13.2461 108.61 13.4435 108.745 13.7096C108.879 13.9757 108.947 14.3184 108.947 14.7375V18H108.488V14.765C108.488 14.2694 108.375 13.9054 108.148 13.6729C107.922 13.4404 107.593 13.3241 107.162 13.3241C106.795 13.3241 106.486 13.396 106.235 13.5398C105.984 13.6805 105.794 13.8947 105.666 14.1822C105.537 14.4667 105.473 14.8231 105.473 15.2514V18H105.01V10.86H105.473ZM112.452 12.9158C112.878 12.9158 113.231 13.0152 113.512 13.214C113.797 13.4129 114.008 13.6851 114.146 14.0308C114.286 14.3765 114.357 14.7726 114.357 15.2193V15.5542H110.755C110.755 16.2395 110.912 16.7656 111.227 17.1327C111.545 17.4998 112 17.6834 112.59 17.6834C112.899 17.6834 113.167 17.6589 113.393 17.61C113.623 17.558 113.876 17.4708 114.155 17.3484V17.7752C113.91 17.8853 113.665 17.9648 113.421 18.0138C113.176 18.0658 112.894 18.0918 112.576 18.0918C112.072 18.0918 111.648 17.9878 111.305 17.7797C110.966 17.5687 110.709 17.2719 110.534 16.8895C110.363 16.5072 110.277 16.0605 110.277 15.5497C110.277 15.051 110.36 14.6029 110.525 14.2052C110.693 13.8075 110.938 13.4939 111.259 13.2645C111.584 13.032 111.981 12.9158 112.452 12.9158ZM112.448 13.315C111.971 13.315 111.584 13.474 111.287 13.7922C110.993 14.1073 110.82 14.5631 110.768 15.1596H113.875C113.875 14.7956 113.823 14.4744 113.719 14.196C113.615 13.9176 113.457 13.7019 113.246 13.549C113.038 13.393 112.772 13.315 112.448 13.315Z" fill="white"/>
<path d="M54.8341 34L53.7328 31.1611H50.1475L49.0523 34H48L51.4996 25.0184H52.4357L55.9109 34H54.8341ZM53.4207 30.2373L52.3745 27.4168C52.3501 27.3434 52.3093 27.223 52.2522 27.0558C52.1991 26.8886 52.1441 26.7152 52.087 26.5358C52.0299 26.3563 51.983 26.2115 51.9463 26.1014C51.9055 26.2686 51.8606 26.4358 51.8117 26.6031C51.7668 26.7662 51.7219 26.9192 51.6771 27.0619C51.6322 27.2006 51.5934 27.3189 51.5608 27.4168L50.4962 30.2373H53.4207ZM60.1508 27.1721C60.9869 27.1721 61.6538 27.4596 62.1515 28.0347C62.6491 28.6098 62.8979 29.4746 62.8979 30.6289C62.8979 31.3916 62.7837 32.032 62.5553 32.55C62.3268 33.068 62.0046 33.4596 61.5886 33.7247C61.1766 33.9898 60.6892 34.1224 60.1263 34.1224C59.7715 34.1224 59.4594 34.0755 59.1902 33.9816C58.921 33.8878 58.6906 33.7614 58.4989 33.6023C58.3072 33.4432 58.1481 33.2699 58.0216 33.0823H57.9482C57.9605 33.2413 57.9747 33.433 57.9911 33.6574C58.0115 33.8817 58.0216 34.0775 58.0216 34.2447V36.9979H56.9999V27.2944H57.8381L57.9727 28.2856H58.0216C58.1522 28.0816 58.3112 27.8961 58.4989 27.7288C58.6865 27.5575 58.9149 27.4229 59.1841 27.325C59.4574 27.223 59.7796 27.1721 60.1508 27.1721ZM59.9734 28.0286C59.5084 28.0286 59.1331 28.1183 58.8476 28.2978C58.5662 28.4773 58.3602 28.7465 58.2297 29.1054C58.0991 29.4603 58.0298 29.9069 58.0216 30.4453V30.6411C58.0216 31.2081 58.0828 31.6873 58.2052 32.0789C58.3316 32.4704 58.5376 32.7682 58.8231 32.9721C59.1127 33.1761 59.5002 33.278 59.9856 33.278C60.4016 33.278 60.7483 33.1659 61.0257 32.9415C61.3031 32.7172 61.509 32.4052 61.6436 32.0055C61.7823 31.6017 61.8517 31.1387 61.8517 30.6166C61.8517 29.8253 61.6967 29.1972 61.3867 28.7322C61.0808 28.2631 60.6097 28.0286 59.9734 28.0286ZM67.823 27.1721C68.6592 27.1721 69.3261 27.4596 69.8237 28.0347C70.3213 28.6098 70.5701 29.4746 70.5701 30.6289C70.5701 31.3916 70.4559 32.032 70.2275 32.55C69.9991 33.068 69.6769 33.4596 69.2608 33.7247C68.8489 33.9898 68.3614 34.1224 67.7986 34.1224C67.4437 34.1224 67.1317 34.0755 66.8625 33.9816C66.5933 33.8878 66.3628 33.7614 66.1711 33.6023C65.9794 33.4432 65.8203 33.2699 65.6939 33.0823H65.6205C65.6327 33.2413 65.647 33.433 65.6633 33.6574C65.6837 33.8817 65.6939 34.0775 65.6939 34.2447V36.9979H64.6722V27.2944H65.5104L65.645 28.2856H65.6939C65.8244 28.0816 65.9835 27.8961 66.1711 27.7288C66.3587 27.5575 66.5872 27.4229 66.8564 27.325C67.1296 27.223 67.4519 27.1721 67.823 27.1721ZM67.6456 28.0286C67.1806 28.0286 66.8054 28.1183 66.5199 28.2978C66.2384 28.4773 66.0324 28.7465 65.9019 29.1054C65.7714 29.4603 65.7021 29.9069 65.6939 30.4453V30.6411C65.6939 31.2081 65.7551 31.6873 65.8774 32.0789C66.0039 32.4704 66.2099 32.7682 66.4954 32.9721C66.785 33.1761 67.1725 33.278 67.6579 33.278C68.0739 33.278 68.4206 33.1659 68.6979 32.9415C68.9753 32.7172 69.1813 32.4052 69.3159 32.0055C69.4546 31.6017 69.5239 31.1387 69.5239 30.6166C69.5239 29.8253 69.3689 29.1972 69.0589 28.7322C68.753 28.2631 68.2819 28.0286 67.6456 28.0286ZM73.3662 34H72.3444V24.48H73.3662V34ZM78.0955 27.1721C78.6666 27.1721 79.156 27.2985 79.5639 27.5514C79.9718 27.8043 80.2838 28.1591 80.5 28.616C80.7162 29.0687 80.8243 29.599 80.8243 30.2067V30.8369H76.1928C76.205 31.6241 76.4008 32.2237 76.7801 32.6356C77.1595 33.0476 77.6938 33.2536 78.3831 33.2536C78.8073 33.2536 79.1825 33.2148 79.5088 33.1373C79.8352 33.0598 80.1737 32.9456 80.5245 32.7947V33.688C80.1859 33.8389 79.8494 33.949 79.515 34.0184C79.1846 34.0877 78.793 34.1224 78.3403 34.1224C77.6958 34.1224 77.1329 33.9918 76.6516 33.7308C76.1744 33.4657 75.8032 33.0782 75.5381 32.5683C75.273 32.0585 75.1404 31.4344 75.1404 30.6962C75.1404 29.9742 75.2608 29.3502 75.5014 28.824C75.7461 28.2937 76.0888 27.8859 76.5293 27.6003C76.9739 27.3148 77.496 27.1721 78.0955 27.1721ZM78.0833 28.0041C77.5408 28.0041 77.1085 28.1816 76.7862 28.5364C76.464 28.8913 76.2723 29.3869 76.2111 30.0232H79.7597C79.7556 29.6234 79.6924 29.2727 79.57 28.9708C79.4517 28.6649 79.2702 28.4283 79.0255 28.2611C78.7808 28.0898 78.4667 28.0041 78.0833 28.0041ZM91.005 31.62C91.005 32.1503 90.8724 32.603 90.6073 32.9783C90.3463 33.3494 89.9792 33.6329 89.506 33.8287C89.0329 34.0245 88.4761 34.1224 87.8357 34.1224C87.4972 34.1224 87.177 34.106 86.8752 34.0734C86.5734 34.0408 86.296 33.9939 86.0431 33.9327C85.7902 33.8715 85.5679 33.7961 85.3762 33.7063V32.7091C85.6821 32.8355 86.0553 32.9538 86.4959 33.0639C86.9364 33.17 87.3973 33.223 87.8786 33.223C88.3272 33.223 88.7066 33.1638 89.0166 33.0456C89.3266 32.9232 89.5611 32.7498 89.7202 32.5255C89.8833 32.2971 89.9649 32.0238 89.9649 31.7057C89.9649 31.3998 89.8976 31.1448 89.763 30.9409C89.6284 30.7329 89.4041 30.5452 89.09 30.378C88.78 30.2067 88.3558 30.0252 87.8174 29.8335C87.4381 29.6989 87.1036 29.5521 86.814 29.393C86.5244 29.2298 86.2817 29.0463 86.0859 28.8423C85.8902 28.6384 85.7413 28.4018 85.6393 28.1326C85.5414 27.8634 85.4925 27.5555 85.4925 27.2088C85.4925 26.7316 85.6128 26.3237 85.8534 25.9851C86.0982 25.6425 86.4347 25.3815 86.863 25.202C87.2953 25.0184 87.7909 24.9267 88.3497 24.9267C88.8269 24.9267 89.2674 24.9715 89.6712 25.0613C90.0791 25.151 90.4523 25.2713 90.7909 25.4223L90.4666 26.3155C90.1444 26.1809 89.8017 26.0687 89.4387 25.979C89.0798 25.8893 88.7086 25.8444 88.3252 25.8444C87.9418 25.8444 87.6175 25.9015 87.3524 26.0157C87.0914 26.1258 86.8915 26.2829 86.7528 26.4868C86.6141 26.6908 86.5448 26.9335 86.5448 27.2149C86.5448 27.529 86.6101 27.79 86.7406 27.998C86.8752 28.206 87.0873 28.3916 87.3769 28.5548C87.6706 28.7139 88.058 28.8811 88.5393 29.0565C89.0655 29.2482 89.5121 29.4521 89.8792 29.6683C90.2463 29.8804 90.5257 30.1414 90.7174 30.4514C90.9091 30.7573 91.005 31.1469 91.005 31.62ZM94.8472 33.2903C95.0145 33.2903 95.1858 33.276 95.3612 33.2475C95.5366 33.2189 95.6793 33.1842 95.7894 33.1434V33.9327C95.6712 33.9857 95.506 34.0306 95.2939 34.0673C95.0858 34.104 94.8819 34.1224 94.682 34.1224C94.3272 34.1224 94.005 34.0612 93.7154 33.9388C93.4258 33.8124 93.1933 33.6003 93.0179 33.3025C92.8466 33.0048 92.7609 32.5928 92.7609 32.0666V28.0898H91.8065V27.5942L92.767 27.1965L93.1708 25.7404H93.7827V27.2944H95.7466V28.0898H93.7827V32.0361C93.7827 32.4562 93.8785 32.7702 94.0702 32.9783C94.266 33.1863 94.525 33.2903 94.8472 33.2903ZM102.929 30.635C102.929 31.1856 102.858 31.6771 102.715 32.1095C102.573 32.5418 102.367 32.9069 102.097 33.2046C101.828 33.5024 101.502 33.7308 101.118 33.8899C100.739 34.0449 100.309 34.1224 99.8275 34.1224C99.3788 34.1224 98.9668 34.0449 98.5916 33.8899C98.2204 33.7308 97.8982 33.5024 97.6249 33.2046C97.3557 32.9069 97.1456 32.5418 96.9947 32.1095C96.8479 31.6771 96.7745 31.1856 96.7745 30.635C96.7745 29.9008 96.8989 29.2767 97.1477 28.7628C97.3965 28.2448 97.7513 27.8512 98.2123 27.582C98.6772 27.3087 99.2299 27.1721 99.8703 27.1721C100.482 27.1721 101.016 27.3087 101.473 27.582C101.934 27.8553 102.291 28.2509 102.544 28.7689C102.801 29.2829 102.929 29.9049 102.929 30.635ZM97.8268 30.635C97.8268 31.1734 97.8982 31.6404 98.0409 32.0361C98.1837 32.4317 98.404 32.7376 98.7017 32.9538C98.9995 33.17 99.3829 33.278 99.8519 33.278C100.317 33.278 100.698 33.17 100.996 32.9538C101.298 32.7376 101.52 32.4317 101.663 32.0361C101.806 31.6404 101.877 31.1734 101.877 30.635C101.877 30.1007 101.806 29.6397 101.663 29.2523C101.52 28.8607 101.3 28.5589 101.002 28.3468C100.704 28.1347 100.319 28.0286 99.8458 28.0286C99.1483 28.0286 98.6365 28.2591 98.3101 28.72C97.9879 29.1809 97.8268 29.8192 97.8268 30.635ZM107.732 27.1721C107.867 27.1721 108.008 27.1802 108.154 27.1965C108.301 27.2088 108.432 27.2271 108.546 27.2516L108.417 28.1938C108.307 28.1653 108.185 28.1428 108.05 28.1265C107.916 28.1102 107.789 28.102 107.671 28.102C107.402 28.102 107.147 28.1571 106.906 28.2672C106.67 28.3733 106.462 28.5283 106.282 28.7322C106.103 28.9321 105.962 29.1748 105.86 29.4603C105.758 29.7417 105.707 30.0558 105.707 30.4025V34H104.685V27.2944H105.53L105.64 28.5303H105.683C105.821 28.2815 105.989 28.0551 106.184 27.8512C106.38 27.6432 106.606 27.478 106.863 27.3556C107.124 27.2332 107.414 27.1721 107.732 27.1721ZM112.394 27.1721C112.965 27.1721 113.455 27.2985 113.863 27.5514C114.271 27.8043 114.583 28.1591 114.799 28.616C115.015 29.0687 115.123 29.599 115.123 30.2067V30.8369H110.492C110.504 31.6241 110.7 32.2237 111.079 32.6356C111.458 33.0476 111.993 33.2536 112.682 33.2536C113.106 33.2536 113.481 33.2148 113.808 33.1373C114.134 33.0598 114.472 32.9456 114.823 32.7947V33.688C114.485 33.8389 114.148 33.949 113.814 34.0184C113.483 34.0877 113.092 34.1224 112.639 34.1224C111.995 34.1224 111.432 33.9918 110.95 33.7308C110.473 33.4657 110.102 33.0782 109.837 32.5683C109.572 32.0585 109.439 31.4344 109.439 30.6962C109.439 29.9742 109.56 29.3502 109.8 28.824C110.045 28.2937 110.388 27.8859 110.828 27.6003C111.273 27.3148 111.795 27.1721 112.394 27.1721ZM112.382 28.0041C111.84 28.0041 111.407 28.1816 111.085 28.5364C110.763 28.8913 110.571 29.3869 110.51 30.0232H114.058C114.054 29.6234 113.991 29.2727 113.869 28.9708C113.751 28.6649 113.569 28.4283 113.324 28.2611C113.08 28.0898 112.765 28.0041 112.382 28.0041Z" fill="white"/>
</svg>
