<svg width="500" height="380" viewBox="0 0 500 380" fill="none" xmlns="http://www.w3.org/2000/svg">
<path d="M428.093 373.611C428.093 377.149 348.519 380 250.463 380C152.406 380 72.8203 377.149 72.8203 373.611C72.8203 370.074 152.394 367.234 250.463 367.234C348.531 367.234 428.093 370.086 428.093 373.611Z" fill="#BA68C8"/>
<path opacity="0.6" d="M428.093 373.611C428.093 377.149 348.519 380 250.463 380C152.406 380 72.8203 377.149 72.8203 373.611C72.8203 370.074 152.394 367.234 250.463 367.234C348.531 367.234 428.093 370.086 428.093 373.611Z" fill="white"/>
<path d="M82.4436 174.456C82.516 174.456 81.6117 169.968 81.5153 169.643C80.4784 166.442 76.5841 160.859 72.7983 160.859C72.1703 160.879 71.5535 161.03 70.9877 161.303C70.4219 161.575 69.9198 161.964 69.514 162.442C69.1082 162.921 68.8078 163.479 68.6321 164.081C68.4564 164.683 68.4094 165.316 68.4941 165.937C68.7714 168.584 71.1586 170.846 73.3168 172.145C75.8487 173.722 82.4436 174.456 82.4436 174.456Z" fill="#BA68C8"/>
<path d="M89.7633 144.232C86.2066 145.508 84.4464 152.077 84.5549 155.446C84.5549 155.735 85.23 160.259 85.3024 160.259H85.3747C85.0854 161.294 84.7839 162.401 84.4825 163.628C83.952 165.89 83.3733 168.441 82.9272 171.28C82.41 174.322 82.0718 177.392 81.9145 180.473C81.7282 183.926 81.8452 187.388 82.2641 190.82C82.2687 190.86 82.2687 190.901 82.2641 190.941C81.806 189.942 80.4074 187.187 80.2748 186.982C78.4181 184.167 73.1855 179.763 69.5323 180.81C68.9336 180.994 68.3803 181.302 67.9084 181.713C67.4364 182.124 67.0562 182.63 66.7925 183.197C66.5288 183.764 66.3875 184.38 66.3776 185.005C66.3677 185.63 66.4895 186.251 66.7352 186.826C67.6997 189.316 70.5933 190.857 73.0167 191.554C75.7535 192.324 81.8542 191.41 82.3365 191.338C82.8591 194.816 83.6082 198.256 84.579 201.637C85.1456 203.61 85.7846 205.584 86.4116 207.545C85.9896 206.691 85.5917 205.933 85.5315 205.836C83.6747 203.021 78.4422 198.617 74.789 199.664C74.1903 199.848 73.637 200.156 73.165 200.567C72.6931 200.978 72.3129 201.484 72.0492 202.051C71.7855 202.618 71.6442 203.234 71.6343 203.859C71.6244 204.485 71.7462 205.105 71.9919 205.68C72.9564 208.159 75.85 209.711 78.2734 210.397C80.6968 211.082 85.9534 210.397 87.3279 210.228C87.5811 210.974 87.8343 211.732 88.0995 212.478C89.3052 216.088 90.6073 219.697 91.7165 223.235C92.1144 224.438 92.452 225.737 92.8016 226.989C92.4278 226.231 92.0903 225.593 92.03 225.509C90.1853 222.681 84.9407 218.29 81.2996 219.336C80.6998 219.519 80.1452 219.826 79.6719 220.237C79.1986 220.647 78.8171 221.153 78.5522 221.72C78.2873 222.287 78.1449 222.904 78.1343 223.53C78.1236 224.155 78.2449 224.776 78.4904 225.352C79.4549 227.831 82.3606 229.383 84.7839 230.069C87.2073 230.755 91.9456 230.153 93.5853 229.925C93.9108 231.212 94.2363 232.511 94.4895 233.775C94.6342 234.641 94.8392 235.459 94.9477 236.35L95.3094 238.925C95.4782 240.573 95.6711 242.269 95.7916 243.882C95.8881 245.013 95.9604 246.084 96.0328 247.155C95.659 245.951 94.8271 243.461 94.8271 243.268C93.4924 240.621 91.4999 238.359 89.0399 236.699C88.903 236.397 88.7417 236.108 88.5577 235.832C88.2139 235.308 87.7635 234.861 87.2358 234.521C86.7081 234.182 86.1147 233.956 85.4941 233.86C84.8736 233.763 84.2396 233.798 83.6334 233.962C83.0271 234.125 82.462 234.414 81.9748 234.81C79.1173 237.276 79.8287 244.038 81.1428 247.142C81.2152 247.323 82.3485 249.224 82.9754 250.403L81.4443 248.502C80.3833 247.215 79.2982 245.963 78.1407 244.616C77.546 243.99 76.9552 243.352 76.3684 242.703C75.7897 242.053 75.1025 241.439 74.4635 240.79C72.9444 239.334 71.3408 237.926 69.6408 236.554C70.7742 235.628 74.7167 232.307 75.85 230.045C76.9833 227.783 77.7911 224.618 76.6096 222.224C76.3498 221.654 75.973 221.146 75.5035 220.731C75.0341 220.316 74.4824 220.004 73.8844 219.816C73.2864 219.628 72.6554 219.567 72.0323 219.638C71.4093 219.708 70.8081 219.909 70.2678 220.227C67.0607 222.224 66.7352 229.022 67.5671 232.259C67.5671 232.463 68.4834 234.749 68.9777 235.989C67.977 235.159 66.9884 234.34 65.9515 233.582C62.9615 231.284 59.9232 229.046 56.7885 226.796L53.9793 224.715C54.3772 224.39 59.1516 220.54 60.4296 218.001C61.5629 215.751 62.3707 212.574 61.1891 210.192C60.9308 209.62 60.5543 209.108 60.0845 208.691C59.6146 208.274 59.0618 207.96 58.4622 207.77C57.8626 207.581 57.2296 207.519 56.6047 207.59C55.9797 207.662 55.3768 207.863 54.8353 208.183C51.6403 210.192 51.3148 216.978 52.1467 220.215C52.207 220.455 53.4488 223.728 53.8105 224.546C51.7488 223.018 49.7112 221.478 47.7822 219.878C45.1437 217.722 42.6469 215.399 40.3071 212.923C40.4879 212.779 45.4914 208.772 46.7935 206.185C47.9269 203.935 48.7347 200.759 47.5531 198.364C47.2921 197.798 46.9149 197.292 46.4458 196.879C45.9767 196.467 45.4262 196.157 44.8298 195.97C44.2334 195.783 43.6043 195.723 42.9831 195.793C42.3619 195.864 41.7625 196.063 41.2234 196.379C38.0163 198.389 37.7029 205.187 38.5227 208.411C38.583 208.628 39.5234 211.131 40.0057 212.298L39.8248 212.418C37.5345 209.862 35.4767 207.108 33.6759 204.188C32.6752 202.6 31.7951 201.012 30.9753 199.459C31.988 198.81 36.5575 195.85 37.9922 193.588C39.427 191.326 40.5241 188.402 39.6078 185.899C39.4117 185.311 39.095 184.771 38.678 184.312C38.2611 183.852 37.7529 183.485 37.1858 183.233C36.6188 182.98 36.0053 182.848 35.3844 182.846C34.7635 182.843 34.1488 182.969 33.5795 183.216C30.1795 184.852 29.1065 191.639 29.5767 194.911C29.5767 195.092 30.059 196.909 30.4207 198.22C30.059 197.522 29.6731 196.788 29.3476 196.102C28.142 193.54 27.1171 191.109 26.2732 188.955C25.803 187.752 25.393 186.549 25.0675 185.538C25.7186 184.395 28.3107 179.715 28.5519 177.116C28.793 174.517 28.4072 171.353 26.442 169.548C25.9935 169.108 25.4573 168.767 24.8683 168.548C24.2793 168.328 23.6506 168.235 23.0231 168.273C22.3955 168.312 21.7831 168.482 21.2255 168.772C20.668 169.062 20.1778 169.465 19.7867 169.957C17.5321 172.977 19.6903 179.438 21.6434 182.181C21.8122 182.422 24.8746 185.791 24.9108 185.791V185.719C25.2484 186.742 25.6101 187.824 26.0441 189.016C26.8519 191.193 27.7803 193.648 28.9739 196.235C30.2263 199.058 31.6434 201.806 33.2178 204.465C34.9734 207.445 36.9908 210.263 39.2461 212.887L39.3305 212.971C38.3901 212.394 35.7135 210.866 35.4844 210.77C32.3859 209.434 25.598 208.688 23.1143 211.528C22.7152 212.012 22.4226 212.574 22.2558 213.178C22.0889 213.783 22.0514 214.415 22.1458 215.035C22.2402 215.655 22.4644 216.248 22.8037 216.775C23.143 217.303 23.5898 217.753 24.115 218.097C26.2852 219.637 29.5646 219.3 31.9639 218.578C34.6766 217.724 39.1979 213.597 39.6199 213.272C41.9781 215.887 44.5075 218.343 47.1914 220.624C48.7467 221.959 50.3502 223.259 52.0141 224.546C51.1822 224.077 50.4346 223.656 50.3261 223.608C47.2276 222.272 40.4518 221.526 37.9681 224.366C37.5665 224.848 37.2716 225.41 37.1028 226.014C36.9339 226.618 36.8949 227.251 36.9882 227.871C37.0815 228.492 37.3052 229.085 37.6444 229.613C37.9837 230.141 38.4309 230.592 38.9567 230.935C41.139 232.475 44.4063 232.138 46.8177 231.417C49.229 230.695 53.2197 227.205 54.2687 226.279L56.1495 227.747C59.1877 230.069 62.1778 232.367 65.1317 234.713C66.1565 235.544 67.1331 236.386 68.1217 237.24C67.3862 236.819 66.7593 236.47 66.6508 236.422C63.5522 235.098 56.7764 234.34 54.2928 237.192C53.8912 237.674 53.5963 238.236 53.4274 238.84C53.2586 239.444 53.2195 240.077 53.3129 240.698C53.4062 241.318 53.6298 241.911 53.9691 242.439C54.3083 242.967 54.7555 243.418 55.2814 243.761C57.4636 245.302 60.731 244.965 63.1423 244.231C65.5536 243.497 69.1706 240.356 70.3763 239.273C71.3529 240.164 72.3415 241.066 73.2578 241.981C73.8607 242.618 74.4635 243.184 75.0663 243.87L76.7904 245.831C77.8514 247.106 78.9365 248.418 79.9372 249.693C80.6365 250.584 81.2875 251.438 81.9506 252.292C80.9379 251.462 78.9244 249.886 78.7315 249.753C75.8741 247.961 69.2912 246.204 66.3976 248.634C65.9306 249.053 65.5571 249.565 65.3015 250.137C65.0458 250.709 64.9137 251.329 64.9137 251.955C64.9137 252.582 65.0458 253.201 65.3015 253.773C65.5571 254.345 65.9306 254.858 66.3976 255.276C68.3146 257.129 71.594 257.322 74.0897 256.937C76.8266 256.515 81.7939 253.327 82.4088 252.882C83.4939 254.302 84.5308 255.697 85.4953 257.021C88.835 261.629 91.4392 265.6 93.2236 268.391L93.4044 268.68L95.7193 267.561L95.3576 267.007C93.4888 264.228 90.7761 260.281 87.2917 255.697C86.2066 254.241 85.001 252.725 83.7591 251.161C85.049 249.756 86.2566 248.277 87.3761 246.733C90.0286 247.768 95.5626 247.804 96.2739 247.804C96.3945 249.597 96.4909 251.33 96.5512 252.966C96.7923 258.657 96.7682 263.398 96.72 266.707C96.72 266.839 96.72 266.959 96.72 267.092L99.2639 265.888C99.2639 262.592 99.1313 258.14 98.8058 252.87C98.6852 251.065 98.5285 249.128 98.3597 247.142C99.059 246.974 104.81 245.494 106.98 243.761C108.957 242.197 111.031 239.646 110.959 236.987C110.964 236.361 110.836 235.74 110.585 235.166C110.333 234.592 109.964 234.077 109.5 233.655C109.036 233.232 108.488 232.912 107.892 232.715C107.296 232.518 106.665 232.449 106.04 232.511C102.278 232.993 99.1434 239.021 98.5285 242.342C98.5285 242.534 98.3235 244.748 98.2512 246.06C98.1788 245.253 98.1065 244.471 98.0221 243.653C97.8533 242.005 97.6363 240.368 97.4193 238.6C97.2746 237.757 97.1299 236.891 96.9973 236.025C96.8647 235.159 96.6356 234.268 96.4548 233.39C95.9966 231.332 95.442 229.275 94.8271 227.217C96.2739 227.073 101.41 226.471 103.604 225.208C105.799 223.945 108.222 221.755 108.56 219.108C108.659 218.49 108.626 217.857 108.464 217.252C108.302 216.648 108.015 216.083 107.62 215.597C107.226 215.11 106.733 214.711 106.174 214.427C105.615 214.143 105.002 213.979 104.376 213.946C100.59 213.85 96.5633 219.336 95.454 222.525C95.3817 222.717 94.8392 225.088 94.5739 226.399C94.1881 225.196 93.8264 223.933 93.3683 222.693C92.1626 219.084 90.8002 215.558 89.474 211.985L88.2683 208.7C88.7867 208.7 94.8994 208.074 97.359 206.655C99.5412 205.451 101.977 203.201 102.314 200.554C102.415 199.936 102.384 199.303 102.223 198.697C102.062 198.092 101.775 197.527 101.38 197.039C100.985 196.552 100.491 196.154 99.9313 195.87C99.3714 195.586 98.7578 195.423 98.1306 195.393C94.3448 195.296 90.3179 200.795 89.2087 203.971C89.1243 204.212 88.3527 207.581 88.196 208.508C87.3279 206.101 86.4839 203.695 85.7846 201.288C84.7777 198.036 83.9724 194.725 83.3733 191.374C83.6145 191.374 90.0045 190.772 92.5243 189.328C94.7065 188.065 97.142 185.863 97.4796 183.216C97.5786 182.597 97.5457 181.964 97.3832 181.358C97.2206 180.752 96.9321 180.188 96.5362 179.701C96.1404 179.214 95.6462 178.815 95.0858 178.532C94.5254 178.248 93.9114 178.085 93.2839 178.054C89.5101 177.958 85.4832 183.457 84.374 186.633C84.3017 186.838 83.7109 189.449 83.4577 190.688H83.2407C82.7427 187.299 82.549 183.872 82.662 180.449C82.662 178.572 82.8428 176.767 83.0237 175.022C84.2293 175.022 89.7151 175.022 92.1264 173.988C94.5377 172.953 97.0938 171.052 97.7207 168.465C97.8879 167.859 97.9251 167.224 97.8296 166.603C97.7342 165.982 97.5084 165.388 97.1669 164.86C96.8255 164.331 96.3761 163.881 95.8482 163.538C95.3204 163.195 94.7259 162.968 94.1037 162.87C90.3541 162.365 85.7485 167.382 84.3017 170.414C84.2173 170.582 83.6024 172.351 83.1684 173.651C83.2527 172.857 83.3372 172.05 83.4457 171.244C83.8315 168.417 84.3499 165.854 84.8322 163.58C85.1215 162.292 85.3988 161.173 85.6761 160.054C86.8818 159.453 91.608 156.986 93.2356 154.977C94.8633 152.968 96.286 150.092 95.647 147.505C95.5141 146.882 95.2493 146.295 94.8703 145.783C94.4914 145.271 94.007 144.845 93.4497 144.535C92.8925 144.225 92.2752 144.038 91.6394 143.986C91.0036 143.933 90.3639 144.018 89.7633 144.232Z" fill="#BA68C8"/>
<path d="M21.4261 202.396C24.38 202.276 30.2877 199.244 30.2998 199.244C30.3118 199.244 27.1168 195.971 26.8877 195.778C24.2473 193.685 17.9056 191.17 14.7588 193.264C14.2459 193.625 13.8149 194.089 13.4937 194.627C13.1725 195.165 12.9683 195.764 12.8944 196.386C12.8205 197.008 12.8785 197.638 13.0647 198.236C13.2509 198.834 13.5611 199.387 13.9751 199.857C15.6751 201.915 18.9424 202.492 21.4261 202.396Z" fill="#BA68C8"/>
<g opacity="0.5">
<path d="M82.4436 174.456C82.516 174.456 81.6117 169.968 81.5153 169.643C80.4784 166.442 76.5841 160.859 72.7983 160.859C72.1703 160.879 71.5535 161.03 70.9877 161.303C70.4219 161.575 69.9198 161.964 69.514 162.442C69.1082 162.921 68.8078 163.479 68.6321 164.081C68.4564 164.683 68.4094 165.316 68.4941 165.937C68.7714 168.584 71.1586 170.846 73.3168 172.145C75.8487 173.722 82.4436 174.456 82.4436 174.456Z" fill="white"/>
<path d="M89.7633 144.232C86.2066 145.508 84.4464 152.077 84.5549 155.446C84.5549 155.735 85.23 160.259 85.3024 160.259H85.3747C85.0854 161.294 84.7839 162.401 84.4825 163.628C83.952 165.89 83.3733 168.441 82.9272 171.28C82.41 174.322 82.0718 177.392 81.9145 180.473C81.7282 183.926 81.8452 187.388 82.2641 190.82C82.2687 190.86 82.2687 190.901 82.2641 190.941C81.806 189.942 80.4074 187.187 80.2748 186.982C78.4181 184.167 73.1855 179.763 69.5323 180.81C68.9336 180.994 68.3803 181.302 67.9084 181.713C67.4364 182.124 67.0562 182.63 66.7925 183.197C66.5288 183.764 66.3875 184.38 66.3776 185.005C66.3677 185.63 66.4895 186.251 66.7352 186.826C67.6997 189.316 70.5933 190.857 73.0167 191.554C75.7535 192.324 81.8542 191.41 82.3365 191.338C82.8591 194.816 83.6082 198.256 84.579 201.637C85.1456 203.61 85.7846 205.584 86.4116 207.545C85.9896 206.691 85.5917 205.933 85.5315 205.836C83.6747 203.021 78.4422 198.617 74.789 199.664C74.1903 199.848 73.637 200.156 73.165 200.567C72.6931 200.978 72.3129 201.484 72.0492 202.051C71.7855 202.618 71.6442 203.234 71.6343 203.859C71.6244 204.485 71.7462 205.105 71.9919 205.68C72.9564 208.159 75.85 209.711 78.2734 210.397C80.6968 211.082 85.9534 210.397 87.3279 210.228C87.5811 210.974 87.8343 211.732 88.0995 212.478C89.3052 216.088 90.6073 219.697 91.7165 223.235C92.1144 224.438 92.452 225.737 92.8016 226.989C92.4278 226.231 92.0903 225.593 92.03 225.509C90.1853 222.681 84.9407 218.29 81.2996 219.336C80.6998 219.519 80.1452 219.826 79.6719 220.237C79.1986 220.647 78.8171 221.153 78.5522 221.72C78.2873 222.287 78.1449 222.904 78.1343 223.53C78.1236 224.155 78.2449 224.776 78.4904 225.352C79.4549 227.831 82.3606 229.383 84.7839 230.069C87.2073 230.755 91.9456 230.153 93.5853 229.925C93.9108 231.212 94.2363 232.511 94.4895 233.775C94.6342 234.641 94.8392 235.459 94.9477 236.35L95.3094 238.925C95.4782 240.573 95.6711 242.269 95.7916 243.882C95.8881 245.013 95.9604 246.084 96.0328 247.155C95.659 245.951 94.8271 243.461 94.8271 243.268C93.4924 240.621 91.4999 238.359 89.0399 236.699C88.903 236.397 88.7417 236.108 88.5577 235.832C88.2139 235.308 87.7635 234.861 87.2358 234.521C86.7081 234.182 86.1147 233.956 85.4941 233.86C84.8736 233.763 84.2396 233.798 83.6334 233.962C83.0271 234.125 82.462 234.414 81.9748 234.81C79.1173 237.276 79.8287 244.038 81.1428 247.142C81.2152 247.323 82.3485 249.224 82.9754 250.403L81.4443 248.502C80.3833 247.215 79.2982 245.963 78.1407 244.616C77.546 243.99 76.9552 243.352 76.3684 242.703C75.7897 242.053 75.1025 241.439 74.4635 240.79C72.9444 239.334 71.3408 237.926 69.6408 236.554C70.7742 235.628 74.7167 232.307 75.85 230.045C76.9833 227.783 77.7911 224.618 76.6096 222.224C76.3498 221.654 75.973 221.146 75.5035 220.731C75.0341 220.316 74.4824 220.004 73.8844 219.816C73.2864 219.628 72.6554 219.567 72.0323 219.638C71.4093 219.708 70.8081 219.909 70.2678 220.227C67.0607 222.224 66.7352 229.022 67.5671 232.259C67.5671 232.463 68.4834 234.749 68.9777 235.989C67.977 235.159 66.9884 234.34 65.9515 233.582C62.9615 231.284 59.9232 229.046 56.7885 226.796L53.9793 224.715C54.3772 224.39 59.1516 220.54 60.4296 218.001C61.5629 215.751 62.3707 212.574 61.1891 210.192C60.9308 209.62 60.5543 209.108 60.0845 208.691C59.6146 208.274 59.0618 207.96 58.4622 207.77C57.8626 207.581 57.2296 207.519 56.6047 207.59C55.9797 207.662 55.3768 207.863 54.8353 208.183C51.6403 210.192 51.3148 216.978 52.1467 220.215C52.207 220.455 53.4488 223.728 53.8105 224.546C51.7488 223.018 49.7112 221.478 47.7822 219.878C45.1437 217.722 42.6469 215.399 40.3071 212.923C40.4879 212.779 45.4914 208.772 46.7935 206.185C47.9269 203.935 48.7347 200.759 47.5531 198.364C47.2921 197.798 46.9149 197.292 46.4458 196.879C45.9767 196.467 45.4262 196.157 44.8298 195.97C44.2334 195.783 43.6043 195.723 42.9831 195.793C42.3619 195.864 41.7625 196.063 41.2234 196.379C38.0163 198.389 37.7029 205.187 38.5227 208.411C38.583 208.628 39.5234 211.131 40.0057 212.298L39.8248 212.418C37.5345 209.862 35.4767 207.108 33.6759 204.188C32.6752 202.6 31.7951 201.012 30.9753 199.459C31.988 198.81 36.5575 195.85 37.9922 193.588C39.427 191.326 40.5241 188.402 39.6078 185.899C39.4117 185.311 39.095 184.771 38.678 184.312C38.2611 183.852 37.7529 183.485 37.1858 183.233C36.6188 182.98 36.0053 182.848 35.3844 182.846C34.7635 182.843 34.1488 182.969 33.5795 183.216C30.1795 184.852 29.1065 191.639 29.5767 194.911C29.5767 195.092 30.059 196.909 30.4207 198.22C30.059 197.522 29.6731 196.788 29.3476 196.102C28.142 193.54 27.1171 191.109 26.2732 188.955C25.803 187.752 25.393 186.549 25.0675 185.538C25.7186 184.395 28.3107 179.715 28.5519 177.116C28.793 174.517 28.4072 171.353 26.442 169.548C25.9935 169.108 25.4573 168.767 24.8683 168.548C24.2793 168.328 23.6506 168.235 23.0231 168.273C22.3955 168.312 21.7831 168.482 21.2255 168.772C20.668 169.062 20.1778 169.465 19.7867 169.957C17.5321 172.977 19.6903 179.438 21.6434 182.181C21.8122 182.422 24.8746 185.791 24.9108 185.791V185.719C25.2484 186.742 25.6101 187.824 26.0441 189.016C26.8519 191.193 27.7803 193.648 28.9739 196.235C30.2263 199.058 31.6434 201.806 33.2178 204.465C34.9734 207.445 36.9908 210.263 39.2461 212.887L39.3305 212.971C38.3901 212.394 35.7135 210.866 35.4844 210.77C32.3859 209.434 25.598 208.688 23.1143 211.528C22.7152 212.012 22.4226 212.574 22.2558 213.178C22.0889 213.783 22.0514 214.415 22.1458 215.035C22.2402 215.655 22.4644 216.248 22.8037 216.775C23.143 217.303 23.5898 217.753 24.115 218.097C26.2852 219.637 29.5646 219.3 31.9639 218.578C34.6766 217.724 39.1979 213.597 39.6199 213.272C41.9781 215.887 44.5075 218.343 47.1914 220.624C48.7467 221.959 50.3502 223.259 52.0141 224.546C51.1822 224.077 50.4346 223.656 50.3261 223.608C47.2276 222.272 40.4518 221.526 37.9681 224.366C37.5665 224.848 37.2716 225.41 37.1028 226.014C36.9339 226.618 36.8949 227.251 36.9882 227.871C37.0815 228.492 37.3052 229.085 37.6444 229.613C37.9837 230.141 38.4309 230.592 38.9567 230.935C41.139 232.475 44.4063 232.138 46.8177 231.417C49.229 230.695 53.2197 227.205 54.2687 226.279L56.1495 227.747C59.1877 230.069 62.1778 232.367 65.1317 234.713C66.1565 235.544 67.1331 236.386 68.1217 237.24C67.3862 236.819 66.7593 236.47 66.6508 236.422C63.5522 235.098 56.7764 234.34 54.2928 237.192C53.8912 237.674 53.5963 238.236 53.4274 238.84C53.2586 239.444 53.2195 240.077 53.3129 240.698C53.4062 241.318 53.6298 241.911 53.9691 242.439C54.3083 242.967 54.7555 243.418 55.2814 243.761C57.4636 245.302 60.731 244.965 63.1423 244.231C65.5536 243.497 69.1706 240.356 70.3763 239.273C71.3529 240.164 72.3415 241.066 73.2578 241.981C73.8607 242.618 74.4635 243.184 75.0663 243.87L76.7904 245.831C77.8514 247.106 78.9365 248.418 79.9372 249.693C80.6365 250.584 81.2875 251.438 81.9506 252.292C80.9379 251.462 78.9244 249.886 78.7315 249.753C75.8741 247.961 69.2912 246.204 66.3976 248.634C65.9306 249.053 65.5571 249.565 65.3015 250.137C65.0458 250.709 64.9137 251.329 64.9137 251.955C64.9137 252.582 65.0458 253.201 65.3015 253.773C65.5571 254.345 65.9306 254.858 66.3976 255.276C68.3146 257.129 71.594 257.322 74.0897 256.937C76.8266 256.515 81.7939 253.327 82.4088 252.882C83.4939 254.302 84.5308 255.697 85.4953 257.021C88.835 261.629 91.4392 265.6 93.2236 268.391L93.4044 268.68L95.7193 267.561L95.3576 267.007C93.4888 264.228 90.7761 260.281 87.2917 255.697C86.2066 254.241 85.001 252.725 83.7591 251.161C85.049 249.756 86.2566 248.277 87.3761 246.733C90.0286 247.768 95.5626 247.804 96.2739 247.804C96.3945 249.597 96.4909 251.33 96.5512 252.966C96.7923 258.657 96.7682 263.398 96.72 266.707C96.72 266.839 96.72 266.959 96.72 267.092L99.2639 265.888C99.2639 262.592 99.1313 258.14 98.8058 252.87C98.6852 251.065 98.5285 249.128 98.3597 247.142C99.059 246.974 104.81 245.494 106.98 243.761C108.957 242.197 111.031 239.646 110.959 236.987C110.964 236.361 110.836 235.74 110.585 235.166C110.333 234.592 109.964 234.077 109.5 233.655C109.036 233.232 108.488 232.912 107.892 232.715C107.296 232.518 106.665 232.449 106.04 232.511C102.278 232.993 99.1434 239.021 98.5285 242.342C98.5285 242.534 98.3235 244.748 98.2512 246.06C98.1788 245.253 98.1065 244.471 98.0221 243.653C97.8533 242.005 97.6363 240.368 97.4193 238.6C97.2746 237.757 97.1299 236.891 96.9973 236.025C96.8647 235.159 96.6356 234.268 96.4548 233.39C95.9966 231.332 95.442 229.275 94.8271 227.217C96.2739 227.073 101.41 226.471 103.604 225.208C105.799 223.945 108.222 221.755 108.56 219.108C108.659 218.49 108.626 217.857 108.464 217.252C108.302 216.648 108.015 216.083 107.62 215.597C107.226 215.11 106.733 214.711 106.174 214.427C105.615 214.143 105.002 213.979 104.376 213.946C100.59 213.85 96.5633 219.336 95.454 222.525C95.3817 222.717 94.8392 225.088 94.5739 226.399C94.1881 225.196 93.8264 223.933 93.3683 222.693C92.1626 219.084 90.8002 215.558 89.474 211.985L88.2683 208.7C88.7867 208.7 94.8994 208.074 97.359 206.655C99.5412 205.451 101.977 203.201 102.314 200.554C102.415 199.936 102.384 199.303 102.223 198.697C102.062 198.092 101.775 197.527 101.38 197.039C100.985 196.552 100.491 196.154 99.9313 195.87C99.3714 195.586 98.7578 195.423 98.1306 195.393C94.3448 195.296 90.3179 200.795 89.2087 203.971C89.1243 204.212 88.3527 207.581 88.196 208.508C87.3279 206.101 86.4839 203.695 85.7846 201.288C84.7777 198.036 83.9724 194.725 83.3733 191.374C83.6145 191.374 90.0045 190.772 92.5243 189.328C94.7065 188.065 97.142 185.863 97.4796 183.216C97.5786 182.597 97.5457 181.964 97.3832 181.358C97.2206 180.752 96.9321 180.188 96.5362 179.701C96.1404 179.214 95.6462 178.815 95.0858 178.532C94.5254 178.248 93.9114 178.085 93.2839 178.054C89.5101 177.958 85.4832 183.457 84.374 186.633C84.3017 186.838 83.7109 189.449 83.4577 190.688H83.2407C82.7427 187.299 82.549 183.872 82.662 180.449C82.662 178.572 82.8428 176.767 83.0237 175.022C84.2293 175.022 89.7151 175.022 92.1264 173.988C94.5377 172.953 97.0938 171.052 97.7207 168.465C97.8879 167.859 97.9251 167.224 97.8296 166.603C97.7342 165.982 97.5084 165.388 97.1669 164.86C96.8255 164.331 96.3761 163.881 95.8482 163.538C95.3204 163.195 94.7259 162.968 94.1037 162.87C90.3541 162.365 85.7485 167.382 84.3017 170.414C84.2173 170.582 83.6024 172.351 83.1684 173.651C83.2527 172.857 83.3372 172.05 83.4457 171.244C83.8315 168.417 84.3499 165.854 84.8322 163.58C85.1215 162.292 85.3988 161.173 85.6761 160.054C86.8818 159.453 91.608 156.986 93.2356 154.977C94.8633 152.968 96.286 150.092 95.647 147.505C95.5141 146.882 95.2493 146.295 94.8703 145.783C94.4914 145.271 94.007 144.845 93.4497 144.535C92.8925 144.225 92.2752 144.038 91.6394 143.986C91.0036 143.933 90.3639 144.018 89.7633 144.232Z" fill="white"/>
<path d="M21.4261 202.396C24.38 202.276 30.2877 199.244 30.2998 199.244C30.3118 199.244 27.1168 195.971 26.8877 195.778C24.2473 193.685 17.9056 191.17 14.7588 193.264C14.2459 193.625 13.8149 194.089 13.4937 194.627C13.1725 195.165 12.9683 195.764 12.8944 196.386C12.8205 197.008 12.8785 197.638 13.0647 198.236C13.2509 198.834 13.5611 199.387 13.9751 199.857C15.6751 201.915 18.9424 202.492 21.4261 202.396Z" fill="white"/>
</g>
<path d="M55.9186 276.212C55.9186 276.212 73.8468 233.089 83.8779 234.966C93.909 236.843 66.6731 303.717 66.6731 303.717C66.6731 303.717 98.2132 244.339 119.722 244.339C141.231 244.339 111.837 309.962 84.6013 331.836C84.6013 331.836 127.607 285.585 152.709 295.595C177.811 305.606 102.517 352.471 102.517 352.471C102.517 352.471 146.247 338.718 141.231 349.343C136.216 359.967 122.628 361.844 122.628 361.844L172.06 364.346H0L38.7138 360.592C38.7138 360.592 -1.43474 340.595 9.29565 332.462C20.026 324.328 43.7052 341.835 43.7052 341.835C43.7052 341.835 2.84536 296.835 10.7304 279.966C18.6154 263.097 53.7484 310.587 53.7484 310.587C53.7484 310.587 25.0657 249.97 30.8408 239.333C36.616 228.697 55.9186 276.212 55.9186 276.212Z" fill="#BA68C8"/>
<path opacity="0.4" d="M55.9186 276.212C55.9186 276.212 73.8468 233.089 83.8779 234.966C93.909 236.843 66.6731 303.717 66.6731 303.717C66.6731 303.717 98.2132 244.339 119.722 244.339C141.231 244.339 111.837 309.962 84.6013 331.836C84.6013 331.836 127.607 285.585 152.709 295.595C177.811 305.606 102.517 352.471 102.517 352.471C102.517 352.471 146.247 338.718 141.231 349.343C136.216 359.967 122.628 361.844 122.628 361.844L172.06 364.346H0L38.7138 360.592C38.7138 360.592 -1.43474 340.595 9.29565 332.462C20.026 324.328 43.7052 341.835 43.7052 341.835C43.7052 341.835 2.84536 296.835 10.7304 279.966C18.6154 263.097 53.7484 310.587 53.7484 310.587C53.7484 310.587 25.0657 249.97 30.8408 239.333C36.616 228.697 55.9186 276.212 55.9186 276.212Z" fill="white"/>
<path d="M50.1933 278.484C65.9634 324.988 65.9634 357.896 65.9634 357.896C65.9634 357.896 47.3239 358.618 27.9609 344.312" stroke="#263238" stroke-linecap="round" stroke-linejoin="round"/>
<path d="M58.0781 303.525C61.3239 289.622 65.6369 275.99 70.9787 262.748" stroke="#263238" stroke-linecap="round" stroke-linejoin="round"/>
<path d="M104.677 276.344L64.5287 335.722C64.5287 335.722 37.2807 312.861 27.9609 299.951" stroke="#263238" stroke-linecap="round" stroke-linejoin="round"/>
<path d="M65.2383 350.029C65.2383 350.029 107.533 329.995 124.75 318.553" stroke="#263238" stroke-linecap="round" stroke-linejoin="round"/>
<path d="M417.559 174.456C417.486 174.456 418.403 169.968 418.487 169.643C419.524 166.442 423.43 160.859 427.204 160.859C427.832 160.879 428.449 161.03 429.015 161.303C429.58 161.575 430.083 161.964 430.488 162.442C430.894 162.921 431.195 163.479 431.37 164.081C431.546 164.683 431.593 165.316 431.508 165.937C431.231 168.584 428.844 170.846 426.686 172.145C424.154 173.722 417.559 174.456 417.559 174.456Z" fill="#BA68C8"/>
<path d="M410.237 144.232C413.794 145.508 415.566 152.077 415.446 155.446C415.446 155.735 414.771 160.259 414.71 160.259H414.638C414.915 161.294 415.217 162.401 415.518 163.628C416.049 165.89 416.627 168.441 417.073 171.28C417.591 174.322 417.929 177.392 418.086 180.473C418.278 183.926 418.161 187.389 417.737 190.821C417.732 190.861 417.732 190.901 417.737 190.941C418.207 189.942 419.605 187.187 419.726 186.982C421.583 184.167 426.815 179.763 430.468 180.81C431.068 180.992 431.623 181.299 432.096 181.71C432.569 182.121 432.95 182.627 433.214 183.194C433.477 183.762 433.619 184.379 433.627 185.005C433.636 185.63 433.513 186.251 433.265 186.826C432.301 189.317 429.407 190.857 426.984 191.554C424.247 192.325 418.146 191.41 417.664 191.338C417.147 194.817 416.398 198.258 415.422 201.637C414.859 203.611 414.248 205.58 413.589 207.545C414.011 206.691 414.409 205.933 414.469 205.837C416.326 203.021 421.571 198.617 425.212 199.664C425.811 199.847 426.366 200.153 426.839 200.564C427.312 200.975 427.693 201.481 427.957 202.049C428.221 202.616 428.362 203.233 428.371 203.859C428.38 204.485 428.256 205.105 428.009 205.68C427.044 208.159 424.151 209.711 421.727 210.397C419.304 211.082 414.047 210.397 412.673 210.228L411.913 212.478C410.708 216.088 409.393 219.697 408.296 223.235C407.898 224.438 407.549 225.738 407.199 226.989C407.585 226.231 407.91 225.593 407.971 225.509C409.827 222.681 415.06 218.29 418.701 219.336C419.301 219.519 419.855 219.826 420.329 220.237C420.802 220.647 421.183 221.153 421.448 221.72C421.713 222.287 421.856 222.904 421.866 223.53C421.877 224.156 421.756 224.777 421.51 225.353C420.546 227.831 417.64 229.383 415.217 230.069C412.793 230.755 408.055 230.153 406.415 229.925C406.09 231.212 405.776 232.512 405.523 233.775C405.366 234.641 405.161 235.459 405.053 236.35L404.691 238.925C404.522 240.573 404.33 242.27 404.209 243.882C404.113 245.013 404.04 246.084 403.968 247.155C404.354 245.951 405.174 243.461 405.234 243.268C406.573 240.624 408.564 238.363 411.021 236.699C411.157 236.395 411.323 236.105 411.515 235.832C411.857 235.307 412.305 234.859 412.832 234.518C413.359 234.177 413.951 233.951 414.572 233.855C415.192 233.758 415.825 233.793 416.431 233.958C417.037 234.122 417.601 234.413 418.086 234.81C420.956 237.276 420.232 244.038 418.918 247.143C418.846 247.323 417.773 249.224 417.085 250.403C417.604 249.766 418.086 249.2 418.629 248.502C419.678 247.215 420.763 245.963 421.92 244.616L423.692 242.703C424.271 242.053 424.97 241.439 425.609 240.79C427.117 239.334 428.72 237.926 430.372 236.554C429.251 235.628 425.296 232.307 424.163 230.045C423.029 227.783 422.222 224.619 423.403 222.224C423.663 221.653 424.04 221.143 424.51 220.727C424.981 220.311 425.534 219.998 426.133 219.81C426.733 219.621 427.365 219.561 427.99 219.633C428.614 219.705 429.216 219.907 429.757 220.227C432.952 222.224 433.278 229.022 432.446 232.259C432.446 232.463 431.529 234.75 431.035 235.989C432.036 235.159 433.024 234.34 434.061 233.582C437.051 231.284 440.15 229.046 443.224 226.796L446.033 224.715C445.636 224.39 440.861 220.54 439.583 218.001C438.462 215.751 437.642 212.574 438.824 210.192C439.082 209.62 439.458 209.108 439.928 208.691C440.398 208.274 440.951 207.96 441.551 207.77C442.15 207.581 442.783 207.52 443.408 207.591C444.033 207.662 444.636 207.863 445.177 208.183C448.384 210.192 448.698 216.978 447.866 220.215C447.806 220.455 446.564 223.728 446.214 224.546C448.264 223.018 450.301 221.478 452.243 219.878C454.881 217.722 457.378 215.399 459.718 212.923C459.537 212.779 454.533 208.772 453.231 206.185C452.098 203.935 451.29 200.759 452.472 198.365C452.73 197.794 453.106 197.284 453.575 196.868C454.044 196.452 454.596 196.139 455.194 195.949C455.792 195.76 456.423 195.698 457.047 195.768C457.67 195.838 458.272 196.038 458.813 196.355C462.02 198.365 462.346 205.163 461.514 208.387C461.454 208.604 460.513 211.107 460.043 212.274C460.099 212.321 460.159 212.361 460.224 212.394C462.511 209.838 464.565 207.084 466.361 204.164C467.374 202.576 468.242 200.988 469.062 199.435C468.049 198.786 463.479 195.826 462.045 193.564C460.61 191.302 459.525 188.378 460.429 185.875C460.624 185.28 460.943 184.732 461.364 184.267C461.785 183.803 462.299 183.432 462.874 183.179C463.448 182.926 464.069 182.796 464.697 182.798C465.325 182.801 465.945 182.935 466.518 183.192C469.93 184.829 470.991 191.615 470.52 194.887C470.52 195.068 470.038 196.885 469.688 198.196C470.038 197.498 470.424 196.764 470.749 196.079C471.955 193.516 472.98 191.085 473.824 188.931C474.306 187.728 474.704 186.525 475.03 185.514C474.366 184.371 471.786 179.691 471.533 177.092C471.28 174.493 471.69 171.329 473.655 169.524C474.103 169.084 474.638 168.744 475.226 168.524C475.814 168.305 476.441 168.211 477.068 168.25C477.695 168.289 478.306 168.458 478.863 168.748C479.419 169.038 479.908 169.442 480.298 169.933C482.565 172.953 480.407 179.414 478.454 182.157C478.285 182.398 475.21 185.767 475.174 185.767V185.695C474.837 186.718 474.475 187.8 474.041 188.992C473.245 191.169 472.317 193.624 471.123 196.211C469.862 199.032 468.441 201.78 466.867 204.441C465.112 207.421 463.094 210.239 460.839 212.863L460.755 212.947C461.695 212.37 464.372 210.842 464.601 210.746C467.711 209.41 474.487 208.664 476.971 211.504C477.37 211.987 477.664 212.549 477.832 213.153C477.999 213.756 478.038 214.389 477.945 215.008C477.851 215.628 477.628 216.221 477.29 216.749C476.952 217.277 476.506 217.728 475.982 218.073C473.8 219.613 470.532 219.276 468.121 218.554C465.408 217.7 460.887 213.573 460.477 213.248C458.119 215.863 455.59 218.319 452.906 220.6C451.35 221.935 449.735 223.235 448.083 224.522C448.915 224.053 449.662 223.632 449.771 223.584C452.869 222.248 459.645 221.502 462.129 224.342C462.531 224.824 462.825 225.386 462.994 225.99C463.163 226.594 463.202 227.227 463.109 227.848C463.016 228.468 462.792 229.061 462.453 229.589C462.113 230.117 461.666 230.568 461.14 230.911C458.97 232.451 455.691 232.115 453.291 231.393C450.892 230.671 446.877 227.181 445.84 226.255C445.201 226.748 444.635 227.242 443.948 227.723C440.921 230.045 437.919 232.343 434.965 234.689C433.941 235.52 432.964 236.362 431.975 237.216L433.446 236.398C436.545 235.074 443.321 234.316 445.804 237.168C446.206 237.65 446.501 238.212 446.67 238.816C446.839 239.42 446.878 240.053 446.784 240.674C446.691 241.294 446.467 241.888 446.128 242.416C445.789 242.944 445.342 243.394 444.816 243.737C442.633 245.278 439.366 244.941 436.967 244.207C434.568 243.473 430.939 240.332 429.733 239.25C428.756 240.14 427.768 241.042 426.863 241.957C426.248 242.594 425.658 243.16 425.055 243.846L423.319 245.807C422.27 247.082 421.173 248.394 420.172 249.669C419.473 250.56 418.822 251.414 418.171 252.268C419.171 251.438 421.197 249.862 421.378 249.729C424.235 247.937 430.83 246.18 433.712 248.61C434.179 249.029 434.552 249.541 434.808 250.113C435.063 250.685 435.195 251.305 435.195 251.931C435.195 252.558 435.063 253.177 434.808 253.749C434.552 254.322 434.179 254.834 433.712 255.252C431.782 257.105 428.503 257.298 426.019 256.913C423.271 256.491 418.303 253.303 417.688 252.858C416.603 254.278 415.566 255.673 414.602 256.997C411.262 261.605 408.658 265.576 406.874 268.367C406.874 268.475 406.753 268.56 406.693 268.656L404.378 267.537L404.739 266.983C406.608 264.204 409.333 260.258 412.805 255.673C413.903 254.217 415.096 252.701 416.338 251.137C415.045 249.734 413.838 248.256 412.721 246.709C410.056 247.744 404.535 247.78 403.811 247.78C403.703 249.573 403.606 251.306 403.534 252.942C403.293 258.633 403.317 263.374 403.377 266.683V267.068L400.833 265.864C400.833 262.568 400.966 258.116 401.303 252.846C401.412 251.041 401.569 249.104 401.749 247.119C401.038 246.95 395.287 245.47 393.117 243.737C391.152 242.173 389.078 239.623 389.15 236.963C389.144 236.336 389.27 235.715 389.52 235.14C389.771 234.564 390.141 234.049 390.605 233.626C391.07 233.203 391.619 232.884 392.215 232.687C392.812 232.491 393.444 232.423 394.069 232.488C397.819 232.969 400.966 238.997 401.581 242.318C401.581 242.51 401.774 244.724 401.846 246.036C401.93 245.229 401.991 244.447 402.087 243.629C402.244 241.981 402.461 240.344 402.69 238.576C402.822 237.734 402.967 236.867 403.1 236.001C403.232 235.135 403.461 234.244 403.642 233.366C404.1 231.308 404.655 229.251 405.27 227.193C403.823 227.049 398.699 226.447 396.493 225.184C394.286 223.921 391.875 221.731 391.55 219.084C391.449 218.465 391.48 217.832 391.641 217.227C391.802 216.621 392.089 216.056 392.484 215.569C392.879 215.082 393.373 214.683 393.932 214.399C394.492 214.116 395.106 213.953 395.733 213.922C399.507 213.826 403.534 219.312 404.643 222.501C404.715 222.693 405.258 225.064 405.523 226.375C405.909 225.172 406.271 223.909 406.729 222.669C407.935 219.06 409.297 215.534 410.623 211.961C411.033 210.866 411.419 209.771 411.829 208.676C411.31 208.676 405.198 208.05 402.738 206.631C400.556 205.427 398.12 203.177 397.783 200.53C397.684 199.912 397.716 199.28 397.878 198.675C398.04 198.07 398.328 197.506 398.722 197.019C399.117 196.532 399.609 196.134 400.168 195.849C400.727 195.565 401.34 195.401 401.966 195.369C405.752 195.272 409.779 200.771 410.888 203.948C410.973 204.188 411.744 207.557 411.901 208.484C412.769 206.077 413.625 203.671 414.312 201.264C415.331 198.015 416.136 194.703 416.724 191.35C416.483 191.35 410.105 190.748 407.585 189.304C405.391 188.041 402.955 185.839 402.63 183.192C402.529 182.574 402.56 181.941 402.721 181.335C402.882 180.729 403.169 180.164 403.564 179.677C403.959 179.19 404.453 178.791 405.013 178.508C405.572 178.224 406.186 178.061 406.813 178.03C410.587 177.934 414.614 183.433 415.723 186.609C415.795 186.814 416.398 189.425 416.651 190.664H416.856C417.354 187.275 417.548 183.848 417.435 180.425C417.435 178.548 417.254 176.743 417.073 174.998C415.868 174.998 410.394 174.998 407.983 173.964C405.571 172.929 403.003 171.028 402.376 168.441C402.209 167.835 402.172 167.201 402.267 166.579C402.363 165.958 402.589 165.364 402.93 164.836C403.272 164.307 403.721 163.857 404.249 163.514C404.777 163.171 405.371 162.944 405.993 162.846C409.743 162.341 414.349 167.358 415.807 170.39C415.88 170.559 416.507 172.327 416.929 173.627C416.844 172.833 416.76 172.026 416.651 171.22C416.278 168.393 415.747 165.83 415.265 163.556C414.976 162.268 414.698 161.149 414.421 160.03C413.215 159.429 408.489 156.962 406.874 154.953C405.258 152.944 403.811 150.068 404.462 147.481C404.6 146.873 404.864 146.301 405.237 145.801C405.61 145.301 406.084 144.885 406.628 144.579C407.172 144.273 407.774 144.084 408.396 144.024C409.018 143.965 409.645 144.036 410.237 144.232Z" fill="#BA68C8"/>
<path d="M478.576 202.396C475.623 202.276 469.715 199.244 469.715 199.244C469.715 199.244 472.886 195.971 473.115 195.778C475.755 193.685 482.097 191.17 485.244 193.264C485.758 193.623 486.191 194.087 486.513 194.625C486.835 195.163 487.04 195.763 487.114 196.385C487.188 197.008 487.13 197.639 486.942 198.237C486.755 198.835 486.443 199.388 486.027 199.857C484.327 201.915 481.096 202.492 478.576 202.396Z" fill="#BA68C8"/>
<g opacity="0.5">
<path d="M417.555 174.458C417.483 174.458 418.399 169.97 418.483 169.645C419.52 166.444 423.426 160.861 427.2 160.861C427.828 160.881 428.445 161.032 429.011 161.305C429.577 161.577 430.079 161.966 430.484 162.444C430.89 162.923 431.191 163.481 431.366 164.083C431.542 164.685 431.589 165.318 431.504 165.939C431.227 168.586 428.84 170.848 426.682 172.147C424.15 173.724 417.555 174.458 417.555 174.458Z" fill="white"/>
<path d="M410.237 144.232C413.794 145.508 415.566 152.077 415.446 155.446C415.446 155.735 414.771 160.259 414.71 160.259H414.638C414.915 161.294 415.217 162.401 415.518 163.628C416.049 165.89 416.627 168.441 417.073 171.28C417.591 174.322 417.929 177.392 418.086 180.473C418.278 183.926 418.161 187.389 417.737 190.821C417.732 190.861 417.732 190.901 417.737 190.941C418.207 189.942 419.605 187.187 419.726 186.982C421.583 184.167 426.815 179.763 430.468 180.81C431.068 180.992 431.623 181.299 432.096 181.71C432.569 182.121 432.95 182.627 433.214 183.194C433.477 183.762 433.619 184.379 433.627 185.005C433.636 185.63 433.513 186.251 433.265 186.826C432.301 189.317 429.407 190.857 426.984 191.554C424.247 192.325 418.146 191.41 417.664 191.338C417.147 194.817 416.398 198.258 415.422 201.637C414.859 203.611 414.248 205.58 413.589 207.545C414.011 206.691 414.409 205.933 414.469 205.837C416.326 203.021 421.571 198.617 425.212 199.664C425.811 199.847 426.366 200.153 426.839 200.564C427.312 200.975 427.693 201.481 427.957 202.049C428.221 202.616 428.362 203.233 428.371 203.859C428.38 204.485 428.256 205.105 428.009 205.68C427.044 208.159 424.151 209.711 421.727 210.397C419.304 211.082 414.047 210.397 412.673 210.228L411.913 212.478C410.708 216.088 409.393 219.697 408.296 223.235C407.898 224.438 407.549 225.738 407.199 226.989C407.585 226.231 407.91 225.593 407.971 225.509C409.827 222.681 415.06 218.29 418.701 219.336C419.301 219.519 419.855 219.826 420.329 220.237C420.802 220.647 421.183 221.153 421.448 221.72C421.713 222.287 421.856 222.904 421.866 223.53C421.877 224.156 421.756 224.777 421.51 225.353C420.546 227.831 417.64 229.383 415.217 230.069C412.793 230.755 408.055 230.153 406.415 229.925C406.09 231.212 405.776 232.512 405.523 233.775C405.366 234.641 405.161 235.459 405.053 236.35L404.691 238.925C404.522 240.573 404.33 242.27 404.209 243.882C404.113 245.013 404.04 246.084 403.968 247.155C404.354 245.951 405.174 243.461 405.234 243.268C406.573 240.624 408.564 238.363 411.021 236.699C411.157 236.395 411.323 236.105 411.515 235.832C411.857 235.307 412.305 234.859 412.832 234.518C413.359 234.177 413.951 233.951 414.572 233.855C415.192 233.758 415.825 233.793 416.431 233.958C417.037 234.122 417.601 234.413 418.086 234.81C420.956 237.276 420.232 244.038 418.918 247.143C418.846 247.323 417.773 249.224 417.085 250.403C417.604 249.766 418.086 249.2 418.629 248.502C419.678 247.215 420.763 245.963 421.92 244.616L423.692 242.703C424.271 242.053 424.97 241.439 425.609 240.79C427.117 239.334 428.72 237.926 430.372 236.554C429.251 235.628 425.296 232.307 424.163 230.045C423.029 227.783 422.222 224.619 423.403 222.224C423.663 221.653 424.04 221.143 424.51 220.727C424.981 220.311 425.534 219.998 426.133 219.81C426.733 219.621 427.365 219.561 427.99 219.633C428.614 219.705 429.216 219.907 429.757 220.227C432.952 222.224 433.278 229.022 432.446 232.259C432.446 232.463 431.529 234.75 431.035 235.989C432.036 235.159 433.024 234.34 434.061 233.582C437.051 231.284 440.15 229.046 443.224 226.796L446.033 224.715C445.636 224.39 440.861 220.54 439.583 218.001C438.462 215.751 437.642 212.574 438.824 210.192C439.082 209.62 439.458 209.108 439.928 208.691C440.398 208.274 440.951 207.96 441.551 207.77C442.15 207.581 442.783 207.52 443.408 207.591C444.033 207.662 444.636 207.863 445.177 208.183C448.384 210.192 448.698 216.978 447.866 220.215C447.806 220.455 446.564 223.728 446.214 224.546C448.264 223.018 450.301 221.478 452.243 219.878C454.881 217.722 457.378 215.399 459.718 212.923C459.537 212.779 454.533 208.772 453.231 206.185C452.098 203.935 451.29 200.759 452.472 198.365C452.73 197.794 453.106 197.284 453.575 196.868C454.044 196.452 454.596 196.139 455.194 195.949C455.792 195.76 456.423 195.698 457.047 195.768C457.67 195.838 458.272 196.038 458.813 196.355C462.02 198.365 462.346 205.163 461.514 208.387C461.454 208.604 460.513 211.107 460.043 212.274C460.099 212.321 460.159 212.361 460.224 212.394C462.511 209.838 464.565 207.084 466.361 204.164C467.374 202.576 468.242 200.988 469.062 199.435C468.049 198.786 463.479 195.826 462.045 193.564C460.61 191.302 459.525 188.378 460.429 185.875C460.624 185.28 460.943 184.732 461.364 184.267C461.785 183.803 462.299 183.432 462.874 183.179C463.448 182.926 464.069 182.796 464.697 182.798C465.325 182.801 465.945 182.935 466.518 183.192C469.93 184.829 470.991 191.615 470.52 194.887C470.52 195.068 470.038 196.885 469.688 198.196C470.038 197.498 470.424 196.764 470.749 196.079C471.955 193.516 472.98 191.085 473.824 188.931C474.306 187.728 474.704 186.525 475.03 185.514C474.366 184.371 471.786 179.691 471.533 177.092C471.28 174.493 471.69 171.329 473.655 169.524C474.103 169.084 474.638 168.744 475.226 168.524C475.814 168.305 476.441 168.211 477.068 168.25C477.695 168.289 478.306 168.458 478.863 168.748C479.419 169.038 479.908 169.442 480.298 169.933C482.565 172.953 480.407 179.414 478.454 182.157C478.285 182.398 475.21 185.767 475.174 185.767V185.695C474.837 186.718 474.475 187.8 474.041 188.992C473.245 191.169 472.317 193.624 471.123 196.211C469.862 199.032 468.441 201.78 466.867 204.441C465.112 207.421 463.094 210.239 460.839 212.863L460.755 212.947C461.695 212.37 464.372 210.842 464.601 210.746C467.711 209.41 474.487 208.664 476.971 211.504C477.37 211.987 477.664 212.549 477.832 213.153C477.999 213.756 478.038 214.389 477.945 215.008C477.851 215.628 477.628 216.221 477.29 216.749C476.952 217.277 476.506 217.728 475.982 218.073C473.8 219.613 470.532 219.276 468.121 218.554C465.408 217.7 460.887 213.573 460.477 213.248C458.119 215.863 455.59 218.319 452.906 220.6C451.35 221.935 449.735 223.235 448.083 224.522C448.915 224.053 449.662 223.632 449.771 223.584C452.869 222.248 459.645 221.502 462.129 224.342C462.531 224.824 462.825 225.386 462.994 225.99C463.163 226.594 463.202 227.227 463.109 227.848C463.016 228.468 462.792 229.061 462.453 229.589C462.113 230.117 461.666 230.568 461.14 230.911C458.97 232.451 455.691 232.115 453.291 231.393C450.892 230.671 446.877 227.181 445.84 226.255C445.201 226.748 444.635 227.242 443.948 227.723C440.921 230.045 437.919 232.343 434.965 234.689C433.941 235.52 432.964 236.362 431.975 237.216L433.446 236.398C436.545 235.074 443.321 234.316 445.804 237.168C446.206 237.65 446.501 238.212 446.67 238.816C446.839 239.42 446.878 240.053 446.784 240.674C446.691 241.294 446.467 241.888 446.128 242.416C445.789 242.944 445.342 243.394 444.816 243.737C442.633 245.278 439.366 244.941 436.967 244.207C434.568 243.473 430.939 240.332 429.733 239.25C428.756 240.14 427.768 241.042 426.863 241.957C426.248 242.594 425.658 243.16 425.055 243.846L423.319 245.807C422.27 247.082 421.173 248.394 420.172 249.669C419.473 250.56 418.822 251.414 418.171 252.268C419.171 251.438 421.197 249.862 421.378 249.729C424.235 247.937 430.83 246.18 433.712 248.61C434.179 249.029 434.552 249.541 434.808 250.113C435.063 250.685 435.195 251.305 435.195 251.931C435.195 252.558 435.063 253.177 434.808 253.749C434.552 254.322 434.179 254.834 433.712 255.252C431.782 257.105 428.503 257.298 426.019 256.913C423.271 256.491 418.303 253.303 417.688 252.858C416.603 254.278 415.566 255.673 414.602 256.997C411.262 261.605 408.658 265.576 406.874 268.367C406.874 268.475 406.753 268.56 406.693 268.656L404.378 267.537L404.739 266.983C406.608 264.204 409.333 260.258 412.805 255.673C413.903 254.217 415.096 252.701 416.338 251.137C415.045 249.734 413.838 248.256 412.721 246.709C410.056 247.744 404.535 247.78 403.811 247.78C403.703 249.573 403.606 251.306 403.534 252.942C403.293 258.633 403.317 263.374 403.377 266.683V267.068L400.833 265.864C400.833 262.568 400.966 258.116 401.303 252.846C401.412 251.041 401.569 249.104 401.749 247.119C401.038 246.95 395.287 245.47 393.117 243.737C391.152 242.173 389.078 239.623 389.15 236.963C389.144 236.336 389.27 235.715 389.52 235.14C389.771 234.564 390.141 234.049 390.605 233.626C391.07 233.203 391.619 232.884 392.215 232.687C392.812 232.491 393.444 232.423 394.069 232.488C397.819 232.969 400.966 238.997 401.581 242.318C401.581 242.51 401.774 244.724 401.846 246.036C401.93 245.229 401.991 244.447 402.087 243.629C402.244 241.981 402.461 240.344 402.69 238.576C402.822 237.734 402.967 236.867 403.1 236.001C403.232 235.135 403.461 234.244 403.642 233.366C404.1 231.308 404.655 229.251 405.27 227.193C403.823 227.049 398.699 226.447 396.493 225.184C394.286 223.921 391.875 221.731 391.55 219.084C391.449 218.465 391.48 217.832 391.641 217.227C391.802 216.621 392.089 216.056 392.484 215.569C392.879 215.082 393.373 214.683 393.932 214.399C394.492 214.116 395.106 213.953 395.733 213.922C399.507 213.826 403.534 219.312 404.643 222.501C404.715 222.693 405.258 225.064 405.523 226.375C405.909 225.172 406.271 223.909 406.729 222.669C407.935 219.06 409.297 215.534 410.623 211.961C411.033 210.866 411.419 209.771 411.829 208.676C411.31 208.676 405.198 208.05 402.738 206.631C400.556 205.427 398.12 203.177 397.783 200.53C397.684 199.912 397.716 199.28 397.878 198.675C398.04 198.07 398.328 197.506 398.722 197.019C399.117 196.532 399.609 196.134 400.168 195.849C400.727 195.565 401.34 195.401 401.966 195.369C405.752 195.272 409.779 200.771 410.888 203.948C410.973 204.188 411.744 207.557 411.901 208.484C412.769 206.077 413.625 203.671 414.312 201.264C415.331 198.015 416.136 194.703 416.724 191.35C416.483 191.35 410.105 190.748 407.585 189.304C405.391 188.041 402.955 185.839 402.63 183.192C402.529 182.574 402.56 181.941 402.721 181.335C402.882 180.729 403.169 180.164 403.564 179.677C403.959 179.19 404.453 178.791 405.013 178.508C405.572 178.224 406.186 178.061 406.813 178.03C410.587 177.934 414.614 183.433 415.723 186.609C415.795 186.814 416.398 189.425 416.651 190.664H416.856C417.354 187.275 417.548 183.848 417.435 180.425C417.435 178.548 417.254 176.743 417.073 174.998C415.868 174.998 410.394 174.998 407.983 173.964C405.571 172.929 403.003 171.028 402.376 168.441C402.209 167.835 402.172 167.201 402.267 166.579C402.363 165.958 402.589 165.364 402.93 164.836C403.272 164.307 403.721 163.857 404.249 163.514C404.777 163.171 405.371 162.944 405.993 162.846C409.743 162.341 414.349 167.358 415.807 170.39C415.88 170.559 416.507 172.327 416.929 173.627C416.844 172.833 416.76 172.026 416.651 171.22C416.278 168.393 415.747 165.83 415.265 163.556C414.976 162.268 414.698 161.149 414.421 160.03C413.215 159.429 408.489 156.962 406.874 154.953C405.258 152.944 403.811 150.068 404.462 147.481C404.6 146.873 404.864 146.301 405.237 145.801C405.61 145.301 406.084 144.885 406.628 144.579C407.172 144.273 407.774 144.084 408.396 144.024C409.018 143.965 409.645 144.036 410.237 144.232Z" fill="white"/>
<path d="M478.573 202.396C475.619 202.276 469.711 199.244 469.711 199.244C469.711 199.244 472.882 195.971 473.111 195.778C475.751 193.685 482.093 191.17 485.24 193.264C485.754 193.623 486.187 194.087 486.509 194.625C486.831 195.163 487.036 195.763 487.11 196.385C487.184 197.008 487.126 197.639 486.938 198.237C486.751 198.835 486.439 199.388 486.024 199.857C484.324 201.915 481.092 202.492 478.573 202.396Z" fill="white"/>
</g>
<path d="M444.081 276.212C444.081 276.212 426.153 233.089 416.121 234.966C406.09 236.843 433.326 303.717 433.326 303.717C433.326 303.717 401.786 244.339 380.277 244.339C358.768 244.339 388.162 309.962 415.41 331.836C415.41 331.836 372.392 285.585 347.302 295.595C322.212 305.606 397.518 352.471 397.518 352.471C397.518 352.471 353.789 338.718 358.804 349.343C363.82 359.967 377.444 361.844 377.444 361.844L328.012 364.346H499.999L461.286 360.592C461.286 360.592 501.434 340.595 490.68 332.462C479.925 324.328 456.27 341.835 456.27 341.835C456.27 341.835 497.13 296.835 489.245 279.966C481.36 263.097 446.227 310.587 446.227 310.587C446.227 310.587 474.91 249.97 469.134 239.333C463.359 228.697 444.081 276.212 444.081 276.212Z" fill="#BA68C8"/>
<path opacity="0.4" d="M444.081 276.212C444.081 276.212 426.153 233.089 416.121 234.966C406.09 236.843 433.326 303.717 433.326 303.717C433.326 303.717 401.786 244.339 380.277 244.339C358.768 244.339 388.162 309.962 415.41 331.836C415.41 331.836 372.392 285.585 347.302 295.595C322.212 305.606 397.518 352.471 397.518 352.471C397.518 352.471 353.789 338.718 358.804 349.343C363.82 359.967 377.444 361.844 377.444 361.844L328.012 364.346H499.999L461.286 360.592C461.286 360.592 501.434 340.595 490.68 332.462C479.925 324.328 456.27 341.835 456.27 341.835C456.27 341.835 497.13 296.835 489.245 279.966C481.36 263.097 446.227 310.587 446.227 310.587C446.227 310.587 474.91 249.97 469.134 239.333C463.359 228.697 444.081 276.212 444.081 276.212Z" fill="white"/>
<path d="M449.821 278.484C434.051 324.988 434.051 357.896 434.051 357.896C434.051 357.896 452.69 358.618 472.041 344.312" stroke="#263238" stroke-linecap="round" stroke-linejoin="round"/>
<path d="M441.936 303.525C438.682 289.623 434.365 275.991 429.023 262.748" stroke="#263238" stroke-linecap="round" stroke-linejoin="round"/>
<path d="M395.336 276.344L435.472 335.722C435.472 335.722 462.72 312.861 472.04 299.951" stroke="#263238" stroke-linecap="round" stroke-linejoin="round"/>
<path d="M434.761 350.029C434.761 350.029 392.467 329.995 375.262 318.553" stroke="#263238" stroke-linecap="round" stroke-linejoin="round"/>
<path d="M166.875 60.4652L157.025 44.7754H70.2656V60.4652V66.1082V327.132H427.383V60.4652H166.875Z" fill="#263238"/>
<path d="M425.032 67.6602H72.918V321.44H425.032V67.6602Z" fill="white"/>
<mask id="mask0_832_13806" style="mask-type:luminance" maskUnits="userSpaceOnUse" x="72" y="67" width="354" height="255">
<path d="M425.032 67.6582H72.918V321.438H425.032V67.6582Z" fill="white"/>
</mask>
<g mask="url(#mask0_832_13806)">
<path opacity="0.17" d="M426.756 65.4805H418.582V323.364H426.756V65.4805Z" fill="black"/>
<path opacity="0.17" d="M426.756 221.402H418.582V321.268H426.756V221.402Z" fill="black"/>
<path d="M425.49 64.2285H71.5195V78.0293H425.49V64.2285Z" fill="#BA68C8" stroke="#263238" stroke-miterlimit="10"/>
</g>
<path d="M425.032 67.6602H72.918V321.44H425.032V67.6602Z" stroke="#263238" stroke-linecap="round" stroke-linejoin="round"/>
<g opacity="0.17">
<path d="M256.372 91.3397H231.741C231.456 91.3397 231.173 91.2837 230.91 91.1748C230.647 91.066 230.407 90.9064 230.206 90.7053C230.004 90.5042 229.845 90.2655 229.736 90.0027C229.626 89.7399 229.57 89.4583 229.57 89.1739C229.569 88.8885 229.624 88.6056 229.732 88.3414C229.84 88.0772 230 87.8371 230.202 87.6347C230.403 87.4323 230.643 87.2717 230.907 87.1621C231.171 87.0525 231.455 86.9961 231.741 86.9961H256.372C256.658 86.9961 256.941 87.0525 257.206 87.1621C257.47 87.2717 257.709 87.4323 257.911 87.6347C258.113 87.8371 258.272 88.0772 258.381 88.3414C258.489 88.6056 258.544 88.8885 258.542 89.1739C258.542 89.4583 258.486 89.7399 258.377 90.0027C258.268 90.2655 258.108 90.5042 257.907 90.7053C257.705 90.9064 257.466 91.066 257.203 91.1748C256.939 91.2837 256.657 91.3397 256.372 91.3397Z" fill="black"/>
<path d="M305.638 91.3397H281.006C280.432 91.3365 279.881 91.1073 279.475 90.7018C279.069 90.2964 278.839 89.7473 278.836 89.1739C278.836 88.5984 279.064 88.0463 279.471 87.6382C279.877 87.2301 280.429 86.9993 281.006 86.9961H305.638C306.217 86.9961 306.772 87.2255 307.181 87.634C307.59 88.0424 307.82 88.5963 307.82 89.1739C307.817 89.7494 307.586 90.3002 307.177 90.7061C306.768 91.1119 306.214 91.3397 305.638 91.3397Z" fill="black"/>
<path d="M354.912 91.3397H330.28C329.703 91.3397 329.15 91.1119 328.741 90.7061C328.332 90.3002 328.101 89.7494 328.098 89.1739C328.098 88.5963 328.328 88.0424 328.737 87.634C329.146 87.2255 329.701 86.9961 330.28 86.9961H354.912C355.488 86.9993 356.04 87.2301 356.447 87.6382C356.854 88.0463 357.082 88.5984 357.082 89.1739C357.079 89.7473 356.849 90.2964 356.443 90.7018C356.036 91.1073 355.486 91.3365 354.912 91.3397Z" fill="black"/>
<path d="M404.173 91.3397H379.541C379.256 91.3397 378.974 91.2837 378.711 91.1748C378.448 91.066 378.208 90.9064 378.007 90.7053C377.805 90.5042 377.645 90.2655 377.536 90.0027C377.427 89.7399 377.371 89.4583 377.371 89.1739C377.37 88.8885 377.424 88.6056 377.533 88.3414C377.641 88.0772 377.801 87.8371 378.002 87.6347C378.204 87.4323 378.444 87.2717 378.708 87.1621C378.972 87.0525 379.255 86.9961 379.541 86.9961H404.173C404.75 86.9993 405.302 87.2301 405.708 87.6382C406.115 88.0463 406.343 88.5984 406.343 89.1739C406.34 89.7473 406.11 90.2964 405.704 90.7018C405.298 91.1073 404.748 91.3365 404.173 91.3397Z" fill="black"/>
</g>
<path d="M106.195 194.924H143.414" stroke="#263238" stroke-width="3" stroke-linecap="round" stroke-linejoin="round"/>
<path d="M142.75 200.711H146.813" stroke="#263238" stroke-linecap="round" stroke-linejoin="round"/>
<path d="M119.445 200.711H140.291" stroke="#263238" stroke-linecap="round" stroke-linejoin="round"/>
<path d="M103.348 200.711H117.237" stroke="#263238" stroke-linecap="round" stroke-linejoin="round"/>
<path d="M129.742 206.498H146.814" stroke="#263238" stroke-linecap="round" stroke-linejoin="round"/>
<path d="M120.422 206.498H127.053" stroke="#263238" stroke-linecap="round" stroke-linejoin="round"/>
<path d="M103.348 206.498H117.478" stroke="#263238" stroke-linecap="round" stroke-linejoin="round"/>
<path d="M112.574 212.273H146.815" stroke="#263238" stroke-linecap="round" stroke-linejoin="round"/>
<path d="M103.348 212.273H109.388" stroke="#263238" stroke-linecap="round" stroke-linejoin="round"/>
<path d="M138.336 218.061H146.812" stroke="#263238" stroke-linecap="round" stroke-linejoin="round"/>
<path d="M122.145 218.061H135.383" stroke="#263238" stroke-linecap="round" stroke-linejoin="round"/>
<path d="M103.348 218.061H119.443" stroke="#263238" stroke-linecap="round" stroke-linejoin="round"/>
<path d="M117.48 223.85H146.814" stroke="#263238" stroke-linecap="round" stroke-linejoin="round"/>
<path d="M103.348 223.85H114.777" stroke="#263238" stroke-linecap="round" stroke-linejoin="round"/>
<path d="M191.074 194.924H228.293" stroke="#263238" stroke-width="3" stroke-linecap="round" stroke-linejoin="round"/>
<path d="M227.629 200.711H231.692" stroke="#263238" stroke-linecap="round" stroke-linejoin="round"/>
<path d="M204.324 200.711H225.17" stroke="#263238" stroke-linecap="round" stroke-linejoin="round"/>
<path d="M188.227 200.711H202.116" stroke="#263238" stroke-linecap="round" stroke-linejoin="round"/>
<path d="M214.621 206.498H231.693" stroke="#263238" stroke-linecap="round" stroke-linejoin="round"/>
<path d="M205.301 206.498H211.932" stroke="#263238" stroke-linecap="round" stroke-linejoin="round"/>
<path d="M188.227 206.498H202.357" stroke="#263238" stroke-linecap="round" stroke-linejoin="round"/>
<path d="M197.449 212.273H231.69" stroke="#263238" stroke-linecap="round" stroke-linejoin="round"/>
<path d="M188.227 212.273H194.267" stroke="#263238" stroke-linecap="round" stroke-linejoin="round"/>
<path d="M223.215 218.061H231.691" stroke="#263238" stroke-linecap="round" stroke-linejoin="round"/>
<path d="M207.023 218.061H220.262" stroke="#263238" stroke-linecap="round" stroke-linejoin="round"/>
<path d="M188.227 218.061H204.322" stroke="#263238" stroke-linecap="round" stroke-linejoin="round"/>
<path d="M202.359 223.85H231.693" stroke="#263238" stroke-linecap="round" stroke-linejoin="round"/>
<path d="M188.227 223.85H199.656" stroke="#263238" stroke-linecap="round" stroke-linejoin="round"/>
<path d="M275.953 194.924H313.172" stroke="#263238" stroke-width="3" stroke-linecap="round" stroke-linejoin="round"/>
<path d="M312.508 200.711H316.571" stroke="#263238" stroke-linecap="round" stroke-linejoin="round"/>
<path d="M289.203 200.711H310.049" stroke="#263238" stroke-linecap="round" stroke-linejoin="round"/>
<path d="M273.105 200.711H286.995" stroke="#263238" stroke-linecap="round" stroke-linejoin="round"/>
<path d="M299.5 206.498H316.572" stroke="#263238" stroke-linecap="round" stroke-linejoin="round"/>
<path d="M290.18 206.498H296.811" stroke="#263238" stroke-linecap="round" stroke-linejoin="round"/>
<path d="M273.105 206.498H287.236" stroke="#263238" stroke-linecap="round" stroke-linejoin="round"/>
<path d="M282.328 212.273H316.569" stroke="#263238" stroke-linecap="round" stroke-linejoin="round"/>
<path d="M273.105 212.273H279.146" stroke="#263238" stroke-linecap="round" stroke-linejoin="round"/>
<path d="M308.094 218.061H316.57" stroke="#263238" stroke-linecap="round" stroke-linejoin="round"/>
<path d="M291.902 218.061H305.141" stroke="#263238" stroke-linecap="round" stroke-linejoin="round"/>
<path d="M273.105 218.061H289.201" stroke="#263238" stroke-linecap="round" stroke-linejoin="round"/>
<path d="M287.234 223.85H316.568" stroke="#263238" stroke-linecap="round" stroke-linejoin="round"/>
<path d="M273.105 223.85H284.535" stroke="#263238" stroke-linecap="round" stroke-linejoin="round"/>
<path d="M360.828 194.924H398.047" stroke="#263238" stroke-width="3" stroke-linecap="round" stroke-linejoin="round"/>
<path d="M397.387 200.711H401.45" stroke="#263238" stroke-linecap="round" stroke-linejoin="round"/>
<path d="M374.078 200.711H394.924" stroke="#263238" stroke-linecap="round" stroke-linejoin="round"/>
<path d="M357.984 200.711H371.874" stroke="#263238" stroke-linecap="round" stroke-linejoin="round"/>
<path d="M384.375 206.498H401.447" stroke="#263238" stroke-linecap="round" stroke-linejoin="round"/>
<path d="M375.059 206.498H381.69" stroke="#263238" stroke-linecap="round" stroke-linejoin="round"/>
<path d="M357.984 206.498H372.115" stroke="#263238" stroke-linecap="round" stroke-linejoin="round"/>
<path d="M367.207 212.273H401.448" stroke="#263238" stroke-linecap="round" stroke-linejoin="round"/>
<path d="M357.984 212.273H364.025" stroke="#263238" stroke-linecap="round" stroke-linejoin="round"/>
<path d="M392.973 218.061H401.448" stroke="#263238" stroke-linecap="round" stroke-linejoin="round"/>
<path d="M376.781 218.061H390.019" stroke="#263238" stroke-linecap="round" stroke-linejoin="round"/>
<path d="M357.984 218.061H374.08" stroke="#263238" stroke-linecap="round" stroke-linejoin="round"/>
<path d="M372.117 223.85H401.451" stroke="#263238" stroke-linecap="round" stroke-linejoin="round"/>
<path d="M357.984 223.85H369.414" stroke="#263238" stroke-linecap="round" stroke-linejoin="round"/>
<path d="M412.917 176.287H84.9766V108.775H412.917V176.287Z" fill="#BA68C8"/>
<path opacity="0.7" d="M412.917 176.287H84.9766V108.775H412.917V176.287Z" fill="white"/>
<path d="M329.928 176.287H168.02V108.775H329.928V176.287Z" fill="#BA68C8"/>
<path opacity="0.92" d="M329.928 176.287H168.02V108.775H329.928V176.287Z" fill="white"/>
<path d="M296.844 128.34H307.876" stroke="#263238" stroke-linecap="round" stroke-linejoin="round"/>
<path d="M233.691 128.34H290.201" stroke="#263238" stroke-linecap="round" stroke-linejoin="round"/>
<path d="M190.07 128.34H227.699" stroke="#263238" stroke-linecap="round" stroke-linejoin="round"/>
<path d="M261.617 134.125H307.878" stroke="#263238" stroke-linecap="round" stroke-linejoin="round"/>
<path d="M236.344 134.125H254.296" stroke="#263238" stroke-linecap="round" stroke-linejoin="round"/>
<path d="M190.07 134.125H228.374" stroke="#263238" stroke-linecap="round" stroke-linejoin="round"/>
<path d="M215.078 139.914H307.878" stroke="#263238" stroke-linecap="round" stroke-linejoin="round"/>
<path d="M190.07 139.914H206.431" stroke="#263238" stroke-linecap="round" stroke-linejoin="round"/>
<path d="M284.887 145.701H307.879" stroke="#263238" stroke-linecap="round" stroke-linejoin="round"/>
<path d="M241 145.701H276.905" stroke="#263238" stroke-linecap="round" stroke-linejoin="round"/>
<path d="M190.07 145.701H233.691" stroke="#263238" stroke-linecap="round" stroke-linejoin="round"/>
<path d="M228.375 151.475H307.876" stroke="#263238" stroke-linecap="round" stroke-linejoin="round"/>
<path d="M190.07 151.475H221.056" stroke="#263238" stroke-linecap="round" stroke-linejoin="round"/>
<path d="M412.917 320.598H84.9766V253.086H412.917V320.598Z" fill="#BA68C8"/>
<path opacity="0.7" d="M412.917 320.598H84.9766V253.086H412.917V320.598Z" fill="white"/>
<mask id="mask1_832_13806" style="mask-type:luminance" maskUnits="userSpaceOnUse" x="342" y="225" width="74" height="97">
<path d="M415.447 225.678H342.637V321.02H415.447V225.678Z" fill="white"/>
</mask>
<g mask="url(#mask1_832_13806)">
<path d="M374.103 278.774C374.103 278.774 354.897 286.475 351.882 287.425C348.868 288.376 348.688 289.675 348.688 293.802C348.688 297.929 349.254 316.543 349.254 318.047C349.254 319.551 349.061 322.366 349.061 322.366H411.985C411.985 322.366 407.837 305.522 405.39 297.568C402.942 289.615 404.076 288.917 399.747 286.294C395.419 283.671 384.074 279.905 381.662 279.34C379.162 278.948 376.634 278.759 374.103 278.774Z" fill="#263238" stroke="#263238" stroke-linecap="round" stroke-linejoin="round"/>
<path d="M375.044 276.707C375.044 276.707 370.523 276.334 368.642 280.1C366.761 283.866 362.24 292.637 362.24 292.637L367.701 296.018L361.348 299.255C362.409 303.897 363.729 308.476 365.302 312.971C366.396 315.921 367.652 318.809 369.064 321.622C369.064 321.622 378.227 311.287 381.844 308.086C384.229 305.809 386.203 303.139 387.679 300.193L382.977 295.874L391.079 294.935C391.079 294.935 389.006 284.419 386.365 280.1C383.725 275.78 375.044 276.707 375.044 276.707Z" fill="#263238" stroke="#263238" stroke-linecap="round" stroke-linejoin="round"/>
<path d="M365.797 313.092C366.134 314.03 366.496 314.921 366.846 315.703" stroke="white" stroke-width="0.5" stroke-linecap="round" stroke-linejoin="round"/>
<path d="M366.481 284.779L362.237 292.636L367.699 296.017L361.852 299.326C361.852 299.326 363.214 305.258 364.926 310.576" stroke="white" stroke-width="0.5" stroke-linecap="round" stroke-linejoin="round"/>
<path d="M387.873 281.219L391.044 294.935L382.942 295.874L387.644 300.193C387.644 300.193 378.601 310.769 374.852 315.041" stroke="white" stroke-width="0.5" stroke-linecap="round" stroke-linejoin="round"/>
<path d="M399.712 302.262L396.324 323.125" stroke="white" stroke-width="0.5" stroke-linecap="round" stroke-linejoin="round"/>
<path d="M353.207 298.508C353.207 298.508 352.833 311.093 353.014 315.04C353.164 317.542 353.671 320.009 354.521 322.367" stroke="white" stroke-width="0.5" stroke-linecap="round" stroke-linejoin="round"/>
<path d="M388.039 307.339L391.234 303.02L393.874 307.339H388.039Z" fill="white" stroke="#263238" stroke-miterlimit="10"/>
<path d="M391.803 265.999C391.803 265.999 394.998 265.626 395.758 270.331C396.518 275.035 394.251 281.039 386.716 281.039C379.18 281.039 379.759 275.396 379.94 271.269C380.121 267.142 391.803 265.999 391.803 265.999Z" fill="#263238" stroke="#263238" stroke-miterlimit="10"/>
<path d="M373.164 273.709C373.164 273.709 372.971 279.148 372.597 285.356C372.223 291.565 369.209 300.011 369.209 307.146C369.184 311.1 369.373 315.052 369.776 318.986C369.776 318.986 375.985 306.954 378.806 300.011C381.628 293.069 384.835 272.951 384.835 272.951L373.164 273.709Z" fill="white" stroke="#263238" stroke-miterlimit="10"/>
<path d="M391.608 261.353C393.011 258.614 393.785 255.597 393.875 252.522C393.875 247.829 392.935 241.44 387.473 238.613C382.011 235.785 371.462 237.674 368.834 243.125C367.059 246.609 366.228 250.495 366.422 254.399C366.612 256.509 367.053 258.589 367.736 260.595C367.736 260.595 368.496 256.986 373.572 255.157C378.648 253.328 384.121 251.391 386.75 252.751C389.378 254.11 391.608 261.353 391.608 261.353Z" fill="#263238" stroke="#263238" stroke-linecap="round" stroke-linejoin="round"/>
<path d="M367.893 259.428C367.893 259.428 365.626 256.047 364.686 258.49C363.745 260.932 365.072 264.506 366.567 265.252C368.062 265.998 368.833 265.625 368.833 265.625L367.893 259.428Z" fill="white" stroke="#263238" stroke-linecap="round" stroke-linejoin="round"/>
<path d="M391.608 259.994C391.608 259.994 394.248 257.359 394.248 259.801C394.115 262.068 393.272 264.236 391.837 265.998C390.703 267.502 390.137 266.756 390.137 266.756L391.608 259.994Z" fill="white" stroke="#263238" stroke-linecap="round" stroke-linejoin="round"/>
<path d="M387.137 249.175L389.006 243.917C389.079 243.711 389.068 243.485 388.974 243.287C388.88 243.09 388.712 242.938 388.506 242.864C388.299 242.791 388.072 242.802 387.874 242.896C387.677 242.99 387.524 243.158 387.451 243.364L385.883 247.755C384.234 247.366 382.523 247.317 380.854 247.611C379.185 247.905 377.594 248.535 376.178 249.464C371.283 252.664 367.328 255.48 367.328 255.48C367.328 255.48 367.521 266.188 369.583 270.135C371.644 274.081 375.237 278.774 378.251 278.774C381.266 278.774 386.534 272.204 388.608 270.135C390.682 268.065 391.996 259.992 391.996 257.357C391.996 255.468 388.885 251.353 387.137 249.175Z" fill="white" stroke="#263238" stroke-miterlimit="10"/>
<path d="M379.723 297.449C376.664 297.726 373.583 297.314 370.704 296.246C369.842 299.849 369.341 303.529 369.209 307.231C369.184 311.185 369.373 315.138 369.776 319.071C369.776 319.071 375.985 307.039 378.806 300.096C379.108 299.278 379.433 298.376 379.723 297.449Z" fill="#BA68C8" stroke="#263238" stroke-miterlimit="10"/>
</g>
<mask id="mask2_832_13806" style="mask-type:luminance" maskUnits="userSpaceOnUse" x="257" y="225" width="74" height="97">
<path d="M330.111 225.678H257.301V321.02H330.111V225.678Z" fill="white"/>
</mask>
<g mask="url(#mask2_832_13806)">
<path d="M290.735 268.802C285.933 269.346 281.163 270.15 276.448 271.209C270.938 272.629 268.286 273.242 268.286 275.889C268.286 278.536 267.671 289.943 265.874 295.044C264.078 300.146 261.992 307.473 261.992 310.121C261.992 312.768 265.874 323.969 265.874 323.969H273.012C273.012 323.969 270.359 310.927 270.359 309.711C270.359 308.496 274.037 297.679 274.037 297.679L274.242 324.367H311.617L311.219 298.895C311.219 298.895 314.475 309.29 314.475 311.119C314.475 312.948 313.269 324.98 313.269 324.98H320.358C320.358 324.98 323.831 311.745 323.626 307.052C323.421 302.36 320.009 287.488 319.55 282.988C319.092 278.488 321.793 276.058 316.898 273.002C312.003 269.946 300.766 268.117 298.319 267.912C295.768 267.962 293.228 268.261 290.735 268.802Z" fill="#BA68C8" stroke="#263238" stroke-miterlimit="10"/>
<path d="M273.999 297.738L274.614 287.547L272.359 279.811" stroke="#263238" stroke-linecap="round" stroke-linejoin="round"/>
<path d="M311.16 285.922V298.953" stroke="#263238" stroke-linecap="round" stroke-linejoin="round"/>
<path d="M311.352 289.592L314.619 284.695" stroke="#263238" stroke-linecap="round" stroke-linejoin="round"/>
<path d="M294.206 282.664L292.988 324.018" stroke="#263238" stroke-linecap="round" stroke-linejoin="round"/>
<path d="M293.594 263.916C291.777 264.016 290.05 264.734 288.699 265.95C286.457 267.995 285.637 275.936 285.637 275.936C285.637 275.936 292.786 273.903 294.004 273.53C295.222 273.157 306.061 275.563 306.061 275.563C306.061 275.563 305.048 268.44 302.19 265.384C299.333 262.328 293.594 263.916 293.594 263.916Z" fill="#263238" stroke="#263238" stroke-linecap="round" stroke-linejoin="round"/>
<path d="M290.734 257.395C290.734 257.395 292.374 259.801 292.374 267.02C292.374 274.24 293.182 281.688 294.207 282.662C295.231 283.637 299.512 273.037 299.512 268.224C299.593 265.041 300.362 261.914 301.766 259.055C301.766 259.055 296.654 255.59 294.002 255.181C293.277 255.068 292.537 255.234 291.931 255.645C291.324 256.056 290.897 256.681 290.734 257.395Z" fill="white" stroke="#263238" stroke-linecap="round" stroke-linejoin="round"/>
<path d="M292.699 274.961C293.025 278.919 293.579 282.036 294.206 282.661C294.833 283.287 296.798 279.317 298.149 275.057C296.339 275.313 294.499 275.28 292.699 274.961Z" fill="#263238" stroke="#263238" stroke-linecap="round" stroke-linejoin="round"/>
<path d="M303.191 237.842C303.191 237.842 304.397 238.252 306.663 236.206C308.93 234.161 307.869 230.298 306.868 231.117C306.229 231.637 305.676 232.254 305.229 232.945C304.833 231.753 304.104 230.698 303.128 229.905C302.152 229.113 300.969 228.614 299.719 228.47C295.439 228.06 290.327 233.968 290.327 233.968C290.327 233.968 280.947 240.899 281.959 246.397C282.972 251.896 288.289 256.781 290.737 257.395C293.184 258.008 297.681 253.532 296.861 249.658C296.041 245.784 295.439 240.032 296.861 239.467C298.939 238.807 301.052 238.265 303.191 237.842Z" fill="#263238" stroke="#263238" stroke-linecap="round" stroke-linejoin="round"/>
<path d="M290.326 254.134C290.326 254.134 286.866 251.727 286.046 253.532C285.226 255.337 287.071 258.622 289.313 259.632C291.556 260.643 293.593 257.394 293.593 257.394C293.593 257.394 300.743 263.098 305.65 263.302C310.557 263.507 310.762 259.632 309.942 252.305C309.122 244.977 306.675 239.262 304.842 237.229C303.01 235.195 295.86 237.024 293.606 238.853C291.351 240.682 289.989 242.318 292.183 242.727C294.377 243.136 296.463 243.93 294.425 246.192C292.388 248.454 291.363 247.612 292.014 249.249C292.665 250.885 295.281 252.509 292.834 253.327L290.326 254.134Z" fill="white" stroke="#263238" stroke-linecap="round" stroke-linejoin="round"/>
</g>
<mask id="mask3_832_13806" style="mask-type:luminance" maskUnits="userSpaceOnUse" x="161" y="225" width="74" height="97">
<path d="M234.576 225.219H161.766V321.03H234.576V225.219Z" fill="white"/>
</mask>
<g mask="url(#mask3_832_13806)">
<path d="M200.612 264.961C200.612 264.961 174.883 268.017 174.088 270.255C173.292 272.493 163.888 294.319 165.31 296.329C166.733 298.338 169.603 298.735 171.845 298.735C173.433 298.593 174.936 297.953 176.137 296.906L169.603 324.58H216.961L218.396 305.22C218.396 305.22 223.906 307.627 227.583 307.266C231.26 306.905 230.44 304.005 229.62 298.506C228.8 293.008 228.415 278.942 226.968 276.295C225.521 273.648 208.184 266.309 208.184 266.309L200.612 264.961Z" fill="#263238" stroke="#263238" stroke-linecap="round" stroke-linejoin="round"/>
<path d="M218.781 298.145V285.511L219.794 283.068" stroke="white" stroke-linecap="round" stroke-linejoin="round"/>
<path d="M177.535 287.546L179.585 278.991L179.175 277.162" stroke="white" stroke-linecap="round" stroke-linejoin="round"/>
<path d="M182.914 325.446C182.914 325.446 186.784 308.734 188.629 298.35C190.474 287.966 198.154 264.961 198.154 264.961L210.005 268.222C210.005 268.222 202.036 291.443 199.998 301.43C197.961 311.417 196.249 325.566 196.249 325.566L182.914 325.446Z" fill="#BA68C8" stroke="#263238" stroke-miterlimit="10"/>
<path d="M199.794 262.554C199.794 262.554 196.322 262.554 195.092 264.96C193.862 267.366 192.234 276.776 192.234 276.776C192.234 276.776 199.589 273.515 200.204 273.515C200.819 273.515 203.676 273.719 205.099 275.344C206.521 276.968 209.596 280.842 209.596 280.842C209.596 280.842 214.286 273.31 213.068 268.425C212.651 266.815 211.735 265.378 210.451 264.317C209.168 263.256 207.582 262.627 205.919 262.518L199.794 262.554Z" fill="#BA68C8" stroke="#263238" stroke-miterlimit="10"/>
<path d="M198.588 257.188C198.588 257.188 198.179 271.458 198.588 275.524C198.998 279.591 199.613 280.614 199.613 280.614C199.613 280.614 203.086 274.911 204.098 272.877C205.111 270.844 208.185 268.594 209.62 266.765C211.055 264.936 212.032 258.006 212.032 258.006C212.032 258.006 206.727 262.085 203.869 261.062C201.847 260.169 200.045 258.847 198.588 257.188Z" fill="white" stroke="#263238" stroke-linecap="round" stroke-linejoin="round"/>
<path d="M207.027 231.403C203.554 231.908 200.167 233.641 199.19 237.022C198.37 239.873 197.984 249.246 197.767 253.927C197.55 258.607 200.01 264.527 202.047 265.14C203.748 265.743 205.579 265.884 207.352 265.55C208.377 265.14 213.079 258.824 214.297 257.596C215.515 256.369 219.192 244.963 219.192 240.896C219.282 238.89 218.714 236.909 217.573 235.255C216.433 233.6 214.783 232.362 212.874 231.727C210.97 231.211 208.977 231.1 207.027 231.403Z" fill="white" stroke="#263238" stroke-linecap="round" stroke-linejoin="round"/>
<path d="M217.144 250.521C217.144 250.521 220.412 247.657 219.556 251.327C219.293 252.423 218.791 253.449 218.087 254.33C217.383 255.212 216.493 255.928 215.48 256.428L217.144 250.521Z" fill="white" stroke="#263238" stroke-linecap="round" stroke-linejoin="round"/>
<path d="M198.154 246.599C198.154 246.599 195.742 244.361 195.742 247.417C195.835 249.418 196.552 251.34 197.792 252.916L198.154 246.599Z" fill="white" stroke="#263238" stroke-linecap="round" stroke-linejoin="round"/>
<path d="M217.144 250.522C218.203 247.405 218.887 244.174 219.181 240.896C219.271 238.89 218.703 236.909 217.563 235.255C216.422 233.6 214.773 232.362 212.863 231.727C210.959 231.211 208.966 231.1 207.016 231.403C203.544 231.908 200.156 233.641 199.179 237.022C198.551 240.393 198.184 243.809 198.082 247.237C199.119 246.431 201.277 244.457 200.819 242.111C200.204 239.055 198.974 237.635 201.217 236.203C203.459 234.772 206.124 236.817 209.801 238.044C213.478 239.272 217.144 237.635 218.168 238.646C219.193 239.657 214.901 243.952 215.516 245.576C216.131 247.201 217.553 249.042 217.144 250.473V250.522Z" fill="#263238" stroke="#263238" stroke-linecap="round" stroke-linejoin="round"/>
<path d="M187.736 289.588C187.736 289.588 184.674 285.305 182.636 285.1C180.598 284.896 175.691 289.588 175.691 289.588H187.736Z" fill="white" stroke="#263238" stroke-linecap="round" stroke-linejoin="round"/>
<path d="M207.137 289.986H210.006L210.609 295.702L207.547 294.883L207.137 289.986Z" fill="white" stroke="#263238" stroke-linecap="round" stroke-linejoin="round"/>
<path d="M210.004 289.986L215.104 292.236L216.322 298.553L210.607 295.702L210.004 289.986Z" fill="white" stroke="#263238" stroke-linecap="round" stroke-linejoin="round"/>
<path d="M226.318 301.057L197.128 289.65C195.446 290.476 193.867 291.498 192.426 292.694C191.575 293.549 190.946 294.598 190.594 295.751C190.594 295.751 204.471 305.737 211.211 308.793C217.95 311.85 227.752 312.872 229.38 311.2C231.008 309.527 230.586 303.259 229.585 302.236C229.044 301.679 228.427 301.201 227.752 300.816" fill="#263238"/>
<path d="M226.318 301.057L197.128 289.65C195.446 290.476 193.867 291.498 192.426 292.694C191.575 293.549 190.946 294.598 190.594 295.751C190.594 295.751 204.471 305.737 211.211 308.793C217.95 311.85 227.752 312.872 229.38 311.2C231.008 309.527 230.586 303.259 229.585 302.236C229.044 301.679 228.427 301.201 227.752 300.816" stroke="#263238" stroke-linecap="round" stroke-linejoin="round"/>
<path d="M207.136 289.024L207.545 294.932C207.545 294.932 186.109 299.817 178.151 301.249C170.194 302.681 165.902 301.646 164.684 297.988C163.467 294.33 167.542 289.83 169.374 288.82C171.207 287.809 207.136 289.024 207.136 289.024Z" fill="#263238" stroke="#263238" stroke-linecap="round" stroke-linejoin="round"/>
</g>
<mask id="mask4_832_13806" style="mask-type:luminance" maskUnits="userSpaceOnUse" x="88" y="225" width="65" height="97">
<path d="M152.951 225.678H88.4844V321.02H152.951V225.678Z" fill="white"/>
</mask>
<g mask="url(#mask4_832_13806)">
<path d="M128.281 275.059C128.281 275.059 136.456 277.092 139.723 278.115C142.99 279.137 144.003 280.353 144.003 282.795C144.003 285.238 142.171 296.03 142.171 297.667V308.676C142.171 311.732 145.233 322.934 145.233 322.934H105.446C105.446 322.934 100.961 305.825 97.8987 296.464C94.8364 287.103 94.4264 283.83 97.4888 282.398C104.768 279.736 112.195 277.494 119.733 275.684C122.565 275.277 125.421 275.068 128.281 275.059Z" fill="#BA68C8" stroke="#263238" stroke-miterlimit="10"/>
<path d="M140.136 288.498C140.136 288.498 142.547 299.712 141.763 303.779C140.98 307.846 135.434 323.343 135.434 323.343" stroke="#263238" stroke-linecap="round" stroke-linejoin="round"/>
<path d="M97.4665 282.387C97.4665 282.387 93.8495 283 94.814 287.693C95.7785 292.385 91.1367 322.718 91.1367 322.718H100.119C100.119 322.718 106.244 306.619 107.256 302.757C108.269 298.895 109.101 295.827 107.256 292.566" fill="#BA68C8"/>
<path d="M97.4665 282.387C97.4665 282.387 93.8495 283 94.814 287.693C95.7785 292.385 91.1367 322.718 91.1367 322.718H100.119C100.119 322.718 106.244 306.619 107.256 302.757C108.269 298.895 109.101 295.827 107.256 292.566" stroke="#263238" stroke-miterlimit="10"/>
<path d="M135.504 255.217L136.842 296.715H124.773V258.79L135.504 255.217Z" fill="#263238" stroke="#263238" stroke-linecap="round" stroke-linejoin="round"/>
<path d="M119.918 285.044C119.918 285.044 123.39 300.686 124.825 305.415C126.26 310.143 126.453 321.056 126.031 322.524C125.609 323.992 131.131 322.524 131.131 322.524C131.131 322.524 132.565 311.695 133.385 305.415C134.205 299.134 131.745 287.282 131.745 287.282L129.093 276.887L119.086 278.728L119.918 285.044Z" fill="white" stroke="#263238" stroke-linecap="round" stroke-linejoin="round"/>
<path d="M128.659 267.922C128.089 271.165 128.159 274.487 128.863 277.704C130.069 282.192 133.361 290.337 130.503 292.575C127.646 294.813 123.764 293.598 121.726 289.519C119.688 285.44 117.844 275.261 117.844 266.911C117.844 258.561 118.664 257.129 121.521 257.129C124.378 257.129 128.659 267.922 128.659 267.922Z" fill="white" stroke="#263238" stroke-linecap="round" stroke-linejoin="round"/>
<path d="M122.774 264.06C120.938 265.653 118.779 266.831 116.444 267.514C113.382 268.127 111.754 259.982 111.344 251.872C110.934 243.762 112.984 239.238 117.264 237.205C121.544 235.171 131.961 236.182 136.048 237.806C140.136 239.431 145.031 242.09 145.031 246.361C145.031 250.633 139.509 254.134 137.881 255.097C136.253 256.059 132.371 257.503 129.924 259.982C127.809 261.764 125.386 263.146 122.774 264.06Z" fill="#263238" stroke="#263238" stroke-linecap="round" stroke-linejoin="round"/>
<path d="M122.773 264.059C122.773 264.059 125.185 270.172 129.718 270.364C134.251 270.557 139.363 260.185 139.52 255.697C139.677 251.209 135.023 243.473 135.023 243.473C135.023 243.473 127.066 261.605 122.773 264.059Z" fill="white" stroke="#263238" stroke-linecap="round" stroke-linejoin="round"/>
<path d="M121.556 254.893L121.953 298.894H108.281L111.344 247.758" fill="#263238"/>
<path d="M121.556 254.893L121.953 298.894H108.281L111.344 247.758" stroke="#263238" stroke-linecap="round" stroke-linejoin="round"/>
</g>
</svg>
