<svg width="500" height="380" viewBox="0 0 500 380" fill="none" xmlns="http://www.w3.org/2000/svg">
<path d="M250 380.001C388.071 380.001 500 330.908 500 270.348C500 209.789 388.071 160.695 250 160.695C111.929 160.695 0 209.789 0 270.348C0 330.908 111.929 380.001 250 380.001Z" fill="#F5F5F5"/>
<path d="M292.788 330.638C318.175 330.638 338.755 321.611 338.755 310.476C338.755 299.341 318.175 290.314 292.788 290.314C267.401 290.314 246.82 299.341 246.82 310.476C246.82 321.611 267.401 330.638 292.788 330.638Z" fill="#E0E0E0"/>
<path d="M412.374 318.696C437.761 318.696 458.341 309.67 458.341 298.535C458.341 287.4 437.761 278.373 412.374 278.373C386.987 278.373 366.406 287.4 366.406 298.535C366.406 309.67 386.987 318.696 412.374 318.696Z" fill="#E0E0E0"/>
<path d="M160.94 360.868C186.327 360.868 206.908 351.842 206.908 340.707C206.908 329.572 186.327 320.545 160.94 320.545C135.553 320.545 114.973 329.572 114.973 340.707C114.973 351.842 135.553 360.868 160.94 360.868Z" fill="#E0E0E0"/>
<path d="M85.6027 274.406C85.6027 274.406 84.403 253.088 72.6389 241.222C60.8749 229.357 46.4558 227.652 39.313 230.994C34.0919 233.424 34.7918 240.649 43.8231 245.341C52.8544 250.033 70.2617 262.059 72.9833 269.899L85.6027 274.406Z" fill="#37474F"/>
<path d="M77.8245 271.301C77.6339 271.29 77.4564 271.223 77.3299 271.114C77.2033 271.005 77.1376 270.863 77.1469 270.718C78.3577 251.375 56.0404 239.315 49.964 237.146C49.7896 237.084 49.6546 236.972 49.588 236.835C49.5215 236.697 49.5289 236.545 49.6085 236.412C49.6928 236.279 49.8422 236.176 50.0249 236.126C50.2076 236.075 50.409 236.081 50.5861 236.142C56.818 238.387 79.8462 250.818 78.6021 270.744C78.5906 270.89 78.5037 271.027 78.3602 271.125C78.2168 271.223 78.0283 271.274 77.8356 271.267L77.8245 271.301Z" fill="white"/>
<path d="M80.0477 267.671C78.4438 267.654 76.9017 267.199 75.7042 266.388C74.3378 265.249 74.4489 263.502 73.8157 262.033C72.7826 259.619 69.65 257.982 66.384 257.467C63.0726 257.075 59.6876 257.248 56.4751 257.974C49.921 259.197 43.6224 256.134 37.0572 256.497C34.6884 256.555 32.3847 257.1 30.392 258.075C29.4092 258.569 28.604 259.241 28.0493 260.031C27.4946 260.821 27.2078 261.703 27.215 262.599C27.4402 264.08 28.4115 265.438 29.9255 266.388C31.4436 267.335 33.1163 268.129 34.9022 268.751L40.6675 270.987C41.6642 271.324 42.5832 271.779 43.3892 272.338C44.1509 272.958 44.7254 273.696 45.0726 274.502C45.4199 275.309 45.5315 276.162 45.3998 277.005C44.9555 278.692 43.1781 279.975 42.6116 281.629C41.9117 283.798 43.6558 286.119 46.1663 287.292C48.774 288.365 51.7506 288.806 54.6978 288.558C57.6416 288.431 60.552 287.984 63.4958 287.942C65.4875 287.834 67.478 288.165 69.2279 288.896C71.2039 289.983 72.6277 291.553 73.2603 293.343C73.6419 294.491 74.2485 295.59 75.0599 296.601C76.0603 297.562 77.4075 298.28 78.9368 298.668C81.8947 299.496 85.1436 299.496 88.1014 298.668C90.5342 297.96 91.7229 295.875 92.6338 294.069C93.544 292.178 93.9774 290.174 93.9113 288.161C93.7713 282.988 92.2324 277.892 89.3901 273.19C88.0237 271.03 86.0575 268.869 83.0359 268.126C82.0573 267.914 81.0581 267.762 80.0477 267.671Z" fill="#455A64"/>
<path d="M86.3581 290.862C86.2238 290.862 86.0927 290.831 85.9832 290.772C85.8736 290.713 85.7911 290.629 85.7471 290.533C78.8931 275.604 46.4669 262.615 34.6473 261.122C34.5635 261.111 34.4831 261.088 34.4109 261.054C34.3387 261.02 34.2761 260.975 34.2266 260.923C34.1771 260.87 34.1417 260.811 34.1224 260.748C34.1031 260.685 34.1003 260.62 34.1141 260.556C34.128 260.492 34.1582 260.431 34.2031 260.377C34.248 260.322 34.3067 260.274 34.3758 260.237C34.4449 260.199 34.5231 260.172 34.6059 260.157C34.6887 260.143 34.7745 260.141 34.8584 260.151C46.9446 261.67 80.015 274.945 87.069 290.204C87.0988 290.265 87.112 290.331 87.1079 290.396C87.1037 290.461 87.0824 290.525 87.0451 290.584C87.0079 290.643 86.9554 290.696 86.8908 290.74C86.8262 290.783 86.7508 290.816 86.6691 290.837C86.5693 290.863 86.4629 290.872 86.3581 290.862Z" fill="white"/>
<path d="M57.2083 282.676C57.0842 282.669 56.9658 282.634 56.8673 282.576C56.7688 282.518 56.6945 282.44 56.6534 282.35C56.6122 282.261 56.606 282.165 56.6355 282.073C56.665 281.981 56.7289 281.897 56.8195 281.832C62.1215 279.046 68.3916 277.516 74.8377 277.436C74.9954 277.451 75.1402 277.51 75.2452 277.601C75.3501 277.692 75.4079 277.808 75.4079 277.929C75.4079 278.05 75.3501 278.167 75.2452 278.258C75.1402 278.349 74.9954 278.407 74.8377 278.423C68.6718 278.536 62.6807 280.002 57.586 282.643C57.4671 282.682 57.3358 282.693 57.2083 282.676Z" fill="white"/>
<path d="M86.7144 302.408C86.0158 302.047 85.4387 301.567 85.0296 301.005C84.6205 300.444 84.3909 299.817 84.3594 299.176V123.308C84.4077 122.647 84.6602 122.003 85.0963 121.43C85.5325 120.857 86.14 120.37 86.8699 120.008L359.209 0.548515C359.933 0.2025 360.767 0.013076 361.622 0.000652976C362.477 -0.0117701 363.32 0.153279 364.061 0.478016C364.802 0.802753 365.412 1.27487 365.825 1.84349C366.239 2.41211 366.44 3.05568 366.408 3.70485V179.582C366.359 180.243 366.107 180.886 365.671 181.459C365.235 182.032 364.627 182.52 363.897 182.881L91.5578 302.341C90.8134 302.638 89.9877 302.8 89.1466 302.811C88.3056 302.823 87.4726 302.685 86.7144 302.408Z" fill="#455A64"/>
<path d="M91.0801 302.501H90.9801C90.9042 302.536 90.8218 302.562 90.7357 302.577H90.5469C90.4354 302.607 90.3199 302.627 90.2025 302.636C90.128 302.659 90.0494 302.674 89.9692 302.679L89.5915 302.721C88.6003 302.823 87.5918 302.69 86.7033 302.341C86.0057 301.982 85.4298 301.503 85.0224 300.943C84.615 300.382 84.3879 299.757 84.3594 299.117V145.85L89.0694 147.917V301.236C89.0694 302.079 89.636 302.603 90.458 302.603C90.5685 302.615 90.6808 302.615 90.7913 302.603C90.8938 302.58 90.9912 302.546 91.0801 302.501Z" fill="#BA68C8"/>
<path opacity="0.81" d="M91.0801 302.501H90.9801C90.9042 302.536 90.8218 302.562 90.7357 302.577H90.5469C90.4354 302.607 90.3199 302.627 90.2025 302.636C90.128 302.659 90.0494 302.674 89.9692 302.679L89.5915 302.721C88.6003 302.823 87.5918 302.69 86.7033 302.341C86.0057 301.982 85.4298 301.503 85.0224 300.943C84.615 300.382 84.3879 299.757 84.3594 299.117V145.85L89.0694 147.917V301.236C89.0694 302.079 89.636 302.603 90.458 302.603C90.5685 302.615 90.6808 302.615 90.7913 302.603C90.8938 302.58 90.9912 302.546 91.0801 302.501Z" fill="#E0E0E0"/>
<path d="M89.0577 147.917L84.3477 145.85V179.903L89.0577 181.987V147.917Z" fill="#BA68C8"/>
<path opacity="0.15" d="M89.0577 147.917L84.3477 145.85V179.903L89.0577 181.987V147.917Z" fill="black"/>
<path d="M89.78 123.493C89.3355 124.062 89.0871 124.706 89.058 125.367V147.917L84.3479 145.849V123.308C84.3424 123.232 84.3424 123.156 84.3479 123.08C84.3694 122.921 84.4028 122.763 84.4479 122.607C84.5863 122.194 84.7955 121.797 85.07 121.426L89.78 123.493Z" fill="#263238"/>
<path d="M366.408 3.71349V13.8914L166.775 101.45C165.397 102.058 164.275 101.56 164.275 100.353V96.4961C164.275 95.2892 163.164 94.8082 161.765 95.3989L100.967 122.076C100.237 122.438 99.6296 122.925 99.1935 123.498C98.7573 124.071 98.5049 124.715 98.4565 125.376V129.224C98.4094 129.884 98.1586 130.527 97.7245 131.1C97.2903 131.673 96.6849 132.161 95.9571 132.524L89.0586 135.579V125.452C89.1057 124.791 89.3565 124.149 89.7906 123.575C90.2248 123.002 90.8302 122.515 91.558 122.152L363.909 2.61637C365.286 2.00873 366.408 2.49822 366.408 3.71349Z" fill="#37474F"/>
<path d="M366.419 179.589C366.369 180.249 366.116 180.891 365.68 181.462C365.244 182.034 364.637 182.52 363.909 182.881L91.558 302.34C90.1806 302.939 89.0586 302.45 89.0586 301.235V135.578L95.9571 132.557C97.3345 131.949 99.5785 122.716 100.967 122.109L160.743 95.8877C162.131 95.28 165.397 102.099 166.775 101.491L366.408 13.8906V179.589H366.419Z" fill="#BA68C8"/>
<path opacity="0.9" d="M366.419 179.589C366.369 180.249 366.116 180.891 365.68 181.462C365.244 182.034 364.637 182.52 363.909 182.881L91.558 302.34C90.1806 302.939 89.0586 302.45 89.0586 301.235V135.578L95.9571 132.557C97.3345 131.949 99.5785 122.716 100.967 122.109L160.743 95.8877C162.131 95.28 165.397 102.099 166.775 101.491L366.408 13.8906V179.589H366.419Z" fill="white"/>
<g opacity="0.4">
<path d="M365.297 15.3506V179.589C365.243 180.096 365.039 180.587 364.701 181.025C364.362 181.464 363.898 181.838 363.342 182.121L91.0026 301.606C90.8345 301.692 90.6386 301.742 90.4361 301.75C90.1806 301.75 90.1695 301.328 90.1695 301.235V136.025L96.5125 133.24C97.4901 132.81 98.1121 131.333 99.5118 127.535C100.02 125.899 100.719 124.301 101.6 122.759L160.887 96.7569C161.597 97.4917 162.235 98.2645 162.798 99.0693C164.409 101.213 165.297 102.327 166.586 102.327C166.846 102.326 167.101 102.277 167.33 102.183L365.297 15.3506ZM366.408 13.8906L166.775 101.449C166.713 101.461 166.648 101.461 166.586 101.449C165.186 101.449 162.342 95.7695 160.932 95.7695C160.87 95.7574 160.805 95.7574 160.743 95.7695L100.967 122.075C99.5785 122.683 97.3345 131.915 95.9571 132.523L89.0586 135.578V301.235C89.0586 302.079 89.6251 302.593 90.4361 302.593C90.8284 302.581 91.2104 302.494 91.5469 302.34L363.909 182.881C364.637 182.52 365.244 182.034 365.68 181.462C366.116 180.891 366.369 180.249 366.419 179.589V13.8906H366.408Z" fill="#BA68C8"/>
</g>
<path d="M89.0586 147.917V181.987L366.408 60.3497V26.2715L89.0586 147.917Z" fill="#BA68C8"/>
<path d="M366.408 13.8906V26.2712L89.0586 147.916V135.578L94.2019 133.316C95.5794 132.709 96.0459 131.78 96.7013 130.017L98.4565 125.409C99.0008 123.805 99.5674 122.716 100.967 122.109L160.743 95.8877C162.131 95.28 163.22 95.2125 164.275 96.5375L166.419 99.4913C167.197 100.529 167.597 101.137 168.974 100.529L366.408 13.8906Z" fill="#F0F0F0"/>
<path d="M354.655 10.0926C356.4 9.33309 357.81 9.94916 357.81 11.4767C357.751 12.3085 357.434 13.1179 356.886 13.8393C356.338 14.5607 355.574 15.1738 354.655 15.6289C352.923 16.3884 351.512 15.7723 351.512 14.2448C351.572 13.4141 351.887 12.6057 352.433 11.8845C352.979 11.1634 353.74 10.5496 354.655 10.0926Z" fill="#BA68C8"/>
<path d="M343.323 15.0633C345.056 14.3038 346.467 14.9199 346.467 16.4474C346.407 17.2781 346.091 18.0865 345.545 18.8077C344.999 19.5288 344.238 20.1426 343.323 20.5996C341.579 21.3591 340.168 20.743 340.168 19.2155C340.227 18.3838 340.544 17.5743 341.092 16.8529C341.64 16.1315 342.404 15.5184 343.323 15.0633Z" fill="#BA68C8"/>
<path d="M331.96 20.036C333.692 19.2764 335.114 19.8925 335.114 21.4201C335.052 22.2513 334.735 23.06 334.187 23.7811C333.639 24.5022 332.876 25.1157 331.96 25.5722C330.215 26.3402 328.805 25.7157 328.805 24.1882C328.864 23.3564 329.181 22.547 329.729 21.8256C330.277 21.1042 331.041 20.4911 331.96 20.036Z" fill="#BA68C8"/>
<path opacity="0.5" d="M100.546 136.422L96.6139 138.11L98.1135 135.924C98.1729 135.842 98.2039 135.749 98.2039 135.654C98.2039 135.56 98.1729 135.467 98.1135 135.384C98.0025 135.283 97.8025 135.384 97.6692 135.545L95.5363 138.667C95.5317 138.707 95.5317 138.746 95.5363 138.785C95.5315 138.839 95.5315 138.892 95.5363 138.946C95.5296 138.993 95.5296 139.042 95.5363 139.089C95.5309 139.112 95.5309 139.134 95.5363 139.157L97.6692 140.406C97.7009 140.421 97.7374 140.429 97.7747 140.429C97.812 140.429 97.8486 140.421 97.8803 140.406C97.9821 140.343 98.0622 140.261 98.1135 140.169C98.2246 139.967 98.2135 139.739 98.1135 139.663L96.6139 138.819L100.546 137.131C100.649 137.071 100.732 136.992 100.788 136.903C100.844 136.814 100.872 136.715 100.868 136.616C100.868 136.422 100.724 136.355 100.546 136.422Z" fill="#455A64"/>
<path opacity="0.5" d="M103.832 134.988L107.764 133.3L106.265 132.456C106.131 132.38 106.12 132.152 106.265 131.95C106.409 131.747 106.576 131.638 106.709 131.714L108.842 132.963C108.87 132.978 108.893 132.998 108.908 133.022C108.92 133.066 108.92 133.112 108.908 133.157C108.92 133.21 108.92 133.264 108.908 133.317C108.908 133.317 108.908 133.317 108.908 133.359C108.891 133.4 108.869 133.44 108.842 133.477L106.709 136.566C106.663 136.642 106.59 136.706 106.498 136.752C106.467 136.775 106.425 136.788 106.381 136.788C106.338 136.788 106.296 136.775 106.265 136.752C106.202 136.67 106.169 136.577 106.169 136.482C106.169 136.387 106.202 136.294 106.265 136.212L107.764 134.018L103.832 135.748C103.654 135.824 103.521 135.748 103.521 135.511C103.514 135.412 103.538 135.312 103.592 135.221C103.647 135.13 103.729 135.05 103.832 134.988Z" fill="#455A64"/>
<path opacity="0.5" d="M116.707 126.381C116.707 126.204 116.474 126.229 116.374 126.423L115.83 127.427C114.907 127.352 113.797 128.027 113.041 129.242C112.075 130.803 112.075 132.618 113.041 133.369C113.279 133.537 113.586 133.638 113.91 133.653C114.234 133.669 114.556 133.598 114.819 133.453C115.604 133.053 116.218 132.487 116.585 131.824C116.646 131.745 116.679 131.655 116.679 131.563C116.679 131.471 116.646 131.38 116.585 131.301C116.452 131.208 116.252 131.301 116.129 131.495C115.407 132.66 114.219 133.183 113.497 132.651C112.775 132.12 112.764 130.736 113.497 129.563C114.008 128.719 114.752 128.238 115.407 128.212L114.996 128.963C114.896 129.158 114.996 129.343 115.152 129.259L116.763 128.466C116.824 128.423 116.872 128.371 116.903 128.312C116.934 128.254 116.947 128.191 116.94 128.128L116.707 126.381Z" fill="#455A64"/>
<path opacity="0.5" d="M159.021 101.501L160.454 99.1889C160.538 99.0801 160.582 98.9563 160.582 98.8302C160.582 98.7041 160.538 98.5803 160.454 98.4715C160.287 98.3534 160.01 98.4715 159.843 98.7416L158.41 101.046L156.966 99.999C156.799 99.8724 156.521 99.999 156.355 100.269C156.271 100.378 156.227 100.502 156.227 100.628C156.227 100.754 156.271 100.878 156.355 100.986L157.788 102.033L156.355 104.354C156.271 104.463 156.227 104.586 156.227 104.712C156.227 104.839 156.271 104.962 156.355 105.071C156.399 105.099 156.454 105.114 156.51 105.114C156.567 105.114 156.622 105.099 156.666 105.071C156.804 105.006 156.909 104.908 156.966 104.793L158.41 102.48L159.843 103.535C159.885 103.562 159.938 103.577 159.993 103.577C160.048 103.577 160.101 103.562 160.143 103.535C160.281 103.468 160.39 103.371 160.454 103.257C160.538 103.148 160.582 103.024 160.582 102.898C160.582 102.772 160.538 102.648 160.454 102.539L159.021 101.501Z" fill="#455A64"/>
<path d="M121.961 129.216V125.367C122.012 124.707 122.267 124.065 122.705 123.493C123.143 122.921 123.752 122.436 124.483 122.076L349.821 23.3351C351.21 22.7275 352.332 23.217 352.332 24.4322V28.23C352.284 28.8911 352.031 29.5342 351.595 30.1075C351.159 30.6807 350.551 31.1679 349.821 31.5298L124.483 130.321C123.083 130.929 121.961 130.431 121.961 129.216Z" fill="white"/>
<path d="M346.388 31.7753C346.329 31.7842 346.269 31.7842 346.21 31.7753C346.092 31.7306 345.998 31.6573 345.941 31.5671C345.885 31.4768 345.87 31.3749 345.899 31.2774L346.143 29.6823L345.121 29.1253C345.048 29.0849 344.99 29.0313 344.951 28.9694C344.913 28.9076 344.895 28.8393 344.899 28.7709C344.9 28.6548 344.934 28.5402 344.999 28.4352C345.064 28.3302 345.159 28.2374 345.277 28.1633L346.743 27.3193C346.792 27.2856 346.827 27.2415 346.843 27.1927L347.499 25.5555C347.536 25.4361 347.617 25.3273 347.733 25.242C347.85 25.1567 347.996 25.0986 348.154 25.0744C348.253 25.0719 348.351 25.0913 348.436 25.1302C348.521 25.1692 348.589 25.226 348.632 25.2939L349.22 26.256L350.553 25.8677C350.647 25.8373 350.751 25.8298 350.851 25.8465C350.95 25.8631 351.041 25.903 351.109 25.9606C351.196 26.0622 351.243 26.181 351.243 26.3024C351.243 26.4238 351.196 26.5426 351.109 26.6442L349.998 28.1633C349.986 28.2078 349.986 28.2537 349.998 28.2983L350.253 29.6739C350.269 29.7865 350.251 29.9002 350.201 30.0068C350.151 30.1134 350.07 30.2101 349.965 30.29C349.906 30.3435 349.83 30.3854 349.745 30.4118C349.66 30.4383 349.567 30.4486 349.476 30.4419L348.154 30.3153L346.876 31.615C346.815 31.6666 346.739 31.7076 346.655 31.7353C346.571 31.7629 346.479 31.7766 346.388 31.7753ZM345.543 28.6781L346.565 29.2351C346.651 29.2896 346.716 29.3607 346.753 29.4409C346.791 29.5211 346.798 29.6074 346.776 29.6908L346.654 31.0073L347.765 29.944C347.829 29.8754 347.914 29.8202 348.013 29.7833C348.112 29.7464 348.222 29.7291 348.332 29.733L349.654 29.8596C349.654 29.8596 349.709 29.7245 349.654 29.657L349.398 28.2814C349.38 28.1291 349.423 27.9763 349.52 27.8426L350.631 26.3235L349.409 26.6779C349.351 26.6973 349.288 26.7076 349.225 26.7084C349.161 26.7091 349.098 26.7001 349.039 26.682C348.98 26.6639 348.926 26.6371 348.881 26.6031C348.836 26.569 348.8 26.5285 348.776 26.4838L348.232 25.6399L347.576 27.2771C347.522 27.4276 347.405 27.5608 347.243 27.6569L345.777 28.5008C345.673 28.5364 345.59 28.5994 345.543 28.6781Z" fill="#E0E0E0"/>
<g opacity="0.5">
<path d="M355.266 22.8137C355.074 22.8152 354.886 22.768 354.733 22.6796C354.58 22.5911 354.47 22.4665 354.42 22.3253C354.37 22.1841 354.384 22.0344 354.459 21.8997C354.533 21.7651 354.665 21.6531 354.833 21.5815L361.876 18.4927C361.974 18.4489 362.083 18.4203 362.196 18.4085C362.309 18.3967 362.424 18.4019 362.534 18.4238C362.645 18.4458 362.748 18.484 362.839 18.5364C362.93 18.5888 363.007 18.6542 363.064 18.729C363.122 18.8038 363.16 18.8865 363.175 18.9724C363.191 19.0583 363.184 19.1456 363.155 19.2295C363.126 19.3133 363.076 19.392 363.007 19.4611C362.938 19.5302 362.852 19.5883 362.753 19.632L355.699 22.7293C355.567 22.7857 355.418 22.8148 355.266 22.8137Z" fill="#455A64"/>
<path d="M355.267 25.9098C355.114 25.9096 354.964 25.8792 354.832 25.8215C354.699 25.7637 354.589 25.6808 354.512 25.5807C354.454 25.5054 354.417 25.4223 354.402 25.336C354.387 25.2498 354.395 25.1621 354.425 25.0781C354.455 24.9942 354.506 24.9155 354.576 24.8468C354.647 24.7781 354.734 24.7206 354.834 24.6777L361.877 21.5804C362.075 21.5112 362.3 21.5006 362.508 21.5507C362.716 21.6008 362.892 21.708 363.002 21.8514C363.111 21.9947 363.147 22.164 363.101 22.3261C363.055 22.4883 362.932 22.6316 362.754 22.7282L355.7 25.817C355.569 25.876 355.42 25.908 355.267 25.9098Z" fill="#455A64"/>
<path d="M355.266 28.9992C355.113 28.999 354.963 28.9686 354.831 28.9109C354.699 28.8531 354.588 28.7701 354.511 28.6701C354.454 28.5955 354.417 28.513 354.402 28.4273C354.387 28.3417 354.395 28.2547 354.425 28.1714C354.455 28.0882 354.506 28.0103 354.576 27.9423C354.647 27.8743 354.734 27.8176 354.833 27.7755L361.876 24.6783C361.974 24.6345 362.083 24.6059 362.196 24.5941C362.309 24.5822 362.424 24.5874 362.535 24.6094C362.645 24.6313 362.749 24.6696 362.839 24.7219C362.93 24.7743 363.007 24.8398 363.064 24.9146C363.122 24.9894 363.16 25.0721 363.175 25.1579C363.191 25.2438 363.184 25.3312 363.155 25.415C363.126 25.4989 363.076 25.5776 363.007 25.6466C362.938 25.7157 362.852 25.7738 362.753 25.8176L355.699 28.9148C355.567 28.9713 355.418 29.0004 355.266 28.9992Z" fill="#455A64"/>
</g>
<path d="M89.0577 135.536V147.916L84.3477 145.849V133.477L89.0577 135.536Z" fill="#E0E0E0"/>
<path opacity="0.1" d="M101.089 190.021L177.795 156.373V251.375L100.867 284.93L101.089 190.021Z" fill="#BA68C8"/>
<path opacity="0.15" d="M194.703 150.71L287.238 110.125C289.104 109.281 290.571 109.923 290.571 111.501C290.501 112.374 290.163 113.223 289.585 113.979C289.006 114.735 288.202 115.378 287.238 115.856L194.692 156.896C192.837 157.74 191.359 157.065 191.359 155.436V155.141C191.422 154.255 191.757 153.393 192.338 152.623C192.918 151.854 193.729 151.199 194.703 150.71Z" fill="#BA68C8"/>
<path opacity="0.1" d="M193.735 163.007L346.857 95.8461C348.19 95.2637 349.268 95.6773 349.268 96.7659C349.209 97.3808 348.96 97.9764 348.541 98.5043C348.122 99.0322 347.545 99.4776 346.857 99.8041L193.735 166.965C192.413 167.547 191.336 167.134 191.336 166.045C191.394 165.431 191.642 164.836 192.059 164.308C192.475 163.781 193.05 163.335 193.735 163.007Z" fill="#BA68C8"/>
<path opacity="0.1" d="M193.735 170.956L346.857 103.795C348.19 103.213 349.268 103.626 349.268 104.715C349.209 105.33 348.96 105.926 348.541 106.454C348.122 106.981 347.545 107.427 346.857 107.753L193.735 174.914C192.413 175.496 191.336 175.083 191.336 173.986C191.396 173.373 191.644 172.78 192.061 172.254C192.478 171.728 193.051 171.283 193.735 170.956Z" fill="#BA68C8"/>
<path opacity="0.1" d="M193.735 178.899L346.857 111.738C348.19 111.156 349.268 111.57 349.268 112.667C349.207 113.28 348.957 113.874 348.539 114.4C348.12 114.927 347.544 115.371 346.857 115.696L193.735 182.84C192.413 183.423 191.336 183.009 191.336 181.912C191.401 181.303 191.652 180.713 192.068 180.191C192.485 179.668 193.055 179.225 193.735 178.899Z" fill="#BA68C8"/>
<path opacity="0.1" d="M193.735 186.848L346.857 119.688C348.19 119.106 349.268 119.519 349.268 120.608C349.209 121.223 348.96 121.818 348.541 122.346C348.122 122.874 347.545 123.319 346.857 123.646L193.735 190.807C192.413 191.389 191.336 190.975 191.336 189.887C191.394 189.273 191.642 188.678 192.059 188.15C192.475 187.622 193.05 187.176 193.735 186.848Z" fill="#BA68C8"/>
<path opacity="0.1" d="M193.735 194.798L300.578 147.537C301.9 146.955 302.978 147.368 302.978 148.466C302.918 149.078 302.669 149.671 302.253 150.197C301.836 150.724 301.262 151.168 300.578 151.495L193.735 198.756C192.413 199.338 191.336 198.925 191.336 197.828C191.396 197.215 191.644 196.622 192.061 196.096C192.478 195.569 193.051 195.125 193.735 194.798Z" fill="#BA68C8"/>
<path opacity="0.1" d="M193.735 210.688L346.857 143.528C348.19 142.945 349.268 143.359 349.268 144.448C349.209 145.062 348.96 145.658 348.541 146.186C348.122 146.714 347.545 147.159 346.857 147.486L193.735 214.646C192.413 215.229 191.336 214.815 191.336 213.726C191.394 213.113 191.642 212.518 192.059 211.99C192.475 211.462 193.05 211.016 193.735 210.688Z" fill="#BA68C8"/>
<path opacity="0.1" d="M193.735 218.639L346.857 151.479C348.19 150.897 349.268 151.31 349.268 152.399C349.209 153.014 348.96 153.609 348.541 154.137C348.122 154.665 347.545 155.11 346.857 155.437L193.735 222.598C192.413 223.18 191.336 222.766 191.336 221.669C191.396 221.057 191.644 220.464 192.061 219.937C192.478 219.411 193.051 218.967 193.735 218.639Z" fill="#BA68C8"/>
<path opacity="0.1" d="M193.735 226.581L346.857 159.42C348.19 158.838 349.268 159.251 349.268 160.348C349.207 160.962 348.957 161.556 348.539 162.082C348.12 162.608 347.544 163.052 346.857 163.378L193.735 230.547C192.413 231.129 191.336 230.716 191.336 229.619C191.396 229.005 191.644 228.411 192.061 227.883C192.478 227.356 193.051 226.91 193.735 226.581Z" fill="#BA68C8"/>
<path opacity="0.1" d="M193.736 234.531L250.012 209.584C251.334 209.002 252.412 209.415 252.412 210.512C252.352 211.125 252.103 211.718 251.687 212.244C251.27 212.77 250.696 213.215 250.012 213.542L193.747 238.489C192.425 239.071 191.348 238.658 191.348 237.569C191.405 236.956 191.651 236.362 192.065 235.834C192.48 235.306 193.053 234.86 193.736 234.531Z" fill="#BA68C8"/>
<path d="M398.357 188.916C406.499 168.847 414.42 155.622 406.344 151.529C398.835 152.593 395.469 155.42 393.869 162.948C392.192 170.839 388.703 181.844 386.671 188.19C384.913 193.494 382.399 198.636 379.172 203.524C378.686 204.201 377.898 204.725 376.95 205.001C374.44 205.752 373.24 206.689 371.196 207.837C369.585 208.681 368.408 208.799 368.486 209.162C368.618 209.569 368.954 209.921 369.424 210.142C369.893 210.363 370.458 210.435 370.996 210.343C372.203 210.17 373.378 209.887 374.495 209.499C373.535 211.349 372.039 213.01 370.119 214.361C366.175 216.892 366.786 219.365 373.107 219.652C375.329 219.753 380.627 218.184 385.504 211.879C387.153 209.53 388.604 207.103 389.848 204.613C393.247 198.148 396.724 192.967 398.357 188.916Z" fill="#FFA8A7"/>
<path d="M407.754 151.293C407.754 151.293 401.488 151.049 397.689 154.23C393.89 157.412 389.469 176.417 389.469 176.417C389.469 176.417 393.623 180.755 404.577 178.949L407.754 151.293Z" fill="#BA68C8"/>
<path opacity="0.3" d="M407.754 151.293C407.754 151.293 401.488 151.049 397.689 154.23C393.89 157.412 389.469 176.417 389.469 176.417C389.469 176.417 393.623 180.755 404.577 178.949L407.754 151.293Z" fill="black"/>
<path d="M437.093 286.121H428.684V297.514H437.093V286.121Z" fill="#FFA8A7"/>
<path d="M407.933 285.512L399.524 285.749L399.102 273.689L407.933 273.461V285.512Z" fill="#FFA8A7"/>
<path d="M438.283 187.48C438.283 193.835 437.05 244.978 437.05 244.978C437.238 246.809 439.405 250.185 438.938 257.206C438.305 266.743 437.45 291.808 437.45 291.808C436.006 292.372 434.413 292.679 432.79 292.706C431.168 292.732 429.558 292.477 428.085 291.96C428.085 291.96 420.131 257.232 418.631 247.771C417.31 239.526 415.077 211.743 415.077 211.743L410.522 244.041C411.493 247.517 411.844 251.077 411.566 254.624C411.166 258.996 408.467 281.773 408.467 281.773C407.013 282.424 405.383 282.815 403.701 282.916C402.019 283.017 400.328 282.825 398.758 282.356C398.758 282.356 393.97 248.058 393.87 244.041C393.759 239.467 396.67 187.404 396.67 187.404L438.283 187.48Z" fill="#37474F"/>
<path d="M428.683 294.24V293.286C427.872 293.565 426.006 299.194 422.673 301.624C420.018 303.532 416.397 305.743 415.475 307.878C414.553 310.013 420.518 311.33 422.995 310.984C425.873 310.579 430.871 308.975 432.116 307.481C433.36 305.988 433.96 303.802 434.982 302.713C436.004 301.624 438.314 300.409 438.892 299.143C439.203 298.451 438.892 296.932 438.414 295.649C437.937 294.367 437.603 293.177 437.092 293.286V294.012C435.913 294.755 434.425 295.156 432.893 295.143C431.66 295.168 428.672 294.974 428.683 294.24Z" fill="#263238"/>
<path d="M399.434 283.69C399.001 283.69 398.646 284.188 397.679 285.015C396.252 286.159 394.58 287.111 392.736 287.833C389.581 289.082 383.46 290.998 380.683 291.986C378.961 292.602 379.039 294.256 380.827 295.201C382.616 296.146 386.937 296.821 392.125 295.901C394.946 295.403 398.635 293.37 400.956 293.446C403.278 293.521 407.621 293.538 409.366 292.602C411.11 291.665 410.399 289.665 409.91 287.943C409.377 286.07 408.721 283.141 407.932 283.268V283.917C406.922 285.124 401.701 285.605 399.479 284.761L399.434 283.69Z" fill="#263238"/>
<path d="M415.076 211.752C410.699 210.667 406.698 208.85 403.367 206.436C403.367 206.436 405.589 209.811 412.343 212.9L410.91 241.746L415.076 211.752Z" fill="#263238"/>
<path d="M433.906 152.812C433.906 152.812 440.483 153.276 440.016 162.796L438.561 177.987V200.773C432.373 206.099 404.957 205.702 395.57 200.343C395.57 200.343 396.626 173.396 397.259 163.024C397.714 155.656 399.947 151.943 409.478 151.133L421.198 151.521L433.906 152.812Z" fill="#BA68C8"/>
<path opacity="0.3" d="M415.209 157.809L413.698 165.809L410.188 165.758L414.153 166.24L415.209 157.809Z" fill="black"/>
<path d="M423.986 131.359C424.054 133.935 422.774 136.426 420.427 138.285C418.08 140.144 414.857 141.22 411.466 141.275C404.546 141.275 399.247 136.828 398.936 131.367C398.392 121.687 404.546 121.451 411.466 121.451C414.855 121.507 418.076 122.581 420.423 124.438C422.77 126.296 424.051 128.785 423.986 131.359Z" fill="#263238"/>
<path d="M431.082 136.262C431.082 136.262 429.161 143.401 428.394 144.575C427.898 145.29 427.053 145.83 426.039 146.077L426.172 141.055L431.082 136.262Z" fill="#263238"/>
<path d="M428.708 126.034C428.708 126.034 430.085 125.772 431.551 127.51C432.807 128.996 433.095 132.338 431.118 136.262L427.508 136.591L428.708 126.034Z" fill="#263238"/>
<path d="M426.419 136.593C427.141 136.939 428.175 135.833 429.074 135.09C429.974 134.348 432.885 133.344 434.351 135.766C435.817 138.188 433.062 141.513 430.763 142.087C426.797 143.074 426.208 141.057 426.208 141.057L425.897 152.366C420.643 158.552 408.723 158.324 413.011 152.071V148.627C411.246 148.85 409.454 148.924 407.668 148.847C404.758 148.484 402.925 146.669 402.036 144.171C400.614 140.163 400.081 136.93 401.281 129.039C402.614 120.389 415.322 120.313 422.198 123.765C429.074 127.217 426.419 136.593 426.419 136.593Z" fill="#FFA8A7"/>
<path d="M425.961 149.833C424.739 151.734 422.983 153.407 420.818 154.737C418.978 155.769 416.842 156.458 414.586 156.745C416.448 157.703 417.973 158.993 419.029 160.501C420.351 162.695 429.605 156.644 429.516 152.348C429.516 152.348 428.072 148.036 426.072 147.766L425.961 149.833Z" fill="#263238"/>
<path d="M414.588 156.744C414.588 156.744 411.733 155.672 413.011 152.068V148.625L411.755 148.752C410.293 149.835 409.254 151.205 408.756 152.71C408.467 153.697 407.756 158.693 409.012 159.681C410.267 160.668 412.022 157.014 414.588 156.744Z" fill="#263238"/>
<path d="M421.552 127.139C421.877 127.085 422.215 127.1 422.529 127.182C423.64 127.553 423.84 130.102 424.029 130.836C424.662 133.309 425.195 137.503 426.417 137.52C426.784 137.52 428.173 135.705 429.072 135.055C430.328 134.152 428.706 126 428.706 126C429.037 125.296 429.1 124.535 428.888 123.805C428.675 123.075 428.197 122.406 427.506 121.873C425.284 119.915 421.707 119.476 418.475 119.341C414.664 119.181 410.799 119.4 407.044 118.767C405.864 118.518 404.666 118.324 403.456 118.185C403.405 118.169 403.35 118.16 403.295 118.16C403.239 118.16 403.185 118.169 403.134 118.185C403.012 118.261 403.034 118.405 403.067 118.523C403.302 119.377 403.699 120.202 404.245 120.97C402.009 120.836 399.803 120.505 397.668 119.983C397.545 119.954 397.414 119.954 397.291 119.983C397.035 120.042 396.991 120.295 397.013 120.498C397.157 122.54 398.435 125.629 400.623 126.827C402.563 127.792 404.815 128.332 407.133 128.388C413.02 128.557 416.642 127.612 421.552 127.139Z" fill="#263238"/>
<path d="M428.706 126.464L433.094 124.599C432.96 124.369 432.764 124.163 432.519 123.995C432.275 123.826 431.986 123.697 431.673 123.618C431.359 123.539 431.027 123.51 430.698 123.533C430.369 123.557 430.05 123.632 429.761 123.755C429.177 124.029 428.747 124.456 428.552 124.956C428.357 125.456 428.412 125.993 428.706 126.464Z" fill="#263238"/>
<path d="M413.02 148.626C413.02 148.626 419.518 147.588 421.795 146.634C423.145 146.071 424.24 145.212 424.939 144.17C424.6 145.218 423.993 146.204 423.151 147.073C421.495 148.761 413.02 149.993 413.02 149.993V148.626Z" fill="#F28F8F"/>
<path d="M414.588 135.309C414.612 135.499 414.708 135.68 414.864 135.83C415.021 135.979 415.231 136.091 415.469 136.152C415.708 136.213 415.965 136.22 416.208 136.172C416.452 136.124 416.672 136.023 416.842 135.882C417.011 135.741 417.123 135.566 417.164 135.377C417.206 135.188 417.174 134.995 417.073 134.82C416.972 134.645 416.806 134.496 416.596 134.391C416.385 134.286 416.14 134.229 415.888 134.229C415.708 134.233 415.532 134.264 415.369 134.321C415.206 134.378 415.059 134.46 414.938 134.56C414.817 134.661 414.723 134.779 414.663 134.908C414.603 135.036 414.578 135.173 414.588 135.309Z" fill="#263238"/>
<path d="M416.641 131.038L419.429 132.253C419.63 131.961 419.684 131.622 419.58 131.302C419.475 130.982 419.22 130.701 418.862 130.514C418.676 130.424 418.465 130.365 418.246 130.342C418.026 130.32 417.803 130.334 417.592 130.384C417.38 130.434 417.185 130.518 417.021 130.631C416.857 130.744 416.727 130.883 416.641 131.038Z" fill="#263238"/>
<path d="M413.61 142.432L410.633 143.276C410.692 143.431 410.792 143.576 410.927 143.7C411.063 143.825 411.23 143.927 411.42 144.001C411.609 144.075 411.817 144.118 412.029 144.128C412.241 144.138 412.454 144.115 412.655 144.06C413.05 143.926 413.367 143.686 413.543 143.385C413.72 143.085 413.743 142.745 413.61 142.432Z" fill="#F28F8F"/>
<path d="M402.623 131.941L405.166 130.388C405.052 130.252 404.9 130.136 404.722 130.048C404.544 129.96 404.343 129.901 404.133 129.877C403.923 129.852 403.708 129.861 403.504 129.905C403.299 129.948 403.108 130.023 402.945 130.127C402.605 130.345 402.384 130.652 402.325 130.987C402.265 131.322 402.371 131.662 402.623 131.941Z" fill="#263238"/>
<path d="M403.743 135.014C403.736 135.149 403.764 135.283 403.825 135.41C403.887 135.536 403.98 135.653 404.101 135.751C404.222 135.85 404.368 135.93 404.529 135.986C404.691 136.042 404.866 136.073 405.043 136.077C405.417 136.077 405.776 135.964 406.041 135.763C406.305 135.562 406.454 135.29 406.454 135.005C406.454 134.721 406.305 134.449 406.041 134.248C405.776 134.047 405.417 133.934 405.043 133.934C404.684 133.949 404.346 134.07 404.103 134.272C403.86 134.474 403.731 134.74 403.743 135.014Z" fill="#263238"/>
<path d="M410.723 134.188L410.567 140.441L405.891 139.622L410.723 134.188Z" fill="#F28F8F"/>
<path d="M446.703 140.473C448.581 138.583 452.38 142.777 454.135 145.672C455.89 148.566 455.924 150.204 454.479 151.351C453.035 152.499 450.314 151.807 447.592 149.064C444.871 146.322 445.626 141.866 446.703 140.473Z" fill="#BA68C8"/>
<path opacity="0.5" d="M446.703 140.473C448.581 138.583 452.38 142.777 454.135 145.672C455.89 148.566 455.924 150.204 454.479 151.351C453.035 152.499 450.314 151.807 447.592 149.064C444.871 146.322 445.626 141.866 446.703 140.473Z" fill="black"/>
<path d="M459.966 141.031C453.301 152.846 444.025 159.504 439.859 167.108C434.405 166.83 430.151 156.812 434.216 152.533C434.216 152.533 450.191 139.393 451.635 134.228C452.923 129.646 454.645 122.084 454.501 118.194C454.443 117.56 454.093 116.962 453.512 116.506C451.835 115.13 451.835 114.033 450.757 112.522C449.924 111.341 449.002 110.902 449.269 110.632C449.614 110.351 450.086 110.18 450.59 110.151C451.095 110.123 451.594 110.241 451.99 110.48C452.761 110.908 453.452 111.414 454.045 111.982C454.251 110.465 453.925 108.934 453.101 107.543C451.246 104.353 451.701 102.733 457.356 103.864C460.91 104.581 463.132 106.826 463.665 113.299C463.912 115.993 463.934 118.696 463.732 121.392C463.11 126.38 462.721 131.578 461.91 135.739C461.56 137.558 460.907 139.337 459.966 141.031Z" fill="#FFA8A7"/>
<path d="M432.549 152.677L446.635 140.439C446.635 140.439 444.957 143.419 448.623 147.765C452.289 152.111 454.466 151.352 454.466 151.352C454.466 151.352 446.146 160.576 443.924 163.665C441.702 166.753 439.381 169.361 439.381 169.361C439.135 169.722 438.753 170.018 438.284 170.212C437.815 170.406 437.28 170.489 436.748 170.45C434.682 170.45 429.205 163.479 432.549 152.677Z" fill="#BA68C8"/>
<path opacity="0.3" d="M432.549 152.677L446.635 140.439C446.635 140.439 444.957 143.419 448.623 147.765C452.289 152.111 454.466 151.352 454.466 151.352C454.466 151.352 446.146 160.576 443.924 163.665C441.702 166.753 439.381 169.361 439.381 169.361C439.135 169.722 438.753 170.018 438.284 170.212C437.815 170.406 437.28 170.489 436.748 170.45C434.682 170.45 429.205 163.479 432.549 152.677Z" fill="black"/>
<path d="M318.241 180.182L324.873 186.891L317.742 193.094L308.555 184.933L318.241 180.182Z" fill="#F28F8F"/>
<path d="M296.523 164.922C302.311 165.124 305.066 165.766 308.099 168.517C311.131 171.268 326.283 187.902 326.283 187.902C326.283 187.902 323.606 193.607 317.741 193.118L307.088 184.771L296.523 164.922Z" fill="#455A64"/>
<path d="M268.132 304.273C267.72 306.023 267.497 307.796 267.465 309.573C267.387 312.78 266.61 313.928 266.51 316.561C266.388 319.574 267.076 320.705 268.732 322.393C270.387 324.081 274.564 325.625 276.352 322.764C278.141 319.903 277.907 318.03 277.33 315.067C276.752 312.105 276.663 310.324 276.33 307.995C276.019 305.936 275.663 304.375 275.663 304.375L268.132 304.273Z" fill="#263238"/>
<path d="M280.141 279.048L266.199 278.854C266.41 285.926 267.888 297.69 268.132 304.315C268.132 305.564 268.132 314.012 268.71 316.586C269.643 320.443 275.664 319.92 275.986 317.616C276.308 315.312 275.597 305.438 275.619 304.416C275.564 300.197 278.185 289.074 279.563 281.436C279.63 281.022 280.074 279.368 280.141 279.048Z" fill="#FFBDA7"/>
<path d="M300.612 298.779C300.612 298.779 299.901 298.779 299.779 299.252C299.657 299.725 299.613 300.619 299.324 301.497C298.85 302.873 298.685 304.299 298.835 305.716C299.068 306.704 302.034 308.172 304.067 308.434C306.1 308.696 308.955 310.215 310.543 311.354C313.094 312.954 316.25 313.894 319.553 314.038C322.885 314.038 325.296 313.194 326.407 311.81C327.517 310.426 325.396 310.265 321.53 308.358L318.519 306.873C312.399 303.834 310.155 302.206 308.422 299.168L300.612 298.779Z" fill="#263238"/>
<path d="M308.468 297.126C308.368 294.932 309.834 278.812 309.834 278.812L297.848 279.842C300.691 292.687 300.914 297.067 300.591 298.94C300.531 299.114 300.505 299.293 300.514 299.472C300.514 302.004 304.235 303.32 307.179 304.983C308.29 305.641 311.256 307.667 314.699 308.553C316.921 309.135 321.043 309.397 321.565 308.325C318.054 306.283 313.255 303.616 310.456 301.278C309.078 300.147 308.567 299.303 308.468 297.126Z" fill="#FFBDA7"/>
<path d="M269.431 205.928C262.899 216.781 269.675 254.995 269.675 254.995C269.475 256.759 266.82 260.219 265.843 267.975C264.676 277.123 267.987 301.639 267.987 301.639C269.154 302.177 270.487 302.472 271.852 302.494C273.217 302.517 274.566 302.265 275.763 301.766C275.763 301.766 284.194 265.747 285.761 256.649C287.082 248.699 289.615 231.23 289.615 231.23L296.814 256.598C295.758 259.16 294.992 261.786 294.525 264.447C293.848 269.798 300.713 296.677 300.713 296.677C301.95 297.065 303.279 297.255 304.617 297.235C305.955 297.214 307.273 296.984 308.489 296.559C308.489 296.559 311.521 261.839 312.166 255.392C313.277 244.555 309.444 210.756 306.834 204.342L269.431 205.928Z" fill="#BA68C8"/>
<path opacity="0.5" d="M269.431 205.928C262.899 216.781 269.675 254.995 269.675 254.995C269.475 256.759 266.82 260.219 265.843 267.975C264.676 277.123 267.987 301.639 267.987 301.639C269.154 302.177 270.487 302.472 271.852 302.494C273.217 302.517 274.566 302.265 275.763 301.766C275.763 301.766 284.194 265.747 285.761 256.649C287.082 248.699 289.615 231.23 289.615 231.23L296.814 256.598C295.758 259.16 294.992 261.786 294.525 264.447C293.848 269.798 300.713 296.677 300.713 296.677C301.95 297.065 303.279 297.255 304.617 297.235C305.955 297.214 307.273 296.984 308.489 296.559C308.489 296.559 311.521 261.839 312.166 255.392C313.277 244.555 309.444 210.756 306.834 204.342L269.431 205.928Z" fill="black"/>
<path opacity="0.2" d="M289.594 231.232L291.716 221.155C291.716 221.155 300.691 219.746 304.768 216.834C301.957 219.339 298.278 221.195 294.148 222.193L291.76 229.957L295.937 253.444L289.594 231.232Z" fill="black"/>
<path d="M272.785 172.232L281.672 173.987V159.7C276.762 158.729 272.785 160.881 272.785 164.51V172.232Z" fill="#BA68C8"/>
<path opacity="0.6" d="M272.785 172.232L281.672 173.987V159.7C276.762 158.729 272.785 160.881 272.785 164.51V172.232Z" fill="black"/>
<path d="M290.383 161.741L287.195 161.69C277.464 161.513 269.754 155.141 269.965 147.445C269.965 139.056 278.519 132.254 289.116 132.178C299.714 132.136 308.357 138.929 308.412 147.284V148.128C308.146 155.834 300.092 161.901 290.383 161.741Z" fill="#BA68C8"/>
<path opacity="0.6" d="M290.383 161.741L287.195 161.69C277.464 161.513 269.754 155.141 269.965 147.445C269.965 139.056 278.519 132.254 289.116 132.178C299.714 132.136 308.357 138.929 308.412 147.284V148.128C308.146 155.834 300.092 161.901 290.383 161.741Z" fill="black"/>
<path d="M275.484 135.681C275.406 135.436 275.263 135.206 275.063 135.005C274.864 134.804 274.612 134.637 274.323 134.513C274.034 134.389 273.715 134.312 273.385 134.287C273.056 134.261 272.722 134.288 272.407 134.364L273.262 136.896C273.085 136.725 272.866 136.582 272.618 136.474C272.33 136.35 272.01 136.274 271.681 136.249C271.351 136.225 271.019 136.254 270.705 136.333C270.39 136.413 270.102 136.542 269.857 136.711C269.613 136.881 269.418 137.087 269.285 137.318L273.618 139.251C273.843 138.921 273.943 138.549 273.906 138.179C274.526 137.981 275.03 137.618 275.32 137.158C275.611 136.697 275.669 136.172 275.484 135.681Z" fill="#BA68C8"/>
<path opacity="0.6" d="M275.484 135.681C275.406 135.436 275.263 135.206 275.063 135.005C274.864 134.804 274.612 134.637 274.323 134.513C274.034 134.389 273.715 134.312 273.385 134.287C273.056 134.261 272.722 134.288 272.407 134.364L273.262 136.896C273.085 136.725 272.866 136.582 272.618 136.474C272.33 136.35 272.01 136.274 271.681 136.249C271.351 136.225 271.019 136.254 270.705 136.333C270.39 136.413 270.102 136.542 269.857 136.711C269.613 136.881 269.418 137.087 269.285 137.318L273.618 139.251C273.843 138.921 273.943 138.549 273.906 138.179C274.526 137.981 275.03 137.618 275.32 137.158C275.611 136.697 275.669 136.172 275.484 135.681Z" fill="black"/>
<path d="M280.739 165.504C277.747 165.812 274.78 166.246 271.852 166.804C275.295 173.218 269.897 183.126 269.897 183.126L274.996 195.05C271.474 200.528 268.575 203.245 267.375 207.709C270.619 212.52 293.514 217.111 308.421 208.342C308.421 208.342 307.944 196.164 306.044 189.067C310.921 181.834 310.132 179.708 309.132 177.184C306.811 171.319 302.123 169.066 296.535 164.93L293.203 164.66L280.739 165.504Z" fill="#37474F"/>
<path d="M275.561 199.829C278.328 197.677 284.193 197.061 284.193 197.061L278.805 194.732L272.784 183.685C275.311 179.925 276.56 175.744 276.417 171.524L272.951 170.891C273.373 176.739 269.885 183.136 269.885 183.136L274.984 195.061C271.462 200.538 268.563 203.256 267.363 207.72C269.585 211.011 281.016 214.202 292.791 213.071C277.017 212.26 272.906 201.914 275.561 199.829Z" fill="#263238"/>
<path d="M291.504 213.162L292.148 213.111C291.932 213.114 291.716 213.131 291.504 213.162Z" fill="#E6E6E6"/>
<path d="M301.256 139.654C303.167 140.988 305.555 143.874 305.367 152.313C305.2 159.487 302.278 161.268 300.801 161.782C299.323 162.297 296.491 162.002 293.725 161.647V164.618C293.725 164.618 297.368 167.69 297.146 169.682C296.924 171.673 291.947 172.475 288.359 170.526C285.831 169.071 283.587 167.352 281.694 165.42V156.398C281.694 156.398 280.072 157.655 277.251 155.765C275.029 154.195 274.185 151.545 275.951 150.111C276.404 149.771 276.961 149.521 277.571 149.383C278.181 149.245 278.827 149.223 279.451 149.319C280.075 149.414 280.659 149.625 281.151 149.933C281.643 150.24 282.028 150.634 282.272 151.081C286.505 150.745 290.627 149.842 294.447 148.414C296.595 147.629 298.388 146.378 299.6 144.819C300.812 143.26 301.389 141.462 301.256 139.654Z" fill="#FFBDA7"/>
<path d="M293.714 150.704C293.713 150.867 293.65 151.028 293.531 151.165C293.413 151.302 293.244 151.409 293.046 151.475C292.848 151.54 292.63 151.56 292.417 151.533C292.204 151.505 292.007 151.431 291.848 151.32C291.69 151.209 291.578 151.065 291.525 150.906C291.473 150.747 291.483 150.579 291.553 150.425C291.624 150.27 291.752 150.134 291.923 150.033C292.094 149.933 292.299 149.873 292.514 149.86C292.819 149.855 293.115 149.94 293.338 150.098C293.562 150.255 293.697 150.472 293.714 150.704Z" fill="#263238"/>
<path d="M294.145 156.678L297.111 157.412C297.064 157.566 296.976 157.711 296.852 157.838C296.728 157.965 296.571 158.071 296.391 158.15C296.211 158.229 296.011 158.279 295.805 158.298C295.598 158.316 295.389 158.302 295.19 158.256C294.786 158.141 294.454 157.915 294.26 157.622C294.067 157.33 294.026 156.992 294.145 156.678Z" fill="#F79776"/>
<path d="M304.445 147.47L301.746 146.769C301.789 146.633 301.869 146.504 301.981 146.392C302.093 146.28 302.235 146.187 302.397 146.12C302.559 146.052 302.739 146.011 302.923 146C303.107 145.988 303.293 146.006 303.468 146.052C303.832 146.155 304.134 146.357 304.314 146.619C304.494 146.881 304.541 147.184 304.445 147.47Z" fill="#263238"/>
<path d="M282.281 150.279V153.309C282.537 153.317 282.792 153.285 283.031 153.216C283.271 153.146 283.488 153.04 283.671 152.904C283.855 152.768 283.999 152.605 284.096 152.425C284.193 152.245 284.241 152.052 284.236 151.857C284.24 151.454 284.039 151.065 283.675 150.771C283.311 150.477 282.812 150.301 282.281 150.279Z" fill="#BA68C8"/>
<path opacity="0.6" d="M282.281 150.279V153.309C282.537 153.317 282.792 153.285 283.031 153.216C283.271 153.146 283.488 153.04 283.671 152.904C283.855 152.768 283.999 152.605 284.096 152.425C284.193 152.245 284.241 152.052 284.236 151.857C284.24 151.454 284.039 151.065 283.675 150.771C283.311 150.477 282.812 150.301 282.281 150.279Z" fill="black"/>
<path d="M303.468 150.407C303.492 150.65 303.389 150.89 303.181 151.075C302.973 151.26 302.677 151.375 302.357 151.394C302.112 151.413 301.866 151.375 301.65 151.286C301.434 151.197 301.257 151.061 301.144 150.895C301.03 150.73 300.984 150.542 301.012 150.356C301.04 150.171 301.14 149.996 301.3 149.854C301.459 149.711 301.671 149.609 301.908 149.559C302.145 149.509 302.397 149.515 302.63 149.574C302.863 149.634 303.067 149.745 303.217 149.893C303.366 150.042 303.453 150.221 303.468 150.407Z" fill="#263238"/>
<path d="M297.136 149.184L297.113 155.057L300.713 154.154L297.136 149.184Z" fill="#F79776"/>
<path d="M293.727 161.682C290.806 161.395 284.84 160.053 283.852 158.18C284.227 159.119 284.967 159.952 285.973 160.568C287.773 161.775 293.749 163.1 293.749 163.1L293.727 161.682Z" fill="#F79776"/>
<path d="M258.177 195.5C258.177 195.5 265.309 203.197 266.531 204.201C267.753 205.205 268.597 204.868 269.919 204.42C271.531 203.926 273.187 203.517 274.874 203.197C277.095 202.783 277.518 204.311 275.362 205.399C273.807 206.193 272.03 206.53 272.763 207.18C274.283 208.226 276.046 209.047 277.962 209.602C283.227 211.18 282.816 211.974 281.85 213.265C281.006 214.396 278.517 216.826 269.142 213.957C265.254 212.767 259.788 209.4 257.211 207.205C253.49 204.074 247.68 198.462 247.68 198.462L258.177 195.5Z" fill="#FFBDA7"/>
<path d="M273.219 166.527C270.641 166.654 265.787 167.127 259.699 174.806C254.356 181.558 246.08 190.681 244.547 193.947C243.925 195.272 246.347 198.015 249.468 200.825C253.723 200.682 257.6 198.445 259.611 196.656C259.083 195.704 258.428 194.797 257.655 193.947L270.142 183.128C270.142 183.128 274.885 179.828 275.874 175.532C276.94 170.874 276.607 167.211 273.219 166.527Z" fill="#455A64"/>
<path d="M343.125 181.092L312.343 187.253L303.867 213.71L333.138 207.254L343.125 181.092Z" fill="#BA68C8"/>
<path opacity="0.25" d="M343.125 181.092L312.343 187.253L303.867 213.71L333.138 207.254L343.125 181.092Z" fill="black"/>
<g opacity="0.1">
<path d="M329.219 199.828C329.734 200.645 330.555 201.329 331.578 201.794C332.601 202.259 333.782 202.485 334.973 202.444L335.195 201.862L329.219 199.828Z" fill="black"/>
</g>
<g opacity="0.1">
<path d="M333.85 185.297L334.106 184.402C334.25 183.913 332.44 183.887 330.073 184.402L325.53 185.246C323.164 185.719 321.087 186.495 320.987 186.985L320.742 187.879L333.85 185.297Z" fill="black"/>
</g>
<path d="M336.217 181.945C336.306 181.633 335.573 181.548 334.584 181.759L332.785 182.139C332.785 182.139 333.318 180.206 329.341 180.881C328.273 181.001 327.264 181.328 326.412 181.83C325.56 182.333 324.892 182.995 324.475 183.751L322.565 184.164C321.454 184.392 320.543 184.823 320.421 185.126L320.188 185.683L336.051 182.51L336.217 181.945Z" fill="#37474F"/>
<path d="M334.026 182.891C332.582 183.161 331.971 183.304 331.804 184.064C331.638 184.823 331.449 185.566 331.449 185.566L324.439 186.976C324.439 186.976 324.784 185.878 324.895 185.456C325.006 185.034 324.762 184.764 323.64 184.992L323.551 184.655L334.548 182.52L334.026 182.891Z" fill="#37474F"/>
<path d="M334.272 185.373L334.528 184.478C334.672 183.989 332.861 183.963 330.495 184.478L325.952 185.322C323.586 185.795 321.508 186.571 321.408 187.061L321.164 187.955L334.272 185.373Z" fill="#37474F"/>
<path d="M339.883 189.592C339.883 189.592 338.772 192.588 338.472 193.297C338.172 194.006 334.75 195.297 332.495 195.77C330.24 196.242 327.752 196.799 328.83 199.205C329.807 201.424 333.54 201.93 335.428 201.863C337.317 201.795 339.927 200.428 340.982 198.209C342.282 195.373 341.582 192.352 342.093 190.698C342.604 189.044 341.016 188.605 339.883 189.592Z" fill="#FFBDA7"/>
<path d="M223.273 190.292C219.052 187.06 217.541 188.318 217.008 191.862C216.811 193.349 216.335 194.807 215.597 196.192C215.466 195.455 215.2 194.737 214.809 194.056C214.623 193.688 214.261 193.387 213.795 193.213C213.33 193.04 212.795 193.006 212.298 193.12C211.887 193.246 212.398 193.964 212.298 195.373C212.22 197.128 211.465 198.099 212.009 199.964C212.199 200.666 212.053 201.396 211.598 202.023C209.376 205.23 202.056 211.155 196.924 215.425L177.428 202.048C170.763 197.491 168.608 195.44 162.176 195.77C164.188 196.349 166.041 197.208 167.641 198.301C170.629 200.217 169.919 211.18 169.919 211.18C169.919 211.18 192.047 223.231 194.358 224.379C194.691 224.548 195.035 224.7 195.368 224.843C196.461 225.276 197.713 225.415 198.923 225.239C200.133 225.063 201.229 224.581 202.034 223.873C206.755 219.771 213.642 211.695 217.586 207.5C219.389 205.47 220.996 203.343 222.396 201.137C226.35 195.17 225.917 192.318 223.273 190.292Z" fill="#914F4E"/>
<path d="M162.863 195.5C164.417 195.285 166.014 195.324 167.546 195.615C169.079 195.906 170.512 196.442 171.75 197.188C175.549 199.382 191.746 210.691 191.746 210.691C191.746 210.691 192.19 216.674 183.97 220.235L164.119 209.602L162.863 195.5Z" fill="#BA68C8"/>
<path opacity="0.3" d="M162.863 195.5C164.417 195.285 166.014 195.324 167.546 195.615C169.079 195.906 170.512 196.442 171.75 197.188C175.549 199.382 191.746 210.691 191.746 210.691C191.746 210.691 192.19 216.674 183.97 220.235L164.119 209.602L162.863 195.5Z" fill="black"/>
<path d="M143.702 330.496H135.293V341.889H143.702V330.496Z" fill="#914F4E"/>
<path d="M164.453 329.888L172.862 330.116L173.284 318.056L164.453 317.828V329.888Z" fill="#914F4E"/>
<path d="M134.104 231.848C134.104 238.203 135.337 289.354 135.337 289.354C135.148 291.177 132.982 294.553 133.448 301.574C134.082 311.119 134.937 336.176 134.937 336.176C136.381 336.738 137.975 337.043 139.598 337.067C141.22 337.092 142.829 336.836 144.302 336.319C144.302 336.319 152.255 301.591 153.766 292.139C155.077 283.885 157.31 256.103 157.31 256.103L161.864 288.409C160.894 291.882 160.543 295.439 160.82 298.983C161.22 303.355 163.919 326.133 163.919 326.133C165.374 326.786 167.005 327.179 168.69 327.282C170.374 327.384 172.067 327.193 173.64 326.724C173.64 326.724 178.416 292.418 178.516 288.409C178.627 283.835 175.717 231.764 175.717 231.764L134.104 231.848Z" fill="#37474F"/>
<path d="M143.701 338.596V337.651C144.512 337.93 146.378 343.559 149.711 345.981C152.366 347.896 155.987 350.108 156.909 352.243C157.831 354.378 151.866 355.686 149.389 355.34C146.512 354.935 141.513 353.331 140.268 351.846C139.024 350.361 138.424 348.158 137.402 347.069C136.38 345.981 134.07 344.765 133.492 343.5C133.327 342.322 133.49 341.132 133.97 340.006C134.359 338.833 134.781 337.541 135.292 337.651V338.377C136.478 339.115 137.969 339.512 139.502 339.499C140.724 339.533 143.712 339.339 143.701 338.596Z" fill="#263238"/>
<path d="M172.953 328.065C173.386 328.065 173.741 328.563 174.708 329.39C176.136 330.531 177.807 331.481 179.651 332.201C182.806 333.45 188.927 335.374 191.704 336.361C193.437 336.977 193.348 338.631 191.56 339.568C189.771 340.505 185.45 341.188 180.262 340.277C177.441 339.771 173.753 337.745 171.375 337.821C168.998 337.897 164.71 337.906 162.966 336.977C161.222 336.049 161.933 334.032 162.422 332.319C162.955 330.437 163.621 327.508 164.399 327.635V328.285C165.41 329.5 170.631 329.973 172.853 329.129L172.953 328.065Z" fill="#263238"/>
<path d="M157.309 256.12C161.685 255.034 165.686 253.217 169.017 250.803C169.017 250.803 166.795 254.178 160.041 257.267L161.474 286.122L157.309 256.12Z" fill="#263238"/>
<path d="M138.481 197.187C138.481 197.187 131.905 197.643 132.371 207.171L133.827 222.362L133.693 245.148C139.87 250.473 167.297 250.085 176.684 244.718C176.684 244.718 175.717 217.771 175.084 207.399C174.629 200.031 172.396 196.318 162.865 195.508L151.134 195.896L138.481 197.187Z" fill="#BA68C8"/>
<path opacity="0.3" d="M157.176 202.184L158.687 210.184L162.208 210.133L158.231 210.606L157.176 202.184Z" fill="black"/>
<path d="M117.608 229.899C121.018 209.053 128.872 198.673 138.437 197.475L137.759 210.809C133.777 217.92 130.725 225.312 128.65 232.878C127.395 238.009 125.939 246.929 126.317 251.309C126.393 252.081 126.826 252.808 127.539 253.36C129.428 254.82 129.994 256.086 131.26 257.732C132.26 259.023 133.282 259.479 133.016 259.791C132.672 260.119 132.173 260.333 131.626 260.387C131.078 260.44 130.525 260.329 130.083 260.078C129.08 259.538 128.163 258.912 127.35 258.213C127.229 260.2 127.699 262.182 128.728 264.011C130.949 267.521 130.594 269.37 124.395 268.332C120.507 267.69 117.73 264.576 116.619 257.31C116.327 254.598 116.264 251.875 116.43 249.157C116.853 242.212 116.93 234.068 117.608 229.899Z" fill="#914F4E"/>
<path d="M138.98 197.129C134.015 197.129 129.482 197.779 125.872 203.036C122.417 208.1 119.762 218.81 118.418 222.312C118.418 222.312 125.672 225.57 132.348 225.485L137.047 213.096C137.047 213.096 140.224 207.315 138.98 197.129Z" fill="#BA68C8"/>
<path opacity="0.3" d="M138.98 197.129C134.015 197.129 129.482 197.779 125.872 203.036C122.417 208.1 119.762 218.81 118.418 222.312C118.418 222.312 125.672 225.57 132.348 225.485L137.047 213.096C137.047 213.096 140.224 207.315 138.98 197.129Z" fill="black"/>
<path d="M149.233 175.675C149.333 177.54 150.152 179.341 151.589 180.855C153.026 182.369 155.017 183.528 157.314 184.19C159.612 184.851 162.114 184.984 164.51 184.573C166.907 184.163 169.091 183.226 170.793 181.88C172.494 180.533 173.637 178.837 174.079 177.001C174.521 175.165 174.243 173.271 173.28 171.554C172.317 169.838 170.71 168.374 168.661 167.345C166.611 166.316 164.209 165.767 161.752 165.768C158.364 165.823 155.143 166.897 152.796 168.755C150.449 170.612 149.167 173.101 149.233 175.675Z" fill="#263238"/>
<path d="M141.27 180.629C141.27 180.629 143.191 187.769 143.958 188.942C144.458 189.66 145.307 190.202 146.324 190.452L146.18 185.389L141.27 180.629Z" fill="#263238"/>
<path d="M143.68 170.402C143.68 170.402 142.258 170.183 140.836 171.87C139.581 173.356 139.303 176.698 141.269 180.622L144.879 180.951L143.68 170.402Z" fill="#263238"/>
<path d="M145.969 180.959C145.247 181.305 144.214 180.199 143.314 179.465C142.414 178.731 139.504 177.71 138.048 180.14C136.593 182.571 139.326 185.887 141.625 186.453C145.591 187.44 146.18 185.423 146.18 185.423L146.491 196.74C151.745 202.918 163.665 202.699 159.377 196.437V192.968C161.142 193.191 162.934 193.265 164.72 193.187C167.631 192.833 169.464 191.01 170.352 188.512C171.774 184.503 172.308 181.271 171.108 173.389C169.786 164.747 157.089 164.654 150.224 168.072C143.358 171.49 145.969 180.959 145.969 180.959Z" fill="#914F4E"/>
<path d="M146.423 194.2C147.645 196.101 149.4 197.774 151.566 199.104C153.408 200.136 155.542 200.826 157.798 201.121C155.939 202.077 154.414 203.363 153.354 204.868C152.044 207.071 142.779 201.019 142.868 196.724C142.868 196.724 144.323 192.411 146.311 192.133L146.423 194.2Z" fill="#263238"/>
<path d="M157.809 201.119C157.809 201.119 160.664 200.039 159.386 196.435V192.967L160.641 193.093C162.104 194.176 163.142 195.547 163.641 197.051C163.929 198.039 164.64 203.035 163.385 204.022C162.13 205.01 160.364 201.406 157.809 201.119Z" fill="#263238"/>
<path d="M145.967 181.929C145.601 181.929 144.212 180.114 143.312 179.465C142.057 178.561 143.679 170.401 143.679 170.401C143.352 169.696 143.291 168.936 143.503 168.207C143.715 167.478 144.192 166.808 144.879 166.274C146.601 164.78 149.467 164.586 154.354 164.012C156.306 163.83 158.242 163.562 160.153 163.21C162.171 162.637 164.113 161.919 165.952 161.067C166.53 160.782 167.223 160.662 167.907 160.729C168.222 160.81 168.504 160.952 168.725 161.142C168.945 161.331 169.096 161.561 169.162 161.809C169.274 162.304 169.274 162.809 169.162 163.303C169.78 162.866 170.601 162.634 171.444 162.656C172.287 162.678 173.085 162.953 173.661 163.421C174.207 163.915 174.562 164.514 174.687 165.151C174.813 165.789 174.704 166.44 174.372 167.033C173.662 168.214 172.501 169.205 171.04 169.877C164.897 173.034 157.643 172.156 150.755 171.565C150.43 171.51 150.09 171.527 149.778 171.616C148.667 171.987 148.467 174.527 148.278 175.262C147.723 177.709 147.189 181.912 145.967 181.929Z" fill="#263238"/>
<path d="M143.681 170.831L139.305 168.966C139.437 168.735 139.632 168.528 139.877 168.359C140.121 168.189 140.41 168.06 140.724 167.981C141.038 167.901 141.371 167.873 141.7 167.897C142.03 167.921 142.349 167.998 142.637 168.122C143.219 168.397 143.647 168.825 143.84 169.325C144.033 169.824 143.976 170.361 143.681 170.831Z" fill="#263238"/>
<path d="M159.365 192.968C159.365 192.968 152.866 191.93 150.589 190.976C149.237 190.415 148.141 189.556 147.445 188.512C147.784 189.559 148.392 190.546 149.234 191.415C150.889 193.103 159.365 194.343 159.365 194.343V192.968Z" fill="#783736"/>
<path d="M157.01 179.379C157.018 179.514 156.99 179.649 156.929 179.776C156.867 179.903 156.774 180.02 156.653 180.119C156.532 180.219 156.387 180.299 156.225 180.356C156.064 180.413 155.889 180.445 155.711 180.45C155.351 180.435 155.014 180.314 154.771 180.112C154.528 179.91 154.399 179.644 154.411 179.37C154.411 179.108 154.548 178.857 154.792 178.672C155.035 178.487 155.366 178.383 155.711 178.383C156.055 178.383 156.386 178.487 156.63 178.672C156.873 178.857 157.01 179.108 157.01 179.37V179.379Z" fill="#263238"/>
<path d="M154.777 175.093L151.989 176.309C151.788 176.008 151.743 175.661 151.862 175.336C151.981 175.011 152.256 174.732 152.633 174.553C152.818 174.475 153.023 174.427 153.235 174.411C153.446 174.396 153.66 174.415 153.861 174.465C154.063 174.516 154.248 174.598 154.406 174.706C154.563 174.814 154.69 174.946 154.777 175.093Z" fill="#263238"/>
<path d="M158.778 186.799L161.755 187.685C161.697 187.84 161.596 187.985 161.461 188.109C161.325 188.234 161.157 188.336 160.968 188.409C160.778 188.481 160.57 188.524 160.358 188.533C160.145 188.542 159.933 188.518 159.733 188.461C159.327 188.327 159.003 188.081 158.826 187.773C158.649 187.464 158.632 187.116 158.778 186.799Z" fill="#783736"/>
<path d="M170.03 176.274L167.098 175.193C167.17 175.042 167.283 174.905 167.429 174.789C167.576 174.674 167.754 174.583 167.95 174.523C168.146 174.464 168.356 174.436 168.568 174.442C168.779 174.449 168.986 174.489 169.175 174.56C169.571 174.715 169.878 174.975 170.036 175.292C170.194 175.608 170.192 175.958 170.03 176.274Z" fill="#263238"/>
<path d="M168.108 179.38C168.125 179.518 168.104 179.657 168.046 179.788C167.988 179.919 167.894 180.04 167.772 180.142C167.649 180.245 167.499 180.326 167.332 180.382C167.166 180.438 166.985 180.467 166.803 180.467C166.621 180.467 166.44 180.438 166.274 180.382C166.107 180.326 165.957 180.245 165.834 180.142C165.712 180.04 165.618 179.919 165.56 179.788C165.502 179.657 165.481 179.518 165.498 179.38C165.49 179.245 165.518 179.11 165.58 178.984C165.641 178.857 165.735 178.741 165.856 178.642C165.977 178.543 166.122 178.464 166.284 178.408C166.445 178.352 166.62 178.321 166.797 178.316C167.156 178.327 167.494 178.445 167.74 178.644C167.985 178.843 168.117 179.107 168.108 179.38Z" fill="#263238"/>
<path d="M160.719 178.613L160.863 184.867L165.54 184.057L160.719 178.613Z" fill="#783736"/>
<path d="M154.999 176.797C154.136 176.797 153.308 177.058 152.698 177.522C152.087 177.985 151.745 178.614 151.745 179.27C151.745 179.926 152.087 180.555 152.698 181.019C153.308 181.482 154.136 181.743 154.999 181.743H155.588C156.451 181.743 157.279 181.482 157.89 181.019C158.5 180.555 158.843 179.926 158.843 179.27C158.843 178.614 158.5 177.985 157.89 177.522C157.279 177.058 156.451 176.797 155.588 176.797H154.999ZM151.145 179.27C151.136 178.488 151.535 177.735 152.256 177.177C152.976 176.619 153.959 176.3 154.988 176.291H155.588C156.532 176.385 157.398 176.737 158.026 177.28C158.653 177.824 158.999 178.522 158.999 179.245C158.999 179.968 158.653 180.666 158.026 181.21C157.398 181.753 156.532 182.105 155.588 182.199H154.999C153.979 182.194 153.002 181.884 152.28 181.336C151.558 180.788 151.151 180.045 151.145 179.27Z" fill="#263238"/>
<path d="M166.695 176.797C165.832 176.797 165.004 177.058 164.394 177.522C163.783 177.985 163.44 178.614 163.44 179.27C163.44 179.926 163.783 180.555 164.394 181.019C165.004 181.482 165.832 181.743 166.695 181.743H167.284C168.147 181.743 168.975 181.482 169.586 181.019C170.196 180.555 170.539 179.926 170.539 179.27C170.539 178.614 170.196 177.985 169.586 177.522C168.975 177.058 168.147 176.797 167.284 176.797H166.695ZM162.852 179.27C162.843 178.488 163.242 177.735 163.963 177.177C164.683 176.619 165.666 176.3 166.695 176.291H167.284C168.228 176.385 169.094 176.737 169.722 177.28C170.349 177.824 170.695 178.522 170.695 179.245C170.695 179.968 170.349 180.666 169.722 181.21C169.094 181.753 168.228 182.105 167.284 182.199H166.695C165.681 182.188 164.712 181.875 163.998 181.327C163.283 180.78 162.88 180.041 162.874 179.27H162.852Z" fill="#263238"/>
<path d="M159.387 178.679C159.62 178.434 159.925 178.234 160.278 178.095C160.631 177.956 161.023 177.881 161.42 177.878C161.748 177.851 162.08 177.884 162.388 177.975C162.695 178.066 162.969 178.212 163.187 178.401L163.709 178.097C163.431 177.84 163.074 177.639 162.668 177.514C162.262 177.389 161.822 177.342 161.387 177.38C160.883 177.384 160.387 177.48 159.942 177.661C159.497 177.842 159.116 178.101 158.832 178.418L159.387 178.679Z" fill="#263238"/>
<path d="M151.5 178.654H144.879V179.152H151.5V178.654Z" fill="#263238"/>
</svg>
