<svg width="105" height="17" viewBox="0 0 105 17" fill="none" xmlns="http://www.w3.org/2000/svg">
<g clip-path="url(#clip0_248_939)">
<path d="M105 12.1804C104.644 12.6624 104.378 13.3196 103.889 13.6701C100.334 16.2114 96.4681 17.4382 92.1135 15.8609C89.4918 14.897 88.5587 13.232 88.692 10.165C89.0031 3.15469 96.557 -1.0515 102.378 2.54129C103.978 3.54902 104.911 4.90727 104.244 6.74747C103.578 8.58768 101.8 8.45623 100.156 8.41242C98.1114 8.34624 96.0643 8.39012 94.0242 8.54386C92.4246 8.71911 90.8249 9.50778 91.0471 11.4356C91.1584 12.2848 91.6015 13.0577 92.282 13.5896C92.9626 14.1216 93.8268 14.3705 94.6908 14.2836C97.0014 14.1083 99.2676 13.4949 101.534 12.9691C102.563 12.6319 103.572 12.237 104.555 11.7861L105 12.1804ZM92.1135 6.48459C93.8909 6.48459 95.4461 6.5284 97.0014 6.44077C98.4621 6.44202 99.9199 6.31002 101.356 6.04644C102.778 5.73974 102.911 4.81964 101.845 3.85572C99.4009 1.75263 93.5799 3.15469 92.1135 6.48459Z" fill="black"/>
<path d="M67.408 16.2114C67.0525 14.5026 66.6526 12.7938 66.2082 10.7346C65.5861 11.4794 65.1418 12.0052 64.653 12.4871C61.9869 15.2474 58.7876 16.6495 54.9662 15.598C54.4524 15.3834 53.9964 15.0539 53.6339 14.6357C53.2715 14.2175 53.0126 13.722 52.8777 13.1882C51.9001 7.53612 59.5874 0.438164 65.3195 1.7526C66.1638 1.97167 67.2302 3.28611 67.3635 4.20621C67.8968 8.06188 68.0745 11.9614 68.3855 15.8608L67.408 16.2114ZM57.5878 14.3711C61.5425 14.3273 66.2082 9.59539 66.1193 5.78353C66.0749 4.42528 65.5417 3.89951 64.1198 3.81188C60.3428 3.63662 55.2328 7.53611 54.5662 11.2165C54.2108 13.2758 55.2328 14.3711 57.5878 14.3711Z" fill="black"/>
<path d="M30.1269 2.05933C32.3042 3.06706 33.6373 12.531 32.2154 16.6934L30.4824 14.3712C27.5941 14.9846 24.7947 15.8609 21.9953 16.1237C19.1959 16.3866 17.8184 14.7655 17.5962 12.049C17.3741 9.33252 17.2852 7.84283 17.2408 5.73974C17.1583 5.0953 17.2663 4.44111 17.5518 3.85572C17.9517 3.1985 18.7515 2.19077 19.1515 2.2784C20.3512 2.5851 20.3956 3.50521 20.0846 4.73201C19.5712 6.74692 19.2147 8.79756 19.0182 10.866C18.7071 13.1444 20.2179 14.0645 22.1286 14.2836C24.8836 14.6341 27.3719 13.6702 29.4604 11.9176C30.1269 11.348 30.438 9.98973 30.4824 8.982C30.5268 6.70365 30.2602 4.46912 30.1269 2.05933Z" fill="black"/>
<path d="M47.9013 2.05933C50.0786 2.97943 51.4116 12.2243 50.0341 16.7372L48.2123 14.2836C45.6351 14.897 43.0578 15.8609 40.4806 16.1237C37.0591 16.4743 35.5928 15.0722 35.3706 11.6547C35.1929 9.05798 35.1929 6.45242 35.3706 3.85572C35.415 3.28613 36.5259 2.19077 36.9258 2.2784C38.0811 2.54128 38.2144 3.46139 37.8589 4.68819C37.3025 6.7088 36.9454 8.77769 36.7925 10.866C36.6592 13.1006 37.7701 14.1521 40.0807 14.3274C41.3706 14.4365 42.6695 14.2785 43.8939 13.8636C45.1182 13.4486 46.2411 12.7857 47.1903 11.9176C47.9457 11.2604 48.2123 9.72685 48.2567 8.58767C48.3012 6.44077 48.0346 4.33768 47.9013 2.05933Z" fill="black"/>
<path d="M3.77678 16.5619C6.26514 15.2036 8.26472 14.2836 10.0866 13.1006C10.842 12.6186 11.2863 11.6109 11.8195 10.8222C10.842 10.5593 9.81996 10.0336 8.84239 10.0336C7.86481 10.0336 6.39845 10.4717 5.15427 10.7346C3.02139 11.2165 1.15512 10.4717 0.310853 8.71912C-0.533413 6.96654 0.666336 5.6521 1.91052 4.64437C5.0654 2.0155 8.79795 1.18304 12.8415 1.70881C13.4192 1.79644 13.8635 2.84798 14.3968 3.41757C11.4196 3.59283 8.88681 3.54901 6.44288 3.94334C5.28757 4.07478 4.08783 4.86344 3.24357 5.73973C2.3993 6.61602 2.6659 7.49231 2.44373 8.41242C3.33243 8.58767 4.22113 8.98201 5.10983 8.93819C7.37602 8.80675 9.59778 8.32479 11.864 8.28098C12.8415 8.23716 14.3523 8.6753 14.6634 9.33252C14.9744 9.98974 14.3968 11.6109 13.6858 12.0928C11.1055 13.8473 8.43589 15.4705 5.68749 16.9562C5.37645 17.1315 4.75435 16.781 3.77678 16.5619Z" fill="black"/>
<path d="M79.361 16.6495C75.584 13.7577 70.6073 3.89949 72.1625 1.79639C74.2509 5.47681 76.2505 9.0696 78.4723 13.1005C81.0051 8.71908 83.3157 4.64433 86.0262 0C86.3817 1.13918 86.8705 1.79639 86.6928 2.19072C84.6043 6.65979 82.427 11.0851 80.2497 15.5541C79.9868 15.9444 79.6894 16.311 79.361 16.6495Z" fill="black"/>
</g>
<defs>
<clipPath id="clip0_248_939">
<rect width="105" height="17" fill="white"/>
</clipPath>
</defs>
</svg>
