<svg width="65" height="64" viewBox="0 0 65 64" fill="none" xmlns="http://www.w3.org/2000/svg">
<path d="M32.5 64.004C50.1731 64.004 64.5 55.4746 64.5 44.9531C64.5 34.4317 50.1731 25.9023 32.5 25.9023C14.8269 25.9023 0.5 34.4317 0.5 44.9531C0.5 55.4746 14.8269 64.004 32.5 64.004Z" fill="#F0F0F0"/>
<path d="M50.8746 51.5581C48.7762 50.3089 48.7762 48.2838 50.8746 47.0346C52.973 45.7853 56.3752 45.7853 58.4736 47.0346C60.572 48.2838 60.572 50.3089 58.4736 51.5581C56.3752 52.8074 52.973 52.8074 50.8746 51.5581Z" fill="#E0E0E0"/>
<path d="M8.1943 51.7323L2.67467 48.4468C2.36365 48.2619 2.36365 47.9608 2.67467 47.7759L34.7806 28.6621C34.9551 28.5709 35.148 28.5234 35.3436 28.5234C35.5392 28.5234 35.7321 28.5709 35.9065 28.6621L41.4275 31.9477C41.7385 32.1325 41.7385 32.4336 41.4275 32.6185L9.32159 51.7323C9.14686 51.8235 8.95378 51.871 8.75795 51.871C8.56211 51.871 8.36903 51.8235 8.1943 51.7323Z" fill="#E0E0E0"/>
<path d="M28.0366 45.876L32.7821 43.047C33.271 42.7557 33.5155 42.3748 33.5155 41.9924C33.5155 41.6101 33.5155 41.3118 33.5155 41.3118L28.5935 38.4492C28.456 38.3575 28.3415 38.2336 28.2593 38.0876C28.1772 37.9415 28.1297 37.7775 28.1208 37.6089V31.5742L19.8359 36.5123V42.5442C19.8455 42.7126 19.8932 42.8764 19.9753 43.0224C20.0574 43.1683 20.1715 43.2923 20.3086 43.3845L24.4972 45.8718C25.4724 46.4586 27.0587 46.4586 28.0366 45.876Z" fill="#BA68C8"/>
<g opacity="0.6">
<path d="M28.0405 45.876L32.786 43.047C33.2749 42.7557 33.5194 42.3748 33.5194 41.9924C33.5194 41.6101 33.5194 41.3118 33.5194 41.3118L28.5974 38.4492C28.4599 38.3575 28.3454 38.2336 28.2632 38.0876C28.1811 37.9415 28.1336 37.7775 28.1247 37.6089V31.5742L19.8398 36.5123V42.5442C19.8494 42.7126 19.8971 42.8764 19.9792 43.0224C20.0613 43.1683 20.1755 43.2923 20.3125 43.3845L24.5011 45.8718C25.4763 46.4586 27.0626 46.4586 28.0405 45.876Z" fill="black"/>
</g>
<path opacity="0.3" d="M21.8218 43.6144V44.2922L20.3033 43.3889C20.1663 43.2968 20.0523 43.1728 19.9704 43.0268C19.8885 42.8808 19.8411 42.717 19.832 42.5486V36.5139L21.4102 35.5742C21.4428 35.9874 21.4781 36.4145 21.5121 36.8347L20.4025 37.4929V42.2055C20.4113 42.3741 20.4587 42.5382 20.5408 42.6842C20.623 42.8303 20.7375 42.9542 20.8751 43.0458L21.8218 43.6144Z" fill="black"/>
<path d="M20.4062 42.2068C20.4156 42.3753 20.4632 42.5392 20.5453 42.6851C20.6274 42.8311 20.7417 42.9551 20.8789 43.0471L24.4944 45.1955C25.4722 45.7767 27.0586 45.7781 28.0378 45.1955L32.7915 42.3665C33.7707 41.7839 33.7707 40.84 32.7915 40.2574L29.1733 38.109C29.0364 38.0168 28.9225 37.8927 28.8406 37.7467C28.7588 37.6008 28.7113 37.437 28.702 37.2687V32.5547L20.4171 37.4928L20.4062 42.2068Z" fill="#BA68C8"/>
<path opacity="0.3" d="M20.4062 42.2068C20.4156 42.3753 20.4632 42.5392 20.5453 42.6851C20.6274 42.8311 20.7417 42.9551 20.8789 43.0471L24.4944 45.1955C25.4722 45.7767 27.0586 45.7781 28.0378 45.1955L32.7915 42.3665C33.7707 41.7839 33.7707 40.84 32.7915 40.2574L29.1733 38.109C29.0364 38.0168 28.9225 37.8927 28.8406 37.7467C28.7588 37.6008 28.7113 37.437 28.702 37.2687V32.5547L20.4171 37.4928L20.4062 42.2068Z" fill="black"/>
<path opacity="0.5" d="M30.1293 38.6846L29.1663 38.1118C29.0295 38.0196 28.9155 37.8955 28.8337 37.7495C28.7518 37.6036 28.7043 37.4398 28.695 37.2715V32.5547L20.4102 37.4928V42.2068C20.4195 42.3753 20.4671 42.5392 20.5492 42.6851C20.6313 42.8311 20.7456 42.9551 20.8828 43.0471L21.8335 43.6073L30.1293 38.6846Z" fill="black"/>
<path d="M33.5139 41.3125V41.9931C33.5139 42.3755 33.2681 42.755 32.7805 43.0477L28.0269 45.8753C27.5066 46.1616 26.9256 46.3103 26.3359 46.308V45.6302C26.9256 45.6325 27.5066 45.4838 28.0269 45.1974L32.7805 42.3671C33.2681 42.0772 33.5139 41.6948 33.5139 41.3125Z" fill="#BA68C8"/>
<path opacity="0.5" d="M33.5139 41.3125V41.9931C33.5139 42.3755 33.2681 42.755 32.7805 43.0477L28.0269 45.8753C27.5066 46.1616 26.9256 46.3103 26.3359 46.308V45.6302C26.9256 45.6325 27.5066 45.4838 28.0269 45.1974L32.7805 42.3671C33.2681 42.0772 33.5139 41.6948 33.5139 41.3125Z" fill="black"/>
<path d="M7.09405 48.0632C7.27316 48.1524 7.47008 48.1969 7.66895 48.1933C7.86782 48.1896 8.06308 48.1379 8.23899 48.0422L40.292 28.9606C40.4638 28.845 40.6069 28.6892 40.7095 28.506C40.8122 28.3228 40.8715 28.1173 40.8828 27.906V1.16792C40.8766 0.962376 40.8235 0.761241 40.7277 0.5809C40.6318 0.400559 40.496 0.246115 40.3313 0.130156C40.1525 0.0408546 39.9557 -0.00365847 39.757 0.000235122C39.5582 0.00412872 39.3632 0.0563191 39.1878 0.152563L7.1348 19.2398C6.96353 19.3561 6.82135 19.5125 6.71985 19.6963C6.61836 19.88 6.56043 20.0859 6.55078 20.2971V47.031C6.55684 47.2349 6.60914 47.4344 6.70348 47.6137C6.79783 47.7929 6.93159 47.9469 7.09405 48.0632Z" fill="#BA68C8"/>
<path d="M8.23924 48.0421L40.2922 28.9605C40.4643 28.8451 40.6075 28.6895 40.7102 28.5062C40.8129 28.3229 40.8721 28.1172 40.883 27.9059V1.16922C40.883 0.781287 40.6182 0.623032 40.2922 0.817699L8.23924 19.8993C8.0673 20.0148 7.92419 20.1705 7.82154 20.3537C7.71889 20.537 7.65958 20.7426 7.64844 20.9539V47.6905C7.64844 48.0785 7.91328 48.2367 8.23924 48.0421Z" fill="#BA68C8"/>
<path opacity="0.5" d="M8.23924 48.0421L40.2922 28.9605C40.4643 28.8451 40.6075 28.6895 40.7102 28.5062C40.8129 28.3229 40.8721 28.1172 40.883 27.9059V1.16922C40.883 0.781287 40.6182 0.623032 40.2922 0.817699L8.23924 19.8993C8.0673 20.0148 7.92419 20.1705 7.82154 20.3537C7.71889 20.537 7.65958 20.7426 7.64844 20.9539V47.6905C7.64844 48.0785 7.91328 48.2367 8.23924 48.0421Z" fill="black"/>
<path d="M8.15615 48.7375C7.98806 48.8132 7.80607 48.8503 7.62272 48.8465C7.43936 48.8426 7.25899 48.7978 7.09405 48.7151C6.93123 48.5985 6.79724 48.4441 6.70288 48.2643C6.60852 48.0846 6.55642 47.8845 6.55078 47.6801V45.2461L7.6577 45.9071V48.3412C7.6509 48.6955 7.86957 48.8565 8.15615 48.7375Z" fill="#BA68C8"/>
<path opacity="0.5" d="M8.15615 48.7375C7.98806 48.8132 7.80607 48.8503 7.62272 48.8465C7.43936 48.8426 7.25899 48.7978 7.09405 48.7151C6.93123 48.5985 6.79724 48.4441 6.70288 48.2643C6.60852 48.0846 6.55642 47.8845 6.55078 47.6801V45.2461L7.6577 45.9071V48.3412C7.6509 48.6955 7.86957 48.8565 8.15615 48.7375Z" fill="black"/>
<path d="M7.64844 45.9035V48.3376C7.64844 48.7255 7.92007 48.8824 8.23924 48.6891L40.2922 29.6075C40.4634 29.4925 40.606 29.3376 40.7086 29.1555C40.8112 28.9733 40.8709 28.7688 40.883 28.5585V26.1133L7.64844 45.9035Z" fill="#BA68C8"/>
<path opacity="0.3" d="M7.64844 45.8979V48.3376C7.64844 48.7255 7.92007 48.8824 8.23924 48.6891L40.2922 29.6075C40.4631 29.4923 40.6055 29.3374 40.7078 29.1552C40.8102 28.9731 40.8697 28.7687 40.8817 28.5585V26.1133L7.64844 45.8979Z" fill="black"/>
<path d="M8.75781 42.8454V21.3325C8.76413 21.2058 8.79942 21.0824 8.86079 20.9723C8.92215 20.8623 9.00787 20.7688 9.11094 20.6995L39.4173 2.65143C39.6129 2.53519 39.7718 2.62903 39.7718 2.86151V24.3856C39.7652 24.5124 39.7297 24.6359 39.6681 24.7459C39.6065 24.8559 39.5205 24.9493 39.4173 25.0186L9.1123 43.0624C8.91672 43.1787 8.75781 43.0834 8.75781 42.8454Z" fill="#BA68C8"/>
<path d="M8.75781 42.8454V21.3325C8.76413 21.2058 8.79942 21.0824 8.86079 20.9723C8.92215 20.8623 9.00787 20.7688 9.11094 20.6995L39.4173 2.65143C39.6129 2.53519 39.7718 2.62903 39.7718 2.86151V24.3856C39.7652 24.5124 39.7297 24.6359 39.6681 24.7459C39.6065 24.8559 39.5205 24.9493 39.4173 25.0186L9.1123 43.0624C8.91672 43.1787 8.75781 43.0834 8.75781 42.8454Z" fill="#263238"/>
<path d="M24.2651 36.7851C24.1037 36.8933 23.9695 37.0393 23.8732 37.2111C23.7769 37.3829 23.7213 37.5757 23.7109 37.7739C23.7109 38.138 23.9595 38.2864 24.2651 38.1044C24.4266 37.996 24.561 37.8499 24.6573 37.6778C24.7536 37.5057 24.8091 37.3126 24.8192 37.1142C24.8192 36.7501 24.5707 36.6031 24.2651 36.7851Z" fill="#BA68C8"/>
<path opacity="0.7" d="M7.82611 20.3468C7.72085 20.5293 7.66068 20.7356 7.6509 20.9476V45.9015L6.55078 45.2405V20.2936C6.55791 20.0809 6.61776 19.8735 6.72463 19.6914L7.82611 20.3468Z" fill="black"/>
<path opacity="0.3" d="M40.8823 1.0654C40.8402 0.751691 40.5944 0.645255 40.297 0.814713L8.24398 19.8963C8.07019 20.0084 7.92675 20.164 7.82702 20.3487L6.71875 19.6891C6.81914 19.5044 6.96301 19.3489 7.13707 19.2367L39.19 0.156485C39.3657 0.0602274 39.561 0.00803458 39.7599 0.00414132C39.9588 0.000248061 40.1559 0.044764 40.335 0.134077C40.4856 0.239864 40.6123 0.377756 40.7068 0.538429C40.8012 0.699102 40.8611 0.878809 40.8823 1.0654Z" fill="black"/>
<path d="M42.602 4.35634C42.5544 4.33171 42.5012 4.32091 42.4481 4.3251C42.3949 4.3293 42.3439 4.34833 42.3005 4.38015L12.0566 22.396C11.9373 22.4774 11.8382 22.5866 11.7674 22.7149C11.6967 22.8431 11.6561 22.9867 11.6492 23.1341V44.5153C11.6449 44.5874 11.6588 44.6595 11.6895 44.7245C11.7202 44.7896 11.7667 44.8453 11.8244 44.8864C11.8909 44.9242 12.2468 45.1371 12.3527 45.1959C12.3902 45.2156 12.4321 45.2247 12.4741 45.2222C12.5161 45.2197 12.5567 45.2058 12.5918 45.1819L42.8288 27.166C42.9482 27.0846 43.0472 26.9754 43.118 26.8472C43.1888 26.719 43.2293 26.5754 43.2363 26.428V4.93614C43.2424 4.88184 43.2336 4.82686 43.2111 4.77738C43.1885 4.7279 43.1531 4.68589 43.1086 4.65605C43.0407 4.60983 42.6781 4.40256 42.602 4.35634Z" fill="#BA68C8"/>
<path d="M12.5871 22.6977L42.8324 4.68883C43.0605 4.54878 43.2398 4.66362 43.2398 4.93532V26.4272C43.2329 26.5745 43.1924 26.7181 43.1216 26.8464C43.0508 26.9746 42.9517 27.0838 42.8324 27.1652L12.5871 45.1811C12.359 45.3211 12.1797 45.0956 12.1797 44.8239V23.4357C12.1869 23.2884 12.2275 23.1449 12.2982 23.0167C12.369 22.8885 12.468 22.7792 12.5871 22.6977Z" fill="#FAFAFA"/>
<path d="M43.0171 4.76895C43.0972 4.76895 43.1094 4.87259 43.1094 4.93421V26.4261C43.1021 26.5495 43.067 26.6694 43.0069 26.7764C42.9468 26.8833 42.8633 26.9744 42.7631 27.0423L12.5219 45.0581C12.5017 45.0717 12.4782 45.0794 12.454 45.0805C12.378 45.0805 12.3182 44.9601 12.3182 44.8228V23.4346C12.3248 23.3113 12.3588 23.1911 12.4177 23.0835C12.4766 22.9759 12.5587 22.8838 12.6578 22.8142L42.9003 4.80817C42.9353 4.78489 42.9755 4.77138 43.0171 4.76895ZM43.0171 4.62891C42.9516 4.63178 42.888 4.65204 42.8324 4.68773L12.5871 22.6966C12.468 22.7781 12.369 22.8874 12.2982 23.0156C12.2275 23.1438 12.1869 23.2873 12.1797 23.4346V44.8228C12.1797 45.0385 12.2965 45.2206 12.4513 45.2206C12.4993 45.2196 12.5461 45.2056 12.5871 45.18L42.831 27.1641C42.9504 27.0827 43.0494 26.9735 43.1202 26.8453C43.191 26.717 43.2315 26.5734 43.2385 26.4261V4.93421C43.2385 4.74095 43.1461 4.62891 43.0103 4.62891H43.0171Z" fill="#E0E0E0"/>
<path d="M11.8192 44.8846C11.864 44.9084 12.1859 45.0975 12.3271 45.1815C12.2764 45.1381 12.2362 45.0831 12.2098 45.0208C12.1834 44.9586 12.1715 44.8908 12.175 44.823V24.831L11.6453 24.5117V44.5135C11.6409 44.5855 11.6546 44.6575 11.6851 44.7225C11.7155 44.7875 11.7617 44.8433 11.8192 44.8846Z" fill="#F0F0F0"/>
<path d="M43.2453 4.92963C43.2453 4.66074 43.0592 4.5515 42.8378 4.68734L12.5871 22.6962C12.468 22.7778 12.369 22.887 12.2982 23.0152C12.2275 23.1434 12.1869 23.2869 12.1797 23.4342V24.8347L43.2453 6.33011V4.92963Z" fill="#BA68C8"/>
<g opacity="0.4">
<path d="M42.8388 4.68658L12.5936 22.694C12.4722 22.7729 12.3722 22.8823 12.303 23.0119L11.7773 22.6968C11.8465 22.5718 11.9456 22.4671 12.0653 22.3929L42.3092 4.37707C42.3525 4.34502 42.4034 4.32574 42.4565 4.3213C42.5096 4.31686 42.5629 4.32743 42.6107 4.35186C42.684 4.39948 43.0276 4.59975 43.1159 4.64876C43.0702 4.6313 43.0211 4.62562 42.9728 4.63221C42.9245 4.6388 42.8785 4.65746 42.8388 4.68658Z" fill="white"/>
</g>
<path opacity="0.15" d="M11.6445 24.5142V23.1264C11.6501 22.9751 11.6936 22.8279 11.7708 22.6992L12.2978 23.0129C12.2217 23.1394 12.1791 23.2843 12.1742 23.4331V24.8336L11.6445 24.5142Z" fill="black"/>
<path d="M36.87 21.0519L18.756 31.8357C18.6679 31.8946 18.5946 31.9741 18.5419 32.0678C18.4893 32.1615 18.4589 32.2667 18.4531 32.3748V37.7303C18.4589 37.8384 18.4893 37.9436 18.5419 38.0373C18.5946 38.131 18.6679 38.2105 18.756 38.2695L19.2843 38.5832C19.3782 38.6322 19.482 38.6577 19.5872 38.6577C19.6924 38.6577 19.7962 38.6322 19.8901 38.5832L38.0014 27.7995C38.0895 27.7402 38.1628 27.6604 38.2154 27.5665C38.2681 27.4726 38.2985 27.3672 38.3042 27.2589V21.902C38.2985 21.7939 38.2681 21.6887 38.2154 21.595C38.1628 21.5013 38.0894 21.4218 38.0014 21.3628L37.4717 21.0491C37.3782 21.0009 37.275 20.9761 37.1705 20.9766C37.066 20.9771 36.9631 21.0029 36.87 21.0519Z" fill="#BA68C8"/>
<path opacity="0.5" d="M38.3083 21.8562C38.2866 21.6951 38.1603 21.6363 38.0082 21.7274L19.8942 32.5111C19.8049 32.5683 19.7314 32.6484 19.681 32.7436L18.5469 32.0685C18.5977 31.9749 18.6706 31.8959 18.7588 31.8389L36.8741 21.0551C36.9677 21.006 37.0713 20.9805 37.1763 20.9805C37.2813 20.9805 37.3849 21.006 37.4785 21.0551L38.0082 21.3688C38.0889 21.4234 38.1575 21.4951 38.2092 21.5791C38.261 21.6632 38.2948 21.7576 38.3083 21.8562Z" fill="white"/>
<path d="M19.8385 38.6095C19.7498 38.6455 19.6547 38.6619 19.5595 38.6576C19.4642 38.6532 19.3709 38.6282 19.2857 38.5843L18.756 38.2706C18.6681 38.2115 18.5948 38.1319 18.5422 38.0382C18.4896 37.9445 18.4591 37.8394 18.4531 37.7314V32.3759C18.4572 32.2666 18.488 32.1601 18.5428 32.0664L19.6768 32.7414C19.6217 32.834 19.5908 32.9396 19.5872 33.0481V38.405C19.5872 38.5829 19.6959 38.6655 19.8385 38.6095Z" fill="#263238"/>
<path d="M19.8939 32.5101L38.0079 21.7263C38.175 21.6269 38.3108 21.7067 38.3108 21.9056V27.2625C38.305 27.3708 38.2746 27.4762 38.222 27.5701C38.1694 27.664 38.096 27.7438 38.0079 27.8031L19.8966 38.5868C19.7296 38.6862 19.5938 38.605 19.5938 38.4061V33.0507C19.5992 32.9426 19.6292 32.8374 19.6813 32.7435C19.7335 32.6496 19.8063 32.5696 19.8939 32.5101Z" fill="#BA68C8"/>
<path d="M32.0689 23.9102L18.7588 31.8355C18.6706 31.8925 18.5977 31.9715 18.5469 32.0652L19.681 32.7402C19.7314 32.6451 19.8049 32.565 19.8942 32.5077L33.2043 24.5838L32.0689 23.9102Z" fill="#455A64"/>
<path d="M33.2028 24.5859L19.8927 32.5099C19.8046 32.5691 19.7313 32.6489 19.6786 32.7429C19.626 32.8368 19.5956 32.9422 19.5898 33.0505V38.4045C19.5898 38.6034 19.7257 38.6846 19.8927 38.5852L33.2028 30.6612V24.5859Z" fill="#37474F"/>
<path d="M22.9653 31.8562L29.8336 27.7682C30.1175 27.5987 30.3484 27.7192 30.3484 28.0371C30.3357 28.2156 30.2823 28.3886 30.1926 28.5419C30.103 28.6952 29.9795 28.8245 29.8323 28.9194L22.9653 33.0088C22.6815 33.1783 22.4492 33.0578 22.4492 32.7399C22.462 32.5612 22.5154 32.3881 22.6051 32.2346C22.6947 32.0811 22.8181 31.9515 22.9653 31.8562Z" fill="#BA68C8"/>
<path d="M24.3693 33.2118C24.3706 33.2103 24.3722 33.2091 24.3739 33.2083C24.3757 33.2075 24.3776 33.207 24.3795 33.207C24.3815 33.207 24.3834 33.2075 24.3851 33.2083C24.3869 33.2091 24.3884 33.2103 24.3897 33.2118C24.3958 33.2213 24.3987 33.2326 24.3979 33.244V34.0409C24.3979 34.1178 24.3916 34.1947 24.3788 34.2705C24.3676 34.3398 24.3485 34.4075 24.3218 34.4722C24.2975 34.5315 24.2655 34.587 24.2267 34.6375C24.1885 34.6842 24.1425 34.7236 24.0909 34.7537C24.0505 34.7809 24.0033 34.7955 23.9551 34.7957C23.9367 34.7942 23.9187 34.7888 23.9024 34.7799C23.886 34.771 23.8716 34.7588 23.86 34.7439C23.8302 34.7027 23.8106 34.6546 23.803 34.6039C23.79 34.5361 23.7841 34.4671 23.7853 34.398V33.5997C23.7853 33.5857 23.7881 33.5719 23.7935 33.5591C23.7968 33.5475 23.804 33.5376 23.8138 33.5311L23.8994 33.4793C23.9022 33.4766 23.9058 33.4751 23.9096 33.4751C23.9134 33.4751 23.917 33.4766 23.9198 33.4793C23.9261 33.4887 23.9289 33.5001 23.9279 33.5115V34.2985C23.9269 34.3419 23.931 34.3851 23.9402 34.4274C23.9439 34.4544 23.9552 34.4797 23.9728 34.5002C23.9789 34.5077 23.9866 34.5137 23.9953 34.5176C24.004 34.5214 24.0135 34.5232 24.023 34.5226C24.0462 34.521 24.0687 34.5133 24.0882 34.5002C24.1124 34.4853 24.1343 34.4669 24.1534 34.4456C24.1746 34.4204 24.192 34.3921 24.205 34.3616C24.2203 34.3256 24.2317 34.2881 24.239 34.2495C24.2469 34.2033 24.2505 34.1564 24.2498 34.1095V33.321C24.2502 33.3069 24.2535 33.2931 24.2593 33.2804C24.2627 33.2689 24.2699 33.2589 24.2797 33.2524L24.3693 33.2118Z" fill="#FAFAFA"/>
<path d="M24.9037 33.9663C24.9044 33.956 24.902 33.9457 24.8969 33.9369C24.8937 33.9332 24.8897 33.9304 24.8852 33.9287C24.8807 33.927 24.8758 33.9264 24.8711 33.9271C24.8544 33.9247 24.8375 33.9247 24.8208 33.9271L24.7421 33.9425C24.7167 33.949 24.6901 33.949 24.6647 33.9425C24.6447 33.9359 24.6275 33.9225 24.6158 33.9047C24.6025 33.8819 24.5937 33.8567 24.59 33.8304C24.5767 33.7554 24.5767 33.6786 24.59 33.6035C24.6002 33.5605 24.6147 33.5188 24.6334 33.4789C24.652 33.4391 24.6748 33.4015 24.7013 33.3669C24.727 33.3338 24.7583 33.3058 24.7937 33.2842C24.8222 33.2663 24.8542 33.2548 24.8874 33.2506C24.9115 33.2481 24.9357 33.2534 24.9567 33.266C24.9766 33.2786 24.9922 33.2972 25.0015 33.3193C25.0124 33.3454 25.0184 33.3734 25.0191 33.4019C25.0206 33.416 25.0177 33.4301 25.011 33.4425C25.0077 33.454 25.0004 33.464 24.9906 33.4705L24.9091 33.5195C24.9054 33.5217 24.9012 33.5229 24.8969 33.5229C24.8926 33.5229 24.8884 33.5217 24.8847 33.5195L24.867 33.5055C24.86 33.4998 24.8515 33.4964 24.8426 33.4957C24.8251 33.4977 24.8084 33.504 24.7937 33.5139C24.7724 33.5272 24.7535 33.5442 24.738 33.5643C24.7216 33.5864 24.7129 33.6136 24.7136 33.6414C24.7116 33.652 24.7116 33.6629 24.7136 33.6736C24.7162 33.6775 24.7196 33.6808 24.7236 33.6833C24.7276 33.6857 24.732 33.6872 24.7366 33.6876C24.7515 33.6901 24.7666 33.6901 24.7815 33.6876L24.8575 33.6736C24.9214 33.661 24.9648 33.6736 24.9933 33.71C25.0233 33.7619 25.0371 33.822 25.0327 33.8822C25.0324 33.9239 25.0269 33.9653 25.0164 34.0055C25.0057 34.0492 24.9902 34.0914 24.9702 34.1315C24.9503 34.173 24.9252 34.2116 24.8955 34.2464C24.8674 34.2804 24.8339 34.3093 24.7964 34.3318C24.7665 34.3515 24.7325 34.3635 24.6973 34.3668C24.6717 34.3677 24.6465 34.3604 24.6253 34.3458C24.6043 34.331 24.5882 34.31 24.5791 34.2856C24.5681 34.259 24.5626 34.2304 24.5628 34.2016C24.5615 34.187 24.5644 34.1724 24.5709 34.1595C24.5743 34.148 24.5815 34.1381 24.5913 34.1315L24.6728 34.0825C24.6837 34.0825 24.6918 34.0755 24.6973 34.0825L24.7149 34.1021C24.7185 34.1063 24.7229 34.1097 24.7278 34.1121C24.7327 34.1145 24.738 34.1159 24.7434 34.1161C24.7625 34.1162 24.7812 34.1098 24.7964 34.0979C24.8209 34.0836 24.843 34.0651 24.8616 34.0433C24.8708 34.0318 24.8786 34.0191 24.8847 34.0055C24.8943 33.9944 24.9008 33.9808 24.9037 33.9663Z" fill="#FAFAFA"/>
<path d="M25.1758 33.5855C25.1756 33.5127 25.1815 33.4401 25.1935 33.3684C25.2048 33.301 25.2226 33.2348 25.2464 33.171C25.2664 33.1137 25.2938 33.0595 25.3279 33.0099C25.3564 32.9672 25.3935 32.9314 25.4366 32.9049C25.4681 32.883 25.5065 32.8745 25.5439 32.8811C25.5771 32.889 25.6062 32.9095 25.6254 32.9385C25.6509 32.9765 25.6689 33.0193 25.6784 33.0645C25.6914 33.1233 25.6978 33.1835 25.6974 33.2438V33.3306C25.6978 33.3452 25.6945 33.3597 25.6879 33.3726C25.6845 33.3842 25.6773 33.3941 25.6675 33.4006L25.3144 33.6121C25.3135 33.6368 25.3167 33.6614 25.3239 33.6849C25.3291 33.7008 25.3385 33.7148 25.351 33.7255C25.3622 33.7347 25.3762 33.7392 25.3904 33.7381C25.4068 33.7361 25.4226 33.7304 25.4366 33.7213C25.4571 33.7098 25.4755 33.6947 25.4909 33.6765C25.5048 33.6604 25.5167 33.6425 25.5262 33.6233C25.532 33.6122 25.5384 33.6015 25.5452 33.5911C25.5511 33.584 25.558 33.5778 25.5656 33.5729L25.6498 33.5225C25.6527 33.5201 25.6563 33.5188 25.66 33.5188C25.6637 33.5188 25.6673 33.5201 25.6702 33.5225C25.6738 33.5269 25.6763 33.5321 25.6778 33.5376C25.6792 33.5432 25.6794 33.549 25.6784 33.5547C25.6769 33.582 25.6714 33.6089 25.6621 33.6345C25.6503 33.6734 25.6349 33.7109 25.6159 33.7465C25.5946 33.7876 25.5691 33.8261 25.5398 33.8614C25.5106 33.8975 25.4757 33.9282 25.4366 33.9524C25.4045 33.9741 25.3661 33.9835 25.3279 33.979C25.2945 33.9708 25.2654 33.9497 25.2464 33.9202C25.2197 33.8777 25.2017 33.8301 25.1935 33.7802C25.1811 33.7161 25.1752 33.6508 25.1758 33.5855ZM25.4366 33.1387C25.4157 33.1503 25.3976 33.1666 25.3836 33.1864C25.3686 33.206 25.3562 33.2276 25.347 33.2508C25.3374 33.2739 25.3297 33.2978 25.3239 33.3222C25.3191 33.3443 25.3159 33.3668 25.3144 33.3894L25.5534 33.2494C25.552 33.2301 25.5493 33.2109 25.5452 33.192C25.5432 33.175 25.5366 33.159 25.5262 33.1457C25.5222 33.1397 25.5169 33.1346 25.5109 33.1307C25.5048 33.1269 25.498 33.1243 25.4909 33.1233C25.4716 33.1216 25.4524 33.1271 25.4366 33.1387Z" fill="#FAFAFA"/>
<path d="M26.1293 32.7526C26.0881 32.7768 26.0557 32.8141 26.0369 32.859C26.0158 32.9181 26.0061 32.9809 26.0084 33.0439V33.5494C26.0086 33.5639 26.0058 33.5782 26.0002 33.5914C25.9969 33.603 25.9897 33.6129 25.9799 33.6195L25.8997 33.6671C25.8985 33.6686 25.8969 33.6698 25.8951 33.6706C25.8934 33.6714 25.8915 33.6718 25.8896 33.6718C25.8876 33.6718 25.8857 33.6714 25.884 33.6706C25.8822 33.6698 25.8806 33.6686 25.8794 33.6671C25.8733 33.6575 25.8704 33.6462 25.8712 33.6349V32.7287C25.8713 32.7143 25.8741 32.7001 25.8794 32.6867C25.8832 32.6754 25.8903 32.6656 25.8997 32.6587L25.9799 32.6111C25.9826 32.6084 25.9863 32.607 25.9901 32.607C25.9938 32.607 25.9975 32.6084 26.0002 32.6111C26.0065 32.62 26.0094 32.631 26.0084 32.6419V32.6867C26.0246 32.6492 26.0446 32.6135 26.0682 32.5803C26.0896 32.5496 26.1175 32.5243 26.1497 32.5061L26.1985 32.4767C26.2011 32.4741 26.2045 32.4727 26.2081 32.4727C26.2116 32.4727 26.215 32.4741 26.2176 32.4767C26.2241 32.486 26.2275 32.4973 26.2271 32.5089V32.6363C26.2268 32.6509 26.2236 32.6652 26.2176 32.6783C26.2141 32.6894 26.2075 32.6992 26.1985 32.7063L26.1293 32.7526Z" fill="#FAFAFA"/>
<path d="M27.1377 32.68C27.139 32.6785 27.1405 32.6773 27.1423 32.6765C27.144 32.6757 27.1459 32.6753 27.1479 32.6753C27.1498 32.6753 27.1517 32.6757 27.1535 32.6765C27.1552 32.6773 27.1568 32.6785 27.1581 32.68C27.1641 32.6895 27.167 32.7008 27.1662 32.7122V32.8523C27.1661 32.8667 27.1634 32.8809 27.1581 32.8943C27.1534 32.9047 27.1464 32.9138 27.1377 32.9209L26.6732 33.201C26.6704 33.2036 26.6668 33.2051 26.663 33.2051C26.6592 33.2051 26.6556 33.2036 26.6528 33.201C26.6467 33.192 26.6439 33.1811 26.6447 33.1702V31.9097C26.6447 31.8953 26.6475 31.8811 26.6528 31.8677C26.6566 31.8568 26.6638 31.8475 26.6732 31.8411L26.7587 31.7893C26.7615 31.7866 26.7652 31.7852 26.7689 31.7852C26.7727 31.7852 26.7764 31.7866 26.7791 31.7893C26.7852 31.7983 26.7881 31.8092 26.7873 31.8201V32.8859L27.1377 32.68Z" fill="#FAFAFA"/>
<path d="M27.5592 31.647C27.5898 31.6252 27.6267 31.6148 27.6638 31.6176C27.6956 31.6202 27.7252 31.6352 27.7466 31.6596C27.7719 31.6896 27.7905 31.725 27.8009 31.7633C27.8154 31.8129 27.8237 31.8642 27.8254 31.9159C27.8254 31.9271 27.8254 31.9425 27.8254 31.9608V32.0686C27.8254 32.0854 27.8254 32.1008 27.8254 32.1134C27.8227 32.1743 27.8145 32.2348 27.8009 32.2941C27.7884 32.3518 27.7702 32.4081 27.7466 32.4621C27.7251 32.5124 27.6972 32.5594 27.6638 32.6022C27.6351 32.6409 27.5996 32.6737 27.5592 32.6988C27.5277 32.7199 27.4907 32.7302 27.4532 32.7282C27.4219 32.7254 27.3927 32.7104 27.3717 32.6862C27.3457 32.6573 27.327 32.6222 27.3174 32.584C27.3029 32.5344 27.2947 32.4831 27.293 32.4313C27.293 32.4201 27.293 32.4061 27.293 32.3879V32.2801C27.293 32.2619 27.293 32.2465 27.293 32.2352C27.2946 32.1739 27.3023 32.1129 27.3161 32.0532C27.3293 31.995 27.3479 31.9382 27.3717 31.8837C27.3933 31.8338 27.4207 31.7868 27.4532 31.7437C27.482 31.7046 27.518 31.6717 27.5592 31.647ZM27.6868 32.0084C27.6868 31.9774 27.6817 31.9466 27.6719 31.9173C27.6669 31.8995 27.6564 31.8838 27.642 31.8725C27.6304 31.8645 27.6165 31.861 27.6026 31.8627C27.5871 31.8657 27.5723 31.8719 27.5592 31.8809C27.5432 31.8899 27.5286 31.9013 27.5157 31.9145C27.5001 31.9312 27.4869 31.9501 27.4763 31.9706C27.4627 31.996 27.4526 32.0234 27.4464 32.0518C27.4375 32.0876 27.4321 32.1241 27.4301 32.161C27.4301 32.1722 27.4301 32.1848 27.4301 32.2002V32.2997C27.4301 32.3151 27.4301 32.3277 27.4301 32.3361C27.4314 32.3671 27.4369 32.3977 27.4464 32.4271C27.4514 32.445 27.4619 32.4607 27.4763 32.4719C27.482 32.4761 27.4884 32.4789 27.4952 32.4804C27.5019 32.4818 27.5089 32.4818 27.5157 32.4803C27.5311 32.4776 27.5459 32.4719 27.5592 32.4635C27.5749 32.4542 27.5895 32.4429 27.6026 32.4299C27.6178 32.4129 27.631 32.3941 27.642 32.3739C27.6551 32.3481 27.6651 32.3209 27.6719 32.2927C27.6808 32.2569 27.6858 32.2203 27.6868 32.1834C27.6877 32.1704 27.6877 32.1573 27.6868 32.1442V32.0462C27.6876 32.0336 27.6876 32.021 27.6868 32.0084Z" fill="#FAFAFA"/>
<path d="M28.2375 32.4661C28.2549 32.4551 28.2705 32.4414 28.2837 32.4255C28.3 32.4057 28.3142 32.3841 28.3258 32.361C28.3393 32.3329 28.3498 32.3033 28.357 32.2728C28.3654 32.2385 28.3695 32.2032 28.3692 32.1678V32.0964C28.3692 32.1104 28.3557 32.1272 28.3462 32.1468C28.3368 32.1673 28.3259 32.1869 28.3136 32.2056C28.2994 32.2253 28.2839 32.244 28.2674 32.2616C28.2503 32.28 28.2306 32.2956 28.209 32.3078C28.195 32.3176 28.1793 32.3245 28.1627 32.3278C28.1461 32.3312 28.1291 32.3311 28.1125 32.3274C28.0824 32.3177 28.0564 32.2974 28.0392 32.27C28.0171 32.2338 28.001 32.1941 27.9917 32.1524C27.9801 32.0995 27.9737 32.0455 27.9727 31.9913C27.9727 31.9731 27.9727 31.9507 27.9727 31.9241C27.9727 31.8975 27.9727 31.8751 27.9727 31.8555C27.9744 31.7939 27.9807 31.7326 27.9917 31.672C28.0028 31.6124 28.0187 31.5539 28.0392 31.4969C28.0584 31.4475 28.083 31.4006 28.1125 31.3569C28.1376 31.3183 28.1705 31.2858 28.209 31.2617C28.227 31.2505 28.2468 31.2424 28.2674 31.2379C28.2826 31.2349 28.2983 31.2349 28.3136 31.2379C28.3256 31.2414 28.3367 31.2476 28.3462 31.2561C28.3548 31.2629 28.3626 31.2709 28.3692 31.2799V31.2351C28.3693 31.2206 28.3721 31.2064 28.3774 31.193C28.3812 31.1821 28.3883 31.1728 28.3978 31.1664L28.4779 31.1174C28.4807 31.1148 28.4843 31.1133 28.4881 31.1133C28.4919 31.1133 28.4955 31.1148 28.4983 31.1174C28.5048 31.1268 28.5082 31.1381 28.5078 31.1496V32.0599C28.5114 32.1963 28.4869 32.3319 28.4358 32.4577C28.3957 32.5566 28.3263 32.64 28.2375 32.6958C28.2072 32.7152 28.1726 32.7262 28.137 32.728C28.1088 32.7297 28.0808 32.7224 28.0569 32.707C28.0339 32.6892 28.0153 32.6662 28.0025 32.6397C27.9893 32.6078 27.9819 32.5736 27.9808 32.5389C27.9795 32.5244 27.9824 32.5098 27.989 32.4969C27.9923 32.4853 27.9995 32.4754 28.0093 32.4689L28.0813 32.4269C28.083 32.425 28.085 32.4236 28.0872 32.4226C28.0894 32.4216 28.0918 32.4211 28.0942 32.4211C28.0966 32.4211 28.099 32.4216 28.1012 32.4226C28.1035 32.4236 28.1055 32.425 28.1071 32.4269C28.1138 32.4341 28.1197 32.4421 28.1248 32.4507C28.133 32.4657 28.1467 32.4768 28.1628 32.4815C28.1791 32.4941 28.2035 32.4801 28.2375 32.4661ZM28.1098 31.7868C28.1098 31.8242 28.1098 31.8606 28.1098 31.8961C28.106 31.952 28.1213 32.0076 28.1533 32.0529C28.1654 32.0637 28.1808 32.0696 28.1968 32.0696C28.2127 32.0696 28.2281 32.0637 28.2402 32.0529C28.2796 32.0265 28.3104 31.9884 28.3285 31.9437C28.3532 31.8853 28.3671 31.8226 28.3692 31.7588C28.3692 31.7378 28.3692 31.7126 28.3692 31.6832C28.3692 31.6538 28.3692 31.6286 28.3692 31.6104C28.372 31.5602 28.3576 31.5107 28.3285 31.4703C28.3165 31.4589 28.3007 31.4526 28.2844 31.4526C28.268 31.4526 28.2523 31.4589 28.2402 31.4703C28.2016 31.4967 28.1713 31.5342 28.1533 31.5782C28.1254 31.644 28.1106 31.715 28.1098 31.7868Z" fill="#FAFAFA"/>
<path d="M28.8242 30.5387C28.8269 30.5364 28.8302 30.5352 28.8337 30.5352C28.8372 30.5352 28.8405 30.5364 28.8432 30.5387C28.8503 30.5477 28.8537 30.5593 28.8527 30.5709V30.7235C28.8528 30.7381 28.8496 30.7525 28.8432 30.7656C28.8394 30.7761 28.8328 30.7853 28.8242 30.7922L28.7332 30.8468C28.7319 30.8483 28.7304 30.8495 28.7286 30.8503C28.7269 30.8511 28.7249 30.8515 28.723 30.8515C28.7211 30.8515 28.7192 30.8511 28.7174 30.8503C28.7157 30.8495 28.7141 30.8483 28.7128 30.8468C28.7093 30.8426 28.7066 30.8377 28.705 30.8324C28.7033 30.8271 28.7028 30.8215 28.7033 30.816V30.6633C28.7032 30.6487 28.7065 30.6343 28.7128 30.6213C28.7166 30.6104 28.7238 30.601 28.7332 30.5947L28.8242 30.5387ZM28.8473 31.8537C28.8473 31.8677 28.8446 31.8815 28.8391 31.8943C28.8348 31.9053 28.8278 31.915 28.8188 31.9224L28.7373 31.97C28.7361 31.9714 28.7347 31.9726 28.733 31.9734C28.7314 31.9742 28.7296 31.9747 28.7278 31.9747C28.726 31.9747 28.7242 31.9742 28.7225 31.9734C28.7209 31.9726 28.7194 31.9714 28.7183 31.97C28.7112 31.9609 28.7077 31.9494 28.7088 31.9378V31.0316C28.7087 31.0171 28.7119 31.0027 28.7183 30.9896C28.7221 30.9787 28.7287 30.9691 28.7373 30.9616L28.8188 30.914C28.8215 30.9114 28.8252 30.9099 28.829 30.9099C28.8327 30.9099 28.8364 30.9114 28.8391 30.914C28.8452 30.923 28.8481 30.9339 28.8473 30.9448V31.8537Z" fill="#FAFAFA"/>
<path d="M29.5645 31.4308C29.5645 31.4452 29.5617 31.4595 29.5564 31.4728C29.5526 31.4837 29.5455 31.4931 29.536 31.4994L29.4545 31.5484C29.452 31.551 29.4486 31.5524 29.445 31.5524C29.4415 31.5524 29.4381 31.551 29.4355 31.5484C29.4284 31.5394 29.425 31.5278 29.426 31.5162V31.0233C29.4302 30.9651 29.4199 30.9067 29.3961 30.8538C29.3771 30.8188 29.3472 30.8132 29.3051 30.8384C29.2631 30.8675 29.232 30.9105 29.2169 30.9602C29.1942 31.0263 29.1831 31.096 29.1843 31.1661V31.6605C29.1842 31.6749 29.1814 31.6892 29.1761 31.7025C29.1728 31.714 29.1656 31.724 29.1557 31.7305L29.0756 31.7781C29.0743 31.7796 29.0728 31.7808 29.071 31.7816C29.0693 31.7824 29.0673 31.7829 29.0654 31.7829C29.0635 31.7829 29.0616 31.7824 29.0598 31.7816C29.0581 31.7808 29.0565 31.7796 29.0552 31.7781C29.0489 31.7692 29.046 31.7583 29.0471 31.7473V30.8412C29.0469 30.8267 29.0497 30.8124 29.0552 30.7992C29.0586 30.7876 29.0658 30.7777 29.0756 30.7712L29.1557 30.7235C29.157 30.7221 29.1586 30.7209 29.1603 30.72C29.1621 30.7192 29.164 30.7188 29.1659 30.7188C29.1679 30.7188 29.1698 30.7192 29.1715 30.72C29.1733 30.7209 29.1748 30.7221 29.1761 30.7235C29.1822 30.7331 29.1851 30.7444 29.1843 30.7558V30.7992C29.2021 30.7565 29.224 30.7157 29.2495 30.6773C29.2718 30.642 29.3021 30.6127 29.3377 30.5919C29.3686 30.5686 29.4071 30.5586 29.445 30.5639C29.4601 30.5678 29.4741 30.5749 29.4863 30.5848C29.4985 30.5947 29.5085 30.6072 29.5157 30.6213C29.5354 30.6592 29.5483 30.7005 29.5537 30.7432C29.5609 30.7989 29.5646 30.855 29.5645 30.9112V31.4308Z" fill="#FAFAFA"/>
<path d="M36.4161 27.3527L35.0973 28.137L35.3024 26.2295C35.1435 26.1427 35.043 25.9312 35.043 25.6273C35.043 25.0853 35.3635 24.4565 35.7574 24.2268C36.1512 23.9971 36.4704 24.2408 36.4704 24.787C36.4623 25.1084 36.3733 25.422 36.2124 25.6973L36.4161 27.3527Z" fill="#455A64"/>
<path d="M36.4139 27.3506L35.2527 26.6602L35.0938 28.1363L36.4139 27.3506Z" fill="#37474F"/>
<path d="M35.7491 24.2248C35.4619 24.4248 35.2477 24.7181 35.1406 25.0581L36.2041 25.6911C36.3651 25.4158 36.454 25.1021 36.4621 24.7808C36.4648 24.2388 36.1457 23.9909 35.7491 24.2248Z" fill="#37474F"/>
<path d="M29.3413 17.8708C28.889 17.6019 28.2656 17.6398 27.5756 18.0501C26.1985 18.8708 25.082 20.8637 25.082 22.5036C25.082 23.3271 25.3645 23.9041 25.8182 24.1702L26.6969 24.6968C27.1478 24.9657 27.7712 24.9265 28.4625 24.5161C29.8397 23.6969 30.9561 21.7026 30.9561 20.0626C30.9561 19.2433 30.6764 18.6621 30.2254 18.4002" fill="#BA68C8"/>
<path d="M28.4624 18.5775C27.0852 19.3982 25.9688 21.3925 25.9688 23.0311C25.9688 24.6696 27.0852 25.3363 28.4624 24.5156C29.8396 23.6949 30.9573 21.702 30.956 20.062C30.9546 18.4221 29.8382 17.7582 28.4624 18.5775Z" fill="#BA68C8"/>
<path d="M29.8351 22.2182V22.4059C29.5051 23.0132 29.0319 23.5247 28.4592 23.8932C27.9227 24.2111 27.4379 24.2461 27.082 24.0431V23.6565C27.1002 23.2544 27.2116 22.8626 27.4068 22.5139C27.602 22.1652 27.8753 21.8698 28.2039 21.6524L28.5665 21.4368C28.887 21.2463 29.1994 21.2211 29.4439 21.3681C29.6884 21.5152 29.8351 21.8247 29.8351 22.2182Z" fill="#BA68C8"/>
<path opacity="0.4" d="M29.338 17.8704L30.2208 18.3998C29.7699 18.1295 29.1465 18.1673 28.4552 18.5777C27.5534 19.1154 26.7629 20.156 26.3256 21.2708L25.4414 20.7428C25.8801 19.6224 26.6638 18.5875 27.571 18.0497C28.2637 17.6407 28.8871 17.6015 29.338 17.8704Z" fill="white"/>
<path opacity="0.2" d="M26.6643 24.6761L25.8182 24.1705C25.3645 23.9044 25.082 23.3302 25.082 22.5039L25.9662 23.0333C25.9716 23.8316 26.2324 24.4002 26.6643 24.6761Z" fill="black"/>
<path opacity="0.1" d="M25.4484 20.7461L26.3326 21.2741C26.106 21.8322 25.9843 22.4296 25.974 23.0345L25.0898 22.5051C25.1007 21.9007 25.2224 21.3039 25.4484 20.7461Z" fill="black"/>
<path d="M28.1468 21.3482C28.0626 21.3492 27.9796 21.3269 27.9064 21.2838C27.8182 21.2232 27.7476 21.1391 27.7019 21.0405C27.6563 20.9419 27.6373 20.8324 27.647 20.7236C27.6585 20.4685 27.7292 20.2199 27.853 19.9986C27.9768 19.7774 28.1502 19.5899 28.3587 19.452C28.4424 19.383 28.5444 19.3418 28.6513 19.3336C28.7582 19.3253 28.8649 19.3506 28.9577 19.4059C29.0504 19.4613 29.1248 19.5443 29.1711 19.6439C29.2173 19.7436 29.2334 19.8553 29.2171 19.9646C29.2053 20.2197 29.1346 20.4682 29.0108 20.6894C28.887 20.9106 28.7137 21.0981 28.5054 21.2362C28.3976 21.3056 28.2738 21.3442 28.1468 21.3482Z" fill="white"/>
<path d="M29.4439 21.3642C29.1994 21.2172 28.887 21.2424 28.5665 21.4329L28.2039 21.6485C27.8751 21.8661 27.6017 22.1617 27.4065 22.5106C27.2113 22.8596 27.1 23.2516 27.082 23.654V24.042C27.4379 24.245 27.9227 24.21 28.4592 23.8921C29.0319 23.5236 29.5051 23.0121 29.8351 22.4048V22.2171C29.8351 21.8222 29.6938 21.5127 29.4439 21.3642Z" fill="white"/>
<path d="M57.3633 45.5942C57.3633 45.5942 57.5439 43.9584 58.333 42.6882C59.1221 41.418 60.2059 40.6267 61.2178 40.5441C62.2296 40.4614 63.0473 41.4222 61.9648 42.0846C60.8823 42.747 58.9591 43.4165 58.0736 45.8813L57.3633 45.5942Z" fill="#BA68C8"/>
<path opacity="0.1" d="M57.3633 45.5942C57.3633 45.5942 57.5439 43.9584 58.333 42.6882C59.1221 41.418 60.2059 40.6267 61.2178 40.5441C62.2296 40.4614 63.0473 41.4222 61.9648 42.0846C60.8823 42.747 58.9591 43.4165 58.0736 45.8813L57.3633 45.5942Z" fill="black"/>
<path d="M57.6619 45.1708H57.651C57.6377 45.1652 57.6271 45.1544 57.6215 45.1408C57.6159 45.1271 57.6158 45.1117 57.6211 45.098C58.6887 42.3881 60.7205 41.2551 61.6468 41.0366C61.6537 41.0349 61.6609 41.0347 61.668 41.0359C61.675 41.0371 61.6817 41.0398 61.6878 41.0437C61.6939 41.0476 61.6991 41.0527 61.7032 41.0587C61.7074 41.0647 61.7104 41.0714 61.712 41.0786C61.7136 41.0858 61.7138 41.0932 61.7126 41.1005C61.7114 41.1077 61.7089 41.1147 61.7051 41.1209C61.7013 41.1272 61.6964 41.1326 61.6906 41.1369C61.6847 41.1411 61.6782 41.1442 61.6712 41.1458C60.7639 41.3615 58.7715 42.4735 57.7216 45.1414C57.7164 45.1526 57.7076 45.1616 57.6968 45.1669C57.6859 45.1723 57.6736 45.1737 57.6619 45.1708Z" fill="white"/>
<path d="M63.0661 45.199C62.9751 45.4119 62.7496 45.5239 62.5405 45.6108C62.3313 45.6976 62.1031 45.7914 61.989 45.9931C61.7609 46.3993 62.1357 46.9734 61.8912 47.367C61.8337 47.4462 61.7612 47.5126 61.6781 47.5622C61.595 47.6118 61.503 47.6435 61.4077 47.6555C61.2515 47.6849 61.0926 47.6849 60.9351 47.6989C60.8596 47.6979 60.7843 47.6918 60.7096 47.6807C60.4902 47.6302 60.2607 47.6553 60.0563 47.7521C59.7426 47.9342 59.6489 48.3417 59.456 48.6568C59.3382 48.8424 59.1829 48.9995 59.0008 49.1174C58.8187 49.2354 58.614 49.3114 58.4007 49.3403C58.2649 49.3585 57.9933 49.3851 57.8575 49.3025C57.8468 49.2971 57.8368 49.2905 57.8276 49.2828C57.8072 49.2604 57.7828 49.231 57.7719 49.2156C57.7712 49.2124 57.7712 49.2091 57.7719 49.2058C57.7162 48.9943 57.8072 48.7759 57.8113 48.5574V48.5182C57.8018 48.2647 57.795 48.0126 57.7895 47.7605C57.7778 47.2937 57.7733 46.8269 57.776 46.36C57.776 46.0575 57.7434 45.727 57.8683 45.4427C58.0041 45.129 58.3464 45.122 58.4754 44.8153C58.527 44.6921 58.5542 44.5618 58.6045 44.4372C58.6821 44.256 58.8065 44.1002 58.9641 43.9868C59.1217 43.8735 59.3064 43.8069 59.4981 43.7943C60.0944 43.7635 60.6281 44.2607 61.2244 44.2145C61.3779 44.2019 61.5286 44.1529 61.6807 44.1249C62.1629 44.031 62.7211 44.1725 62.9927 44.594C63.0523 44.6808 63.0902 44.7815 63.103 44.887C63.1158 44.9926 63.1031 45.0998 63.0661 45.199Z" fill="#BA68C8"/>
<path d="M57.7088 48.2384C57.696 48.2345 57.6851 48.2256 57.6786 48.2135C57.672 48.2015 57.6702 48.1873 57.6735 48.174C58.4966 44.9893 61.7481 44.5327 62.5127 44.5859C62.5194 44.5863 62.526 44.588 62.5321 44.591C62.5382 44.5941 62.5436 44.5983 62.548 44.6036C62.5524 44.6088 62.5558 44.6149 62.5579 44.6215C62.56 44.6281 62.5608 44.635 62.5603 44.6419C62.5589 44.6556 62.5525 44.6681 62.5423 44.677C62.5322 44.6859 62.5192 44.6904 62.5059 44.6896C61.7603 44.6349 58.5767 45.0845 57.7713 48.202C57.7675 48.2152 57.7589 48.2264 57.7472 48.2332C57.7356 48.24 57.7218 48.2419 57.7088 48.2384Z" fill="white"/>
<path d="M61.3234 46.6215C61.3131 46.6201 61.3036 46.6151 61.2962 46.6075C60.9956 46.3389 60.6412 46.142 60.2583 46.0309C59.8754 45.9198 59.4734 45.8972 59.081 45.9647C59.0678 45.966 59.0546 45.9621 59.044 45.9538C59.0335 45.9455 59.0263 45.9334 59.024 45.9199C59.022 45.9062 59.0253 45.8922 59.0332 45.881C59.041 45.8697 59.0529 45.8621 59.0661 45.8597C59.4753 45.7894 59.8945 45.8134 60.2937 45.9299C60.6929 46.0463 61.0621 46.2524 61.375 46.5333C61.3798 46.5381 61.3836 46.5439 61.3862 46.5503C61.3888 46.5567 61.3902 46.5635 61.3902 46.5704C61.3902 46.5773 61.3888 46.5842 61.3862 46.5906C61.3836 46.5969 61.3798 46.6027 61.375 46.6075C61.3689 46.6151 61.3606 46.6205 61.3514 46.623C61.3421 46.6255 61.3323 46.625 61.3234 46.6215Z" fill="white"/>
<path d="M49.8994 7.13273L50.3313 7.30358V6.32324C50.3313 5.54457 50.933 5.35831 51.5863 5.74765C52.2409 6.13698 52.7706 7.08231 52.7706 7.86098V8.00103C52.8616 7.97234 52.9578 7.96525 53.0519 7.98029C53.146 7.99532 53.2355 8.0321 53.3139 8.08786C53.5619 8.25465 53.7683 8.47943 53.9163 8.74395C54.0643 9.00847 54.1496 9.30525 54.1654 9.61018V9.67461L54.7685 10.0331C54.9316 10.1429 55.0674 10.2908 55.1648 10.4648C55.2623 10.6387 55.3187 10.8339 55.3294 11.0345C55.3294 11.4042 55.0781 11.5541 54.7685 11.3692L49.8994 8.46879C49.7361 8.35923 49.6003 8.2114 49.5031 8.03736C49.4058 7.86333 49.3499 7.66803 49.3398 7.46744C49.3398 7.09911 49.5884 6.94926 49.8994 7.13273Z" fill="#E6E6E6"/>
<path d="M55.6799 6.35484L56.4636 6.8212C56.4593 6.78589 56.457 6.75035 56.4568 6.71477V6.48089C56.4568 6.06074 56.7393 5.89548 57.0897 6.10416C57.2402 6.19922 57.3691 6.32679 57.4673 6.47808C57.5243 5.9543 57.9236 5.75964 58.4071 6.04674C58.6834 6.23212 58.9135 6.48202 59.0787 6.7762C59.2438 7.07037 59.3395 7.40053 59.3578 7.73992V8.09004C59.3613 8.22994 59.3339 8.36882 59.2777 8.49618L59.9296 8.88272C60.0312 8.9522 60.1156 9.04528 60.176 9.15449C60.2364 9.2637 60.2711 9.38599 60.2773 9.51154C60.2773 9.74262 60.1198 9.83645 59.9256 9.72161L55.6799 7.20074C55.5772 7.13175 55.4918 7.03868 55.4307 6.92915C55.3695 6.81962 55.3344 6.69673 55.3281 6.57052C55.3281 6.33384 55.4857 6.24 55.6799 6.35484Z" fill="#E6E6E6"/>
<path d="M52.6459 27.6085C52.0755 28.6029 51.5268 29.467 51.1411 29.8815C50.409 30.2317 48.6896 30.7722 48.0173 30.8619C47.8992 30.8774 47.7796 30.8486 47.6804 30.7806C47.4156 30.6014 47.2105 30.572 46.9321 30.4725C46.7134 30.3955 46.6211 30.2877 46.5803 30.3325C46.5382 30.3834 46.5171 30.4492 46.5214 30.5159C46.5257 30.5826 46.5551 30.645 46.6034 30.6896C46.7079 30.792 46.8237 30.8813 46.9484 30.9557C46.6502 31.032 46.3391 31.0377 46.0384 30.9725C45.4558 30.8143 45.1814 31.1028 45.5753 31.7554C45.7111 31.9879 46.2707 32.3618 47.3952 32.261C47.7964 32.2387 48.196 32.1919 48.5918 32.1209C49.6702 31.8828 50.8694 31.6532 51.6069 31.4207C51.8813 31.3094 52.1268 31.134 52.3241 30.9081C53.5641 29.4502 53.9756 28.411 54.5189 27.4671L54.4727 25.9266C53.5926 25.8958 53.1227 26.7767 52.6459 27.6085Z" fill="#FFA8A7"/>
<path d="M54.6245 25.8931C54.3693 25.8561 54.1092 25.8917 53.8722 25.9962C53.6352 26.1006 53.4304 26.2698 53.2799 26.4855C52.6769 27.2824 51.6094 29.1954 51.6094 29.1954C51.6094 29.1954 51.9584 30.1548 52.901 30.3158L54.4154 28.2067C54.4154 28.2067 55.1325 26.7418 54.6245 25.8931Z" fill="#455A64"/>
<path d="M57.8976 47.3984H56.9102V49.2135H57.8976V47.3984Z" fill="#FFA8A7"/>
<path d="M54.4777 47.3004L53.4917 47.3368L53.4414 45.4153L54.4777 45.3789V47.3004Z" fill="#FFA8A7"/>
<path d="M58.0412 31.6881C58.0412 32.6992 57.8972 40.8459 57.8972 40.8459C57.919 41.1372 58.1689 41.675 58.1186 42.7939C58.0439 44.3135 57.9448 48.3077 57.9448 48.3077C57.7753 48.3971 57.5883 48.4456 57.3979 48.4495C57.2075 48.4534 57.0188 48.4125 56.846 48.3301C56.846 48.3301 56.0447 42.7281 55.8681 41.2282C55.7133 39.9131 55.3167 35.5604 55.3167 35.5604L54.7829 40.7058C54.8961 41.2579 54.9372 41.8231 54.9052 42.3864C54.859 43.0866 54.5412 46.7111 54.5412 46.7111C54.3706 46.8149 54.1793 46.8772 53.9819 46.8935C53.7845 46.9097 53.5861 46.8795 53.4017 46.8049C53.4017 46.8049 52.8394 41.343 52.8285 40.7016C52.8149 39.9734 53.1572 31.6797 53.1572 31.6797L58.0412 31.6881Z" fill="#37474F"/>
<path d="M56.9126 48.6867V48.5355C56.8175 48.5789 56.5989 49.478 56.2064 49.8617C55.8953 50.167 55.4716 50.5186 55.3629 50.8589C55.2543 51.1992 55.9537 51.4079 56.2457 51.3532C56.5826 51.2888 57.1693 51.0325 57.316 50.7931C57.4627 50.5536 57.5319 50.2063 57.6514 50.0326C57.771 49.8589 58.0467 49.6657 58.1105 49.464C58.1304 49.2753 58.1114 49.0844 58.0548 48.9038C58.0086 48.7161 57.9598 48.5103 57.9 48.5285V48.6433C57.7608 48.7611 57.5857 48.8246 57.4056 48.8226C57.2617 48.8352 56.9112 48.8044 56.9126 48.6867Z" fill="#263238"/>
<path d="M53.4804 47.011C53.4288 47.011 53.3867 47.0908 53.274 47.2225C53.1063 47.4043 52.9103 47.5558 52.694 47.6706C52.3246 47.8695 51.6075 48.1748 51.2802 48.3331C51.0764 48.4311 51.0859 48.6944 51.2965 48.8442C51.507 48.9941 52.0136 49.1019 52.622 48.9563C52.9534 48.8765 53.3853 48.5473 53.6597 48.5655C53.934 48.5838 54.4433 48.5782 54.6457 48.4255C54.8481 48.2728 54.7666 47.9563 54.7095 47.6832C54.6471 47.3835 54.5737 46.9172 54.4773 46.9382V47.0432C54.3591 47.2365 53.7466 47.3149 53.4858 47.1735L53.4804 47.011Z" fill="#263238"/>
<path d="M55.312 35.5582C54.7983 35.3849 54.3288 35.0954 53.9375 34.7109C53.9375 34.7109 54.2091 35.2445 54.9914 35.7417L54.823 40.3367L55.312 35.5582Z" fill="#263238"/>
<path d="M57.4901 26.0419C57.4901 26.0419 58.305 26.2351 58.2466 27.7533L58.0769 30.1691V33.7964C57.3516 34.6451 54.1382 34.5834 53.0312 33.7291C53.0312 33.7291 53.1562 29.4367 53.2309 27.7841C53.2839 26.6105 53.546 26.0195 54.6651 25.8906L56.041 25.9522L57.4901 26.0419Z" fill="#BA68C8"/>
<path d="M56.4485 22.8869C56.4532 23.0902 56.4188 23.2924 56.3473 23.4819C56.2759 23.6713 56.1688 23.8444 56.0322 23.991C55.8956 24.1375 55.7322 24.2548 55.5514 24.336C55.3706 24.4171 55.1761 24.4606 54.9789 24.4639C54.164 24.4639 53.6859 23.7384 53.5094 22.8869C53.1834 21.3282 54.1667 21.3086 54.9789 21.3086C55.3768 21.3171 55.755 21.4881 56.0306 21.784C56.3062 22.08 56.4565 22.4767 56.4485 22.8869Z" fill="#263238"/>
<path d="M57.1975 23.5273C57.1975 23.5273 56.972 24.6645 56.881 24.8522C56.8238 24.9651 56.7265 25.0509 56.6094 25.0917L56.6257 24.292L57.1975 23.5273Z" fill="#263238"/>
<path d="M56.9147 21.8968C56.9147 21.8968 57.0763 21.8548 57.2488 22.1321C57.3955 22.3688 57.4294 22.901 57.1985 23.5326L56.7734 23.5858L56.9147 21.8968Z" fill="#263238"/>
<path d="M57.0703 22.1297L57.5919 22.1395C57.5954 22.1047 57.592 22.0696 57.5818 22.0362C57.5715 22.0029 57.5547 21.9721 57.5324 21.9458C57.5101 21.9195 57.4827 21.8983 57.4521 21.8834C57.4214 21.8685 57.3881 21.8603 57.3542 21.8594C57.2829 21.8604 57.2145 21.8886 57.1621 21.9385C57.1097 21.9884 57.077 22.0565 57.0703 22.1297Z" fill="#263238"/>
<path d="M57.1318 22.0002L57.5176 21.6179C57.4953 21.5908 57.4679 21.5689 57.437 21.5533C57.4062 21.5378 57.3725 21.529 57.3382 21.5276C57.3038 21.5261 57.2696 21.532 57.2376 21.5449C57.2056 21.5578 57.1765 21.5774 57.1522 21.6025C57.1011 21.654 57.0706 21.7236 57.0668 21.7972C57.063 21.8709 57.0862 21.9433 57.1318 22.0002Z" fill="#263238"/>
<path d="M56.645 23.5813C56.7306 23.6359 56.8514 23.4609 56.9574 23.3418C57.0633 23.2228 57.392 23.1136 57.5631 23.5001C57.7343 23.8866 57.4422 24.269 57.1978 24.395C56.7591 24.6191 56.6205 24.2928 56.6205 24.2928L56.5839 26.0938C55.9673 27.0741 54.5683 27.0433 55.0722 26.0462V25.4986C54.865 25.5341 54.6545 25.5454 54.4447 25.5322C54.1025 25.4762 53.8879 25.1863 53.7833 24.7885C53.6176 24.1499 53.5538 23.6345 53.695 22.3783C53.8499 21.003 55.3411 20.9876 56.1398 21.538C56.9384 22.0884 56.645 23.5813 56.645 23.5813Z" fill="#FFA8A7"/>
<path d="M54.785 22.162C55.1408 22.1256 55.4926 22.05 55.8498 22.0219C55.9268 22.0123 56.0049 22.0161 56.0807 22.0331C56.3523 22.1102 56.3197 22.4379 56.3632 22.6662C56.4379 23.0611 56.499 23.7291 56.643 23.7319C56.6864 23.7319 56.8494 23.442 56.9554 23.3384C57.0136 23.2491 57.0465 23.1448 57.0504 23.0373C57.0776 22.8748 57.0912 22.7082 57.1034 22.5429C57.1143 22.4029 57.1278 22.2628 57.1278 22.1228C57.1341 21.9645 57.1217 21.806 57.0912 21.6508C57.0571 21.5187 56.9918 21.3975 56.901 21.2979L56.8739 21.2671C56.6948 21.0741 56.4776 20.9231 56.2369 20.8245C55.8906 20.6908 55.5274 20.6092 55.1585 20.5822C54.7901 20.5553 54.4234 20.5086 54.0597 20.4422C54.0389 20.4359 54.0167 20.4359 53.9959 20.4422C53.9811 20.4506 53.9687 20.4627 53.9597 20.4774C53.9507 20.4921 53.9454 20.5089 53.9443 20.5262C53.9294 20.6133 53.9387 20.7029 53.9711 20.7846C54.0036 20.8664 54.0579 20.9371 54.1276 20.9884C53.8818 21.008 53.5993 20.8763 53.363 20.8091C53.3439 20.8008 53.3233 20.7965 53.3025 20.7965C53.2818 20.7965 53.2612 20.8008 53.2421 20.8091C53.2184 20.8262 53.2015 20.8516 53.1946 20.8805C53.1774 20.9463 53.175 21.0153 53.1878 21.0822C53.2094 21.2849 53.2825 21.4781 53.3996 21.6424C53.5827 21.8882 53.8413 22.0625 54.1331 22.1368C54.3478 22.1795 54.5677 22.188 54.785 22.162Z" fill="#263238"/>
<path d="M55.0703 25.4991C55.0703 25.4991 55.8336 25.3339 56.0998 25.1812C56.2584 25.0917 56.3871 24.9551 56.4692 24.7891C56.4292 24.9559 56.3576 25.1129 56.2587 25.2512C56.0645 25.5201 55.0703 25.7162 55.0703 25.7162V25.4991Z" fill="#F28F8F"/>
<path d="M55.2579 23.3709C55.2564 23.4141 55.2716 23.4562 55.3001 23.488C55.3286 23.5197 55.3681 23.5385 55.41 23.5404C55.4433 23.5432 55.4766 23.5356 55.5056 23.5185C55.5346 23.5015 55.558 23.4758 55.5726 23.4449C55.5872 23.4139 55.5924 23.3791 55.5875 23.3451C55.5826 23.311 55.5679 23.2793 55.5452 23.254C55.5225 23.2288 55.493 23.2111 55.4604 23.2035C55.4279 23.1958 55.3938 23.1985 55.3628 23.2111C55.3317 23.2238 55.3051 23.2458 55.2864 23.2743C55.2677 23.3028 55.2577 23.3365 55.2579 23.3709Z" fill="#263238"/>
<path d="M55.5039 22.695L55.8312 22.8897C55.855 22.8417 55.8604 22.7862 55.8463 22.7343C55.8323 22.6824 55.7997 22.6378 55.7552 22.6096C55.7335 22.597 55.7095 22.5893 55.6847 22.5868C55.6599 22.5843 55.6349 22.5872 55.6113 22.5952C55.5877 22.6033 55.5659 22.6163 55.5474 22.6335C55.5289 22.6507 55.5141 22.6716 55.5039 22.695Z" fill="#263238"/>
<path d="M55.1459 24.5078L54.7969 24.6479C54.8039 24.6725 54.8158 24.6955 54.8317 24.7152C54.8477 24.735 54.8675 24.7512 54.8898 24.7627C54.912 24.7743 54.9364 24.781 54.9613 24.7824C54.9862 24.7839 55.0112 24.78 55.0346 24.7711C55.0821 24.75 55.12 24.711 55.1407 24.6622C55.1614 24.6133 55.1632 24.5581 55.1459 24.5078Z" fill="#F28F8F"/>
<path d="M53.8524 22.838L54.1512 22.5915C54.1378 22.57 54.1201 22.5517 54.0994 22.5376C54.0787 22.5236 54.0553 22.5143 54.0308 22.5102C54.0064 22.5061 53.9813 22.5073 53.9574 22.5139C53.9334 22.5204 53.9111 22.5321 53.8917 22.5481C53.8518 22.583 53.8257 22.6319 53.8185 22.6853C53.8112 22.7388 53.8233 22.7932 53.8524 22.838Z" fill="#263238"/>
<path d="M53.9845 23.3271C53.9869 23.3578 53.9979 23.387 54.0161 23.4113C54.0344 23.4357 54.0591 23.454 54.0872 23.464C54.1154 23.4741 54.1458 23.4755 54.1747 23.468C54.2037 23.4606 54.2298 23.4446 54.2501 23.422C54.2704 23.3995 54.2838 23.3713 54.2888 23.341C54.2938 23.3107 54.2901 23.2796 54.2782 23.2514C54.2664 23.2232 54.2468 23.1992 54.2219 23.1823C54.1969 23.1654 54.1678 23.1563 54.138 23.1562C54.117 23.157 54.0964 23.162 54.0773 23.171C54.0582 23.18 54.041 23.1928 54.0267 23.2087C54.0124 23.2246 54.0014 23.2432 53.9941 23.2635C53.9869 23.2839 53.9836 23.3055 53.9845 23.3271Z" fill="#263238"/>
<path d="M54.8046 23.1953L54.787 24.1911L54.2383 24.0622L54.8046 23.1953Z" fill="#F28F8F"/>
<path d="M41.7734 31.534L42.625 31.027L42.9618 30.6055L42.1116 31.1124L41.7734 31.534Z" fill="#BA68C8"/>
<path opacity="0.4" d="M41.7734 31.534L42.625 31.027L42.9618 30.6055L42.1116 31.1124L41.7734 31.534Z" fill="black"/>
<path d="M44.0859 32.9132L44.9375 32.4062L45.6478 31.7578L44.7976 32.2634L44.0859 32.9132Z" fill="#BA68C8"/>
<path opacity="0.4" d="M44.0859 32.9132L44.9375 32.4062L45.6478 31.7578L44.7976 32.2634L44.0859 32.9132Z" fill="black"/>
<path d="M51.32 34.6598C51.5213 34.9381 51.6432 35.2689 51.6717 35.6149C51.4712 35.3361 51.3495 35.0055 51.32 34.6598ZM53.2988 34.6864C53.0122 32.6767 51.9651 30.6894 50.7183 29.9457C50.1193 29.5886 49.5652 29.576 49.1211 29.8435L48.3197 30.3197L48.2749 30.3477C48.2392 30.3679 48.2048 30.3904 48.1717 30.4149C48.1059 30.4616 48.0441 30.5141 47.987 30.5718L47.9598 30.5984C47.9354 30.6236 47.9096 30.653 47.8865 30.681C47.8634 30.709 47.8281 30.7524 47.8009 30.7902C47.7433 30.8685 47.6911 30.9508 47.6447 31.0367C47.6203 31.0801 47.5972 31.1263 47.5755 31.1768L40.5768 27.0117L39.7266 27.5173V28.0775L39.7985 28.1195L39.8665 28.1601V28.2722L39.7306 28.3548V28.6797L40.7588 30.9205L41.7747 31.5269L42.1129 31.1067L43.0093 31.6599L43.524 32.5688L44.0917 32.9064L44.8021 32.2565L45.674 32.7761L45.9674 34.0239L47.4329 34.8979C47.5053 35.2154 47.596 35.5283 47.7045 35.8348C47.714 35.8656 47.7262 35.8978 47.7384 35.9328C48.2247 37.2493 48.9975 38.3767 49.8694 38.8962C49.9739 38.9601 50.0834 39.015 50.1967 39.0601C50.2567 39.0847 50.3179 39.1057 50.3801 39.1231C50.4344 39.1381 50.4888 39.1507 50.5431 39.1609C50.7146 39.1932 50.8904 39.1932 51.0619 39.1609L51.1325 39.1427C51.1663 39.1357 51.1995 39.1259 51.2317 39.1133L51.3077 39.0825C51.3347 39.0725 51.3606 39.0598 51.3851 39.0447C51.4103 39.0335 51.4347 39.0209 51.4585 39.0069L51.4938 38.9845C51.5002 38.9823 51.5062 38.979 51.5115 38.9747C51.7057 38.8598 52.1838 38.5741 52.3141 38.4985C52.9606 38.112 53.379 37.1344 53.379 35.7521C53.3779 35.3953 53.3511 35.0391 53.2988 34.6864Z" fill="#BA68C8"/>
<path d="M51.0728 36.358C50.7359 36.1577 50.4643 35.5639 50.4643 35.0317C50.4643 34.4995 50.7359 34.2293 51.0728 34.4281C51.4096 34.627 51.6799 35.2222 51.6799 35.7558C51.6799 36.2894 51.4082 36.5583 51.0728 36.358ZM52.4486 35.1942C52.1634 33.1859 51.1162 31.1972 49.8681 30.4549C49.2895 30.1104 48.7544 30.0852 48.3197 30.3219L48.2749 30.3499C48.2392 30.3702 48.2048 30.3926 48.1717 30.4171C48.1059 30.4639 48.0441 30.5163 47.987 30.574L47.9598 30.6006C47.9354 30.6258 47.9096 30.6552 47.8865 30.6832C47.8634 30.7112 47.8281 30.7547 47.8009 30.7925C47.7433 30.8707 47.6911 30.9531 47.6447 31.039C47.6203 31.0824 47.5972 31.1286 47.5755 31.179C47.4488 31.4497 47.3575 31.7365 47.3038 32.0319L39.7266 27.5195V28.0797L39.7985 28.1217L39.8665 28.1624V28.2744L39.7306 28.357V28.6819L40.7588 30.9227L41.7747 31.5291L42.1129 31.109L43.0093 31.6622L43.524 32.5711L44.0917 32.9086L44.8021 32.2588L45.674 32.7784L45.9674 34.0262L47.4342 34.9001C47.5066 35.2177 47.5974 35.5305 47.7059 35.837C47.7154 35.8678 47.7276 35.9 47.7398 35.935C48.226 37.2515 48.9988 38.3789 49.8708 38.8985C49.9753 38.9624 50.0848 39.0172 50.1981 39.0623C50.258 39.0869 50.3192 39.1079 50.3815 39.1254C50.4358 39.1403 50.4901 39.1529 50.5444 39.1632C50.716 39.1954 50.8917 39.1954 51.0633 39.1632L51.1339 39.145C51.1677 39.1379 51.2008 39.1281 51.233 39.1156L51.3091 39.0847C51.336 39.0747 51.3619 39.0621 51.3865 39.0469C51.4116 39.0357 51.4361 39.0231 51.4599 39.0091L51.4952 38.9867C51.5016 38.9845 51.5075 38.9812 51.5128 38.9769C52.1321 38.5736 52.5301 37.61 52.5301 36.2614C52.5278 35.9041 52.5006 35.5474 52.4486 35.1942Z" fill="#BA68C8"/>
<path opacity="0.4" d="M51.6843 35.7556C51.6843 36.2892 51.4127 36.5595 51.0772 36.3592C50.7417 36.159 50.4688 35.5666 50.4688 35.033C50.4688 34.4994 50.7404 34.2291 51.0772 34.4294C51.1742 34.4902 51.2587 34.5702 51.3258 34.6646C51.355 35.0105 51.4767 35.3411 51.6775 35.6198C51.6825 35.6649 51.6848 35.7102 51.6843 35.7556Z" fill="black"/>
<path opacity="0.4" d="M53.3782 35.7525C53.3782 37.1348 52.9598 38.1123 52.3134 38.4989C52.1775 38.5745 51.7049 38.8602 51.5107 38.975C52.13 38.5717 52.5279 37.6081 52.5279 36.2595C52.5265 35.9027 52.5002 35.5466 52.4492 35.1937C52.164 33.1854 51.1168 31.1967 49.8686 30.4545C49.2901 30.1099 48.7549 30.0847 48.3203 30.3214L49.1216 29.8453C49.5658 29.5778 50.1199 29.5904 50.7189 29.9475C51.967 30.6911 53.0142 32.6784 53.2994 34.6881C53.3511 35.0404 53.3775 35.3962 53.3782 35.7525Z" fill="white"/>
<path d="M52.5251 36.2587C52.5251 37.6074 52.1271 38.5709 51.5078 38.9742C51.702 38.8594 52.1801 38.5737 52.3105 38.4981C52.957 38.1115 53.3753 37.134 53.3753 35.7517C53.3753 35.7013 53.3753 35.6495 53.3753 35.5977L52.5251 36.1046C52.5237 36.1593 52.5251 36.2097 52.5251 36.2587Z" fill="#BA68C8"/>
<path opacity="0.1" d="M52.5251 36.2587C52.5251 37.6074 52.1271 38.5709 51.5078 38.9742C51.702 38.8594 52.1801 38.5737 52.3105 38.4981C52.957 38.1115 53.3753 37.134 53.3753 35.7517C53.3753 35.7013 53.3753 35.6495 53.3753 35.5977L52.5251 36.1046C52.5237 36.1593 52.5251 36.2097 52.5251 36.2587Z" fill="black"/>
<path opacity="0.15" d="M47.3351 32.6067V32.891L39.7266 28.3618L39.8665 28.2778V28.1602L47.3351 32.6067Z" fill="black"/>
<path opacity="0.15" d="M47.3351 32.7253V32.8919L39.7266 28.3628L39.8665 28.2787V28.2773L47.3351 32.7253Z" fill="black"/>
<path opacity="0.15" d="M50.6461 38.499C50.3577 38.4912 50.0765 38.4047 49.8312 38.2483C48.5912 37.5102 47.582 35.3143 47.582 33.3536C47.582 32.2094 47.9175 31.3551 48.5029 31.0064C48.9103 30.7627 49.3925 30.7935 49.8991 31.0946C51.1377 31.8327 52.1469 34.0356 52.1469 35.9963C52.1469 37.1391 51.8114 37.9948 51.226 38.3421C51.0495 38.4461 50.8494 38.5002 50.6461 38.499ZM49.091 30.9854C48.91 30.9843 48.7319 31.0326 48.5749 31.1254C48.0411 31.4433 47.7219 32.2766 47.7219 33.3522C47.7219 35.268 48.6998 37.4136 49.9032 38.125C50.3636 38.4051 50.7996 38.4303 51.1622 38.2147C51.696 37.8968 52.0151 37.0649 52.0151 35.9893C52.0151 34.072 51.0372 31.9279 49.8353 31.215C49.6106 31.0741 49.3539 30.9968 49.091 30.991V30.9854Z" fill="black"/>
<path opacity="0.4" d="M47.5716 31.1768C47.4449 31.4475 47.3536 31.7343 47.2999 32.0297L39.7227 27.5173L40.5729 27.0117L47.5716 31.1768Z" fill="white"/>
<path d="M57.4229 31.615C57.8195 30.8406 58.2731 29.1012 58.4986 28.2231C58.8191 26.9766 58.3003 26.1924 57.7109 26.1602C57.3428 26.219 56.1299 30.7664 56.1299 30.7664C55.9941 30.877 54.1511 31.8419 53.5589 32.0842C53.453 32.1255 53.3361 32.1255 53.2302 32.0842C52.9464 31.9778 52.7522 31.9974 52.4737 31.9694C52.2551 31.947 52.1451 31.8671 52.1165 31.9148C52.0906 31.9738 52.0873 32.0408 52.1072 32.1024C52.1271 32.1639 52.1687 32.2154 52.2238 32.2467C52.3437 32.3187 52.4713 32.376 52.6041 32.4175C52.3661 32.492 52.118 32.5265 51.8693 32.5198C51.2989 32.5072 51.0938 32.762 51.5366 33.3601C51.8082 33.7326 52.2578 33.8502 53.2615 33.4931C53.5494 33.3895 53.9406 33.1892 54.3059 33.0533C55.0583 32.7732 55.2566 32.7396 55.8298 32.5394C56.6651 32.2481 57.2464 31.9596 57.4229 31.615Z" fill="#FFA8A7"/>
<path d="M57.4856 26.043C57.8319 26.092 58.1647 26.1718 58.3698 26.4631C58.5749 26.7544 58.7392 27.1634 58.5382 28.2767C58.3843 29.0598 58.1782 29.8309 57.9216 30.5847C57.9216 30.5847 57.1148 30.9405 56.2578 30.0386L56.8473 27.6885C56.8473 27.6885 56.9423 26.1606 57.4856 26.043Z" fill="#455A64"/>
</svg>
