<svg width="24" height="24" viewBox="0 0 24 24" fill="none" xmlns="http://www.w3.org/2000/svg">
<path d="M23.7666 9.6498H22.8V9.6H12V14.4H18.7818C17.7924 17.1942 15.1338 19.2 12 19.2C8.0238 19.2 4.8 15.9762 4.8 12C4.8 8.0238 8.0238 4.8 12 4.8C13.8354 4.8 15.5052 5.4924 16.7766 6.6234L20.1708 3.2292C18.0276 1.2318 15.1608 0 12 0C5.373 0 0 5.373 0 12C0 18.627 5.373 24 12 24C18.627 24 24 18.627 24 12C24 11.1954 23.9172 10.41 23.7666 9.6498Z" fill="#FFC107"/>
<path d="M1.38281 6.4146L5.32541 9.306C6.39221 6.6648 8.97581 4.8 11.9992 4.8C13.8346 4.8 15.5044 5.4924 16.7758 6.6234L20.17 3.2292C18.0268 1.2318 15.16 0 11.9992 0C7.39001 0 3.39281 2.6022 1.38281 6.4146Z" fill="#FF3D00"/>
<path d="M12.0033 24C15.1029 24 17.9193 22.8138 20.0487 20.8848L16.3347 17.742C15.0894 18.689 13.5678 19.2012 12.0033 19.2C8.88211 19.2 6.23191 17.2098 5.23351 14.4324L1.32031 17.4474C3.30631 21.3336 7.33951 24 12.0033 24Z" fill="#4CAF50"/>
<path d="M23.7666 9.6499H22.8V9.6001H12V14.4001H18.7818C18.3085 15.7299 17.456 16.892 16.3296 17.7427L16.3314 17.7415L20.0454 20.8843C19.7826 21.1231 24 18.0001 24 12.0001C24 11.1955 23.9172 10.4101 23.7666 9.6499Z" fill="#1976D2"/>
</svg>
