<svg width="80" height="80" viewBox="0 0 80 80" fill="none" xmlns="http://www.w3.org/2000/svg">
<circle cx="40" cy="40" r="39.5" fill="black"/>
<circle cx="40" cy="40" r="39.5" stroke="#E1DDDD"/>
<circle cx="40" cy="40" r="39.5" stroke="black" stroke-opacity="0.2"/>
<mask id="path-2-inside-1_3501_1148" fill="white">
<path d="M16 48.2702H25.336V49.6004H16V48.2702ZM16 45.7116H25.336V47.0448H16V45.7116ZM18.6565 43.156H22.6645V44.4966H18.6565V43.156ZM18.6565 40.6094H22.6645V41.95H18.6565V40.6094ZM18.6565 38.0508H22.6645V39.3914H18.6565V38.0508ZM18.6565 35.4952H22.6645V36.8358H18.6565V35.4952ZM16 32.9485H25.336V34.2892H16V32.9485ZM16 30.4004H25.336V31.7306H16V30.4004ZM26.6635 47.0448H41.0155C41.257 46.6318 41.446 46.1814 41.554 45.7116H26.6635V47.0448ZM39.898 40.6094H29.3365V41.95H41.0245C40.726 41.4428 40.345 40.9909 39.907 40.6094H39.898ZM29.3275 38.0508V39.3914H39.898C40.3525 39.0188 40.7185 38.5655 41.0245 38.0508H29.3275ZM41.0155 32.9485H26.6635V34.2892H41.545C41.4295 33.8208 41.2495 33.369 41.0155 32.9485ZM36.61 30.4004H26.6635V31.7306H40.0315C39.1015 30.8747 37.876 30.4004 36.61 30.4004ZM29.3275 35.4952H33.328V36.8358H29.3275V35.4952ZM37.336 36.8358H41.5165C41.632 36.4064 41.6965 35.9635 41.6965 35.4952H37.336V36.8358ZM29.3275 43.156H33.328V44.4966H29.3275V43.156ZM37.336 43.156V44.4966H41.6965C41.6965 44.0358 41.632 43.5854 41.5165 43.156H37.336ZM26.6635 49.5944L36.601 49.6004C37.9375 49.6004 39.139 49.0962 40.039 48.2702H26.6635V49.5944ZM42.6715 48.2702H49.327V49.6004H42.6715V48.2702ZM42.6715 45.7116H49.327V47.0448H42.6715V45.7116ZM45.328 43.156H49.3285V44.4966H45.328V43.156ZM45.328 40.6094H49.3285V41.95H45.328V40.6094ZM51.1885 32.9485H42.673V34.2892H51.649L51.1885 32.9485ZM50.3035 30.4004H42.6715V31.7306H50.7655L50.3035 30.4004ZM57.328 48.2702H64V49.6004H57.328V48.2702ZM57.328 45.7116H64V47.0448H57.328V45.7116ZM57.328 43.156H61.3285V44.4966H57.328V43.156ZM57.328 40.6094H61.3285V41.95H57.328V40.6094ZM57.328 39.3914H61.3285V38.0508H53.71L53.3275 39.1341L52.954 38.0508H45.328V39.3914H49.3285V38.16L49.759 39.3914H56.9065L57.328 38.16V39.3914ZM61.3285 35.4952H54.595L54.133 36.8358H61.3285V35.4952ZM56.368 30.4004L55.906 31.7306H64V30.4004H56.368ZM53.3275 49.5944L53.7895 48.2702H52.867L53.3275 49.5944ZM52.4455 47.0448H54.217L54.6955 45.7116H51.976L52.4455 47.0448ZM51.5455 44.4966H55.117L55.585 43.156H51.0775L51.5455 44.4966ZM50.656 41.95H56.0155L56.467 40.6094H50.1955L50.656 41.95ZM45.328 36.8358H52.5325L52.0705 35.4952H45.328V36.8358ZM55.024 34.2892H64V32.9485H55.4755L55.024 34.2892Z"/>
</mask>
<path d="M16 48.2702H25.336V49.6004H16V48.2702ZM16 45.7116H25.336V47.0448H16V45.7116ZM18.6565 43.156H22.6645V44.4966H18.6565V43.156ZM18.6565 40.6094H22.6645V41.95H18.6565V40.6094ZM18.6565 38.0508H22.6645V39.3914H18.6565V38.0508ZM18.6565 35.4952H22.6645V36.8358H18.6565V35.4952ZM16 32.9485H25.336V34.2892H16V32.9485ZM16 30.4004H25.336V31.7306H16V30.4004ZM26.6635 47.0448H41.0155C41.257 46.6318 41.446 46.1814 41.554 45.7116H26.6635V47.0448ZM39.898 40.6094H29.3365V41.95H41.0245C40.726 41.4428 40.345 40.9909 39.907 40.6094H39.898ZM29.3275 38.0508V39.3914H39.898C40.3525 39.0188 40.7185 38.5655 41.0245 38.0508H29.3275ZM41.0155 32.9485H26.6635V34.2892H41.545C41.4295 33.8208 41.2495 33.369 41.0155 32.9485ZM36.61 30.4004H26.6635V31.7306H40.0315C39.1015 30.8747 37.876 30.4004 36.61 30.4004ZM29.3275 35.4952H33.328V36.8358H29.3275V35.4952ZM37.336 36.8358H41.5165C41.632 36.4064 41.6965 35.9635 41.6965 35.4952H37.336V36.8358ZM29.3275 43.156H33.328V44.4966H29.3275V43.156ZM37.336 43.156V44.4966H41.6965C41.6965 44.0358 41.632 43.5854 41.5165 43.156H37.336ZM26.6635 49.5944L36.601 49.6004C37.9375 49.6004 39.139 49.0962 40.039 48.2702H26.6635V49.5944ZM42.6715 48.2702H49.327V49.6004H42.6715V48.2702ZM42.6715 45.7116H49.327V47.0448H42.6715V45.7116ZM45.328 43.156H49.3285V44.4966H45.328V43.156ZM45.328 40.6094H49.3285V41.95H45.328V40.6094ZM51.1885 32.9485H42.673V34.2892H51.649L51.1885 32.9485ZM50.3035 30.4004H42.6715V31.7306H50.7655L50.3035 30.4004ZM57.328 48.2702H64V49.6004H57.328V48.2702ZM57.328 45.7116H64V47.0448H57.328V45.7116ZM57.328 43.156H61.3285V44.4966H57.328V43.156ZM57.328 40.6094H61.3285V41.95H57.328V40.6094ZM57.328 39.3914H61.3285V38.0508H53.71L53.3275 39.1341L52.954 38.0508H45.328V39.3914H49.3285V38.16L49.759 39.3914H56.9065L57.328 38.16V39.3914ZM61.3285 35.4952H54.595L54.133 36.8358H61.3285V35.4952ZM56.368 30.4004L55.906 31.7306H64V30.4004H56.368ZM53.3275 49.5944L53.7895 48.2702H52.867L53.3275 49.5944ZM52.4455 47.0448H54.217L54.6955 45.7116H51.976L52.4455 47.0448ZM51.5455 44.4966H55.117L55.585 43.156H51.0775L51.5455 44.4966ZM50.656 41.95H56.0155L56.467 40.6094H50.1955L50.656 41.95ZM45.328 36.8358H52.5325L52.0705 35.4952H45.328V36.8358ZM55.024 34.2892H64V32.9485H55.4755L55.024 34.2892Z" fill="black"/>
<path d="M16 48.2702H25.336V49.6004H16V48.2702ZM16 45.7116H25.336V47.0448H16V45.7116ZM18.6565 43.156H22.6645V44.4966H18.6565V43.156ZM18.6565 40.6094H22.6645V41.95H18.6565V40.6094ZM18.6565 38.0508H22.6645V39.3914H18.6565V38.0508ZM18.6565 35.4952H22.6645V36.8358H18.6565V35.4952ZM16 32.9485H25.336V34.2892H16V32.9485ZM16 30.4004H25.336V31.7306H16V30.4004ZM26.6635 47.0448H41.0155C41.257 46.6318 41.446 46.1814 41.554 45.7116H26.6635V47.0448ZM39.898 40.6094H29.3365V41.95H41.0245C40.726 41.4428 40.345 40.9909 39.907 40.6094H39.898ZM29.3275 38.0508V39.3914H39.898C40.3525 39.0188 40.7185 38.5655 41.0245 38.0508H29.3275ZM41.0155 32.9485H26.6635V34.2892H41.545C41.4295 33.8208 41.2495 33.369 41.0155 32.9485ZM36.61 30.4004H26.6635V31.7306H40.0315C39.1015 30.8747 37.876 30.4004 36.61 30.4004ZM29.3275 35.4952H33.328V36.8358H29.3275V35.4952ZM37.336 36.8358H41.5165C41.632 36.4064 41.6965 35.9635 41.6965 35.4952H37.336V36.8358ZM29.3275 43.156H33.328V44.4966H29.3275V43.156ZM37.336 43.156V44.4966H41.6965C41.6965 44.0358 41.632 43.5854 41.5165 43.156H37.336ZM26.6635 49.5944L36.601 49.6004C37.9375 49.6004 39.139 49.0962 40.039 48.2702H26.6635V49.5944ZM42.6715 48.2702H49.327V49.6004H42.6715V48.2702ZM42.6715 45.7116H49.327V47.0448H42.6715V45.7116ZM45.328 43.156H49.3285V44.4966H45.328V43.156ZM45.328 40.6094H49.3285V41.95H45.328V40.6094ZM51.1885 32.9485H42.673V34.2892H51.649L51.1885 32.9485ZM50.3035 30.4004H42.6715V31.7306H50.7655L50.3035 30.4004ZM57.328 48.2702H64V49.6004H57.328V48.2702ZM57.328 45.7116H64V47.0448H57.328V45.7116ZM57.328 43.156H61.3285V44.4966H57.328V43.156ZM57.328 40.6094H61.3285V41.95H57.328V40.6094ZM57.328 39.3914H61.3285V38.0508H53.71L53.3275 39.1341L52.954 38.0508H45.328V39.3914H49.3285V38.16L49.759 39.3914H56.9065L57.328 38.16V39.3914ZM61.3285 35.4952H54.595L54.133 36.8358H61.3285V35.4952ZM56.368 30.4004L55.906 31.7306H64V30.4004H56.368ZM53.3275 49.5944L53.7895 48.2702H52.867L53.3275 49.5944ZM52.4455 47.0448H54.217L54.6955 45.7116H51.976L52.4455 47.0448ZM51.5455 44.4966H55.117L55.585 43.156H51.0775L51.5455 44.4966ZM50.656 41.95H56.0155L56.467 40.6094H50.1955L50.656 41.95ZM45.328 36.8358H52.5325L52.0705 35.4952H45.328V36.8358ZM55.024 34.2892H64V32.9485H55.4755L55.024 34.2892Z" stroke="#E1DDDD" stroke-width="4" mask="url(#path-2-inside-1_3501_1148)"/>
<path d="M16 48.2702H25.336V49.6004H16V48.2702ZM16 45.7116H25.336V47.0448H16V45.7116ZM18.6565 43.156H22.6645V44.4966H18.6565V43.156ZM18.6565 40.6094H22.6645V41.95H18.6565V40.6094ZM18.6565 38.0508H22.6645V39.3914H18.6565V38.0508ZM18.6565 35.4952H22.6645V36.8358H18.6565V35.4952ZM16 32.9485H25.336V34.2892H16V32.9485ZM16 30.4004H25.336V31.7306H16V30.4004ZM26.6635 47.0448H41.0155C41.257 46.6318 41.446 46.1814 41.554 45.7116H26.6635V47.0448ZM39.898 40.6094H29.3365V41.95H41.0245C40.726 41.4428 40.345 40.9909 39.907 40.6094H39.898ZM29.3275 38.0508V39.3914H39.898C40.3525 39.0188 40.7185 38.5655 41.0245 38.0508H29.3275ZM41.0155 32.9485H26.6635V34.2892H41.545C41.4295 33.8208 41.2495 33.369 41.0155 32.9485ZM36.61 30.4004H26.6635V31.7306H40.0315C39.1015 30.8747 37.876 30.4004 36.61 30.4004ZM29.3275 35.4952H33.328V36.8358H29.3275V35.4952ZM37.336 36.8358H41.5165C41.632 36.4064 41.6965 35.9635 41.6965 35.4952H37.336V36.8358ZM29.3275 43.156H33.328V44.4966H29.3275V43.156ZM37.336 43.156V44.4966H41.6965C41.6965 44.0358 41.632 43.5854 41.5165 43.156H37.336ZM26.6635 49.5944L36.601 49.6004C37.9375 49.6004 39.139 49.0962 40.039 48.2702H26.6635V49.5944ZM42.6715 48.2702H49.327V49.6004H42.6715V48.2702ZM42.6715 45.7116H49.327V47.0448H42.6715V45.7116ZM45.328 43.156H49.3285V44.4966H45.328V43.156ZM45.328 40.6094H49.3285V41.95H45.328V40.6094ZM51.1885 32.9485H42.673V34.2892H51.649L51.1885 32.9485ZM50.3035 30.4004H42.6715V31.7306H50.7655L50.3035 30.4004ZM57.328 48.2702H64V49.6004H57.328V48.2702ZM57.328 45.7116H64V47.0448H57.328V45.7116ZM57.328 43.156H61.3285V44.4966H57.328V43.156ZM57.328 40.6094H61.3285V41.95H57.328V40.6094ZM57.328 39.3914H61.3285V38.0508H53.71L53.3275 39.1341L52.954 38.0508H45.328V39.3914H49.3285V38.16L49.759 39.3914H56.9065L57.328 38.16V39.3914ZM61.3285 35.4952H54.595L54.133 36.8358H61.3285V35.4952ZM56.368 30.4004L55.906 31.7306H64V30.4004H56.368ZM53.3275 49.5944L53.7895 48.2702H52.867L53.3275 49.5944ZM52.4455 47.0448H54.217L54.6955 45.7116H51.976L52.4455 47.0448ZM51.5455 44.4966H55.117L55.585 43.156H51.0775L51.5455 44.4966ZM50.656 41.95H56.0155L56.467 40.6094H50.1955L50.656 41.95ZM45.328 36.8358H52.5325L52.0705 35.4952H45.328V36.8358ZM55.024 34.2892H64V32.9485H55.4755L55.024 34.2892Z" stroke="black" stroke-opacity="0.2" stroke-width="4" mask="url(#path-2-inside-1_3501_1148)"/>
</svg>
