<svg width="300" height="181" viewBox="0 0 300 181" fill="none" xmlns="http://www.w3.org/2000/svg">
<path d="M67.4023 22.9512H39.7111L39.3418 26.4727H67.4023V22.9512Z" stroke="#263238" stroke-miterlimit="10"/>
<path d="M67.4023 26.4727H39.7111L39.3418 29.9942H67.4023V26.4727Z" stroke="#263238" stroke-miterlimit="10"/>
<path d="M67.4023 29.9941H39.7111L39.3418 33.5157H67.4023V29.9941Z" stroke="#263238" stroke-miterlimit="10"/>
<path d="M67.4023 33.5156H39.7111L39.3418 37.0372H67.4023V33.5156Z" stroke="#263238" stroke-miterlimit="10"/>
<path d="M67.4023 37.0371H39.7111L39.3418 40.5546H67.4023V37.0371Z" stroke="#263238" stroke-miterlimit="10"/>
<path d="M67.4023 40.5547H39.7111L39.3418 44.0762H67.4023V40.5547Z" stroke="#263238" stroke-miterlimit="10"/>
<path d="M67.4023 44.0762H39.7111L39.3418 47.5977H67.4023V44.0762Z" stroke="#263238" stroke-miterlimit="10"/>
<path d="M67.4023 47.5977H39.7111L39.3418 51.1192H67.4023V47.5977Z" stroke="#263238" stroke-miterlimit="10"/>
<path d="M67.4023 51.1191H39.7111L39.3418 54.6407H67.4023V51.1191Z" stroke="#263238" stroke-miterlimit="10"/>
<path d="M67.4023 54.6406H39.7111L39.3418 58.1622H67.4023V54.6406Z" stroke="#263238" stroke-miterlimit="10"/>
<path d="M67.4023 58.1621H39.7111L39.3418 61.6837H67.4023V58.1621Z" stroke="#263238" stroke-miterlimit="10"/>
<path d="M67.4023 61.6836H39.7111L39.3418 65.2051H67.4023V61.6836Z" stroke="#263238" stroke-miterlimit="10"/>
<path d="M67.4023 65.207H39.7111L39.3418 68.7286H67.4023V65.207Z" stroke="#263238" stroke-miterlimit="10"/>
<path d="M67.4023 68.7266H39.7111L39.3418 72.2481H67.4023V68.7266Z" stroke="#263238" stroke-miterlimit="10"/>
<path d="M67.4023 72.25H39.7111L39.3418 75.7716H67.4023V72.25Z" stroke="#263238" stroke-miterlimit="10"/>
<path d="M67.4023 75.7617H39.7111L39.3418 79.2833H67.4023V75.7617Z" stroke="#263238" stroke-miterlimit="10"/>
<path d="M67.4023 79.2793H39.7111L39.3418 82.8008H67.4023V79.2793Z" stroke="#263238" stroke-miterlimit="10"/>
<path d="M67.4023 82.793H39.7111L39.3418 86.3145H67.4023V82.793Z" stroke="#263238" stroke-miterlimit="10"/>
<path d="M67.4023 86.3105H39.7111L39.3418 89.8321H67.4023V86.3105Z" stroke="#263238" stroke-miterlimit="10"/>
<path d="M67.4023 89.8242H39.7111L39.3418 93.3458H67.4023V89.8242Z" stroke="#263238" stroke-miterlimit="10"/>
<path d="M67.4023 93.3418H39.7111L39.3418 96.8593H67.4023V93.3418Z" stroke="#263238" stroke-miterlimit="10"/>
<path d="M95.871 22.9512H68.1755L67.8105 26.4727H95.871V22.9512Z" stroke="#263238" stroke-miterlimit="10"/>
<path d="M95.871 26.4727H68.1755L67.8105 29.9942H95.871V26.4727Z" stroke="#263238" stroke-miterlimit="10"/>
<path d="M95.871 29.9941H68.1755L67.8105 33.5157H95.871V29.9941Z" stroke="#263238" stroke-miterlimit="10"/>
<path d="M95.871 33.5156H68.1755L67.8105 37.0372H95.871V33.5156Z" stroke="#263238" stroke-miterlimit="10"/>
<path d="M95.871 37.0371H68.1755L67.8105 40.5546H95.871V37.0371Z" stroke="#263238" stroke-miterlimit="10"/>
<path d="M95.871 40.5547H68.1755L67.8105 44.0762H95.871V40.5547Z" stroke="#263238" stroke-miterlimit="10"/>
<path d="M95.871 44.0762H68.1755L67.8105 47.5977H95.871V44.0762Z" stroke="#263238" stroke-miterlimit="10"/>
<path d="M95.871 47.5977H68.1755L67.8105 51.1192H95.871V47.5977Z" stroke="#263238" stroke-miterlimit="10"/>
<path d="M95.871 51.1191H68.1755L67.8105 54.6407H95.871V51.1191Z" stroke="#263238" stroke-miterlimit="10"/>
<path d="M95.871 54.6406H68.1755L67.8105 58.1622H95.871V54.6406Z" stroke="#263238" stroke-miterlimit="10"/>
<path d="M95.871 58.1621H68.1755L67.8105 61.6837H95.871V58.1621Z" stroke="#263238" stroke-miterlimit="10"/>
<path d="M95.871 61.6836H68.1755L67.8105 65.2051H95.871V61.6836Z" stroke="#263238" stroke-miterlimit="10"/>
<path d="M95.871 65.207H68.1755L67.8105 68.7286H95.871V65.207Z" stroke="#263238" stroke-miterlimit="10"/>
<path d="M95.871 68.7266H68.1755L67.8105 72.2481H95.871V68.7266Z" stroke="#263238" stroke-miterlimit="10"/>
<path d="M95.871 72.25H68.1755L67.8105 75.7716H95.871V72.25Z" stroke="#263238" stroke-miterlimit="10"/>
<path d="M95.871 75.7617H68.1755L67.8105 79.2833H95.871V75.7617Z" stroke="#263238" stroke-miterlimit="10"/>
<path d="M95.871 79.2793H68.1755L67.8105 82.8008H95.871V79.2793Z" stroke="#263238" stroke-miterlimit="10"/>
<path d="M95.871 82.793H68.1755L67.8105 86.3145H95.871V82.793Z" stroke="#263238" stroke-miterlimit="10"/>
<path d="M95.871 86.3105H68.1755L67.8105 89.8321H95.871V86.3105Z" stroke="#263238" stroke-miterlimit="10"/>
<path d="M95.871 89.8242H68.1755L67.8105 93.3458H95.871V89.8242Z" stroke="#263238" stroke-miterlimit="10"/>
<path d="M95.871 93.3418H68.1755L67.8105 96.8593H95.871V93.3418Z" stroke="#263238" stroke-miterlimit="10"/>
<path d="M97.2566 20.2227H38.6953V22.8781H97.2566V20.2227Z" stroke="#263238" stroke-miterlimit="10"/>
<path d="M97.2559 22.8828V69.6633" stroke="#263238" stroke-miterlimit="10"/>
<path d="M96.6191 22.9551V55.0516" stroke="#263238" stroke-miterlimit="10"/>
<path d="M97.6738 69.5605H96.8867V70.752H97.6738V69.5605Z" fill="#263238" stroke="#263238" stroke-miterlimit="10"/>
<path d="M96.9628 54.8008H96.1758V55.9923H96.9628V54.8008Z" fill="#263238" stroke="#263238" stroke-miterlimit="10"/>
<path d="M236.771 22.9512H209.076L208.711 26.4727H236.771V22.9512Z" stroke="#263238" stroke-miterlimit="10"/>
<path d="M236.771 26.4727H209.076L208.711 29.9942H236.771V26.4727Z" stroke="#263238" stroke-miterlimit="10"/>
<path d="M236.771 29.9941H209.076L208.711 33.5157H236.771V29.9941Z" stroke="#263238" stroke-miterlimit="10"/>
<path d="M236.771 33.5156H209.076L208.711 37.0372H236.771V33.5156Z" stroke="#263238" stroke-miterlimit="10"/>
<path d="M236.771 37.0371H209.076L208.711 40.5546H236.771V37.0371Z" stroke="#263238" stroke-miterlimit="10"/>
<path d="M236.771 40.5547H209.076L208.711 44.0762H236.771V40.5547Z" stroke="#263238" stroke-miterlimit="10"/>
<path d="M236.771 44.0762H209.076L208.711 47.5977H236.771V44.0762Z" stroke="#263238" stroke-miterlimit="10"/>
<path d="M236.771 47.5977H209.076L208.711 51.1192H236.771V47.5977Z" stroke="#263238" stroke-miterlimit="10"/>
<path d="M236.771 51.1191H209.076L208.711 54.6407H236.771V51.1191Z" stroke="#263238" stroke-miterlimit="10"/>
<path d="M236.771 54.6406H209.076L208.711 58.1622H236.771V54.6406Z" stroke="#263238" stroke-miterlimit="10"/>
<path d="M236.771 58.1621H209.076L208.711 61.6837H236.771V58.1621Z" stroke="#263238" stroke-miterlimit="10"/>
<path d="M236.771 61.6836H209.076L208.711 65.2051H236.771V61.6836Z" stroke="#263238" stroke-miterlimit="10"/>
<path d="M236.771 65.207H209.076L208.711 68.7286H236.771V65.207Z" stroke="#263238" stroke-miterlimit="10"/>
<path d="M236.771 68.7266H209.076L208.711 72.2481H236.771V68.7266Z" stroke="#263238" stroke-miterlimit="10"/>
<path d="M236.771 72.25H209.076L208.711 75.7716H236.771V72.25Z" stroke="#263238" stroke-miterlimit="10"/>
<path d="M236.771 75.7617H209.076L208.711 79.2833H236.771V75.7617Z" stroke="#263238" stroke-miterlimit="10"/>
<path d="M236.771 79.2793H209.076L208.711 82.8008H236.771V79.2793Z" stroke="#263238" stroke-miterlimit="10"/>
<path d="M236.771 82.793H209.076L208.711 86.3145H236.771V82.793Z" stroke="#263238" stroke-miterlimit="10"/>
<path d="M236.771 86.3105H209.076L208.711 89.8321H236.771V86.3105Z" stroke="#263238" stroke-miterlimit="10"/>
<path d="M236.771 89.8242H209.076L208.711 93.3458H236.771V89.8242Z" stroke="#263238" stroke-miterlimit="10"/>
<path d="M236.771 93.3418H209.076L208.711 96.8593H236.771V93.3418Z" stroke="#263238" stroke-miterlimit="10"/>
<path d="M265.242 22.9512H237.547L237.182 26.4727H265.242V22.9512Z" stroke="#263238" stroke-miterlimit="10"/>
<path d="M265.242 26.4727H237.547L237.182 29.9942H265.242V26.4727Z" stroke="#263238" stroke-miterlimit="10"/>
<path d="M265.242 29.9941H237.547L237.182 33.5157H265.242V29.9941Z" stroke="#263238" stroke-miterlimit="10"/>
<path d="M265.242 33.5156H237.547L237.182 37.0372H265.242V33.5156Z" stroke="#263238" stroke-miterlimit="10"/>
<path d="M265.242 37.0371H237.547L237.182 40.5546H265.242V37.0371Z" stroke="#263238" stroke-miterlimit="10"/>
<path d="M265.242 40.5547H237.547L237.182 44.0762H265.242V40.5547Z" stroke="#263238" stroke-miterlimit="10"/>
<path d="M265.242 44.0762H237.547L237.182 47.5977H265.242V44.0762Z" stroke="#263238" stroke-miterlimit="10"/>
<path d="M265.242 47.5977H237.547L237.182 51.1192H265.242V47.5977Z" stroke="#263238" stroke-miterlimit="10"/>
<path d="M265.242 51.1191H237.547L237.182 54.6407H265.242V51.1191Z" stroke="#263238" stroke-miterlimit="10"/>
<path d="M265.242 54.6406H237.547L237.182 58.1622H265.242V54.6406Z" stroke="#263238" stroke-miterlimit="10"/>
<path d="M265.242 58.1621H237.547L237.182 61.6837H265.242V58.1621Z" stroke="#263238" stroke-miterlimit="10"/>
<path d="M265.242 61.6836H237.547L237.182 65.2051H265.242V61.6836Z" stroke="#263238" stroke-miterlimit="10"/>
<path d="M265.242 65.207H237.547L237.182 68.7286H265.242V65.207Z" stroke="#263238" stroke-miterlimit="10"/>
<path d="M265.242 68.7266H237.547L237.182 72.2481H265.242V68.7266Z" stroke="#263238" stroke-miterlimit="10"/>
<path d="M265.242 72.25H237.547L237.182 75.7716H265.242V72.25Z" stroke="#263238" stroke-miterlimit="10"/>
<path d="M265.242 75.7617H237.547L237.182 79.2833H265.242V75.7617Z" stroke="#263238" stroke-miterlimit="10"/>
<path d="M265.242 79.2793H237.547L237.182 82.8008H265.242V79.2793Z" stroke="#263238" stroke-miterlimit="10"/>
<path d="M265.242 82.793H237.547L237.182 86.3145H265.242V82.793Z" stroke="#263238" stroke-miterlimit="10"/>
<path d="M265.242 86.3105H237.547L237.182 89.8321H265.242V86.3105Z" stroke="#263238" stroke-miterlimit="10"/>
<path d="M265.242 89.8242H237.547L237.182 93.3458H265.242V89.8242Z" stroke="#263238" stroke-miterlimit="10"/>
<path d="M265.242 93.3418H237.547L237.182 96.8593H265.242V93.3418Z" stroke="#263238" stroke-miterlimit="10"/>
<path d="M266.626 20.2227H208.064V22.8781H266.626V20.2227Z" stroke="#263238" stroke-miterlimit="10"/>
<path d="M266.627 22.8828V69.6633" stroke="#263238" stroke-miterlimit="10"/>
<path d="M265.988 22.9551V55.0516" stroke="#263238" stroke-miterlimit="10"/>
<path d="M267.039 69.5605H266.252V70.752H267.039V69.5605Z" fill="#263238" stroke="#263238" stroke-miterlimit="10"/>
<path d="M266.332 54.8008H265.545V55.9923H266.332V54.8008Z" fill="#263238" stroke="#263238" stroke-miterlimit="10"/>
<path d="M11.7198 135.699C11.6313 135.33 11.5047 134.971 11.3416 134.625C11.1711 134.231 10.9759 133.847 10.7569 133.474C10.3787 132.835 9.94643 132.224 9.46419 131.648C9.44846 131.628 9.42519 131.613 9.39864 131.607C9.37208 131.6 9.34399 131.603 9.31949 131.614C9.29499 131.626 9.2757 131.645 9.26514 131.668C9.25458 131.692 9.25344 131.718 9.26194 131.742C9.32789 131.986 9.41143 132.311 9.51256 132.677C9.61368 133.043 9.68843 133.462 9.77637 133.897C9.96983 134.71 10.0973 135.605 10.26 136.231C10.3611 136.618 10.4623 136.984 10.5502 137.317C10.629 137.608 10.7259 137.894 10.8404 138.175L9.96103 137.447C9.67524 137.203 9.35427 136.996 9.05089 136.764C9.21116 136.389 9.25679 135.981 9.1828 135.585C9.09389 134.903 8.90454 134.235 8.62 133.6C8.45102 133.251 8.25865 132.911 8.04402 132.584C7.79247 132.222 7.51945 131.873 7.22621 131.539C6.71925 130.955 6.15395 130.417 5.53783 129.932C5.51825 129.915 5.49249 129.904 5.46522 129.903C5.43795 129.901 5.41098 129.909 5.38919 129.924C5.3674 129.939 5.35223 129.961 5.34643 129.986C5.34063 130.01 5.34458 130.036 5.35756 130.058C5.48067 130.294 5.64336 130.595 5.79724 130.945C5.95113 131.295 6.1358 131.685 6.32047 132.087C6.64583 132.876 6.99318 133.714 7.2482 134.324C7.41527 134.698 7.57796 135.044 7.73624 135.349C7.89453 135.654 8.02643 135.942 8.17592 136.162L7.45485 135.707L6.71618 135.3C6.67546 135.161 6.60188 135.032 6.50074 134.922C6.34761 134.762 6.1783 134.616 5.9951 134.487C5.47888 134.123 4.90288 133.839 4.28913 133.645C3.56235 133.425 2.80279 133.311 2.03796 133.307C1.37748 133.295 0.717718 133.355 0.072585 133.486C-0.0285419 133.511 -0.0197483 133.673 0.072585 133.698C0.671286 133.866 1.25858 134.067 1.83131 134.3C2.50842 134.556 3.19872 134.873 3.75712 135.052C4.91348 135.459 5.95553 135.694 6.45677 135.617L7.18664 136.024C7.42846 136.162 7.6615 136.317 7.89453 136.463C7.58955 136.431 7.28235 136.42 6.97559 136.43C6.60944 136.456 6.24531 136.502 5.88518 136.569C5.52777 136.638 5.17871 136.74 4.84313 136.874C4.47021 137.01 4.10869 137.172 3.76152 137.358C3.41417 137.545 3.0888 137.736 2.8162 137.915C2.5436 138.094 2.30617 138.281 2.13909 138.415C2.05995 138.476 2.05995 138.622 2.13909 138.602C2.47325 138.508 3.04483 138.39 3.70875 138.273L4.73321 138.106C5.07617 138.061 5.41472 138.008 5.7181 137.943C6.4172 137.801 7.08112 137.679 7.63951 137.537C8.04746 137.452 8.43309 137.293 8.77389 137.069C9.06408 137.288 9.36746 137.476 9.65326 137.724L10.4843 138.423C10.1834 138.352 9.87792 138.299 9.56972 138.264C9.20552 138.219 8.83732 138.206 8.47051 138.228C7.70181 138.278 6.94424 138.425 6.21934 138.667C5.83682 138.789 5.48067 138.915 5.1641 139.045C4.84753 139.175 4.57933 139.31 4.38147 139.411C4.28913 139.456 4.26275 139.598 4.34629 139.594C4.71563 139.562 5.31359 139.57 6.00829 139.562C6.35564 139.562 6.70739 139.582 7.06793 139.582H8.08799C8.79148 139.582 9.50816 139.509 10.071 139.456C10.4925 139.441 10.9059 139.344 11.2845 139.171C11.8102 139.669 12.3077 140.192 12.775 140.737C12.1459 140.496 11.4824 140.342 10.8052 140.277C10.0302 140.22 9.2504 140.251 8.4837 140.371C7.81568 140.474 7.15609 140.619 6.50953 140.806C6.4084 140.839 6.36004 140.977 6.44797 140.985L8.13196 141.233C8.80467 141.371 9.60049 141.473 10.216 141.558C10.8796 141.637 11.5476 141.679 12.2166 141.684C12.637 141.724 13.0617 141.678 13.4609 141.55L14.1336 142.392L14.758 143.262C14.1575 142.96 13.5135 142.738 12.8453 142.603C12.0763 142.446 11.2889 142.38 10.5018 142.404C9.82047 142.417 9.14059 142.468 8.46611 142.559C8.35619 142.559 8.29464 142.705 8.37378 142.729C8.73872 142.843 9.34987 143.026 10.0446 143.221C10.7231 143.458 11.4161 143.658 12.1199 143.819C12.7693 143.972 13.4287 144.086 14.094 144.161C14.5119 144.235 14.9418 144.226 15.3559 144.136L15.9275 145.039L16.4507 145.962C15.887 145.604 15.2712 145.322 14.6217 145.125C13.872 144.906 13.0973 144.77 12.3133 144.718C11.6237 144.655 10.9308 144.63 10.238 144.641C10.1325 144.641 10.049 144.771 10.1325 144.807C10.5106 144.954 11.0866 145.214 11.7681 145.499C12.4188 145.789 13.085 146.048 13.7643 146.275C14.393 146.489 15.0364 146.665 15.6901 146.8C16.0933 146.918 16.5192 146.954 16.9388 146.906C17.2685 147.532 17.5411 148.183 17.8181 148.829C17.2983 148.42 16.7216 148.076 16.1034 147.808C15.3836 147.516 14.6297 147.302 13.8566 147.17C13.1803 147.042 12.496 146.954 11.8077 146.906C11.7022 146.906 11.6054 147.015 11.6846 147.06C12.0407 147.239 12.564 147.556 13.2279 147.873C13.8918 148.191 14.5469 148.577 15.1009 148.837C16.42 149.402 17.6731 149.866 18.1787 149.789L18.5084 150.785L18.7854 151.798C18.3311 151.322 17.8037 150.911 17.2202 150.578C16.546 150.213 15.8291 149.921 15.0833 149.707C14.4273 149.519 13.761 149.363 13.0872 149.24C12.9816 149.24 12.8717 149.329 12.9421 149.378C13.2411 149.598 13.8214 149.951 14.3579 150.35C14.8943 150.748 15.5494 151.163 16.0946 151.489C17.3213 152.192 18.5085 152.794 19.0141 152.786C19.1543 153.464 19.2424 154.15 19.2779 154.839C19.2779 154.925 19.379 154.99 19.5021 154.99C19.5282 154.993 19.5547 154.99 19.5799 154.983C19.6051 154.976 19.6285 154.965 19.6486 154.949C19.6688 154.934 19.6853 154.914 19.6972 154.893C19.709 154.871 19.716 154.847 19.7176 154.823C19.682 154.116 19.5909 153.412 19.445 152.717C19.9242 152.595 20.8256 151.586 21.4367 150.134C21.7199 149.396 21.9088 148.629 21.9995 147.849C22.0894 147.157 22.1349 146.46 22.1358 145.763C22.1358 145.653 21.9687 145.633 21.916 145.735C21.7005 146.182 21.34 146.91 20.9619 147.678C20.5837 148.447 20.1792 149.215 19.9154 149.821C19.6462 150.444 19.4172 151.081 19.2295 151.728C19.1416 151.379 19.0405 151.029 18.9437 150.679L18.6052 149.646C18.9587 149.422 19.2398 149.113 19.4186 148.752C19.7688 148.159 20.0334 147.526 20.2056 146.869C20.3942 146.11 20.4901 145.334 20.4914 144.555C20.493 143.867 20.4534 143.178 20.3727 142.494C20.3727 142.384 20.188 142.384 20.1529 142.494C20.0034 142.953 19.7132 143.713 19.4274 144.527C19.1416 145.34 18.825 146.153 18.6623 146.755C18.4681 147.401 18.3212 148.059 18.2227 148.723C17.9413 148.052 17.6555 147.377 17.3169 146.727C17.645 146.463 17.8909 146.124 18.0292 145.743C18.2944 145.115 18.4832 144.461 18.592 143.795C18.6781 143.027 18.6781 142.253 18.592 141.485C18.52 140.802 18.4085 140.124 18.2578 139.452C18.2315 139.346 18.06 139.362 18.0336 139.472C17.9369 139.94 17.7302 140.733 17.5368 141.538C17.3433 142.343 17.1278 143.185 17.0267 143.823C16.9201 144.485 16.8585 145.151 16.8421 145.82L16.2969 144.86L15.7077 143.929C16.0028 143.636 16.2065 143.275 16.2969 142.884C16.4894 142.235 16.6044 141.568 16.6398 140.895C16.6403 140.124 16.5608 139.355 16.4024 138.598C16.2089 137.785 15.9627 137.044 15.8044 136.565C15.7692 136.459 15.589 136.491 15.5846 136.601C15.5274 137.093 15.4395 137.898 15.3471 138.74C15.2548 139.582 15.1097 140.428 15.0921 141.062C15.0592 141.73 15.0709 142.4 15.1273 143.067L14.4854 142.164L13.7907 141.298C14.0491 140.975 14.2127 140.595 14.2655 140.196C14.3865 139.524 14.419 138.842 14.3622 138.163C14.2739 137.377 14.0819 136.604 13.7907 135.861C13.5218 135.191 13.2136 134.536 12.8673 133.897C12.8525 133.878 12.8312 133.863 12.8067 133.856C12.7822 133.849 12.7558 133.849 12.7315 133.857C12.7072 133.865 12.6863 133.879 12.672 133.899C12.6576 133.919 12.6506 133.942 12.6519 133.966C12.6959 134.466 12.7266 135.296 12.7662 136.13C12.8058 136.963 12.7662 137.858 12.8497 138.488C12.8934 139.16 12.9859 139.828 13.1267 140.489C12.6255 139.932 12.1331 139.371 11.5791 138.862C11.7944 138.513 11.9038 138.117 11.8956 137.715C11.9332 137.039 11.8741 136.361 11.7198 135.699Z" fill="#BA68C8"/>
<path d="M28.4416 118.66C29.0923 117.92 29.9585 116.911 30.7279 115.947L32.7153 113.548C32.8208 113.426 32.7153 113.264 32.6054 113.337C32.0294 113.666 31.1237 114.248 30.1432 114.931C29.2017 115.61 28.3196 116.356 27.5051 117.163C26.7416 117.987 26.0547 118.868 25.4518 119.798L26.0453 117.847L26.3487 116.871L26.7005 115.911C27.2017 115.968 28.7186 114.805 30.4641 113.26C31.9678 111.905 34.2014 109.51 35.2567 108.534C35.3754 108.42 35.305 108.25 35.1687 108.315C34.2729 108.732 33.4012 109.192 32.557 109.693C32.047 109.998 31.5062 110.32 31.0225 110.661C30.5389 111.003 30.0816 111.356 29.7035 111.69C29.2357 112.083 28.7951 112.502 28.3844 112.946C27.9975 113.353 27.6502 113.76 27.3644 114.126C27.7601 113.207 28.1118 112.267 28.5427 111.361C29.0209 110.933 29.4138 110.43 29.7035 109.876C30.2135 109.124 30.7499 108.124 31.3567 107.03C31.6161 106.55 31.8887 105.985 32.1833 105.403L32.623 104.5C32.7725 104.195 32.922 103.895 33.0627 103.594C33.6474 102.394 34.2146 101.268 34.5928 100.597C34.6763 100.446 34.5356 100.349 34.4037 100.479C33.5751 101.311 32.7985 102.187 32.0778 103.102L31.4402 103.915C31.2424 104.204 31.0401 104.488 30.8467 104.765C30.4916 105.288 30.1686 105.83 29.8794 106.387C29.3776 107.307 28.9471 108.258 28.5911 109.234C28.3637 109.833 28.2247 110.458 28.1778 111.092L27.8524 111.787L27.5578 112.495L26.9687 113.914C27.017 113.471 27.0478 112.971 27.0654 112.426C27.083 111.881 27.0654 111.291 27.0654 110.69C27.0654 110.181 27.039 109.612 26.9906 109.01C26.9423 108.408 26.9071 107.79 26.8631 107.201C26.7532 105.981 26.6873 104.879 26.6257 104.187C26.6257 104.029 26.4147 104.09 26.3663 104.269C26.2696 104.651 26.1465 105.155 26.0014 105.728C25.8563 106.302 25.7551 106.948 25.6364 107.615C25.5177 108.282 25.443 108.961 25.3726 109.604C25.3059 110.189 25.278 110.777 25.2891 111.365C25.3243 113.723 25.8211 115.508 26.2476 115.785L25.9222 116.708C25.8123 117.029 25.72 117.35 25.6188 117.672L25.0429 119.611C25.0355 118.533 24.9621 117.457 24.823 116.387C24.7395 115.386 24.4845 114.118 24.2734 112.93C24.0624 111.743 23.8469 110.608 23.7238 109.945C23.6974 109.795 23.4996 109.872 23.4688 110.047C23.3633 110.836 23.1698 112.109 23.0819 113.451C22.9821 114.707 22.9968 115.97 23.1258 117.224C23.2251 118.227 23.4403 119.217 23.7678 120.177C24.0404 120.933 24.3174 121.421 24.546 121.543L24.3042 122.515L24.1151 123.503L23.7458 125.475C23.6202 124.402 23.4234 123.338 23.1566 122.287C22.9632 121.295 22.5938 120.059 22.2333 118.883C21.8727 117.708 21.6001 116.631 21.4023 115.96C21.3539 115.805 21.1693 115.903 21.1605 116.082C21.0593 117.672 21.0417 121.258 21.6001 123.287C22.119 125.601 23.0467 127.26 23.5172 127.443C23.3149 128.765 23.2929 130.103 23.2226 131.437C23.117 131.001 22.9764 130.518 22.7829 129.993C22.695 129.729 22.6026 129.46 22.5015 129.18C22.4004 128.899 22.2992 128.619 22.2113 128.33C21.8991 127.362 21.3671 126.166 20.8923 125.032C20.4174 123.897 20.0129 122.84 19.7315 122.185C19.6699 122.035 19.4985 122.149 19.5117 122.332C19.5424 122.738 19.582 123.255 19.6304 123.849C19.6731 124.493 19.7524 125.135 19.8678 125.772C19.9865 126.447 20.1184 127.13 20.2591 127.765C20.3339 128.082 20.3998 128.391 20.4878 128.68C20.5757 128.968 20.6768 129.241 20.7691 129.493C21.124 130.445 21.5653 131.367 22.0882 132.25C22.5279 132.921 22.9192 133.344 23.1698 133.413C23.1698 134.743 23.1698 136.076 23.2006 137.406C22.856 136.381 22.4434 135.376 21.9651 134.397C21.754 133.937 21.4858 133.429 21.1912 132.909L20.7296 132.12C20.5801 131.847 20.435 131.575 20.2899 131.306C19.6743 130.213 19.1028 129.2 18.7598 128.586C18.6763 128.444 18.5224 128.586 18.5575 128.761C18.7202 129.574 18.9972 130.851 19.3358 132.156C19.692 133.34 20.1297 134.501 20.646 135.633C21.6441 137.748 22.7521 139.256 23.2577 139.382C23.3017 140.712 23.3633 142.038 23.4336 143.368C23.0586 142.356 22.6181 141.366 22.1146 140.403C21.047 138.517 19.8729 136.685 18.5971 134.913C18.5048 134.787 18.3597 134.913 18.4081 135.088C18.8126 136.56 19.8546 139.858 20.8043 141.676C21.8859 143.758 23.0423 145.23 23.5523 145.336C23.6491 146.665 23.7458 147.991 23.8733 149.317C23.4589 148.317 22.9817 147.341 22.4443 146.393C21.3125 144.542 20.0737 142.749 18.7334 141.021C18.6367 140.895 18.496 141.021 18.5488 141.2C19.0104 142.652 20.1624 145.917 21.1868 147.706C22.3344 149.74 23.5523 151.191 24.0668 151.285C24.2031 152.607 24.357 153.928 24.5416 155.246C24.5416 155.412 24.6823 155.534 24.801 155.518C24.9197 155.502 24.9989 155.36 24.9769 155.193C24.7966 153.883 24.6427 152.566 24.502 151.252C24.9857 151.118 25.8826 149.484 26.7005 147.324C27.4039 145.458 28.1822 142.237 28.5295 140.838C28.5691 140.676 28.4196 140.554 28.3317 140.676C27.593 141.765 25.9662 144.335 25.2539 146.214C24.8487 147.241 24.5341 148.296 24.313 149.37C24.1855 148.02 24.0843 146.67 23.9876 145.303C24.4757 145.185 25.4342 143.575 26.3355 141.444C27.105 139.602 27.9887 136.41 28.3932 135.023C28.4372 134.865 28.2877 134.734 28.1998 134.856C27.4259 135.918 25.7024 138.439 24.9241 140.293C24.4816 141.308 24.1287 142.353 23.8689 143.42C23.7927 142.065 23.7326 140.709 23.6886 139.354C24.1811 139.252 25.1923 137.67 26.1728 135.572C26.5861 134.665 27.0522 133.421 27.4567 132.234C27.8612 131.046 28.3097 130.066 28.5383 129.432C28.5911 129.29 28.4504 129.159 28.3537 129.265C27.9448 129.733 27.2676 130.526 26.5949 131.453C26.4191 131.685 26.2476 131.921 26.0761 132.165C25.9046 132.408 25.7595 132.669 25.61 132.921C25.3067 133.425 25.0341 133.921 24.8186 134.377C24.3408 135.376 23.9525 136.409 23.6579 137.467C23.6315 136.113 23.6095 134.759 23.6227 133.401C23.8689 133.36 24.2646 132.949 24.7219 132.295C25.3 131.49 25.8299 130.656 26.3091 129.798C26.4279 129.586 26.5466 129.355 26.6697 129.115L27.0874 128.35C27.3732 127.826 27.6546 127.273 27.9184 126.724C28.1822 126.175 28.468 125.666 28.7142 125.207L29.3385 124.04C29.4089 123.901 29.2858 123.755 29.1803 123.853C28.7054 124.259 27.9228 124.999 27.1094 125.845C26.342 126.686 25.6481 127.582 25.0341 128.525C24.8713 128.78 24.7245 129.043 24.5944 129.314C24.4669 129.578 24.3438 129.834 24.2294 130.087C24.0008 130.595 23.7898 131.075 23.6667 131.506C23.7414 130.156 23.759 128.802 23.9612 127.46C24.4801 127.419 25.654 125.988 27.061 124.166C28.1866 122.568 29.9585 119.863 30.7543 118.721C30.8423 118.591 30.7543 118.432 30.618 118.517C30.0948 118.9 29.2374 119.546 28.3273 120.315C27.4601 121.09 26.6562 121.923 25.9222 122.808C25.256 123.701 24.6679 124.642 24.1635 125.622L24.5372 123.625L24.7219 122.625L24.9681 121.636C25.2187 121.636 25.7024 121.323 26.2872 120.787C26.8719 120.25 27.681 119.506 28.4416 118.66Z" fill="#BA68C8"/>
<path d="M39.9206 134.116C41.2969 133.571 43.2842 132.49 44.1372 132.03C44.2339 131.977 44.1636 131.835 44.0449 131.847C43.526 131.888 42.6775 131.986 41.7673 132.144C40.8957 132.289 40.0405 132.508 39.2128 132.799C38.4573 133.076 37.7401 133.435 37.0759 133.868C37.5596 133.124 38.0652 132.4 38.5752 131.677C39.0149 131.884 40.4966 131.591 42.1279 131.087C42.8313 130.867 43.6843 130.501 44.4802 130.176C45.276 129.851 45.9883 129.558 46.4191 129.363C46.5159 129.326 46.4587 129.184 46.3444 129.18C45.5902 129.159 44.8353 129.183 44.0844 129.253C43.2102 129.325 42.3466 129.481 41.5079 129.721C40.7373 129.952 39.9993 130.267 39.3095 130.66C39.7052 130.143 40.0921 129.623 40.5054 129.115C41.0111 129.046 42.0355 128.131 43.1039 126.955C43.3414 126.691 43.6008 126.386 43.8558 126.049L44.656 125.032C45.0979 124.454 45.575 123.9 46.085 123.373C46.1641 123.287 46.085 123.149 45.9531 123.198C45.2268 123.502 44.5358 123.874 43.891 124.308C43.4997 124.56 43.1259 124.853 42.7698 125.121C42.449 125.388 42.1465 125.674 41.864 125.975C40.822 127.114 40.2284 128.265 40.2064 128.793C39.7668 129.31 39.3886 129.843 38.9797 130.371C39.1283 129.641 39.2208 128.902 39.2567 128.159C39.2963 127.435 39.2567 126.496 39.226 125.585C39.1952 124.674 39.16 123.804 39.16 123.267C39.1588 123.241 39.1475 123.216 39.1282 123.197C39.1089 123.178 39.0829 123.166 39.0548 123.163C39.0267 123.16 38.9984 123.166 38.9749 123.181C38.9515 123.196 38.9345 123.217 38.927 123.243C38.6131 123.979 38.3459 124.731 38.1267 125.495C37.8735 126.334 37.7115 127.193 37.6431 128.061C37.5508 129.725 37.8541 131.091 38.2147 131.42C37.7134 132.136 37.2122 132.848 36.7374 133.58C36.8342 132.843 36.8753 132.101 36.8605 131.359C36.8385 130.64 36.7417 129.712 36.6142 128.818C36.4867 127.923 36.3768 127.073 36.3065 126.557C36.3012 126.532 36.2867 126.509 36.2654 126.493C36.2442 126.477 36.2175 126.468 36.1899 126.468C36.1624 126.468 36.1357 126.477 36.1145 126.493C36.0932 126.509 36.0787 126.532 36.0734 126.557C35.7613 127.586 35.1941 129.908 35.2468 131.359C35.282 133.018 35.6469 134.36 36.0339 134.673C35.5634 135.405 35.1149 136.15 34.6708 136.898C34.7331 136.159 34.7331 135.417 34.6708 134.678C34.5609 133.254 34.0113 130.965 33.7915 129.944C33.7845 129.921 33.7695 129.901 33.7489 129.886C33.7283 129.872 33.7031 129.864 33.6772 129.864C33.6513 129.864 33.6261 129.872 33.6054 129.886C33.5848 129.901 33.5698 129.921 33.5628 129.944C33.1885 131.519 33.0159 133.13 33.0484 134.743C33.1715 136.39 33.6068 137.715 34.0113 137.996C33.5716 138.748 33.1671 139.513 32.7538 140.273C32.7873 139.532 32.7535 138.789 32.6527 138.053C32.3722 136.477 31.9979 134.918 31.5315 133.38C31.5245 133.357 31.5096 133.337 31.4889 133.322C31.4683 133.308 31.4431 133.3 31.4172 133.3C31.3913 133.3 31.3661 133.308 31.3455 133.322C31.3248 133.337 31.3099 133.357 31.3029 133.38C31.2237 133.893 31.1094 134.734 31.0391 135.625C30.9616 136.473 30.9616 137.326 31.0391 138.175C31.2413 139.801 31.7426 141.123 32.1559 141.399C31.7514 142.168 31.3908 142.953 31.0171 143.729C31.0101 142.988 30.938 142.248 30.8016 141.517C30.6376 140.683 30.4233 139.857 30.1597 139.045C29.9003 138.191 29.6277 137.386 29.4562 136.894C29.4491 136.87 29.433 136.849 29.4108 136.835C29.3886 136.821 29.3617 136.814 29.3348 136.817C29.308 136.819 29.283 136.83 29.2642 136.848C29.2453 136.866 29.2339 136.889 29.232 136.914C29.1221 137.939 28.9418 140.285 29.2056 141.721C29.4826 143.347 30.085 144.648 30.4939 144.901C30.1509 145.69 29.8168 146.487 29.5134 147.292C29.4459 146.55 29.324 145.814 29.1484 145.088C28.9343 144.262 28.6731 143.448 28.3658 142.648C28.0624 141.802 27.7547 141.021 27.5612 140.513C27.5536 140.488 27.5364 140.467 27.5128 140.453C27.4893 140.439 27.4611 140.433 27.4335 140.437C27.4059 140.441 27.3808 140.454 27.363 140.474C27.3452 140.494 27.336 140.52 27.337 140.545C27.2666 141.591 27.2094 143.961 27.5656 145.385C27.9481 147.011 28.6164 148.264 29.0693 148.491C28.7747 149.305 28.5153 150.118 28.2735 150.931C28.1503 150.222 27.9784 149.522 27.759 148.833C27.3194 147.458 26.2949 145.291 25.8772 144.327C25.8708 144.3 25.8528 144.276 25.8273 144.26C25.8017 144.245 25.7706 144.24 25.7409 144.246C25.7112 144.252 25.6852 144.268 25.6687 144.292C25.6522 144.316 25.6466 144.344 25.653 144.372C25.653 145.421 25.7409 147.824 26.2026 149.252C26.7126 150.878 27.4908 152.07 27.9613 152.257C27.7488 153.09 27.583 153.933 27.4645 154.782C27.4621 154.808 27.4653 154.835 27.4739 154.86C27.4826 154.885 27.4965 154.908 27.5149 154.928C27.5333 154.948 27.5558 154.964 27.5811 154.976C27.6064 154.988 27.634 154.996 27.6623 154.998C27.7187 155.003 27.7753 154.989 27.8203 154.957C27.8654 154.925 27.8954 154.879 27.9041 154.827C28.0173 153.994 28.1803 153.167 28.3922 152.35C28.8802 152.395 30.1509 151.667 31.5095 150.724C32.6659 149.882 34.2575 148.365 34.9742 147.723C35.0578 147.65 34.9478 147.528 34.8379 147.564C33.2833 148.084 31.8059 148.783 30.4411 149.646C29.7853 150.094 29.1942 150.617 28.6824 151.204C28.9286 150.37 29.188 149.54 29.4826 148.719C29.9706 148.804 31.3161 148.178 32.745 147.296C34.0293 146.409 35.2607 145.459 36.434 144.449C36.5175 144.38 36.434 144.25 36.3065 144.283C35.8052 144.433 34.9874 144.689 34.1081 145.019C33.2869 145.325 32.4968 145.697 31.747 146.133C31.0676 146.543 30.4433 147.026 29.8871 147.572C30.1949 146.759 30.5334 145.946 30.8808 145.132C31.3688 145.25 32.745 144.705 34.24 143.892C35.5874 143.068 36.8795 142.169 38.1092 141.2C38.1971 141.131 38.1092 140.997 37.9861 141.029C37.4804 141.159 36.667 141.391 35.7876 141.68C34.963 141.943 34.163 142.268 33.3958 142.652C32.6944 143.031 32.0399 143.48 31.4436 143.99C31.8217 143.201 32.1866 142.404 32.5955 141.627C33.0704 141.765 34.4818 141.298 36.0251 140.537C36.7835 140.139 37.5175 139.702 38.2235 139.228C38.9621 138.748 39.6305 138.284 40.035 138.008C40.1273 137.947 40.035 137.809 39.925 137.833C38.2807 138.149 36.6803 138.636 35.1545 139.285C34.4339 139.634 33.7559 140.054 33.132 140.537C33.5716 139.765 33.963 138.988 34.407 138.224C34.8467 138.386 36.3109 137.971 37.8805 137.276C39.2954 136.567 40.6678 135.788 41.9916 134.942C42.0883 134.881 41.9916 134.743 41.8904 134.759C40.2476 134.988 38.6402 135.397 37.1023 135.979C36.3627 136.295 35.6636 136.686 35.0182 137.146C35.4579 136.385 35.9283 135.629 36.4032 134.885C36.8605 135.08 38.3246 134.73 39.9206 134.116Z" fill="#BA68C8"/>
<path d="M20.8907 178.295H26.9935C31.83 176.335 35.3738 169.845 35.3738 162.131C35.3957 159.116 34.8128 156.124 33.6547 153.307H14.2295C13.0714 156.124 12.4885 159.116 12.5104 162.131C12.5104 169.845 16.0586 176.335 20.8907 178.295Z" fill="#263238"/>
<path d="M265.228 135.699C265.14 135.33 265.013 134.971 264.85 134.625C264.681 134.231 264.487 133.847 264.269 133.474C263.884 132.833 263.443 132.223 262.95 131.648C262.935 131.628 262.911 131.613 262.885 131.607C262.858 131.6 262.83 131.603 262.806 131.615C262.781 131.626 262.762 131.645 262.751 131.668C262.741 131.692 262.74 131.718 262.748 131.742C262.814 131.986 262.902 132.311 262.999 132.677C263.095 133.043 263.175 133.462 263.267 133.897C263.456 134.71 263.584 135.605 263.751 136.231L264.036 137.317C264.133 137.646 264.23 137.935 264.327 138.175L263.447 137.447C263.157 137.203 262.84 136.996 262.537 136.764C262.697 136.39 262.742 135.981 262.665 135.585C262.576 134.903 262.386 134.235 262.102 133.6C261.936 133.25 261.745 132.91 261.53 132.584C260.838 131.592 259.994 130.699 259.024 129.932C259.004 129.917 258.978 129.909 258.952 129.908C258.926 129.908 258.9 129.915 258.879 129.93C258.858 129.944 258.843 129.964 258.836 129.988C258.828 130.011 258.83 130.036 258.839 130.058C258.962 130.294 259.125 130.595 259.279 130.945C259.433 131.295 259.618 131.685 259.798 132.088L260.73 134.324C260.897 134.698 261.06 135.044 261.218 135.349C261.349 135.627 261.496 135.898 261.658 136.162L260.95 135.715L260.207 135.308C260.17 135.168 260.098 135.039 259.996 134.93C259.843 134.77 259.673 134.625 259.49 134.495C258.974 134.132 258.398 133.847 257.784 133.653C257.056 133.433 256.295 133.319 255.529 133.316C254.868 133.303 254.208 133.363 253.563 133.495C253.462 133.519 253.475 133.682 253.563 133.706C254.162 133.875 254.749 134.076 255.322 134.308C255.999 134.564 256.689 134.881 257.243 135.06C258.4 135.467 259.442 135.703 259.943 135.625L260.677 136.032C260.919 136.17 261.148 136.325 261.385 136.471C261.08 136.439 260.773 136.428 260.466 136.439C260.099 136.465 259.733 136.511 259.371 136.577C259.014 136.647 258.665 136.749 258.329 136.882C257.957 137.019 257.595 137.181 257.248 137.366C256.9 137.553 256.579 137.744 256.302 137.923C256.025 138.102 255.797 138.289 255.63 138.423C255.551 138.484 255.551 138.63 255.63 138.61C255.968 138.517 256.54 138.399 257.204 138.281L258.228 138.114C258.567 138.069 258.905 138.016 259.213 137.951C259.908 137.809 260.572 137.687 261.135 137.545C261.548 137.468 261.939 137.314 262.286 137.093C262.577 137.313 262.884 137.5 263.166 137.748L264.001 138.448C263.7 138.377 263.395 138.324 263.087 138.289C262.722 138.243 262.354 138.231 261.987 138.252C261.215 138.296 260.453 138.44 259.723 138.679C259.341 138.801 258.984 138.927 258.668 139.057C258.351 139.188 258.083 139.322 257.881 139.423C257.789 139.468 257.762 139.611 257.846 139.606C258.215 139.574 258.817 139.582 259.512 139.574C259.859 139.574 260.211 139.594 260.567 139.594H261.592C262.295 139.594 263.008 139.521 263.57 139.468C263.993 139.452 264.408 139.355 264.788 139.184C265.314 139.681 265.811 140.204 266.279 140.749C265.65 140.509 264.986 140.354 264.309 140.29C263.532 140.232 262.751 140.264 261.983 140.383C261.317 140.487 260.659 140.632 260.013 140.818C259.912 140.851 259.864 140.989 259.947 140.997L261.636 141.245C262.308 141.383 263.1 141.485 263.715 141.571C264.38 141.649 265.05 141.691 265.72 141.697C266.141 141.736 266.565 141.69 266.965 141.562L267.637 142.404L268.262 143.274C267.66 142.972 267.014 142.75 266.345 142.616C265.577 142.459 264.791 142.392 264.006 142.416C263.323 142.429 262.641 142.481 261.965 142.571C261.86 142.571 261.794 142.717 261.878 142.742C262.238 142.856 262.849 143.039 263.548 143.234C264.226 143.47 264.917 143.669 265.619 143.831C266.27 143.984 266.931 144.098 267.598 144.173C268.014 144.247 268.443 144.239 268.855 144.149L269.431 145.051L269.946 145.946C269.381 145.589 268.766 145.307 268.117 145.108C267.365 144.89 266.589 144.754 265.804 144.702C265.116 144.639 264.424 144.613 263.733 144.624C263.623 144.624 263.54 144.755 263.627 144.791C264.006 144.938 264.582 145.198 265.263 145.482C265.913 145.772 266.577 146.031 267.255 146.259C267.884 146.472 268.527 146.647 269.181 146.784C269.585 146.901 270.013 146.937 270.434 146.889C270.759 147.516 271.036 148.166 271.313 148.813C270.793 148.404 270.216 148.061 269.598 147.792C268.878 147.5 268.125 147.286 267.352 147.154C266.675 147.026 265.991 146.938 265.303 146.889C265.193 146.889 265.096 146.999 265.175 147.044C265.536 147.223 266.077 147.54 266.718 147.857C267.36 148.174 268.038 148.561 268.596 148.821C269.915 149.386 271.164 149.85 271.674 149.773L271.999 150.769L272.28 151.781C271.825 151.307 271.298 150.896 270.715 150.561C270.04 150.196 269.321 149.904 268.574 149.691C267.918 149.504 267.252 149.35 266.578 149.228C266.472 149.228 266.362 149.317 266.433 149.366C266.732 149.586 267.312 149.939 267.844 150.338C268.376 150.736 269.036 151.151 269.603 151.476C270.825 152.18 272.012 152.782 272.518 152.774C272.659 153.451 272.749 154.138 272.786 154.827C272.786 154.913 272.887 154.978 273.01 154.978C273.036 154.98 273.063 154.978 273.088 154.971C273.113 154.964 273.137 154.953 273.157 154.937C273.177 154.922 273.193 154.902 273.205 154.881C273.217 154.859 273.224 154.835 273.226 154.811C273.186 154.104 273.095 153.4 272.953 152.704C273.428 152.582 274.334 151.574 274.941 150.122C275.226 149.384 275.415 148.617 275.503 147.837C275.594 147.145 275.641 146.448 275.644 145.751C275.641 145.727 275.63 145.705 275.613 145.688C275.595 145.671 275.571 145.66 275.546 145.657C275.521 145.654 275.495 145.658 275.473 145.67C275.451 145.682 275.434 145.7 275.424 145.722L274.466 147.666C274.07 148.431 273.683 149.203 273.419 149.809C273.149 150.431 272.922 151.068 272.738 151.716C272.645 151.367 272.544 151.017 272.448 150.667L272.109 149.63C272.463 149.405 272.745 149.096 272.927 148.736C273.278 148.141 273.546 147.507 273.723 146.849C273.912 146.09 274.006 145.314 274.004 144.535C274.004 143.846 273.966 143.158 273.89 142.473C273.89 142.363 273.701 142.363 273.665 142.473C273.516 142.933 273.226 143.693 272.944 144.507C272.663 145.32 272.338 146.133 272.179 146.735C271.981 147.38 271.834 148.038 271.74 148.703C271.458 148.032 271.172 147.357 270.834 146.706C271.161 146.442 271.406 146.103 271.546 145.722C271.81 145.094 271.997 144.441 272.105 143.775C272.193 143.007 272.193 142.233 272.105 141.465C272.03 140.782 271.919 140.104 271.77 139.432C271.744 139.326 271.573 139.342 271.546 139.452C271.449 139.92 271.243 140.713 271.049 141.518C270.856 142.323 270.636 143.165 270.539 143.803C270.429 144.464 270.366 145.131 270.35 145.8L269.809 144.84L269.216 143.909C269.511 143.616 269.715 143.255 269.805 142.864C270 142.215 270.115 141.548 270.148 140.875C270.152 140.104 270.074 139.335 269.915 138.578C269.717 137.764 269.475 137.024 269.313 136.544C269.277 136.439 269.102 136.471 269.093 136.581C269.04 137.073 268.952 137.878 268.86 138.72C268.767 139.562 268.622 140.408 268.605 141.042C268.569 141.71 268.581 142.38 268.64 143.047L267.994 142.144L267.308 141.294C267.57 140.972 267.735 140.592 267.787 140.192C267.906 139.52 267.938 138.838 267.884 138.159C267.791 137.374 267.599 136.601 267.312 135.857C267.043 135.187 266.735 134.532 266.389 133.893C266.374 133.874 266.353 133.859 266.328 133.852C266.304 133.845 266.277 133.845 266.253 133.853C266.229 133.861 266.208 133.875 266.193 133.895C266.179 133.915 266.172 133.938 266.173 133.962C266.217 134.462 266.248 135.292 266.283 136.126C266.318 136.959 266.283 137.854 266.367 138.484C266.415 139.156 266.507 139.824 266.644 140.485C266.142 139.928 265.654 139.367 265.096 138.858C265.311 138.509 265.422 138.113 265.417 137.711C265.45 137.036 265.386 136.359 265.228 135.699Z" fill="#BA68C8"/>
<path d="M281.953 118.66C282.6 117.92 283.466 116.911 284.235 115.947C285.005 114.984 285.77 114.101 286.223 113.548C286.332 113.426 286.249 113.264 286.117 113.337C285.541 113.666 284.635 114.248 283.655 114.931C282.713 115.61 281.831 116.356 281.017 117.163C280.251 117.986 279.562 118.867 278.959 119.798L279.557 117.847L279.86 116.871L280.212 115.911C280.713 115.968 282.226 114.805 283.976 113.26C285.479 111.905 287.713 109.51 288.768 108.534C288.883 108.42 288.812 108.25 288.676 108.315C287.782 108.732 286.911 109.192 286.069 109.693C285.559 109.998 285.018 110.32 284.534 110.661C284.051 111.003 283.589 111.356 283.215 111.69C282.747 112.083 282.307 112.502 281.896 112.946C281.505 113.353 281.162 113.76 280.876 114.126C281.272 113.207 281.619 112.267 282.054 111.361C282.533 110.933 282.925 110.43 283.215 109.876C283.725 109.124 284.257 108.124 284.864 107.03C285.128 106.55 285.396 105.985 285.695 105.403L286.135 104.5L286.574 103.594C287.159 102.394 287.726 101.268 288.1 100.597C288.188 100.446 288.043 100.349 287.915 100.479C287.099 101.31 286.334 102.183 285.625 103.093L284.987 103.907L284.393 104.757C284.032 105.275 283.701 105.811 283.404 106.363C282.902 107.282 282.473 108.233 282.12 109.209C281.892 109.809 281.752 110.434 281.703 111.068L281.382 111.763L281.087 112.471L280.493 113.89C280.542 113.447 280.577 112.946 280.59 112.402C280.603 111.857 280.59 111.267 280.617 110.665C280.617 110.157 280.586 109.588 280.542 108.986C280.498 108.384 280.458 107.766 280.414 107.176C280.304 105.956 280.234 104.854 280.177 104.163C280.177 104.004 279.961 104.065 279.918 104.244L279.548 105.704C279.429 106.286 279.302 106.924 279.183 107.591C279.065 108.258 278.994 108.937 278.924 109.579C278.855 110.164 278.827 110.752 278.84 111.34C278.875 113.699 279.372 115.484 279.799 115.76L279.451 116.708C279.346 117.029 279.254 117.35 279.152 117.672L278.559 119.595C278.554 118.517 278.48 117.44 278.339 116.37C278.26 115.37 278.005 114.101 277.794 112.914C277.583 111.727 277.376 110.604 277.257 109.929C277.231 109.779 277.033 109.856 277.002 110.031C276.892 110.82 276.699 112.092 276.615 113.434C276.517 114.691 276.53 115.953 276.655 117.208C276.758 118.21 276.974 119.2 277.301 120.16C277.57 120.917 277.851 121.405 278.08 121.527L277.833 122.499L277.649 123.487L277.279 125.459C277.152 124.386 276.955 123.322 276.69 122.271C276.497 121.279 276.127 120.042 275.767 118.867C275.406 117.692 275.129 116.614 274.932 115.943C274.888 115.789 274.703 115.886 274.694 116.065C274.593 117.655 274.571 121.242 275.134 123.271C275.648 125.585 276.58 127.244 277.051 127.427C276.849 128.749 276.827 130.087 276.752 131.42C276.646 130.985 276.506 130.501 276.334 129.977C276.251 129.712 276.158 129.444 276.057 129.163C275.956 128.883 275.85 128.602 275.763 128.314C275.45 127.346 274.918 126.15 274.443 125.016C273.969 123.881 273.564 122.824 273.283 122.169C273.221 122.019 273.045 122.133 273.058 122.316C273.089 122.722 273.133 123.239 273.177 123.832C273.221 124.426 273.283 125.081 273.415 125.756C273.547 126.431 273.665 127.114 273.81 127.748C273.881 128.066 273.951 128.375 274.035 128.663C274.118 128.952 274.224 129.224 274.32 129.477C274.673 130.429 275.115 131.351 275.639 132.234C276.079 132.905 276.47 133.328 276.721 133.397C276.721 134.726 276.721 136.06 276.752 137.39C276.414 136.365 276.01 135.361 275.543 134.381C275.332 133.921 275.059 133.413 274.764 132.892L274.325 132.103L273.885 131.29L272.351 128.57C272.271 128.427 272.113 128.57 272.153 128.745C272.311 129.558 272.592 130.835 272.927 132.14C273.276 133.321 273.705 134.481 274.21 135.613C275.209 137.727 276.321 139.236 276.849 139.362C276.893 140.692 276.95 142.018 277.024 143.347C276.649 142.336 276.209 141.346 275.705 140.383C274.639 138.496 273.465 136.664 272.188 134.893C272.096 134.767 271.95 134.893 271.994 135.068C272.399 136.54 273.445 139.838 274.395 141.656C275.472 143.738 276.633 145.21 277.143 145.315C277.235 146.645 277.337 147.971 277.46 149.296C277.05 148.297 276.577 147.321 276.044 146.373C274.911 144.522 273.67 142.728 272.329 141.001C272.236 140.875 272.091 141.001 272.144 141.18C272.606 142.632 273.758 145.897 274.782 147.686C275.93 149.719 277.143 151.171 277.658 151.265C277.798 152.586 277.952 153.908 278.137 155.225C278.159 155.392 278.277 155.514 278.396 155.498C278.515 155.482 278.594 155.339 278.572 155.172C278.387 153.863 278.234 152.546 278.097 151.232C278.576 151.098 279.473 149.463 280.296 147.304C280.999 145.437 281.773 142.217 282.125 140.818C282.164 140.655 282.01 140.533 281.927 140.655C281.188 141.745 279.561 144.315 278.849 146.194C278.44 147.219 278.125 148.275 277.908 149.349C277.781 147.999 277.675 146.649 277.583 145.283C278.071 145.165 279.025 143.555 279.926 141.424C280.7 139.582 281.58 136.39 281.988 135.003C282.032 134.844 281.883 134.714 281.795 134.836C281.021 135.897 279.293 138.419 278.515 140.273C278.074 141.287 277.722 142.333 277.464 143.4C277.391 142.045 277.331 140.689 277.284 139.334C277.772 139.232 278.783 137.65 279.768 135.552C280.181 134.645 280.647 133.401 281.052 132.213C281.456 131.026 281.9 130.046 282.133 129.412C282.186 129.269 282.041 129.139 281.949 129.245C281.536 129.712 280.863 130.505 280.168 131.433C279.997 131.664 279.821 131.9 279.654 132.144C279.487 132.388 279.333 132.648 279.183 132.901C278.884 133.405 278.612 133.901 278.392 134.356C277.918 135.357 277.53 136.39 277.231 137.447C277.205 136.093 277.187 134.739 277.2 133.38C277.446 133.34 277.838 132.929 278.295 132.274C278.876 131.471 279.408 130.637 279.887 129.777C280.005 129.566 280.124 129.334 280.247 129.094L280.665 128.33C280.946 127.805 281.228 127.252 281.492 126.703C281.755 126.154 282.046 125.646 282.292 125.186L282.912 124.019C282.986 123.881 282.863 123.735 282.753 123.832C282.279 124.239 281.5 124.979 280.687 125.825C279.918 126.665 279.224 127.561 278.612 128.505C278.449 128.76 278.302 129.023 278.172 129.294C278.04 129.558 277.917 129.814 277.807 130.066C277.578 130.575 277.389 131.054 277.24 131.485C277.319 130.135 277.337 128.781 277.539 127.439C278.053 127.399 279.232 125.967 280.617 124.145C281.747 122.547 283.514 119.843 284.314 118.7C284.402 118.57 284.314 118.412 284.178 118.497C283.655 118.879 282.793 119.526 281.887 120.295C281.026 121.059 280.227 121.882 279.495 122.755C278.829 123.648 278.241 124.589 277.737 125.569L278.11 123.572L278.299 122.572L278.546 121.584C278.796 121.584 279.276 121.27 279.865 120.734C280.454 120.197 281.166 119.506 281.953 118.66Z" fill="#BA68C8"/>
<path d="M293.433 134.116C294.809 133.571 296.792 132.49 297.645 132.03C297.746 131.977 297.676 131.835 297.557 131.847C297.038 131.888 296.185 131.986 295.275 132.144C294.405 132.289 293.551 132.508 292.725 132.799C291.977 133.078 291.267 133.437 290.61 133.868C291.089 133.124 291.599 132.4 292.109 131.677C292.549 131.884 294.031 131.591 295.662 131.087C296.361 130.867 297.219 130.501 298.01 130.176C298.801 129.851 299.523 129.558 299.949 129.363C300.05 129.326 299.989 129.184 299.874 129.18C299.121 129.159 298.368 129.183 297.619 129.253C296.733 129.323 295.857 129.479 295.007 129.721C294.237 129.952 293.499 130.268 292.809 130.66C293.204 130.143 293.596 129.623 294.005 129.115C294.515 129.046 295.535 128.131 296.607 126.955C296.845 126.691 297.104 126.386 297.359 126.049L298.155 125.032C298.598 124.455 299.075 123.901 299.584 123.373C299.601 123.355 299.61 123.332 299.611 123.308C299.613 123.284 299.606 123.261 299.591 123.241C299.577 123.221 299.556 123.206 299.532 123.199C299.507 123.191 299.481 123.191 299.457 123.198C298.729 123.502 298.036 123.874 297.39 124.308C296.999 124.56 296.629 124.853 296.273 125.121C295.952 125.388 295.65 125.674 295.368 125.975C294.325 127.114 293.728 128.265 293.706 128.793C293.266 129.31 292.888 129.843 292.483 130.371C292.632 129.641 292.724 128.902 292.76 128.159C292.795 127.435 292.76 126.496 292.725 125.585C292.69 124.674 292.663 123.804 292.663 123.267C292.662 123.241 292.651 123.216 292.632 123.197C292.612 123.178 292.586 123.166 292.558 123.163C292.53 123.16 292.502 123.166 292.478 123.181C292.455 123.196 292.438 123.217 292.43 123.243C292.117 123.979 291.849 124.731 291.63 125.495C291.374 126.333 291.21 127.193 291.142 128.061C291.054 129.725 291.358 131.091 291.718 131.42C291.217 132.136 290.711 132.848 290.241 133.58C290.338 132.843 290.379 132.101 290.364 131.359C290.342 130.64 290.245 129.712 290.118 128.818C289.99 127.923 289.876 127.073 289.806 126.557C289.806 126.529 289.794 126.502 289.772 126.482C289.751 126.462 289.722 126.451 289.691 126.451C289.661 126.451 289.632 126.462 289.61 126.482C289.589 126.502 289.577 126.529 289.577 126.557C289.26 127.586 288.698 129.908 288.746 131.359C288.781 133.018 289.146 134.36 289.537 134.673C289.067 135.405 288.618 136.15 288.174 136.898C288.237 136.159 288.237 135.417 288.174 134.678C288.06 133.254 287.515 130.965 287.295 129.944C287.288 129.921 287.273 129.901 287.252 129.886C287.232 129.872 287.207 129.864 287.181 129.864C287.155 129.864 287.13 129.872 287.109 129.886C287.088 129.901 287.073 129.921 287.066 129.944C286.693 131.52 286.518 133.13 286.548 134.743C286.675 136.39 287.11 137.715 287.51 137.996C287.071 138.748 286.671 139.513 286.257 140.273C286.289 139.531 286.254 138.789 286.152 138.053C285.87 136.478 285.498 134.918 285.035 133.38C285.028 133.357 285.013 133.337 284.992 133.322C284.972 133.308 284.947 133.3 284.921 133.3C284.895 133.3 284.87 133.308 284.849 133.322C284.828 133.337 284.813 133.357 284.806 133.38C284.723 133.893 284.609 134.734 284.538 135.625C284.458 136.473 284.458 137.326 284.538 138.175C284.74 139.801 285.237 141.123 285.655 141.399C285.25 142.168 284.89 142.953 284.516 143.729C284.507 142.988 284.434 142.248 284.296 141.517C284.134 140.682 283.92 139.857 283.654 139.045C283.395 138.191 283.122 137.386 282.955 136.894C282.948 136.87 282.932 136.849 282.91 136.835C282.888 136.821 282.861 136.814 282.834 136.817C282.807 136.819 282.782 136.83 282.763 136.848C282.744 136.866 282.733 136.889 282.731 136.914C282.617 137.939 282.436 140.285 282.7 141.721C282.977 143.347 283.58 144.648 283.993 144.901C283.65 145.69 283.311 146.487 283.008 147.292C282.945 146.55 282.824 145.814 282.648 145.088C282.432 144.262 282.169 143.448 281.86 142.648C281.562 141.802 281.249 141.021 281.06 140.513C281.05 140.49 281.032 140.471 281.009 140.458C280.986 140.446 280.959 140.441 280.932 140.445C280.905 140.449 280.881 140.461 280.863 140.479C280.845 140.497 280.834 140.521 280.832 140.545C280.766 141.591 280.709 143.961 281.065 145.385C281.447 147.011 282.116 148.264 282.564 148.491C282.269 149.305 282.014 150.118 281.768 150.931C281.643 150.196 281.465 149.469 281.236 148.756C280.796 147.381 279.772 145.214 279.35 144.25C279.338 144.228 279.319 144.211 279.295 144.201C279.271 144.19 279.245 144.188 279.219 144.193C279.194 144.198 279.171 144.211 279.154 144.229C279.137 144.247 279.127 144.271 279.126 144.295C279.104 145.344 279.214 147.747 279.675 149.174C280.185 150.801 280.964 151.993 281.434 152.18C281.217 153.012 281.051 153.855 280.937 154.705C280.931 154.759 280.948 154.813 280.984 154.855C281.021 154.897 281.075 154.925 281.133 154.931C281.191 154.936 281.25 154.921 281.295 154.887C281.341 154.853 281.37 154.803 281.377 154.75C281.492 153.917 281.655 153.09 281.865 152.273C282.357 152.318 283.624 151.59 284.987 150.647C286.139 149.805 287.73 148.288 288.451 147.645C288.53 147.572 288.425 147.45 288.311 147.487C286.757 148.008 285.28 148.708 283.914 149.569C283.259 150.017 282.668 150.541 282.155 151.126C282.401 150.293 282.661 149.463 282.96 148.642C283.443 148.727 284.789 148.101 286.222 147.218C287.506 146.331 288.737 145.381 289.911 144.372C289.995 144.303 289.911 144.173 289.779 144.205C289.282 144.356 288.46 144.612 287.581 144.941C286.759 145.246 285.969 145.619 285.22 146.055C284.54 146.465 283.915 146.948 283.36 147.495C283.668 146.682 284.006 145.868 284.354 145.055C284.842 145.173 286.218 144.628 287.713 143.815C289.059 142.991 290.349 142.092 291.577 141.123C291.67 141.054 291.577 140.92 291.459 140.952C290.953 141.082 290.118 141.314 289.238 141.603C288.399 141.873 287.586 142.208 286.807 142.603C286.105 142.983 285.449 143.432 284.85 143.941C285.228 143.152 285.598 142.355 286.007 141.578C286.482 141.717 287.893 141.249 289.432 140.489C290.192 140.092 290.926 139.655 291.63 139.179C292.369 138.699 293.037 138.236 293.442 137.959C293.538 137.898 293.442 137.76 293.332 137.784C291.702 138.105 290.117 138.595 288.605 139.244C287.908 139.612 287.254 140.045 286.653 140.537C287.093 139.765 287.488 138.988 287.932 138.224C288.394 138.386 289.836 137.971 291.402 137.276C292.817 136.566 294.191 135.787 295.517 134.942C295.609 134.881 295.517 134.743 295.411 134.759C293.77 134.988 292.164 135.398 290.628 135.979C289.888 136.294 289.188 136.685 288.544 137.146C288.983 136.385 289.449 135.629 289.929 134.885C290.373 135.08 291.837 134.73 293.433 134.116Z" fill="#BA68C8"/>
<path d="M274.4 178.295H280.498C285.335 176.335 288.878 169.845 288.878 162.131C288.901 159.117 288.321 156.125 287.168 153.307H267.747C266.586 156.131 266.003 159.13 266.028 162.151C266.024 169.845 269.572 176.335 274.4 178.295Z" fill="#263238"/>
<path d="M153.868 40.7873C162.44 40.7873 169.389 34.3605 169.389 26.4327C169.389 18.5049 162.44 12.0781 153.868 12.0781C145.297 12.0781 138.348 18.5049 138.348 26.4327C138.348 34.3605 145.297 40.7873 153.868 40.7873Z" fill="#263238" stroke="#263238" stroke-miterlimit="10"/>
<path d="M153.868 39.1611C161.468 39.1611 167.63 33.4626 167.63 26.4331C167.63 19.4036 161.468 13.7051 153.868 13.7051C146.267 13.7051 140.105 19.4036 140.105 26.4331C140.105 33.4626 146.267 39.1611 153.868 39.1611Z" fill="white" stroke="#263238" stroke-miterlimit="10"/>
<path d="M153.869 27.7737C154.67 27.7737 155.32 27.1729 155.32 26.4318C155.32 25.6906 154.67 25.0898 153.869 25.0898C153.068 25.0898 152.418 25.6906 152.418 26.4318C152.418 27.1729 153.068 27.7737 153.869 27.7737Z" fill="#263238" stroke="#263238" stroke-miterlimit="10"/>
<path d="M160.638 26.4324H153.867L158.343 16.5469" stroke="#263238" stroke-miterlimit="10" stroke-linecap="round"/>
<path d="M4.37695 178.293H295.886" stroke="#263238" stroke-miterlimit="10" stroke-linecap="round"/>
<path d="M281.772 129.924L280.158 139.822L282.212 177.095" stroke="#263238" stroke-width="4" stroke-miterlimit="10" stroke-linecap="round"/>
<path d="M261.849 129.924L260.24 139.822L262.289 177.095" stroke="#263238" stroke-width="4" stroke-miterlimit="10" stroke-linecap="round"/>
<path d="M254.072 139.414L252.164 177.5" stroke="#263238" stroke-width="4" stroke-miterlimit="10" stroke-linecap="round"/>
<path d="M236.484 139.414L234.576 177.5" stroke="#263238" stroke-width="4" stroke-miterlimit="10" stroke-linecap="round"/>
<path d="M261.564 132.298H281.349C281.873 132.286 282.376 132.102 282.766 131.779C283.156 131.455 283.408 131.013 283.477 130.533L286.072 109.66C286.107 109.438 286.089 109.212 286.02 108.998C285.951 108.783 285.833 108.585 285.672 108.417C285.512 108.249 285.314 108.116 285.092 108.027C284.87 107.937 284.63 107.894 284.388 107.899H264.602C264.079 107.911 263.579 108.095 263.189 108.418C262.8 108.74 262.548 109.181 262.478 109.66L259.88 130.533C259.844 130.755 259.861 130.981 259.929 131.196C259.998 131.411 260.117 131.61 260.277 131.778C260.438 131.946 260.636 132.08 260.858 132.17C261.08 132.259 261.321 132.303 261.564 132.298Z" fill="#BA68C8" stroke="#263238" stroke-miterlimit="10" stroke-linecap="round"/>
<path d="M235.649 140.495H280.057C280.494 140.495 280.913 140.334 281.223 140.049C281.532 139.763 281.705 139.375 281.705 138.97C281.705 138.566 281.532 138.178 281.223 137.892C280.913 137.606 280.494 137.445 280.057 137.445H235.649C235.212 137.445 234.792 137.606 234.483 137.892C234.174 138.178 234 138.566 234 138.97C234 139.375 234.174 139.763 234.483 140.049C234.792 140.334 235.212 140.495 235.649 140.495Z" fill="#BA68C8" stroke="#263238" stroke-miterlimit="10" stroke-linecap="round"/>
<path d="M254.429 92.5031C254.429 92.5031 252.727 93.5522 251.483 96.5695C250.239 99.5868 247.75 116.04 247.75 116.983C247.75 117.927 250.353 118.447 251.373 117.508C252.393 116.568 254.89 108.712 254.89 108.712L255.906 92.9057C255.906 92.9057 255.559 92.19 254.429 92.5031Z" fill="white" stroke="#263238" stroke-miterlimit="10" stroke-linecap="round"/>
<path d="M254.429 92.5031C254.429 92.5031 252.727 93.5522 251.483 96.5695C251.109 97.4804 250.604 99.599 250.129 102.141L255.115 105.044L255.898 92.9057C255.898 92.9057 255.559 92.19 254.429 92.5031Z" fill="white" stroke="#263238" stroke-miterlimit="10" stroke-linecap="round"/>
<path d="M262.909 90.2012C262.909 90.2012 257.589 91.352 255.435 91.9782C253.28 92.6044 253.623 94.7027 252.832 97.842C252.04 100.981 250.91 104.544 251.588 106.321C252.265 108.098 254.419 111.241 254.529 111.66C254.639 112.079 251.249 123.802 251.249 123.802C251.249 123.802 229.968 133.33 229.516 135.213C229.063 137.096 225.998 170.31 225.998 170.31C226.609 171.262 230.98 174.625 230.593 173.539C230.483 173.226 232.351 161.702 234.48 156.57C236.608 151.438 238.555 145.054 239.457 142.02C240.358 138.986 240.617 138.259 240.617 138.259L266.312 138.572C266.312 138.572 274.798 139.621 275.818 133.025C276.838 126.429 274.688 123.916 273.783 122.452C272.877 120.988 269.707 111.042 269.707 111.042C269.707 111.042 273.897 103.189 274.46 100.571C275.023 97.9518 275.704 94.8125 274.236 93.4543C272.767 92.0961 266.99 90.4167 266.99 90.4167L262.909 90.2012Z" fill="#263238" stroke="#263238" stroke-miterlimit="10" stroke-linecap="round"/>
<path d="M273.378 121.606C272.178 118.78 269.707 111.034 269.707 111.034C269.707 111.034 273.897 103.181 274.46 100.562C275.023 97.9437 275.704 94.8044 274.236 93.4462C272.767 92.088 266.99 90.4086 266.99 90.4086L262.914 90.2012C262.914 90.2012 257.594 91.352 255.439 91.9782C253.285 92.6044 253.628 94.7027 252.837 97.842C252.045 100.981 250.915 104.544 251.592 106.321C252.269 108.098 254.424 111.241 254.534 111.66C254.617 111.965 252.863 118.191 251.896 121.606H273.378Z" fill="white" stroke="#263238" stroke-miterlimit="10" stroke-linecap="round"/>
<path d="M226.025 170.311C226.025 170.311 222.318 173.454 221.94 173.596C221.562 173.739 213.665 175.544 214.224 176.077C214.782 176.609 230.079 179.094 230.079 179.094L230.619 173.535L226.025 170.311Z" fill="white" stroke="#263238" stroke-miterlimit="10" stroke-linecap="round"/>
<path d="M269.944 101.192L271.645 113.961L258.288 127.571L253.759 129.771L253.082 131.548C253.082 131.548 257.721 130.609 258.855 129.979C259.885 129.342 260.867 128.642 261.797 127.885L276.838 117.926C276.838 117.926 276.724 99.0819 276.609 96.7802C276.495 94.4786 273.092 92.5918 271.742 92.5918" fill="white"/>
<path d="M269.944 101.192L271.645 113.961L258.288 127.571L253.759 129.771L253.082 131.548C253.082 131.548 257.721 130.609 258.855 129.979C259.885 129.342 260.867 128.642 261.797 127.885L276.838 117.926C276.838 117.926 276.724 99.0819 276.609 96.7802C276.495 94.4786 273.092 92.5918 271.742 92.5918" stroke="#263238" stroke-miterlimit="10" stroke-linecap="round"/>
<path d="M271.634 113.962L258.276 127.572L253.747 129.772L253.07 131.549C253.07 131.549 257.709 130.61 258.843 129.98C259.873 129.342 260.855 128.643 261.785 127.885L276.84 117.927C276.84 117.927 276.787 109.456 276.721 103.182L270.425 104.869L271.634 113.962Z" fill="white" stroke="#263238" stroke-miterlimit="10" stroke-linecap="round"/>
<path d="M248.088 114.268C248.088 114.268 247.648 117.618 247.749 118.452C247.851 119.286 252.955 128.191 253.07 128.712C253.184 129.232 256.011 130.912 256.24 131.225C256.468 131.538 259.52 132.274 259.52 132.274C259.52 132.274 260.311 131.017 259.634 129.866C258.957 128.716 254.767 127.561 254.767 127.561L252.388 116.15V114.475" fill="white"/>
<path d="M248.088 114.268C248.088 114.268 247.648 117.618 247.749 118.452C247.851 119.286 252.955 128.191 253.07 128.712C253.184 129.232 256.011 130.912 256.24 131.225C256.468 131.538 259.52 132.274 259.52 132.274C259.52 132.274 260.311 131.017 259.634 129.866C258.957 128.716 254.767 127.561 254.767 127.561L252.388 116.15V114.475" stroke="#263238" stroke-miterlimit="10" stroke-linecap="round"/>
<path d="M271.633 127.154C271.633 127.154 268.801 126.211 263.82 126.947C258.838 127.683 247.297 134.063 247.521 135.112C247.745 136.161 256.464 171.121 256.464 171.121L261.555 173.845C261.555 173.845 260.676 160.235 260.764 153.106C260.852 145.978 260.764 137.926 260.764 137.926C260.764 137.926 268.801 139.915 272.424 138.239C276.047 136.564 276.272 133.319 275.819 130.806C275.366 128.293 274.346 127.772 274.346 127.772" fill="#263238"/>
<path d="M271.633 127.154C271.633 127.154 268.801 126.211 263.82 126.947C258.838 127.683 247.297 134.063 247.521 135.112C247.745 136.161 256.464 171.121 256.464 171.121L261.555 173.845C261.555 173.845 260.676 160.235 260.764 153.106C260.852 145.978 260.764 137.926 260.764 137.926C260.764 137.926 268.801 139.915 272.424 138.239C276.047 136.564 276.272 133.319 275.819 130.806C275.366 128.293 274.346 127.772 274.346 127.772" stroke="#263238" stroke-miterlimit="10" stroke-linecap="round"/>
<path d="M256.465 171.119C256.465 171.119 253.523 174.889 253.18 175.1C252.837 175.312 245.486 178.553 246.145 178.971C246.805 179.39 262.334 178.971 262.334 178.971L261.653 173.425L256.465 171.119Z" fill="white" stroke="#263238" stroke-miterlimit="10" stroke-linecap="round"/>
<path d="M259.084 75.4727C259.084 75.4727 256.521 73.0043 258.267 70.9183C260.012 68.8322 265.236 67.2219 271.18 69.5926C277.125 71.9633 277.129 77.4612 276.922 80.7794C276.716 84.0976 274.873 89.1238 274.873 89.1238C271.555 89.2224 268.233 89.1273 264.928 88.8391C261.805 88.5328 258.829 87.4524 256.314 85.712C256.314 85.712 258.574 76.8919 259.084 75.4727Z" fill="#263238" stroke="#263238" stroke-miterlimit="10" stroke-linecap="round"/>
<path d="M261.855 87.3215C261.855 87.3215 261.648 89.5987 261.341 91.0179C261.033 92.4371 260.826 97.2762 261.239 97.6584C261.653 98.0407 263.803 96.9915 265.443 94.7184C266.375 93.4945 267.037 92.1126 267.391 90.6519L268.415 87.1426C268.415 87.1426 263.904 88.269 261.855 87.3215Z" fill="white" stroke="#263238" stroke-miterlimit="10" stroke-linecap="round"/>
<path d="M268.304 87.5056L267.596 87.3145C266.198 87.591 263.362 88.022 261.854 87.3145C261.854 87.3145 261.731 88.6767 261.533 89.9495C262.328 90.0137 263.128 89.9222 263.881 89.6811C265.455 89.2607 266.935 88.5831 268.252 87.6804L268.304 87.5056Z" fill="#263238" stroke="#263238" stroke-miterlimit="10" stroke-linecap="round"/>
<path d="M259.906 76.043C259.906 76.043 258.521 81.736 259.132 83.9156C259.743 86.0952 260.662 89.0556 263.74 89.0556C266.818 89.0556 269.724 86.7296 270.335 85.1193C270.947 83.509 271.703 78.5072 271.703 78.5072C271.703 78.5072 263.789 79.4547 259.906 76.043Z" fill="white" stroke="#263238" stroke-miterlimit="10" stroke-linecap="round"/>
<path d="M265.459 80.8852C265.459 80.8852 266.031 80.0963 268.097 80.7266" stroke="#263238" stroke-miterlimit="10" stroke-linecap="round"/>
<path d="M261.995 79.9382C261.995 79.9382 261.458 78.4824 260.17 78.4824" stroke="#263238" stroke-miterlimit="10" stroke-linecap="round"/>
<path d="M261.204 79.1696C261.204 79.499 261.059 79.5397 260.892 79.5234C260.725 79.5071 260.602 79.438 260.602 79.1167C260.602 78.7955 260.733 78.5352 260.901 78.5515C261.068 78.5678 261.204 78.8402 261.204 79.1696Z" fill="#263238"/>
<path d="M266.467 80.9228C266.401 81.2603 266.291 81.2684 266.119 81.2684C265.948 81.2684 265.781 81.2684 265.847 80.9228C265.913 80.5771 266.111 80.3047 266.286 80.3047C266.462 80.3047 266.537 80.5934 266.467 80.9228Z" fill="#263238"/>
<path d="M262.774 79.7012C262.795 80.1492 262.705 80.5958 262.51 81.0065C262.198 81.5351 261.23 82.2671 261.45 82.5518C261.587 82.8025 261.805 83.0077 262.074 83.1389C262.342 83.27 262.648 83.3206 262.949 83.2837" stroke="#263238" stroke-miterlimit="10" stroke-linecap="round"/>
<path d="M261.186 84.1758C261.186 84.1758 262.373 84.9891 264.532 84.6231" stroke="#263238" stroke-miterlimit="10" stroke-linecap="round"/>
<path d="M260.271 77.4986C260.637 77.354 261.044 77.3278 261.427 77.4246C261.81 77.5213 262.147 77.7352 262.382 78.0313" stroke="#263238" stroke-miterlimit="10" stroke-linecap="round"/>
<path d="M265.191 78.9261C265.191 78.9261 266.911 78.0315 268.674 79.5361" stroke="#263238" stroke-miterlimit="10" stroke-linecap="round"/>
<path d="M174.34 177.686L175.962 138.607" stroke="#263238" stroke-width="4" stroke-miterlimit="10" stroke-linecap="round"/>
<path d="M176.912 177.687L179.08 128.459" stroke="#263238" stroke-width="4" stroke-miterlimit="10" stroke-linecap="round"/>
<path d="M206.978 177.687L204.674 128.963" stroke="#263238" stroke-width="4" stroke-miterlimit="10" stroke-linecap="round"/>
<path d="M209.281 177.686L207.654 138.607" stroke="#263238" stroke-width="4" stroke-miterlimit="10" stroke-linecap="round"/>
<path d="M204.208 108.574H179.147C178.054 108.574 177.168 109.393 177.168 110.404V130.94C177.168 131.95 178.054 132.77 179.147 132.77H204.208C205.301 132.77 206.187 131.95 206.187 130.94V110.404C206.187 109.393 205.301 108.574 204.208 108.574Z" fill="#BA68C8" stroke="#263238" stroke-miterlimit="10" stroke-linecap="round"/>
<path d="M209.427 140.495H175.317C174.879 140.495 174.46 140.334 174.151 140.049C173.842 139.763 173.668 139.375 173.668 138.97C173.668 138.566 173.842 138.178 174.151 137.892C174.46 137.606 174.879 137.445 175.317 137.445H209.427C209.865 137.445 210.284 137.606 210.593 137.892C210.902 138.178 211.076 138.566 211.076 138.97C211.076 139.375 210.902 139.763 210.593 140.049C210.284 140.334 209.865 140.495 209.427 140.495Z" fill="#BA68C8" stroke="#263238" stroke-miterlimit="10" stroke-linecap="round"/>
<path d="M179.634 122.806C179.634 122.806 177.436 126.559 176.618 127.848C175.8 129.138 174.991 133.948 176.038 135.359C177.084 136.77 177.893 137.291 178.821 137.612C179.748 137.933 203.997 137.612 203.997 137.612C203.997 137.612 206.666 134.18 206.899 132.57C207.132 130.959 206.433 127.096 205.738 125.811C205.043 124.526 203.069 122.375 203.069 122.375L179.634 122.806Z" fill="white" stroke="#263238" stroke-miterlimit="10" stroke-linecap="round"/>
<path d="M213.278 105.321L222.793 92.4422C222.793 92.4422 223.602 89.1199 223.721 88.1521C223.839 87.1843 224.415 86.6516 225.229 86.1189C226.072 85.5918 226.849 84.9794 227.546 84.293C228.012 83.7562 228.359 84.4028 228.126 85.151C227.893 85.8993 227.084 86.2246 226.737 86.4401C226.39 86.6556 226.157 87.5137 226.157 87.5137C226.157 87.5137 230.215 86.1189 231.028 85.6878C231.842 85.2568 233.578 82.8982 233.697 84.0612C233.816 85.2242 232.189 88.8922 231.842 89.1077C231.494 89.3232 225.343 93.3978 225.343 93.3978C225.343 93.3978 218.616 110.03 217.917 111.424C217.218 112.819 216.294 113.893 215.947 113.893C215.6 113.893 208.754 109.826 208.754 109.826L213.151 104.89L213.278 105.321Z" fill="white" stroke="#263238" stroke-miterlimit="10" stroke-linecap="round"/>
<path d="M167.938 105.321L158.424 92.4422C158.424 92.4422 157.615 89.1199 157.496 88.1521C157.377 87.1843 156.801 86.6516 155.988 86.1189C155.143 85.5917 154.364 84.9794 153.666 84.293C153.205 83.7562 152.857 84.4028 153.09 85.151C153.323 85.8993 154.132 86.2246 154.48 86.4401C154.827 86.6556 155.06 87.5137 155.06 87.5137C155.06 87.5137 151.002 86.1189 150.188 85.6878C149.375 85.2568 147.634 82.8982 147.519 84.0612C147.405 85.2242 149.028 88.8922 149.375 89.1077C149.722 89.3232 155.873 93.3978 155.873 93.3978C155.873 93.3978 162.601 110.03 163.295 111.424C163.99 112.819 164.922 113.893 165.269 113.893C165.617 113.893 172.463 109.826 172.463 109.826L168.066 104.89L167.938 105.321Z" fill="white" stroke="#263238" stroke-miterlimit="10" stroke-linecap="round"/>
<path d="M187.284 90.9219L177.074 93.4959L167.938 104.98L172.114 112.059L178.609 106.911L180.117 120.213L179.075 123.872C179.075 123.872 178.727 124.194 185.23 125.373C191.733 126.552 193.584 126.125 196.833 125.694C200.083 125.263 204.26 123.872 204.26 123.872L203.099 119.257L205.069 107.668L210.292 112.925L213.889 104.662L206.348 93.5041L195.092 90.93L187.284 90.9219Z" fill="#263238" stroke="#263238" stroke-miterlimit="10" stroke-linecap="round"/>
<path d="M184.725 77.6888C184.725 77.6888 183.406 75.867 182.72 77.7213C182.034 79.5756 184.949 81.8528 184.949 81.8528L185.147 77.9694" fill="white"/>
<path d="M184.725 77.6888C184.725 77.6888 183.406 75.867 182.72 77.7213C182.034 79.5756 184.949 81.8528 184.949 81.8528L185.147 77.9694" stroke="#263238" stroke-miterlimit="10" stroke-linecap="round"/>
<path d="M188.217 89.4204L187.175 90.2743L185.781 92.4173L186.133 100.038L192.513 96.069L198.079 100.034C198.079 100.034 197.27 91.3438 197.27 90.807C197.27 90.2702 195.991 89.4122 195.182 88.9812C194.373 88.5501 188.217 89.4204 188.217 89.4204Z" fill="white" stroke="#263238" stroke-miterlimit="10" stroke-linecap="round"/>
<path d="M187.869 88.2413C187.869 88.2413 187.988 91.0309 188.102 91.5677C188.216 92.1044 192.499 97.6674 192.499 97.6674L195.515 91.1244L195.748 84.793L187.869 88.2413Z" fill="white" stroke="#263238" stroke-miterlimit="10" stroke-linecap="round"/>
<path d="M188.001 90.6036C188.596 90.6683 189.199 90.6353 189.782 90.5061C192.794 89.8758 194.442 87.2732 194.442 87.2732L190.872 86.9316L187.869 88.241C187.869 88.241 187.926 89.5992 188.001 90.6036Z" fill="#263238" stroke="#263238" stroke-miterlimit="10" stroke-linecap="round"/>
<path d="M184.334 74.4847C184.334 74.4847 184.747 84.4272 185.042 85.4641C185.336 86.5011 187.68 89.8722 190.318 89.6078C192.956 89.3435 195.638 87.4282 195.898 85.8423C196.157 84.2564 196.852 79.5759 197.291 77.685C197.731 75.7941 199.49 73.769 195.695 71.9106C191.901 70.0523 184.382 71.4471 184.334 74.4847Z" fill="white" stroke="#263238" stroke-miterlimit="10" stroke-linecap="round"/>
<path d="M186.976 79.6035C186.95 80.0102 186.726 80.3558 186.466 80.3436C186.207 80.3314 186.027 79.9776 186.049 79.5588C186.071 79.1399 186.304 78.8065 186.563 78.8187C186.823 78.8309 187.003 79.1847 186.976 79.6035Z" fill="#263238"/>
<path d="M191.289 80.5138C191.262 80.9205 191.034 81.2661 190.779 81.2499C190.524 81.2336 190.339 80.8839 190.361 80.465C190.383 80.0462 190.616 79.7127 190.871 79.7249C191.126 79.7371 191.315 80.0746 191.289 80.5138Z" fill="#263238"/>
<path d="M187.94 78.8105C187.844 79.7379 187.686 80.6587 187.465 81.5676C187.188 82.5029 186.216 82.6899 186.814 83.3202C187.412 83.9505 188.481 83.8895 189.567 83.7269" stroke="#263238" stroke-miterlimit="10" stroke-linecap="round"/>
<path d="M186.713 84.6055C186.713 84.6055 188.173 85.6912 191.215 85.0487" stroke="#263238" stroke-miterlimit="10" stroke-linecap="round"/>
<path d="M185.641 77.822C185.641 77.822 187.048 77.1592 187.492 77.9847" stroke="#263238" stroke-miterlimit="10" stroke-linecap="round"/>
<path d="M189.764 78.4291C189.764 78.4291 191.496 77.9208 192.841 79.649" stroke="#263238" stroke-miterlimit="10" stroke-linecap="round"/>
<path d="M195.141 75.8463C195.141 75.8463 189.35 76.7368 186.62 76.2285C183.889 75.7202 181.445 73.5162 182.707 71.6375C183.969 69.7588 191.237 67.7784 194.099 68.1973C196.961 68.6161 199.758 69.4619 199.876 72.1946C199.995 74.9272 198.746 80.177 198.746 80.177L197.836 80.6935C197.836 80.6935 196.596 78.9937 196.025 78.9083C195.453 78.8229 193.747 77.8144 195.141 75.8463Z" fill="#263238" stroke="#263238" stroke-miterlimit="10" stroke-linecap="round"/>
<path d="M196.346 80.4782C196.346 80.4782 198.984 78.1481 199.767 79.0224C200.549 79.8967 199.661 82.3732 198.052 83.5525C196.443 84.7317 195.801 83.6582 195.801 83.6582" fill="white"/>
<path d="M196.346 80.4782C196.346 80.4782 198.984 78.1481 199.767 79.0224C200.549 79.8967 199.661 82.3732 198.052 83.5525C196.443 84.7317 195.801 83.6582 195.801 83.6582" stroke="#263238" stroke-miterlimit="10" stroke-linecap="round"/>
<path d="M191.299 171.291C191.299 171.291 187.605 131.257 185.965 128.41C184.325 125.563 179.964 124.246 175.927 127.361C171.891 130.476 174.463 136.14 175.334 140.268C176.204 144.395 182.734 168.989 182.734 168.989L191.299 171.291Z" fill="white" stroke="#263238" stroke-miterlimit="10" stroke-linecap="round"/>
<path d="M182.734 168.988L181.384 172.416C181.384 172.416 175.853 176.483 176.073 177.121C176.11 177.219 176.137 177.32 176.152 177.422C176.184 177.653 176.304 177.866 176.491 178.022C176.678 178.178 176.92 178.267 177.172 178.272H192.68C192.805 177.055 192.805 175.829 192.68 174.612C192.455 173.148 191.361 171.123 191.361 171.123L182.734 168.988Z" fill="#263238" stroke="#263238" stroke-miterlimit="10" stroke-linecap="round"/>
<path d="M192.772 176.914H176.126C176.081 176.975 176.063 177.049 176.073 177.121C176.111 177.219 176.137 177.32 176.152 177.422C176.184 177.654 176.304 177.867 176.492 178.023C176.679 178.179 176.921 178.267 177.172 178.272H192.68C192.68 178.272 192.746 177.703 192.772 176.914Z" fill="white" stroke="#263238" stroke-miterlimit="10" stroke-linecap="round"/>
<path d="M195.027 171.49C195.027 171.49 196.404 131.379 197.907 128.471C199.411 125.564 203.711 124.071 207.888 127.019C212.065 129.967 209.761 135.734 209.084 139.89C208.407 144.046 203.553 169.164 203.553 169.164L195.027 171.49Z" fill="white" stroke="#263238" stroke-miterlimit="10" stroke-linecap="round"/>
<path d="M203.552 169.164L204.871 172.417C204.871 172.417 210.407 176.484 210.182 177.122C210.147 177.22 210.121 177.321 210.103 177.423C210.072 177.655 209.951 177.869 209.762 178.025C209.574 178.181 209.332 178.269 209.079 178.273H193.567C193.441 177.056 193.441 175.83 193.567 174.613C193.791 173.149 194.886 171.124 194.886 171.124L203.552 169.164Z" fill="#263238" stroke="#263238" stroke-miterlimit="10" stroke-linecap="round"/>
<path d="M193.479 176.914H210.147C210.192 176.975 210.21 177.049 210.2 177.121C210.164 177.22 210.138 177.32 210.12 177.422C210.089 177.654 209.968 177.868 209.78 178.024C209.591 178.18 209.349 178.268 209.096 178.272H193.566C193.566 178.272 193.505 177.703 193.479 176.914Z" fill="white" stroke="#263238" stroke-miterlimit="10" stroke-linecap="round"/>
<path d="M172.279 53.9609H151.288C150.431 53.9609 149.609 54.2758 149.003 54.8364C148.397 55.3969 148.057 56.1571 148.057 56.9498V67.3355C148.057 68.1282 148.397 68.8884 149.003 69.4489C149.609 70.0095 150.431 70.3244 151.288 70.3244H164.958L174.095 76.2939L171.457 70.3244H172.261C173.118 70.3244 173.94 70.0095 174.546 69.4489C175.152 68.8884 175.493 68.1282 175.493 67.3355V56.9498C175.493 56.1599 175.155 55.4021 174.552 54.8421C173.95 54.282 173.133 53.9652 172.279 53.9609Z" fill="#BA68C8" stroke="#263238" stroke-miterlimit="10"/>
<path d="M156.731 62.0129C156.737 62.2206 156.674 62.425 156.553 62.5998C156.432 62.7746 156.256 62.9118 156.05 62.9938C155.843 63.0757 155.615 63.0986 155.395 63.0596C155.174 63.0205 154.971 62.9213 154.812 62.7747C154.653 62.6281 154.544 62.4407 154.501 62.2368C154.458 62.0329 154.482 61.8217 154.57 61.6304C154.658 61.4392 154.805 61.2766 154.994 61.1636C155.182 61.0505 155.403 60.9923 155.628 60.9963C155.918 61.0015 156.195 61.1101 156.4 61.2995C156.606 61.489 156.725 61.7445 156.731 62.0129Z" fill="#263238"/>
<path d="M162.904 62.0127C162.909 62.2186 162.847 62.4211 162.726 62.5942C162.606 62.7674 162.432 62.9035 162.228 62.9851C162.023 63.0667 161.797 63.0902 161.578 63.0525C161.359 63.0148 161.157 62.9177 160.998 62.7735C160.839 62.6293 160.73 62.4446 160.685 62.2429C160.64 62.0413 160.661 61.8317 160.745 61.6411C160.829 61.4504 160.973 61.2872 161.158 61.1724C161.343 61.0575 161.56 60.9961 161.783 60.9961C162.076 60.9971 162.358 61.1039 162.567 61.2937C162.776 61.4836 162.897 61.7416 162.904 62.0127Z" fill="#263238"/>
<path d="M169.081 62.0135C169.082 62.2198 169.017 62.4216 168.893 62.5934C168.77 62.7652 168.594 62.8993 168.388 62.9786C168.183 63.0579 167.956 63.0788 167.737 63.0388C167.518 62.9987 167.317 62.8995 167.16 62.7537C167.002 62.6079 166.895 62.422 166.851 62.2197C166.808 62.0174 166.831 61.8077 166.917 61.6173C167.002 61.4269 167.147 61.2644 167.333 61.1503C167.519 61.0362 167.737 60.9758 167.96 60.9766C168.257 60.9776 168.542 61.0872 168.752 61.2815C168.962 61.4757 169.08 61.7388 169.081 62.0135Z" fill="#263238"/>
<path d="M109.207 177.686L110.829 138.607" stroke="#263238" stroke-width="4" stroke-miterlimit="10" stroke-linecap="round"/>
<path d="M111.779 177.687L113.947 128.459" stroke="#263238" stroke-width="4" stroke-miterlimit="10" stroke-linecap="round"/>
<path d="M141.845 177.687L139.541 128.963" stroke="#263238" stroke-width="4" stroke-miterlimit="10" stroke-linecap="round"/>
<path d="M144.148 177.686L142.521 138.607" stroke="#263238" stroke-width="4" stroke-miterlimit="10" stroke-linecap="round"/>
<path d="M139.074 108.574H114.012C112.919 108.574 112.033 109.393 112.033 110.404V130.94C112.033 131.95 112.919 132.77 114.012 132.77H139.074C140.166 132.77 141.052 131.95 141.052 130.94V110.404C141.052 109.393 140.166 108.574 139.074 108.574Z" fill="#BA68C8" stroke="#263238" stroke-miterlimit="10" stroke-linecap="round"/>
<path d="M144.294 140.495H110.184C109.747 140.495 109.327 140.334 109.018 140.049C108.709 139.763 108.535 139.375 108.535 138.97C108.535 138.566 108.709 138.178 109.018 137.892C109.327 137.606 109.747 137.445 110.184 137.445H144.294C144.732 137.445 145.151 137.606 145.46 137.892C145.77 138.178 145.943 138.566 145.943 138.97C145.943 139.375 145.77 139.763 145.46 140.049C145.151 140.334 144.732 140.495 144.294 140.495Z" fill="#BA68C8" stroke="#263238" stroke-miterlimit="10" stroke-linecap="round"/>
<path d="M120.138 75.2291C119.61 74.5117 118.909 73.9178 118.09 73.4944C117.271 73.0709 116.357 72.8295 115.42 72.7892C112.069 72.5534 108.895 74.4565 107.347 77.4738C105.8 80.4911 109.066 82.3169 109.066 84.2241C109.066 86.1312 104.771 86.607 103.315 89.1486C101.86 91.6901 101.596 96.3706 107.176 98.7535C112.755 101.136 117.222 99.7051 119.883 97.6434C122.543 95.5817 121.342 92.2431 120.397 89.3071C119.452 86.3712 121.685 80.2552 122.371 78.6652C123.057 77.0753 120.138 75.2291 120.138 75.2291Z" fill="#263238" stroke="#263238" stroke-miterlimit="10" stroke-linecap="round"/>
<path d="M113.521 112.234L110.782 121.79C110.782 121.79 109.243 123.416 107.374 122.908C105.506 122.4 105.726 120.265 105.836 119.858L108.803 108.879L113.521 112.234Z" fill="white" stroke="#263238" stroke-miterlimit="10" stroke-linecap="round"/>
<path d="M122.255 91.7988C122.255 91.7988 122.146 95.2553 121.486 96.2719C120.826 97.2885 117.639 97.7968 115.77 98.2035C113.901 98.6101 111.923 99.5251 110.824 100.948C109.724 102.372 106.207 111.013 106.207 111.013L113.682 114.673L114.671 111.318L117.639 115.994C117.639 115.994 113.242 122.602 111.703 126.669C110.164 130.735 110.274 133.887 112.692 136.326C115.111 138.766 117.859 139.071 120.497 139.173C123.135 139.275 135.666 139.58 138.524 138.563C141.382 137.546 143.14 135.412 142.811 130.125C142.481 124.839 136.545 116.909 136.215 116.198C135.886 115.486 135.556 114.876 135.556 114.876L136.435 110.505L137.864 113.656L144.789 109.285C144.789 109.285 141.382 101.762 139.513 99.9317C137.644 98.1018 134.896 97.7968 132.808 97.4919C130.719 97.1869 129.84 96.6786 129.07 95.5603C128.301 94.442 128.411 91.7988 128.411 91.7988H122.255Z" fill="white" stroke="#263238" stroke-miterlimit="10" stroke-linecap="round"/>
<path d="M128.407 92.1811L125.329 91.7988H122.252C122.252 91.7988 122.252 92.3681 122.168 93.1042C122.999 93.7385 125.171 95.3041 126.49 95.4464C127.294 95.5062 128.102 95.4248 128.873 95.2065C128.534 94.2297 128.376 93.2067 128.407 92.1811Z" fill="#263238" stroke="#263238" stroke-miterlimit="10" stroke-linecap="round"/>
<path d="M138.525 112.234L141.273 121.79C141.273 121.79 142.812 123.416 144.681 122.908C146.55 122.4 146.33 120.265 146.22 119.858L143.252 108.879L138.525 112.234Z" fill="white" stroke="#263238" stroke-miterlimit="10" stroke-linecap="round"/>
<path d="M142.811 130.125C142.481 124.839 136.545 116.91 136.215 116.198C135.886 115.486 135.556 114.876 135.556 114.876L136.435 110.505L137.864 113.656L144.789 109.285C144.789 109.285 141.382 101.762 139.513 99.9321C138.172 98.6186 136.378 98.094 134.676 97.7891L132.566 105.422H118.936L116.324 98.1022L115.748 98.2201C113.879 98.6268 111.901 99.5417 110.802 100.965C109.702 102.388 106.207 111.013 106.207 111.013L113.682 114.673L114.671 111.318L117.639 115.995C117.639 115.995 113.242 122.603 111.703 126.669C110.164 130.735 110.274 133.887 112.692 136.327C115.111 138.767 117.859 139.072 120.497 139.173C123.135 139.275 135.666 139.58 138.524 138.563C141.382 137.547 143.14 135.412 142.811 130.125Z" fill="#263238" stroke="#263238" stroke-miterlimit="10" stroke-linecap="round"/>
<path d="M122.367 166.419C122.367 166.419 117.311 139.072 117.091 136.124C116.871 133.176 119.179 131.447 121.817 130.939C124.455 130.431 126.654 132.972 126.874 134.7C127.058 136.168 127.01 159.603 126.988 166.012C126.988 167.207 126.861 168.399 126.61 169.57C126.399 170.546 126.17 171.636 126.113 172.01C126.003 172.722 126.003 175.67 124.684 177.297C123.365 178.923 121.386 180.041 120.727 178.11C120.067 176.178 120.617 173.332 121.167 171.807C121.716 170.282 122.266 169.062 122.266 169.062L122.367 166.419Z" fill="white" stroke="#263238" stroke-miterlimit="10" stroke-linecap="round"/>
<path d="M125.994 170.586C125.224 172.416 124.675 173.839 123.026 173.941C121.377 174.043 121.157 171.806 121.157 171.806C120.607 173.331 120.058 176.178 120.717 178.109C121.377 180.041 123.356 178.922 124.675 177.296C125.994 175.669 125.994 172.721 126.104 172.009C126.161 171.648 126.389 170.558 126.6 169.57C126.649 169.346 126.688 169.118 126.728 168.895C126.473 169.472 126.213 170.062 125.994 170.586Z" fill="#263238" stroke="#263238" stroke-miterlimit="10" stroke-linecap="round"/>
<path d="M132.273 166.419C132.273 166.419 137.329 139.072 137.549 136.124C137.769 133.176 135.46 131.447 132.822 130.939C130.184 130.431 127.986 132.972 127.766 134.7C127.577 136.168 127.63 159.603 127.647 166.012C127.652 167.207 127.783 168.399 128.039 169.57C128.25 170.546 128.478 171.636 128.535 172.01C128.645 172.722 128.645 175.67 129.964 177.297C131.283 178.923 133.262 180.041 133.922 178.11C134.581 176.178 134.031 173.332 133.482 171.807C132.932 170.282 132.383 169.062 132.383 169.062L132.273 166.419Z" fill="white" stroke="#263238" stroke-miterlimit="10" stroke-linecap="round"/>
<path d="M128.645 170.586C129.414 172.416 129.964 173.839 131.613 173.941C133.262 174.043 133.481 171.806 133.481 171.806C134.031 173.331 134.581 176.178 133.921 178.109C133.262 180.041 131.283 178.922 129.964 177.296C128.645 175.669 128.645 172.721 128.535 172.009C128.478 171.648 128.249 170.558 128.038 169.57C127.99 169.346 127.946 169.118 127.906 168.895C128.166 169.472 128.421 170.062 128.645 170.586Z" fill="#263238" stroke="#263238" stroke-miterlimit="10" stroke-linecap="round"/>
<path d="M143.142 119.248L130.281 127.686C130.281 127.686 128.193 128.499 127.973 128.804C127.753 129.109 126.434 131.956 126.764 132.464C127.093 132.972 127.744 133.899 127.744 133.899C128.1 133.535 128.397 133.124 128.623 132.68C128.733 132.273 130.712 131.256 131.152 130.341C131.591 129.426 132.361 128.206 132.361 128.206C132.361 128.206 142.144 124.852 143.243 124.14C144.342 123.428 146.321 123.022 146.321 120.887" fill="white"/>
<path d="M143.142 119.248L130.281 127.686C130.281 127.686 128.193 128.499 127.973 128.804C127.753 129.109 126.434 131.956 126.764 132.464C127.093 132.972 127.744 133.899 127.744 133.899C128.1 133.535 128.397 133.124 128.623 132.68C128.733 132.273 130.712 131.256 131.152 130.341C131.591 129.426 132.361 128.206 132.361 128.206C132.361 128.206 142.144 124.852 143.243 124.14C144.342 123.428 146.321 123.022 146.321 120.887" stroke="#263238" stroke-miterlimit="10" stroke-linecap="round"/>
<path d="M108.766 119.146L122.528 126.263C122.528 126.263 124.7 126.865 124.955 127.145C125.21 127.426 126.85 130.126 126.578 130.663L125.813 132.204C125.397 131.871 125.037 131.483 124.744 131.053C124.59 130.646 122.502 129.833 121.961 128.979C121.42 128.125 120.51 126.974 120.51 126.974C120.51 126.974 110.397 124.608 109.219 124.01C108.041 123.412 106.031 123.197 105.785 121.078" fill="white"/>
<path d="M108.766 119.146L122.528 126.263C122.528 126.263 124.7 126.865 124.955 127.145C125.21 127.426 126.85 130.126 126.578 130.663L125.813 132.204C125.397 131.871 125.037 131.483 124.744 131.053C124.59 130.646 122.502 129.833 121.961 128.979C121.42 128.125 120.51 126.974 120.51 126.974C120.51 126.974 110.397 124.608 109.219 124.01C108.041 123.412 106.031 123.197 105.785 121.078" stroke="#263238" stroke-miterlimit="10" stroke-linecap="round"/>
<path d="M123.364 74.5576C123.052 74.6389 122.739 74.7162 122.423 74.7812C121.27 74.9995 120.224 75.5571 119.441 76.3707C118.659 77.1843 118.183 78.2102 118.083 79.295C117.643 82.601 118.255 86.8545 119.53 89.575C120.805 92.2955 125.272 94.8614 127.831 93.8C130.39 92.7387 131.867 89.6523 131.867 85.9843C131.867 82.3164 131.981 79.2177 130.192 76.969C128.53 74.8748 125.751 73.9476 123.364 74.5576Z" fill="white" stroke="#263238" stroke-miterlimit="10" stroke-linecap="round"/>
<path d="M130.193 76.9609C128.531 74.8748 125.752 73.9477 123.365 74.5577C123.053 74.639 122.74 74.7162 122.424 74.7813C121.271 74.9995 120.225 75.5571 119.442 76.3707C118.66 77.1843 118.184 78.2102 118.084 79.2951C117.878 81.1304 117.915 82.9821 118.194 84.8092L118.238 84.7848C118.238 84.7848 119.302 84.1504 119.302 83.1582C119.302 82.166 119.153 79.779 121.36 78.3679C123.567 76.9569 127.076 76.8918 128.443 77.2415C129.81 77.5912 130.576 77.7376 131.336 79.5675L131.569 80.1287C131.382 78.9884 130.911 77.904 130.193 76.9609Z" fill="#263238" stroke="#263238" stroke-miterlimit="10" stroke-linecap="round"/>
<path d="M119.381 85.2731C119.381 85.2731 117.705 83.1585 116.866 84.4964C116.026 85.8342 117.094 87.6641 117.855 88.0871C118.616 88.51 119.301 87.103 119.301 87.103" fill="white"/>
<path d="M119.381 85.2731C119.381 85.2731 117.705 83.1585 116.866 84.4964C116.026 85.8342 117.094 87.6641 117.855 88.0871C118.616 88.51 119.301 87.103 119.301 87.103" stroke="#263238" stroke-miterlimit="10" stroke-linecap="round"/>
<path d="M123.985 84.9766C124.227 84.9766 124.424 84.6544 124.424 84.2569C124.424 83.8594 124.227 83.5371 123.985 83.5371C123.742 83.5371 123.545 83.8594 123.545 84.2569C123.545 84.6544 123.742 84.9766 123.985 84.9766Z" fill="#263238"/>
<path d="M128.518 84.5821C128.761 84.5821 128.957 84.2598 128.957 83.8623C128.957 83.4648 128.761 83.1426 128.518 83.1426C128.275 83.1426 128.078 83.4648 128.078 83.8623C128.078 84.2598 128.275 84.5821 128.518 84.5821Z" fill="#263238"/>
<path d="M126.997 82.877C126.997 82.877 127.147 84.4263 127.437 84.9102C127.727 85.3941 129.266 85.5445 128.58 86.3172C128.468 86.4546 128.327 86.5696 128.165 86.6551C128.003 86.7406 127.825 86.7949 127.64 86.8146C127.455 86.8344 127.267 86.8192 127.089 86.7701C126.911 86.7209 126.745 86.6388 126.602 86.5286" stroke="#263238" stroke-miterlimit="10" stroke-linecap="round"/>
<path d="M124.939 87.7368C125.522 88.0234 126.179 88.1553 126.838 88.1179C127.497 88.0806 128.132 87.8755 128.672 87.5254" stroke="#263238" stroke-miterlimit="10" stroke-linecap="round"/>
<path d="M121.816 82.5927C121.816 82.5927 123.188 81.1166 124.938 82.0315" stroke="#263238" stroke-miterlimit="10" stroke-linecap="round"/>
<path d="M127.07 81.8896C127.07 81.8896 128.671 80.8363 129.81 82.0319" stroke="#263238" stroke-miterlimit="10" stroke-linecap="round"/>
<path d="M33.467 129.924L35.0763 139.822L33.0273 177.095" stroke="#263238" stroke-width="4" stroke-miterlimit="10" stroke-linecap="round"/>
<path d="M53.8948 129.924L55.5084 139.822L53.4551 177.095" stroke="#263238" stroke-width="4" stroke-miterlimit="10" stroke-linecap="round"/>
<path d="M61.1621 139.414L63.0703 177.5" stroke="#263238" stroke-width="4" stroke-miterlimit="10" stroke-linecap="round"/>
<path d="M78.75 139.414L80.6582 177.5" stroke="#263238" stroke-width="4" stroke-miterlimit="10" stroke-linecap="round"/>
<path d="M53.6702 132.298H33.8845C33.3613 132.285 32.86 132.101 32.4707 131.777C32.0814 131.454 31.8297 131.013 31.7608 130.533L29.1623 109.66C29.127 109.438 29.1444 109.212 29.2134 108.998C29.2824 108.783 29.4013 108.585 29.5616 108.417C29.722 108.249 29.9201 108.116 30.142 108.027C30.3639 107.937 30.6043 107.894 30.8463 107.899H50.632C51.1545 107.911 51.6552 108.095 52.0444 108.418C52.4336 108.74 52.6857 109.181 52.7556 109.66L55.3541 130.533C55.3901 130.755 55.3732 130.981 55.3046 131.196C55.2359 131.411 55.1172 131.61 54.9567 131.778C54.7962 131.946 54.5979 132.08 54.3757 132.17C54.1534 132.259 53.9126 132.303 53.6702 132.298Z" fill="#BA68C8" stroke="#263238" stroke-miterlimit="10" stroke-linecap="round"/>
<path d="M79.5938 140.495H35.1859C34.7486 140.495 34.3292 140.334 34.02 140.049C33.7108 139.763 33.5371 139.375 33.5371 138.97C33.5371 138.566 33.7108 138.178 34.02 137.892C34.3292 137.606 34.7486 137.445 35.1859 137.445H79.5938C80.0311 137.445 80.4505 137.606 80.7597 137.892C81.0689 138.178 81.2426 138.566 81.2426 138.97C81.2426 139.375 81.0689 139.763 80.7597 140.049C80.4505 140.334 80.0311 140.495 79.5938 140.495Z" fill="#BA68C8" stroke="#263238" stroke-miterlimit="10" stroke-linecap="round"/>
<path d="M55.0469 97.7988C55.0469 97.7988 58.3445 98.9171 59.004 100.34C59.6635 101.764 63.735 118.029 63.735 118.029L78.5743 120.978L76.9254 123.011L59.6679 123.214L55.0469 97.7988Z" fill="white" stroke="#263238" stroke-miterlimit="10" stroke-linecap="round"/>
<path d="M57.9224 113.625L62.35 112.584C61.1057 107.705 59.4085 101.219 59.004 100.34C58.3445 98.9171 55.0469 97.7988 55.0469 97.7988L57.9224 113.625Z" fill="#263238" stroke="#263238" stroke-miterlimit="10" stroke-linecap="round"/>
<path d="M40.4314 95.764L31.418 100.339C31.418 100.339 34.0561 118.841 34.8255 123.518C35.5949 128.194 36.3644 131.65 38.5628 132.362C40.7612 133.074 58.6782 129.211 59.8874 128.804C61.0965 128.397 60.6568 124.839 60.1072 123.009C59.5576 121.179 56.5898 101.457 56.4798 99.8304C56.3699 98.2038 54.941 97.3906 52.6326 96.5773C50.3243 95.764 44.6084 95.459 42.8497 95.459C41.091 95.459 40.4314 95.764 40.4314 95.764Z" fill="#263238" stroke="#263238" stroke-miterlimit="10" stroke-linecap="round"/>
<path d="M40.4315 95.7639L37.877 97.0611L47.6819 108.573L51.5115 96.2762C48.8338 95.6907 44.3623 95.4629 42.8454 95.4629C41.0866 95.4589 40.4315 95.7639 40.4315 95.7639Z" fill="white" stroke="#263238" stroke-miterlimit="10" stroke-linecap="round"/>
<path d="M38.8867 92.104L39.6562 96.5771L46.9109 105.727L49.2192 96.1705V91.5957L38.8867 92.104Z" fill="white" stroke="#263238" stroke-miterlimit="10" stroke-linecap="round"/>
<path d="M35.5946 76.7534C35.5946 76.7534 35.0406 75.2285 32.7323 75.2285C30.424 75.2285 28.1201 77.6684 28.1201 80.1083C28.1086 80.5826 28.2049 81.0539 28.4027 81.4916C28.6004 81.9294 28.8953 82.3239 29.2683 82.6496C29.6412 82.9754 30.0839 83.2252 30.5678 83.3828C31.0516 83.5404 31.5658 83.6024 32.0772 83.5647C33.8359 83.4631 34.8252 82.8531 35.2649 81.5315C35.7046 80.2099 35.5946 76.7534 35.5946 76.7534Z" fill="#263238" stroke="#263238" stroke-miterlimit="10" stroke-linecap="round"/>
<path d="M36.3547 74.9726C35.2616 76.1855 34.6243 77.694 34.5388 79.2709C34.3893 81.9263 36.0469 86.6718 36.4998 88.766C36.9527 90.8603 38.6718 94.1419 43.9744 94.8413C49.2769 95.5408 51.0093 89.6037 51.0093 87.6478C51.0093 85.6918 49.954 79.832 49.0483 77.319C48.1426 74.8059 46.7839 72.9923 43.6138 72.7117C40.4437 72.4311 38.1266 73.2647 36.3547 74.9726Z" fill="white" stroke="#263238" stroke-miterlimit="10" stroke-linecap="round"/>
<path d="M50.9829 87.6476C50.8931 86.0097 50.683 84.3794 50.3542 82.7679C50.3981 83.2518 50.4773 83.9878 50.64 85.0939C50.9697 87.3304 50.4201 87.6354 50.4201 87.6354C50.4201 87.6354 49.4308 86.1105 46.2431 85.6022C43.0554 85.0939 39.3181 89.3636 38.9884 89.3636C38.6586 89.3636 38.5487 88.957 38.109 87.6354C37.6693 86.3138 36.3503 83.6706 36.79 82.4507C37.2297 81.2307 37.2297 81.0274 36.5701 79.9091C35.9106 78.7909 35.5808 78.3842 37.4495 76.965C39.6479 75.2897 43.4819 75.0945 46.2431 74.9806C46.8787 74.9039 47.5239 75.021 48.081 75.3141C47.6368 74.5619 46.9911 73.9278 46.2058 73.4728C45.4204 73.0178 44.5219 72.7571 43.5962 72.7156C40.4261 72.435 38.1266 73.2686 36.3547 74.9765C35.2616 76.1894 34.6243 77.6979 34.5388 79.2748C34.3893 81.9302 36.0469 86.6757 36.4998 88.77C36.9527 90.8642 38.6718 94.1458 43.9744 94.8452C49.2769 95.5447 50.9829 89.6036 50.9829 87.6476Z" fill="#263238" stroke="#263238" stroke-miterlimit="10" stroke-linecap="round"/>
<path d="M47.7918 87.5293C46.101 88.0943 44.3132 88.3699 42.5156 88.3426" stroke="white" stroke-miterlimit="10" stroke-linecap="round"/>
<path d="M45.7073 81.2266L46.2569 84.988C46.2569 84.988 44.9379 86.7163 43.2891 84.5814" stroke="#263238" stroke-miterlimit="10" stroke-linecap="round"/>
<path d="M43.1753 79.9056C43.083 79.9991 40.0976 79.0923 39.3281 81.4305" stroke="#263238" stroke-width="2" stroke-miterlimit="10" stroke-linecap="round"/>
<path d="M45.8125 79.4993C45.8125 79.4993 47.7911 78.076 49.33 80.0076" stroke="#263238" stroke-width="2" stroke-miterlimit="10" stroke-linecap="round"/>
<path d="M41.7976 82.9547C42.072 82.9547 42.2945 82.5906 42.2945 82.1414C42.2945 81.6922 42.072 81.3281 41.7976 81.3281C41.5232 81.3281 41.3008 81.6922 41.3008 82.1414C41.3008 82.5906 41.5232 82.9547 41.7976 82.9547Z" fill="#263238"/>
<path d="M47.7918 82.5485C48.0662 82.5485 48.2886 82.1843 48.2886 81.7352C48.2886 81.286 48.0662 80.9219 47.7918 80.9219C47.5174 80.9219 47.2949 81.286 47.2949 81.7352C47.2949 82.1843 47.5174 82.5485 47.7918 82.5485Z" fill="#263238"/>
<path d="M35.04 83.7693C35.04 83.7693 33.2812 82.5493 33.1713 84.8875C33.12 85.6288 33.3421 86.3643 33.8013 86.9737C34.2606 87.5831 34.9298 88.0303 35.6995 88.2424C36.2491 88.344 36.359 87.6324 36.359 87.6324L35.04 83.7693Z" fill="white" stroke="#263238" stroke-miterlimit="10" stroke-linecap="round"/>
<path d="M32.6223 99.8301C32.6223 99.8301 29.3247 100.948 28.3354 101.66C27.3461 102.372 25.9875 105.251 26.9108 111.517C27.2362 113.733 29.6544 129.109 29.6544 129.109L56.6949 127.787L61.2016 126.364L36.2497 122.602L34.2755 105.32" fill="#263238"/>
<path d="M32.6223 99.8301C32.6223 99.8301 29.3247 100.948 28.3354 101.66C27.3461 102.372 25.9875 105.251 26.9108 111.517C27.2362 113.733 29.6544 129.109 29.6544 129.109L56.6949 127.787L61.2016 126.364L36.2497 122.602L34.2755 105.32" stroke="#263238" stroke-miterlimit="10" stroke-linecap="round"/>
<path d="M29.6535 129.109L56.6939 127.787L61.2007 126.364L36.2487 122.603L35.1539 114.693L27.4375 115.316C27.8816 120.923 29.6535 129.109 29.6535 129.109Z" fill="white" stroke="#263238" stroke-miterlimit="10" stroke-linecap="round"/>
<path d="M36.0352 129.314C36.0352 129.314 37.7939 135.82 40.3221 137.853C42.8502 139.886 47.247 139.581 51.424 139.581C55.601 139.581 64.7244 137.345 65.0542 137.345C65.3839 137.345 80.6629 140.903 80.6629 140.903L75.9363 173.13L82.7514 174.349C82.7514 174.349 92.3145 142.733 92.3145 142.021C92.3145 141.31 94.5129 138.463 90.7756 134.092C87.0383 129.72 68.6815 128.399 64.6145 127.484C60.5474 126.569 36.0352 129.314 36.0352 129.314Z" fill="white" stroke="#263238" stroke-miterlimit="10" stroke-linecap="round"/>
<path d="M73.1524 131.725L67.5773 137.824L65.0535 137.344L61.8658 138.056C61.8658 138.056 61.7075 136.885 63.9103 134.441C66.1131 131.997 73.1524 131.725 73.1524 131.725Z" fill="#263238"/>
<path d="M75.9312 173.129L74.832 178.314C74.832 178.314 80.438 179.534 81.9769 179.839C83.5157 180.144 88.4622 179.94 89.5614 179.839C90.6606 179.737 88.7919 178.72 88.1324 178.415C87.4729 178.11 82.4165 175.264 82.4165 175.264L82.7463 174.349L75.9312 173.129Z" fill="white" stroke="#263238" stroke-miterlimit="10" stroke-linecap="round"/>
<path d="M43.0689 131.041C43.0689 131.041 64.6134 122.957 66.8118 122.197C71.5384 120.57 78.2039 121.001 79.1229 121.18C81.2114 121.587 100.777 139.784 100.777 139.784L96.6002 143.241L76.4848 130.228C76.4848 130.228 64.7233 136.734 61.8653 138.056C59.0074 139.378 52.632 140.191 47.9054 139.886C43.1789 139.581 40.211 137.344 39.4416 135.921C38.6721 134.498 39.0019 133.583 39.0019 133.583" fill="white"/>
<path d="M43.0689 131.041C43.0689 131.041 64.6134 122.957 66.8118 122.197C71.5384 120.57 78.2039 121.001 79.1229 121.18C81.2114 121.587 100.777 139.784 100.777 139.784L96.6002 143.241L76.4848 130.228C76.4848 130.228 64.7233 136.734 61.8653 138.056C59.0074 139.378 52.632 140.191 47.9054 139.886C43.1789 139.581 40.211 137.344 39.4416 135.921C38.6721 134.498 39.0019 133.583 39.0019 133.583" stroke="#263238" stroke-miterlimit="10" stroke-linecap="round"/>
<path d="M96.5957 143.24L102.202 148.018C102.202 148.018 112.864 137.649 113.194 137.242C113.523 136.836 114.513 135.107 113.853 135.107C113.194 135.107 101.872 140.089 101.872 140.089L100.773 139.784L96.5957 143.24Z" fill="white" stroke="#263238" stroke-miterlimit="10" stroke-linecap="round"/>
<path d="M78.5684 120.977C78.5684 120.977 83.6247 121.282 83.8445 121.688C84.0644 122.095 85.933 124.535 86.043 125.246C86.1129 125.752 86.1496 126.261 86.1529 126.771C86.1529 126.771 81.9759 124.636 81.7561 124.128C81.5898 123.632 81.4793 123.121 81.4263 122.603L78.5684 120.977Z" fill="white" stroke="#263238" stroke-miterlimit="10" stroke-linecap="round"/>
<path d="M271.049 19.1445L260.021 29.4693H287.181L276.153 19.1445H271.049Z" fill="#263238" stroke="#263238" stroke-miterlimit="10"/>
<path d="M276.101 17.7695H271.049V19.144H276.101V17.7695Z" fill="#263238" stroke="#263238" stroke-miterlimit="10"/>
<path d="M273.537 17.7704V0" stroke="#263238" stroke-miterlimit="10"/>
<path d="M30.9823 19.1445L19.9551 29.4693H47.1142L36.087 19.1445H30.9823Z" fill="#263238" stroke="#263238" stroke-miterlimit="10"/>
<path d="M36.0344 17.7695H30.9824V19.144H36.0344V17.7695Z" fill="#263238" stroke="#263238" stroke-miterlimit="10"/>
<path d="M33.4707 17.7704V0" stroke="#263238" stroke-miterlimit="10"/>
</svg>
