<svg width="200" height="186" viewBox="0 0 200 186" fill="none" xmlns="http://www.w3.org/2000/svg">
<path d="M29.2883 172.02C68.3421 190.657 131.658 190.663 170.712 172.02C209.766 153.377 209.76 123.163 170.712 104.525C131.664 85.8881 68.3421 85.8881 29.2883 104.525C-9.76558 123.163 -9.75992 153.383 29.2883 172.02Z" fill="#F5F5F5"/>
<path d="M170.578 158.246C177.771 158.246 183.602 155.464 183.602 152.032C183.602 148.6 177.771 145.818 170.578 145.818C163.386 145.818 157.555 148.6 157.555 152.032C157.555 155.464 163.386 158.246 170.578 158.246Z" fill="#EBEBEB"/>
<path d="M26.3203 152.923L30.9279 150.262C33.5004 148.159 35.4584 145.401 36.5953 142.277C38.0178 138.349 37.8194 135.364 36.7993 133.866C35.5468 132.022 32.2994 132.345 32.169 136.227C31.897 143.877 29.6697 149.183 26.3203 152.923Z" fill="#BA68C8"/>
<path opacity="0.2" d="M26.3203 152.923L30.9279 150.262C33.5004 148.159 35.4584 145.401 36.5953 142.277C38.0178 138.349 37.8194 135.364 36.7993 133.866C35.5468 132.022 32.2994 132.345 32.169 136.227C31.897 143.877 29.6697 149.183 26.3203 152.923Z" fill="black"/>
<path d="M26.319 153.207C26.259 153.206 26.2007 153.186 26.1527 153.15C26.1046 153.114 26.0692 153.064 26.0516 153.007C26.0339 152.949 26.035 152.888 26.0545 152.831C26.074 152.774 26.1111 152.725 26.1603 152.69C36.8149 145.313 34.752 135.024 34.7293 134.922C34.7215 134.884 34.7211 134.846 34.7281 134.808C34.7351 134.771 34.7495 134.735 34.7703 134.703C34.791 134.672 34.8179 134.644 34.8493 134.623C34.8807 134.601 34.916 134.586 34.9532 134.578C34.9904 134.57 35.0288 134.57 35.0662 134.577C35.1035 134.584 35.1392 134.598 35.171 134.619C35.2028 134.64 35.2303 134.667 35.2517 134.698C35.2732 134.73 35.2883 134.765 35.2961 134.802C35.2961 134.91 37.4723 145.551 26.5003 153.156C26.4471 153.192 26.3834 153.21 26.319 153.207Z" fill="white"/>
<path d="M17.0899 158.264C17.0899 158.264 15.4861 156.958 15.8715 155.188C16.2568 153.417 17.294 152.146 15.5201 149.864C13.7462 147.583 13.2531 144.541 15.3727 142.895C16.9879 141.618 19.5099 143.423 20.4167 140.058C21.0854 137.595 20.8587 132.141 23.9928 130.325C27.1268 128.509 29.0934 131.244 28.6004 134.944C28.1696 138.253 27.5576 141.437 28.0336 142.322C28.9517 144.025 30.5216 143.792 30.4479 146.902C30.3856 149.796 27.6482 152.191 27.6482 152.191L17.0899 158.264Z" fill="#BA68C8"/>
<path d="M22.3564 155.488C22.2871 155.488 22.2204 155.462 22.1684 155.416C22.1164 155.37 22.0826 155.307 22.0731 155.239C21.2626 148.513 23.2065 136.902 24.7934 133.452C24.8068 133.413 24.8281 133.378 24.8561 133.349C24.8841 133.32 24.9181 133.297 24.9556 133.282C24.9932 133.267 25.0336 133.26 25.0741 133.262C25.1145 133.264 25.1541 133.274 25.1901 133.293C25.2239 133.308 25.2544 133.33 25.2796 133.357C25.3049 133.384 25.3244 133.416 25.3371 133.451C25.3498 133.486 25.3553 133.523 25.3534 133.56C25.3516 133.597 25.3423 133.634 25.3261 133.667C23.7563 137.072 21.8804 148.718 22.6568 155.148C22.6648 155.222 22.643 155.297 22.5963 155.355C22.5496 155.414 22.4817 155.451 22.4074 155.46L22.3564 155.488Z" fill="white"/>
<path d="M22.2057 150.25C22.1623 150.252 22.1192 150.243 22.081 150.222C20.1144 149.263 18.8676 145.841 18.8166 145.682C18.8027 145.646 18.796 145.609 18.797 145.571C18.7979 145.533 18.8064 145.495 18.822 145.461C18.8376 145.426 18.8599 145.395 18.8877 145.369C18.9156 145.344 18.9482 145.324 18.9839 145.311C19.0195 145.298 19.0573 145.292 19.0952 145.294C19.133 145.296 19.1701 145.306 19.2041 145.323C19.2382 145.339 19.2686 145.362 19.2936 145.391C19.3185 145.419 19.3375 145.453 19.3493 145.489C19.3493 145.523 20.5678 148.837 22.3304 149.694C22.3882 149.722 22.4348 149.769 22.4625 149.827C22.4902 149.885 22.4974 149.951 22.4829 150.013C22.4684 150.076 22.4331 150.132 22.3827 150.172C22.3324 150.212 22.2699 150.233 22.2057 150.233V150.25Z" fill="white"/>
<path d="M22.1645 152.52C22.1077 152.52 22.0523 152.503 22.0056 152.47C21.959 152.438 21.9235 152.392 21.9038 152.339C21.8756 152.269 21.8758 152.192 21.9045 152.123C21.9331 152.054 21.9879 151.999 22.0568 151.97C25.3665 150.642 27.4295 146.697 27.4521 146.652C27.4867 146.585 27.5464 146.535 27.6182 146.512C27.6899 146.489 27.7678 146.495 27.8347 146.53C27.9016 146.565 27.952 146.624 27.9748 146.696C27.9977 146.768 27.9911 146.846 27.9565 146.913C27.8659 147.083 25.7746 151.09 22.2892 152.497C22.2503 152.516 22.2073 152.524 22.1645 152.52Z" fill="white"/>
<path d="M137.852 121.988C137.852 121.988 135.375 117.97 135.132 113.606C134.888 109.242 135.846 107.426 137.161 106.903C138.475 106.381 138.578 107.987 139.252 108.935C139.926 109.883 141.304 109.344 141.814 106.387C142.324 103.43 144.183 98.4417 148.048 97.4713C152.298 96.4157 150.02 101.41 148.949 103.356C147.878 105.303 147.05 107.959 147.753 108.68C148.456 109.4 149.55 108.067 150.587 109.304C151.85 110.797 147.923 116.171 145.667 117.471L137.852 121.988Z" fill="#BA68C8"/>
<path d="M141.249 120.302C141.212 120.301 141.175 120.292 141.141 120.276C141.107 120.261 141.077 120.238 141.052 120.211C141.026 120.184 141.007 120.152 140.994 120.117C140.981 120.082 140.975 120.044 140.977 120.007C141.361 112.987 143.547 106.184 147.324 100.257C147.346 100.227 147.373 100.2 147.405 100.18C147.437 100.16 147.472 100.147 147.509 100.141C147.546 100.135 147.584 100.137 147.621 100.146C147.657 100.156 147.691 100.172 147.721 100.195C147.78 100.239 147.82 100.305 147.832 100.378C147.843 100.451 147.826 100.526 147.783 100.587C144.073 106.427 141.927 113.124 141.549 120.035C141.547 120.073 141.538 120.109 141.521 120.143C141.505 120.176 141.482 120.206 141.454 120.231C141.426 120.256 141.394 120.275 141.359 120.287C141.323 120.299 141.286 120.304 141.249 120.302Z" fill="white"/>
<path d="M141.573 116.948C141.526 116.948 141.479 116.936 141.437 116.914C139.851 116.035 138.972 113.424 138.938 113.316C138.926 113.281 138.92 113.243 138.922 113.206C138.924 113.168 138.934 113.132 138.95 113.098C138.967 113.064 138.989 113.034 139.018 113.009C139.046 112.984 139.078 112.965 139.114 112.953C139.185 112.93 139.263 112.936 139.33 112.97C139.397 113.004 139.447 113.063 139.471 113.135C139.471 113.135 140.321 115.649 141.738 116.415C141.802 116.453 141.849 116.514 141.869 116.586C141.889 116.658 141.881 116.735 141.845 116.801C141.82 116.85 141.78 116.89 141.732 116.916C141.683 116.942 141.628 116.954 141.573 116.948Z" fill="white"/>
<path d="M141.851 115.229C141.789 115.228 141.728 115.206 141.678 115.167C141.629 115.128 141.594 115.074 141.579 115.013C141.57 114.977 141.568 114.94 141.573 114.903C141.578 114.867 141.591 114.832 141.61 114.8C141.629 114.768 141.654 114.741 141.684 114.719C141.714 114.697 141.747 114.681 141.783 114.672C145.875 113.634 147.292 111.489 147.303 111.466C147.323 111.434 147.35 111.407 147.38 111.385C147.411 111.364 147.445 111.349 147.482 111.34C147.519 111.332 147.556 111.331 147.593 111.338C147.63 111.344 147.666 111.358 147.697 111.378C147.729 111.398 147.756 111.424 147.778 111.455C147.799 111.486 147.815 111.52 147.823 111.557C147.831 111.594 147.832 111.632 147.825 111.669C147.819 111.705 147.805 111.741 147.785 111.772C147.723 111.869 146.249 114.122 141.925 115.223L141.851 115.229Z" fill="white"/>
<path d="M76.197 113.169C76.197 113.169 70.762 111.841 70.4786 101.648C70.1782 90.6495 71.8104 77.8123 65.378 76.7737C58.9455 75.7352 55.3751 83.5839 55.4544 92.7493C55.5281 100.774 58.7585 118.197 76.1743 121.613L76.197 113.169Z" fill="#BA68C8"/>
<path opacity="0.2" d="M76.197 113.169C76.197 113.169 70.762 111.841 70.4786 101.648C70.1782 90.6495 71.8104 77.8123 65.378 76.7737C58.9455 75.7352 55.3751 83.5839 55.4544 92.7493C55.5281 100.774 58.7585 118.197 76.1743 121.613L76.197 113.169Z" fill="black"/>
<path d="M76.1936 120.569H76.1426C72.2264 119.854 69.0357 117.692 66.6611 114.151C59.6222 103.634 61.8382 83.9984 62.5692 80.5706C62.5856 80.4976 62.6296 80.4337 62.6919 80.3925C62.7542 80.3512 62.8301 80.3357 62.9036 80.3493C62.977 80.3669 63.0408 80.412 63.0819 80.4754C63.123 80.5387 63.1383 80.6155 63.1246 80.6898C62.4049 84.0949 60.2003 103.481 67.1315 113.833C68.1404 115.438 69.4715 116.816 71.0402 117.879C72.609 118.942 74.3813 119.667 76.2446 120.007C76.2816 120.014 76.3168 120.028 76.3483 120.049C76.3798 120.069 76.4069 120.096 76.428 120.127C76.4491 120.158 76.4638 120.193 76.4712 120.23C76.4787 120.267 76.4787 120.305 76.4713 120.342C76.4593 120.407 76.4248 120.465 76.3739 120.507C76.3231 120.548 76.2592 120.57 76.1936 120.569Z" fill="white"/>
<path d="M76.1982 146.726C70.5818 147.486 61.463 147.475 56.198 143.321C50.933 139.166 52.0325 135.591 54.0558 134.099C56.079 132.606 57.8359 130.903 54.3561 127.589C50.8764 124.275 45.2883 118.951 43.4748 110.967C41.6612 102.982 42.5567 97.9874 46.1158 96.3246C49.5672 94.7129 50.4797 97.278 52.5936 102.567C54.7075 107.857 59.4624 103.322 63.5316 104.974C67.6008 106.625 67.4364 109.894 67.6915 112.703C67.9465 115.512 69.2896 116.29 71.5963 116.29C73.9029 116.29 76.1982 117.618 76.1982 120.262V146.726Z" fill="#BA68C8"/>
<path d="M76.1964 137.453C76.1721 137.458 76.1469 137.458 76.1227 137.453C75.879 137.385 70.0699 135.693 61.6086 127.913C52.5974 119.627 48.3469 107.198 48.3016 107.073C48.2798 107.002 48.2866 106.925 48.3204 106.858C48.3542 106.791 48.4125 106.741 48.4829 106.716C48.5536 106.692 48.6307 106.698 48.6975 106.731C48.7643 106.763 48.8155 106.821 48.84 106.892C48.8796 107.017 53.0905 119.309 61.9939 127.493C70.3363 135.171 76.2134 136.891 76.2757 136.908C76.3114 136.918 76.3448 136.936 76.3738 136.959C76.4028 136.982 76.4269 137.011 76.4448 137.044C76.4627 137.076 76.474 137.112 76.4781 137.149C76.4821 137.186 76.4788 137.224 76.4684 137.26C76.45 137.317 76.4136 137.367 76.3645 137.402C76.3155 137.436 76.2565 137.454 76.1964 137.453Z" fill="white"/>
<path d="M63.973 129.888C63.916 129.889 63.8602 129.872 63.8135 129.839C63.7667 129.806 63.7313 129.76 63.7123 129.706C61.8931 125.03 61.4794 115.024 61.4454 114.599C61.4438 114.524 61.4712 114.451 61.522 114.396C61.5727 114.341 61.6427 114.308 61.7174 114.304C61.7914 114.305 61.8624 114.333 61.9168 114.383C61.9712 114.434 62.0051 114.502 62.0121 114.576C62.0121 114.678 62.4372 124.911 64.2224 129.502C64.236 129.537 64.2426 129.574 64.2417 129.612C64.2408 129.649 64.2325 129.686 64.2172 129.721C64.2019 129.755 64.18 129.786 64.1527 129.812C64.1253 129.837 64.0932 129.857 64.058 129.871C64.0307 129.881 64.002 129.886 63.973 129.888Z" fill="white"/>
<path d="M63.925 136.613C63.4025 136.617 62.8802 136.59 62.3608 136.533C62.3236 136.529 62.2876 136.517 62.2549 136.499C62.2223 136.48 62.1935 136.456 62.1704 136.426C62.1472 136.397 62.1301 136.363 62.12 136.327C62.1099 136.291 62.1069 136.253 62.1114 136.216C62.1159 136.178 62.1276 136.142 62.146 136.11C62.1644 136.077 62.189 136.048 62.2184 136.025C62.2479 136.002 62.2817 135.985 62.3178 135.974C62.3538 135.964 62.3916 135.961 62.4288 135.966C62.4798 135.966 67.7561 136.567 70.1761 134.099C70.2013 134.069 70.2324 134.044 70.2674 134.027C70.3024 134.01 70.3406 134 70.3796 133.998C70.4187 133.997 70.4576 134.003 70.4941 134.017C70.5305 134.031 70.5637 134.052 70.5915 134.08C70.6193 134.107 70.6411 134.14 70.6556 134.176C70.6701 134.213 70.677 134.252 70.6758 134.291C70.6746 134.33 70.6653 134.368 70.6485 134.404C70.6318 134.439 70.6079 134.47 70.5785 134.496C68.8272 136.306 65.7725 136.613 63.925 136.613Z" fill="white"/>
<path d="M59.8452 29.1477L59.2331 25.6121L56.0821 27.6892C55.7942 27.1217 55.3861 26.624 54.8863 26.2307L56.3938 22.1446L53.5601 21.5146L51.4858 25.4873C50.7354 25.614 50.0078 25.8512 49.3266 26.191L48.4255 23.1945L45.059 25.8448L45.2801 29.3634C44.5945 30.1324 43.9728 30.9561 43.4212 31.8264L40.6442 31.6845L38.6946 36.0601L41.0806 37.0816C40.8315 37.9867 40.6739 38.9145 40.6102 39.8511L37.5781 42.6433L38.1845 46.1846L41.3413 44.1075C41.6275 44.6745 42.036 45.1707 42.5371 45.5603L41.0579 49.6521L43.8916 50.2764L46.8613 47.382C47.547 47.2742 47.377 45.9803 48.1251 45.6114L49.0262 48.5965L52.387 45.9519L52.3019 44.5672C52.982 43.8067 55.555 42.1325 56.1104 41.2586L56.8075 40.1235L58.7571 35.748L57.8503 34.1022L56.8415 31.957L59.8452 29.1477ZM49.5589 40.7875C46.9746 42.8192 46.1585 43.2676 45.7221 40.5492C45.2857 37.8307 46.7649 33.6992 49.3492 31.6618C51.9336 29.6245 52.9197 29.4826 53.3844 32.1953C53.8491 34.908 52.1489 38.7785 49.5589 40.7875Z" fill="#E0E0E0"/>
<path d="M53.5821 21.5146L57.2602 23.6372L55.1859 27.5984L51.5078 25.4759L53.5821 21.5146Z" fill="#F5F5F5"/>
<path d="M62.9073 27.7346L59.7563 29.8117L56.0781 27.6892L59.2292 25.6121L62.9073 27.7346Z" fill="#F5F5F5"/>
<path d="M62.4078 37.8535L60.0219 36.8376L56.3438 34.7151L58.7297 35.7309L62.4078 37.8535Z" fill="#E0E0E0"/>
<path d="M41.0547 49.6521L44.7328 51.7689L46.2403 47.6828L42.5622 45.5603L41.0547 49.6521Z" fill="#E0E0E0"/>
<path d="M52.6673 50.719L48.9949 48.5965L48.0938 45.6113L51.7719 47.7338L52.6673 50.719Z" fill="#E0E0E0"/>
<path d="M63.52 31.2703L62.9136 27.7347L59.7625 29.8118C59.4725 29.244 59.0625 28.7463 58.5611 28.3533L60.0686 24.2672L57.2632 23.6372L55.1833 27.6098C54.4329 27.7366 53.7052 27.9737 53.024 28.3135L52.1286 25.3284L48.7622 27.9787L48.9832 31.4973C48.2969 32.2717 47.6752 33.1012 47.1243 33.9774L44.3416 33.8355L42.3921 38.211L44.778 39.2326C44.5312 40.14 44.3736 41.0695 44.3076 42.0077L41.2812 44.7602L41.8877 48.3015L45.0387 46.2244C45.3288 46.7905 45.7389 47.2863 46.2402 47.6772L44.7327 51.7633L47.5664 52.3933L49.6406 48.4207C50.394 48.2953 51.1239 48.0561 51.8056 47.7113L52.701 50.6964L56.0674 48.0518L55.8464 44.5332C56.5319 43.7642 57.1536 42.9404 57.7053 42.0701L60.488 42.2064L62.4375 37.8308L60.0176 36.8149C60.2685 35.9081 60.4279 34.9784 60.4936 34.0398L63.52 31.2703ZM53.2451 42.9328C50.6664 44.9645 48.1954 44.414 47.725 41.7013C47.2547 38.9885 48.9719 35.1351 51.5562 33.1034C54.1405 31.0717 56.6058 31.6278 57.0762 34.3406C57.5466 37.0533 55.8294 40.9011 53.2451 42.9328Z" fill="#EBEBEB"/>
<path d="M52.1227 25.3171L48.4445 23.1946L45.0781 25.8449L48.7562 27.9674L52.1227 25.3171Z" fill="#F5F5F5"/>
<path d="M45.0781 25.8447L45.2992 29.3633L48.9773 31.4858L48.7562 27.9672L45.0781 25.8447Z" fill="#E0E0E0"/>
<path d="M47.1192 33.9489L43.4411 31.8264L40.6641 31.6902L44.3365 33.8127L47.1192 33.9489Z" fill="#F5F5F5"/>
<path d="M40.6683 31.6902L38.7188 36.0601L42.3912 38.1826L44.3408 33.8127L40.6683 31.6902Z" fill="#E0E0E0"/>
<path d="M44.3061 41.9736L40.6336 39.8511L37.6016 42.6433L41.274 44.7658L44.3061 41.9736Z" fill="#F5F5F5"/>
<path d="M41.8861 48.3069L38.208 46.1844L37.6016 42.6431L41.274 44.7656L41.8861 48.3069Z" fill="#E0E0E0"/>
<path d="M57.2641 23.6372L53.5859 21.5146L56.3969 22.1446L60.0694 24.2671L57.2641 23.6372Z" fill="#F5F5F5"/>
<path d="M43.3753 13.0983V7.81471L39.1758 9.71021C38.9534 8.81379 38.5693 7.96561 38.0423 7.20746L40.689 1.86713L37.4586 0L34.1602 4.96577C33.241 4.88536 32.3149 4.97579 31.4285 5.2325L30.9638 0.641297L26.3959 3.28592L25.9369 8.39357C24.9427 9.27567 24.0286 10.2442 23.2052 11.2879L19.9068 10.1529L16.6764 15.7599L19.3174 18.03C18.8294 19.2658 18.4501 20.5419 18.1839 21.8437L13.9844 24.8005V30.0897L18.1839 28.1942C18.4063 29.0906 18.7905 29.9388 19.3174 30.697L16.6877 36.043L19.9181 37.9101L23.2165 32.9443C24.1357 33.0245 25.0618 32.9341 25.9482 32.6776L26.4072 37.2688L30.9751 34.6242L31.4399 29.5165C32.8656 28.9956 34.1286 28.1068 35.101 26.94L37.4699 27.7743L40.7003 22.1729L38.7168 20.4703C39.1474 19.0506 39.307 17.5623 39.1872 16.0834L43.3753 13.0983ZM28.6799 26.2987C25.1774 28.3248 23.0125 26.8662 23.0125 22.8312C23.0125 18.7962 25.9085 13.8077 29.4166 11.7816C32.9247 9.75561 35.0443 11.2141 35.0443 15.2832C35.0443 19.3523 32.188 24.267 28.6799 26.2987Z" fill="#E0E0E0"/>
<path d="M41.1349 2.11684L37.4625 0L34.1641 4.96577L37.8365 7.08829L41.1349 2.11684Z" fill="#F5F5F5"/>
<path d="M47.0495 9.93721L43.3714 7.8147L39.1719 9.7102L42.85 11.8327L47.0495 9.93721Z" fill="#F5F5F5"/>
<path d="M30.069 39.3912L26.3966 37.2687L25.9375 32.6775L29.61 34.8L30.069 39.3912Z" fill="#E0E0E0"/>
<path d="M16.6719 36.043L20.35 38.1655L22.9967 32.8252L19.3185 30.7026L16.6719 36.043Z" fill="#E0E0E0"/>
<path d="M47.055 15.2492V9.96558L42.8555 11.8441C42.6354 10.9468 42.2511 10.0982 41.722 9.34131L44.3687 4.00098L41.1383 2.12817L37.8399 7.09962C36.9207 7.01641 35.9941 7.10689 35.1082 7.36635L34.6435 2.76379L30.0756 5.40842L29.6109 10.5161C28.6182 11.3996 27.7042 12.3681 26.8792 13.4104L23.5808 12.2754L20.3504 17.8824L22.9971 20.1525C22.5065 21.3874 22.1272 22.6637 21.8636 23.9662L17.6641 26.923V32.2122L21.8636 30.3167C22.0836 31.214 22.4679 32.0626 22.9971 32.8195L20.3504 38.1598L23.5808 40.0269L26.8792 35.0612C27.7984 35.1416 28.7245 35.0511 29.6109 34.7944L30.0756 39.3856L34.6435 36.741L35.1026 31.6334C36.0967 30.7513 37.0108 29.7827 37.8342 28.739L41.1326 29.8741L44.363 24.2727L41.7164 22.0026C42.2068 20.7677 42.5861 19.4914 42.8498 18.1889L47.055 15.2492ZM32.3595 28.4496C28.8514 30.4756 26.0064 28.8298 26.0064 24.7778C26.0064 20.7257 28.8401 15.794 32.3595 13.7623C35.879 11.7306 38.707 13.382 38.707 17.4341C38.707 21.4862 35.862 26.3895 32.3595 28.4212V28.4496Z" fill="#EBEBEB"/>
<path d="M23.2047 11.2993L26.8771 13.4218L23.5787 12.2698L19.9062 10.1416L23.2047 11.2993Z" fill="#F0F0F0"/>
<path d="M19.9032 10.1474L16.6719 15.7563L20.3488 17.8804L23.58 12.2715L19.9032 10.1474Z" fill="#F5F5F5"/>
<path d="M16.6719 15.7485L20.35 17.8711L22.9967 20.1525L19.3185 18.0356L16.6719 15.7485Z" fill="#E0E0E0"/>
<path d="M18.1839 21.8494L21.862 23.9719L17.6625 26.9286L13.9844 24.8061L18.1839 21.8494Z" fill="#F5F5F5"/>
<path d="M13.9844 24.8062L17.6625 26.9287V32.2179L13.9844 30.0954V24.8062Z" fill="#E0E0E0"/>
<path d="M34.6445 2.76387L30.9663 0.641357L26.3984 3.28598L30.0709 5.4085L34.6445 2.76387Z" fill="#F5F5F5"/>
<path d="M81.7944 154.319L135.068 123.514C135.185 123.473 135.287 123.396 135.359 123.294C135.431 123.193 135.469 123.071 135.469 122.947C135.469 122.822 135.431 122.701 135.359 122.599C135.287 122.497 135.185 122.421 135.068 122.379L130.143 119.542C129.838 119.388 129.501 119.308 129.159 119.308C128.818 119.308 128.481 119.388 128.176 119.542L74.8859 150.318C74.7685 150.359 74.6668 150.436 74.5949 150.538C74.523 150.639 74.4844 150.761 74.4844 150.886C74.4844 151.01 74.523 151.132 74.5949 151.233C74.6668 151.335 74.7685 151.412 74.8859 151.453L79.8278 154.291C80.1306 154.449 80.4662 154.534 80.8077 154.539C81.1492 154.544 81.4871 154.468 81.7944 154.319Z" fill="#E0E0E0"/>
<path d="M133.608 4.57993L85.5712 32.3542C84.8571 32.8209 84.2628 33.4494 83.8365 34.1889C83.4101 34.9283 83.1637 35.758 83.1172 36.6106V150.721C83.1172 152.287 84.2166 152.923 85.5712 152.14L133.608 124.366C134.323 123.9 134.918 123.272 135.344 122.532C135.771 121.792 136.017 120.962 136.062 120.109V5.99872C136.062 4.43238 134.968 3.79676 133.608 4.57993Z" fill="#455A64"/>
<path d="M85.5724 32.3541L133.609 4.57987C134.822 3.87615 135.825 4.31313 136.029 5.53329C135.916 4.76615 135.641 4.03173 135.224 3.37832C134.807 2.72492 134.257 2.16735 133.609 1.74228L131.614 0.607251C130.854 0.220886 130.013 0.0195312 129.16 0.0195312C128.307 0.0195312 127.467 0.220886 126.706 0.607251L78.6639 28.3588C77.9403 28.8132 77.3437 29.4438 76.9297 30.1919L83.8382 34.1645C84.252 33.4224 84.8492 32.799 85.5724 32.3541Z" fill="#37474F"/>
<path d="M76.1953 146.726C76.2418 147.578 76.4882 148.408 76.9146 149.147C77.3409 149.887 77.9352 150.515 78.6493 150.982L80.6499 152.117C81.3423 152.464 82.1 152.661 82.8736 152.694C83.6471 152.727 84.4189 152.596 85.1384 152.31C84.0049 152.753 83.1038 152.1 83.1038 150.698V36.6105C83.1322 35.7543 83.3801 34.9198 83.8236 34.1872L76.9151 30.2146C76.4778 30.9416 76.2302 31.7672 76.1953 32.6152V146.726Z" fill="#263238"/>
<path d="M86.8862 47.5578L132.299 21.3102C133.115 20.8448 133.772 21.225 133.772 22.1614V106.619C133.745 107.131 133.597 107.629 133.341 108.073C133.085 108.517 132.728 108.894 132.299 109.173L86.9032 135.421C86.0871 135.892 85.4297 135.511 85.4297 134.569V50.1116C85.4555 49.6014 85.6007 49.1044 85.8538 48.6607C86.1068 48.2171 86.4604 47.8393 86.8862 47.5578Z" fill="white"/>
<path d="M109.588 22.7915C109.337 22.9563 109.129 23.1777 108.979 23.4379C108.83 23.6981 108.743 23.9899 108.727 24.2897C108.727 24.8572 109.112 25.0672 109.588 24.7891C109.84 24.6254 110.049 24.4042 110.199 24.1438C110.348 23.8833 110.434 23.591 110.449 23.2909C110.449 22.7404 110.064 22.5191 109.588 22.7915Z" fill="#37474F"/>
<path d="M109.588 126.335C108.597 126.984 107.773 127.857 107.182 128.885C106.591 129.912 106.251 131.065 106.188 132.248C106.188 134.422 107.712 135.307 109.588 134.218C110.578 133.568 111.402 132.695 111.993 131.667C112.584 130.64 112.925 129.488 112.988 128.304C113 126.131 111.469 125.245 109.588 126.335Z" fill="#37474F"/>
<path d="M101.435 31.5767C100.937 31.9078 100.523 32.3515 100.228 32.872C99.9324 33.3925 99.7634 33.9752 99.7344 34.5732C99.7344 35.6741 100.505 36.1225 101.435 35.572C101.938 35.244 102.357 34.8017 102.657 34.281C102.958 33.7603 103.131 33.176 103.163 32.5755C103.163 31.4745 102.392 31.0262 101.435 31.5767Z" fill="#37474F"/>
<path d="M105.664 31.202C105.664 31.9398 106.231 32.2179 106.894 31.8263L118.229 25.2601C118.58 25.0405 118.874 24.741 119.088 24.386C119.302 24.031 119.428 23.6305 119.458 23.217C119.458 22.4849 118.892 22.2069 118.229 22.5984L106.894 29.1646C106.544 29.3836 106.25 29.6822 106.036 30.0362C105.822 30.3902 105.695 30.7895 105.664 31.202Z" fill="#37474F"/>
<path d="M80.0256 51.2127C80.4278 51.4751 80.7626 51.8286 81.0028 52.2447C81.2431 52.6608 81.3821 53.1277 81.4084 53.6077C81.4084 54.493 80.7907 54.8505 80.0256 54.4079C79.6248 54.1446 79.2913 53.7907 79.0521 53.3747C78.8129 52.9587 78.6746 52.4922 78.6484 52.0129C78.6484 51.1333 79.2662 50.7757 80.0256 51.2127Z" fill="#37474F"/>
<path d="M80.0256 61.8708C80.4278 62.1331 80.7626 62.4867 81.0028 62.9028C81.2431 63.3189 81.3821 63.7858 81.4084 64.2657C81.4084 65.1454 80.7907 65.5029 80.0256 65.0659C79.6248 64.8026 79.2913 64.4487 79.0521 64.0327C78.8129 63.6167 78.6746 63.1503 78.6484 62.671C78.6484 61.7857 79.2662 61.4281 80.0256 61.8708Z" fill="#37474F"/>
<path d="M79.5938 51.4283C79.996 51.6906 80.3308 52.0441 80.571 52.4602C80.8113 52.8763 80.9502 53.3433 80.9766 53.8232C80.9766 54.7028 80.3589 55.0604 79.5938 54.6234C79.1916 54.361 78.8568 54.0075 78.6165 53.5914C78.3763 53.1753 78.2373 52.7084 78.2109 52.2285C78.2166 51.3431 78.8343 51.0026 79.5938 51.4283Z" fill="#455A64"/>
<path d="M79.5938 62.0807C79.9967 62.3435 80.332 62.698 80.5723 63.1151C80.8126 63.5323 80.9511 64.0004 80.9766 64.4812C80.9766 65.3609 80.3589 65.7184 79.5938 65.2758C79.1906 65.0144 78.8551 64.6611 78.6148 64.2448C78.3744 63.8285 78.236 63.3611 78.2109 62.8808C78.2166 62.0012 78.8343 61.6437 79.5938 62.0807Z" fill="#455A64"/>
<path d="M142.968 24.8346C142.968 23.8925 142.31 23.5123 141.494 23.9833L136.059 27.1217L96.0985 50.231C95.6693 50.5102 95.3121 50.8872 95.056 51.331C94.7999 51.7748 94.6522 52.273 94.625 52.7848V137.22C94.625 138.162 95.2824 138.542 96.0985 138.071L136.076 114.956L141.494 111.824C141.923 111.544 142.281 111.167 142.537 110.724C142.793 110.28 142.94 109.782 142.968 109.27V24.8346Z" fill="white"/>
<path d="M143.536 24.8347C143.572 24.5501 143.523 24.2613 143.395 24.0044C143.268 23.7475 143.068 23.5339 142.82 23.3904C142.572 23.2468 142.287 23.1797 142.001 23.1974C141.715 23.215 141.441 23.3167 141.212 23.4897L136.027 26.4919L95.8166 49.76C95.2989 50.0873 94.8685 50.5357 94.5624 51.0666C94.2563 51.5975 94.0838 52.195 94.0597 52.8076V137.22C94.037 137.503 94.0914 137.788 94.2171 138.042C94.3429 138.297 94.5353 138.513 94.7738 138.667C94.9768 138.785 95.2079 138.846 95.4426 138.843C95.7748 138.833 96.0988 138.737 96.3834 138.565L136.622 115.297L141.796 112.306C142.311 111.976 142.739 111.526 143.045 110.996C143.35 110.466 143.525 109.87 143.553 109.258L143.536 24.8347ZM136.038 114.326L135.573 114.599L95.8393 137.572C95.7725 137.623 95.6951 137.659 95.6128 137.677C95.5304 137.694 95.4452 137.694 95.3632 137.674C95.2896 137.629 95.2159 137.47 95.2159 137.209V52.7849C95.2452 52.3728 95.3676 51.9728 95.5737 51.615C95.7799 51.2572 96.0645 50.9509 96.406 50.7192L136.1 27.7347L141.768 24.4488C141.834 24.3974 141.912 24.3616 141.994 24.3439C142.077 24.3263 142.162 24.3272 142.244 24.3467C142.317 24.3921 142.391 24.551 142.391 24.812V109.27C142.362 109.682 142.239 110.082 142.033 110.44C141.827 110.798 141.542 111.104 141.201 111.336L136.027 114.326H136.038Z" fill="#BA68C8"/>
<path d="M118.795 44.4536C123.896 41.5139 128.005 43.8861 128.005 49.7826C128.005 55.6791 123.879 62.8355 118.795 65.7525C113.712 68.6695 109.586 66.32 109.586 60.4292C109.586 54.5384 113.712 47.399 118.795 44.4536Z" fill="#BA68C8"/>
<path d="M118.799 49.0845C120.448 48.131 121.786 48.9028 121.786 50.787C121.73 51.825 121.43 52.8351 120.911 53.7354C120.392 54.6356 119.669 55.4007 118.799 55.9684C117.15 56.9219 115.812 56.15 115.812 54.2659C115.869 53.2279 116.168 52.2178 116.687 51.3175C117.206 50.4173 117.93 49.6522 118.799 49.0845Z" fill="#BA68C8"/>
<path d="M124.618 59.2545C124.618 56.1218 122.424 54.8506 119.71 56.4169L118.01 57.3988C115.301 58.9651 113.102 62.7788 113.102 65.9115V66.7571C114.671 67.2735 116.644 66.9955 118.769 65.7526C121.123 64.2984 123.114 62.3242 124.589 59.981L124.618 59.2545Z" fill="#BA68C8"/>
<path opacity="0.7" d="M118.799 49.0845C120.448 48.131 121.786 48.9028 121.786 50.787C121.73 51.825 121.43 52.8351 120.911 53.7354C120.392 54.6356 119.669 55.4007 118.799 55.9684C117.15 56.9219 115.812 56.15 115.812 54.2659C115.869 53.2279 116.168 52.2178 116.687 51.3175C117.206 50.4173 117.93 49.6522 118.799 49.0845Z" fill="white"/>
<path opacity="0.7" d="M124.618 59.2545C124.618 56.1218 122.424 54.8506 119.71 56.4169L118.01 57.3988C115.301 58.9651 113.102 62.7788 113.102 65.9115V66.7571C114.671 67.2735 116.644 66.9955 118.769 65.7526C121.123 64.2984 123.114 62.3242 124.589 59.981L124.618 59.2545Z" fill="white"/>
<path d="M100.98 78.7202L112.831 71.8703C113.398 71.5582 113.811 71.8079 113.811 72.4378V72.8294C113.793 73.1705 113.695 73.5025 113.525 73.7983C113.355 74.0942 113.117 74.3456 112.831 74.532L100.98 81.3819C100.442 81.694 100 81.4386 100 80.8144V80.4228C100.018 80.0818 100.117 79.75 100.287 79.4542C100.457 79.1584 100.695 78.907 100.98 78.7202Z" fill="#BA68C8"/>
<path opacity="0.1" d="M100.98 78.7202L112.831 71.8703C113.398 71.5582 113.811 71.8079 113.811 72.4378V72.8294C113.793 73.1705 113.695 73.5025 113.525 73.7983C113.355 74.0942 113.117 74.3456 112.831 74.532L100.98 81.3819C100.442 81.694 100 81.4386 100 80.8144V80.4228C100.018 80.0818 100.117 79.75 100.287 79.4542C100.457 79.1584 100.695 78.907 100.98 78.7202Z" fill="black"/>
<path d="M100.493 86.9889L136.345 66.2632C136.611 66.1043 136.832 66.2292 136.832 66.547V70.7352C136.822 70.9052 136.773 71.0706 136.688 71.2183C136.604 71.366 136.486 71.492 136.345 71.5865L100.493 92.3122C100.221 92.4711 100 92.3406 100 92.0285V87.8402C100.01 87.6695 100.059 87.5035 100.145 87.3556C100.231 87.2078 100.35 87.0821 100.493 86.9889Z" fill="#BA68C8"/>
<path opacity="0.2" d="M100.493 86.9889L136.345 66.2632C136.611 66.1043 136.832 66.2292 136.832 66.547V70.7352C136.822 70.9052 136.773 71.0706 136.688 71.2183C136.604 71.366 136.486 71.492 136.345 71.5865L100.493 92.3122C100.221 92.4711 100 92.3406 100 92.0285V87.8402C100.01 87.6695 100.059 87.5035 100.145 87.3556C100.231 87.2078 100.35 87.0821 100.493 86.9889Z" fill="white"/>
<path d="M100.98 97.3518L112.831 90.5019C113.398 90.1897 113.811 90.4451 113.811 91.0694V91.461C113.794 91.8021 113.696 92.1343 113.525 92.4302C113.355 92.7262 113.117 92.9775 112.831 93.1635L100.98 100.013C100.442 100.331 100 100.076 100 99.4459V99.0543C100.019 98.7136 100.118 98.3821 100.288 98.0864C100.459 97.7908 100.696 97.5392 100.98 97.3518Z" fill="#BA68C8"/>
<path opacity="0.1" d="M100.98 97.3518L112.831 90.5019C113.398 90.1897 113.811 90.4451 113.811 91.0694V91.461C113.794 91.8021 113.696 92.1343 113.525 92.4302C113.355 92.7262 113.117 92.9775 112.831 93.1635L100.98 100.013C100.442 100.331 100 100.076 100 99.4459V99.0543C100.019 98.7136 100.118 98.3821 100.288 98.0864C100.459 97.7908 100.696 97.5392 100.98 97.3518Z" fill="black"/>
<path d="M100.493 105.62L136.345 84.8948C136.611 84.7359 136.832 84.8664 136.832 85.1785V89.3668C136.822 89.5368 136.773 89.7021 136.688 89.8498C136.604 89.9975 136.486 90.1236 136.345 90.2181L100.493 110.944C100.221 111.103 100 110.978 100 110.66V106.472C100.01 106.301 100.059 106.135 100.145 105.987C100.231 105.839 100.35 105.714 100.493 105.62Z" fill="#BA68C8"/>
<path opacity="0.2" d="M100.493 105.62L136.345 84.8948C136.611 84.7359 136.832 84.8664 136.832 85.1785V89.3668C136.822 89.5368 136.773 89.7021 136.688 89.8498C136.604 89.9975 136.486 90.1236 136.345 90.2181L100.493 110.944C100.221 111.103 100 110.978 100 110.66V106.472C100.01 106.301 100.059 106.135 100.145 105.987C100.231 105.839 100.35 105.714 100.493 105.62Z" fill="white"/>
<path d="M114.793 107.998L128.961 99.8206C129.528 99.5028 129.947 99.7581 129.947 100.388V104.769C129.929 105.111 129.83 105.443 129.659 105.739C129.487 106.035 129.248 106.286 128.961 106.472L114.793 114.655C114.226 114.968 113.812 114.712 113.812 114.088V109.701C113.832 109.36 113.931 109.029 114.101 108.733C114.272 108.438 114.508 108.186 114.793 107.998Z" fill="#BA68C8"/>
<path opacity="0.1" d="M114.793 107.998L128.961 99.8206C129.528 99.5028 129.947 99.7581 129.947 100.388V104.769C129.929 105.111 129.83 105.443 129.659 105.739C129.487 106.035 129.248 106.286 128.961 106.472L114.793 114.655C114.226 114.968 113.812 114.712 113.812 114.088V109.701C113.832 109.36 113.931 109.029 114.101 108.733C114.272 108.438 114.508 108.186 114.793 107.998Z" fill="black"/>
<path d="M148.343 89.5088C148.343 89.5088 141.384 79.8951 140.976 78.726C140.653 77.8633 140.976 76.5808 141.078 75.9849C141.18 75.389 141.27 74.061 141.372 73.7148C141.542 73.0678 140.709 73.1984 140.239 73.7886C139.768 74.3788 139.61 75.5592 139.366 75.7522C139.122 75.9451 137.269 73.2381 136.3 71.9895C135.331 70.741 134.724 69.9805 134.129 70.4459C133.704 70.7807 134.022 71.5072 134.724 72.5741C135.135 73.1486 135.513 73.7454 135.858 74.3618C135.966 74.5944 135.388 74.6115 135.076 75.0939C134.832 75.4684 135.076 76.0757 134.736 76.3651C134.527 76.5246 134.383 76.7556 134.333 77.0141C134.283 77.2726 134.329 77.5405 134.464 77.7669C135.095 78.7589 135.908 79.6217 136.861 80.3093C137.904 81.0301 138.323 81.2855 138.941 82.2673C139.559 83.2491 145.101 93.2771 145.475 93.8787C145.85 94.4802 146.569 95.7061 147.663 95.7401C148.757 95.7742 157.711 88.0559 158.17 87.67C159.644 86.4385 160.114 86.2626 160.364 87.3692C160.45 87.7626 160.514 88.1605 160.556 88.561C160.732 89.9685 161.69 94.9967 161.69 94.9967C161.69 94.9967 166.224 97.193 169.947 96.1317C173.671 95.0704 174.929 93.4871 174.929 93.4871L173.064 90.4452C173.569 89.191 175.898 84.106 176.652 80.5477L164.977 78.6579C164.739 78.6068 164.353 78.5103 163.843 78.3798C163.203 78.2095 161.576 77.6477 160.347 78.726C156.334 82.2275 148.354 89.5088 148.354 89.5088" fill="#FFA8A7"/>
<path d="M171.49 148.497L169.398 151.408C170.349 151.852 171.387 152.075 172.436 152.061C174.312 152.129 174.828 151.493 174.896 151.368C175.213 150.687 174.72 149.461 174.584 148.406L171.49 148.497Z" fill="#37474F"/>
<path d="M169.516 150.012C169.516 150.012 166.977 149.847 165.225 149.631C163.474 149.416 162.086 150.267 162.494 150.988C162.902 151.709 163.871 152.31 165.378 152.815C166.665 153.252 168.212 153.564 169.55 153.95C170.887 154.336 171.816 154.841 172.593 154.569C173.46 154.268 173.834 153.922 173.76 153.286C173.571 152.382 173.337 151.488 173.058 150.608L169.516 150.012Z" fill="#37474F"/>
<path d="M174.892 145.574C174.892 145.574 174.574 148.218 174.552 148.786C174.529 149.353 171.973 149.535 171.486 148.496L171.406 145.261L174.892 145.574Z" fill="#F28F8F"/>
<path d="M172.324 147.197L173.236 151.215C173.236 151.215 173.321 151.703 171.236 152.015C169.15 152.327 165.874 150.92 165.313 150.636C164.752 150.352 164.69 149.779 166.741 149.892C168.793 150.006 169.518 150.012 169.518 150.012L168.85 148.235L172.324 147.197Z" fill="#FFA8A7"/>
<path d="M176.619 80.5135L178.064 80.1106C178.064 80.1106 181.085 89.6846 181.419 90.6097C181.754 91.5347 182.133 92.5108 181.482 93.6515C180.705 95.0079 176.619 100.462 176.619 100.462L174.023 97.9193L176.97 92.5165L174.363 87.2386L176.619 80.5135Z" fill="#F28F8F"/>
<path d="M161.774 68.0794C161.435 67.4425 161.263 66.73 161.274 66.0084C161.285 65.2869 161.478 64.5799 161.836 63.9535C163.276 61.2805 166.483 59.9809 170.303 60.4747C172.071 60.7073 174.157 62.1772 175.296 64.3735C176.554 66.8081 176.673 71.7115 176.996 73.5673L161.774 68.0794Z" fill="#37474F"/>
<path d="M161.673 69.1292C161.673 69.1292 160.766 70.8601 160.925 71.019C161.16 71.1565 161.417 71.2524 161.684 71.3027L161.673 69.1292Z" fill="#FFA8A7"/>
<path d="M164.424 63.6584C163.438 64.2997 161.737 65.4801 161.664 69.3676C161.584 73.3402 162.151 74.6512 162.741 75.1109C163.137 75.423 165.467 75.2641 166.464 75.0314C167.461 74.7988 170.335 73.3743 171.372 71.2121C172.59 68.6696 172.341 64.9694 170.533 63.8343C169.613 63.2895 168.57 62.9875 167.501 62.9567C166.433 62.9259 165.374 63.1674 164.424 63.6584Z" fill="#FFA8A7"/>
<path d="M174.894 93.4644C176.639 96.1884 178.294 98.572 178.657 101.648C179.405 108.112 176.957 115.501 176.43 120.285C177.421 121.646 177.992 123.268 178.073 124.95C178.073 126.931 174.894 145.574 174.894 145.574C174.894 145.574 172.582 146.277 171.409 145.262L169.227 110.967L170.36 106.79L174.894 93.4644Z" fill="#BA68C8"/>
<path opacity="0.2" d="M174.894 93.4644C176.639 96.1884 178.294 98.572 178.657 101.648C179.405 108.112 176.957 115.501 176.43 120.285C177.421 121.646 177.992 123.268 178.073 124.95C178.073 126.931 174.894 145.574 174.894 145.574C174.894 145.574 172.582 146.277 171.409 145.262L169.227 110.967L170.36 106.79L174.894 93.4644Z" fill="black"/>
<path d="M169.227 110.967L170.36 106.79C172.53 106.218 174.624 105.385 176.594 104.31C176.594 104.31 175.415 106.46 172.026 107.641L170.275 113.004L170.128 125.291L169.227 110.967Z" fill="#BA68C8"/>
<path opacity="0.3" d="M169.227 110.967L170.36 106.79C172.53 106.218 174.624 105.385 176.594 104.31C176.594 104.31 175.415 106.46 172.026 107.641L170.275 113.004L170.128 125.291L169.227 110.967Z" fill="black"/>
<path d="M174.897 93.4644C175.833 94.9967 178.065 97.6072 177.589 100.121C177.023 103.163 175.379 105.303 170.38 106.79L165.688 123.815C165.688 123.815 168.131 126.085 168.879 128.281C169.627 130.478 172.324 147.208 172.324 147.208C172.324 147.208 171.486 148.576 168.85 148.247C168.85 148.247 159.664 127.249 159.017 125.881C158.233 124.496 157.959 122.879 158.241 121.312C158.53 119.11 161.641 95.008 161.641 95.008L174.897 93.4644Z" fill="#BA68C8"/>
<path opacity="0.2" d="M174.897 93.4644C175.833 94.9967 178.065 97.6072 177.589 100.121C177.023 103.163 175.379 105.303 170.38 106.79L165.688 123.815C165.688 123.815 168.131 126.085 168.879 128.281C169.627 130.478 172.324 147.208 172.324 147.208C172.324 147.208 171.486 148.576 168.85 148.247C168.85 148.247 159.664 127.249 159.017 125.881C158.233 124.496 157.959 122.879 158.241 121.312C158.53 119.11 161.641 95.008 161.641 95.008L174.897 93.4644Z" fill="black"/>
<path d="M176.618 80.5136L164.943 78.6238C164.705 78.5727 164.319 78.4762 163.809 78.3457C163.809 78.3457 163.311 85.678 160.312 87.3579C160.386 87.7097 160.449 88.1013 160.505 88.5497C160.681 89.9571 161.639 94.9853 161.639 94.9853C161.639 94.9853 166.173 97.1816 169.896 96.1203C173.619 95.0591 174.878 93.4757 174.878 93.4757L173.013 90.4338C173.534 89.1682 175.881 84.0833 176.618 80.5136Z" fill="#BA68C8"/>
<path opacity="0.7" d="M176.618 80.5136L164.943 78.6238C164.705 78.5727 164.319 78.4762 163.809 78.3457C163.809 78.3457 163.311 85.678 160.312 87.3579C160.386 87.7097 160.449 88.1013 160.505 88.5497C160.681 89.9571 161.639 94.9853 161.639 94.9853C161.639 94.9853 166.173 97.1816 169.896 96.1203C173.619 95.0591 174.878 93.4757 174.878 93.4757L173.013 90.4338C173.534 89.1682 175.881 84.0833 176.618 80.5136Z" fill="white"/>
<path d="M173.537 89.2251C171.986 90.1574 170.362 90.9603 168.68 91.6257C170.206 91.5952 171.701 91.1815 173.027 90.4226L173.537 89.2251Z" fill="#BA68C8"/>
<path d="M164.135 63.8513C164.135 63.8513 163.568 67.5402 164.906 69.7081C164.906 69.7081 165.404 68.2382 166.646 68.5163C167.887 68.7944 167.955 70.4345 167.082 71.3539C166.86 71.6118 166.57 71.8018 166.245 71.9022C165.921 72.0026 165.574 72.0092 165.246 71.9214C165.246 71.9214 165.047 74.5887 164.94 76.8248C164.832 79.0608 164.243 83.9357 166.753 85.905C169.264 87.8743 175.566 88.5667 178.519 84.4352C180.162 82.1367 177.98 78.0733 176.966 73.5161C176.031 69.3279 175.504 63.1192 171.066 62.1204C166.629 61.1216 164.135 63.8513 164.135 63.8513Z" fill="#37474F"/>
<path d="M180.42 13.4501L179.485 14.0176C179.563 13.6844 179.607 13.344 179.615 13.0017C179.615 11.1006 178.283 10.3344 176.64 11.2992C176.14 11.6013 175.693 11.9849 175.319 12.4342C175.319 9.88039 173.528 8.84184 171.318 10.1187C170.153 10.8794 169.184 11.9042 168.489 13.1101C167.794 14.3161 167.392 15.6691 167.317 17.0595C167.317 17.19 167.317 17.3149 167.317 17.4397C166.748 17.368 166.171 17.5007 165.69 17.8143C164.824 18.3794 164.104 19.141 163.587 20.0373C163.07 20.9337 162.771 21.9394 162.715 22.973C162.715 23.2133 162.739 23.4529 162.789 23.6881L162.29 23.9775C160.935 24.7607 159.836 26.2873 159.836 27.3826C159.836 28.4779 160.935 28.739 162.29 27.9501L180.425 17.4794C181.78 16.6963 182.879 15.1696 182.879 14.0743C182.879 12.979 181.774 12.6612 180.42 13.4501Z" fill="#EBEBEB"/>
</svg>
