<svg width="294" height="180" viewBox="0 0 294 180" fill="none" xmlns="http://www.w3.org/2000/svg">
<path d="M182.009 72.4818C182.007 72.9364 181.87 73.3801 181.616 73.757C181.361 74.1339 181 74.427 180.579 74.5991C180.158 74.7713 179.694 74.8147 179.248 74.724C178.802 74.6333 178.393 74.4125 178.072 74.0896C177.752 73.7667 177.535 73.3561 177.448 72.9099C177.362 72.4636 177.41 72.0018 177.586 71.5828C177.763 71.1637 178.06 70.8064 178.44 70.556C178.819 70.3055 179.265 70.1732 179.721 70.1758C180.023 70.1764 180.322 70.2366 180.601 70.3529C180.879 70.4693 181.132 70.6395 181.345 70.8538C181.558 71.0681 181.726 71.3223 181.84 71.6017C181.954 71.8811 182.011 72.1802 182.009 72.4818Z" fill="#E0E0E0"/>
<path d="M175.114 69.5316C175.701 68.899 176.411 68.3921 177.201 68.0417C177.991 67.6913 178.843 67.5047 179.707 67.4932C180.571 67.4817 181.429 67.6456 182.227 67.9748C183.026 68.3041 183.75 68.7918 184.354 69.4086C185.528 70.5901 187.368 68.7717 186.189 67.5901C185.344 66.7384 184.336 66.0642 183.226 65.6074C182.116 65.1505 180.925 64.9202 179.725 64.93C178.524 64.9398 177.337 65.1896 176.235 65.6646C175.132 66.1395 174.136 66.8301 173.305 67.6955C172.161 68.8991 173.978 70.7395 175.127 69.5316H175.114Z" fill="#E0E0E0"/>
<path d="M167.298 58.8402C170.818 55.8226 174.976 53.9207 179.649 53.9076C184.312 53.8605 188.818 55.5882 192.251 58.7392C193.465 59.8768 195.309 58.0628 194.09 56.9207C190.166 53.2969 185.007 51.3021 179.662 51.3424C174.281 51.3424 169.498 53.5386 165.481 57.0218C164.218 58.1111 166.044 59.9427 167.298 58.8578V58.8402Z" fill="#E0E0E0"/>
<path d="M170.379 64.765C171.546 63.4666 172.969 62.4234 174.56 61.701C176.15 60.9785 177.873 60.5926 179.62 60.5674C181.367 60.5423 183.101 60.8784 184.711 61.5547C186.322 62.231 187.775 63.2328 188.978 64.4971C190.144 65.6918 191.984 63.8734 190.818 62.6787C189.374 61.1739 187.637 59.9809 185.713 59.1736C183.789 58.3663 181.72 57.9619 179.633 57.9853C177.547 58.0088 175.487 58.4597 173.582 59.3101C171.677 60.1604 169.967 61.3922 168.558 62.929C167.431 64.1457 169.249 66.0037 170.379 64.765Z" fill="#E0E0E0"/>
<path d="M5.11133 107.588L18.703 95.6227L25.9982 100.938L41.5347 84.9316L64.3709 107.526L5.11133 107.588Z" fill="#EBEBEB"/>
<path d="M195.051 107.588L215.731 96.2596L243.579 102.879L260.998 84.9316L283.834 107.526L195.051 107.588Z" fill="#EBEBEB"/>
<path d="M287.42 64.677C287.821 61.7781 283.72 59.4062 280.644 59.1426C279.175 59.024 277.648 59.248 276.244 58.7649C273.23 57.7151 272.025 53.8278 269.085 52.5892C266.885 51.6668 264.355 52.4882 262.221 53.5599C260.087 54.6316 257.984 55.9801 255.621 56.1294C253.549 56.2656 251.296 55.4969 249.461 56.5072C248.115 57.2583 247.407 58.8132 246.161 59.7312C244.916 60.6492 243.354 60.8161 241.841 60.8996C240.327 60.983 238.76 60.9962 237.392 61.6243C236.024 62.2524 234.875 63.7063 235.161 65.191L287.42 64.677Z" fill="#EBEBEB"/>
<path d="M54.3954 20.5163C54.7694 17.8281 50.9634 15.6143 48.1078 15.3859C46.7438 15.2761 45.327 15.4826 44.0378 15.0345C41.2393 14.0594 40.1217 10.4533 37.3937 9.30248C35.3521 8.424 32.9937 9.21024 31.0225 10.2029C29.0513 11.1956 27.0889 12.4474 24.8625 12.588C22.9396 12.711 20.854 11.9994 19.1688 12.935C17.9192 13.6334 17.2592 15.0785 16.0888 15.9262C14.9184 16.7739 13.484 16.9365 12.0804 17.0111C10.6768 17.0858 9.22917 17.1034 7.94876 17.6876C6.66835 18.2717 5.61675 19.6158 5.88075 20.995L54.3954 20.5163Z" fill="#F5F5F5"/>
<path d="M138.316 32.3977C138.545 30.7329 136.191 29.3581 134.418 29.2176C133.573 29.1473 132.697 29.2791 131.897 28.9979C130.163 28.3962 129.472 26.1605 127.778 25.4489C126.515 24.9174 125.059 25.3918 123.818 26.0067C122.577 26.6217 121.385 27.3991 120.012 27.487C118.824 27.5616 117.53 27.1224 116.492 27.7022C115.713 28.1414 115.308 29.0199 114.591 29.5558C113.846 30.0131 112.984 30.2464 112.11 30.2278C111.237 30.2032 110.368 30.3448 109.549 30.6451C108.757 31.0053 108.101 31.8398 108.268 32.6963L138.316 32.3977Z" fill="#F5F5F5"/>
<path d="M263.428 24.4392C263.657 22.7701 261.299 21.3996 259.53 21.2547C258.685 21.1888 257.805 21.3162 257.009 21.0395C255.275 20.4377 254.58 18.202 252.89 17.486C251.623 16.9545 250.171 17.4289 248.93 18.0438C247.689 18.6588 246.493 19.4362 245.124 19.5241C243.932 19.5987 242.638 19.1595 241.604 19.7393C240.83 20.1785 240.421 21.057 239.703 21.5929C238.959 22.0528 238.097 22.2863 237.222 22.2649C236.348 22.2521 235.48 22.401 234.661 22.7042C233.873 23.0687 233.218 23.9033 233.38 24.7554L263.428 24.4392Z" fill="#F5F5F5"/>
<path d="M208.155 17.6576C208.155 17.6576 207.909 17.5918 207.469 17.5039C206.848 17.3805 206.212 17.3642 205.586 17.4556C204.66 17.5833 203.788 17.9632 203.064 18.5537C202.188 19.2808 201.57 20.2716 201.304 21.378V21.4087L201.194 21.848L201.036 21.4483C200.6 20.3787 199.846 19.4682 198.876 18.8392C198.096 18.3311 197.199 18.0289 196.271 17.9607C195.407 17.914 194.543 18.0242 193.719 18.2857C193.917 18.1565 194.136 18.0615 194.366 18.0046C194.985 17.8095 195.635 17.7277 196.284 17.7631C197.256 17.8113 198.199 18.1143 199.016 18.6415C200.025 19.285 200.811 20.2238 201.265 21.3297H200.996V21.2989C201.278 20.1287 201.942 19.0855 202.884 18.3341C203.522 17.8305 204.269 17.4821 205.066 17.3167C205.862 17.1513 206.687 17.1733 207.473 17.3809C207.715 17.4334 207.945 17.527 208.155 17.6576Z" fill="#E0E0E0"/>
<path d="M32.5134 55.9668C32.3216 56.2194 32.1144 56.4599 31.893 56.6871C31.3225 57.3356 30.8074 58.0305 30.353 58.7647C28.8509 61.1862 28.0625 63.9811 28.0782 66.8292V66.9302H27.7966C27.3592 64.137 26.0594 61.5496 24.0786 59.529C23.2436 58.713 22.3331 57.9777 21.3594 57.3328C21.4391 57.3543 21.5149 57.3885 21.5838 57.4339C21.7924 57.54 21.9951 57.6573 22.191 57.7852C22.9227 58.2455 23.6028 58.783 24.2194 59.3885C26.2806 61.4092 27.6325 64.0406 28.0738 66.8907L27.7966 66.9126V66.8116C27.772 63.9118 28.6029 61.0689 30.1858 58.6374C30.6584 57.9047 31.2007 57.2193 31.805 56.5905C32.0162 56.3665 32.201 56.2128 32.3154 56.0986C32.3772 56.0486 32.4435 56.0045 32.5134 55.9668Z" fill="#E0E0E0"/>
<path d="M294 106.651C294 106.713 229.258 106.766 149.411 106.766C69.5638 106.766 4.80859 106.713 4.80859 106.651C4.80859 106.59 69.5374 106.537 149.411 106.537C229.285 106.537 294 106.59 294 106.651Z" fill="#455A64"/>
<path d="M105.699 111.716C105.699 111.782 87.7904 111.83 65.7067 111.83C43.6229 111.83 25.7148 111.782 25.7148 111.716C25.7148 111.65 43.6185 111.602 65.7067 111.602C87.7948 111.602 105.699 111.654 105.699 111.716Z" fill="#263238"/>
<path d="M90.7052 115.603C90.7052 115.664 82.0988 115.717 71.4815 115.717C60.8643 115.717 52.2578 115.664 52.2578 115.603C52.2578 115.541 60.8643 115.484 71.4815 115.484C82.0988 115.484 90.7052 115.537 90.7052 115.603Z" fill="#263238"/>
<path d="M84.6656 83.3544C88.3396 88.9811 95.802 91.8273 102.301 90.088C108.8 88.3486 113.825 82.1465 114.181 75.4437C114.537 68.7409 110.195 62.0425 103.92 59.6311C97.6456 57.2197 89.9192 59.2534 85.6688 64.4627C81.4184 69.6721 80.9695 77.6399 84.604 83.2798" fill="#BA68C8"/>
<path d="M60.4297 106.687L79.5434 83.3547L90.7943 94.059L117.863 63.0751L130.672 57.8086L156.082 88.1029L165.128 84.5934L179.996 97.529L185.747 93.2376L202.502 106.358L60.4297 106.687Z" fill="#455A64"/>
<path d="M12.9203 160.734C13.8443 161.986 15.5603 161.52 16.3523 160.734C17.1443 159.948 17.4479 158.802 17.734 157.721C18.3808 155.252 19.0276 152.661 18.4424 150.179C18.2972 149.425 17.9471 148.724 17.4303 148.154C17.1677 147.876 16.8367 147.67 16.4702 147.559C16.1036 147.447 15.7141 147.433 15.3403 147.517C14.4603 147.768 13.9499 148.638 13.5803 149.463C12.4817 151.892 11.9376 154.534 11.9875 157.198C12.0139 158.437 12.1943 159.733 12.9203 160.739" fill="#BA68C8"/>
<g opacity="0.2">
<path d="M12.9203 160.734C13.8443 161.986 15.5603 161.52 16.3523 160.734C17.1443 159.948 17.4479 158.802 17.734 157.721C18.3808 155.252 19.0276 152.661 18.4424 150.179C18.2972 149.425 17.9471 148.724 17.4303 148.154C17.1677 147.876 16.8367 147.67 16.4702 147.559C16.1036 147.447 15.7141 147.433 15.3403 147.517C14.4603 147.768 13.9499 148.638 13.5803 149.463C12.4817 151.892 11.9376 154.534 11.9875 157.198C12.0139 158.437 12.1943 159.733 12.9203 160.739" fill="black"/>
</g>
<path d="M16.4261 167.094C17.9046 166.357 19.5808 166.113 21.2089 166.396C22.0979 166.453 22.9421 166.806 23.6069 167.398C24.2141 168.034 24.3549 169.181 23.6861 169.756C23.2581 170.07 22.7337 170.226 22.2033 170.195C20.9317 170.195 19.5193 170.02 18.5249 170.81C17.9573 171.25 17.5921 171.988 16.9057 172.22C16.5617 172.309 16.1981 172.283 15.8702 172.147C15.5422 172.01 15.2678 171.771 15.0885 171.465C14.7434 170.839 14.652 170.105 14.8333 169.414C14.901 168.93 15.08 168.469 15.3564 168.067C15.6328 167.665 15.999 167.332 16.4261 167.094Z" fill="#BA68C8"/>
<path d="M10.5152 162.619C10.9588 162.01 11.2467 161.302 11.354 160.556C11.4614 159.811 11.3849 159.05 11.1312 158.341C10.6012 156.921 9.68735 155.676 8.4912 154.744C7.14192 153.603 5.58325 152.734 3.90198 152.187C3.24895 151.944 2.55121 151.844 1.85596 151.893C1.50945 151.921 1.1751 152.034 0.88211 152.22C0.589121 152.407 0.346404 152.663 0.175154 152.965C-0.264848 153.887 0.201555 154.972 0.720758 155.859C1.62889 157.42 2.65875 158.906 3.80078 160.304C4.72038 161.433 5.77199 162.536 7.14039 163.023C8.5088 163.511 9.92121 163.414 10.6164 162.457" fill="#BA68C8"/>
<path d="M13.3298 179.929C13.3732 179.738 13.3953 179.544 13.3958 179.349C13.4266 178.91 13.4662 178.4 13.5102 177.767C13.5703 176.988 13.6701 176.213 13.8094 175.444C13.9944 174.508 14.2549 173.588 14.5882 172.694C14.9062 171.8 15.3507 170.955 15.9082 170.186C16.367 169.561 16.9591 169.045 17.6418 168.675C18.1081 168.432 18.6101 168.265 19.129 168.179C19.3236 168.164 19.5165 168.131 19.7054 168.082C19.5095 168.061 19.3118 168.061 19.1158 168.082C18.5803 168.136 18.0587 168.284 17.5758 168.522C16.8582 168.883 16.2334 169.405 15.7498 170.046C15.1629 170.824 14.6957 171.686 14.3638 172.602C14.0252 173.51 13.7675 174.447 13.5938 175.4C13.4624 176.177 13.3787 176.962 13.343 177.75C13.3078 178.422 13.3034 178.967 13.3034 179.34C13.2893 179.537 13.2981 179.734 13.3298 179.929Z" fill="#263238"/>
<path d="M13.4095 178.721C13.4219 178.632 13.4219 178.542 13.4095 178.453C13.4095 178.251 13.4095 178.013 13.3875 177.684C13.3875 177.021 13.3479 176.054 13.3523 174.864C13.3523 172.483 13.4799 169.194 13.7923 165.574C14.1047 161.955 14.5535 158.691 14.9759 156.35C15.0771 155.762 15.1783 155.235 15.2751 154.769C15.3719 154.303 15.4467 153.89 15.5215 153.583C15.5963 153.276 15.6403 153.03 15.6843 152.832C15.7093 152.746 15.7226 152.658 15.7239 152.568C15.6847 152.65 15.6552 152.735 15.6359 152.823C15.5831 153.016 15.5171 153.262 15.4335 153.561C15.3499 153.86 15.2487 154.281 15.1431 154.743C15.0375 155.204 14.9231 155.731 14.8131 156.319C14.2264 159.369 13.8063 162.448 13.5547 165.543C13.2467 169.167 13.1455 172.466 13.1895 174.855C13.1895 176.046 13.2555 177.012 13.2995 177.675L13.3655 178.444C13.3675 178.538 13.3823 178.631 13.4095 178.721Z" fill="#263238"/>
<path d="M13.2694 172.362C13.2918 172.094 13.2918 171.825 13.2694 171.558C13.2254 171.044 13.1374 170.302 12.9702 169.392C12.7667 168.33 12.5037 167.28 12.1826 166.247C11.7984 164.978 11.325 163.738 10.7658 162.536C9.79354 160.323 8.42468 158.306 6.72661 156.584C6.43194 156.288 6.11892 156.011 5.7894 155.754C5.6486 155.64 5.521 155.526 5.389 155.433L5.0282 155.2C4.81119 155.043 4.58163 154.903 4.3418 154.783C5.13147 155.376 5.88383 156.017 6.59461 156.703C8.24457 158.44 9.58396 160.447 10.5546 162.637C11.1091 163.83 11.5838 165.058 11.9758 166.313C12.305 167.337 12.5826 168.376 12.8074 169.427C12.9966 170.306 13.1066 171.061 13.177 171.567C13.1898 171.833 13.2207 172.099 13.2694 172.362Z" fill="#263238"/>
<path d="M112.8 156.998L103.12 165.963C103.12 165.963 90.7388 159.142 88.7852 160.622L105.505 180.001L121.174 166.653L112.8 156.998Z" fill="#BA68C8"/>
<path d="M109.115 171.23C109.216 171.465 109.227 171.729 109.145 171.972C109.064 172.215 108.897 172.42 108.675 172.547C108.443 172.661 108.177 172.68 107.931 172.603C107.685 172.525 107.479 172.356 107.355 172.13C107.245 171.88 107.232 171.599 107.318 171.34C107.404 171.081 107.583 170.864 107.821 170.729C108.074 170.639 108.352 170.649 108.598 170.758C108.844 170.866 109.038 171.065 109.141 171.313" fill="#E0E0E0"/>
<path d="M105.515 180.001L107.029 178.714L90.423 160.543C90.423 160.543 89.3053 160.002 88.7773 160.622L105.515 180.001Z" fill="#263238"/>
<path d="M102.952 165.544C102.86 165.627 103.225 166.137 103.322 166.862C103.419 167.586 103.234 168.179 103.348 168.236C103.463 168.294 103.885 167.679 103.753 166.8C103.621 165.922 103.005 165.465 102.952 165.544Z" fill="#263238"/>
<path d="M100.342 164.254C100.232 164.312 100.425 164.861 100.302 165.528C100.179 166.196 99.8356 166.653 99.9192 166.741C100.003 166.828 100.592 166.433 100.733 165.599C100.874 164.764 100.434 164.18 100.342 164.254Z" fill="#263238"/>
<path d="M96.9084 165.198C96.9612 165.299 97.5508 165.026 97.8588 164.319C98.1668 163.612 97.9908 163.001 97.8808 163.037C97.7708 163.072 97.7268 163.577 97.4408 164.139C97.1548 164.701 96.838 165.105 96.9084 165.198Z" fill="#263238"/>
<path d="M105.375 163.788C105.322 163.902 105.815 164.227 106.255 164.789C106.695 165.351 106.871 165.918 106.994 165.896C107.117 165.874 107.113 165.185 106.598 164.521C106.083 163.858 105.41 163.652 105.375 163.788Z" fill="#263238"/>
<path d="M217.44 51.062C217.051 50.8404 216.718 50.5328 216.468 50.1628C216.217 49.7928 216.054 49.3704 215.993 48.9279C215.931 48.4854 215.972 48.0347 216.112 47.6104C216.252 47.1862 216.488 46.7997 216.802 46.4807C217.286 45.9844 217.941 45.6681 218.394 45.163C218.733 44.695 219.028 44.1965 219.274 43.674C219.763 42.8851 220.43 42.2219 221.223 41.7382C222.016 41.2544 222.911 40.9636 223.837 40.8892C225.705 40.7677 227.553 41.335 229.029 42.4836C229.619 42.9229 230.173 43.4544 230.886 43.6476C231.599 43.8409 232.298 43.6784 233.011 43.6784C233.863 43.6742 234.7 43.8944 235.44 44.3168C236.179 44.7392 236.793 45.3487 237.221 46.0839C237.648 46.8191 237.874 47.654 237.875 48.5041C237.876 49.3542 237.652 50.1896 237.226 50.9258C238.149 51.2605 238.924 51.9093 239.415 52.7581C239.905 53.6069 240.08 54.6013 239.909 55.5663C239.738 56.5312 239.231 57.4049 238.478 58.0336C237.725 58.6623 236.774 59.0058 235.792 59.0034C234.591 59.0034 233.456 58.4807 232.356 58.0064C227.882 56.0771 223.2 54.6696 218.403 53.8116" fill="#263238"/>
<path d="M236.975 80.6532C239.283 78.0278 240.593 74.6755 240.675 71.1832C240.746 67.7264 240.121 63.4175 237.93 60.7381C239.399 59.0954 238.748 57.3077 237.648 55.4014C236.548 53.4951 234.616 52.2081 232.623 51.2637C229.646 49.8588 226.407 49.0884 223.115 49.0016C220.44 48.9358 216.884 49.4409 216.554 51.3735C216.207 53.3853 217.527 54.2593 217.527 54.2593C215.678 54.9081 213.996 55.9582 212.603 57.334C209.312 60.5844 208.062 63.8391 208.564 67.4365C209.066 71.0339 209.884 73.8231 212.084 76.072" fill="#BA68C8"/>
<path d="M214.306 80.249C213.926 79.879 213.463 79.6062 212.955 79.454H213.056C212.962 79.4349 212.866 79.4246 212.77 79.4232C212.597 79.3811 212.416 79.3754 212.241 79.4064C212.065 79.4374 211.898 79.5044 211.749 79.6033C211.185 79.8402 210.73 80.2788 210.473 80.8332C210.276 81.323 210.218 81.8574 210.305 82.378C210.392 82.8986 210.62 83.3854 210.966 83.7849C211.216 84.1578 211.574 84.4454 211.993 84.6087C212.412 84.7721 212.871 84.8035 213.308 84.6988C213.745 84.594 214.139 84.358 214.438 84.0226C214.737 83.6873 214.926 83.2686 214.979 82.823C215.095 82.3722 215.094 81.8993 214.976 81.449C214.858 80.9987 214.627 80.5857 214.306 80.249Z" fill="#455A64"/>
<path d="M235.896 92.3594L236.75 64.6873C236.748 64.0134 236.492 63.3648 236.035 62.8695C235.577 62.3743 234.95 62.0684 234.277 62.0123L219.893 58.7268C215.304 58.3491 212.382 64.046 212.198 68.6405C211.991 73.7444 211.942 79.986 212.638 83.7766C214.028 91.3974 219.924 92.2364 219.924 92.2364C219.924 92.2364 220.082 97.5424 220.179 100.323L221.226 111.44L235.896 92.3594Z" fill="#AB6E65"/>
<path d="M213.98 74.9691C213.985 75.2247 214.089 75.4685 214.271 75.6489C214.452 75.8293 214.697 75.932 214.953 75.9354C215.078 75.9431 215.203 75.9256 215.321 75.8839C215.439 75.8423 215.548 75.7773 215.64 75.6928C215.733 75.6084 215.807 75.5062 215.859 75.3924C215.911 75.2786 215.94 75.1556 215.943 75.0306C215.941 74.7746 215.838 74.5297 215.657 74.3482C215.476 74.1668 215.231 74.0633 214.975 74.0599C214.85 74.0534 214.724 74.0718 214.606 74.1142C214.488 74.1566 214.379 74.2219 214.287 74.3066C214.194 74.3912 214.12 74.4933 214.067 74.6071C214.014 74.7208 213.985 74.8439 213.98 74.9691Z" fill="#263238"/>
<path d="M213.626 71.8389C213.749 71.9619 214.506 71.3997 215.54 71.3733C216.574 71.347 217.384 71.8653 217.498 71.7335C217.551 71.672 217.423 71.4436 217.058 71.2064C216.593 70.9017 216.044 70.7482 215.487 70.7672C214.938 70.7766 214.406 70.9613 213.969 71.2943C213.67 71.549 213.565 71.7818 213.626 71.8389Z" fill="#263238"/>
<path d="M223.891 74.9735C223.894 75.2287 223.997 75.4725 224.178 75.653C224.359 75.8335 224.603 75.9364 224.859 75.9398C224.984 75.9463 225.109 75.9278 225.227 75.8855C225.346 75.8431 225.454 75.7777 225.547 75.6931C225.639 75.6085 225.714 75.5063 225.767 75.3926C225.819 75.2789 225.849 75.1558 225.853 75.0306C225.85 74.7754 225.747 74.5316 225.566 74.3511C225.385 74.1706 225.141 74.0677 224.885 74.0643C224.759 74.0566 224.634 74.0742 224.515 74.1161C224.396 74.158 224.287 74.2233 224.194 74.3082C224.102 74.393 224.027 74.4957 223.975 74.61C223.923 74.7243 223.894 74.8479 223.891 74.9735Z" fill="#263238"/>
<path d="M224.024 71.7989C224.152 71.9263 224.904 71.3597 225.938 71.3597C226.972 71.3597 227.782 71.8472 227.896 71.7155C227.949 71.6584 227.821 71.4299 227.456 71.1928C226.99 70.888 226.442 70.7346 225.885 70.7535C225.336 70.767 224.805 70.9529 224.367 71.285C224.068 71.509 223.954 71.7418 224.024 71.7989Z" fill="#263238"/>
<path d="M220.365 79.7136C220.365 79.6521 219.709 79.5555 218.645 79.4413C218.372 79.4193 218.117 79.3754 218.064 79.1909C218.036 78.9127 218.093 78.6327 218.227 78.3871C218.469 77.7282 218.715 77.0386 218.979 76.3183C220.022 73.371 220.77 70.9508 220.651 70.9069C220.532 70.8629 219.591 73.2216 218.548 76.1777L217.831 78.2597C217.667 78.5892 217.625 78.9654 217.712 79.3227C217.752 79.4149 217.813 79.497 217.889 79.5631C217.965 79.6291 218.055 79.6776 218.152 79.7048C218.296 79.7401 218.444 79.7578 218.592 79.7575C219.701 79.7839 220.365 79.7751 220.365 79.7136Z" fill="#263238"/>
<path d="M219.918 92.2188C223.526 92.1911 227.055 91.1648 230.113 89.2539C230.113 89.2539 227.741 94.5643 220.059 94.024L219.918 92.2188Z" fill="#7C4B43"/>
<path d="M220.582 82.2212C220.811 81.8663 221.124 81.5728 221.493 81.3661C221.861 81.1594 222.275 81.0458 222.698 81.0352C222.974 81.0327 223.247 81.0974 223.492 81.2237C223.737 81.35 223.948 81.534 224.106 81.76C224.283 82.0219 224.375 82.3312 224.37 82.6468C224.366 82.9623 224.265 83.2689 224.081 83.5258C223.898 83.7826 223.64 83.9774 223.342 84.0842C223.045 84.1909 222.722 84.2045 222.417 84.1231C221.824 83.9441 221.282 83.6264 220.837 83.1963C220.697 83.0924 220.58 82.9608 220.494 82.8098C220.452 82.7254 220.433 82.6317 220.438 82.5378C220.444 82.4439 220.473 82.3529 220.525 82.2739" fill="#7C4B43"/>
<path d="M223.516 80.3713C223.344 80.3713 223.371 81.5133 222.407 82.3479C221.443 83.1824 220.207 83.0858 220.207 83.2263C220.207 83.301 220.484 83.4416 221.003 83.446C221.675 83.4382 222.323 83.1957 222.834 82.7608C223.334 82.3458 223.65 81.7508 223.714 81.1048C223.709 80.6436 223.573 80.3625 223.516 80.3713Z" fill="#263238"/>
<path d="M223.538 68.9474C223.648 69.2285 224.699 69.0703 225.945 69.1933C227.19 69.3163 228.197 69.6326 228.36 69.3646C228.431 69.2416 228.25 68.9737 227.837 68.7058C227.292 68.3706 226.675 68.1703 226.037 68.1216C225.4 68.0615 224.758 68.1518 224.163 68.3851C223.714 68.5784 223.489 68.8112 223.538 68.9474Z" fill="#263238"/>
<path d="M213.949 68.7716C214.138 69.0088 214.86 68.7409 215.736 68.7102C216.611 68.6794 217.359 68.8375 217.522 68.5828C217.597 68.4598 217.474 68.2182 217.144 67.9986C216.704 67.7311 216.192 67.6068 215.678 67.6428C215.164 67.6616 214.668 67.8413 214.261 68.1567C213.958 68.4071 213.861 68.6574 213.949 68.7716Z" fill="#263238"/>
<path d="M218.917 60.9185C218.917 60.9185 226.102 60.5978 231.783 68.5393C235.527 73.775 236.482 80.4558 236.482 80.4558L238.88 67.6169L236.627 61.8848L231.576 59.223L222.133 58.9727L218.613 60.835" fill="#BA68C8"/>
<path d="M233.023 61.1688C221.491 58.7529 212.449 62.8071 211.023 71.8159L208.555 65.9872L214.275 58.6519L220.743 56.7676L233.943 58.3708L233.023 61.1688Z" fill="#BA68C8"/>
<path d="M238.206 79.5721C237.795 79.1643 237.291 78.8627 236.737 78.6936H236.847C236.745 78.6716 236.642 78.6583 236.539 78.6541C236.352 78.6108 236.158 78.6055 235.969 78.6387C235.78 78.6719 235.6 78.7429 235.439 78.8474C234.833 79.1008 234.343 79.5706 234.066 80.1651C233.855 80.693 233.792 81.2688 233.886 81.8295C233.98 82.3903 234.226 82.9146 234.598 83.3452C234.87 83.7415 235.257 84.046 235.706 84.2184C236.155 84.3908 236.646 84.423 237.114 84.3106C237.582 84.1982 238.005 83.9466 238.326 83.5891C238.648 83.2316 238.853 82.7851 238.915 82.3086C239.035 81.8297 239.034 81.3283 238.91 80.8502C238.786 80.3721 238.544 79.9327 238.206 79.5721Z" fill="#455A64"/>
<path d="M235.394 75.5706C235.576 75.5421 235.749 75.4731 235.9 75.3686C236.328 75.1039 236.679 74.7312 236.917 74.2881C237.295 73.621 237.393 72.8311 237.189 72.0919C237.084 71.6878 236.921 71.2924 236.842 70.8796C236.789 70.6815 236.786 70.4735 236.834 70.2742C236.882 70.0749 236.978 69.8905 237.115 69.7375C237.438 69.4393 237.806 69.1932 238.206 69.0084C238.601 68.7989 238.949 68.512 239.231 68.1651C239.693 67.5723 239.961 66.8512 239.997 66.1006C240.024 65.6002 239.932 65.1003 239.728 64.6424C239.665 64.4766 239.565 64.3266 239.438 64.2031C239.696 64.8023 239.811 65.4537 239.772 66.105C239.711 66.7993 239.445 67.4598 239.007 68.0025C238.744 68.3159 238.421 68.5729 238.056 68.758C237.625 68.9567 237.229 69.2221 236.881 69.5443C236.714 69.7337 236.595 69.9613 236.536 70.2071C236.477 70.453 236.479 70.7095 236.543 70.9542C236.635 71.3935 236.807 71.8064 236.912 72.1885C237.1 72.8544 237.029 73.5665 236.714 74.1826C236.509 74.6064 236.208 74.9764 235.834 75.2632C235.539 75.4652 235.363 75.5443 235.394 75.5706Z" fill="white"/>
<path d="M236.917 59.9531C237.159 60.5162 237.291 61.1197 237.309 61.732C237.307 62.3881 237.125 63.031 236.781 63.59C236.411 64.2313 235.707 64.6749 235.021 65.2328C234.658 65.5044 234.358 65.8504 234.141 66.2474C233.951 66.634 233.879 67.0678 233.934 67.4949C234.022 68.2811 234.282 68.9268 234.251 69.4802C234.26 69.9209 234.103 70.3489 233.811 70.6793C233.595 70.9034 233.402 70.9297 233.415 70.9605C233.428 70.9912 233.463 70.9605 233.551 70.9605C233.676 70.9247 233.792 70.8617 233.89 70.776C234.065 70.6114 234.205 70.4135 234.301 70.1939C234.398 69.9743 234.45 69.7376 234.453 69.4978C234.515 68.8829 234.264 68.2064 234.202 67.4773C234.163 67.1047 234.231 66.7287 234.396 66.3924C234.598 66.0379 234.87 65.7285 235.197 65.4831C235.861 64.9517 236.627 64.4597 237.018 63.7482C237.376 63.1396 237.552 62.4415 237.524 61.7364C237.511 61.2674 237.398 60.8065 237.194 60.3836C237.135 60.2215 237.04 60.0746 236.917 59.9531Z" fill="white"/>
<path d="M229.02 65.6274C229.02 65.6274 229.112 65.7416 229.332 65.6889C229.462 65.6531 229.576 65.576 229.658 65.4693C229.767 65.3275 229.823 65.1518 229.816 64.9729C229.816 64.5864 229.6 64.1911 229.57 63.7914C229.539 63.3917 229.873 63.0271 230.313 62.7899C230.788 62.5783 231.204 62.2559 231.528 61.85C231.781 61.5073 231.946 61.1075 232.007 60.686C232.098 60.3031 232.046 59.9005 231.862 59.5527C231.867 59.9171 231.844 60.2814 231.792 60.642C231.702 61.0184 231.534 61.3717 231.299 61.6787C230.988 62.0416 230.598 62.3286 230.159 62.5176C229.912 62.6476 229.694 62.8253 229.517 63.0403C229.341 63.2562 229.258 63.5322 229.284 63.809C229.35 64.3229 229.587 64.6874 229.596 64.9817C229.614 65.0999 229.594 65.2206 229.54 65.327C229.485 65.4333 229.399 65.52 229.292 65.5747C229.138 65.6494 229.028 65.6011 229.02 65.6274Z" fill="white"/>
<path d="M226.65 59.4688C226.65 59.4688 226.575 59.4687 226.492 59.5346C226.44 59.5944 226.402 59.6646 226.38 59.7404C226.358 59.8162 226.352 59.8958 226.364 59.9739C226.414 60.1756 226.482 60.3725 226.566 60.5625C226.633 60.7714 226.642 60.9945 226.593 61.2081C226.48 61.6167 226.272 61.9929 225.986 62.3062C225.77 62.5654 225.634 62.7455 225.664 62.7718C225.695 62.7982 225.88 62.6884 226.144 62.46C226.516 62.1552 226.782 61.7397 226.901 61.274C226.961 61.003 226.94 60.7203 226.839 60.4614C226.745 60.2887 226.66 60.1113 226.584 59.93C226.546 59.7735 226.569 59.6082 226.65 59.4688Z" fill="white"/>
<path d="M215.074 55.6295C215.074 55.6295 215.101 55.7525 215.211 55.937C215.321 56.1215 215.505 56.3762 215.677 56.6793C215.873 57.043 215.918 57.4684 215.805 57.8652C215.629 58.3865 215.523 58.9284 215.488 59.4772C215.497 60.0479 215.677 60.6028 216.003 61.0717C216.272 61.4476 216.632 61.7497 217.05 61.9502C217.413 62.1678 217.843 62.2473 218.26 62.1742C217.877 62.0628 217.506 61.9157 217.151 61.7349C216.787 61.527 216.476 61.2366 216.245 60.8872C215.965 60.4594 215.813 59.9615 215.805 59.4509C215.839 58.9261 215.935 58.4072 216.091 57.9048C216.147 57.6754 216.157 57.437 216.119 57.2038C216.081 56.9706 215.997 56.7474 215.871 56.5475C215.704 56.2984 215.517 56.0633 215.312 55.8447C215.153 55.7086 215.096 55.6207 215.074 55.6295Z" fill="white"/>
<path d="M209.781 61.138C209.737 61.1907 210.128 61.3576 210.287 61.9155C210.362 62.2054 210.516 62.5524 210.63 62.9169C210.738 63.3454 210.885 63.763 211.07 64.1644C211.279 64.528 211.578 64.8328 211.937 65.0502C212.296 65.2675 212.705 65.3905 213.125 65.4074C213.469 65.4541 213.818 65.3693 214.102 65.1702C213.782 65.1875 213.462 65.1875 213.142 65.1702C212.772 65.1265 212.417 64.9974 212.106 64.7931C211.794 64.5888 211.534 64.3149 211.347 63.9931C211.168 63.6104 211.021 63.2138 210.907 62.8071C210.762 62.4162 210.599 62.1087 210.494 61.8232C210.412 61.5838 210.258 61.3753 210.054 61.2259C209.873 61.1512 209.79 61.1248 209.781 61.138Z" fill="white"/>
<path d="M208.993 68.8249C208.958 68.8249 208.993 69.0182 209.156 69.2642C209.387 69.5696 209.719 69.7842 210.093 69.8709C210.466 69.9576 210.859 69.9107 211.202 69.7386C211.457 69.6024 211.567 69.4574 211.54 69.4267C211.514 69.396 210.911 69.7386 210.163 69.5673C209.415 69.396 209.041 68.7766 208.993 68.8249Z" fill="white"/>
<path d="M221.853 54.291C221.823 54.3393 222.179 54.515 222.513 55.007C222.729 55.3193 222.865 55.6791 222.91 56.0556C222.955 56.432 222.908 56.8138 222.773 57.168C222.538 57.5695 222.402 58.0213 222.377 58.4857C222.408 58.8734 222.562 59.2411 222.817 59.5355C223.235 60.0231 223.596 60.19 223.613 60.1636C223.631 60.1373 223.336 59.8869 222.993 59.4038C222.789 59.1356 222.67 58.813 222.65 58.477C222.695 58.0565 222.83 57.6506 223.046 57.2866C223.226 56.8467 223.266 56.362 223.16 55.8986C223.078 55.527 222.912 55.1787 222.676 54.8796C222.484 54.5887 222.191 54.379 221.853 54.291Z" fill="white"/>
<path d="M229.234 59.5929C229.318 59.5578 229.063 58.8814 229.037 58.0161C229.01 57.1508 229.195 56.4568 229.107 56.4304C229.019 56.4041 228.668 57.0893 228.725 58.0293C228.782 58.9692 229.155 59.6369 229.234 59.5929Z" fill="white"/>
<path d="M234.516 58.7046C234.516 58.7046 234.45 58.6255 234.379 58.4762C234.283 58.2612 234.256 58.0221 234.3 57.791C234.392 57.1936 234.969 56.5084 235.448 55.6387C235.684 55.2216 235.834 54.7616 235.888 54.2858C235.93 53.8881 235.855 53.4868 235.673 53.1306C235.553 52.8847 235.355 52.6854 235.11 52.564C234.929 52.4937 234.819 52.5157 234.819 52.5333C234.819 52.5508 234.912 52.5772 235.052 52.6738C235.248 52.8134 235.401 53.0052 235.492 53.2273C235.756 53.7763 235.655 54.668 235.193 55.4937C234.731 56.3195 234.159 57.053 234.102 57.7646C234.069 58.0373 234.138 58.3127 234.296 58.5377C234.406 58.6958 234.516 58.7178 234.516 58.7046Z" fill="white"/>
<path d="M227.134 55.4713C227.134 55.4713 227.086 55.3746 226.963 55.2429C226.787 55.0894 226.664 54.8852 226.611 54.6587C226.672 54.3211 226.842 54.0127 227.095 53.7802C227.367 53.4727 227.733 53.1872 228.102 52.8402C228.494 52.5287 228.767 52.0933 228.877 51.606C228.892 51.1989 228.782 50.797 228.56 50.4552C228.401 50.1347 228.176 49.8517 227.9 49.625C228.027 49.9486 228.183 50.2602 228.366 50.5562C228.531 50.868 228.609 51.2186 228.591 51.5708C228.468 51.9839 228.221 52.3491 227.882 52.6162C227.191 53.2575 226.386 53.8856 226.391 54.6894C226.463 54.9611 226.638 55.1942 226.879 55.3395C227.033 55.4361 227.117 55.4888 227.134 55.4713Z" fill="white"/>
<path d="M219.993 54.4182C219.783 54.2407 219.63 54.0054 219.553 53.7418C219.492 53.4578 219.52 53.1619 219.632 52.8941C219.78 52.5481 219.958 52.2159 220.165 51.9014C220.389 51.5633 220.539 51.1815 220.605 50.7813C220.638 50.4368 220.553 50.0911 220.363 49.8018C220.068 49.2923 219.645 49.2132 219.65 49.2659C219.867 49.4383 220.043 49.6575 220.165 49.9072C220.302 50.1609 220.356 50.4514 220.319 50.7374C220.235 51.0968 220.086 51.4377 219.879 51.7433C219.661 52.0736 219.481 52.4271 219.342 52.7974C219.23 53.1234 219.23 53.4773 219.342 53.8033C219.413 54.0245 219.555 54.2161 219.747 54.3479C219.901 54.4182 219.993 54.4402 219.993 54.4182Z" fill="white"/>
<path d="M217.535 54.2593C217.828 54.2876 218.123 54.2876 218.415 54.2593C218.978 54.2329 219.792 54.2593 220.791 54.2812C223.4 54.3982 225.977 54.9076 228.434 55.7922C230.877 56.7295 233.22 57.9066 235.43 59.3061L237.445 60.5711C237.683 60.7412 237.936 60.8883 238.202 61.0104C237.991 60.8078 237.761 60.6254 237.516 60.4657C237.076 60.1319 236.389 59.6663 235.549 59.1172C233.357 57.6546 231.006 56.4463 228.54 55.5155C226.056 54.6146 223.442 54.1264 220.8 54.0704C220.003 54.0556 219.205 54.082 218.411 54.1495C218.116 54.16 217.823 54.1967 217.535 54.2593Z" fill="#263238"/>
<path d="M235.834 60.7859C235.806 60.7805 235.78 60.7717 235.754 60.7595L235.539 60.6761L235.191 60.5355L234.703 60.3686C233.668 60.021 232.596 59.7955 231.508 59.6966C229.894 59.5523 228.269 59.6083 226.668 59.8635C225.762 59.9953 224.825 60.1929 223.852 60.4213C222.88 60.6497 221.89 60.9221 220.891 61.2647C216.861 62.5604 213.803 65.2178 212.461 67.6073C211.925 68.5553 211.531 69.5763 211.29 70.638C211.202 71.0158 211.15 71.3101 211.114 71.5165C211.114 71.6087 211.084 71.6834 211.07 71.7449C211.073 71.7697 211.073 71.7948 211.07 71.8196C211.07 71.8196 211.07 71.7932 211.07 71.7405C211.07 71.6878 211.07 71.6043 211.097 71.5121C211.129 71.2169 211.178 70.9236 211.242 70.6336C211.457 69.557 211.837 68.52 212.368 67.559C213.688 65.1124 216.768 62.4199 220.852 61.1109C221.855 60.7683 222.858 60.5004 223.83 60.272C224.803 60.0436 225.749 59.8327 226.66 59.7185C228.274 59.4681 229.914 59.4253 231.539 59.5912C232.635 59.6993 233.712 59.9442 234.747 60.3203L235.226 60.5048L235.57 60.6629L235.781 60.7639C235.794 60.7683 235.834 60.7815 235.834 60.7859Z" fill="#263238"/>
<path d="M220.836 61.2448C220.918 61.2361 221 61.2361 221.082 61.2448C221.321 61.2571 221.559 61.2821 221.795 61.3195C222.664 61.4607 223.51 61.7147 224.312 62.075C226.943 63.3223 229.235 65.1828 230.996 67.4996C231.958 68.7684 232.809 70.1174 233.539 71.5318C234.157 72.6705 234.71 73.8438 235.193 75.0457C235.525 75.8561 235.795 76.69 236.003 77.5406C236.069 77.8437 236.117 78.0809 236.139 78.2434C236.157 78.3243 236.167 78.4066 236.17 78.4894C236.141 78.411 236.118 78.3302 236.104 78.2478C236.073 78.0896 236.012 77.8568 235.932 77.5582C235.701 76.7193 235.416 75.8963 235.079 75.094C234.582 73.8928 234.019 72.7197 233.394 71.5801C232.658 70.1793 231.809 68.841 230.855 67.5787C229.109 65.2819 226.849 63.4255 224.255 62.1584C223.466 61.7929 222.635 61.523 221.782 61.3546C221.478 61.3019 221.241 61.2668 221.078 61.2492C220.997 61.254 220.916 61.2525 220.836 61.2448Z" fill="#263238"/>
<path d="M157.954 120.198L163.485 116.732L172.747 118.463L179.695 124.564L191.135 128.768L190.602 138.593C190.602 138.593 172.611 128.579 171.194 127.661C169.777 126.743 167.08 123.923 167.08 123.923L163.476 122.992H159.23C158.863 122.438 158.432 121.929 157.945 121.476C157.448 121.098 157.954 120.198 157.954 120.198Z" fill="#AB6E65"/>
<path d="M170.021 122.417C169.796 122.327 169.581 122.215 169.379 122.083C168.978 121.854 168.406 121.52 167.72 121.108H167.759L164.156 120.717L163.848 120.682H163.878C162.233 120.927 160.759 121.121 159.694 121.279L158.431 121.437C158.277 121.463 158.121 121.472 157.965 121.463C158.107 121.41 158.255 121.371 158.405 121.349L159.654 121.125C160.715 120.941 162.189 120.686 163.83 120.453H163.861L164.169 120.488L167.764 120.928H167.786C168.463 121.367 169.018 121.714 169.405 121.969C169.625 122.097 169.831 122.247 170.021 122.417Z" fill="#7C4B43"/>
<path d="M170.415 120.199C170.155 120.109 169.903 119.996 169.663 119.86C169.192 119.628 168.523 119.285 167.723 118.863H167.758L164.189 118.464L163.248 118.349H163.296C161.796 118.894 160.467 119.369 159.512 119.702L158.381 120.08C158.24 120.135 158.092 120.172 157.941 120.19C158.064 120.111 158.195 120.048 158.333 120.001L159.437 119.562C160.379 119.197 161.699 118.683 163.199 118.139H163.23L164.172 118.248L167.736 118.688C168.532 119.127 169.188 119.492 169.641 119.751C169.914 119.874 170.173 120.024 170.415 120.199Z" fill="#7C4B43"/>
<path d="M136.341 89.5265L148.362 120.849C148.408 120.967 148.477 121.075 148.567 121.166C148.656 121.257 148.763 121.328 148.881 121.376L180.166 133.868C180.308 133.924 180.462 133.945 180.614 133.927C180.766 133.91 180.911 133.856 181.037 133.769C181.163 133.682 181.265 133.565 181.335 133.429C181.405 133.293 181.44 133.142 181.437 132.989C181.435 132.808 181.381 132.631 181.28 132.481C181.179 132.33 181.036 132.212 180.869 132.142L150.435 119.382L138.436 88.6788C138.39 88.5631 138.321 88.4581 138.233 88.3699C138.145 88.2817 138.04 88.2123 137.924 88.1659C137.808 88.1195 137.685 88.097 137.56 88.0998C137.435 88.1027 137.313 88.1308 137.199 88.1824L136.83 88.345C136.611 88.4408 136.438 88.6173 136.347 88.8376C136.256 89.0578 136.254 89.3047 136.341 89.5265Z" fill="#E0E0E0"/>
<path d="M104.648 158.517C104.648 158.517 141.358 128.57 143.219 126.923C145.08 125.276 148.173 123.409 152.926 123.005C157.678 122.601 209.312 148.151 209.312 148.151L219.85 170.816C219.85 170.816 213.061 179.601 200.639 176.794C188.504 174.049 180.87 168.448 175.027 163.178C169.707 158.394 153.388 145.608 153.388 145.608L116.366 171.826L104.648 158.517Z" fill="#263238"/>
<path d="M153.383 138.594C153.495 139.761 153.533 140.935 153.497 142.108C153.536 143.28 153.499 144.454 153.387 145.622C153.269 144.454 153.229 143.28 153.268 142.108C153.232 140.935 153.27 139.761 153.383 138.594Z" fill="#455A64"/>
<path d="M204.594 132.756C204.741 128.923 205.415 125.128 206.596 121.477C208.528 115.696 218.789 102.458 218.789 102.458L219.273 100.033C219.273 100.033 230.603 92.3069 233.177 91.02C235.751 89.733 237.55 89.7637 237.55 89.7637L237.889 92.2718C237.889 92.2718 244.049 98.3904 244.441 104.852C244.753 110.013 244.41 125.465 244.41 125.465L242.874 179.817C242.874 179.817 207.309 179.909 203.996 179.654C200.683 179.399 200.942 178.24 200.942 178.24L205.034 144.814L204.594 132.756Z" fill="#BA68C8"/>
<path d="M234.157 96.2643C231.357 98.2969 228.76 100.593 226.4 103.121C222.11 107.614 210.318 126.971 210.318 126.971L190.434 125.86C190.092 125.816 189.747 125.903 189.467 126.103C189.188 126.304 188.995 126.604 188.929 126.941C188.326 129.967 187.024 137.715 188.903 140.781C191.265 144.638 194.051 143.996 194.051 143.996C194.051 143.996 213.996 146.004 216.786 144.036C219.575 142.068 235.767 122.122 238.553 115.275C241.338 108.427 244.664 96.0578 234.157 96.2643Z" fill="#BA68C8"/>
<path d="M238.554 115.274C238.554 115.274 238.518 115.366 238.439 115.547C238.36 115.727 238.232 115.986 238.074 116.346C237.916 116.706 237.678 117.119 237.41 117.615L236.97 118.415L236.424 119.293C234.884 121.806 232.464 125.333 229.243 129.563C227.633 131.68 225.833 133.955 223.844 136.397C222.845 137.61 221.803 138.857 220.703 140.118C220.148 140.746 219.589 141.387 218.995 142.019C218.705 142.336 218.41 142.656 218.093 142.964C217.789 143.287 217.464 143.591 217.121 143.873L216.866 144.093C216.769 144.154 216.659 144.211 216.558 144.268C216.349 144.361 216.132 144.438 215.911 144.497C215.469 144.615 215.019 144.7 214.565 144.752C213.658 144.87 212.734 144.927 211.801 144.958C209.936 145.024 208.026 144.989 206.081 144.918C202.196 144.778 198.161 144.479 194.043 144.093H194.078C193.123 144.21 192.158 143.992 191.346 143.478C190.513 142.965 189.797 142.284 189.242 141.479C188.801 140.884 188.466 140.217 188.252 139.507C188.061 138.802 187.939 138.079 187.887 137.35C187.785 135.924 187.8 134.492 187.931 133.068C188.046 131.662 188.226 130.274 188.455 128.917C188.569 128.236 188.692 127.564 188.824 126.892C188.901 126.531 189.111 126.211 189.413 125.997C189.714 125.783 190.085 125.69 190.452 125.737L210.314 126.892L210.226 126.94C214.578 119.697 218.331 113.812 221.094 109.81C222.485 107.807 223.602 106.261 224.429 105.26C224.825 104.746 225.169 104.381 225.389 104.131C225.609 103.88 225.736 103.762 225.736 103.762C225.736 103.762 225.631 103.898 225.411 104.153C225.191 104.407 224.861 104.776 224.473 105.295C223.659 106.305 222.559 107.864 221.187 109.872C218.45 113.899 214.723 119.803 210.389 127.046L210.363 127.098H210.314L190.43 126C190.12 125.961 189.805 126.039 189.55 126.221C189.294 126.403 189.117 126.674 189.053 126.98C188.921 127.648 188.798 128.32 188.684 128.996C188.459 130.353 188.279 131.732 188.164 133.134C188.037 134.545 188.024 135.964 188.125 137.377C188.175 138.089 188.295 138.795 188.481 139.485C188.686 140.171 189.009 140.816 189.436 141.391C189.972 142.169 190.664 142.828 191.469 143.324C192.231 143.809 193.137 144.017 194.034 143.913H194.074C198.197 144.308 202.223 144.598 206.099 144.743C208.039 144.813 209.94 144.848 211.819 144.791C212.747 144.756 213.667 144.708 214.565 144.589C215.01 144.538 215.451 144.454 215.885 144.339C216.311 144.255 216.706 144.054 217.024 143.759C217.361 143.486 217.68 143.193 217.979 142.88C218.291 142.577 218.591 142.261 218.859 141.945C219.449 141.317 220.007 140.68 220.562 140.052C221.665 138.79 222.715 137.554 223.712 136.344C225.705 133.924 227.514 131.64 229.124 129.532C232.354 125.315 234.8 121.806 236.358 119.311L236.912 118.432L237.352 117.637C237.63 117.145 237.88 116.737 238.034 116.381L238.417 115.59C238.505 115.362 238.554 115.274 238.554 115.274Z" fill="#263238"/>
<path d="M214.275 135.326C214.103 134.903 213.956 134.47 213.835 134.03C213.17 131.948 212.235 129.962 211.054 128.122C210.792 127.75 210.55 127.364 210.328 126.967C210.661 127.288 210.956 127.646 211.208 128.034C211.839 128.938 212.392 129.893 212.863 130.889C213.332 131.88 213.716 132.908 214.011 133.964C214.15 134.406 214.238 134.863 214.275 135.326Z" fill="#263238"/>
<path d="M211.064 135.4C211.008 134.985 210.984 134.567 210.993 134.148C210.993 133.375 210.927 132.308 210.831 131.135C210.734 129.962 210.602 128.904 210.496 128.14C210.418 127.729 210.371 127.314 210.355 126.896C210.5 127.29 210.6 127.698 210.655 128.113C210.84 129.107 210.973 130.11 211.055 131.118C211.142 132.124 211.176 133.134 211.156 134.144C211.167 134.565 211.136 134.985 211.064 135.4Z" fill="#263238"/>
<path d="M195.049 144.268C194.965 144.044 194.902 143.814 194.86 143.578C194.746 143.139 194.609 142.485 194.464 141.677C194.084 139.57 193.848 137.441 193.756 135.303C193.668 133.166 193.722 131.025 193.918 128.895C193.998 128.078 194.077 127.419 194.152 126.966C194.175 126.729 194.22 126.494 194.284 126.264C194.288 126.502 194.273 126.74 194.24 126.975C194.196 127.414 194.138 128.091 194.081 128.908C193.772 133.161 193.953 137.435 194.622 141.646C194.75 142.454 194.86 143.104 194.944 143.557C194.998 143.79 195.033 144.028 195.049 144.268Z" fill="#263238"/>
<path d="M237.904 92.2715C237.837 92.3194 237.765 92.3578 237.688 92.3857L237.059 92.6712C236.513 92.9172 235.739 93.2905 234.788 93.7913C232.343 95.1381 229.991 96.6481 227.748 98.311C225.108 100.213 222.776 101.983 221.008 103.187L220.937 103.235L220.893 103.165C220.317 102.225 219.987 101.408 219.705 100.872C219.569 100.599 219.459 100.389 219.38 100.252C219.333 100.185 219.296 100.111 219.27 100.033C219.326 100.091 219.377 100.156 219.419 100.226C219.512 100.358 219.635 100.564 219.784 100.828C220.092 101.355 220.449 102.146 221.03 103.072H220.915C222.675 101.843 224.985 100.05 227.612 98.1441C229.857 96.4782 232.226 94.9834 234.696 93.6727C235.655 93.1851 236.456 92.8337 237.006 92.6097L237.653 92.3637C237.731 92.3204 237.816 92.2893 237.904 92.2715Z" fill="#263238"/>
<g opacity="0.3">
<path d="M219.555 141.338L219.52 141.382C218.662 142.408 217.592 143.236 216.383 143.81C215.173 144.384 213.854 144.69 212.515 144.707L205.035 144.812C207.235 145.787 209.576 147.008 211.956 147.421C214.337 147.834 216.92 147.641 218.996 146.38C220.809 145.269 222.076 143.455 223.251 141.698C227.277 135.764 231.321 129.795 234.273 123.25C229.262 129.241 224.558 135.36 219.555 141.338Z" fill="black"/>
</g>
<g opacity="0.3">
<path d="M219.441 100.278L220.867 104.824L233.359 94.4844L220.981 103.12L219.441 100.278Z" fill="black"/>
</g>
<path d="M240.137 111.884C240.137 111.884 240.208 111.599 240.335 111.089C240.515 110.369 240.63 109.634 240.678 108.893C240.751 107.796 240.65 106.695 240.379 105.63C240.04 104.333 239.408 103.131 238.531 102.116C237.66 101.09 236.532 100.314 235.262 99.8669C234.22 99.5197 233.112 99.4175 232.024 99.5682C231.289 99.6726 230.577 99.8982 229.916 100.236C229.45 100.477 229.216 100.675 229.203 100.64C229.251 100.586 229.306 100.539 229.366 100.499C229.527 100.374 229.696 100.26 229.872 100.157C230.529 99.7803 231.249 99.5272 231.997 99.4101C233.114 99.2314 234.257 99.3203 235.332 99.6692C236.645 100.116 237.811 100.91 238.707 101.966C239.607 103.013 240.249 104.256 240.582 105.595C240.848 106.683 240.935 107.807 240.841 108.924C240.768 109.669 240.62 110.404 240.401 111.12C240.322 111.375 240.256 111.568 240.203 111.7C240.189 111.764 240.167 111.826 240.137 111.884Z" fill="#263238"/>
<path d="M207.554 144.826C207.565 144.945 207.565 145.064 207.554 145.182C207.554 145.437 207.51 145.775 207.479 146.201C207.413 147.079 207.299 148.358 207.149 149.935C206.85 153.084 206.379 157.432 205.829 162.233C205.279 167.034 204.804 171.352 204.448 174.532C204.276 176.087 204.14 177.352 204.043 178.257C203.995 178.696 203.955 179.017 203.924 179.267C203.915 179.385 203.897 179.503 203.871 179.618C203.861 179.5 203.861 179.381 203.871 179.263C203.871 179.012 203.915 178.674 203.946 178.248C204.012 177.369 204.127 176.091 204.276 174.514C204.575 171.365 205.046 167.017 205.596 162.216C206.146 157.415 206.621 153.093 206.978 149.917C207.149 148.362 207.286 147.093 207.383 146.192C207.431 145.753 207.471 145.432 207.497 145.178C207.506 145.059 207.525 144.942 207.554 144.826Z" fill="#263238"/>
<path d="M220.875 102.879C220.825 102.957 220.768 103.031 220.704 103.099L220.189 103.705C219.749 104.232 219.115 105.022 218.372 105.989C216.449 108.562 214.685 111.251 213.092 114.04C211.461 116.806 210.049 119.695 208.868 122.68C208.51 123.583 208.236 124.516 208.049 125.469C207.992 125.819 207.959 126.173 207.952 126.528C207.931 126.438 207.919 126.347 207.917 126.255C207.907 125.988 207.922 125.72 207.961 125.456C208.115 124.488 208.367 123.539 208.714 122.623C209.854 119.61 211.251 116.7 212.889 113.926C214.486 111.13 216.272 108.445 218.235 105.892C219.001 104.917 219.652 104.157 220.118 103.648C220.347 103.388 220.558 103.208 220.664 103.068C220.725 102.995 220.796 102.931 220.875 102.879Z" fill="#263238"/>
<g opacity="0.3">
<path d="M244.432 125.829C244.458 124.92 244.291 123.259 243.406 123.062C242.047 122.754 238.756 127.335 238.074 128.548C234.193 135.439 233.124 140.772 232.723 147.62C232.323 154.467 231.289 161.161 228.878 167.583C226.466 174.005 220.773 179.161 213.957 179.737L242.874 179.816C243.314 162.712 243.974 142.933 244.432 125.829Z" fill="black"/>
</g>
<path d="M3.67773 179.851C3.67773 179.789 66.8269 179.736 144.703 179.736C222.579 179.736 285.741 179.789 285.741 179.851C285.741 179.912 222.605 179.965 144.703 179.965C66.8005 179.965 3.67773 179.912 3.67773 179.851Z" fill="#263238"/>
<path d="M273.592 121.225C273.592 121.225 254.76 120.856 249.739 121.225C244.459 121.611 241.467 124.348 241.326 128.692C241.26 130.651 238.977 173.982 239.694 176.345C240.979 180.596 245.823 179.859 248.96 179.859H279.321C281.719 178.242 282.365 174.864 282.207 169.066C282.049 163.269 283.03 133.488 283.149 129.271C283.426 120.324 273.592 121.225 273.592 121.225Z" fill="#455A64"/>
<path d="M247.151 177.71H247.472H248.414L252.035 177.684L265.362 177.578C268.178 177.552 271.263 177.521 274.572 177.447C275.394 177.416 276.244 177.416 277.084 177.319C277.504 177.274 277.914 177.167 278.303 177.003C278.694 176.845 279.033 176.582 279.284 176.243C279.531 175.889 279.682 175.478 279.724 175.048C279.764 174.609 279.724 174.17 279.759 173.709C279.786 172.804 279.815 171.886 279.847 170.955C279.971 167.239 280.098 163.338 280.169 159.289C280.199 157.268 280.243 155.204 280.169 153.139C280.169 152.88 280.169 152.617 280.12 152.362L280.081 151.975L279.992 151.606C279.843 151.115 279.585 150.665 279.236 150.289C278.5 149.537 277.569 149.007 276.547 148.756H254.503C253.544 148.756 252.594 148.756 251.652 148.712C249.782 148.641 247.938 148.483 246.209 148.839C245.359 148.978 244.573 149.38 243.965 149.99C243.423 150.622 243.099 151.413 243.041 152.243C242.786 155.559 242.649 158.665 242.535 161.494C242.421 164.322 242.381 166.887 242.416 169.136C242.447 170.261 242.469 171.311 242.588 172.264C242.609 172.497 242.644 172.729 242.694 172.958C242.72 173.068 242.737 173.182 242.759 173.287L242.865 173.603C243 173.995 243.18 174.37 243.402 174.719C243.778 175.309 244.244 175.836 244.784 176.283C245.175 176.611 245.595 176.905 246.038 177.161C246.309 177.322 246.588 177.468 246.874 177.6L247.168 177.737C247.065 177.705 246.964 177.667 246.865 177.622C246.573 177.491 246.288 177.344 246.011 177.183C245.564 176.926 245.138 176.632 244.74 176.305C244.19 175.858 243.714 175.329 243.327 174.737C243.098 174.382 242.912 174.002 242.773 173.603C242.738 173.498 242.702 173.393 242.663 173.283C242.623 173.173 242.619 173.059 242.592 172.949C242.542 172.717 242.504 172.482 242.478 172.246C242.355 171.284 242.324 170.234 242.289 169.11C242.24 166.857 242.289 164.278 242.377 161.458C242.465 158.639 242.601 155.524 242.852 152.195C242.911 151.322 243.25 150.492 243.82 149.827C244.458 149.188 245.279 148.763 246.17 148.611C247.93 148.246 249.795 148.404 251.661 148.47C252.598 148.518 253.548 148.51 254.508 148.51H276.6C277.666 148.772 278.637 149.327 279.403 150.113C279.777 150.515 280.052 150.997 280.208 151.523L280.305 151.918L280.344 152.318C280.38 152.581 280.384 152.845 280.393 153.108C280.468 155.204 280.424 157.264 280.393 159.289C280.318 163.338 280.186 167.243 280.059 170.959C280.026 171.887 279.994 172.804 279.962 173.709C279.962 174.148 279.962 174.587 279.927 175.066C279.894 175.526 279.742 175.969 279.487 176.353C279.216 176.722 278.847 177.009 278.422 177.179C278.015 177.35 277.585 177.461 277.146 177.508C276.266 177.609 275.443 177.6 274.616 177.631C271.302 177.701 268.218 177.719 265.406 177.737L252.074 177.767H248.453H247.512C247.274 177.719 247.151 177.71 247.151 177.71Z" fill="#263238"/>
<path d="M280.043 178.453C280.043 178.453 280.078 178.33 280.153 178.101C280.269 177.76 280.36 177.41 280.426 177.056C280.654 175.688 280.801 174.308 280.866 172.923C280.976 171.122 281.038 168.912 281.042 166.334C281.042 165.693 281.042 165.016 281.042 164.344C281.042 163.672 281.016 162.952 281.042 162.223C281.042 160.769 281.086 159.227 281.112 157.611C281.209 151.149 281.328 143.454 281.46 134.906C281.46 133.841 281.476 132.76 281.508 131.665C281.531 130.567 281.383 129.472 281.068 128.419C280.741 127.353 280.133 126.394 279.308 125.643C278.896 125.259 278.436 124.928 277.94 124.659C277.425 124.414 276.879 124.242 276.316 124.145C275.167 123.927 274.004 123.789 272.836 123.732C271.657 123.657 270.469 123.631 269.263 123.631L261.95 123.495C259.478 123.46 257.04 123.433 254.633 123.433C253.432 123.433 252.235 123.433 251.056 123.469C250.462 123.469 249.872 123.495 249.296 123.539C249.001 123.539 248.72 123.587 248.416 123.622C248.134 123.679 247.855 123.751 247.58 123.838C246.484 124.165 245.493 124.77 244.702 125.595C243.932 126.404 243.425 127.427 243.246 128.529C243.017 130.725 242.942 132.921 242.806 135.069C242.608 139.338 242.423 143.393 242.251 147.192C242.08 150.991 241.886 154.523 241.728 157.734C241.569 160.945 241.42 163.883 241.288 166.444C241.222 167.726 241.165 168.921 241.107 170.019C241.05 171.117 240.967 172.123 241.011 173.019C241.075 174.405 241.331 175.775 241.772 177.091C241.917 177.53 242.053 177.877 242.146 178.101C242.238 178.325 242.291 178.444 242.291 178.444C242.23 178.336 242.174 178.224 242.124 178.11C242.023 177.89 241.882 177.552 241.728 177.104C241.268 175.789 240.997 174.415 240.923 173.024C240.87 172.114 240.958 171.113 240.997 170.015C241.037 168.917 241.103 167.722 241.16 166.439C241.279 163.874 241.411 160.953 241.561 157.725C241.855 151.268 242.203 143.577 242.59 135.038C242.705 132.903 242.779 130.72 243.03 128.48C243.214 127.334 243.74 126.27 244.54 125.428C245.358 124.579 246.383 123.958 247.514 123.622C247.802 123.531 248.096 123.457 248.394 123.403C248.693 123.363 248.992 123.324 249.274 123.315C249.864 123.271 250.453 123.262 251.034 123.24C252.222 123.24 253.414 123.205 254.62 123.205C257.027 123.205 259.46 123.231 261.942 123.267L269.254 123.403C270.456 123.403 271.657 123.433 272.84 123.508C274.022 123.565 275.198 123.704 276.36 123.925C276.943 124.024 277.509 124.204 278.041 124.461C278.554 124.741 279.03 125.084 279.458 125.48C280.312 126.258 280.943 127.25 281.284 128.353C281.602 129.427 281.75 130.545 281.724 131.665C281.706 132.76 281.689 133.842 281.671 134.911C281.522 143.454 281.385 151.163 281.271 157.611C281.244 159.227 281.214 160.764 281.187 162.223C281.187 162.952 281.187 163.655 281.187 164.344V166.334C281.187 168.904 281.095 171.117 280.972 172.923C280.893 174.309 280.728 175.69 280.479 177.056C280.409 177.41 280.311 177.758 280.184 178.097C280.092 178.338 280.043 178.453 280.043 178.453Z" fill="#263238"/>
<path d="M245.923 152.722C245.97 152.717 246.017 152.717 246.064 152.722H246.504H248.207L254.613 152.695L276.899 152.643H276.992V152.735C277.52 156.688 278.092 160.94 278.686 165.376V165.504H277.317L245.021 165.468H244.938V165.385C245.228 161.463 245.461 158.296 245.624 156.104C245.703 155.028 245.769 154.189 245.813 153.609C245.813 153.332 245.857 153.117 245.866 152.963C245.875 152.809 245.892 152.752 245.892 152.752C245.892 152.752 245.892 152.831 245.892 152.981C245.892 153.13 245.892 153.359 245.857 153.64C245.822 154.224 245.769 155.067 245.703 156.156C245.562 158.353 245.356 161.489 245.105 165.381L245.026 165.297L277.322 165.262H278.558L278.444 165.389C277.854 160.957 277.286 156.684 276.763 152.752L276.873 152.845L254.657 152.796L248.224 152.766H246.504H246.064L245.923 152.722Z" fill="#263238"/>
<path d="M255.537 156.09H251.273V175.605H255.537V156.09Z" fill="#263238"/>
<path d="M273.477 156.09H269.297V176.26H273.477V156.09Z" fill="#263238"/>
<path d="M256.216 122.059C255.833 120.706 256.418 118.545 257.421 117.609C258.044 117.102 258.818 116.817 259.621 116.797C261.967 116.546 264.351 116.401 266.71 116.357C267.545 116.295 268.383 116.446 269.143 116.797C269.596 117.06 269.987 117.417 270.291 117.843C270.594 118.27 270.803 118.756 270.903 119.269C271.059 120.129 271.091 121.006 271 121.874L269.24 121.764C269.316 121.062 269.297 120.353 269.183 119.656C269.135 119.388 269.033 119.132 268.881 118.905C268.73 118.678 268.533 118.485 268.303 118.338C267.803 118.139 267.262 118.066 266.728 118.123C264.426 118.154 262.099 118.294 259.806 118.54C259.378 118.539 258.958 118.659 258.596 118.887C258.303 119.265 258.089 119.697 257.967 120.159C257.846 120.621 257.819 121.103 257.888 121.575L256.216 122.059Z" fill="#455A64"/>
<path d="M272.935 133.527H251.652V139.712H272.935V133.527Z" fill="white"/>
<path d="M170.716 166.26C170.584 166.44 170.245 175.484 169.396 176.072C168.547 176.661 163.733 178.589 163.676 179.433V179.683L181.557 179.766V177.878L170.329 178.317C170.329 178.317 171.776 177.684 171.776 176.67C171.776 175.655 171.596 168.64 171.657 168.403C171.719 168.166 170.716 166.26 170.716 166.26Z" fill="#263238"/>
<path d="M176.459 158.688C176.459 158.688 172.887 160.3 171.65 163.08C170.414 165.861 170.493 168.377 170.55 170.688C170.607 172.998 172.587 180.224 180.107 179.749H180.895V156.426H177.08V158.385L176.459 158.688Z" fill="#455A64"/>
<path d="M184.2 158.688C184.2 158.688 187.778 160.3 189.01 163.08C190.242 165.861 190.167 168.377 190.114 170.688C190.061 172.998 188.072 180.224 180.553 179.749H179.77V156.426H183.584V158.385L184.2 158.688Z" fill="#455A64"/>
<path d="M177.852 151.928H182.596C182.792 151.928 182.98 152.005 183.118 152.144C183.257 152.282 183.335 152.47 183.335 152.666V155.775H177.113V152.666C177.113 152.47 177.191 152.282 177.33 152.144C177.468 152.005 177.656 151.928 177.852 151.928Z" fill="#E0E0E0"/>
<path d="M183.798 155.498H176.815C176.591 155.498 176.41 155.679 176.41 155.902V156.245C176.41 156.468 176.591 156.649 176.815 156.649H183.798C184.021 156.649 184.203 156.468 184.203 156.245V155.902C184.203 155.679 184.021 155.498 183.798 155.498Z" fill="#E0E0E0"/>
<path d="M183.769 155.499C181.523 155.651 179.269 155.651 177.023 155.499C179.269 155.347 181.523 155.347 183.769 155.499Z" fill="#455A64"/>
<path d="M88.1333 158.873L71.1624 149.219L41.3655 160.055L17.3281 179.768H105.311L88.1333 158.873Z" fill="#F5F5F5"/>
<path d="M17.3281 179.768L47.8291 162.067L88.1333 158.873L70.4848 148.441L41.3655 160.055L17.3281 179.768Z" fill="#E0E0E0"/>
<path d="M61.4648 179.817L76.4161 169.719L90.3246 168.73L78.6909 171.309L72.8829 179.769L61.4648 179.817Z" fill="#E0E0E0"/>
<path d="M90.7988 168.518C90.4372 168.598 90.0691 168.647 89.6988 168.663L86.6584 168.935L76.4284 169.726L76.5163 169.695L74.8443 170.841C71.0955 173.406 67.6899 175.708 65.2127 177.364L62.2735 179.305L61.4639 179.815C61.2747 179.929 61.1735 179.986 61.1647 179.973C61.1559 179.96 61.2439 179.89 61.4199 179.753L62.1899 179.187L65.0675 177.149C67.5051 175.44 70.8843 173.103 74.6331 170.538L76.3095 169.392L76.3536 169.365H76.402L86.6452 168.698L89.69 168.535C90.0586 168.501 90.4293 168.495 90.7988 168.518Z" fill="#263238"/>
<path d="M88.0814 158.807C88.0814 158.807 88.1914 158.926 88.3938 159.163L89.3002 160.234L92.785 164.381L105.66 179.754L105.77 179.882H105.594H33.7191H17.3202H17.0078L17.2498 179.68L41.2343 160.068L70.2745 148.393H70.3053H70.3361L83.3954 156.066L86.8494 158.109L87.7294 158.636C87.9274 158.754 88.0242 158.82 88.0242 158.82L87.7162 158.649L86.8362 158.135L83.3602 156.123L70.3185 148.502H70.3933L41.3531 160.234H41.3795C34.0711 166.217 25.9795 172.836 17.4126 179.868L17.3378 179.666H33.7367L105.611 179.754L105.549 179.882L92.7322 164.447L89.2826 160.274L88.4026 159.185C88.1782 158.956 88.0814 158.807 88.0814 158.807Z" fill="#263238"/>
<path d="M131.463 42.3367C131.463 42.3675 130.974 42.1698 130.072 41.9722C128.796 41.6937 127.481 41.6431 126.187 41.8228C124.266 42.0738 122.453 42.854 120.951 44.0761C119.112 45.5729 117.814 47.6292 117.255 49.9312V49.9971L117.149 50.4143L116.987 50.019C116.091 47.8337 114.548 45.9734 112.565 44.6867C110.947 43.6357 109.087 43.0158 107.161 42.8858C105.864 42.7927 104.561 42.9129 103.302 43.2416C102.422 43.4744 101.938 43.6808 101.93 43.6544C102.035 43.588 102.147 43.5335 102.264 43.4919C102.592 43.3514 102.928 43.2325 103.272 43.1362C104.847 42.6718 106.504 42.5492 108.131 42.7764C109.758 43.0037 111.318 43.5756 112.705 44.4539C114.744 45.7607 116.331 47.6623 117.251 49.9004L116.982 49.9224V49.8565C117.554 47.4973 118.892 45.3935 120.788 43.8741C122.331 42.6343 124.193 41.8548 126.161 41.6252C127.477 41.459 128.812 41.5394 130.099 41.8624C130.446 41.9469 130.787 42.0555 131.119 42.1874C131.238 42.2271 131.353 42.277 131.463 42.3367Z" fill="#263238"/>
<path d="M163.54 11.7617C163.347 12.0149 163.138 12.2555 162.915 12.4821C162.348 13.1309 161.835 13.8259 161.384 14.5597C159.882 16.9811 159.093 19.776 159.109 22.6241C159.109 22.6592 159.109 22.6944 159.109 22.7251L158.832 22.7515C158.397 19.9565 157.095 17.3681 155.109 15.3503C154.277 14.5334 153.368 13.798 152.395 13.1541C152.474 13.1765 152.55 13.2106 152.619 13.2551C152.755 13.3342 152.971 13.4352 153.226 13.6065C153.956 14.0689 154.635 14.6078 155.25 15.2141C157.316 17.23 158.67 19.8613 159.109 22.712L158.827 22.7383V22.6329C158.803 19.729 159.634 16.882 161.217 14.4455C161.688 13.7118 162.23 13.0262 162.836 12.3986C163.043 12.1746 163.227 12.0209 163.346 11.9111C163.404 11.8535 163.469 11.8034 163.54 11.7617Z" fill="#263238"/>
<path d="M79.609 26.8714C79.609 26.8978 79.3362 26.7968 78.8389 26.6957C78.1394 26.5535 77.4207 26.5312 76.7137 26.6298C75.669 26.7773 74.6846 27.2072 73.8669 27.8729C72.8664 28.6887 72.1603 29.8085 71.8561 31.0618V31.0969L71.7505 31.5361L71.5877 31.1364C71.0992 29.9461 70.2598 28.9321 69.1809 28.2287C68.3012 27.6546 67.2898 27.313 66.2417 27.236C65.5316 27.1825 64.8175 27.2403 64.1253 27.4073C63.6369 27.5303 63.3729 27.6357 63.3641 27.6137C63.3553 27.5918 63.4213 27.5698 63.5445 27.5127C63.7248 27.4314 63.91 27.361 64.0989 27.3019C64.7949 27.0882 65.5233 26.999 66.2505 27.0383C67.3447 27.0902 68.4064 27.4263 69.3305 28.0134C70.4637 28.7356 71.3457 29.7895 71.8561 31.031H71.5877V30.9959C71.9039 29.6825 72.6484 28.5114 73.7041 27.6665C74.5635 26.9813 75.599 26.552 76.6917 26.4278C77.4209 26.3405 78.1601 26.3927 78.8697 26.5815C79.0614 26.6322 79.2495 26.6953 79.4329 26.7704C79.5517 26.8319 79.6354 26.8626 79.609 26.8714Z" fill="#263238"/>
</svg>
