<svg width="94" height="134" viewBox="0 0 94 134" fill="none" xmlns="http://www.w3.org/2000/svg">
<path d="M47.161 0.62085C29.7449 0.62085 15.5859 14.8057 15.5859 32.2538C15.5859 49.3688 28.9472 63.2207 46.3633 63.8201C46.8951 63.7535 47.4269 63.7535 47.8257 63.8201C47.9587 63.8201 48.0251 63.8201 48.1581 63.8201C48.2246 63.8201 48.2246 63.8201 48.291 63.8201C65.3083 63.2207 78.6696 49.3688 78.736 32.2538C78.736 14.8057 64.5771 0.62085 47.161 0.62085Z" fill="#C0C0C0"/>
<path d="M80.9332 81.1019C62.387 68.7151 32.1417 68.7151 13.4625 81.1019C5.02035 86.7625 0.367188 94.421 0.367188 102.612C0.367188 110.803 5.02035 118.395 13.3961 123.989C22.7024 130.249 34.9333 133.379 47.1645 133.379C59.3956 133.379 71.6268 130.249 80.9332 123.989C89.3089 118.329 93.962 110.737 93.962 102.479C93.8955 94.2878 89.3089 86.6959 80.9332 81.1019Z" fill="#C0C0C0"/>
</svg>
