<svg width="550" height="457" viewBox="0 0 550 457" fill="none" xmlns="http://www.w3.org/2000/svg">
<path d="M80.5442 414.897C187.943 471.027 362.057 471.04 469.456 414.897C576.854 358.754 576.842 267.755 469.456 211.625C362.07 155.495 187.943 155.495 80.5442 211.625C-26.8545 267.755 -26.8417 358.779 80.5442 414.897Z" fill="#F0F0F0"/>
<path d="M466.573 304.984C466.573 304.984 467.919 298.213 478.839 292.981C489.465 287.851 495.592 289.044 502.885 286.107C510.178 283.171 504.936 269.372 484.941 275.502C466.624 281.119 464.766 296.982 464.766 296.982L466.573 304.984Z" fill="#BA68C8"/>
<path opacity="0.2" d="M466.573 304.984C466.573 304.984 467.919 298.213 478.839 292.981C489.465 287.851 495.592 289.044 502.885 286.107C510.178 283.171 504.936 269.372 484.941 275.502C466.624 281.119 464.766 296.982 464.766 296.982L466.573 304.984Z" fill="black"/>
<path d="M464.654 302.442C464.581 302.454 464.508 302.454 464.436 302.442C464.348 302.412 464.267 302.364 464.198 302.303C464.129 302.241 464.072 302.167 464.032 302.083C463.991 302 463.968 301.909 463.962 301.817C463.957 301.724 463.969 301.632 464 301.544C466.563 294.209 472.972 287.438 481.329 283.309C492.045 278.064 499.671 279.731 499.992 279.808C500.172 279.848 500.328 279.959 500.427 280.116C500.526 280.272 500.558 280.461 500.517 280.641C500.476 280.821 500.366 280.978 500.209 281.077C500.053 281.175 499.864 281.208 499.684 281.167C499.607 281.167 492.186 279.551 481.944 284.565C473.933 288.489 467.717 295.004 465.282 302.006C465.229 302.13 465.142 302.237 465.03 302.314C464.919 302.392 464.789 302.436 464.654 302.442Z" fill="#FAFAFA"/>
<path d="M464.997 296.545C464.997 296.545 466.278 292.698 471.213 285.17C479.724 272.115 493.605 266.409 499.681 258.945C506.218 250.892 494.913 245.916 484.748 248.686C478.929 250.302 473.623 255.611 470.841 259.189C464.949 266.97 461.572 276.366 461.164 286.119L464.997 296.545Z" fill="#BA68C8"/>
<path d="M463.086 296.853C462.901 296.847 462.726 296.768 462.599 296.633C462.472 296.499 462.403 296.32 462.406 296.135C463.001 287.664 465.409 279.42 469.469 271.962C477.159 258.151 488.567 253.239 489.054 253.034C489.216 252.996 489.387 253.017 489.535 253.093C489.684 253.168 489.8 253.294 489.865 253.448C489.929 253.601 489.938 253.773 489.888 253.932C489.838 254.091 489.733 254.227 489.592 254.317C481.564 258.338 474.964 264.731 470.687 272.629C466.731 279.888 464.384 287.914 463.803 296.161C463.802 296.254 463.782 296.345 463.745 296.43C463.708 296.515 463.655 296.592 463.588 296.656C463.521 296.72 463.443 296.771 463.356 296.805C463.27 296.839 463.178 296.855 463.086 296.853Z" fill="#FAFAFA"/>
<path d="M90.3767 308.086C81.1609 301.892 80.7507 285.221 82.0837 274.743C84.1986 258.072 75.6749 254.225 71.3298 261.586C69.2277 265.164 66.5872 272.935 66.882 281.989C67.3563 296.172 73.4959 313.138 88.3643 319.294L90.3767 308.086Z" fill="#BA68C8"/>
<path opacity="0.2" d="M90.3767 308.086C81.1609 301.892 80.7507 285.221 82.0837 274.743C84.1986 258.072 75.6749 254.225 71.3298 261.586C69.2277 265.164 66.5872 272.935 66.882 281.989C67.3563 296.172 73.4959 313.138 88.3643 319.294L90.3767 308.086Z" fill="black"/>
<path d="M88.4789 318.346C88.3281 318.346 88.1825 318.291 88.0687 318.193C72.4697 304.843 70.0215 281.003 74.3539 264.473C74.3749 264.389 74.4123 264.31 74.464 264.24C74.5156 264.17 74.5805 264.112 74.6549 264.067C74.7293 264.022 74.8117 263.993 74.8975 263.98C74.9833 263.967 75.0708 263.971 75.155 263.992C75.2391 264.013 75.3183 264.051 75.388 264.103C75.4577 264.154 75.5166 264.219 75.5612 264.294C75.6059 264.368 75.6354 264.45 75.6482 264.536C75.6609 264.622 75.6567 264.71 75.6356 264.794C71.4058 280.939 73.7515 304.227 88.9403 317.218C89.0044 317.272 89.0569 317.338 89.0949 317.413C89.1329 317.488 89.1556 317.57 89.1616 317.653C89.1675 317.737 89.1567 317.821 89.1297 317.9C89.1027 317.98 89.0601 318.053 89.0044 318.116C88.9422 318.194 88.8618 318.256 88.7702 318.296C88.6786 318.336 88.5786 318.354 88.4789 318.346Z" fill="#FAFAFA"/>
<path d="M104.232 338.864C96.2083 344.635 77.7638 349.623 71.7652 339.736C66.1895 330.541 69.9194 326.527 58.6015 328.117C47.2835 329.707 44.6816 320.91 47.3604 313.472C50.0393 306.035 38.888 295.275 47.0272 286.889C55.1664 278.502 59.8448 295.942 64.5617 297.827C69.2785 299.712 72.1625 295.647 77.5972 298.61C83.0318 301.572 83.5573 313.69 88.851 313.921C97.5157 314.319 112.102 314.255 113.204 321.988C114.307 329.72 104.232 338.864 104.232 338.864Z" fill="#BA68C8"/>
<path d="M107.553 335.478H107.489C65.5117 331.092 49.2718 294.442 48.272 289.107C48.2569 289.023 48.2584 288.936 48.2767 288.853C48.2949 288.769 48.3294 288.69 48.3782 288.62C48.427 288.549 48.4891 288.489 48.5611 288.443C48.633 288.397 48.7134 288.365 48.7975 288.35C48.8817 288.335 48.968 288.337 49.0516 288.355C49.1351 288.373 49.2143 288.408 49.2845 288.456C49.3547 288.505 49.4146 288.567 49.4608 288.639C49.5071 288.711 49.5386 288.792 49.5538 288.876C50.5279 294.121 66.4346 329.912 107.643 334.208C107.727 334.216 107.809 334.241 107.884 334.281C107.959 334.321 108.025 334.375 108.079 334.441C108.132 334.506 108.172 334.582 108.197 334.663C108.221 334.744 108.229 334.829 108.22 334.914C108.198 335.073 108.118 335.219 107.995 335.323C107.872 335.428 107.714 335.483 107.553 335.478Z" fill="#FAFAFA"/>
<path d="M61.65 319.063C59.0009 319.062 56.3562 318.848 53.7416 318.422C53.5753 318.391 53.4281 318.295 53.3321 318.156C53.236 318.016 53.1989 317.845 53.2289 317.678C53.2427 317.595 53.2731 317.516 53.3183 317.445C53.3635 317.373 53.4225 317.312 53.4919 317.264C53.5612 317.216 53.6395 317.183 53.7221 317.166C53.8046 317.149 53.8897 317.149 53.9723 317.166C58.7595 317.954 63.6434 317.954 68.4306 317.166C68.5987 317.131 68.7736 317.164 68.9175 317.258C69.0614 317.351 69.1627 317.498 69.1996 317.665C69.2165 317.748 69.2169 317.833 69.2009 317.916C69.1849 317.998 69.1528 318.077 69.1063 318.147C69.0599 318.217 69.0001 318.278 68.9303 318.325C68.8606 318.372 68.7822 318.405 68.6997 318.422C66.3781 318.877 64.0157 319.092 61.65 319.063Z" fill="#FAFAFA"/>
<path d="M74.1728 322.9H74.0318C73.8676 322.863 73.7245 322.763 73.6333 322.622C73.5422 322.48 73.5104 322.308 73.5448 322.143C74.8394 316.433 75.1472 310.543 74.4548 304.729C74.4276 304.558 74.4691 304.385 74.57 304.245C74.671 304.106 74.8232 304.012 74.9931 303.985C75.1631 303.958 75.3369 303.999 75.4764 304.1C75.6158 304.201 75.7094 304.353 75.7366 304.523C76.4794 310.516 76.167 316.592 74.8137 322.477C74.7669 322.607 74.6791 322.719 74.5636 322.795C74.4481 322.871 74.311 322.908 74.1728 322.9Z" fill="#FAFAFA"/>
<path d="M263.844 272.719L283.968 261.1C284.936 260.613 286.005 260.359 287.089 260.359C288.173 260.359 289.242 260.613 290.21 261.1L292.773 262.575C293.684 263.166 294.443 263.965 294.986 264.905C295.53 265.846 295.843 266.902 295.901 267.987V291.224C295.841 292.308 295.527 293.363 294.984 294.303C294.44 295.244 293.683 296.043 292.773 296.635L272.663 308.254C271.694 308.741 270.625 308.995 269.541 308.995C268.458 308.995 267.389 308.741 266.42 308.254L263.857 306.779C262.948 306.186 262.192 305.387 261.651 304.447C261.11 303.506 260.798 302.451 260.742 301.367V278.13C260.8 277.049 261.111 275.995 261.65 275.055C262.188 274.115 262.94 273.315 263.844 272.719Z" fill="#BA68C8"/>
<path opacity="0.5" d="M263.844 272.719L283.968 261.1C284.936 260.613 286.005 260.359 287.089 260.359C288.173 260.359 289.242 260.613 290.21 261.1L292.773 262.575C293.684 263.166 294.443 263.965 294.986 264.905C295.53 265.846 295.843 266.902 295.901 267.987V291.224C295.841 292.308 295.527 293.363 294.984 294.303C294.44 295.244 293.683 296.043 292.773 296.635L272.663 308.254C271.694 308.741 270.625 308.995 269.541 308.995C268.458 308.995 267.389 308.741 266.42 308.254L263.857 306.779C262.948 306.186 262.192 305.387 261.651 304.447C261.11 303.506 260.798 302.451 260.742 301.367V278.13C260.8 277.049 261.111 275.995 261.65 275.055C262.188 274.115 262.94 273.315 263.844 272.719Z" fill="#FAFAFA"/>
<path d="M295.874 267.987C295.874 265.987 294.476 265.179 292.746 266.179L272.635 277.797C271.726 278.39 270.969 279.189 270.425 280.129C269.882 281.07 269.568 282.125 269.508 283.209V306.446C269.508 308.434 270.905 309.242 272.635 308.254L292.746 296.636C293.656 296.043 294.413 295.244 294.956 294.304C295.5 293.364 295.814 292.309 295.874 291.224V267.987Z" fill="#BA68C8"/>
<path d="M260.727 301.366C260.779 302.454 261.088 303.514 261.63 304.46C262.171 305.405 262.929 306.208 263.841 306.803L266.405 308.278C267.284 308.72 268.247 308.97 269.231 309.012C270.214 309.054 271.195 308.887 272.109 308.522C270.635 309.086 269.545 308.252 269.545 306.47V283.207C269.579 282.118 269.897 281.057 270.468 280.13L261.675 275C261.116 275.932 260.803 276.991 260.765 278.078L260.727 301.366Z" fill="#BA68C8"/>
<path opacity="0.1" d="M260.727 301.366C260.779 302.454 261.088 303.514 261.63 304.46C262.171 305.405 262.929 306.208 263.841 306.803L266.405 308.278C267.284 308.72 268.247 308.97 269.231 309.012C270.214 309.054 271.195 308.887 272.109 308.522C270.635 309.086 269.545 308.252 269.545 306.47V283.207C269.579 282.118 269.897 281.057 270.468 280.13L261.675 275C261.116 275.932 260.803 276.991 260.765 278.078L260.727 301.366Z" fill="black"/>
<path d="M274.173 284.801L291.284 274.888C291.733 274.619 292.105 274.888 292.105 275.363V286.904C292.09 287.193 292.008 287.474 291.866 287.726C291.723 287.977 291.524 288.192 291.284 288.353L274.173 298.343C273.712 298.612 273.34 298.343 273.34 297.856V286.314C273.346 286.013 273.425 285.719 273.57 285.455C273.715 285.191 273.922 284.967 274.173 284.801Z" fill="#FAFAFA"/>
<path d="M273.34 285.286L283.555 288.607L292.105 274.398L283.837 289.8L273.34 285.286Z" fill="#E0E0E0"/>
<path d="M263.841 214.076L283.965 202.457C284.931 201.964 286.001 201.707 287.086 201.707C288.171 201.707 289.24 201.964 290.207 202.457L292.771 203.932C293.678 204.525 294.431 205.325 294.97 206.266C295.51 207.206 295.819 208.261 295.872 209.344V232.581C295.815 233.664 295.501 234.718 294.958 235.656C294.414 236.595 293.656 237.391 292.745 237.979L272.634 249.598C271.668 250.091 270.598 250.348 269.513 250.348C268.428 250.348 267.359 250.091 266.392 249.598L263.828 248.136C262.919 247.536 262.164 246.729 261.625 245.782C261.086 244.835 260.778 243.774 260.727 242.686V219.487C260.786 218.404 261.099 217.35 261.64 216.41C262.181 215.47 262.935 214.671 263.841 214.076Z" fill="#BA68C8"/>
<path opacity="0.5" d="M263.841 214.076L283.965 202.457C284.931 201.964 286.001 201.707 287.086 201.707C288.171 201.707 289.24 201.964 290.207 202.457L292.771 203.932C293.678 204.525 294.431 205.325 294.97 206.266C295.51 207.206 295.819 208.261 295.872 209.344V232.581C295.815 233.664 295.501 234.718 294.958 235.656C294.414 236.595 293.656 237.391 292.745 237.979L272.634 249.598C271.668 250.091 270.598 250.348 269.513 250.348C268.428 250.348 267.359 250.091 266.392 249.598L263.828 248.136C262.919 247.536 262.164 246.729 261.625 245.782C261.086 244.835 260.778 243.774 260.727 242.686V219.487C260.786 218.404 261.099 217.35 261.64 216.41C262.181 215.47 262.935 214.671 263.841 214.076Z" fill="#FAFAFA"/>
<path d="M295.874 209.343C295.874 207.342 294.476 206.534 292.746 207.535L272.635 219.153C271.724 219.744 270.966 220.543 270.422 221.483C269.879 222.424 269.565 223.48 269.508 224.565V247.814C269.508 249.802 270.905 250.61 272.635 249.61L292.746 237.991C293.657 237.403 294.415 236.607 294.959 235.668C295.503 234.73 295.816 233.676 295.874 232.592V209.343Z" fill="#BA68C8"/>
<path d="M260.727 242.687C260.786 243.77 261.099 244.824 261.64 245.764C262.181 246.704 262.935 247.504 263.841 248.099L266.405 249.56C267.282 250.007 268.245 250.262 269.229 250.306C270.213 250.35 271.195 250.183 272.109 249.817C270.635 250.368 269.545 249.548 269.545 247.765V224.567C269.579 223.478 269.897 222.417 270.468 221.489L261.675 216.359C261.116 217.292 260.803 218.351 260.765 219.437L260.727 242.687Z" fill="#BA68C8"/>
<path opacity="0.1" d="M260.727 242.687C260.786 243.77 261.099 244.824 261.64 245.764C262.181 246.704 262.935 247.504 263.841 248.099L266.405 249.56C267.282 250.007 268.245 250.262 269.229 250.306C270.213 250.35 271.195 250.183 272.109 249.817C270.635 250.368 269.545 249.548 269.545 247.765V224.567C269.579 223.478 269.897 222.417 270.468 221.489L261.675 216.359C261.116 217.292 260.803 218.351 260.765 219.437L260.727 242.687Z" fill="black"/>
<path d="M282.489 237.557L280.412 237.326C277.593 237.095 274.234 236.043 274.234 231.953C274.316 230.467 274.746 229.022 275.489 227.735C276.233 226.447 277.27 225.352 278.515 224.54C280.361 223.476 281.925 223.912 282.527 225.451C283.135 223.168 284.563 221.191 286.539 219.898C288.911 218.539 290.82 219.642 290.82 222.373C290.82 226.323 287.488 231.35 284.681 234.825L282.489 237.557Z" fill="#FAFAFA"/>
<path d="M263.844 155.482L283.968 143.864C284.934 143.37 286.004 143.113 287.089 143.113C288.174 143.113 289.243 143.37 290.21 143.864L292.773 145.338C293.684 145.927 294.442 146.723 294.986 147.661C295.53 148.6 295.843 149.654 295.901 150.737V173.974C295.844 175.059 295.531 176.115 294.988 177.056C294.444 177.997 293.685 178.795 292.773 179.386L272.663 191.004C271.696 191.497 270.626 191.754 269.541 191.754C268.456 191.754 267.387 191.497 266.42 191.004L263.857 189.542C262.95 188.947 262.196 188.148 261.655 187.208C261.114 186.268 260.801 185.214 260.742 184.131V160.855C260.806 159.78 261.119 158.734 261.658 157.802C262.196 156.869 262.945 156.075 263.844 155.482Z" fill="#BA68C8"/>
<path opacity="0.5" d="M263.844 155.482L283.968 143.864C284.934 143.37 286.004 143.113 287.089 143.113C288.174 143.113 289.243 143.37 290.21 143.864L292.773 145.338C293.684 145.927 294.442 146.723 294.986 147.661C295.53 148.6 295.843 149.654 295.901 150.737V173.974C295.844 175.059 295.531 176.115 294.988 177.056C294.444 177.997 293.685 178.795 292.773 179.386L272.663 191.004C271.696 191.497 270.626 191.754 269.541 191.754C268.456 191.754 267.387 191.497 266.42 191.004L263.857 189.542C262.95 188.947 262.196 188.148 261.655 187.208C261.114 186.268 260.801 185.214 260.742 184.131V160.855C260.806 159.78 261.119 158.734 261.658 157.802C262.196 156.869 262.945 156.075 263.844 155.482Z" fill="#FAFAFA"/>
<path d="M272.635 190.968C270.905 191.969 269.508 191.161 269.508 189.173V165.936C269.564 164.851 269.877 163.795 270.421 162.854C270.965 161.913 271.724 161.115 272.635 160.524L292.746 148.906C294.476 147.906 295.874 148.714 295.874 150.701V173.938C295.817 175.023 295.504 176.08 294.96 177.02C294.417 177.961 293.658 178.759 292.746 179.35" fill="#BA68C8"/>
<path d="M260.727 184.092C260.786 185.176 261.099 186.23 261.64 187.17C262.181 188.11 262.935 188.909 263.841 189.504L266.405 190.966C267.282 191.413 268.245 191.667 269.229 191.711C270.213 191.756 271.195 191.589 272.109 191.223C270.635 191.774 269.545 190.953 269.545 189.171V165.934C269.579 164.845 269.897 163.784 270.468 162.856L261.675 157.727C261.116 158.659 260.803 159.718 260.765 160.804L260.727 184.092Z" fill="#BA68C8"/>
<path opacity="0.1" d="M260.727 184.092C260.786 185.176 261.099 186.23 261.64 187.17C262.181 188.11 262.935 188.909 263.841 189.504L266.405 190.966C267.282 191.413 268.245 191.667 269.229 191.711C270.213 191.756 271.195 191.589 272.109 191.223C270.635 191.774 269.545 190.953 269.545 189.171V165.934C269.579 164.845 269.897 163.784 270.468 162.856L261.675 157.727C261.116 158.659 260.803 159.718 260.765 160.804L260.727 184.092Z" fill="black"/>
<path d="M279.02 169.59C279.02 169.59 281.365 164.178 281.583 163.396C281.7 162.057 281.7 160.709 281.583 159.37C281.583 158.857 283.724 157.407 284.416 158.895C285.082 160.477 285.208 162.235 284.775 163.896L289.991 160.857C291.094 160.216 291.542 161.114 291.555 161.832C291.519 162.651 291.223 163.437 290.709 164.076C290.709 164.076 291.76 163.768 291.76 165.166C291.729 165.657 291.599 166.138 291.379 166.578C291.159 167.019 290.853 167.411 290.478 167.731C290.478 167.731 290.812 167.987 290.825 169.013C290.67 170.019 290.15 170.932 289.363 171.578C289.537 171.982 289.615 172.421 289.594 172.86C289.53 173.474 289.323 174.065 288.992 174.585C288.661 175.106 288.213 175.543 287.684 175.861L279.135 180.875L279.02 169.59Z" fill="#FAFAFA"/>
<path d="M274.072 185.312L277.827 183.119L277.776 170.039L274.008 172.232L274.072 185.312Z" fill="#FAFAFA"/>
<path d="M252.834 86.8242L283.673 69.0118C285.155 68.2593 286.793 67.8672 288.454 67.8672C290.116 67.8672 291.754 68.2593 293.235 69.0118L297.08 71.256C298.476 72.1632 299.638 73.3876 300.472 74.8295C301.305 76.2714 301.785 77.8899 301.874 79.553V115.178C301.778 116.832 301.294 118.441 300.462 119.873C299.629 121.306 298.47 122.522 297.08 123.424L266.318 141.274C264.834 142.027 263.194 142.419 261.531 142.419C259.867 142.419 258.227 142.027 256.743 141.274L252.898 139.03C251.506 138.12 250.348 136.895 249.517 135.453C248.686 134.012 248.207 132.395 248.117 130.733V95.1084C248.2 93.4544 248.669 91.8428 249.489 90.4038C250.308 88.9648 251.454 87.7386 252.834 86.8242Z" fill="#BA68C8"/>
<path opacity="0.1" d="M252.834 86.8242L283.673 69.0118C285.155 68.2593 286.793 67.8672 288.454 67.8672C290.116 67.8672 291.754 68.2593 293.235 69.0118L297.08 71.256C298.476 72.1632 299.638 73.3876 300.472 74.8295C301.305 76.2714 301.785 77.8899 301.874 79.553V115.178C301.778 116.832 301.294 118.441 300.462 119.873C299.629 121.306 298.47 122.522 297.08 123.424L266.318 141.274C264.834 142.027 263.194 142.419 261.531 142.419C259.867 142.419 258.227 142.027 256.743 141.274L252.898 139.03C251.506 138.12 250.348 136.895 249.517 135.453C248.686 134.012 248.207 132.395 248.117 130.733V95.1084C248.2 93.4544 248.669 91.8428 249.489 90.4038C250.308 88.9648 251.454 87.7386 252.834 86.8242Z" fill="black"/>
<path d="M301.924 79.3352C301.924 77.5527 301.052 73.1156 296.476 75.924C291.901 78.7325 269.418 91.4409 266.317 93.2876C264.164 94.469 262.465 96.3319 261.484 98.5839L263.933 101.046L301.924 79.3352Z" fill="#BA68C8"/>
<path opacity="0.2" d="M301.924 79.3352C301.924 77.5527 301.052 73.1156 296.476 75.924C291.901 78.7325 269.418 91.4409 266.317 93.2876C264.164 94.469 262.465 96.3319 261.484 98.5839L263.933 101.046L301.924 79.3352Z" fill="black"/>
<path d="M266.317 141.276C263.664 142.802 261.523 141.571 261.523 138.519V102.907C261.61 101.242 262.09 99.621 262.923 98.1767C263.756 96.7324 264.919 95.5059 266.317 94.5975L297.079 76.7851C299.733 75.259 301.873 76.5029 301.873 79.555V115.18C301.777 116.834 301.293 118.443 300.461 119.875C299.628 121.308 298.469 122.524 297.079 123.426" fill="#BA68C8"/>
<path opacity="0.1" d="M266.317 141.276C263.664 142.802 261.523 141.571 261.523 138.519V102.907C261.61 101.242 262.09 99.621 262.923 98.1767C263.756 96.7324 264.919 95.5059 266.317 94.5975L297.079 76.7851C299.733 75.259 301.873 76.5029 301.873 79.555V115.18C301.777 116.834 301.293 118.443 300.461 119.875C299.628 121.308 298.469 122.524 297.079 123.426" fill="black"/>
<path d="M248.051 130.733C248.141 132.395 248.62 134.012 249.451 135.453C250.282 136.895 251.44 138.12 252.832 139.031L256.678 141.275C258.026 141.955 259.504 142.341 261.013 142.407C262.523 142.473 264.029 142.219 265.432 141.659C263.176 142.519 261.458 141.249 261.458 138.518V102.906C261.517 101.238 262.002 99.6128 262.868 98.1865L249.397 90.4023C248.534 91.8294 248.053 93.4546 248 95.1215L248.051 130.733Z" fill="#BA68C8"/>
<path opacity="0.2" d="M248.051 130.733C248.141 132.395 248.62 134.012 249.451 135.453C250.282 136.895 251.44 138.12 252.832 139.031L256.678 141.275C258.026 141.955 259.504 142.341 261.013 142.407C262.523 142.473 264.029 142.219 265.432 141.659C263.176 142.519 261.458 141.249 261.458 138.518V102.906C261.517 101.238 262.002 99.6128 262.868 98.1865L249.397 90.4023C248.534 91.8294 248.053 93.4546 248 95.1215L248.051 130.733Z" fill="black"/>
<path d="M282.645 90.4385L286.644 97.4916L295.617 93.824C296.463 93.4778 296.809 94.478 296.193 95.5296L289.72 106.558L291.246 115.971C291.387 116.869 290.502 118.112 289.746 118.1L281.697 117.856L273.686 127.346C272.929 128.243 272.045 128.013 272.186 126.948L273.737 115.727L267.328 112.175C266.713 111.842 267.059 110.444 267.905 109.815L276.877 103.147L280.876 91.4644C281.171 90.4 282.261 89.7717 282.645 90.4385Z" fill="#FAFAFA"/>
<path d="M303.129 253.175C287.748 260.497 262.882 260.497 247.526 253.175C232.171 245.852 232.145 233.939 247.526 226.668C262.907 219.397 287.773 219.345 303.129 226.668C318.484 233.99 318.433 245.852 303.129 253.175Z" fill="#E0E0E0"/>
<path d="M85.4062 338.184C85.5432 340.049 86.117 341.855 87.0812 343.457C88.0453 345.059 89.3728 346.411 90.9563 347.405L246.472 437.172C248.192 438.045 250.094 438.5 252.022 438.5C253.951 438.5 255.852 438.045 257.572 437.172L470.344 314.255C472.021 313.369 473.425 312.043 474.404 310.418C475.384 308.793 475.901 306.932 475.901 305.034C475.901 303.137 475.384 301.276 474.404 299.651C473.425 298.026 472.021 296.7 470.344 295.814L314.841 206.047C313.121 205.174 311.22 204.719 309.291 204.719C307.363 204.719 305.461 205.174 303.741 206.047L90.9691 328.964C89.3833 329.956 88.0533 331.307 87.0868 332.909C86.1204 334.511 85.5446 336.318 85.4062 338.184Z" fill="#37474F"/>
<path d="M149.57 295.109L90.9551 328.964C89.278 329.85 87.8742 331.177 86.8951 332.801C85.9159 334.426 85.3984 336.288 85.3984 338.185C85.3984 340.082 85.9159 341.943 86.8951 343.568C87.8742 345.193 89.278 346.52 90.9551 347.405L246.471 437.172C248.181 438.066 250.092 438.508 252.021 438.455V295.109H149.57Z" fill="#263238"/>
<path d="M80.2039 329.156C78.6566 328.109 77.3786 326.71 76.4743 325.074C75.5699 323.438 75.0647 321.612 75 319.744V134.066C75.1022 132.139 75.6582 130.263 76.6227 128.592C77.5872 126.92 78.9329 125.501 80.55 124.449L293.322 1.59563C294.928 0.587732 296.778 0.03671 298.674 0.00177145C300.57 -0.0331671 302.439 0.449303 304.081 1.39733C305.723 2.34536 307.076 3.72312 307.994 5.38257C308.912 7.04202 309.361 8.92045 309.293 10.816V196.429C309.19 198.356 308.633 200.232 307.669 201.903C306.704 203.574 305.359 204.994 303.743 206.047L90.9707 328.964C89.318 329.842 87.4814 330.317 85.6104 330.351C83.7394 330.384 81.8869 329.975 80.2039 329.156Z" fill="#455A64"/>
<path d="M101.034 142.661L76.6801 128.555C75.6853 130.208 75.1293 132.089 75.0651 134.018V319.746C74.9981 321.64 75.4476 323.516 76.3653 325.173C77.283 326.831 78.6343 328.207 80.2743 329.155C81.9143 330.102 83.7812 330.585 85.6748 330.552C87.5683 330.519 89.4172 329.971 91.023 328.967L115.287 314.95L101.034 142.661Z" fill="#263238"/>
<path d="M85.4062 140.093V325.758C85.4062 329.297 87.8929 330.733 90.9563 328.964L303.728 206.047C305.345 204.994 306.69 203.574 307.654 201.903C308.619 200.231 309.175 198.356 309.278 196.429V10.7644C309.278 7.22503 306.792 5.78875 303.728 7.55845L90.9563 130.463C89.3403 131.519 87.9958 132.942 87.0315 134.615C86.0673 136.288 85.5105 138.165 85.4062 140.093Z" fill="#37474F"/>
<path d="M90.96 335.376L246.476 425.207C248.196 426.08 250.097 426.535 252.026 426.535C253.955 426.535 255.856 426.08 257.576 425.207L470.348 302.29C473.424 300.52 473.424 297.648 470.348 295.878L314.845 206.047C313.125 205.174 311.224 204.719 309.295 204.719C307.366 204.719 305.465 205.174 303.745 206.047L90.9728 328.964C87.8966 330.734 87.8966 333.606 90.96 335.376Z" fill="#455A64"/>
<path d="M93.942 140.775L300.754 21.3199C302.587 20.2555 304.087 21.1147 304.087 23.2435V183.965C304.022 185.121 303.687 186.246 303.108 187.248C302.529 188.251 301.723 189.103 300.754 189.736L93.942 309.191C92.0962 310.255 90.6094 309.396 90.6094 307.267V146.507C90.6769 145.357 91.0137 144.239 91.5926 143.243C92.1715 142.247 92.9763 141.402 93.942 140.775Z" fill="#FAFAFA"/>
<path d="M109.001 330.565L306.507 216.433C307.367 215.997 308.318 215.77 309.282 215.77C310.246 215.77 311.197 215.997 312.057 216.433L322.17 222.268C322.505 222.381 322.796 222.597 323.002 222.885C323.208 223.172 323.319 223.517 323.319 223.871C323.319 224.224 323.208 224.569 323.002 224.857C322.796 225.144 322.505 225.36 322.17 225.474L124.625 339.593C123.765 340.03 122.815 340.257 121.85 340.257C120.886 340.257 119.936 340.03 119.075 339.593L109.001 333.733C108.679 333.612 108.402 333.395 108.207 333.112C108.011 332.829 107.906 332.493 107.906 332.149C107.906 331.805 108.011 331.469 108.207 331.186C108.402 330.904 108.679 330.687 109.001 330.565Z" fill="#263238"/>
<path d="M135.037 345.612L332.544 231.48C333.404 231.044 334.355 230.816 335.319 230.816C336.283 230.816 337.234 231.044 338.094 231.48L400.234 267.387C400.568 267.5 400.859 267.716 401.065 268.003C401.271 268.291 401.382 268.636 401.382 268.99C401.382 269.343 401.271 269.688 401.065 269.976C400.859 270.263 400.568 270.479 400.234 270.593L202.958 384.546C202.096 384.982 201.143 385.209 200.176 385.209C199.21 385.209 198.257 384.982 197.395 384.546L135.05 348.793C134.718 348.681 134.429 348.468 134.224 348.184C134.019 347.899 133.908 347.558 133.906 347.207C133.905 346.856 134.013 346.514 134.216 346.228C134.419 345.942 134.706 345.727 135.037 345.612Z" fill="#263238"/>
<path d="M312.086 282.85L318.277 279.272C318.533 279.118 318.521 278.861 318.277 278.708L311.125 274.578C310.972 274.5 310.803 274.458 310.631 274.458C310.46 274.458 310.29 274.5 310.138 274.578L303.96 278.156C303.691 278.297 303.703 278.554 303.96 278.72L311.112 282.85C311.263 282.926 311.43 282.966 311.599 282.966C311.768 282.966 311.935 282.926 312.086 282.85ZM299.884 268.654L293.706 272.18C293.437 272.334 293.449 272.591 293.706 272.757L300.858 276.887C301.011 276.962 301.18 277.002 301.351 277.002C301.523 277.002 301.691 276.962 301.845 276.887L308.036 273.309C308.292 273.155 308.279 272.898 308.036 272.744L300.884 268.602C300.724 268.532 300.551 268.5 300.378 268.509C300.204 268.518 300.035 268.568 299.884 268.654ZM279.901 280.195L269.442 286.286C269.173 286.44 269.198 286.697 269.442 286.864L276.594 290.993C276.748 291.069 276.917 291.108 277.088 291.108C277.259 291.108 277.428 291.069 277.581 290.993L288.04 284.953C288.297 284.799 288.284 284.542 288.04 284.389L280.888 280.246C280.739 280.163 280.572 280.114 280.401 280.105C280.229 280.097 280.059 280.127 279.901 280.195ZM290.847 273.873L284.656 277.451C284.4 277.592 284.413 277.848 284.656 278.015L291.809 282.144C291.961 282.223 292.131 282.264 292.302 282.264C292.474 282.264 292.643 282.223 292.796 282.144L298.974 278.566C299.243 278.413 299.23 278.156 298.974 278.002L291.822 273.873C291.671 273.796 291.504 273.756 291.334 273.756C291.165 273.756 290.998 273.796 290.847 273.873ZM266.584 287.889L260.406 291.416C260.136 291.57 260.162 291.826 260.406 291.993L267.558 296.122C267.71 296.201 267.88 296.242 268.051 296.242C268.223 296.242 268.392 296.201 268.545 296.122L274.736 292.557C274.992 292.403 274.979 292.147 274.736 291.993L267.583 287.851C267.425 287.779 267.253 287.745 267.079 287.752C266.905 287.758 266.736 287.806 266.584 287.889ZM257.547 293.109L251.369 296.674C251.1 296.828 251.113 297.084 251.369 297.251L258.521 301.38C258.675 301.456 258.844 301.495 259.015 301.495C259.186 301.495 259.355 301.456 259.508 301.38L265.699 297.802C265.956 297.648 265.943 297.392 265.699 297.238L258.547 293.096C258.391 293.02 258.219 292.982 258.046 292.984C257.872 292.986 257.701 293.029 257.547 293.109ZM285.682 309.908L291.86 306.33C292.116 306.176 292.104 305.92 291.86 305.766L284.669 301.675C284.517 301.596 284.348 301.555 284.176 301.555C284.004 301.555 283.835 301.596 283.682 301.675L277.504 305.253C277.235 305.394 277.261 305.651 277.504 305.817L284.656 309.947C284.817 310.026 284.995 310.064 285.174 310.057C285.353 310.051 285.528 309.999 285.682 309.908ZM276.633 315.127L282.824 311.55C283.08 311.396 283.067 311.152 282.824 310.985L275.633 306.805C275.48 306.726 275.311 306.685 275.139 306.685C274.968 306.685 274.799 306.726 274.646 306.805L268.442 310.408C268.173 310.549 268.199 310.806 268.442 310.972L275.594 315.102C275.751 315.193 275.929 315.244 276.11 315.248C276.292 315.253 276.472 315.211 276.633 315.127ZM267.596 320.347L273.787 316.769C274.044 316.628 274.031 316.371 273.787 316.205L266.635 312.075C266.482 311.997 266.313 311.955 266.141 311.955C265.97 311.955 265.801 311.997 265.648 312.075L259.47 315.628C259.201 315.781 259.214 316.038 259.47 316.192L266.622 320.321C266.771 320.402 266.937 320.446 267.106 320.45C267.275 320.455 267.443 320.419 267.596 320.347ZM258.624 325.566L264.815 321.988C265.071 321.847 265.058 321.591 264.815 321.424L257.663 317.295C257.51 317.216 257.341 317.175 257.169 317.175C256.997 317.175 256.828 317.216 256.676 317.295L250.395 320.911C250.126 321.065 250.139 321.321 250.395 321.475L257.547 325.605C257.706 325.682 257.882 325.719 258.058 325.712C258.235 325.705 258.407 325.655 258.56 325.566H258.624ZM303.05 288.069L309.228 284.491C309.497 284.337 309.484 284.094 309.228 283.927L302.076 279.798C301.923 279.719 301.754 279.678 301.582 279.678C301.41 279.678 301.241 279.719 301.089 279.798L294.911 283.375C294.641 283.529 294.654 283.773 294.911 283.94L302.063 288.069C302.215 288.148 302.385 288.189 302.556 288.189C302.728 288.189 302.897 288.148 303.05 288.069ZM294.718 304.74L308.51 296.764C308.766 296.61 308.754 296.353 308.51 296.199L291.142 286.171C290.99 286.092 290.82 286.051 290.649 286.051C290.477 286.051 290.308 286.092 290.155 286.171L283.029 290.288C282.76 290.441 282.772 290.698 283.029 290.865L292.232 296.174C292.514 296.34 292.527 296.597 292.232 296.738L286.528 300.047C286.271 300.188 286.284 300.444 286.528 300.611L293.68 304.74C293.844 304.817 294.025 304.852 294.206 304.843C294.386 304.834 294.562 304.781 294.718 304.689V304.74ZM248.511 298.328L242.333 301.906C242.064 302.047 242.076 302.303 242.333 302.47L249.485 306.6C249.638 306.675 249.807 306.715 249.978 306.715C250.15 306.715 250.319 306.675 250.472 306.6L256.663 303.022C256.919 302.868 256.906 302.611 256.663 302.457L249.511 298.328C249.356 298.247 249.185 298.205 249.011 298.205C248.837 298.205 248.665 298.247 248.511 298.328ZM239.539 303.547L233.348 307.125C233.091 307.279 233.104 307.523 233.348 307.69L240.5 311.819C240.652 311.898 240.822 311.939 240.993 311.939C241.165 311.939 241.334 311.898 241.487 311.819L247.665 308.241C247.934 308.087 247.921 307.831 247.665 307.677L240.513 303.547C240.354 303.46 240.175 303.414 239.994 303.414C239.812 303.414 239.633 303.46 239.474 303.547H239.539ZM194.369 362.088C194.522 362.167 194.691 362.208 194.863 362.208C195.035 362.208 195.204 362.167 195.356 362.088L201.547 358.511C201.804 358.357 201.791 358.1 201.547 357.946L194.395 353.817C194.242 353.738 194.073 353.697 193.901 353.697C193.73 353.697 193.561 353.738 193.408 353.817L187.23 357.395C186.961 357.549 186.974 357.793 187.23 357.959L194.369 362.088ZM167.183 345.276L160.992 348.854C160.736 348.995 160.749 349.252 160.992 349.419L168.145 353.548C168.298 353.624 168.467 353.663 168.638 353.663C168.809 353.663 168.978 353.624 169.131 353.548L175.31 349.97C175.579 349.816 175.566 349.56 175.31 349.406L168.157 345.276C168.006 345.2 167.84 345.16 167.67 345.16C167.501 345.16 167.334 345.2 167.183 345.276ZM181.731 357.523C181.884 357.602 182.053 357.643 182.225 357.643C182.396 357.643 182.566 357.602 182.718 357.523L188.896 353.945C189.165 353.791 189.14 353.548 188.896 353.381L181.757 349.252C181.604 349.173 181.435 349.132 181.263 349.132C181.092 349.132 180.922 349.173 180.77 349.252L174.579 352.83C174.323 352.984 174.335 353.227 174.579 353.394L181.731 357.523ZM210.276 365.218L216.467 361.64C216.723 361.486 216.71 361.229 216.467 361.075L209.315 356.933C209.161 356.858 208.992 356.818 208.821 356.818C208.65 356.818 208.481 356.858 208.328 356.933L202.15 360.511C201.88 360.652 201.893 360.909 202.15 361.075L209.302 365.205C209.446 365.289 209.608 365.339 209.775 365.35C209.942 365.361 210.109 365.334 210.263 365.269L210.276 365.218ZM200.253 370.411C200.405 370.49 200.574 370.531 200.746 370.531C200.918 370.531 201.087 370.49 201.24 370.411L207.43 366.833C207.687 366.679 207.674 366.423 207.43 366.269L200.278 362.14C200.126 362.061 199.956 362.02 199.785 362.02C199.613 362.02 199.444 362.061 199.291 362.14L193.062 365.795C192.793 365.936 192.806 366.192 193.062 366.359L200.253 370.411ZM176.156 340.147L169.965 343.712C169.708 343.866 169.721 344.122 169.965 344.289L177.117 348.418C177.27 348.494 177.439 348.533 177.61 348.533C177.781 348.533 177.95 348.494 178.104 348.418L184.282 344.84C184.551 344.686 184.538 344.43 184.282 344.276L177.194 340.147C177.034 340.063 176.856 340.019 176.675 340.019C176.494 340.019 176.316 340.063 176.156 340.147ZM221.402 313.986L215.211 317.564C214.954 317.718 214.967 317.974 215.211 318.128L222.363 322.257C222.516 322.336 222.685 322.377 222.856 322.377C223.028 322.377 223.197 322.336 223.35 322.257L229.528 318.68C229.797 318.539 229.772 318.282 229.528 318.115L222.389 313.986C222.235 313.91 222.066 313.871 221.895 313.871C221.724 313.871 221.555 313.91 221.402 313.986ZM185.243 334.876L179.065 338.441C178.796 338.595 178.809 338.852 179.065 339.018L186.217 343.148C186.371 343.223 186.54 343.263 186.711 343.263C186.882 343.263 187.051 343.223 187.204 343.148L193.395 339.583C193.652 339.429 193.639 339.172 193.395 339.005L186.243 334.876C186.088 334.798 185.917 334.758 185.743 334.758C185.57 334.758 185.398 334.798 185.243 334.876ZM230.438 308.767L224.247 312.345C223.991 312.499 224.004 312.742 224.247 312.909L231.399 317.038C231.552 317.117 231.721 317.158 231.893 317.158C232.065 317.158 232.234 317.117 232.386 317.038L238.564 313.46C238.834 313.306 238.821 313.063 238.564 312.896L231.412 308.767C231.261 308.69 231.094 308.65 230.925 308.65C230.756 308.65 230.589 308.69 230.438 308.767ZM212.352 319.205L206.174 322.783C205.905 322.937 205.931 323.194 206.174 323.348L213.327 327.49C213.48 327.565 213.649 327.605 213.82 327.605C213.991 327.605 214.16 327.565 214.314 327.49L220.492 323.925C220.761 323.771 220.735 323.514 220.492 323.348L213.327 319.231C213.177 319.153 213.011 319.111 212.842 319.106C212.674 319.102 212.506 319.136 212.352 319.205ZM203.316 324.438L197.138 328.003C196.869 328.156 196.894 328.413 197.138 328.567L204.354 332.709C204.505 332.785 204.672 332.824 204.841 332.824C205.01 332.824 205.177 332.785 205.328 332.709L211.519 329.144C211.776 328.99 211.763 328.734 211.519 328.567L204.354 324.45C204.196 324.361 204.018 324.313 203.837 324.31C203.655 324.308 203.476 324.352 203.316 324.438ZM194.28 329.657L188.102 333.222C187.832 333.376 187.858 333.632 188.102 333.799L195.254 337.928C195.407 338.004 195.576 338.043 195.747 338.043C195.918 338.043 196.087 338.004 196.241 337.928L202.432 334.363C202.688 334.209 202.675 333.953 202.432 333.786L195.279 329.657C195.124 329.579 194.953 329.538 194.779 329.538C194.606 329.538 194.435 329.579 194.28 329.657ZM240.487 336.005L246.652 332.452C246.921 332.299 246.909 332.042 246.652 331.875L239.5 327.746C239.348 327.667 239.178 327.626 239.007 327.626C238.835 327.626 238.666 327.667 238.513 327.746L232.322 331.311C232.066 331.465 232.079 331.722 232.322 331.888L239.474 336.018C239.632 336.095 239.806 336.135 239.982 336.133C240.158 336.131 240.331 336.087 240.487 336.005ZM319.866 257.112L313.676 260.639C313.419 260.78 313.432 261.036 313.676 261.203L320.828 265.332C320.981 265.408 321.15 265.447 321.321 265.447C321.492 265.447 321.661 265.408 321.815 265.332L327.993 261.754C328.262 261.6 328.249 261.344 327.993 261.19L320.841 257.061C320.686 256.992 320.517 256.961 320.347 256.97C320.178 256.979 320.013 257.027 319.866 257.112ZM308.92 263.434L302.742 267.051C302.473 267.205 302.486 267.461 302.742 267.628L309.882 271.757C310.034 271.836 310.203 271.877 310.375 271.877C310.547 271.877 310.716 271.836 310.869 271.757L317.059 268.192C317.316 268.038 317.303 267.782 317.059 267.628L309.907 263.486C309.758 263.402 309.591 263.353 309.42 263.345C309.249 263.336 309.078 263.366 308.92 263.434ZM328.903 251.893L322.712 255.509C322.456 255.663 322.468 255.919 322.712 256.086L329.864 260.215C330.018 260.291 330.187 260.331 330.358 260.331C330.529 260.331 330.698 260.291 330.851 260.215L337.029 256.638C337.298 256.484 337.286 256.227 337.029 256.073L329.877 251.931C329.728 251.851 329.563 251.807 329.394 251.8C329.226 251.793 329.058 251.825 328.903 251.893ZM282.119 300.162L288.31 296.546C288.566 296.392 288.553 296.135 288.31 295.981L281.157 291.852C281.005 291.773 280.836 291.732 280.664 291.732C280.492 291.732 280.323 291.773 280.17 291.852L273.979 295.417C273.723 295.571 273.736 295.827 273.979 295.994L281.132 300.123C281.282 300.205 281.449 300.251 281.621 300.258C281.792 300.265 281.962 300.232 282.119 300.162ZM338.939 246.686C338.786 246.61 338.617 246.571 338.446 246.571C338.274 246.571 338.106 246.61 337.952 246.686L331.774 250.251C331.505 250.405 331.518 250.662 331.774 250.828L338.926 254.958C339.079 255.036 339.248 255.077 339.42 255.077C339.591 255.077 339.761 255.036 339.913 254.958L346.104 251.393C346.36 251.239 346.348 250.982 346.104 250.816L338.939 246.686ZM249.523 330.785L255.702 327.22C255.971 327.066 255.958 326.81 255.702 326.643L248.549 322.514C248.396 322.438 248.227 322.399 248.056 322.399C247.885 322.399 247.716 322.438 247.562 322.514L241.346 326.041C241.089 326.194 241.102 326.451 241.346 326.605L248.498 330.747C248.653 330.835 248.828 330.884 249.006 330.891C249.185 330.898 249.362 330.862 249.523 330.785ZM360.357 266.768L366.548 263.191C366.805 263.037 366.792 262.78 366.548 262.626L359.396 258.497C359.243 258.418 359.074 258.377 358.902 258.377C358.731 258.377 358.562 258.418 358.409 258.497L352.218 262.075C351.962 262.216 351.975 262.472 352.218 262.639L359.37 266.768C359.523 266.847 359.692 266.888 359.864 266.888C360.035 266.888 360.205 266.847 360.357 266.768ZM341.131 266.089L347.309 262.511C347.578 262.357 347.565 262.101 347.309 261.947L340.157 257.817C340.004 257.739 339.835 257.698 339.663 257.698C339.492 257.698 339.322 257.739 339.17 257.817L332.979 261.395C332.723 261.536 332.735 261.793 332.979 261.96L340.131 266.089C340.282 266.165 340.449 266.205 340.618 266.205C340.787 266.205 340.954 266.165 341.105 266.089H341.131ZM349.193 252.585C349.04 252.509 348.871 252.47 348.7 252.47C348.528 252.47 348.36 252.509 348.206 252.585L342.028 256.163C341.759 256.304 341.772 256.561 342.028 256.727L349.18 260.857C349.334 260.932 349.503 260.972 349.674 260.972C349.845 260.972 350.014 260.932 350.167 260.857L356.358 257.279C356.615 257.125 356.602 256.868 356.358 256.715L349.193 252.585ZM351.09 251.495L368.42 261.524C368.573 261.599 368.742 261.639 368.913 261.639C369.084 261.639 369.253 261.599 369.406 261.524L375.597 257.946C375.854 257.792 375.841 257.535 375.597 257.381L358.165 247.366C358.012 247.29 357.843 247.251 357.672 247.251C357.501 247.251 357.332 247.29 357.179 247.366L351 250.931C350.744 251.072 350.757 251.329 351.039 251.495H351.09ZM330.133 263.037L323.942 266.615C323.686 266.756 323.699 267.012 323.942 267.179L331.095 271.308C331.247 271.387 331.416 271.428 331.588 271.428C331.76 271.428 331.929 271.387 332.082 271.308L338.26 267.73C338.529 267.576 338.516 267.32 338.26 267.166L331.108 263.037C330.952 262.947 330.777 262.898 330.598 262.894C330.419 262.889 330.242 262.93 330.082 263.011L330.133 263.037ZM262.033 302.303L255.843 305.881C255.586 306.035 255.599 306.279 255.843 306.446L262.995 310.575C263.147 310.654 263.317 310.695 263.488 310.695C263.66 310.695 263.829 310.654 263.982 310.575L270.16 306.997C270.429 306.843 270.416 306.599 270.16 306.433L263.008 302.303C262.857 302.227 262.69 302.187 262.521 302.187C262.351 302.187 262.184 302.227 262.033 302.303ZM350.308 271.962C350.461 272.041 350.63 272.082 350.802 272.082C350.973 272.082 351.143 272.041 351.295 271.962L357.473 268.384C357.742 268.23 357.73 267.987 357.473 267.82L350.321 263.691C350.168 263.612 349.999 263.571 349.828 263.571C349.656 263.571 349.487 263.612 349.334 263.691L343.143 267.269C342.887 267.423 342.9 267.666 343.143 267.833L350.308 271.962ZM271.07 297.084L264.879 300.662C264.623 300.803 264.635 301.06 264.879 301.226L272.031 305.356C272.184 305.434 272.353 305.475 272.525 305.475C272.696 305.475 272.866 305.434 273.018 305.356L279.196 301.778C279.465 301.624 279.453 301.367 279.196 301.213L272.044 297.084C271.896 297.012 271.734 296.974 271.57 296.974C271.405 296.974 271.243 297.012 271.095 297.084H271.07ZM203.342 356.818C203.495 356.894 203.664 356.933 203.835 356.933C204.006 356.933 204.175 356.894 204.329 356.818L210.52 353.24C210.776 353.086 210.763 352.83 210.52 352.676L203.367 348.546C203.215 348.468 203.046 348.427 202.874 348.427C202.702 348.427 202.533 348.468 202.38 348.546L196.202 352.124C195.933 352.265 195.946 352.522 196.202 352.689L203.342 356.818ZM189.755 343.994L183.564 347.572C183.308 347.713 183.321 347.969 183.564 348.136L190.716 352.265C190.87 352.341 191.039 352.381 191.21 352.381C191.381 352.381 191.55 352.341 191.703 352.265L197.881 348.688C198.151 348.534 198.138 348.277 197.881 348.123L190.729 343.994C190.572 343.929 190.402 343.902 190.233 343.916C190.064 343.929 189.9 343.982 189.755 344.071V343.994ZM213.327 351.688L219.517 348.11C219.774 347.957 219.761 347.7 219.517 347.546L212.365 343.417C212.213 343.338 212.043 343.297 211.872 343.297C211.7 343.297 211.531 343.338 211.378 343.417L205.2 346.982C204.931 347.136 204.957 347.392 205.2 347.559L212.352 351.688C212.504 351.764 212.67 351.803 212.839 351.803C213.009 351.803 213.175 351.764 213.327 351.688ZM222.376 346.469L228.554 342.891C228.823 342.737 228.797 342.481 228.554 342.314L221.402 338.185C221.248 338.109 221.079 338.07 220.908 338.07C220.737 338.07 220.568 338.109 220.415 338.185L214.237 341.75C213.98 341.904 213.993 342.16 214.237 342.327L221.389 346.456C221.547 346.538 221.723 346.581 221.902 346.581C222.08 346.581 222.256 346.538 222.414 346.456L222.376 346.469ZM231.348 341.237L237.526 337.672C237.795 337.518 237.77 337.261 237.526 337.095L230.387 332.965C230.233 332.89 230.064 332.85 229.893 332.85C229.722 332.85 229.553 332.89 229.4 332.965L223.209 336.53C222.953 336.684 222.965 336.941 223.209 337.108L230.361 341.237C230.529 341.328 230.717 341.375 230.908 341.373C231.098 341.37 231.285 341.319 231.451 341.224L231.348 341.237ZM198.791 338.864L192.601 342.429C192.344 342.583 192.357 342.84 192.601 343.007L199.753 347.136C199.906 347.212 200.075 347.251 200.246 347.251C200.417 347.251 200.586 347.212 200.74 347.136L206.918 343.558C207.187 343.404 207.174 343.148 206.918 342.994L199.778 338.864C199.625 338.789 199.456 338.749 199.285 338.749C199.114 338.749 198.945 338.789 198.791 338.864ZM207.828 333.645L201.637 337.21C201.381 337.364 201.393 337.621 201.637 337.787L208.789 341.917C208.942 341.995 209.111 342.036 209.283 342.036C209.454 342.036 209.623 341.995 209.776 341.917L215.967 338.351C216.223 338.198 216.211 337.941 215.967 337.774L208.815 333.645C208.662 333.567 208.494 333.526 208.323 333.523C208.152 333.521 207.982 333.559 207.828 333.632V333.645ZM243.986 312.755L237.795 316.333C237.526 316.487 237.552 316.743 237.795 316.897L244.948 321.026C245.1 321.105 245.269 321.146 245.441 321.146C245.613 321.146 245.782 321.105 245.935 321.026L252.113 317.449C252.382 317.307 252.356 317.051 252.113 316.884L244.96 312.755C244.81 312.677 244.644 312.636 244.475 312.634C244.306 312.631 244.138 312.669 243.986 312.742V312.755ZM234.937 317.987L228.708 321.539C228.439 321.693 228.464 321.95 228.708 322.104L235.847 326.246C236.001 326.321 236.169 326.361 236.341 326.361C236.512 326.361 236.681 326.321 236.834 326.246L243.025 322.681C243.281 322.527 243.268 322.27 243.025 322.104L235.873 317.974C235.727 317.904 235.567 317.867 235.405 317.867C235.243 317.867 235.083 317.904 234.937 317.974V317.987ZM253.061 307.523L246.87 311.101C246.614 311.255 246.627 311.511 246.87 311.665L254.022 315.794C254.175 315.873 254.344 315.914 254.516 315.914C254.688 315.914 254.857 315.873 255.009 315.794L261.187 312.216C261.457 312.075 261.431 311.819 261.187 311.652L254.048 307.523C253.895 307.444 253.726 307.403 253.555 307.403C253.383 307.403 253.214 307.444 253.061 307.523ZM216.903 328.413L210.725 331.978C210.455 332.132 210.468 332.388 210.725 332.555L217.877 336.684C218.03 336.76 218.199 336.8 218.37 336.8C218.541 336.8 218.71 336.76 218.864 336.684L225.055 333.119C225.311 332.965 225.298 332.709 225.055 332.542L217.902 328.413C217.742 328.329 217.564 328.285 217.383 328.285C217.202 328.285 217.024 328.329 216.864 328.413H216.903ZM225.939 323.194L219.735 326.759C219.466 326.913 219.479 327.169 219.735 327.336L226.888 331.465C227.041 331.541 227.21 331.58 227.381 331.58C227.552 331.58 227.721 331.541 227.875 331.465L234.065 327.9C234.322 327.746 234.309 327.49 234.065 327.323L226.913 323.194C226.757 323.111 226.584 323.067 226.407 323.067C226.23 323.067 226.056 323.111 225.901 323.194H225.939ZM219.338 360.049L225.529 356.472C225.785 356.318 225.772 356.061 225.529 355.907L218.377 351.765C218.223 351.689 218.054 351.65 217.883 351.65C217.712 351.65 217.543 351.689 217.39 351.765L211.212 355.33C210.942 355.484 210.968 355.741 211.212 355.907L218.351 360.037C218.498 360.108 218.66 360.147 218.824 360.149C218.988 360.151 219.15 360.117 219.3 360.049H219.338ZM166.312 354.689L159.159 350.56C159.007 350.481 158.838 350.44 158.666 350.44C158.494 350.44 158.325 350.481 158.172 350.56L151.982 354.138C151.725 354.279 151.738 354.535 151.982 354.702L159.134 358.831C159.286 358.91 159.456 358.951 159.627 358.951C159.799 358.951 159.968 358.91 160.121 358.831L166.299 355.253C166.568 355.099 166.542 354.843 166.273 354.689H166.312ZM179.847 358.665L172.695 354.535C172.542 354.457 172.373 354.415 172.201 354.415C172.03 354.415 171.86 354.457 171.708 354.535L162.197 360.037C161.941 360.191 161.954 360.434 162.197 360.601L169.349 364.73C169.502 364.809 169.671 364.85 169.843 364.85C170.015 364.85 170.184 364.809 170.336 364.73L179.847 359.229C180.116 359.075 180.091 358.831 179.809 358.665H179.847ZM155.34 346.7L148.188 342.571C148.035 342.492 147.866 342.451 147.694 342.451C147.522 342.451 147.353 342.492 147.201 342.571L139.587 346.969C139.318 347.123 139.343 347.379 139.587 347.546L146.739 351.675C146.893 351.751 147.061 351.791 147.233 351.791C147.404 351.791 147.573 351.751 147.726 351.675L155.327 347.277C155.647 347.123 155.647 346.867 155.301 346.7H155.34ZM161.172 343.327C161.324 343.406 161.494 343.447 161.665 343.447C161.837 343.447 162.006 343.406 162.159 343.327L168.337 339.749C168.606 339.595 168.593 339.352 168.337 339.185L161.185 335.056C161.032 334.977 160.863 334.936 160.691 334.936C160.519 334.936 160.35 334.977 160.198 335.056L154.007 338.634C153.75 338.787 153.763 339.031 154.007 339.198L161.172 343.327ZM192.408 363.23L185.256 359.101C185.103 359.022 184.934 358.981 184.763 358.981C184.591 358.981 184.422 359.022 184.269 359.101L172.374 365.974C172.118 366.128 172.131 366.384 172.374 366.538L179.527 370.668C179.679 370.746 179.848 370.788 180.02 370.788C180.192 370.788 180.361 370.746 180.514 370.668L192.408 363.794C192.703 363.602 192.69 363.358 192.408 363.23ZM198.343 371.604L191.191 367.475C191.038 367.396 190.869 367.355 190.697 367.355C190.525 367.355 190.356 367.396 190.204 367.475L182.564 371.809C182.308 371.963 182.321 372.219 182.564 372.373L189.717 376.515C189.87 376.591 190.039 376.631 190.21 376.631C190.381 376.631 190.55 376.591 190.704 376.515L198.317 372.117C198.638 371.976 198.625 371.732 198.343 371.565V371.604ZM228.336 304.548C228.486 304.626 228.653 304.667 228.823 304.667C228.993 304.667 229.16 304.626 229.31 304.548L235.501 300.97C235.757 300.829 235.745 300.572 235.501 300.406L228.349 296.276C228.196 296.198 228.027 296.156 227.855 296.156C227.684 296.156 227.514 296.198 227.362 296.276L221.184 299.854C220.915 300.008 220.94 300.264 221.184 300.418L228.336 304.548ZM210.25 314.999C210.404 315.075 210.573 315.114 210.744 315.114C210.915 315.114 211.084 315.075 211.237 314.999L217.428 311.421C217.685 311.28 217.672 311.024 217.428 310.857L210.276 306.728C210.122 306.652 209.954 306.613 209.783 306.613C209.611 306.613 209.443 306.652 209.289 306.728L203.072 310.254C202.803 310.408 202.816 310.665 203.072 310.819L210.25 314.999ZM170.17 338.146C170.323 338.222 170.492 338.261 170.663 338.261C170.834 338.261 171.003 338.222 171.157 338.146L177.335 334.568C177.604 334.415 177.591 334.158 177.335 334.004L170.157 329.888C170.004 329.809 169.835 329.768 169.663 329.768C169.492 329.768 169.323 329.809 169.17 329.888L162.979 333.466C162.723 333.607 162.736 333.863 162.979 334.03L170.17 338.146ZM219.287 309.767C219.439 309.846 219.609 309.887 219.78 309.887C219.952 309.887 220.121 309.846 220.274 309.767L226.465 306.189C226.721 306.048 226.708 305.792 226.465 305.625L219.312 301.496C219.16 301.417 218.991 301.376 218.819 301.376C218.647 301.376 218.478 301.417 218.325 301.496L212.147 305.073C211.878 305.227 211.904 305.484 212.147 305.638L219.287 309.767ZM201.214 320.218C201.367 320.294 201.536 320.334 201.707 320.334C201.879 320.334 202.047 320.294 202.201 320.218L208.392 316.653C208.648 316.5 208.635 316.243 208.392 316.076L201.201 311.934C201.049 311.856 200.879 311.814 200.708 311.814C200.536 311.814 200.367 311.856 200.214 311.934L194.1 315.474C193.831 315.628 193.844 315.884 194.1 316.051L201.214 320.218ZM203.303 372.207C203.151 372.128 202.981 372.087 202.81 372.087C202.638 372.087 202.469 372.128 202.316 372.207L192.818 377.708C192.562 377.862 192.575 378.118 192.818 378.285L199.996 382.466C200.15 382.541 200.319 382.581 200.49 382.581C200.661 382.581 200.83 382.541 200.983 382.466L210.494 376.977C210.75 376.823 210.737 376.567 210.494 376.4L203.303 372.207ZM188.243 327.644C188.395 327.722 188.564 327.763 188.736 327.763C188.908 327.763 189.077 327.722 189.229 327.644L195.382 324.117C195.638 323.963 195.625 323.707 195.382 323.54L188.23 319.411C188.076 319.335 187.907 319.295 187.736 319.295C187.565 319.295 187.396 319.335 187.243 319.411L181.065 322.976C180.795 323.129 180.808 323.386 181.065 323.553L188.243 327.644ZM179.206 332.863C179.36 332.939 179.528 332.978 179.7 332.978C179.871 332.978 180.04 332.939 180.193 332.863L186.384 329.285C186.64 329.131 186.627 328.875 186.384 328.721L179.232 324.591C179.079 324.513 178.91 324.472 178.738 324.472C178.567 324.472 178.397 324.513 178.245 324.591L172.054 328.156C171.798 328.31 171.81 328.567 172.054 328.734L179.206 332.863ZM370.752 275.514C370.599 275.439 370.43 275.399 370.259 275.399C370.088 275.399 369.919 275.439 369.765 275.514L354.538 284.312C354.282 284.465 354.295 284.722 354.538 284.876L361.69 289.018C361.844 289.094 362.013 289.133 362.184 289.133C362.355 289.133 362.524 289.094 362.677 289.018L377.892 280.221C378.161 280.08 378.148 279.823 377.892 279.656L370.752 275.514ZM350.77 287.056C350.617 286.977 350.448 286.936 350.276 286.936C350.105 286.936 349.935 286.977 349.783 287.056L343.605 290.634C343.336 290.788 343.348 291.044 343.605 291.198L350.757 295.327C350.909 295.406 351.079 295.447 351.25 295.447C351.422 295.447 351.591 295.406 351.744 295.327L357.935 291.749C358.191 291.608 358.178 291.352 357.935 291.185L350.77 287.056ZM228.349 354.817L234.527 351.252C234.783 351.098 234.77 350.842 234.527 350.675L227.336 346.559C227.183 346.483 227.014 346.444 226.843 346.444C226.672 346.444 226.503 346.483 226.349 346.559L220.171 350.124C219.902 350.278 219.928 350.534 220.171 350.701L227.323 354.83C227.482 354.914 227.659 354.956 227.838 354.954C228.017 354.952 228.192 354.905 228.349 354.817ZM332.697 297.495C332.544 297.416 332.375 297.375 332.203 297.375C332.032 297.375 331.863 297.416 331.71 297.495L325.519 301.06C325.263 301.213 325.275 301.47 325.519 301.637L332.671 305.766C332.825 305.842 332.994 305.881 333.165 305.881C333.336 305.881 333.505 305.842 333.658 305.766L339.836 302.201C340.105 302.047 340.093 301.791 339.836 301.624L332.697 297.495ZM379.789 270.295C379.636 270.216 379.467 270.175 379.295 270.175C379.124 270.175 378.954 270.216 378.802 270.295L372.611 273.873C372.355 274.027 372.367 274.283 372.611 274.437L379.763 278.566C379.916 278.645 380.085 278.686 380.257 278.686C380.428 278.686 380.597 278.645 380.75 278.566L386.928 274.989C387.197 274.848 387.184 274.591 386.928 274.424L379.789 270.295ZM395.977 269.205L378.674 259.177C378.521 259.098 378.352 259.057 378.18 259.057C378.008 259.057 377.839 259.098 377.687 259.177L371.509 262.755C371.239 262.896 371.252 263.152 371.509 263.319L388.876 273.347C389.029 273.426 389.198 273.467 389.37 273.467C389.542 273.467 389.711 273.426 389.863 273.347L396.054 269.769C396.272 269.615 396.259 269.372 395.977 269.205ZM298.923 317.064C298.769 316.988 298.6 316.949 298.429 316.949C298.258 316.949 298.089 316.988 297.936 317.064L290.322 321.462C290.066 321.603 290.078 321.86 290.322 322.027L297.474 326.156C297.627 326.235 297.796 326.276 297.968 326.276C298.139 326.276 298.308 326.235 298.461 326.156L306.062 321.757C306.331 321.603 306.318 321.347 306.062 321.18L298.923 317.064ZM321.751 303.881C321.597 303.805 321.428 303.766 321.257 303.766C321.086 303.766 320.917 303.805 320.764 303.881L311.253 309.382C310.997 309.536 311.009 309.793 311.253 309.947L318.431 313.986C318.583 314.065 318.753 314.106 318.924 314.106C319.096 314.106 319.265 314.065 319.418 313.986L328.929 308.485C329.185 308.344 329.172 308.087 328.929 307.92L321.751 303.881ZM277.991 329.157C277.839 329.078 277.67 329.037 277.498 329.037C277.326 329.037 277.157 329.078 277.004 329.157L226.144 358.472C225.875 358.626 225.901 358.883 226.144 359.049L233.296 363.179C233.45 363.254 233.619 363.294 233.79 363.294C233.961 363.294 234.13 363.254 234.283 363.179L285.169 333.786C285.438 333.632 285.426 333.376 285.169 333.209L277.991 329.157ZM224.234 360.203C224.081 360.128 223.912 360.088 223.741 360.088C223.57 360.088 223.401 360.128 223.247 360.203L215.634 364.512C215.377 364.666 215.39 364.91 215.634 365.076L222.786 369.206C222.939 369.285 223.108 369.326 223.279 369.326C223.451 369.326 223.62 369.285 223.773 369.206L231.387 364.807C231.643 364.653 231.63 364.397 231.387 364.243L224.234 360.203ZM288.451 323.117C288.298 323.038 288.129 322.997 287.957 322.997C287.785 322.997 287.616 323.038 287.464 323.117L279.863 327.515C279.594 327.669 279.606 327.926 279.863 328.092L287.015 332.222C287.168 332.297 287.337 332.337 287.508 332.337C287.68 332.337 287.848 332.297 288.002 332.222L295.616 327.823C295.872 327.669 295.859 327.426 295.616 327.259L288.451 323.117ZM213.775 366.256C213.623 366.178 213.453 366.136 213.282 366.136C213.11 366.136 212.941 366.178 212.788 366.256L205.175 370.655C204.905 370.809 204.931 371.065 205.175 371.232L212.327 375.361C212.48 375.437 212.649 375.476 212.82 375.476C212.991 375.476 213.16 375.437 213.314 375.361L221.017 370.924C221.286 370.77 221.273 370.527 221.017 370.36L213.775 366.256ZM309.382 311.024C309.228 310.948 309.059 310.909 308.888 310.909C308.717 310.909 308.548 310.948 308.395 311.024L300.781 315.422C300.525 315.576 300.538 315.833 300.781 315.999L307.933 320.129C308.086 320.207 308.255 320.249 308.427 320.249C308.598 320.249 308.768 320.207 308.92 320.129L316.534 315.743C316.79 315.589 316.777 315.333 316.534 315.166L309.382 311.024ZM341.733 292.339C341.58 292.264 341.411 292.224 341.24 292.224C341.069 292.224 340.9 292.264 340.746 292.339L334.555 295.917C334.299 296.071 334.312 296.328 334.555 296.481L341.708 300.624C341.861 300.699 342.03 300.739 342.201 300.739C342.372 300.739 342.541 300.699 342.695 300.624L348.886 297.059C349.142 296.905 349.129 296.648 348.886 296.481L341.733 292.339ZM361.536 277.951L367.715 274.373C367.984 274.219 367.971 273.976 367.715 273.809L360.537 269.615C360.384 269.537 360.215 269.496 360.043 269.496C359.872 269.496 359.702 269.537 359.55 269.615L353.359 273.193C353.102 273.347 353.115 273.604 353.359 273.758L360.511 277.887C360.669 277.972 360.845 278.017 361.024 278.017C361.203 278.017 361.379 277.972 361.536 277.887V277.951ZM321.123 277.694L327.313 274.117C327.57 273.963 327.557 273.706 327.313 273.552L320.161 269.423C320.009 269.344 319.839 269.303 319.668 269.303C319.496 269.303 319.327 269.344 319.174 269.423L312.996 273.001C312.727 273.142 312.74 273.398 312.996 273.565L320.148 277.694C320.305 277.758 320.474 277.786 320.643 277.775C320.812 277.764 320.976 277.714 321.123 277.63V277.694ZM300.614 313.127L318.687 302.675C318.944 302.534 318.931 302.278 318.687 302.111L311.535 297.982C311.382 297.903 311.213 297.862 311.042 297.862C310.87 297.862 310.701 297.903 310.548 297.982L292.475 308.421C292.206 308.574 292.232 308.831 292.475 308.998L299.627 313.127C299.791 313.199 299.97 313.231 300.148 313.22C300.326 313.209 300.5 313.155 300.653 313.063L300.614 313.127ZM351.475 283.145C351.627 283.223 351.796 283.264 351.968 283.264C352.14 283.264 352.309 283.223 352.462 283.145L358.64 279.58C358.909 279.426 358.883 279.169 358.64 279.002L351.487 274.873C351.334 274.797 351.165 274.758 350.994 274.758C350.823 274.758 350.654 274.797 350.501 274.873L344.31 278.451C344.053 278.605 344.066 278.861 344.31 279.015L351.475 283.145ZM342.246 277.271L348.424 273.693C348.693 273.552 348.68 273.296 348.424 273.129L341.272 269C341.119 268.921 340.95 268.88 340.778 268.88C340.607 268.88 340.437 268.921 340.285 269L334.094 272.578C333.838 272.732 333.85 272.988 334.094 273.142L341.246 277.271C341.411 277.349 341.592 277.384 341.774 277.373C341.955 277.362 342.131 277.305 342.284 277.207L342.246 277.271ZM291.565 318.308L297.756 314.73C298.012 314.576 298 314.319 297.756 314.166L290.604 310.036C290.451 309.958 290.282 309.917 290.11 309.917C289.939 309.917 289.77 309.958 289.617 310.036L283.439 313.614C283.17 313.755 283.195 314.012 283.439 314.178L290.578 318.308C290.734 318.396 290.908 318.445 291.086 318.452C291.265 318.459 291.442 318.422 291.604 318.346L291.565 318.308ZM331.492 294.648C331.645 294.726 331.814 294.767 331.986 294.767C332.157 294.767 332.326 294.726 332.479 294.648L338.67 291.07C338.926 290.929 338.913 290.672 338.67 290.506L331.518 286.376C331.365 286.298 331.196 286.256 331.024 286.256C330.853 286.256 330.683 286.298 330.531 286.376L324.353 289.954C324.083 290.108 324.096 290.364 324.353 290.518L331.492 294.648ZM246.383 344.404L252.561 340.839C252.83 340.685 252.805 340.429 252.561 340.262L245.371 336.107C245.217 336.032 245.048 335.992 244.877 335.992C244.706 335.992 244.537 336.032 244.384 336.107L238.193 339.685C237.936 339.839 237.949 340.096 238.193 340.262L245.345 344.392C245.511 344.48 245.697 344.526 245.885 344.524C246.073 344.522 246.258 344.472 246.422 344.379L246.383 344.404ZM255.42 339.185L261.598 335.62C261.867 335.466 261.854 335.21 261.598 335.043L254.445 330.914C254.292 330.838 254.123 330.798 253.952 330.798C253.781 330.798 253.612 330.838 253.458 330.914L247.268 334.491C247.011 334.645 247.024 334.902 247.268 335.056L254.42 339.185C254.581 339.269 254.761 339.31 254.942 339.306C255.124 339.301 255.301 339.251 255.458 339.159L255.42 339.185ZM237.347 349.624L243.525 346.059C243.794 345.905 243.768 345.648 243.525 345.482L236.398 341.327C236.246 341.248 236.076 341.207 235.905 341.207C235.733 341.207 235.564 341.248 235.411 341.327L229.22 344.892C228.964 345.046 228.977 345.302 229.22 345.469L236.373 349.598C236.529 349.678 236.703 349.72 236.879 349.72C237.055 349.72 237.228 349.678 237.385 349.598L237.347 349.624ZM273.569 328.721L279.76 325.143C280.017 324.989 280.004 324.745 279.76 324.579L272.608 320.449C272.455 320.371 272.286 320.329 272.114 320.329C271.943 320.329 271.774 320.371 271.621 320.449L265.443 324.027C265.174 324.181 265.187 324.425 265.443 324.591L272.595 328.721C272.746 328.797 272.913 328.837 273.082 328.837C273.251 328.837 273.418 328.797 273.569 328.721ZM264.533 333.94L270.724 330.362C270.98 330.221 270.967 329.965 270.724 329.798L263.572 325.669C263.419 325.59 263.25 325.549 263.078 325.549C262.906 325.549 262.737 325.59 262.585 325.669L256.394 329.247C256.137 329.4 256.15 329.657 256.394 329.811L263.546 333.94C263.694 334.013 263.856 334.05 264.02 334.05C264.185 334.05 264.347 334.013 264.494 333.94H264.533ZM282.542 323.476L288.732 319.898C288.989 319.744 288.976 319.5 288.732 319.334L281.58 315.204C281.428 315.126 281.258 315.085 281.087 315.085C280.915 315.085 280.746 315.126 280.593 315.204L274.415 318.782C274.146 318.936 274.172 319.18 274.415 319.346L281.567 323.476C281.718 323.552 281.885 323.592 282.055 323.592C282.224 323.592 282.391 323.552 282.542 323.476ZM323.891 246.237C324.044 246.316 324.213 246.357 324.385 246.357C324.556 246.357 324.726 246.316 324.878 246.237L331.069 242.66C331.325 242.506 331.313 242.262 331.069 242.095L329.159 240.992C329.007 240.914 328.837 240.873 328.666 240.873C328.494 240.873 328.325 240.914 328.172 240.992L321.994 244.557C321.738 244.711 321.751 244.968 321.994 245.135L323.891 246.237ZM279.427 274.963C279.58 275.039 279.749 275.078 279.92 275.078C280.092 275.078 280.26 275.039 280.414 274.963L286.592 271.398C286.861 271.244 286.848 270.988 286.592 270.821L279.44 266.692C279.287 266.613 279.118 266.572 278.946 266.572C278.775 266.572 278.605 266.613 278.453 266.692L272.288 270.282C272.031 270.436 272.044 270.693 272.288 270.859L279.427 274.963ZM297.5 264.511C297.652 264.59 297.822 264.631 297.993 264.631C298.165 264.631 298.334 264.59 298.487 264.511L304.678 260.946C304.934 260.793 304.921 260.536 304.678 260.369L297.525 256.24C297.372 256.164 297.203 256.125 297.032 256.125C296.861 256.125 296.692 256.164 296.538 256.24L290.348 259.818C290.091 259.972 290.104 260.228 290.348 260.382L297.5 264.511ZM268.442 281.362C268.595 281.441 268.764 281.482 268.936 281.482C269.107 281.482 269.277 281.441 269.429 281.362L275.607 277.797C275.876 277.643 275.864 277.387 275.607 277.22L268.442 273.103C268.289 273.028 268.12 272.988 267.949 272.988C267.778 272.988 267.609 273.028 267.455 273.103L261.264 276.669C261.008 276.822 261.021 277.079 261.264 277.246L268.442 281.362ZM288.515 269.821C288.668 269.896 288.837 269.936 289.008 269.936C289.179 269.936 289.348 269.896 289.502 269.821L295.68 266.256C295.949 266.102 295.936 265.845 295.68 265.678L288.527 261.549C288.375 261.47 288.206 261.429 288.034 261.429C287.862 261.429 287.693 261.47 287.54 261.549L281.26 265.063C281.003 265.217 281.016 265.473 281.26 265.627L288.515 269.821ZM250.344 291.801C250.497 291.876 250.666 291.916 250.837 291.916C251.008 291.916 251.177 291.876 251.331 291.801L257.509 288.223C257.765 288.069 257.752 287.813 257.509 287.659L250.357 283.529C250.204 283.451 250.035 283.409 249.863 283.409C249.691 283.409 249.522 283.451 249.37 283.529L243.192 287.094C242.922 287.248 242.948 287.505 243.192 287.671L250.344 291.801ZM259.38 286.581C259.533 286.66 259.702 286.701 259.874 286.701C260.045 286.701 260.215 286.66 260.367 286.581L266.545 283.016C266.814 282.862 266.789 282.606 266.545 282.439L259.406 278.31C259.252 278.234 259.084 278.195 258.912 278.195C258.741 278.195 258.572 278.234 258.419 278.31L252.228 281.875C251.972 282.029 251.984 282.285 252.228 282.452L259.38 286.581ZM305.844 256.702C305.997 256.78 306.166 256.822 306.337 256.822C306.509 256.822 306.678 256.78 306.831 256.702L313.009 253.137C313.278 252.983 313.265 252.726 313.009 252.56L311.099 251.457C310.946 251.381 310.777 251.342 310.606 251.342C310.435 251.342 310.266 251.381 310.112 251.457L303.934 255.022C303.665 255.176 303.678 255.432 303.934 255.599L305.844 256.702ZM332.953 241.044C333.106 241.122 333.275 241.164 333.447 241.164C333.618 241.164 333.788 241.122 333.94 241.044L340.131 237.466C340.387 237.312 340.375 237.056 340.131 236.902L338.234 235.799C338.081 235.723 337.912 235.684 337.741 235.684C337.569 235.684 337.401 235.723 337.247 235.799L331.056 239.377C330.8 239.531 330.813 239.787 331.056 239.941L332.953 241.044ZM347.975 249.726C348.129 249.801 348.298 249.841 348.469 249.841C348.64 249.841 348.809 249.801 348.962 249.726L355.153 246.16C355.41 246.007 355.397 245.75 355.153 245.583L347.911 241.467C347.758 241.391 347.589 241.352 347.418 241.352C347.247 241.352 347.078 241.391 346.924 241.467L340.746 245.032C340.477 245.186 340.49 245.442 340.746 245.609L347.975 249.726ZM370.573 272.667L376.751 269.09C377.02 268.936 377.007 268.692 376.751 268.525L369.599 264.396C369.446 264.317 369.277 264.276 369.105 264.276C368.934 264.276 368.764 264.317 368.612 264.396L362.421 267.974C362.165 268.128 362.177 268.371 362.421 268.538L369.573 272.667C369.727 272.748 369.899 272.791 370.073 272.791C370.247 272.791 370.419 272.748 370.573 272.667ZM314.88 251.482C315.033 251.561 315.202 251.602 315.374 251.602C315.546 251.602 315.715 251.561 315.867 251.482L322.058 247.905C322.315 247.763 322.302 247.507 322.058 247.34L320.148 246.237C319.995 246.162 319.826 246.122 319.655 246.122C319.484 246.122 319.315 246.162 319.161 246.237L312.983 249.802C312.714 249.956 312.74 250.213 312.983 250.38L314.88 251.482ZM241.295 297.02C241.448 297.096 241.617 297.135 241.788 297.135C241.959 297.135 242.128 297.096 242.282 297.02L248.472 293.442C248.729 293.288 248.716 293.032 248.472 292.878L241.32 288.749C241.168 288.67 240.998 288.629 240.827 288.629C240.655 288.629 240.486 288.67 240.333 288.749L234.155 292.326C233.886 292.468 233.912 292.724 234.155 292.891L241.295 297.02Z" fill="#E0E0E0"/>
<path d="M278.039 353.225L345.729 314.125L387.386 338.183L319.696 377.283L278.039 353.225Z" fill="#263238"/>
<path d="M187.415 121.358L389.1 4.85249C393.048 2.56984 396.278 4.44212 396.278 8.99461V165.292C396.21 166.447 395.874 167.571 395.295 168.573C394.717 169.575 393.912 170.427 392.945 171.063L186.133 290.518C184.3 291.569 182.801 290.71 182.801 288.594V129.347C182.893 127.747 183.358 126.191 184.16 124.804C184.961 123.417 186.076 122.236 187.415 121.358Z" fill="#F5F5F5"/>
<path d="M396.282 12.7375V8.99289C396.282 4.44041 393.052 2.58095 389.104 4.85078L187.419 121.356C186.08 122.235 184.965 123.415 184.163 124.802C183.362 126.19 182.897 127.745 182.805 129.345V136.052L396.282 12.7375Z" fill="#263238"/>
<path d="M366.193 21.2669C365.482 21.7423 364.892 22.3769 364.469 23.1205C364.047 23.864 363.803 24.6959 363.758 25.5501C363.758 27.1274 364.873 27.7686 366.232 26.9735C366.953 26.509 367.553 25.8795 367.983 25.137C368.414 24.3945 368.661 23.5602 368.705 22.7032C368.667 21.1258 367.603 20.4847 366.193 21.2669Z" fill="#E0E0E0"/>
<path d="M375.997 15.6124C375.276 16.0797 374.675 16.7116 374.245 17.4562C373.815 18.2008 373.568 19.0368 373.523 19.8955C373.523 21.4729 374.626 22.1013 375.997 21.319C376.723 20.8443 377.326 20.2038 377.756 19.4502C378.187 18.6965 378.432 17.8514 378.471 16.9845C378.471 15.4585 377.356 14.8173 375.997 15.6124Z" fill="#E0E0E0"/>
<path d="M385.81 9.94269C385.09 10.4116 384.49 11.0438 384.061 11.7881C383.631 12.5323 383.382 13.3676 383.336 14.2259C383.336 15.8032 384.438 16.4444 385.81 15.6493C386.527 15.1818 387.124 14.5513 387.552 13.8092C387.979 13.0671 388.226 12.2344 388.271 11.379C388.271 9.80162 387.168 9.16043 385.81 9.94269Z" fill="#E0E0E0"/>
<path d="M182.805 136.053V166.125L396.269 42.8231V12.7383L182.805 136.053Z" fill="#BA68C8"/>
<path opacity="0.1" d="M182.805 136.053V166.125L396.269 42.8231V12.7383L182.805 136.053Z" fill="black"/>
<path d="M196.788 150.453C196.07 150.676 195.308 150.716 194.571 150.569V135.834C194.565 135.554 194.626 135.277 194.75 135.026C194.903 134.784 195.115 134.586 195.365 134.449L196.468 133.821C196.75 133.654 196.955 133.603 197.083 133.68C197.211 133.756 197.275 133.949 197.275 134.269V139.117C197.684 138.482 198.176 137.904 198.736 137.398C199.332 136.858 199.985 136.385 200.685 135.988C202.3 135.052 203.543 134.834 204.427 135.359C205.312 135.885 205.709 137.078 205.709 138.924C205.731 140.997 205.2 143.038 204.171 144.836C203.075 146.69 201.504 148.218 199.621 149.261C198.736 149.787 197.783 150.188 196.788 150.453ZM202.146 144.439C202.749 143.248 203.044 141.926 203.005 140.592C203.005 139.309 202.774 138.54 202.325 138.219C201.877 137.899 201.12 138.027 200.057 138.642C199.298 139.089 198.639 139.687 198.121 140.399C197.589 141.062 197.292 141.883 197.275 142.733V147.786C197.614 147.822 197.956 147.778 198.275 147.658C198.72 147.512 199.149 147.323 199.557 147.093C200.654 146.472 201.552 145.552 202.146 144.439Z" fill="#FAFAFA"/>
<path d="M208.021 143.828C207.893 143.739 207.829 143.559 207.829 143.251V128.17C207.821 127.889 207.887 127.61 208.021 127.362C208.167 127.115 208.38 126.915 208.636 126.785L209.777 126.131C210.059 125.965 210.264 125.926 210.392 125.99C210.52 126.054 210.585 126.26 210.585 126.58V141.661C210.597 141.933 210.535 142.204 210.405 142.443C210.255 142.695 210.037 142.899 209.777 143.033L208.636 143.687C208.341 143.854 208.136 143.944 208.021 143.828Z" fill="#FAFAFA"/>
<path d="M214.216 139.131C213.203 138.58 212.703 137.336 212.703 135.374C212.698 133.432 213.221 131.526 214.216 129.859C215.262 128.106 216.752 126.66 218.535 125.666C220.394 124.589 221.842 124.384 222.855 124.871C223.867 125.358 224.38 126.666 224.38 128.628C224.387 130.572 223.86 132.48 222.855 134.143C221.809 135.9 220.319 137.351 218.535 138.349C216.664 139.426 215.228 139.683 214.216 139.131ZM220.855 133.642C221.403 132.581 221.676 131.4 221.65 130.206C221.65 128.923 221.381 128.09 220.855 127.718C220.33 127.346 219.573 127.461 218.535 128.051C217.558 128.601 216.754 129.414 216.215 130.398C215.661 131.448 215.383 132.622 215.408 133.809C215.408 135.109 215.677 135.964 216.215 136.374C216.754 136.759 217.497 136.656 218.535 136.079C219.52 135.516 220.325 134.685 220.855 133.681V133.642Z" fill="#FAFAFA"/>
<path d="M229.545 135.565C228.972 135.799 228.356 135.908 227.738 135.886C227.507 135.886 227.456 135.719 227.571 135.437L228.187 133.86C228.235 133.707 228.324 133.569 228.443 133.462C228.514 133.443 228.59 133.443 228.661 133.462C229.761 133.378 230.82 133.011 231.737 132.398C232.607 131.924 233.336 131.23 233.852 130.384C234.336 129.433 234.566 128.373 234.519 127.307C234.14 128.01 233.665 128.657 233.109 129.23C232.53 129.813 231.875 130.313 231.16 130.718C229.558 131.641 228.302 131.859 227.405 131.372C226.508 130.884 226.059 129.705 226.059 127.871C226.042 125.847 226.598 123.86 227.661 122.139C228.817 120.318 230.413 118.818 232.301 117.778C233.157 117.27 234.08 116.886 235.044 116.637C235.751 116.427 236.495 116.379 237.223 116.496V125.024C237.243 126.922 236.803 128.796 235.941 130.487C235.032 132.181 233.652 133.575 231.968 134.501C231.193 134.925 230.382 135.282 229.545 135.565ZM233.762 126.076C234.252 125.347 234.515 124.491 234.519 123.613V119.189C234.161 119.219 233.811 119.305 233.48 119.446C233.036 119.619 232.608 119.829 232.199 120.074C231.126 120.644 230.237 121.507 229.636 122.562C229.034 123.618 228.745 124.823 228.802 126.037C228.802 127.319 229.045 128.038 229.545 128.358C230.045 128.679 230.827 128.525 231.827 127.948C232.612 127.487 233.275 126.845 233.762 126.076Z" fill="#FAFAFA"/>
<path d="M219.242 158.38V264.088C219.242 264.793 219.614 265.152 220.063 264.883C220.323 264.665 220.531 264.392 220.673 264.084C220.815 263.776 220.887 263.44 220.883 263.1V157.393C220.883 156.688 220.511 156.341 220.063 156.611C219.802 156.825 219.592 157.095 219.45 157.402C219.308 157.708 219.237 158.043 219.242 158.38Z" fill="#BA68C8"/>
<path d="M156.769 199.391L203.284 172.461C204.822 171.576 206.065 172.294 206.065 174.064V206.803C206.013 207.767 205.734 208.705 205.25 209.541C204.767 210.377 204.093 211.086 203.284 211.612L156.769 238.478C155.243 239.363 154 238.645 154 236.875V204.213C154.051 203.248 154.328 202.309 154.809 201.471C155.29 200.634 155.961 199.921 156.769 199.391Z" fill="#E0E0E0"/>
<path d="M206.104 174.115C206.104 172.345 204.822 171.627 203.323 172.512L156.808 199.442C156.002 199.971 155.332 200.681 154.851 201.516C154.37 202.352 154.092 203.288 154.039 204.251V207.034L206.104 176.91V174.115Z" fill="#BA68C8"/>
<path d="M159.195 209.998L180.024 197.969V219.026L159.195 231.054V209.998Z" fill="#FAFAFA"/>
<path d="M159.203 227.991L167.009 214.116C167.071 213.976 167.168 213.854 167.291 213.764C167.414 213.673 167.559 213.617 167.711 213.6C167.863 213.583 168.016 213.606 168.156 213.668C168.297 213.729 168.418 213.826 168.509 213.949L171.239 216.95L175.943 206.088C176.225 205.434 176.776 205.37 177.225 205.96L180.07 209.999V218.976L159.242 231.005L159.203 227.991Z" fill="#BA68C8"/>
<path d="M185.238 196.775C185.238 197.775 185.982 198.16 186.905 197.621L199.184 190.529C199.66 190.228 200.058 189.819 200.348 189.336C200.637 188.853 200.809 188.308 200.85 187.747C200.85 186.746 200.107 186.362 199.197 186.9L186.879 193.953C186.401 194.259 186.002 194.674 185.717 195.165C185.432 195.656 185.267 196.208 185.238 196.775Z" fill="#FAFAFA"/>
<path d="M185.238 205.495C185.238 206.496 185.982 206.88 186.905 206.355L199.184 199.25C199.661 198.95 200.061 198.542 200.35 198.059C200.64 197.575 200.811 197.03 200.85 196.467C200.85 195.467 200.107 195.095 199.197 195.621L186.879 202.649C186.399 202.959 186.001 203.379 185.715 203.874C185.43 204.369 185.267 204.925 185.238 205.495Z" fill="#FAFAFA"/>
<path d="M185.238 214.086C185.238 215.099 185.982 215.471 186.905 214.946L199.184 207.841C199.661 207.544 200.061 207.138 200.35 206.657C200.64 206.175 200.811 205.632 200.85 205.071C200.85 204.071 200.107 203.686 199.197 204.212L186.879 211.316C186.407 211.616 186.012 212.023 185.727 212.505C185.442 212.986 185.274 213.528 185.238 214.086Z" fill="#FAFAFA"/>
<path d="M156.769 250.073L203.284 223.207C204.822 222.322 206.065 223.04 206.065 224.81V257.549C206.013 258.513 205.734 259.452 205.25 260.287C204.767 261.123 204.093 261.833 203.284 262.358L156.769 289.288C155.243 290.173 154 289.455 154 287.686V254.882C154.053 253.92 154.331 252.983 154.812 252.148C155.293 251.312 155.963 250.602 156.769 250.073Z" fill="#E0E0E0"/>
<path d="M206.104 224.81C206.104 223.04 204.822 222.322 203.323 223.207L156.808 250.073C156.002 250.602 155.332 251.312 154.851 252.148C154.37 252.983 154.092 253.92 154.039 254.882V257.678L206.104 227.593V224.81Z" fill="#BA68C8"/>
<path d="M159.195 260.677L180.024 248.648V269.705L159.195 281.734V260.677Z" fill="#FAFAFA"/>
<path d="M159.203 278.683L167.009 264.807C167.071 264.667 167.168 264.546 167.291 264.455C167.414 264.364 167.559 264.308 167.711 264.291C167.863 264.274 168.016 264.298 168.156 264.359C168.297 264.42 168.418 264.517 168.509 264.64L171.239 267.628L175.943 256.767C176.225 256.112 176.776 256.061 177.225 256.638L180.07 260.678V269.655L159.242 281.683L159.203 278.683Z" fill="#BA68C8"/>
<path d="M185.238 247.456C185.238 248.456 185.982 248.841 186.905 248.315L199.184 241.211C199.661 240.914 200.061 240.508 200.35 240.026C200.64 239.545 200.811 239.001 200.85 238.441C200.85 237.428 200.107 237.056 199.197 237.582L186.879 244.686C186.407 244.986 186.012 245.393 185.727 245.874C185.442 246.356 185.274 246.898 185.238 247.456Z" fill="#FAFAFA"/>
<path d="M185.238 256.11C185.238 257.123 185.982 257.495 186.905 256.969L199.184 249.865C199.661 249.568 200.061 249.162 200.35 248.68C200.64 248.199 200.811 247.655 200.85 247.095C200.85 246.094 200.107 245.71 199.197 246.235L186.879 253.34C186.407 253.64 186.012 254.047 185.727 254.528C185.442 255.009 185.274 255.551 185.238 256.11Z" fill="#FAFAFA"/>
<path d="M185.238 264.778C185.238 265.779 185.982 266.163 186.905 265.625L199.184 258.533C199.66 258.232 200.058 257.823 200.348 257.34C200.637 256.857 200.809 256.312 200.85 255.75C200.85 254.75 200.107 254.365 199.197 254.904L186.879 261.996C186.408 262.3 186.014 262.71 185.729 263.193C185.445 263.676 185.276 264.219 185.238 264.778Z" fill="#FAFAFA"/>
<path d="M237.649 200.61L380.655 118.012C382.18 117.127 383.423 117.845 383.423 119.615V161.331C383.37 162.293 383.092 163.23 382.611 164.065C382.13 164.9 381.46 165.611 380.655 166.14L237.649 248.738C236.11 249.623 234.867 248.905 234.867 247.135V205.419C234.919 204.455 235.199 203.517 235.682 202.681C236.165 201.846 236.839 201.136 237.649 200.61Z" fill="#E0E0E0"/>
<path d="M383.423 119.576C383.423 117.806 382.141 117.088 380.655 117.973L237.649 200.61C236.839 201.136 236.165 201.845 235.682 202.681C235.199 203.517 234.919 204.455 234.867 205.419V208.202L383.423 122.397V119.576Z" fill="#BA68C8"/>
<path d="M270.194 191.942L241.303 208.613C240.66 209.037 240.124 209.606 239.739 210.274C239.354 210.941 239.131 211.69 239.086 212.46V241.032C239.086 242.442 240.086 243.019 241.303 242.314L270.194 225.643C270.839 225.219 271.375 224.651 271.76 223.983C272.145 223.315 272.368 222.566 272.412 221.796V193.224C272.36 191.813 271.361 191.236 270.194 191.942Z" fill="#FAFAFA"/>
<path d="M249.221 217.039L239.031 238.839V241.096C239.031 242.507 240.031 243.084 241.249 242.379L270.14 225.708C270.784 225.284 271.32 224.716 271.705 224.048C272.09 223.38 272.313 222.63 272.357 221.86V211.909L266.897 201.65C266.23 200.368 265.243 200.432 264.692 201.74L256.091 221.937L251.913 216.731C251.774 216.475 251.562 216.267 251.303 216.132C251.045 215.998 250.753 215.944 250.463 215.977C250.174 216.01 249.901 216.129 249.68 216.318C249.459 216.507 249.299 216.758 249.221 217.039Z" fill="#BA68C8"/>
<path d="M242.377 216.778C243.828 215.831 245.036 214.555 245.903 213.053C246.769 211.552 247.269 209.867 247.363 208.135C247.399 207.22 247.133 206.319 246.606 205.57L241.249 208.661C240.605 209.085 240.07 209.654 239.685 210.322C239.3 210.99 239.076 211.738 239.031 212.508V217.266C239.587 217.461 240.181 217.519 240.764 217.434C241.347 217.349 241.9 217.124 242.377 216.778Z" fill="#BA68C8"/>
<path d="M285.405 185.658L374.692 134.094C375.974 133.375 376.91 133.863 376.91 135.171C376.851 135.909 376.62 136.623 376.234 137.256C375.849 137.888 375.321 138.422 374.692 138.813L285.405 190.39C284.123 191.096 283.188 190.608 283.188 189.3C283.246 188.562 283.478 187.848 283.863 187.215C284.248 186.583 284.776 186.05 285.405 185.658Z" fill="#FAFAFA"/>
<path d="M285.405 197.686L374.692 146.121C375.974 145.403 376.91 145.89 376.91 147.198C376.851 147.936 376.62 148.651 376.234 149.283C375.849 149.916 375.321 150.449 374.692 150.84L285.405 202.418C284.123 203.123 283.188 202.636 283.188 201.328C283.247 200.59 283.479 199.876 283.864 199.244C284.249 198.611 284.777 198.078 285.405 197.686Z" fill="#FAFAFA"/>
<path d="M285.405 209.717L374.692 158.152C375.974 157.434 376.91 157.921 376.91 159.229C376.85 159.969 376.618 160.685 376.233 161.319C375.848 161.954 375.321 162.49 374.692 162.884L285.405 214.475C284.123 215.18 283.188 214.693 283.188 213.385C283.244 212.642 283.473 211.923 283.859 211.286C284.244 210.649 284.774 210.111 285.405 209.717Z" fill="#FAFAFA"/>
<path d="M336.593 68.6761L323.493 68.2785C322.609 67.5347 308.842 51.9922 308.842 51.9922C308.842 51.9922 303.895 59.8019 303.805 60.3021C303.715 60.8022 317.302 75.3317 318.648 76.7936C319.025 77.2848 319.511 77.6825 320.066 77.956C320.622 78.2295 321.233 78.3715 321.852 78.3709C325.403 78.5761 338.695 79.5123 338.695 79.5123L336.593 68.6761Z" fill="#F28F8F"/>
<path d="M355.216 83.7439L335.016 82.2435L336.579 68.6758L357.434 69.1374L355.216 83.7439Z" fill="#BA68C8"/>
<path opacity="0.2" d="M355.216 83.7439L335.016 82.2435L336.579 68.6758L357.434 69.1374L355.216 83.7439Z" fill="black"/>
<path d="M168.781 128.372L311.787 45.7734C313.313 44.8885 314.556 45.6067 314.556 47.3764V89.1053C314.502 90.0676 314.224 91.0038 313.743 91.8389C313.262 92.674 312.592 93.3848 311.787 93.9143L168.781 176.513C167.243 177.398 166 176.68 166 174.91V133.181C166.052 132.217 166.332 131.279 166.815 130.443C167.298 129.607 167.972 128.898 168.781 128.372Z" fill="#E0E0E0"/>
<path d="M314.556 47.3764C314.556 45.6067 313.274 44.8885 311.787 45.7734L168.781 128.372C167.972 128.898 167.298 129.607 166.815 130.443C166.332 131.279 166.052 132.217 166 133.181V135.964L314.556 50.1591V47.3764Z" fill="#BA68C8"/>
<path d="M201.272 119.713L172.382 136.385C171.736 136.806 171.199 137.375 170.813 138.043C170.428 138.711 170.206 139.461 170.164 140.232V168.791C170.164 170.201 171.164 170.778 172.382 170.073L201.272 153.402C201.918 152.98 202.455 152.412 202.841 151.743C203.226 151.075 203.448 150.325 203.49 149.555V120.996C203.49 119.572 202.49 119.008 201.272 119.713Z" fill="#FAFAFA"/>
<path d="M180.418 144.809L170.164 166.546V168.803C170.164 170.213 171.164 170.79 172.382 170.085L201.272 153.414C201.918 152.992 202.455 152.424 202.841 151.756C203.226 151.087 203.448 150.337 203.49 149.567V139.705L198.03 129.446C197.363 128.164 196.376 128.241 195.825 129.536L187.224 149.772L183.046 144.553C182.9 144.32 182.693 144.132 182.447 144.011C182.201 143.89 181.926 143.84 181.653 143.866C181.379 143.893 181.119 143.995 180.901 144.162C180.683 144.328 180.516 144.553 180.418 144.809Z" fill="#BA68C8"/>
<path d="M173.509 144.557C174.961 143.606 176.168 142.327 177.034 140.824C177.9 139.32 178.401 137.634 178.496 135.901C178.53 134.986 178.264 134.085 177.739 133.336L172.382 136.439C171.736 136.861 171.199 137.429 170.813 138.098C170.428 138.766 170.206 139.516 170.164 140.286V145.031C170.718 145.229 171.312 145.289 171.895 145.206C172.478 145.123 173.032 144.901 173.509 144.557Z" fill="#BA68C8"/>
<path d="M216.538 113.421L305.825 61.8691C307.107 61.1638 308.043 61.6383 308.043 62.9463C307.984 63.6864 307.752 64.4024 307.367 65.037C306.982 65.6716 306.454 66.2073 305.825 66.6011L216.538 118.166C215.32 118.871 214.32 118.397 214.32 117.089C214.378 116.347 214.609 115.629 214.994 114.992C215.379 114.355 215.908 113.817 216.538 113.421Z" fill="#FAFAFA"/>
<path d="M216.538 125.447L305.825 73.8822C307.107 73.1769 308.043 73.6642 308.043 74.9594C307.984 75.6994 307.752 76.4154 307.367 77.05C306.982 77.6846 306.454 78.2203 305.825 78.6142L216.538 130.179C215.32 130.897 214.32 130.41 214.32 129.102C214.38 128.362 214.612 127.646 214.997 127.012C215.382 126.378 215.909 125.842 216.538 125.447Z" fill="#FAFAFA"/>
<path d="M216.538 137.529L305.825 85.9642C307.107 85.2589 308.043 85.7462 308.043 87.0414C307.984 87.7815 307.752 88.4974 307.367 89.1321C306.982 89.7667 306.454 90.3024 305.825 90.6962L216.538 142.261C215.32 142.979 214.32 142.492 214.32 141.184C214.38 140.444 214.612 139.729 214.997 139.094C215.382 138.46 215.909 137.924 216.538 137.529Z" fill="#FAFAFA"/>
<path d="M381.008 227.191H373.445V238.22H381.008V227.191Z" fill="#FFA8A7"/>
<path d="M354.402 213.517L346.844 213.777L347.223 224.799L354.781 224.539L354.402 213.517Z" fill="#FFA8A7"/>
<path d="M380.517 119.574C380.517 126.807 381.452 173.576 381.452 173.576C381.632 175.653 383.58 179.487 383.157 187.49C382.593 198.339 381.645 228.526 381.645 228.526C381.645 228.526 378.107 232.053 373.095 228.526C373.095 228.526 366.238 187.554 364.879 176.807C363.7 167.42 361.688 141.913 361.688 141.913L354.741 171.87C354.741 171.87 356.022 178.923 356.253 183.912C356.484 188.9 354.971 217.651 354.971 217.651C353.748 218.421 352.344 218.855 350.9 218.912C349.456 218.968 348.022 218.644 346.742 217.972C346.742 217.972 340.641 175.999 339.808 171.434C338.975 166.869 345.127 119.574 345.127 119.574H380.517Z" fill="#455A64"/>
<path d="M369.132 69.4712H369.235C372.473 70.3001 375.342 72.1875 377.385 74.8338C379.429 77.4801 380.53 80.7336 380.514 84.0777V119.574C375.208 125.345 356.712 128.038 345.125 119.574V82.6414C345.125 76.7424 348.393 69.6508 357.443 69.125L369.132 69.4712Z" fill="#BA68C8"/>
<path d="M371.675 39.2849C372.286 39.2138 372.905 39.2831 373.485 39.4876C374.064 39.692 374.59 40.0262 375.021 40.4647C376.456 41.9266 376.149 44.6453 375.021 50.8777L370.586 51.3907L371.675 39.2849Z" fill="#263238"/>
<path d="M345.853 37.5026C344.897 37.5065 343.95 37.3145 343.071 36.9383C341.713 36.1561 341.367 37.695 342.11 39.0415C342.6 40.0034 343.329 40.8234 344.227 41.4229C345.125 42.0224 346.161 42.3814 347.237 42.4654C347.237 42.2731 348.519 39.003 348.519 39.003L345.853 37.5026Z" fill="#263238"/>
<path d="M369.596 51.3917C370.263 51.7892 371.198 50.5196 372.006 49.6732C372.326 49.3096 372.733 49.0332 373.189 48.87C373.645 48.7068 374.135 48.6623 374.613 48.7405C375.091 48.8187 375.541 49.0171 375.921 49.3171C376.301 49.6171 376.599 50.0088 376.787 50.4555C378.133 53.2896 375.082 57.0598 373.287 58.3037C372.785 58.7401 372.157 59.0062 371.494 59.0638C370.831 59.1213 370.166 58.9675 369.596 58.6243L369.135 69.4733C368.342 71.2135 367.129 72.7293 365.605 73.8843C364.081 75.0393 362.295 75.7974 360.406 76.0905C353.997 76.9625 355.356 71.7047 357.445 69.1271V65.1902C355.853 65.5288 354.218 65.6111 352.6 65.4338C351.767 65.2158 349.793 62.869 348.511 60.1375C347.075 57.1239 344.666 51.7764 346.806 42.7355C349.101 33.0278 359.521 32.7329 365.738 36.6442C371.954 40.5555 369.596 51.3917 369.596 51.3917Z" fill="#FFA8A7"/>
<path d="M369.596 52.5052C369.93 52.5052 371.186 50.4149 372.006 49.6711C373.147 48.6452 371.673 39.2838 371.673 39.2838C371.673 39.2838 372.826 35.7444 370.583 33.3848C368.34 31.0252 363.995 31.4355 360.816 31.3201C356.915 31.3438 353.05 30.5669 349.46 29.0375C344.961 27.0754 344.615 26.8446 344.064 28.8323C343.513 30.82 343.282 35.3468 345.986 38.3989L348.217 39.2196C348.217 39.2196 349.434 40.2969 353.638 40.8098C357.521 41.1029 361.422 41.0256 365.29 40.579C366.507 40.4123 366.776 41.6049 367.43 44.8365C368.007 47.6706 368.494 52.4795 369.596 52.5052Z" fill="#263238"/>
<path d="M371.668 40.0658L375.641 37.9371C375.515 37.6685 375.335 37.4285 375.113 37.2316C374.891 37.0346 374.631 36.8849 374.349 36.7913C374.068 36.6978 373.77 36.6625 373.474 36.6875C373.179 36.7125 372.891 36.7973 372.629 36.9368C372.098 37.235 371.702 37.7263 371.523 38.3088C371.344 38.8914 371.396 39.5206 371.668 40.0658Z" fill="#263238"/>
<path d="M357.457 65.1898C360.174 64.671 362.838 63.907 365.417 62.9072C366.622 62.268 367.612 61.2864 368.262 60.0859C367.952 61.2901 367.403 62.4196 366.647 63.4073C365.135 65.3309 357.457 66.7544 357.457 66.7544V65.1898Z" fill="#F28F8F"/>
<path d="M358.869 49.9152C358.886 50.147 358.971 50.3687 359.113 50.5529C359.255 50.7371 359.447 50.8758 359.667 50.9521C359.886 51.0283 360.123 51.0387 360.348 50.982C360.574 50.9253 360.778 50.804 360.935 50.6329C361.092 50.4618 361.196 50.2485 361.234 50.0191C361.271 49.7898 361.241 49.5544 361.147 49.3419C361.053 49.1294 360.899 48.9491 360.704 48.8231C360.508 48.6971 360.28 48.631 360.048 48.6328C359.886 48.6377 359.726 48.675 359.579 48.7425C359.431 48.81 359.299 48.9063 359.189 49.0257C359.079 49.1452 358.994 49.2854 358.939 49.4382C358.884 49.5909 358.86 49.7531 358.869 49.9152Z" fill="#263238"/>
<path d="M360.125 45.4524L362.689 46.8502C362.869 46.5035 362.909 46.1001 362.799 45.7247C362.689 45.3494 362.438 45.0312 362.099 44.8369C361.931 44.7383 361.744 44.6759 361.551 44.6537C361.358 44.6314 361.162 44.6499 360.976 44.7079C360.79 44.7658 360.618 44.862 360.472 44.9902C360.325 45.1184 360.207 45.2759 360.125 45.4524Z" fill="#263238"/>
<path d="M358.953 57.9297L356.262 58.9423C356.319 59.1242 356.413 59.2925 356.538 59.4371C356.662 59.5816 356.815 59.6994 356.986 59.7833C357.157 59.8672 357.344 59.9154 357.535 59.9251C357.725 59.9348 357.916 59.9056 358.095 59.8395C358.457 59.6934 358.748 59.4132 358.908 59.0573C359.068 58.7013 359.084 58.2973 358.953 57.9297Z" fill="#F28F8F"/>
<path d="M348.329 46.4789L350.636 44.6964C350.528 44.5411 350.389 44.4094 350.229 44.3093C350.068 44.2092 349.889 44.1427 349.702 44.1139C349.515 44.0851 349.324 44.0946 349.141 44.1419C348.958 44.1891 348.786 44.273 348.636 44.3886C348.328 44.6319 348.124 44.984 348.067 45.3726C348.01 45.7612 348.104 46.157 348.329 46.4789Z" fill="#263238"/>
<path d="M349.051 49.583C349.037 49.7463 349.057 49.9108 349.11 50.066C349.163 50.2212 349.247 50.3637 349.358 50.4844C349.469 50.605 349.604 50.7012 349.754 50.7668C349.904 50.8324 350.067 50.866 350.231 50.8654C350.487 50.886 350.745 50.8287 350.968 50.7009C351.192 50.5731 351.372 50.3807 351.485 50.149C351.598 49.9172 351.639 49.6568 351.601 49.4017C351.564 49.1465 351.451 48.9086 351.276 48.7188C351.102 48.5291 350.874 48.3964 350.623 48.338C350.372 48.2796 350.11 48.2983 349.869 48.3916C349.629 48.4849 349.422 48.6485 349.277 48.861C349.131 49.0735 349.052 49.3251 349.051 49.583Z" fill="#263238"/>
<path d="M355.059 48.4648L354.674 55.5693L350.957 54.3125L355.059 48.4648Z" fill="#F28F8F"/>
<path d="M373.451 234.475V233.398C372.72 233.706 371.041 240.131 368.042 242.875C365.645 245.055 362.389 247.569 361.569 249.992C360.749 252.416 366.106 253.916 368.337 253.519C370.9 253.057 375.412 251.236 376.54 249.543C377.668 247.851 378.193 245.35 379.104 244.119C380.014 242.888 382.128 241.49 382.628 240.054C382.777 238.713 382.628 237.355 382.193 236.078C381.846 234.796 381.462 233.27 381.001 233.398V234.219C379.926 235.071 378.59 235.525 377.219 235.501C376.13 235.54 373.438 235.322 373.451 234.475Z" fill="#263238"/>
<path d="M347.139 222.487C346.742 222.487 346.421 223.051 345.55 224C344.257 225.31 342.753 226.394 341.102 227.206C338.269 228.617 332.758 230.797 330.271 231.925C328.708 232.631 328.784 234.49 330.387 235.58C331.989 236.67 335.885 237.427 340.564 236.375C343.127 235.811 346.409 233.464 348.511 233.593C350.613 233.721 354.522 233.682 356.073 232.618C357.624 231.554 356.996 229.271 356.56 227.322C356.086 225.18 355.394 221.91 354.689 222.064V222.731C353.779 224.103 349.152 224.667 347.152 223.654L347.139 222.487Z" fill="#263238"/>
<path d="M371.404 74.3984L348.024 98.5843C348.024 98.5843 327.516 94.9167 320.518 92.9033C318.313 92.2749 316.775 88.9792 316.288 86.4914C316.163 85.196 315.532 84.0023 314.532 83.17C314.532 83.17 314.532 84.9781 314.07 87.9405C313.891 89.2229 311.866 89.3896 310.059 89.7871C303.65 91.1721 301.471 89.7871 298.818 91.6338C296.767 93.0957 299.343 96.8915 304.021 98.1739C310.597 99.9821 314.276 99.0844 318.223 100.072C321.312 100.841 343.538 107.766 347.768 108.741C349.998 109.228 351.703 109.074 354.177 106.676C356.651 104.278 375.057 88.1713 375.057 88.1713L371.404 74.3984Z" fill="#FFA8A7"/>
<path d="M372.439 73.5598C369.876 72.9058 354.238 91.5133 354.238 91.5133L362.852 98.7459C362.852 98.7459 374.003 91.4363 375.977 88.4868C377.951 85.5373 380.194 75.4962 372.439 73.5598Z" fill="#BA68C8"/>
<path d="M363.416 99.2363C363.416 99.2363 375.183 88.6951 375.734 87.5409C376.798 85.3224 376.503 81.2188 376.503 81.2188C376.503 81.2188 377.785 84.7838 376.503 87.5409C375.221 90.2981 366.249 98.1335 364.826 99.48L363.378 100.839L361.98 99.5569L362.814 98.826L363.416 99.2363Z" fill="#BA68C8"/>
<path opacity="0.2" d="M363.416 99.2363C363.416 99.2363 375.183 88.6951 375.734 87.5409C376.798 85.3224 376.503 81.2188 376.503 81.2188C376.503 81.2188 377.785 84.7838 376.503 87.5409C375.221 90.2981 366.249 98.1335 364.826 99.48L363.378 100.839L361.98 99.5569L362.814 98.826L363.416 99.2363Z" fill="black"/>
<path d="M304.301 47.0427C306.865 46.7606 308.569 44.8627 309.146 45.3884C309.38 45.6375 309.516 45.9625 309.53 46.3039C309.545 46.6452 309.435 46.9803 309.223 47.2479C308.04 48.1469 306.748 48.8924 305.378 49.4664C305.057 50.7699 304.825 52.0938 304.686 53.429C304.468 55.3911 304.545 59.3152 302.866 60.6489C297.854 64.6756 296.572 58.2893 296.764 54.0061C297.059 48.6842 301.622 47.3377 304.301 47.0427Z" fill="#F28F8F"/>
</svg>
