<svg width="552" height="466" viewBox="0 0 552 466" fill="none" xmlns="http://www.w3.org/2000/svg">
<path d="M62.8411 456.224C62.8411 456.224 33.5747 393.902 39.9313 392.106C46.288 390.311 59.6156 400.233 59.6156 400.233C59.6156 400.233 20.5071 295.458 30.6327 287.331C40.7584 279.204 59.6628 320.795 59.6628 320.795C59.6628 320.795 39.4706 256.619 41.8454 232.203C44.2203 207.787 69.8712 231.305 69.8712 231.305C69.8712 231.305 49.3245 143.693 68.4061 139.169C87.4877 134.645 86.8497 239.42 86.8497 239.42C86.8497 239.42 93.1118 164.447 100.756 185.225C108.401 206.003 92.332 275.542 92.332 275.542C92.332 275.542 102.812 252.059 108.637 273.735C114.462 295.411 97.0581 383.023 97.0581 383.023C97.0581 383.023 111.851 368.576 113.233 386.637C114.616 404.698 82.608 460.7 82.608 460.7L64.4953 462.543L62.8411 456.224Z" fill="#BA68C8"/>
<path opacity="0.6" d="M62.8411 456.224C62.8411 456.224 33.5747 393.902 39.9313 392.106C46.288 390.311 59.6156 400.233 59.6156 400.233C59.6156 400.233 20.5071 295.458 30.6327 287.331C40.7584 279.204 59.6628 320.795 59.6628 320.795C59.6628 320.795 39.4706 256.619 41.8454 232.203C44.2203 207.787 69.8712 231.305 69.8712 231.305C69.8712 231.305 49.3245 143.693 68.4061 139.169C87.4877 134.645 86.8497 239.42 86.8497 239.42C86.8497 239.42 93.1118 164.447 100.756 185.225C108.401 206.003 92.332 275.542 92.332 275.542C92.332 275.542 102.812 252.059 108.637 273.735C114.462 295.411 97.0581 383.023 97.0581 383.023C97.0581 383.023 111.851 368.576 113.233 386.637C114.616 404.698 82.608 460.7 82.608 460.7L64.4953 462.543L62.8411 456.224Z" fill="white"/>
<path d="M69.0796 458.999C69.0796 458.999 44.6929 415.648 49.2063 407.51C53.7198 399.371 67.2719 418.353 67.2719 418.353C67.2719 418.353 36.5522 341.573 41.0774 334.356C45.6027 327.139 60.0527 358.748 60.0527 358.748C60.0527 358.748 54.6532 253.016 63.6564 256.619C72.6596 260.222 73.5576 310.814 73.5576 310.814C73.5576 310.814 68.1462 190.694 76.2751 194.309C84.404 197.924 83.506 331.592 83.506 331.592C83.506 331.592 99.7638 280.102 102.41 303.585C105.057 327.068 81.6392 390.299 81.6392 390.299C81.6392 390.299 104.277 340.616 107.03 366.863C109.783 393.11 88.9174 441.777 88.9174 441.777C88.9174 441.777 97.0463 421.909 97.0463 432.741C97.0463 443.573 90.7251 457.133 90.7251 457.133" stroke="#263238" stroke-linecap="round" stroke-linejoin="round"/>
<path d="M38.6199 407.568L23.0592 458.834H65.2042L81.2375 407.84L38.6199 407.568Z" fill="#263238" stroke="#263238" stroke-linecap="round" stroke-linejoin="round"/>
<path d="M136.887 458.751H49.0646L38.6199 407.568H126.443L136.887 458.751Z" fill="white" stroke="#263238" stroke-linecap="round" stroke-linejoin="round"/>
<path d="M127.837 450.092H54.5823L49.1118 423.314H122.366L127.837 450.092Z" stroke="#263238" stroke-linecap="round" stroke-linejoin="round"/>
<path d="M55.4094 423.42L60.8326 449.974" stroke="#263238" stroke-linecap="round" stroke-linejoin="round"/>
<path d="M62.1322 423.42L67.5554 449.974" stroke="#263238" stroke-linecap="round" stroke-linejoin="round"/>
<path d="M68.8551 423.42L74.2783 449.974" stroke="#263238" stroke-linecap="round" stroke-linejoin="round"/>
<path d="M75.5662 423.42L80.9894 449.974" stroke="#263238" stroke-linecap="round" stroke-linejoin="round"/>
<path d="M82.2891 423.42L87.7123 449.974" stroke="#263238" stroke-linecap="round" stroke-linejoin="round"/>
<path d="M89.012 423.42L94.4352 449.974" stroke="#263238" stroke-linecap="round" stroke-linejoin="round"/>
<path d="M95.723 423.42L101.146 449.974" stroke="#263238" stroke-linecap="round" stroke-linejoin="round"/>
<path d="M102.446 423.42L107.869 449.974" stroke="#263238" stroke-linecap="round" stroke-linejoin="round"/>
<path d="M109.157 423.42L114.58 449.974" stroke="#263238" stroke-linecap="round" stroke-linejoin="round"/>
<path d="M115.88 423.42L121.303 449.974" stroke="#263238" stroke-linecap="round" stroke-linejoin="round"/>
<path d="M50.3643 428.606H123.205" stroke="#263238" stroke-linecap="round" stroke-linejoin="round"/>
<path d="M51.4512 433.945H124.292" stroke="#263238" stroke-linecap="round" stroke-linejoin="round"/>
<path d="M52.5501 439.296H125.379" stroke="#263238" stroke-linecap="round" stroke-linejoin="round"/>
<path d="M53.6371 444.635H126.478" stroke="#263238" stroke-linecap="round" stroke-linejoin="round"/>
<path d="M81.0248 418.684H48.4974L47.9775 416.085H80.4931L81.0248 418.684Z" fill="#263238"/>
<path d="M524.9 327.883H418.965C413.98 328.001 409.201 329.897 405.492 333.228C401.782 336.56 399.387 341.107 398.737 346.05L385.74 460.901H509.8L524.9 327.883Z" fill="white" stroke="#263238" stroke-linecap="round" stroke-linejoin="round"/>
<path d="M525.456 327.883C521.314 327.98 517.344 329.555 514.262 332.324C511.181 335.093 509.192 338.872 508.654 342.979L495.291 460.901H525.467L538.842 342.979C539.118 341.078 538.975 339.14 538.424 337.3C537.874 335.459 536.928 333.761 535.654 332.324C534.379 330.887 532.806 329.745 531.045 328.978C529.284 328.211 527.376 327.837 525.456 327.883Z" fill="#263238" stroke="#263238" stroke-linecap="round" stroke-linejoin="round"/>
<path d="M384.641 293.379C377.196 298.694 369.15 303.11 360.668 306.538C345.627 312.798 339.578 314.688 339.578 314.688L343.749 458.562H452.945C452.945 458.562 438.944 368.352 438.944 338.077C438.944 307.802 440.197 301.896 440.197 301.896L404.278 292.706L384.641 293.379Z" fill="#BA68C8" stroke="#263238" stroke-linecap="round" stroke-linejoin="round"/>
<path d="M372.732 299.439C369.327 323.875 367.307 348.483 366.682 373.147C366.056 410.108 373.157 459.377 373.157 459.377H293.156C303.104 440.563 310.219 420.382 314.27 399.489C320.177 369.568 324.903 318.846 326.156 318.22C327.408 317.594 369.813 301.896 372.732 299.439Z" fill="#263238" stroke="#263238" stroke-linecap="round" stroke-linejoin="round"/>
<path d="M336.4 459.389C336.4 459.389 328.247 404.261 328.661 391.315C329.074 378.369 331.13 334.521 331.13 334.521" stroke="#616161" stroke-linecap="round" stroke-linejoin="round"/>
<path d="M417.641 295.682C417.641 295.682 407.409 342.66 406.57 381.298C405.732 419.936 403.026 459.602 403.026 459.602H467.714C467.714 459.602 468.553 424.307 467.714 412.199C466.876 400.091 466.876 402.596 466.876 402.596L491.947 409.069C491.947 409.069 475.855 331.592 472.937 323.04C470.018 314.487 471.472 311.759 469.593 310.294C467.714 308.829 417.641 295.682 417.641 295.682Z" fill="#263238" stroke="#263238" stroke-linecap="round" stroke-linejoin="round"/>
<path d="M300.8 427.449C302.487 430.033 304.469 432.412 306.708 434.536C309.579 436.993 315.735 435.717 319.008 439.072C322.28 442.427 318.7 452.668 314.565 456.247C307.476 462.354 311.233 443.821 311.233 443.821C308.733 445.534 305.972 446.83 303.057 447.66C299.04 448.581 288.701 445.439 285.24 445.297C281.778 445.155 276.969 444.494 275.126 440.643C273.283 436.792 284.72 432.15 289.8 430.307C293.389 429.076 297.066 428.12 300.8 427.449Z" fill="white" stroke="#263238" stroke-linecap="round" stroke-linejoin="round"/>
<path d="M278.918 432.882C277.826 432.591 276.672 432.626 275.599 432.983C274.526 433.34 273.581 434.003 272.881 434.891C270.518 437.997 265.792 452.03 267.174 454.735C268.556 457.44 272.137 453.649 273.838 449.195C274.563 447.049 275.531 444.992 276.721 443.065C276.721 443.065 278.588 443.974 279.899 441.541C281.211 439.108 282.534 435.458 278.918 432.882Z" fill="white" stroke="#263238" stroke-linecap="round" stroke-linejoin="round"/>
<path d="M285.606 430.437C284.461 429.779 283.124 429.537 281.821 429.752C280.518 429.967 279.329 430.627 278.458 431.619C275.138 435.162 277.418 450.058 279.178 454.617C280.939 459.177 284.271 458.61 284.767 455.798C285.263 452.987 285.83 438.966 286.008 435.717C286.154 433.947 286.019 432.165 285.606 430.437Z" fill="white" stroke="#263238" stroke-linecap="round" stroke-linejoin="round"/>
<path d="M292.695 428.831C291.565 428.12 290.214 427.847 288.897 428.065C287.579 428.282 286.388 428.975 285.547 430.012C282.25 433.756 284.684 449.514 286.492 454.357C288.3 459.2 291.632 458.633 292.104 455.621C292.577 452.609 293.002 437.808 293.144 434.359C293.265 432.504 293.113 430.642 292.695 428.831Z" fill="white" stroke="#263238" stroke-linecap="round" stroke-linejoin="round"/>
<path d="M303.069 430.744C303.069 430.744 300.316 424.59 295.826 425.606C291.336 426.622 289.918 432.693 290.746 441.907C291.573 451.12 293.298 458.444 295.802 458.704C298.307 458.964 301.037 453.4 301.533 446.207C302.029 439.013 302.773 434.713 302.773 434.713" fill="white"/>
<path d="M303.069 430.744C303.069 430.744 300.316 424.59 295.826 425.606C291.336 426.622 289.918 432.693 290.746 441.907C291.573 451.12 293.298 458.444 295.802 458.704C298.307 458.964 301.037 453.4 301.533 446.207C302.029 439.013 302.773 434.713 302.773 434.713" stroke="#263238" stroke-linecap="round" stroke-linejoin="round"/>
<path d="M360.798 366.355H332.95V409.092H360.798V366.355Z" fill="#BA68C8" stroke="#263238" stroke-linecap="round" stroke-linejoin="round"/>
<path d="M348.818 353.905H343.69V373.679H348.818V353.905Z" fill="white" stroke="#263238" stroke-linecap="round" stroke-linejoin="round"/>
<path d="M351.748 378.321H339.779V393.949H351.748V378.321Z" fill="white" stroke="#263238" stroke-linecap="round" stroke-linejoin="round"/>
<path d="M337.829 398.591H354.193" stroke="#263238" stroke-linecap="round" stroke-linejoin="round"/>
<path d="M335.384 402.005H356.391" stroke="#263238" stroke-linecap="round" stroke-linejoin="round"/>
<path d="M381.723 287.331C381.723 287.331 372.732 293.379 371.089 298.187C369.447 302.994 362.523 323.453 359.806 331.178C357.088 338.904 341.634 345.589 343.725 347.054C345.816 348.519 366.08 350.385 366.08 350.385C366.08 350.385 370.676 368.352 371.715 372.947C372.755 377.542 379.029 391.527 379.029 391.527C379.029 391.527 397.615 369.179 400.545 363.178C402.558 359.12 404.86 355.212 407.433 351.484C407.433 351.484 415.373 353.362 420.43 354.201C425.487 355.039 439.228 356.28 438.602 353.988C437.975 351.696 431.087 341.668 428.37 331.852C425.652 322.036 427.318 300.525 423.986 292.174C420.654 283.823 413.352 282.571 410.824 281.945C408.296 281.319 385.48 283.776 381.723 287.331Z" fill="#BA68C8" stroke="#263238" stroke-linecap="round" stroke-linejoin="round"/>
<path d="M378.793 280.858C378.793 280.858 381.51 296.096 381.156 308.416C380.801 320.736 376.347 348.306 376.56 362.504C376.771 371.936 377.537 381.347 378.852 390.689C378.852 390.689 399.328 362.504 406.842 339.529C414.357 316.554 416.448 296.934 416.448 295.47C416.448 294.005 416.862 259.974 416.862 259.974C416.862 259.974 395.086 282.736 378.793 280.858Z" fill="white" stroke="#263238" stroke-linecap="round" stroke-linejoin="round"/>
<path d="M416.637 274.42C416.72 266.766 416.802 259.974 416.802 259.974C416.802 259.974 395.086 282.736 378.793 280.858C378.793 280.858 379.561 285.146 380.211 291.016C382.342 292.476 384.708 293.559 387.205 294.217C394.743 295.729 403.191 291.512 408.922 284.271C411.037 281.602 413.837 277.964 416.637 274.42Z" fill="#263238" stroke="#263238" stroke-linecap="round" stroke-linejoin="round"/>
<path d="M431.536 205.259C443.014 205.259 452.319 196.052 452.319 184.694C452.319 173.336 443.014 164.128 431.536 164.128C420.058 164.128 410.753 173.336 410.753 184.694C410.753 196.052 420.058 205.259 431.536 205.259Z" fill="#263238" stroke="#263238" stroke-linecap="round" stroke-linejoin="round"/>
<path d="M347.376 220.627C347.376 220.627 336.222 217.603 334.379 211.578C332.536 205.554 339.212 184.41 360.928 173.578C382.645 162.746 402.565 168.747 411.308 171.157C420.052 173.566 426.396 178.102 432.127 194.084C437.857 210.066 438.153 222.434 436.345 228.458C435.27 232.06 433.96 235.588 432.422 239.018C432.422 239.018 421.269 240.2 418.244 235.699C415.219 231.199 416.436 208.531 403.463 203.133C390.49 197.734 365.761 200.77 359.747 206.145C353.733 211.519 347.376 220.627 347.376 220.627Z" fill="#263238" stroke="#263238" stroke-linecap="round" stroke-linejoin="round"/>
<path d="M345.568 216.705C345.568 216.705 348.286 233.892 348.286 243.236C348.286 252.579 355.824 265.561 359.747 269.223C363.669 272.884 376.642 285.205 384.181 286.717C391.719 288.229 400.167 284 405.897 276.759C411.627 269.518 422.793 255.048 422.793 255.048C425.282 255.325 427.791 254.724 429.883 253.347C431.976 251.971 433.522 249.907 434.254 247.512C437.278 238.759 435.766 228.813 430.638 227.608C425.51 226.403 421.895 232.427 421.895 232.427C421.895 232.427 417.665 216.15 412.242 207.999L404.396 196.187L414.404 183.678C414.513 183.542 414.594 183.385 414.64 183.217C414.686 183.049 414.697 182.873 414.673 182.7C414.649 182.527 414.589 182.362 414.498 182.213C414.407 182.064 414.287 181.935 414.144 181.835C413.875 181.642 413.542 181.561 413.214 181.607C412.886 181.653 412.589 181.824 412.384 182.083L402.589 194.687C402.589 194.687 383.283 191.368 366.387 199.813C349.491 208.259 345.568 216.705 345.568 216.705Z" fill="white" stroke="#263238" stroke-linecap="round" stroke-linejoin="round"/>
<path d="M407.551 233.679L404.834 237.307" stroke="#263238" stroke-linecap="round" stroke-linejoin="round"/>
<path d="M370.309 254.398C370.309 254.398 370.912 256.206 374.835 257.116C376.665 257.542 378.579 257.427 380.346 256.785C382.112 256.143 383.653 255.002 384.783 253.5" stroke="#263238" stroke-linecap="round" stroke-linejoin="round"/>
<path d="M374.846 264.096C378.566 264.935 382.44 264.793 386.088 263.683C389.735 262.573 393.032 260.533 395.653 257.765C395.653 257.765 392.947 269.223 387.512 271.337C382.077 273.452 381.782 267.711 381.782 267.711L374.846 264.096Z" stroke="#263238" stroke-linecap="round" stroke-linejoin="round"/>
<path d="M385.693 241.133C388.192 238.78 391.235 237.081 394.549 236.187C397.864 235.292 401.348 235.23 404.692 236.006" stroke="#263238" stroke-width="2" stroke-linecap="round" stroke-linejoin="round"/>
<path d="M366.08 240.53C366.08 240.53 359.451 233.892 352.504 237.507" stroke="#263238" stroke-width="2" stroke-linecap="round" stroke-linejoin="round"/>
<path d="M350.401 236.006L353.709 239.326" stroke="#263238" stroke-linecap="round" stroke-linejoin="round"/>
<path d="M383.578 224.844C383.578 224.844 392.569 214.484 405.566 224.241" stroke="#263238" stroke-linecap="round" stroke-linejoin="round"/>
<path d="M365.477 224.537C365.477 224.537 357.336 218.204 349.184 225.447" stroke="#263238" stroke-linecap="round" stroke-linejoin="round"/>
<path d="M392.794 239.515C392.806 239.81 392.728 240.101 392.572 240.35C392.415 240.6 392.187 240.797 391.917 240.915C391.647 241.033 391.348 241.067 391.058 241.013C390.769 240.958 390.502 240.817 390.294 240.609C390.086 240.401 389.945 240.134 389.89 239.845C389.836 239.555 389.87 239.256 389.988 238.986C390.106 238.716 390.303 238.488 390.552 238.331C390.802 238.175 391.093 238.097 391.388 238.109C391.756 238.124 392.105 238.276 392.366 238.537C392.627 238.798 392.779 239.147 392.794 239.515Z" fill="#263238"/>
<path d="M358.305 238.251C358.307 238.541 358.224 238.826 358.064 239.068C357.904 239.311 357.676 239.5 357.409 239.613C357.141 239.726 356.846 239.757 356.562 239.701C356.277 239.646 356.014 239.508 355.808 239.303C355.602 239.099 355.462 238.838 355.404 238.553C355.347 238.269 355.375 237.973 355.485 237.705C355.596 237.437 355.784 237.207 356.025 237.046C356.266 236.884 356.55 236.798 356.84 236.798C357.227 236.798 357.597 236.951 357.872 237.223C358.146 237.495 358.302 237.865 358.305 238.251Z" fill="#263238"/>
<path d="M429.587 208.838C429.587 208.838 430.626 222.41 428.121 232.64L432.091 233.892C432.091 233.892 435.222 218.229 433.757 209.464L429.587 208.838Z" fill="#BA68C8" stroke="#263238" stroke-linecap="round" stroke-linejoin="round"/>
<path d="M402.601 169.137C406.968 171.316 410.861 174.338 414.053 178.031C417.245 181.723 419.673 186.011 421.198 190.647C425.995 206.097 425.369 210.905 428.287 212.571C431.205 214.236 436.853 215.287 437.054 211.531C437.255 207.775 435.955 191.013 427.602 180.618C421.34 172.704 407.823 169.349 402.601 169.137Z" fill="#BA68C8" stroke="#263238" stroke-linecap="round" stroke-linejoin="round"/>
<path d="M431.241 229.651C425.227 227.809 418.622 232.014 416.472 238.995C414.487 245.456 417.015 252.048 422.143 254.481C418.378 264.045 412.779 272.781 405.661 280.196C404.275 280.026 402.876 280.38 401.738 281.189C399.588 282.642 398.642 285.016 399.647 286.504C400.651 287.993 403.191 288.016 405.354 286.575C407.516 285.134 408.284 283.031 407.598 281.59C414.877 273.995 420.586 265.04 424.4 255.237C430.142 256.418 436.215 252.307 438.235 245.657C440.386 238.664 437.255 231.494 431.241 229.651Z" fill="#BA68C8" stroke="#263238" stroke-linecap="round" stroke-linejoin="round"/>
<path d="M436.345 243.306C435.329 247.771 431.3 250.677 427.342 249.779C423.384 248.882 420.997 244.523 422.013 240.058C423.029 235.593 427.058 232.687 431.016 233.573C434.974 234.459 437.361 238.829 436.345 243.306Z" fill="#BA68C8" stroke="#263238" stroke-linecap="round" stroke-linejoin="round"/>
<path d="M435.187 316.98C435.187 316.98 429.339 302.368 428.098 299.651C426.857 296.934 437.077 280.858 438.732 278.554C440.386 276.251 443.529 271.467 443.529 270.416C443.529 269.364 431.631 257.67 429.114 255.792C426.597 253.914 422.438 258.154 422.438 258.154C422.438 258.154 411.58 272.566 411.58 274.231C411.58 275.897 416.791 281.118 416.791 281.118C416.791 281.118 408.65 292.812 409.702 297.407C410.753 302.002 414.924 305.971 414.924 305.971L420.772 328.521L435.187 316.98Z" fill="white" stroke="#263238" stroke-linecap="round" stroke-linejoin="round"/>
<path d="M416.802 281.059C416.802 281.059 423.892 275.424 423.277 273.759C423.034 273.264 422.643 272.857 422.158 272.595C421.673 272.333 421.119 272.227 420.572 272.294" stroke="#263238" stroke-linecap="round" stroke-linejoin="round"/>
<path d="M421.824 259.974C422.45 259.974 440.823 272.081 440.409 274.148C440.044 275.674 439.484 277.147 438.743 278.531" stroke="#263238" stroke-linecap="round" stroke-linejoin="round"/>
<path d="M423.915 258.096C423.915 258.096 441.248 268.951 441.638 270.829C441.716 271.446 441.642 272.073 441.424 272.655C441.206 273.237 440.85 273.758 440.386 274.172" stroke="#263238" stroke-linecap="round" stroke-linejoin="round"/>
<path d="M425.794 256.217C425.794 256.217 443.966 268.537 443.517 270.392C443.019 271.912 442.241 273.326 441.225 274.562" stroke="#263238" stroke-linecap="round" stroke-linejoin="round"/>
<path d="M437.692 315.314L409.702 331.426C409.702 331.426 446.045 417.869 452.733 429.563C459.42 441.257 477.379 443.974 486.784 440.844C496.189 437.714 500.773 418.92 497.642 410.982C494.511 403.044 471.944 368.352 461.098 351.011C450.251 333.671 437.692 315.314 437.692 315.314Z" fill="#263238" stroke="#263238" stroke-linecap="round" stroke-linejoin="round"/>
<path d="M422.899 360.957C422.899 360.957 453.619 420.019 461.488 431.831" stroke="#616161" stroke-linecap="round" stroke-linejoin="round"/>
<path d="M440.22 322.319L483.547 388.468" stroke="#616161" stroke-linecap="round" stroke-linejoin="round"/>
<path d="M317.365 236.762V198.738C317.365 197.272 316.783 195.866 315.746 194.829C314.709 193.793 313.302 193.21 311.836 193.21H219.074C217.608 193.21 216.201 193.793 215.164 194.829C214.127 195.866 213.545 197.272 213.545 198.738V236.762C213.545 238.228 214.127 239.634 215.164 240.671C216.201 241.708 217.608 242.29 219.074 242.29H298.733L316.869 259.737L313.242 242.09C314.42 241.78 315.463 241.09 316.209 240.126C316.955 239.163 317.361 237.98 317.365 236.762Z" fill="white" stroke="#263238" stroke-linecap="round" stroke-linejoin="round"/>
<path d="M247.135 221.147C249.426 221.147 251.283 219.29 251.283 217C251.283 214.711 249.426 212.854 247.135 212.854C244.845 212.854 242.988 214.711 242.988 217C242.988 219.29 244.845 221.147 247.135 221.147Z" fill="#263238"/>
<path d="M265.449 221.147C267.739 221.147 269.596 219.29 269.596 217C269.596 214.711 267.739 212.854 265.449 212.854C263.159 212.854 261.302 214.711 261.302 217C261.302 219.29 263.159 221.147 265.449 221.147Z" fill="#263238"/>
<path d="M283.775 221.147C286.065 221.147 287.922 219.29 287.922 217C287.922 214.711 286.065 212.854 283.775 212.854C281.484 212.854 279.627 214.711 279.627 217C279.627 219.29 281.484 221.147 283.775 221.147Z" fill="#263238"/>
<path d="M228.609 235.888V227.383L219.665 225.399C219.178 223.672 218.492 222.007 217.621 220.438L222.524 212.713L216.522 206.7L208.795 211.614C207.233 210.735 205.571 210.049 203.844 209.57L201.848 200.629H193.341L191.356 209.57C189.624 210.047 187.958 210.733 186.393 211.614L178.713 206.7L172.699 212.713L177.532 220.391C176.651 221.955 175.964 223.621 175.488 225.352L166.544 227.336V235.841L175.488 237.837C175.963 239.58 176.65 241.258 177.532 242.834L172.617 250.559L178.631 256.572L186.358 251.658C187.924 252.537 189.59 253.227 191.32 253.713L193.305 262.643H201.812L203.809 253.713C205.534 253.225 207.196 252.535 208.759 251.658L216.487 256.572L222.501 250.559L217.621 242.834C218.49 241.268 219.176 239.607 219.665 237.885L228.609 235.888ZM197.618 242.621C195.444 242.621 193.32 241.977 191.513 240.77C189.706 239.563 188.298 237.847 187.466 235.84C186.634 233.832 186.417 231.624 186.841 229.493C187.265 227.362 188.311 225.404 189.848 223.868C191.385 222.332 193.343 221.285 195.474 220.861C197.605 220.438 199.815 220.655 201.823 221.487C203.831 222.318 205.547 223.726 206.754 225.533C207.961 227.339 208.606 229.463 208.606 231.636C208.606 233.079 208.322 234.507 207.769 235.84C207.217 237.173 206.408 238.384 205.388 239.404C204.367 240.424 203.156 241.233 201.823 241.785C200.49 242.337 199.061 242.621 197.618 242.621Z" fill="#263238" stroke="#263238" stroke-linecap="round" stroke-linejoin="round"/>
<path d="M153.63 459.283H349.054V451.404H153.63V459.283Z" fill="white" stroke="#263238" stroke-linecap="round" stroke-linejoin="round"/>
<path d="M123.619 459.283H293.948V451.404H123.619V459.283Z" fill="white" stroke="#263238" stroke-linecap="round" stroke-linejoin="round"/>
<path d="M120.322 437.383H283.278L265.709 313.011H102.753L120.322 437.383Z" fill="white" stroke="#263238" stroke-linecap="round" stroke-linejoin="round"/>
<path d="M113.576 437.383H276.532L258.963 313.011H96.0066L113.576 437.383Z" fill="#263238" stroke="#263238" stroke-linecap="round" stroke-linejoin="round"/>
<path d="M163.507 379.573L147.155 459.283H189.205L205.558 379.573H163.507ZM192.029 403.198C191.961 403.532 191.779 403.833 191.514 404.048C191.249 404.264 190.917 404.381 190.576 404.379L166.756 404.143C166.533 404.14 166.314 404.087 166.114 403.988C165.914 403.889 165.739 403.746 165.602 403.57C165.465 403.395 165.369 403.19 165.321 402.973C165.273 402.755 165.275 402.529 165.327 402.312L167.477 393.37C167.545 393.036 167.727 392.735 167.992 392.52C168.257 392.304 168.589 392.187 168.93 392.189L192.762 392.413C192.984 392.418 193.202 392.472 193.4 392.572C193.599 392.672 193.772 392.815 193.908 392.99C194.044 393.166 194.139 393.369 194.186 393.586C194.233 393.803 194.231 394.028 194.179 394.244L192.029 403.198Z" fill="white" stroke="#263238" stroke-linecap="round" stroke-linejoin="round"/>
<path d="M0.598389 465L550.598 465V459.283L0.598389 459.283V465Z" fill="#263238" stroke="#263238" stroke-linecap="round" stroke-linejoin="round"/>
<path d="M394.767 81.631L391.293 71.5551H356.403L359.558 130.617H440.681V81.631H394.767Z" stroke="#263238" stroke-linecap="round" stroke-linejoin="round"/>
<path d="M440.681 130.617L447.605 76.5045H392.664" stroke="#263238" stroke-linecap="round" stroke-linejoin="round"/>
<path d="M205.983 110.895C211.132 88.9507 197.511 66.9891 175.562 61.8422C153.612 56.6952 131.645 70.312 126.497 92.2561C121.349 114.2 134.969 136.162 156.919 141.309C178.868 146.456 200.835 132.839 205.983 110.895Z" stroke="#263238" stroke-linecap="round" stroke-linejoin="round"/>
<path d="M198.246 109.247C202.471 91.5825 191.574 73.8384 173.905 69.614C156.237 65.3895 138.488 76.2844 134.263 93.9485C130.037 111.612 140.935 129.357 158.603 133.581C176.272 137.806 194.02 126.911 198.246 109.247Z" stroke="#263238" stroke-linecap="round" stroke-linejoin="round"/>
<path d="M170.608 101.582C170.608 102.444 170.352 103.287 169.873 104.004C169.394 104.72 168.713 105.279 167.917 105.609C167.12 105.939 166.243 106.025 165.398 105.857C164.552 105.689 163.775 105.274 163.165 104.664C162.556 104.055 162.14 103.278 161.972 102.432C161.804 101.587 161.89 100.71 162.22 99.914C162.55 99.1175 163.109 98.4368 163.826 97.9578C164.543 97.4789 165.386 97.2233 166.248 97.2233C167.405 97.2233 168.513 97.6825 169.331 98.4999C170.149 99.3173 170.608 100.426 170.608 101.582Z" stroke="#263238" stroke-linecap="round" stroke-linejoin="round"/>
<path d="M166.118 71.1653V79.304" stroke="#263238" stroke-linecap="round" stroke-linejoin="round"/>
<path d="M166.118 124.026V132.152" stroke="#263238" stroke-linecap="round" stroke-linejoin="round"/>
<path d="M144.555 80.0955L150.298 85.8481" stroke="#263238" stroke-linecap="round" stroke-linejoin="round"/>
<path d="M181.939 117.47L187.681 123.222" stroke="#263238" stroke-linecap="round" stroke-linejoin="round"/>
<path d="M135.623 101.665H143.752" stroke="#263238" stroke-linecap="round" stroke-linejoin="round"/>
<path d="M188.484 101.665H196.613" stroke="#263238" stroke-linecap="round" stroke-linejoin="round"/>
<path d="M144.555 123.222L150.298 117.47" stroke="#263238" stroke-linecap="round" stroke-linejoin="round"/>
<path d="M181.939 85.8481L187.681 80.0955" stroke="#263238" stroke-linecap="round" stroke-linejoin="round"/>
<path d="M161.888 101.582H149.849" stroke="#263238" stroke-linecap="round" stroke-linejoin="round"/>
<path d="M166.248 97.2235V81.3359" stroke="#263238" stroke-linecap="round" stroke-linejoin="round"/>
<path d="M326.498 71.5551H232.768V131.408H326.498V71.5551Z" stroke="#263238" stroke-linecap="round" stroke-linejoin="round"/>
<path d="M232.768 71.5551L279.627 101.476L326.498 71.5551" stroke="#263238" stroke-linecap="round" stroke-linejoin="round"/>
<path d="M232.768 131.408L268.214 99.1134" stroke="#263238" stroke-linecap="round" stroke-linejoin="round"/>
<path d="M326.05 131.408L290.604 99.1134" stroke="#263238" stroke-linecap="round" stroke-linejoin="round"/>
</svg>
