<svg width="44" height="31" viewBox="0 0 44 31" fill="none" xmlns="http://www.w3.org/2000/svg">
<path d="M39.6522 1H4.34783C2.49887 1 1 2.51937 1 4.39362V26.6064C1 28.4806 2.49887 30 4.34783 30H39.6522C41.5011 30 43 28.4806 43 26.6064V4.39362C43 2.51937 41.5011 1 39.6522 1Z" fill="white" stroke="#D9D9D9" stroke-width="0.857143"/>
<path fill-rule="evenodd" clip-rule="evenodd" d="M34.9 17.9041H35.951H35.9519C36.0618 17.9062 36.1532 17.8168 36.1572 17.7031V14.6877C36.1572 14.3089 36.1768 13.9669 36.3243 13.6249C36.4255 13.3647 36.664 13.1895 36.9347 13.1766C37.6069 13.1766 37.6005 13.9391 37.5954 14.5382C37.5949 14.5887 37.5945 14.6381 37.5945 14.6857V17.7282C37.6075 17.8258 37.6861 17.8998 37.7812 17.9041H38.8415C38.942 17.9062 39.0286 17.831 39.044 17.7282V14.2026C39.044 13.6606 39.044 12.906 38.7687 12.4578C38.4709 11.9747 38.0099 11.7979 37.5376 11.7979C36.8096 11.7979 36.3962 12.1631 36.1012 12.9292H36.0807V12.0722C36.0594 11.9826 35.9831 11.9187 35.894 11.9157H34.9159C34.8125 11.9131 34.7245 11.9929 34.7134 12.0993V17.7031C34.7147 17.8105 34.7963 17.8984 34.9 17.9041ZM33.9107 14.965C33.9107 13.1969 33.0642 11.8056 31.499 11.8056C29.9739 11.8056 29.1274 13.1737 29.1274 14.906C29.1274 16.6383 29.9636 18.0296 31.499 18.0296C32.9774 18.0296 33.9107 16.6741 33.9107 14.965ZM30.6823 14.7292C30.6823 14.0452 30.7318 12.9495 31.5092 12.9495C31.8434 12.9495 32.0795 13.1051 32.198 13.4915C32.3362 13.9389 32.3558 14.505 32.3558 14.9766C32.3558 15.6953 32.325 16.8741 31.499 16.8741C30.682 16.8741 30.6822 15.4449 30.6823 14.7518V14.7292ZM10.9611 17.9157H12.0149H12.0158C12.0687 17.9169 12.1199 17.8963 12.1581 17.8584C12.1962 17.8205 12.2183 17.7684 12.2193 17.7137V14.7446V14.6982C12.2188 14.0526 12.2182 13.1988 12.9473 13.1988C13.6212 13.1988 13.6108 13.949 13.6024 14.5548C13.6015 14.62 13.6006 14.6838 13.6006 14.7446V17.7147C13.6024 17.8219 13.6838 17.9095 13.7873 17.9157H14.8438C14.8965 17.9166 14.9475 17.8959 14.9855 17.858C15.0235 17.8202 15.0453 17.7683 15.0463 17.7137V14.7446L15.0462 14.674C15.0456 14.3595 15.0447 13.935 15.1453 13.6713C15.2478 13.4016 15.4955 13.2211 15.7753 13.2123C16.0805 13.2123 16.3166 13.3186 16.395 13.6954C16.435 13.8767 16.4298 14.2972 16.4264 14.5759C16.4256 14.6417 16.4249 14.6996 16.4249 14.7446V17.7147C16.4262 17.8221 16.5078 17.91 16.6115 17.9157H17.6653C17.7182 17.9169 17.7693 17.8963 17.8075 17.8584C17.8457 17.8205 17.8677 17.7684 17.8687 17.7137V14.1784C17.8687 14.0923 17.8701 14.0043 17.8716 13.9153C17.8802 13.3874 17.8894 12.8254 17.6027 12.422C17.2552 11.9644 16.6963 11.7363 16.1405 11.8254C15.5849 11.9145 15.1188 12.3069 14.9213 12.8519C14.6254 12.1438 14.2026 11.8143 13.553 11.8143C12.9034 11.8143 12.4209 12.1438 12.1651 12.8519H12.1455V12.1206C12.14 12.0163 12.0596 11.933 11.9589 11.9273H10.9761C10.8675 11.9262 10.778 12.015 10.7745 12.1273V17.7311C10.784 17.8319 10.8634 17.9104 10.9611 17.9157ZM9.12714 17.9581C9.05775 18.0204 8.95799 18.0309 8.87794 17.9842C8.57932 17.727 8.48929 17.588 8.351 17.3745C8.32726 17.3377 8.302 17.2988 8.27406 17.2567C7.69446 17.8673 7.28474 18.0499 6.53529 18.0499C5.64769 18.0499 4.95703 17.4828 4.95703 16.3485C4.95703 15.4625 5.42369 14.8606 6.07702 14.5649C6.55945 14.3458 7.20312 14.2778 7.75965 14.219C7.86313 14.2081 7.96356 14.1974 8.05943 14.1862V14.0452C8.05943 14.0183 8.05961 13.9908 8.05986 13.963C8.06168 13.7225 8.06375 13.4547 7.93154 13.2529C7.80274 13.0519 7.55823 12.9698 7.33983 12.9698C6.93754 12.9698 6.57916 13.1834 6.49143 13.6249C6.4803 13.7279 6.40374 13.8103 6.30476 13.8259L5.29116 13.7109C5.24059 13.7034 5.19518 13.6748 5.16556 13.6316C5.13593 13.5886 5.12465 13.5348 5.13436 13.4829C5.36863 12.1998 6.48863 11.8124 7.49194 11.8124C8.00526 11.8124 8.67543 11.9534 9.07863 12.3553C9.55195 12.8141 9.54897 13.4146 9.5458 14.0709C9.54556 14.1251 9.54526 14.1796 9.54526 14.2345V15.934C9.54526 16.3917 9.7093 16.6194 9.88211 16.8592C9.90262 16.8877 9.92332 16.9164 9.94383 16.9456C10.011 17.0422 10.0259 17.163 9.94383 17.2354C9.72823 17.4219 9.34554 17.7659 9.13554 17.96L9.12714 17.9581ZM8.06406 15.2973L8.06412 15.3502C8.06448 15.7521 8.06479 16.0929 7.86714 16.4567C7.69914 16.7639 7.43314 16.9533 7.13634 16.9533C6.7322 16.9533 6.49607 16.6345 6.49607 16.1611C6.49607 15.2316 7.30154 15.0625 8.06406 15.0625V15.2973ZM23.7009 16.8552C23.7215 16.8837 23.7421 16.9125 23.7627 16.9417C23.8336 17.0422 23.8485 17.1601 23.758 17.2267C23.5424 17.4132 23.1598 17.7581 22.9498 17.9513C22.8799 18.0128 22.7805 18.0229 22.7006 17.9765C22.4006 17.7182 22.3118 17.5812 22.1716 17.3649L22.1712 17.3643C22.1479 17.3283 22.1231 17.2902 22.0958 17.2489C21.5171 17.8596 21.1046 18.0422 20.3579 18.0422C19.4703 18.0422 18.7797 17.4751 18.7797 16.3417C18.7797 15.4548 19.2435 14.8528 19.9043 14.5572C20.3878 14.3373 21.0351 14.2695 21.5932 14.2111C21.6943 14.2005 21.7929 14.1903 21.8867 14.1794V14.0413C21.8867 14.0145 21.8869 13.9872 21.8871 13.9595C21.8889 13.7189 21.891 13.451 21.7579 13.25C21.6328 13.049 21.3836 12.9659 21.1662 12.9659C20.7639 12.9659 20.4074 13.1795 20.3187 13.621C20.3072 13.7239 20.2308 13.8061 20.132 13.822L19.1101 13.708C19.0591 13.7007 19.0133 13.6721 18.9834 13.6287C18.9536 13.5854 18.9423 13.5312 18.9523 13.479C19.1875 12.195 20.3075 11.8085 21.3108 11.8085C21.8232 11.8085 22.4934 11.9495 22.8975 12.3514C23.3718 12.8079 23.3684 13.4037 23.3648 14.0566C23.3645 14.114 23.3642 14.1725 23.3642 14.2306V15.9311C23.3642 16.3879 23.5282 16.6154 23.7009 16.8552ZM20.9608 16.9475C21.2567 16.9475 21.5236 16.7581 21.6907 16.4519C21.889 16.086 21.8888 15.7436 21.8886 15.3367V15.2934V15.0577C21.126 15.0577 20.3206 15.2258 20.3206 16.1562C20.3206 16.6286 20.5567 16.9475 20.9608 16.9475ZM24.6549 12.108V12.906C24.6544 12.9608 24.6755 13.0134 24.7134 13.0515C24.7513 13.0896 24.8027 13.1101 24.8555 13.108H26.6699L24.5895 16.1997C24.4946 16.3655 24.4497 16.557 24.4607 16.7494V17.5658C24.4607 17.6837 24.5867 17.818 24.7071 17.7514C25.8546 17.1355 27.219 17.1329 28.3686 17.7446C28.5002 17.8151 28.6243 17.6789 28.6243 17.561V16.703C28.6208 16.5719 28.5495 16.4527 28.4376 16.391C27.8319 16.0383 27.1272 15.935 26.4608 15.9514L28.2566 13.2983C28.4236 13.0606 28.517 12.9099 28.517 12.7949V12.108C28.5175 12.0534 28.4965 12.001 28.4588 11.9628C28.4211 11.9247 28.37 11.9042 28.3172 11.9061H24.8518C24.799 11.903 24.7476 11.9232 24.71 11.9617C24.6724 12.0002 24.6524 12.0534 24.6549 12.108Z" fill="black"/>
<path fill-rule="evenodd" clip-rule="evenodd" d="M26.3886 21.4788C26.6285 20.8614 27.1623 19.4779 26.9085 19.1426H26.9103C26.6576 18.8066 25.2389 18.983 24.6007 19.0622L24.5994 19.0624C24.4053 19.0866 24.3754 18.9117 24.5499 18.7851C25.683 17.961 27.5394 18.1967 27.755 18.475C27.9706 18.7532 27.6962 20.6798 26.635 21.5996C26.4717 21.7406 26.3158 21.6653 26.3886 21.4788ZM18.7642 22.4314C21.232 22.4314 24.1057 21.6247 26.0852 20.1127V20.1156C26.4128 19.8605 26.1319 19.4856 25.7978 19.6325C23.637 20.576 21.3175 21.0685 18.9724 21.0817C15.7188 21.0817 12.5716 20.1581 10.0254 18.6248C9.80242 18.4905 9.63625 18.7272 9.82293 18.9001C12.2742 21.1895 15.4628 22.4489 18.7642 22.4314Z" fill="#FF9900"/>
</svg>
