<svg width="70" height="70" viewBox="0 0 70 70" fill="none" xmlns="http://www.w3.org/2000/svg">
<circle cx="35" cy="35" r="34.5" fill="black"/>
<circle cx="35" cy="35" r="34.5" stroke="#E1DDDD"/>
<circle cx="35" cy="35" r="34.5" stroke="black" stroke-opacity="0.2"/>
<mask id="path-2-inside-1_350_11761" fill="white">
<path d="M14 42.2362H22.169V43.4001H14V42.2362ZM14 39.9974H22.169V41.1639H14V39.9974ZM16.3244 37.7613H19.8314V38.9343H16.3244V37.7613ZM16.3244 35.533H19.8314V36.706H16.3244V35.533ZM16.3244 33.2942H19.8314V34.4672H16.3244V33.2942ZM16.3244 31.058H19.8314V32.2311H16.3244V31.058ZM14 28.8297H22.169V30.0028H14V28.8297ZM14 26.6001H22.169V27.764H14V26.6001ZM23.3306 41.1639H35.8886C36.0999 40.8026 36.2652 40.4085 36.3597 39.9974H23.3306V41.1639ZM34.9107 35.533H25.6694V36.706H35.8964C35.6353 36.2622 35.3019 35.8668 34.9186 35.533H34.9107ZM25.6616 33.2942V34.4672H34.9107C35.3084 34.1412 35.6287 33.7445 35.8964 33.2942H25.6616ZM35.8886 28.8297H23.3306V30.0028H36.3519C36.2508 29.593 36.0933 29.1976 35.8886 28.8297ZM32.0338 26.6001H23.3306V27.764H35.0276C34.2138 27.0151 33.1415 26.6001 32.0338 26.6001ZM25.6616 31.058H29.162V32.2311H25.6616V31.058ZM32.669 32.2311H36.3269C36.428 31.8553 36.4844 31.4678 36.4844 31.058H32.669V32.2311ZM25.6616 37.7613H29.162V38.9343H25.6616V37.7613ZM32.669 37.7613V38.9343H36.4844C36.4844 38.5311 36.428 38.137 36.3269 37.7613H32.669ZM23.3306 43.3949L32.0259 43.4001C33.1953 43.4001 34.2466 42.9589 35.0341 42.2362H23.3306V43.3949ZM37.3376 42.2362H43.1611V43.4001H37.3376V42.2362ZM37.3376 39.9974H43.1611V41.1639H37.3376V39.9974ZM39.662 37.7613H43.1624V38.9343H39.662V37.7613ZM39.662 35.533H43.1624V36.706H39.662V35.533ZM44.7899 28.8297H37.3389V30.0028H45.1929L44.7899 28.8297ZM44.0156 26.6001H37.3376V27.764H44.4198L44.0156 26.6001ZM50.162 42.2362H56V43.4001H50.162V42.2362ZM50.162 39.9974H56V41.1639H50.162V39.9974ZM50.162 37.7613H53.6624V38.9343H50.162V37.7613ZM50.162 35.533H53.6624V36.706H50.162V35.533ZM50.162 34.4672H53.6624V33.2942H46.9963L46.6616 34.2421L46.3348 33.2942H39.662V34.4672H43.1624V33.3897L43.5391 34.4672H49.7932L50.162 33.3897V34.4672ZM53.6624 31.058H47.7706L47.3664 32.2311H53.6624V31.058ZM49.322 26.6001L48.9178 27.764H56V26.6001H49.322ZM46.6616 43.3949L47.0658 42.2362H46.2586L46.6616 43.3949ZM45.8898 41.1639H47.4399L47.8586 39.9974H45.479L45.8898 41.1639ZM45.1023 38.9343H48.2274L48.6369 37.7613H44.6928L45.1023 38.9343ZM44.324 36.706H49.0136L49.4086 35.533H43.9211L44.324 36.706ZM39.662 32.2311H45.9659L45.5617 31.058H39.662V32.2311ZM48.146 30.0028H56V28.8297H48.5411L48.146 30.0028Z"/>
</mask>
<path d="M14 42.2362H22.169V43.4001H14V42.2362ZM14 39.9974H22.169V41.1639H14V39.9974ZM16.3244 37.7613H19.8314V38.9343H16.3244V37.7613ZM16.3244 35.533H19.8314V36.706H16.3244V35.533ZM16.3244 33.2942H19.8314V34.4672H16.3244V33.2942ZM16.3244 31.058H19.8314V32.2311H16.3244V31.058ZM14 28.8297H22.169V30.0028H14V28.8297ZM14 26.6001H22.169V27.764H14V26.6001ZM23.3306 41.1639H35.8886C36.0999 40.8026 36.2652 40.4085 36.3597 39.9974H23.3306V41.1639ZM34.9107 35.533H25.6694V36.706H35.8964C35.6353 36.2622 35.3019 35.8668 34.9186 35.533H34.9107ZM25.6616 33.2942V34.4672H34.9107C35.3084 34.1412 35.6287 33.7445 35.8964 33.2942H25.6616ZM35.8886 28.8297H23.3306V30.0028H36.3519C36.2508 29.593 36.0933 29.1976 35.8886 28.8297ZM32.0338 26.6001H23.3306V27.764H35.0276C34.2138 27.0151 33.1415 26.6001 32.0338 26.6001ZM25.6616 31.058H29.162V32.2311H25.6616V31.058ZM32.669 32.2311H36.3269C36.428 31.8553 36.4844 31.4678 36.4844 31.058H32.669V32.2311ZM25.6616 37.7613H29.162V38.9343H25.6616V37.7613ZM32.669 37.7613V38.9343H36.4844C36.4844 38.5311 36.428 38.137 36.3269 37.7613H32.669ZM23.3306 43.3949L32.0259 43.4001C33.1953 43.4001 34.2466 42.9589 35.0341 42.2362H23.3306V43.3949ZM37.3376 42.2362H43.1611V43.4001H37.3376V42.2362ZM37.3376 39.9974H43.1611V41.1639H37.3376V39.9974ZM39.662 37.7613H43.1624V38.9343H39.662V37.7613ZM39.662 35.533H43.1624V36.706H39.662V35.533ZM44.7899 28.8297H37.3389V30.0028H45.1929L44.7899 28.8297ZM44.0156 26.6001H37.3376V27.764H44.4198L44.0156 26.6001ZM50.162 42.2362H56V43.4001H50.162V42.2362ZM50.162 39.9974H56V41.1639H50.162V39.9974ZM50.162 37.7613H53.6624V38.9343H50.162V37.7613ZM50.162 35.533H53.6624V36.706H50.162V35.533ZM50.162 34.4672H53.6624V33.2942H46.9963L46.6616 34.2421L46.3348 33.2942H39.662V34.4672H43.1624V33.3897L43.5391 34.4672H49.7932L50.162 33.3897V34.4672ZM53.6624 31.058H47.7706L47.3664 32.2311H53.6624V31.058ZM49.322 26.6001L48.9178 27.764H56V26.6001H49.322ZM46.6616 43.3949L47.0658 42.2362H46.2586L46.6616 43.3949ZM45.8898 41.1639H47.4399L47.8586 39.9974H45.479L45.8898 41.1639ZM45.1023 38.9343H48.2274L48.6369 37.7613H44.6928L45.1023 38.9343ZM44.324 36.706H49.0136L49.4086 35.533H43.9211L44.324 36.706ZM39.662 32.2311H45.9659L45.5617 31.058H39.662V32.2311ZM48.146 30.0028H56V28.8297H48.5411L48.146 30.0028Z" fill="black"/>
<path d="M14 42.2362H22.169V43.4001H14V42.2362ZM14 39.9974H22.169V41.1639H14V39.9974ZM16.3244 37.7613H19.8314V38.9343H16.3244V37.7613ZM16.3244 35.533H19.8314V36.706H16.3244V35.533ZM16.3244 33.2942H19.8314V34.4672H16.3244V33.2942ZM16.3244 31.058H19.8314V32.2311H16.3244V31.058ZM14 28.8297H22.169V30.0028H14V28.8297ZM14 26.6001H22.169V27.764H14V26.6001ZM23.3306 41.1639H35.8886C36.0999 40.8026 36.2652 40.4085 36.3597 39.9974H23.3306V41.1639ZM34.9107 35.533H25.6694V36.706H35.8964C35.6353 36.2622 35.3019 35.8668 34.9186 35.533H34.9107ZM25.6616 33.2942V34.4672H34.9107C35.3084 34.1412 35.6287 33.7445 35.8964 33.2942H25.6616ZM35.8886 28.8297H23.3306V30.0028H36.3519C36.2508 29.593 36.0933 29.1976 35.8886 28.8297ZM32.0338 26.6001H23.3306V27.764H35.0276C34.2138 27.0151 33.1415 26.6001 32.0338 26.6001ZM25.6616 31.058H29.162V32.2311H25.6616V31.058ZM32.669 32.2311H36.3269C36.428 31.8553 36.4844 31.4678 36.4844 31.058H32.669V32.2311ZM25.6616 37.7613H29.162V38.9343H25.6616V37.7613ZM32.669 37.7613V38.9343H36.4844C36.4844 38.5311 36.428 38.137 36.3269 37.7613H32.669ZM23.3306 43.3949L32.0259 43.4001C33.1953 43.4001 34.2466 42.9589 35.0341 42.2362H23.3306V43.3949ZM37.3376 42.2362H43.1611V43.4001H37.3376V42.2362ZM37.3376 39.9974H43.1611V41.1639H37.3376V39.9974ZM39.662 37.7613H43.1624V38.9343H39.662V37.7613ZM39.662 35.533H43.1624V36.706H39.662V35.533ZM44.7899 28.8297H37.3389V30.0028H45.1929L44.7899 28.8297ZM44.0156 26.6001H37.3376V27.764H44.4198L44.0156 26.6001ZM50.162 42.2362H56V43.4001H50.162V42.2362ZM50.162 39.9974H56V41.1639H50.162V39.9974ZM50.162 37.7613H53.6624V38.9343H50.162V37.7613ZM50.162 35.533H53.6624V36.706H50.162V35.533ZM50.162 34.4672H53.6624V33.2942H46.9963L46.6616 34.2421L46.3348 33.2942H39.662V34.4672H43.1624V33.3897L43.5391 34.4672H49.7932L50.162 33.3897V34.4672ZM53.6624 31.058H47.7706L47.3664 32.2311H53.6624V31.058ZM49.322 26.6001L48.9178 27.764H56V26.6001H49.322ZM46.6616 43.3949L47.0658 42.2362H46.2586L46.6616 43.3949ZM45.8898 41.1639H47.4399L47.8586 39.9974H45.479L45.8898 41.1639ZM45.1023 38.9343H48.2274L48.6369 37.7613H44.6928L45.1023 38.9343ZM44.324 36.706H49.0136L49.4086 35.533H43.9211L44.324 36.706ZM39.662 32.2311H45.9659L45.5617 31.058H39.662V32.2311ZM48.146 30.0028H56V28.8297H48.5411L48.146 30.0028Z" stroke="#E1DDDD" stroke-width="4" mask="url(#path-2-inside-1_350_11761)"/>
<path d="M14 42.2362H22.169V43.4001H14V42.2362ZM14 39.9974H22.169V41.1639H14V39.9974ZM16.3244 37.7613H19.8314V38.9343H16.3244V37.7613ZM16.3244 35.533H19.8314V36.706H16.3244V35.533ZM16.3244 33.2942H19.8314V34.4672H16.3244V33.2942ZM16.3244 31.058H19.8314V32.2311H16.3244V31.058ZM14 28.8297H22.169V30.0028H14V28.8297ZM14 26.6001H22.169V27.764H14V26.6001ZM23.3306 41.1639H35.8886C36.0999 40.8026 36.2652 40.4085 36.3597 39.9974H23.3306V41.1639ZM34.9107 35.533H25.6694V36.706H35.8964C35.6353 36.2622 35.3019 35.8668 34.9186 35.533H34.9107ZM25.6616 33.2942V34.4672H34.9107C35.3084 34.1412 35.6287 33.7445 35.8964 33.2942H25.6616ZM35.8886 28.8297H23.3306V30.0028H36.3519C36.2508 29.593 36.0933 29.1976 35.8886 28.8297ZM32.0338 26.6001H23.3306V27.764H35.0276C34.2138 27.0151 33.1415 26.6001 32.0338 26.6001ZM25.6616 31.058H29.162V32.2311H25.6616V31.058ZM32.669 32.2311H36.3269C36.428 31.8553 36.4844 31.4678 36.4844 31.058H32.669V32.2311ZM25.6616 37.7613H29.162V38.9343H25.6616V37.7613ZM32.669 37.7613V38.9343H36.4844C36.4844 38.5311 36.428 38.137 36.3269 37.7613H32.669ZM23.3306 43.3949L32.0259 43.4001C33.1953 43.4001 34.2466 42.9589 35.0341 42.2362H23.3306V43.3949ZM37.3376 42.2362H43.1611V43.4001H37.3376V42.2362ZM37.3376 39.9974H43.1611V41.1639H37.3376V39.9974ZM39.662 37.7613H43.1624V38.9343H39.662V37.7613ZM39.662 35.533H43.1624V36.706H39.662V35.533ZM44.7899 28.8297H37.3389V30.0028H45.1929L44.7899 28.8297ZM44.0156 26.6001H37.3376V27.764H44.4198L44.0156 26.6001ZM50.162 42.2362H56V43.4001H50.162V42.2362ZM50.162 39.9974H56V41.1639H50.162V39.9974ZM50.162 37.7613H53.6624V38.9343H50.162V37.7613ZM50.162 35.533H53.6624V36.706H50.162V35.533ZM50.162 34.4672H53.6624V33.2942H46.9963L46.6616 34.2421L46.3348 33.2942H39.662V34.4672H43.1624V33.3897L43.5391 34.4672H49.7932L50.162 33.3897V34.4672ZM53.6624 31.058H47.7706L47.3664 32.2311H53.6624V31.058ZM49.322 26.6001L48.9178 27.764H56V26.6001H49.322ZM46.6616 43.3949L47.0658 42.2362H46.2586L46.6616 43.3949ZM45.8898 41.1639H47.4399L47.8586 39.9974H45.479L45.8898 41.1639ZM45.1023 38.9343H48.2274L48.6369 37.7613H44.6928L45.1023 38.9343ZM44.324 36.706H49.0136L49.4086 35.533H43.9211L44.324 36.706ZM39.662 32.2311H45.9659L45.5617 31.058H39.662V32.2311ZM48.146 30.0028H56V28.8297H48.5411L48.146 30.0028Z" stroke="black" stroke-opacity="0.2" stroke-width="4" mask="url(#path-2-inside-1_350_11761)"/>
</svg>
