<svg width="450" height="427" viewBox="0 0 450 427" fill="none" xmlns="http://www.w3.org/2000/svg">
<path d="M165.66 411.09C164.267 409.897 161.173 406.119 163.561 401.754C164.437 400.153 166.297 399.358 167.979 398.652C169.71 398.068 171.34 397.223 172.815 396.146C175.442 393.909 176.159 390.181 177.91 387.198C179.9 383.787 183.632 381.232 187.582 381.411C192.09 381.61 195.861 385.299 197.533 389.495C199.205 393.69 199.305 398.363 199.344 402.897C199.344 405.413 199.245 408.236 197.404 409.936C195.563 411.637 193.145 411.517 190.846 411.448L166.168 410.682" fill="#F5F5F5"/>
<path d="M212.851 343.289H147.961L159.653 412.937C159.897 414.387 160.547 415.738 161.528 416.834C162.509 417.931 163.781 418.727 165.196 419.131L165.415 419.191C165.614 419.24 165.803 419.31 166.002 419.34C166.435 419.428 166.874 419.481 167.315 419.499V419.559L167.634 419.509H196.561C197.093 419.512 197.623 419.458 198.143 419.35C199.832 419.091 201.39 418.286 202.576 417.057C203.763 415.829 204.513 414.245 204.711 412.549L210.343 364.566L210.602 362.657L212.831 343.647L212.851 343.289ZM200.611 387.712H193.954L194.621 367.499H202.343L200.611 387.712ZM202.989 367.499H209.368L206.99 387.712H201.258L202.989 367.499ZM183.963 410.123L183.555 392.564H193.158L192.571 410.123H183.963ZM173.594 392.564H182.909L183.317 410.123H174.958L173.594 392.564ZM174.311 410.123H166.499C165.763 405.38 164.798 399.186 163.743 392.564H172.948L174.311 410.123ZM173.256 387.712L171.684 367.499H182.371L182.839 387.712H173.256ZM183.486 387.712L183.018 367.499H194.024L193.347 387.712H183.486ZM182.909 362.657L182.481 343.935H194.8L194.153 362.657H182.909ZM182.262 362.657H171.266L169.813 343.935H181.754L182.262 362.657ZM170.659 362.657H159.036C158.618 360.072 158.23 357.626 157.882 355.419C156.668 347.853 156.22 345.009 155.961 343.935H169.166L170.659 362.657ZM171.037 367.499L172.609 387.712H163.027C162.708 385.664 162.38 383.586 162.032 381.508C161.275 376.736 160.529 371.973 159.822 367.499H171.037ZM162.31 387.712H156.051L152.658 367.499H159.126C160.131 373.743 161.235 380.703 162.31 387.712ZM163.076 392.564C164.071 398.639 164.967 404.625 165.833 410.123H159.812L156.827 392.564H163.076ZM193.188 410.123L193.775 392.564H200.183L198.681 410.123H193.188ZM194.77 362.657L195.387 343.935H204.343L202.751 362.657H194.77ZM155.345 343.935C155.593 345.288 156.777 352.655 158.33 362.657H151.862L148.727 343.935H155.345ZM204.353 410.123H199.377L200.87 392.564H206.452L204.353 410.123ZM209.925 362.657H203.388L204.99 343.935H212.124L209.925 362.657Z" fill="#E0E0E0"/>
<path d="M380.623 29.5738L281.277 46.3984L292.628 113.312L391.974 96.4874L380.623 29.5738Z" fill="#EBEBEB"/>
<path d="M380.633 29.5977C380.404 29.9705 380.145 30.3231 379.856 30.6516L377.498 33.5349L368.701 44.0641L339.336 78.6642L339.097 78.9526L338.769 78.7736L337.973 78.3262L297.791 55.9355L285.701 49.0553L282.427 47.1463C282.034 46.9393 281.661 46.6963 281.312 46.4205C281.73 46.569 282.133 46.7554 282.517 46.9773L285.87 48.7371L298.139 55.3688L338.441 77.5308L339.227 77.9683L338.66 78.0776L368.234 43.6465L377.249 33.3062L379.737 30.5323C380.007 30.1943 380.306 29.8815 380.633 29.5977Z" fill="#FAFAFA"/>
<path d="M292.666 113.338C292.447 113.209 298.358 102.769 305.871 90.0328C313.384 77.2964 319.653 67.0556 319.872 67.1649C320.091 67.2743 314.18 77.7239 306.667 90.4703C299.154 103.217 292.835 113.467 292.666 113.338Z" fill="#FAFAFA"/>
<path d="M352.717 60.7651C352.886 60.5761 361.812 68.4407 372.619 78.3137C383.426 88.1867 392.173 96.3197 391.974 96.5583C391.775 96.7969 382.878 88.8926 372.072 79.0196C361.265 69.1466 352.548 60.9341 352.717 60.7651Z" fill="#FAFAFA"/>
<path d="M78.1871 208.736L27.7656 213.215L30.787 247.174L81.2084 242.696L78.1871 208.736Z" fill="#F5F5F5"/>
<path d="M78.173 208.754C78.0523 208.934 77.9084 209.098 77.7451 209.241L76.4515 210.603L71.6253 215.525L55.5447 231.681L55.4153 231.811L55.2561 231.711L54.8779 231.453L35.6528 218.647L29.8514 214.67L28.2891 213.586C28.102 213.465 27.9256 213.329 27.7617 213.178C27.9636 213.27 28.1567 213.38 28.3389 213.506L29.9509 214.501L35.8319 218.309L55.1367 231.005L55.5148 231.254H55.2262L71.3965 215.197L76.3719 210.375L77.7252 209.082C77.8665 208.962 78.0161 208.853 78.173 208.754Z" fill="#E0E0E0"/>
<path d="M30.7756 247.178C30.6761 247.108 34.0494 242.117 38.3184 236.032C42.5873 229.947 46.1398 225.095 46.2791 225.145C46.4184 225.195 43.0053 230.206 38.7363 236.291C34.4674 242.375 30.8751 247.247 30.7756 247.178Z" fill="#E0E0E0"/>
<path d="M62.9585 223.24C63.058 223.15 67.2175 227.445 72.2427 232.814C77.2679 238.183 81.2881 242.618 81.1985 242.707C81.109 242.797 76.9495 238.501 71.9143 233.132C66.8792 227.764 62.8689 223.329 62.9585 223.24Z" fill="#E0E0E0"/>
<path d="M436.376 172.121C436.376 172.121 436.376 171.853 436.495 171.356C436.614 170.859 436.704 170.113 436.863 169.168C437.192 167.24 437.679 164.446 438.296 160.866C439.56 153.708 441.361 143.457 443.56 130.979L443.719 131.208L383.815 120.529L384.103 120.331C381.456 135.006 378.949 148.945 376.7 161.433L376.521 161.175L419.628 169.009L431.977 171.276L435.261 171.893L436.107 172.062L436.405 172.131H436.127L435.301 172.002L432.057 171.445L419.767 169.308L376.471 161.662H376.242V161.433C378.481 148.945 380.969 134.996 383.596 120.321L383.646 120.082H383.894L443.779 130.86H443.978V131.059L438.495 161.035C437.838 164.585 437.321 167.359 436.963 169.268C436.784 170.193 436.654 170.908 436.555 171.416C436.455 171.923 436.376 172.121 436.376 172.121Z" fill="#E0E0E0"/>
<path d="M443.747 131.021C443.539 131.21 443.313 131.377 443.07 131.518L441.08 132.85L433.647 137.683L408.988 153.451C408.312 153.332 408.799 153.451 408.64 153.382V153.332L408.56 153.223L408.401 153.014L408.073 152.586L407.436 151.741C407.008 151.175 406.59 150.618 406.162 150.071L403.684 146.79L399.007 140.596L391.106 130.086L385.813 122.977L384.39 120.989C384.218 120.768 384.062 120.535 383.922 120.293C384.122 120.489 384.305 120.702 384.469 120.929L385.962 122.818L391.385 129.838L399.346 140.278L404.053 146.452L406.53 149.723L407.804 151.403L408.441 152.248L408.769 152.666L408.929 152.885L409.008 152.984V153.044C408.869 153.044 409.346 153.113 408.69 153.044L433.408 137.394L440.931 132.701L442.981 131.439C443.488 131.15 443.747 131.011 443.747 131.021Z" fill="#E0E0E0"/>
<path d="M400.504 142.24C400.593 142.35 395.26 146.764 388.563 152.093C381.866 157.423 376.413 161.658 376.333 161.549C376.253 161.439 381.577 157.035 388.274 151.706C394.971 146.376 400.414 142.131 400.504 142.24Z" fill="#E0E0E0"/>
<path d="M436.674 172.679C436.555 172.749 433.082 166.624 428.923 159.018C424.763 151.412 421.489 145.188 421.609 145.099C421.728 145.009 425.201 151.154 429.36 158.76C433.52 166.366 436.794 172.61 436.674 172.679Z" fill="#E0E0E0"/>
<path d="M170.528 249.602V261.155H120.774C119.24 261.155 117.77 260.546 116.686 259.463C115.601 258.38 114.992 256.91 114.992 255.378C114.992 253.846 115.601 252.377 116.686 251.293C117.77 250.21 119.24 249.602 120.774 249.602" fill="#E0E0E0"/>
<path d="M154.057 252.012H170.526V258.724H154.057C153.191 258.724 152.361 258.38 151.749 257.768C151.137 257.157 150.793 256.327 150.793 255.462V255.263C150.796 254.4 151.141 253.573 151.752 252.963C152.364 252.354 153.193 252.012 154.057 252.012Z" fill="#FAFAFA"/>
<path d="M170.528 238.035V249.598H120.774C119.24 249.598 117.77 248.99 116.686 247.906C115.601 246.823 114.992 245.354 114.992 243.822C114.992 242.289 115.601 240.818 116.685 239.734C117.769 238.649 119.239 238.038 120.774 238.035H170.528Z" fill="#F5F5F5"/>
<path d="M154.057 240.465H170.526V247.177H154.057C153.191 247.177 152.361 246.833 151.749 246.221C151.137 245.61 150.793 244.78 150.793 243.915V243.716C150.796 242.853 151.141 242.026 151.752 241.417C152.364 240.807 153.193 240.465 154.057 240.465Z" fill="#E0E0E0"/>
<path d="M134.614 219.5L126.723 238.033H131.798L135.31 228.14L134.614 219.5Z" fill="#E0E0E0"/>
<path d="M158.863 202.73L161.918 238.037H136.106L133.27 202.73H158.863Z" fill="#EBEBEB"/>
<path d="M156.348 205.532L159.015 235.111L139.641 235.36L137.023 205.363L156.348 205.532Z" fill="#FAFAFA"/>
<path d="M152.239 209.633L153.752 229.985H143.423L141.602 209.633H152.239Z" fill="#E0E0E0"/>
<path d="M450 419.548C450 419.697 349.257 419.806 225.01 419.806C100.763 419.806 0 419.687 0 419.548C0 419.408 100.723 419.289 225.01 419.289C349.297 419.289 450 419.408 450 419.548Z" fill="#263238"/>
<path d="M290.438 0.738281H21.9922V182.687H290.438V0.738281Z" fill="#FAFAFA"/>
<path d="M291.668 182.829H22.8047V0.601562H291.668V182.829ZM291.469 0.740758H22.9938V182.69H291.459" fill="#FAFAFA"/>
<path d="M291.668 182.829H22.8047V0.601562H291.668V182.829ZM291.469 0.740758H22.9938V182.69H291.459" fill="#FAFAFA"/>
<path d="M291.563 0.710938H22.918V18.7468H291.563V0.710938Z" fill="#BA68C8"/>
<g style="mix-blend-mode:multiply">
<path d="M291.559 154.848H22.9141V182.826H291.559V154.848Z" fill="#EBEBEB"/>
</g>
<path d="M73.9082 168.393H76.1273L76.8238 169.845H77.3015L75.0824 165.211H74.9531L72.7539 169.845H73.2316L73.9082 168.393ZM75.0128 166.086L75.9183 167.955H74.1172L75.0128 166.086Z" fill="#263238"/>
<path d="M77.633 170.824H72.3789V171.192H77.633V170.824Z" fill="#263238"/>
<path d="M41.2656 164.949H40.9073C40.4058 164.987 39.9371 165.213 39.5956 165.582C39.2541 165.951 39.065 166.435 39.0664 166.938C39.313 168.404 39.9487 169.778 40.9073 170.915C40.9073 170.915 41.0466 171.154 41.2656 170.915C42.2284 169.781 42.8647 168.406 43.1065 166.938C43.1079 166.435 42.9188 165.951 42.5773 165.582C42.2358 165.213 41.7671 164.987 41.2656 164.949ZM41.0864 168.141C40.87 168.141 40.6583 168.077 40.4783 167.957C40.2983 167.837 40.158 167.666 40.0752 167.466C39.9923 167.266 39.9706 167.046 40.0129 166.834C40.0551 166.622 40.1594 166.427 40.3124 166.274C40.4655 166.121 40.6606 166.017 40.8729 165.975C41.0852 165.932 41.3053 165.954 41.5053 166.037C41.7053 166.12 41.8763 166.26 41.9966 166.44C42.1169 166.62 42.181 166.831 42.181 167.047C42.1824 167.191 42.155 167.334 42.1004 167.467C42.0459 167.601 41.9653 167.722 41.8634 167.824C41.7615 167.926 41.6403 168.006 41.5069 168.061C41.3735 168.115 41.2306 168.142 41.0864 168.141Z" fill="#263238"/>
<path d="M65.8674 169.575C65.8674 169.873 65.7489 170.159 65.538 170.37C65.3272 170.58 65.0411 170.699 64.7429 170.699C64.4447 170.699 64.1587 170.58 63.9478 170.37C63.7369 170.159 63.6185 169.873 63.6185 169.575V165.946C63.6185 165.753 63.695 165.569 63.8312 165.432C63.9675 165.296 64.1522 165.22 64.3449 165.22C64.5375 165.22 64.7223 165.296 64.8585 165.432C64.9948 165.569 65.0713 165.753 65.0713 165.946V169.028C65.0562 169.124 65.0073 169.212 64.9334 169.275C64.8595 169.338 64.7655 169.372 64.6683 169.372C64.5711 169.372 64.4771 169.338 64.4032 169.275C64.3293 169.212 64.2804 169.124 64.2653 169.028V166.652H63.9966V168.919V169.028C64.0204 169.188 64.1007 169.334 64.223 169.44C64.3453 169.546 64.5015 169.604 64.6633 169.605C64.8245 169.602 64.9797 169.543 65.1016 169.438C65.2235 169.332 65.3043 169.187 65.33 169.028V168.969C65.3291 168.952 65.3291 168.935 65.33 168.919V165.936C65.33 165.672 65.2252 165.419 65.0386 165.233C64.852 165.046 64.5988 164.941 64.3349 164.941C64.071 164.941 63.8179 165.046 63.6313 165.233C63.4447 165.419 63.3398 165.672 63.3398 165.936V169.724C63.3693 170.072 63.5283 170.396 63.7854 170.632C64.0425 170.868 64.3789 170.999 64.728 170.999C65.0771 170.999 65.4135 170.868 65.6706 170.632C65.9277 170.396 66.0867 170.072 66.1161 169.724V166.652H65.8475L65.8674 169.575Z" fill="#263238"/>
<path d="M53.9007 166.827L52.9056 164.719L51.9105 166.827L49.582 167.165L51.2637 168.806L50.7861 171.122L52.8459 170.029L54.9257 171.122L54.5276 168.806L56.2292 167.145L53.9007 166.827ZM54.4878 170.506L52.8459 169.641L51.214 170.506L51.5125 168.776V168.686L50.199 167.404L52.0499 167.145L52.8658 165.494L53.6818 167.145L55.5028 167.413L54.249 168.637L54.1793 168.696L54.4878 170.506Z" fill="#263238"/>
<path d="M94.85 162.176H94.5117V172.963H94.85V162.176Z" fill="#263238"/>
<path d="M88.248 165.957H83.9492V170.531H88.248V165.957Z" fill="#263238"/>
<path d="M85.3125 164.879V165.237H86.8947V164.879H88.248V165.585H83.9492V164.879H85.3125Z" fill="#263238"/>
<path d="M86.8908 164.535H85.3086V164.883H86.8908V164.535Z" fill="#263238"/>
<path d="M86.8908 164.879H85.3086V165.227H86.8908V164.879Z" fill="#263238"/>
<path d="M104.588 168.408L105.902 167.086L106.061 167.245L104.588 168.727L103.105 167.245L103.265 167.086L104.588 168.408Z" fill="#263238"/>
<path d="M266.508 9.92538H270.229V9.72636H266.508H270.229V9.52734H266.508V9.92538Z" fill="#263238"/>
<path d="M285.082 8.00889L284.804 7.73047L283.082 9.4507L281.361 7.73047L281.082 8.00889L282.804 9.72912L281.082 11.4494L281.361 11.7278L283.082 10.0075L284.804 11.7278L285.082 11.4494L283.361 9.72912L285.082 8.00889Z" fill="#263238"/>
<path d="M273.574 11.7846H277.744V7.66797H273.624L273.574 11.7846ZM273.972 8.05577H277.296V11.3869H273.972V8.05577Z" fill="#263238"/>
<path d="M285.492 59.8953C285.489 59.5168 285.341 59.1538 285.078 58.8816C284.815 58.6094 284.457 58.4489 284.079 58.4336H278.526C277.988 58.4336 277.471 58.6473 277.091 59.0277C276.71 59.4081 276.496 59.9241 276.496 60.4621C276.496 61.0001 276.71 61.516 277.091 61.8964C277.471 62.2768 277.988 62.4906 278.526 62.4906H282.994V62.0928H278.735C278.519 62.0928 278.306 62.0504 278.107 61.9679C277.908 61.8855 277.727 61.7646 277.574 61.6123C277.422 61.4599 277.301 61.279 277.218 61.08C277.136 60.8809 277.093 60.6676 277.093 60.4521C277.093 60.2367 277.136 60.0233 277.218 59.8243C277.301 59.6252 277.422 59.4443 277.574 59.292C277.727 59.1396 277.908 59.0188 278.107 58.9363C278.306 58.8539 278.519 58.8114 278.735 58.8114H284.049C284.331 58.8114 284.602 58.9235 284.802 59.1231C285.001 59.3226 285.114 59.5932 285.114 59.8754C285.114 60.1576 285.001 60.4282 284.802 60.6277C284.602 60.8273 284.331 60.9394 284.049 60.9394H279.541C279.408 60.9069 279.29 60.8321 279.204 60.7262C279.117 60.6203 279.068 60.4891 279.063 60.3527C279.065 60.2139 279.115 60.08 279.203 59.9732C279.292 59.8664 279.415 59.7933 279.551 59.766H283.014V59.3683H279.541C279.277 59.3683 279.024 59.473 278.837 59.6595C278.651 59.846 278.546 60.0989 278.546 60.3626C278.546 60.6264 278.651 60.8793 278.837 61.0658C279.024 61.2522 279.277 61.357 279.541 61.357H284.099C284.474 61.3391 284.829 61.1772 285.088 60.905C285.348 60.6328 285.492 60.2712 285.492 59.8953Z" fill="#263238"/>
<path d="M35.1283 6.66797V11.6397H34.5512L31.5659 7.96063V11.6397H30.8594V6.66797H31.4365L34.4218 10.3471V6.66797H35.1283Z" fill="white"/>
<path d="M39.9126 9.95685H36.9274C36.9706 10.2608 37.1223 10.5389 37.3545 10.7399C37.5868 10.9409 37.8839 11.0513 38.1911 11.0506C38.3934 11.0574 38.5947 11.021 38.7818 10.9438C38.9688 10.8667 39.1372 10.7505 39.2758 10.6032L39.6539 11.0407C39.465 11.2425 39.2348 11.4012 38.9789 11.5058C38.723 11.6105 38.4475 11.6588 38.1712 11.6472C37.9118 11.6624 37.6521 11.6237 37.4083 11.5336C37.1646 11.4434 36.9423 11.3038 36.7553 11.1235C36.5683 10.9432 36.4207 10.7261 36.3219 10.4859C36.2231 10.2458 36.1751 9.98775 36.181 9.72814C36.1714 9.47784 36.2133 9.22823 36.3042 8.99477C36.395 8.76131 36.5329 8.54898 36.7092 8.37092C36.8855 8.19287 37.0965 8.0529 37.3292 7.95967C37.5618 7.86644 37.8112 7.82194 38.0618 7.82893C38.3128 7.82143 38.5627 7.8665 38.7953 7.96123C39.0279 8.05596 39.2381 8.19826 39.4124 8.37899C39.5867 8.55972 39.7213 8.77488 39.8074 9.01065C39.8936 9.24643 39.9294 9.4976 39.9126 9.74803C39.9175 9.81755 39.9175 9.88733 39.9126 9.95685ZM36.9274 9.46961H39.3255C39.2982 9.17067 39.1601 8.89271 38.9383 8.69032C38.7164 8.48793 38.4269 8.37571 38.1264 8.37571C37.826 8.37571 37.5365 8.48793 37.3146 8.69032C37.0928 8.89271 36.9546 9.17067 36.9274 9.46961Z" fill="white"/>
<path d="M46.4115 7.85938L45.0183 11.5981H44.3715L43.2869 8.76424L42.1923 11.5981H41.5455L40.1523 7.85938H40.7992L41.8838 10.8424L43.0083 7.85938H43.5854L44.69 10.8424L45.8045 7.85938H46.4115Z" fill="white"/>
<path d="M52.6821 10.9941V11.6007H49.0898V6.62891H52.5826V7.23546H49.7964V8.75682H52.2741V9.35344H49.7964V10.9544L52.6821 10.9941Z" fill="white"/>
<path d="M59.9353 9.45161V11.5994H59.2487V9.53116C59.2487 8.79533 58.9004 8.43736 58.2536 8.43736C58.0934 8.42972 57.9335 8.45767 57.7854 8.51919C57.6373 8.58071 57.5048 8.67427 57.3972 8.79315C57.2897 8.91202 57.2099 9.05325 57.1635 9.20665C57.1171 9.36006 57.1054 9.52182 57.1291 9.68031V11.5994H56.4525V9.53116C56.4525 8.79533 56.1042 8.43736 55.4574 8.43736C55.2972 8.42972 55.1373 8.45767 54.9892 8.51919C54.8411 8.58071 54.7086 8.67427 54.601 8.79315C54.4935 8.91202 54.4137 9.05325 54.3673 9.20665C54.3209 9.36006 54.3092 9.52182 54.3329 9.68031V11.5994H53.6562V7.86064H54.3031V8.41748C54.4553 8.22261 54.6525 8.06747 54.8777 7.96531C55.103 7.86314 55.3497 7.81699 55.5967 7.83081C55.8566 7.8108 56.1169 7.8646 56.3475 7.98599C56.5781 8.10738 56.7697 8.29143 56.9002 8.51692C57.0656 8.2926 57.2838 8.11259 57.5355 7.99289C57.7872 7.87319 58.0647 7.81751 58.3431 7.83081C58.5612 7.80428 58.7825 7.82821 58.9898 7.90075C59.1971 7.97328 59.385 8.09249 59.5389 8.24914C59.6928 8.4058 59.8086 8.59572 59.8773 8.80422C59.946 9.01273 59.9659 9.23423 59.9353 9.45161Z" fill="white"/>
<path d="M64.1368 9.34058V11.5978H63.4999V11.1105C63.3557 11.2962 63.1672 11.4427 62.9516 11.5365C62.736 11.6303 62.5002 11.6685 62.266 11.6475C61.4202 11.6475 60.8828 11.1901 60.8828 10.5438C60.8828 9.89742 61.2709 9.44996 62.3854 9.44996H63.4601V9.31075C63.4601 8.74397 63.1317 8.41583 62.465 8.41583C62.0366 8.41051 61.6191 8.55075 61.2809 8.81358L61.0022 8.30646C61.4493 7.98111 61.9918 7.81323 62.5446 7.82916C63.5596 7.82916 64.1368 8.3164 64.1368 9.34058ZM63.4601 10.4543V9.9372H62.465C61.7983 9.9372 61.6092 10.1957 61.6092 10.5139C61.6092 10.8321 61.9177 11.1205 62.4352 11.1205C62.6535 11.1267 62.8686 11.0662 63.0517 10.9472C63.2348 10.8282 63.3773 10.6562 63.4601 10.4543Z" fill="white"/>
<path d="M65.2695 6.70573C65.2695 6.64612 65.2814 6.58711 65.3045 6.53217C65.3277 6.47722 65.3615 6.42744 65.4042 6.38576C65.4468 6.34407 65.4974 6.31133 65.5528 6.28943C65.6083 6.26754 65.6676 6.25694 65.7273 6.25827C65.7856 6.2556 65.8439 6.26462 65.8986 6.28479C65.9534 6.30496 66.0036 6.33587 66.0463 6.37571C66.0889 6.41555 66.1232 6.46351 66.147 6.51677C66.1708 6.57003 66.1837 6.62752 66.185 6.68584C66.185 6.80715 66.1368 6.92349 66.0509 7.00927C65.9651 7.09505 65.8487 7.14324 65.7273 7.14324C65.6059 7.14324 65.4894 7.09505 65.4036 7.00927C65.3178 6.92349 65.2695 6.80715 65.2695 6.68584V6.70573ZM65.3889 7.85918H66.0656V11.598H65.3889V7.85918Z" fill="white"/>
<path d="M67.3555 6.37109H68.0321V11.6014H67.3555V6.37109Z" fill="white"/>
<path d="M31.1643 24.8878H29.4727V24.2812H33.5525V24.8878H31.8609V29.2132H31.1643V24.8878Z" fill="#263238"/>
<path d="M33.4977 27.3417C33.4818 26.9454 33.5849 26.5533 33.7937 26.216C34.0025 25.8787 34.3075 25.6114 34.6695 25.4486C35.0315 25.2858 35.4339 25.2349 35.825 25.3025C36.2162 25.37 36.5782 25.5528 36.8645 25.8275C37.1509 26.1022 37.3485 26.4562 37.432 26.844C37.5154 27.2318 37.4809 27.6356 37.3329 28.0037C37.1849 28.3717 36.9302 28.6871 36.6014 28.9094C36.2726 29.1316 35.8848 29.2505 35.4879 29.2509C35.2282 29.2706 34.9674 29.2354 34.7223 29.1475C34.4772 29.0596 34.2535 28.9211 34.0656 28.7409C33.8778 28.5607 33.7301 28.3429 33.6323 28.1018C33.5344 27.8607 33.4885 27.6017 33.4977 27.3417ZM36.7019 27.3417C36.7019 27.1759 36.6692 27.0116 36.6057 26.8584C36.5422 26.7052 36.4491 26.566 36.3317 26.4487C36.2144 26.3315 36.0751 26.2385 35.9217 26.175C35.7684 26.1115 35.6041 26.0789 35.4381 26.0789C35.2722 26.0789 35.1078 26.1115 34.9545 26.175C34.8012 26.2385 34.6618 26.3315 34.5445 26.4487C34.4271 26.566 34.3341 26.7052 34.2705 26.8584C34.207 27.0116 34.1743 27.1759 34.1743 27.3417C34.1743 27.5075 34.207 27.6717 34.2705 27.825C34.3341 27.9782 34.4271 28.1174 34.5445 28.2346C34.6618 28.3519 34.8012 28.4449 34.9545 28.5084C35.1078 28.5719 35.2722 28.6045 35.4381 28.6045C35.6041 28.6045 35.7684 28.5719 35.9217 28.5084C36.0751 28.4449 36.2144 28.3519 36.3317 28.2346C36.4491 28.1174 36.5422 27.9782 36.6057 27.825C36.6692 27.6717 36.7019 27.5075 36.7019 27.3417Z" fill="#263238"/>
<path d="M39.9131 25.9618C39.9118 25.8987 39.9232 25.8361 39.9467 25.7775C39.9702 25.719 40.0054 25.6659 40.05 25.6213C40.0946 25.5767 40.1478 25.5416 40.2064 25.5181C40.265 25.4946 40.3277 25.4831 40.3908 25.4845C40.4534 25.4831 40.5157 25.4945 40.5738 25.5181C40.6318 25.5418 40.6844 25.577 40.7282 25.6218C40.7721 25.6665 40.8063 25.7198 40.8287 25.7783C40.8511 25.8368 40.8612 25.8992 40.8585 25.9618C40.8611 26.0248 40.851 26.0877 40.8287 26.1467C40.8064 26.2058 40.7724 26.2597 40.7287 26.3052C40.685 26.3507 40.6325 26.3869 40.5745 26.4116C40.5164 26.4364 40.4539 26.4491 40.3908 26.449C40.3272 26.449 40.2643 26.4364 40.2057 26.4118C40.1471 26.3872 40.0939 26.3511 40.0495 26.3057C40.005 26.2603 39.97 26.2066 39.9466 26.1475C39.9232 26.0884 39.9118 26.0253 39.9131 25.9618ZM39.9131 28.8156C39.9118 28.7521 39.9232 28.6889 39.9466 28.6299C39.97 28.5708 40.005 28.517 40.0495 28.4716C40.0939 28.4263 40.1471 28.3902 40.2057 28.3656C40.2643 28.341 40.3272 28.3283 40.3908 28.3283C40.5227 28.3283 40.6493 28.3807 40.7426 28.474C40.8359 28.5672 40.8883 28.6937 40.8883 28.8255C40.8883 28.9574 40.8359 29.0838 40.7426 29.1771C40.6493 29.2703 40.5227 29.3227 40.3908 29.3227C40.3212 29.3252 40.252 29.3122 40.1881 29.2845C40.1242 29.2569 40.0673 29.2154 40.0216 29.163C39.9758 29.1106 39.9423 29.0486 39.9236 28.9816C39.9048 28.9147 39.9012 28.8443 39.9131 28.7758V28.8156Z" fill="#263238"/>
<path d="M30.4815 43.3598C30.4825 43.0226 30.5518 42.6891 30.6853 42.3794C30.8188 42.0697 31.0138 41.7903 31.2584 41.558C31.5029 41.3256 31.7921 41.1452 32.1084 41.0277C32.4247 40.9101 32.7615 40.8578 33.0986 40.8739C33.4487 40.8597 33.7977 40.9206 34.1222 41.0527C34.4466 41.1848 34.7389 41.3849 34.9793 41.6396L34.5216 42.0871C34.3442 41.8963 34.1282 41.7454 33.8881 41.6442C33.6479 41.5431 33.389 41.4941 33.1285 41.5004C32.8139 41.502 32.5048 41.5817 32.2286 41.7321C31.9525 41.8826 31.718 42.0991 31.5463 42.3624C31.3745 42.6257 31.2708 42.9275 31.2445 43.2406C31.2182 43.5538 31.2701 43.8686 31.3955 44.1568C31.5209 44.4451 31.7159 44.6977 31.963 44.8921C32.2102 45.0864 32.5018 45.2165 32.8116 45.2705C33.1214 45.3246 33.4398 45.3009 33.7383 45.2017C34.0367 45.1026 34.3059 44.9309 34.5216 44.7022L34.9793 45.1497C34.7379 45.4064 34.4442 45.6085 34.1181 45.7422C33.792 45.876 33.4409 45.9384 33.0886 45.9253C32.7456 45.9405 32.4031 45.8848 32.0826 45.7618C31.762 45.6387 31.4703 45.451 31.2257 45.2102C30.981 44.9695 30.7886 44.6809 30.6606 44.3625C30.5326 44.0442 30.4716 43.7028 30.4815 43.3598Z" fill="#263238"/>
<path d="M35.3723 43.9599C35.3662 43.7007 35.4142 43.4431 35.5131 43.2034C35.612 42.9637 35.7598 42.7473 35.9469 42.5677C36.1341 42.3882 36.3566 42.2495 36.6003 42.1605C36.844 42.0715 37.1035 42.0341 37.3624 42.0507C37.6712 42.0308 37.9795 42.0963 38.2534 42.2402C38.5273 42.3841 38.7561 42.6006 38.9148 42.8661L38.3973 43.2042C38.2908 43.0375 38.1435 42.9008 37.9694 42.8069C37.7953 42.7129 37.6001 42.6648 37.4022 42.6672C37.0723 42.6959 36.7652 42.8471 36.5414 43.091C36.3176 43.3349 36.1934 43.6538 36.1934 43.9847C36.1934 44.3157 36.3176 44.6345 36.5414 44.8785C36.7652 45.1224 37.0723 45.2736 37.4022 45.3023C37.6001 45.3046 37.7953 45.2566 37.9694 45.1626C38.1435 45.0687 38.2908 44.9319 38.3973 44.7653L38.9148 45.0835C38.7581 45.3432 38.5336 45.5554 38.2653 45.6973C37.9971 45.8392 37.6953 45.9054 37.3923 45.8889C37.1293 45.9101 36.8647 45.8755 36.616 45.7873C36.3673 45.699 36.1401 45.5593 35.9494 45.3771C35.7586 45.1949 35.6085 44.9744 35.5091 44.7302C35.4096 44.4859 35.363 44.2234 35.3723 43.9599Z" fill="#263238"/>
<path d="M41.3364 42.5377C41.3383 42.4437 41.368 42.3524 41.4217 42.2753C41.4753 42.1981 41.5506 42.1385 41.638 42.1039C41.7254 42.0693 41.8212 42.0612 41.9131 42.0807C42.0051 42.1003 42.0893 42.1465 42.1551 42.2136C42.2209 42.2807 42.2654 42.3658 42.2831 42.4581C42.3007 42.5504 42.2907 42.6458 42.2543 42.7325C42.2178 42.8191 42.1566 42.8931 42.0783 42.9451C42 42.9971 41.9081 43.0249 41.814 43.0249C41.7504 43.0249 41.6875 43.0122 41.6289 42.9876C41.5703 42.963 41.5172 42.927 41.4727 42.8816C41.4282 42.8362 41.3932 42.7824 41.3698 42.7234C41.3464 42.6643 41.335 42.6012 41.3364 42.5377ZM41.3364 45.3815C41.3383 45.2876 41.368 45.1963 41.4217 45.1191C41.4753 45.0419 41.5506 44.9823 41.638 44.9477C41.7254 44.9131 41.8212 44.9051 41.9131 44.9246C42.0051 44.9441 42.0893 44.9903 42.1551 45.0575C42.2209 45.1246 42.2654 45.2096 42.2831 45.3019C42.3007 45.3942 42.2907 45.4897 42.2543 45.5763C42.2178 45.663 42.1566 45.7369 42.0783 45.789C42 45.841 41.9081 45.8687 41.814 45.8687C41.7501 45.8702 41.6865 45.8585 41.6272 45.8343C41.568 45.8102 41.5143 45.7742 41.4695 45.7286C41.4248 45.6829 41.3898 45.6285 41.3669 45.5688C41.344 45.5091 41.3336 45.4454 41.3364 45.3815Z" fill="#263238"/>
<path d="M29.7344 62.0952L29.9931 61.5384C30.4518 61.9173 31.0299 62.1216 31.625 62.1151C32.4808 62.1151 32.849 61.777 32.849 61.3494C32.849 60.1463 29.8637 60.902 29.8637 59.0724C29.8637 58.3067 30.4508 57.6604 31.7544 57.6604C32.3157 57.6537 32.8676 57.8054 33.3466 58.0979L33.1077 58.6647C32.7048 58.4024 32.2352 58.261 31.7544 58.257C30.9185 58.257 30.5503 58.6149 30.5503 59.0425C30.5503 60.2457 33.5356 59.49 33.5356 61.3097C33.5356 62.0654 32.9286 62.7117 31.625 62.7117C30.9428 62.7282 30.2756 62.5106 29.7344 62.0952Z" fill="#263238"/>
<path d="M37.9227 58.913V62.6518H37.2759V62.0949C37.1305 62.2911 36.9394 62.4488 36.7192 62.5545C36.4989 62.6602 36.2563 62.7107 36.0121 62.7015C35.7932 62.7237 35.5721 62.6966 35.3651 62.6222C35.158 62.5478 34.9702 62.428 34.8156 62.2716C34.661 62.1152 34.5434 61.9261 34.4715 61.7183C34.3996 61.5105 34.3752 61.2892 34.4001 61.0707V58.913H35.0768V60.9912C35.0768 61.727 35.4449 62.0949 36.0718 62.0949C36.2335 62.1035 36.3951 62.0765 36.5452 62.0158C36.6953 61.9551 36.8301 61.8621 36.9403 61.7436C37.0504 61.625 37.1331 61.4836 37.1825 61.3296C37.2319 61.1755 37.2468 61.0125 37.2262 60.852V58.8633L37.9227 58.913Z" fill="#263238"/>
<path d="M43.1152 60.7594C43.1278 61.0121 43.0877 61.2648 42.9975 61.5013C42.9073 61.7378 42.769 61.9531 42.5913 62.1334C42.4136 62.3138 42.2004 62.4554 41.9651 62.5492C41.7299 62.643 41.4777 62.687 41.2246 62.6785C40.9673 62.6888 40.7113 62.6363 40.4789 62.5254C40.2466 62.4145 40.0448 62.2486 39.8911 62.0421V62.6287H39.2344V57.3984H39.911V59.4568C40.0686 59.2622 40.2693 59.107 40.4973 59.0034C40.7253 58.8998 40.9743 58.8508 41.2246 58.8601C41.4767 58.8487 41.7285 58.8901 41.9637 58.9817C42.1989 59.0732 42.4124 59.2129 42.5904 59.3917C42.7685 59.5705 42.9071 59.7846 42.9975 60.0201C43.0879 60.2556 43.128 60.5074 43.1152 60.7594ZM42.4286 60.7594C42.4169 60.5125 42.333 60.2744 42.1872 60.0748C42.0414 59.8751 41.8402 59.7225 41.6085 59.636C41.3768 59.5495 41.1248 59.5329 40.8837 59.5881C40.6426 59.6434 40.4231 59.7681 40.2523 59.9469C40.0814 60.1257 39.9669 60.3506 39.9228 60.5938C39.8786 60.837 39.9069 61.0878 40.0041 61.3151C40.1012 61.5424 40.263 61.7362 40.4693 61.8725C40.6757 62.0088 40.9175 62.0816 41.1649 62.0818C41.3372 62.0865 41.5086 62.055 41.668 61.9893C41.8274 61.9237 41.9713 61.8254 42.0904 61.7008C42.2095 61.5762 42.3011 61.428 42.3593 61.2659C42.4176 61.1037 42.4412 60.9312 42.4286 60.7594Z" fill="#263238"/>
<path d="M42.7617 63.8461L42.9806 63.3191C43.1369 63.4401 43.3303 63.5034 43.5279 63.4981C43.8862 63.4981 44.0852 63.2693 44.0852 62.8418V58.8644H44.7619V62.7722C44.7815 62.9358 44.7646 63.1018 44.7122 63.2581C44.6599 63.4145 44.5735 63.5572 44.4593 63.6761C44.345 63.7951 44.2058 63.8871 44.0516 63.9458C43.8975 64.0044 43.7322 64.0281 43.5677 64.0151C43.288 64.0438 43.0063 63.9847 42.7617 63.8461ZM43.9658 57.7805C43.9658 57.7209 43.9777 57.6619 44.0008 57.607C44.0239 57.552 44.0578 57.5022 44.1004 57.4605C44.1431 57.4189 44.1936 57.3861 44.2491 57.3642C44.3046 57.3423 44.3639 57.3317 44.4235 57.3331C44.4843 57.3289 44.5453 57.3374 44.6026 57.3582C44.6599 57.3789 44.7123 57.4114 44.7563 57.4535C44.8003 57.4956 44.8351 57.5465 44.8583 57.6028C44.8815 57.6591 44.8927 57.7196 44.8912 57.7805C44.8912 57.9018 44.843 58.0182 44.7571 58.104C44.6713 58.1897 44.5549 58.2379 44.4335 58.2379C44.3121 58.2379 44.1956 58.1897 44.1098 58.104C44.024 58.0182 43.9757 57.9018 43.9757 57.7805H43.9658Z" fill="#263238"/>
<path d="M49.4207 61.0114H46.4355C46.4801 61.3332 46.6462 61.6256 46.8996 61.829C47.1531 62.0323 47.4747 62.1312 47.7987 62.1052C47.9995 62.1119 48.1993 62.0753 48.3847 61.9982C48.5701 61.921 48.7368 61.8049 48.8734 61.6578L49.2516 62.0953C49.0631 62.2976 48.8329 62.4566 48.5769 62.5614C48.3209 62.6661 48.0452 62.714 47.7689 62.7018C47.5095 62.717 47.2497 62.6783 47.006 62.5882C46.7623 62.498 46.5399 62.3584 46.353 62.1781C46.166 61.9978 46.0184 61.7807 45.9195 61.5405C45.8207 61.3004 45.7728 61.0423 45.7787 60.7827C45.7691 60.5324 45.811 60.2828 45.9018 60.0494C45.9927 59.8159 46.1305 59.6036 46.3068 59.4255C46.4831 59.2475 46.6942 59.1075 46.9268 59.0143C47.1595 58.921 47.4088 58.8765 47.6594 58.8835C47.9011 58.886 48.1399 58.937 48.3614 59.0335C48.5829 59.1301 48.7828 59.2703 48.949 59.4456C49.1152 59.621 49.2444 59.828 49.3288 60.0543C49.4133 60.2806 49.4513 60.5216 49.4406 60.7629C49.441 60.8461 49.4343 60.9293 49.4207 61.0114ZM46.4355 60.5242H48.8436C48.8059 60.2317 48.6628 59.963 48.4412 59.7683C48.2196 59.5735 47.9346 59.4661 47.6395 59.4661C47.3444 59.4661 47.0594 59.5735 46.8378 59.7683C46.6162 59.963 46.4732 60.2317 46.4355 60.5242Z" fill="#263238"/>
<path d="M50.0239 60.7624C50.0193 60.5041 50.0683 60.2475 50.1678 60.0091C50.2674 59.7706 50.4153 59.5553 50.6024 59.3768C50.7894 59.1984 51.0114 59.0606 51.2544 58.9722C51.4974 58.8838 51.756 58.8467 52.0141 58.8632C52.3163 58.8446 52.6179 58.9089 52.8862 59.0491C53.1545 59.1893 53.3794 59.4001 53.5366 59.6587L53.0191 59.9868C52.9126 59.8202 52.7653 59.6835 52.5912 59.5895C52.4171 59.4956 52.2219 59.4475 52.0241 59.4499C51.6941 59.4785 51.387 59.6298 51.1632 59.8737C50.9394 60.1176 50.8152 60.4365 50.8152 60.7674C50.8152 61.0983 50.9394 61.4172 51.1632 61.6611C51.387 61.905 51.6941 62.0563 52.0241 62.0849C52.2219 62.0873 52.4171 62.0392 52.5912 61.9453C52.7653 61.8513 52.9126 61.7146 53.0191 61.548L53.5366 61.8761C53.3783 62.1343 53.1535 62.3453 52.8856 62.487C52.6178 62.6287 52.3168 62.6959 52.0141 62.6815C51.7547 62.6967 51.4949 62.658 51.2512 62.5679C51.0075 62.4777 50.7852 62.3381 50.5982 62.1578C50.4112 61.9774 50.2636 61.7604 50.1648 61.5202C50.0659 61.28 50.018 61.022 50.0239 60.7624Z" fill="#263238"/>
<path d="M56.5511 62.4291C56.3184 62.6103 56.03 62.7052 55.7351 62.6976C55.5755 62.7162 55.4137 62.6989 55.2618 62.6468C55.1098 62.5947 54.9714 62.5093 54.8568 62.3967C54.7423 62.2841 54.6544 62.1473 54.5998 61.9963C54.5451 61.8453 54.525 61.684 54.541 61.5243V59.466H53.9141V58.9091H54.541V58.0938H55.2176V58.9091H56.2923V59.466H55.2176V61.4547C55.2072 61.536 55.2149 61.6186 55.2401 61.6966C55.2654 61.7746 55.3076 61.8461 55.3636 61.906C55.4197 61.9658 55.4883 62.0125 55.5646 62.0428C55.6408 62.0731 55.7228 62.0862 55.8047 62.0811C55.999 62.0841 56.1885 62.021 56.3421 61.9021L56.5511 62.4291Z" fill="#263238"/>
<path d="M58.9493 59.3605C58.9493 59.2286 59.0017 59.1021 59.095 59.0089C59.1884 58.9157 59.3149 58.8633 59.4469 58.8633C59.5788 58.8633 59.7054 58.9157 59.7987 59.0089C59.892 59.1021 59.9444 59.2286 59.9444 59.3605C59.9444 59.4923 59.892 59.6188 59.7987 59.712C59.7054 59.8053 59.5788 59.8576 59.4469 59.8576C59.3149 59.8576 59.1884 59.8053 59.095 59.712C59.0017 59.6188 58.9493 59.4923 58.9493 59.3605ZM58.9493 62.2143C58.9513 62.1203 58.981 62.029 59.0346 61.9519C59.0883 61.8747 59.1635 61.8151 59.251 61.7805C59.3384 61.7459 59.4341 61.7378 59.5261 61.7573C59.6181 61.7769 59.7023 61.8231 59.7681 61.8902C59.8339 61.9573 59.8784 62.0424 59.896 62.1347C59.9137 62.227 59.9037 62.3224 59.8672 62.4091C59.8308 62.4957 59.7696 62.5697 59.6913 62.6217C59.6129 62.6737 59.521 62.7015 59.427 62.7015C59.3634 62.7015 59.3005 62.6888 59.2419 62.6642C59.1832 62.6396 59.1301 62.6036 59.0857 62.5582C59.0412 62.5128 59.0062 62.459 58.9828 62.4C58.9594 62.3409 58.948 62.2778 58.9493 62.2143Z" fill="#263238"/>
<path d="M120.906 28.329C120.906 28.4683 105.064 28.5878 85.5204 28.5878C65.9768 28.5878 50.125 28.4683 50.125 28.329C50.125 28.1897 65.9668 28.0703 85.5204 28.0703C105.074 28.0703 120.906 28.1897 120.906 28.329Z" fill="#263238"/>
<path d="M152.51 44.4697C152.51 44.609 129.623 44.7284 101.322 44.7284C73.022 44.7284 50.125 44.609 50.125 44.4697C50.125 44.3304 73.0121 44.2109 101.322 44.2109C129.633 44.2109 152.51 44.3204 152.51 44.4697Z" fill="#263238"/>
<path d="M114.657 60.4756C114.505 60.5186 114.347 60.5354 114.189 60.5254H112.836L107.86 60.605C103.671 60.605 97.9093 60.6846 91.5208 60.6846C85.1323 60.6846 79.3608 60.6846 75.1715 60.605L70.196 60.5254H68.8427C68.6851 60.5366 68.5267 60.5198 68.375 60.4756C68.5297 60.4481 68.688 60.4481 68.8427 60.4756H70.196L75.1715 60.396C79.3608 60.396 85.1224 60.3164 91.5208 60.3164C97.9193 60.3164 103.671 60.3164 107.86 60.396L112.836 60.4756H114.189C114.344 60.4493 114.502 60.4493 114.657 60.4756Z" fill="#263238"/>
<path d="M288.689 69.1806C288.689 69.3199 229.213 69.4393 155.865 69.4393C82.5164 69.4393 23 69.3199 23 69.1806C23 69.0413 82.4567 68.9219 155.825 68.9219C229.193 68.9219 288.689 69.0413 288.689 69.1806Z" fill="#E0E0E0"/>
<path d="M288.686 51.7197C288.686 51.859 229.19 51.9784 155.812 51.9784C82.434 51.9784 22.9375 51.859 22.9375 51.7197C22.9375 51.5804 82.4141 51.4609 155.812 51.4609C229.21 51.4609 288.686 51.5704 288.686 51.7197Z" fill="#E0E0E0"/>
<path d="M288.689 36.3954C288.689 36.5447 229.213 36.6542 155.865 36.6542C82.5164 36.6542 23 36.5447 23 36.3954C23 36.2462 82.4567 36.1367 155.825 36.1367C229.193 36.1367 288.689 36.2561 288.689 36.3954Z" fill="#E0E0E0"/>
<path d="M55.9332 90.49C53.1315 90.7462 50.3169 90.8327 47.5048 90.7487C44.6893 90.8328 41.8714 90.7464 39.0664 90.49C41.8706 90.221 44.6891 90.1313 47.5048 90.2213C50.3171 90.1314 53.1323 90.2212 55.9332 90.49Z" fill="#263238"/>
<path d="M111.41 103.11C111.41 103.25 95.2194 103.369 75.238 103.369C55.2565 103.369 39.0664 103.25 39.0664 103.11C39.0664 102.971 55.2565 102.852 75.238 102.852C95.2194 102.852 111.41 102.971 111.41 103.11Z" fill="#263238"/>
<path d="M22.998 0.738623L291.444 0.5H291.673V0.738623C291.673 56.1187 291.673 117.793 291.673 182.688V182.966H291.414L22.998 182.896H22.7891V182.688C22.9184 71.9076 22.998 2.4388 22.998 0.738623C22.998 2.4388 23.0776 71.9076 23.207 182.688L22.998 182.479H291.444L291.185 182.737C291.185 117.862 291.185 56.1883 291.185 0.788335L291.424 1.02696L22.998 0.738623Z" fill="#263238"/>
<path d="M175.56 146.375H306.315C307.444 146.375 308.528 146.823 309.326 147.621C310.125 148.419 310.574 149.502 310.574 150.63V231.931C310.574 234.42 309.584 236.807 307.822 238.568C306.061 240.328 303.671 241.317 301.18 241.317H180.694C178.203 241.317 175.814 240.328 174.052 238.568C172.29 236.807 171.301 234.42 171.301 231.931V150.63C171.301 149.502 171.749 148.419 172.548 147.621C173.347 146.823 174.43 146.375 175.56 146.375Z" fill="#BA68C8"/>
<path d="M301.177 241.313H301.475C301.674 241.313 301.963 241.313 302.351 241.234C303.491 241.077 304.593 240.717 305.605 240.17C307.255 239.258 308.593 237.872 309.446 236.193C309.992 235.137 310.33 233.986 310.441 232.802C310.521 231.54 310.441 230.167 310.441 228.726C310.441 217.163 310.391 200.459 310.361 179.808C310.361 174.651 310.361 169.249 310.361 163.602C310.361 160.785 310.361 157.912 310.361 154.982V150.557C310.346 149.837 310.14 149.134 309.764 148.519C309.388 147.904 308.856 147.4 308.222 147.058C307.574 146.724 306.851 146.56 306.122 146.58H289.574H269.612H180.711H176.243C175.768 146.554 175.291 146.574 174.82 146.64C173.908 146.8 173.079 147.272 172.478 147.976C171.877 148.68 171.54 149.572 171.526 150.498C171.526 154.385 171.526 158.253 171.526 162.091V184.75C171.526 199.614 171.526 213.941 171.526 227.602C171.526 229.293 171.526 231.023 171.526 232.663C171.671 234.288 172.246 235.845 173.192 237.175C174.138 238.504 175.421 239.559 176.91 240.229C178.384 240.86 179.986 241.136 181.587 241.035H200.424H234.257L283.205 241.114H296.52L283.205 241.164L234.257 241.243H200.424H181.636C179.971 241.347 178.305 241.061 176.77 240.408C175.203 239.707 173.851 238.6 172.855 237.202C171.86 235.803 171.257 234.164 171.108 232.454C171.019 230.734 171.108 229.064 171.059 227.354C171.059 213.693 171.059 199.365 171.059 184.501C171.059 177.077 171.059 169.524 171.059 161.842C171.059 158.004 171.059 154.137 171.059 150.239C171.075 149.194 171.456 148.188 172.135 147.393C172.815 146.598 173.75 146.065 174.78 145.884C175.281 145.812 175.788 145.789 176.293 145.815H180.721H269.622H306.132C306.934 145.79 307.729 145.971 308.441 146.342C309.138 146.723 309.723 147.281 310.135 147.96C310.547 148.639 310.773 149.415 310.789 150.209V154.644C310.789 157.58 310.789 160.453 310.789 163.264C310.789 168.898 310.789 174.3 310.789 179.47C310.789 200.121 310.72 216.825 310.7 228.388C310.7 229.839 310.7 231.192 310.7 232.484C310.594 233.684 310.256 234.853 309.705 235.924C308.823 237.614 307.454 238.999 305.774 239.901C304.749 240.437 303.631 240.774 302.48 240.896C302.054 241.06 301.619 241.199 301.177 241.313Z" fill="#263238"/>
<path d="M252.994 241.316H228.804C228.804 241.316 221.37 253.715 228.804 261.202H253.86C253.86 261.202 241.491 253.078 252.994 241.316Z" fill="#BA68C8"/>
<g opacity="0.3">
<path d="M228.806 241.316L227.582 243.772L249.753 245.503C250.763 244.054 251.845 242.656 252.997 241.316H228.806Z" fill="black"/>
</g>
<path d="M243.903 234.84C245.42 234.84 246.649 233.612 246.649 232.096C246.649 230.58 245.42 229.352 243.903 229.352C242.386 229.352 241.156 230.58 241.156 232.096C241.156 233.612 242.386 234.84 243.903 234.84Z" fill="#FAFAFA"/>
<path d="M303.891 151.602H177.973V224.013H303.891V151.602Z" fill="#FAFAFA"/>
<path d="M303.891 224.004C303.891 224.004 303.891 223.557 303.891 222.702C303.891 221.847 303.891 220.564 303.891 218.904C303.891 215.573 303.891 210.691 303.841 204.418C303.841 191.87 303.781 173.794 303.731 151.603L303.93 151.801L178.021 151.861L178.28 151.603C178.28 177.225 178.28 201.703 178.28 224.004L178.031 223.766L268.585 223.885L294.596 223.945H301.562H303.353H303.97H303.383H301.622H294.736L268.774 224.014L178.051 224.124H177.812V223.875C177.812 201.574 177.812 177.095 177.812 151.473V151.215H178.081L303.99 151.274H304.189V151.473C304.189 173.715 304.109 191.84 304.09 204.408C304.09 210.661 304.09 215.533 304.04 218.854C304.04 220.491 304.04 221.744 304.04 222.612C303.91 223.587 303.891 224.004 303.891 224.004Z" fill="#263238"/>
<path d="M209.021 157.73H179.387V222.238H209.021V157.73Z" fill="#BA68C8"/>
<g opacity="0.4">
<path d="M209.007 182.148H179.383V187.926H209.007V182.148Z" fill="black"/>
</g>
<g opacity="0.4">
<path d="M209.007 193.93H179.383V199.707H209.007V193.93Z" fill="black"/>
</g>
<g opacity="0.4">
<path d="M209.007 208.016H179.383V214.399H209.007V208.016Z" fill="black"/>
</g>
<path d="M203.868 190.942C200.701 191.199 197.522 191.285 194.345 191.201C191.165 191.285 187.983 191.198 184.812 190.942C187.983 190.686 191.165 190.6 194.345 190.683C197.522 190.599 200.701 190.686 203.868 190.942Z" fill="#263238"/>
<path d="M203.868 184.919C200.701 185.175 197.522 185.261 194.345 185.177C191.165 185.261 187.983 185.175 184.812 184.919C187.983 184.662 191.165 184.576 194.345 184.66C197.522 184.576 200.701 184.662 203.868 184.919Z" fill="#263238"/>
<path d="M209.017 214.399C209.017 214.539 202.45 214.658 194.34 214.658C186.23 214.658 179.652 214.539 179.652 214.399C179.652 214.26 186.23 214.141 194.34 214.141C202.45 214.141 209.017 214.26 209.017 214.399Z" fill="#263238"/>
<path d="M199.361 197.024C196.945 197.28 194.514 197.367 192.087 197.283C189.659 197.367 187.228 197.28 184.812 197.024C187.228 196.768 189.659 196.681 192.087 196.765C194.514 196.681 196.945 196.768 199.361 197.024Z" fill="#263238"/>
<path d="M201.412 210.512C198.996 210.774 196.565 210.861 194.137 210.771C191.71 210.861 189.279 210.774 186.863 210.512C189.279 210.256 191.71 210.17 194.137 210.254C196.565 210.17 198.996 210.256 201.412 210.512Z" fill="#263238"/>
<path d="M203.868 203.703C200.701 203.96 197.522 204.046 194.345 203.962C191.165 204.046 187.983 203.96 184.812 203.703C187.983 203.441 191.165 203.355 194.345 203.445C197.522 203.355 200.701 203.441 203.868 203.703Z" fill="#263238"/>
<path d="M203.868 218.173C200.701 218.435 197.522 218.521 194.345 218.431C191.165 218.521 187.983 218.435 184.812 218.173C187.983 217.916 191.165 217.83 194.345 217.914C197.522 217.83 200.701 217.916 203.868 218.173Z" fill="#263238"/>
<path d="M193.808 162.077C192.223 162.08 190.686 162.615 189.444 163.597C188.202 164.579 187.326 165.95 186.958 167.49C186.591 169.029 186.752 170.648 187.417 172.084C188.082 173.521 189.211 174.692 190.623 175.41V173.252C190.623 172.371 190.973 171.527 191.597 170.904C192.22 170.281 193.065 169.931 193.947 169.931C194.828 169.931 195.674 170.281 196.297 170.904C196.92 171.527 197.27 172.371 197.27 173.252V175.241C198.631 174.477 199.699 173.283 200.308 171.848C200.917 170.413 201.033 168.816 200.637 167.308C200.241 165.8 199.356 164.465 198.12 163.514C196.885 162.562 195.368 162.046 193.808 162.047V162.077ZM193.947 169.434C193.455 169.434 192.974 169.288 192.565 169.015C192.156 168.742 191.837 168.354 191.649 167.9C191.46 167.446 191.411 166.946 191.507 166.464C191.603 165.981 191.84 165.539 192.188 165.191C192.536 164.843 192.979 164.607 193.462 164.511C193.944 164.415 194.444 164.464 194.899 164.652C195.353 164.84 195.742 165.159 196.015 165.568C196.289 165.976 196.435 166.457 196.435 166.949C196.435 167.608 196.173 168.24 195.706 168.706C195.239 169.172 194.607 169.434 193.947 169.434Z" fill="#FAFAFA"/>
<path d="M193.945 169.934C193.063 169.934 192.218 170.283 191.595 170.906C190.971 171.529 190.621 172.374 190.621 173.255V175.412C191.655 175.939 192.802 176.201 193.962 176.177C195.122 176.153 196.258 175.842 197.268 175.273V173.285C197.271 172.846 197.187 172.412 197.021 172.006C196.856 171.6 196.611 171.231 196.303 170.92C195.994 170.608 195.627 170.361 195.222 170.192C194.817 170.023 194.383 169.935 193.945 169.934Z" fill="#BA68C8"/>
<path d="M193.945 164.465C193.453 164.465 192.972 164.611 192.563 164.884C192.154 165.157 191.835 165.545 191.646 165.999C191.458 166.454 191.409 166.953 191.505 167.436C191.601 167.918 191.838 168.361 192.186 168.709C192.534 169.056 192.977 169.293 193.459 169.389C193.942 169.485 194.442 169.436 194.897 169.247C195.351 169.059 195.74 168.741 196.013 168.332C196.287 167.923 196.432 167.442 196.432 166.951C196.432 166.291 196.17 165.659 195.704 165.193C195.237 164.727 194.605 164.465 193.945 164.465Z" fill="#BA68C8"/>
<path d="M200.909 169.138C200.85 169.138 200.909 168.511 200.591 167.438C200.167 165.934 199.257 164.613 198.004 163.679C197.151 163.038 196.159 162.609 195.108 162.426C193.908 162.21 192.671 162.317 191.526 162.735C190.258 163.195 189.159 164.027 188.371 165.121C187.512 166.284 187.048 167.692 187.048 169.138C187.048 170.584 187.512 171.991 188.371 173.154C189.159 174.249 190.258 175.08 191.526 175.541C192.671 175.958 193.907 176.068 195.108 175.859C196.158 175.668 197.15 175.236 198.004 174.596C199.257 173.662 200.167 172.341 200.591 170.838C200.88 169.764 200.85 169.138 200.909 169.138C200.922 169.29 200.922 169.443 200.909 169.595C200.905 170.031 200.852 170.464 200.75 170.888C200.391 172.469 199.49 173.876 198.203 174.865C197.126 175.7 195.837 176.218 194.48 176.357C193.124 176.497 191.756 176.254 190.532 175.655C189.307 175.056 188.275 174.126 187.554 172.971C186.832 171.815 186.449 170.48 186.449 169.118C186.449 167.756 186.832 166.421 187.554 165.265C188.275 164.109 189.307 163.179 190.532 162.581C191.756 161.982 193.124 161.739 194.48 161.878C195.837 162.018 197.126 162.535 198.203 163.371C199.49 164.36 200.391 165.766 200.75 167.348C200.852 167.775 200.906 168.212 200.909 168.651C200.924 168.813 200.924 168.976 200.909 169.138Z" fill="#FAFAFA"/>
<path d="M301.812 179.316H209.02V187.996H301.812V179.316Z" fill="#EBEBEB"/>
<path d="M301.812 157.73H209.02V162.086H301.812V157.73Z" fill="#F5F5F5"/>
<path d="M274.967 159.031H212.306C211.911 159.031 211.59 159.352 211.59 159.747V160.016C211.59 160.411 211.911 160.732 212.306 160.732H274.967C275.363 160.732 275.684 160.411 275.684 160.016V159.747C275.684 159.352 275.363 159.031 274.967 159.031Z" fill="#E0E0E0"/>
<path d="M283.921 159.031H279.752C279.356 159.031 279.035 159.352 279.035 159.747V160.016C279.035 160.411 279.356 160.732 279.752 160.732H283.921C284.317 160.732 284.638 160.411 284.638 160.016V159.747C284.638 159.352 284.317 159.031 283.921 159.031Z" fill="#E0E0E0"/>
<path d="M288.308 158.91H287.602V159.617H288.308V158.91Z" fill="#E0E0E0"/>
<path d="M288.308 159.836H287.602V160.542H288.308V159.836Z" fill="#E0E0E0"/>
<path d="M289.402 158.91H288.695V159.617H289.402V158.91Z" fill="#E0E0E0"/>
<path d="M289.402 159.836H288.695V160.542H289.402V159.836Z" fill="#E0E0E0"/>
<path d="M301.812 162.082H209.02V170.762H301.812V162.082Z" fill="#E0E0E0"/>
<path d="M214.217 164.914H211.59V167.539H214.217V164.914Z" fill="#BA68C8"/>
<path d="M254.855 166.216C254.855 166.355 246.337 166.474 235.829 166.474C225.321 166.474 216.812 166.355 216.812 166.216C216.812 166.076 225.33 165.957 235.829 165.957C246.327 165.957 254.855 166.066 254.855 166.216Z" fill="#263238"/>
<path d="M290.679 166.158C289.992 166.409 289.257 166.497 288.53 166.417C287.807 166.498 287.074 166.409 286.391 166.158C287.073 165.901 287.806 165.813 288.53 165.899C289.257 165.813 289.994 165.902 290.679 166.158Z" fill="#263238"/>
<path d="M301.812 187.91H209.02V196.59H301.812V187.91Z" fill="#FAFAFA"/>
<path d="M213.899 190.742H211.242V193.367H213.899V190.742Z" fill="#BA68C8"/>
<path d="M254.852 192.005C254.852 192.154 246.254 192.264 235.647 192.264C225.039 192.264 216.441 192.154 216.441 192.005C216.441 191.856 225.039 191.746 235.647 191.746C246.254 191.746 254.852 191.905 254.852 192.005Z" fill="#263238"/>
<path d="M291.058 192.013C290.369 192.269 289.628 192.358 288.898 192.272C288.155 192.362 287.401 192.273 286.699 192.013C287.393 191.763 288.135 191.674 288.869 191.754C289.608 191.669 290.358 191.757 291.058 192.013Z" fill="#263238"/>
<path d="M301.812 196.457H209.02V205.137H301.812V196.457Z" fill="#E0E0E0"/>
<path d="M213.899 199.297H211.242V201.922H213.899V199.297Z" fill="#BA68C8"/>
<path d="M254.852 200.595C254.852 200.744 246.254 200.853 235.647 200.853C225.039 200.853 216.441 200.744 216.441 200.595C216.441 200.445 225.039 200.336 235.647 200.336C246.254 200.336 254.852 200.455 254.852 200.595Z" fill="#263238"/>
<path d="M291.055 200.53C290.365 200.781 289.626 200.869 288.896 200.789C288.162 200.869 287.421 200.78 286.727 200.53C287.421 200.28 288.162 200.191 288.896 200.271C289.626 200.19 290.365 200.279 291.055 200.53Z" fill="#263238"/>
<path d="M301.812 205.016H209.02V213.695H301.812V205.016Z" fill="#FAFAFA"/>
<path d="M213.899 207.848H211.242V210.473H213.899V207.848Z" fill="#BA68C8"/>
<path d="M254.852 209.145C254.852 209.285 246.254 209.404 235.647 209.404C225.039 209.404 216.441 209.285 216.441 209.145C216.441 209.006 225.039 208.887 235.647 208.887C246.254 208.887 254.852 208.996 254.852 209.145Z" fill="#263238"/>
<path d="M291.055 209.08C290.365 209.331 289.626 209.419 288.896 209.339C288.162 209.419 287.421 209.33 286.727 209.08C287.419 208.824 288.162 208.735 288.896 208.821C289.626 208.735 290.366 208.823 291.055 209.08Z" fill="#263238"/>
<path d="M301.812 213.562H209.02V222.242H301.812V213.562Z" fill="#EBEBEB"/>
<path d="M213.899 216.387H211.242V219.012H213.899V216.387Z" fill="#BA68C8"/>
<path d="M254.852 217.7C254.852 217.839 246.254 217.959 235.647 217.959C225.039 217.959 216.441 217.839 216.441 217.7C216.441 217.561 225.039 217.441 235.647 217.441C246.254 217.441 254.852 217.551 254.852 217.7Z" fill="#263238"/>
<path d="M291.055 217.62C290.366 217.876 289.626 217.965 288.896 217.878C288.162 217.964 287.419 217.876 286.727 217.62C287.421 217.369 288.162 217.281 288.896 217.361C289.626 217.28 290.365 217.369 291.055 217.62Z" fill="#263238"/>
<path d="M301.814 170.641H209.012V179.321H301.814V170.641Z" fill="#FAFAFA"/>
<path d="M214.217 173.477H211.59V176.102H214.217V173.477Z" fill="#BA68C8"/>
<path d="M238.534 174.778C238.534 174.928 233.658 175.037 227.648 175.037C221.638 175.037 216.762 174.928 216.762 174.778C216.762 174.629 221.638 174.52 227.648 174.52C233.658 174.52 238.534 174.639 238.534 174.778Z" fill="#263238"/>
<path d="M290.679 175.041C289.992 175.291 289.257 175.38 288.53 175.3C287.807 175.381 287.074 175.292 286.391 175.041C287.073 174.784 287.806 174.695 288.53 174.782C289.257 174.696 289.994 174.785 290.679 175.041Z" fill="#263238"/>
<path d="M290.679 183.459C289.992 183.709 289.257 183.798 288.53 183.718C287.807 183.798 287.074 183.71 286.391 183.459C287.073 183.202 287.806 183.113 288.53 183.2C289.257 183.114 289.994 183.203 290.679 183.459Z" fill="#263238"/>
<path d="M214.217 182.145H211.59V184.77H214.217V182.145Z" fill="#BA68C8"/>
<path d="M269.213 183.45C269.213 183.589 257.471 183.709 242.992 183.709C228.514 183.709 216.762 183.589 216.762 183.45C216.762 183.311 228.504 183.191 242.992 183.191C257.481 183.191 269.213 183.301 269.213 183.45Z" fill="#263238"/>
<path d="M183.516 155.596C183.516 155.805 183.433 156.004 183.286 156.152C183.138 156.299 182.938 156.382 182.73 156.382C182.626 156.383 182.522 156.364 182.426 156.325C182.329 156.286 182.241 156.228 182.167 156.155C182.093 156.082 182.035 155.995 181.994 155.899C181.954 155.803 181.934 155.7 181.934 155.596C181.934 155.492 181.954 155.388 181.994 155.292C182.034 155.195 182.093 155.108 182.167 155.034C182.241 154.96 182.328 154.901 182.425 154.861C182.522 154.821 182.625 154.801 182.73 154.801C182.834 154.801 182.937 154.821 183.033 154.862C183.129 154.902 183.216 154.96 183.289 155.034C183.362 155.108 183.42 155.196 183.459 155.293C183.498 155.389 183.517 155.492 183.516 155.596Z" fill="#263238"/>
<path d="M186.612 155.596C186.612 155.807 186.528 156.01 186.379 156.159C186.229 156.308 186.027 156.392 185.816 156.392C185.604 156.392 185.402 156.308 185.253 156.159C185.103 156.01 185.02 155.807 185.02 155.596C185.02 155.385 185.103 155.183 185.253 155.034C185.402 154.885 185.604 154.801 185.816 154.801C186.027 154.801 186.229 154.885 186.379 155.034C186.528 155.183 186.612 155.385 186.612 155.596Z" fill="#263238"/>
<path d="M189.692 155.596C189.692 155.7 189.671 155.803 189.631 155.899C189.591 155.995 189.532 156.082 189.458 156.155C189.384 156.228 189.296 156.286 189.199 156.325C189.103 156.364 189 156.383 188.896 156.382C188.687 156.382 188.487 156.299 188.34 156.152C188.192 156.004 188.109 155.805 188.109 155.596C188.108 155.492 188.127 155.389 188.166 155.293C188.205 155.196 188.263 155.108 188.336 155.034C188.409 154.96 188.496 154.902 188.592 154.862C188.688 154.821 188.791 154.801 188.896 154.801C189 154.801 189.104 154.821 189.2 154.861C189.297 154.901 189.385 154.96 189.458 155.034C189.532 155.108 189.591 155.195 189.631 155.292C189.671 155.388 189.692 155.492 189.692 155.596Z" fill="#263238"/>
<path d="M301.812 222.236C301.812 220.645 301.812 195.55 301.702 153.374L301.812 153.493H179.416L179.575 153.344C179.575 177.693 179.575 200.989 179.575 222.206L179.426 222.057L301.822 222.206L179.426 222.355H179.227V222.206C179.227 200.989 179.227 177.693 179.227 153.344V153.234H179.386H301.782H301.901V153.354C301.862 195.55 301.822 220.655 301.812 222.236Z" fill="#263238"/>
<path d="M361.671 419.552H354.188L337.5 269.797H347.312L361.671 419.552Z" fill="#455A64"/>
<path d="M314.347 419.552H306.864L290.047 269.797H299.868L314.347 419.552Z" fill="#455A64"/>
<path d="M363.962 269.798H160.824H100.184V261.148H363.962V269.798Z" fill="#455A64"/>
<path d="M154.938 419.552H162.421L178.471 269.797H168.65L154.938 419.552Z" fill="#263238"/>
<path d="M90.7344 419.552H98.2175L115.025 269.797H105.203L90.7344 419.552Z" fill="#263238"/>
<path d="M181.453 261.148H100.184V269.798H181.453V261.148Z" fill="#263238"/>
<path d="M274.799 258.562H218.676V261.148H274.799V258.562Z" fill="#263238"/>
<path d="M338.515 385.48L343.819 414.622L307.598 421.403C307.16 417.903 324.604 407.483 324.604 407.483L320.445 388.96L338.515 385.48Z" fill="#BA68C8"/>
<g opacity="0.6">
<path d="M335.453 403.781C335.821 403.82 336.162 403.995 336.41 404.27C336.658 404.545 336.796 404.902 336.796 405.273C336.768 405.642 336.6 405.987 336.326 406.236C336.053 406.486 335.694 406.621 335.323 406.615C334.934 406.569 334.574 406.381 334.314 406.088C334.054 405.795 333.91 405.416 333.91 405.024C333.976 404.64 334.19 404.297 334.506 404.068C334.823 403.839 335.216 403.744 335.602 403.801" fill="white"/>
</g>
<g opacity="0.6">
<path d="M343.809 414.618L343.162 411.695L308.653 419.291C308.653 419.291 307.17 420.286 307.568 421.399L343.809 414.618Z" fill="white"/>
</g>
<path d="M323.96 407.376C323.96 407.555 324.896 407.465 325.881 407.873C326.866 408.28 327.453 408.937 327.602 408.867C327.752 408.798 327.304 407.803 326.11 407.326C324.916 406.849 323.891 407.217 323.96 407.376Z" fill="#263238"/>
<path d="M320.449 409.646C320.449 409.825 321.265 409.985 322.012 410.641C322.758 411.297 323.077 412.033 323.246 411.993C323.415 411.953 323.345 410.939 322.41 410.164C321.474 409.388 320.43 409.477 320.449 409.646Z" fill="#263238"/>
<path d="M319.149 414.605C319.318 414.605 319.398 413.69 318.761 412.805C318.124 411.92 317.228 411.691 317.179 411.811C317.129 411.93 317.746 412.397 318.253 413.123C318.761 413.849 318.97 414.625 319.149 414.605Z" fill="#263238"/>
<path d="M323.515 403.053C323.614 403.193 324.381 402.805 325.396 402.685C326.411 402.566 327.246 402.735 327.306 402.566C327.366 402.397 326.51 401.899 325.316 402.058C324.122 402.218 323.366 402.924 323.515 403.053Z" fill="#263238"/>
<path d="M323.516 398.586C324.143 398.639 324.773 398.518 325.337 398.238C325.968 397.997 326.569 397.683 327.128 397.303C327.456 397.072 327.769 396.82 328.063 396.547C328.246 396.397 328.403 396.219 328.531 396.02C328.634 395.869 328.681 395.687 328.663 395.505C328.645 395.323 328.563 395.153 328.431 395.026C328.32 394.92 328.186 394.842 328.039 394.797C327.892 394.753 327.737 394.742 327.586 394.767C327.354 394.81 327.13 394.883 326.919 394.986C326.551 395.154 326.198 395.354 325.864 395.583C325.304 395.975 324.807 396.452 324.391 396.995C323.705 397.929 323.536 398.645 323.605 398.675C323.675 398.705 324.003 398.088 324.74 397.283C325.166 396.818 325.651 396.41 326.182 396.07C326.499 395.869 326.832 395.696 327.178 395.553C327.546 395.374 327.864 395.314 328.003 395.463C328.143 395.612 328.053 395.553 328.003 395.672C327.912 395.818 327.798 395.949 327.665 396.06C327.377 396.328 327.088 396.577 326.809 396.796C326.297 397.176 325.75 397.508 325.177 397.79C324.607 398.02 324.052 398.286 323.516 398.586Z" fill="#263238"/>
<path d="M323.817 398.814C324.066 398.233 324.118 397.587 323.967 396.974C323.878 396.296 323.669 395.639 323.35 395.035C323.16 394.683 322.937 394.35 322.683 394.041C322.54 393.819 322.342 393.639 322.108 393.517C321.874 393.395 321.613 393.335 321.349 393.345C321.189 393.377 321.042 393.456 320.925 393.571C320.809 393.685 320.728 393.831 320.693 393.991C320.637 394.219 320.614 394.453 320.623 394.687C320.64 395.104 320.717 395.516 320.852 395.91C321.081 396.572 321.471 397.166 321.986 397.64C322.862 398.446 323.648 398.515 323.648 398.456C323.648 398.396 323.011 398.128 322.295 397.332C321.885 396.87 321.582 396.324 321.409 395.731C321.301 395.39 321.244 395.035 321.24 394.677C321.24 394.279 321.31 393.941 321.459 393.961C321.608 393.981 322.006 394.15 322.205 394.429C322.443 394.712 322.656 395.014 322.842 395.333C323.152 395.879 323.387 396.464 323.539 397.074C323.787 398.088 323.718 398.814 323.817 398.814Z" fill="#263238"/>
<path d="M296.262 390.172L301.964 419.244L265.803 426.502C265.325 423.012 282.63 412.324 282.63 412.324L278.221 393.841L296.262 390.172Z" fill="#BA68C8"/>
<g opacity="0.6">
<path d="M293.488 408.523C293.857 408.557 294.2 408.726 294.451 408.998C294.703 409.27 294.845 409.625 294.851 409.995C294.831 410.365 294.668 410.713 294.398 410.967C294.127 411.22 293.769 411.36 293.398 411.357C293.001 411.322 292.631 411.137 292.365 410.839C292.099 410.542 291.956 410.155 291.965 409.756C292.024 409.373 292.231 409.028 292.542 408.795C292.853 408.563 293.242 408.462 293.627 408.513" fill="white"/>
</g>
<g opacity="0.6">
<path d="M301.96 419.245L301.263 416.332L266.863 424.386C266.863 424.386 265.39 425.38 265.798 426.503L301.96 419.245Z" fill="white"/>
</g>
<path d="M282.011 412.259C282.011 412.438 282.947 412.338 283.932 412.736C284.917 413.134 285.524 413.731 285.673 413.671C285.822 413.611 285.355 412.607 284.151 412.149C282.947 411.692 281.942 412.11 282.011 412.259Z" fill="#263238"/>
<path d="M278.524 414.59C278.524 414.769 279.35 414.908 280.096 415.534C280.843 416.161 281.181 416.916 281.35 416.877C281.519 416.837 281.44 415.813 280.494 415.047C279.549 414.281 278.494 414.421 278.524 414.59Z" fill="#263238"/>
<path d="M277.293 419.551C277.452 419.551 277.522 418.626 276.875 417.751C276.228 416.876 275.323 416.657 275.283 416.826C275.243 416.995 275.85 417.393 276.368 418.129C276.885 418.865 277.114 419.571 277.293 419.551Z" fill="#263238"/>
<path d="M281.47 407.944C281.569 408.083 282.335 407.685 283.34 407.546C284.345 407.406 285.201 407.546 285.261 407.406C285.321 407.267 284.445 406.759 283.271 406.929C282.096 407.098 281.35 407.824 281.47 407.944Z" fill="#263238"/>
<path d="M281.461 403.481C282.087 403.532 282.715 403.404 283.272 403.113C283.903 402.853 284.501 402.519 285.053 402.118C285.378 401.887 285.687 401.635 285.979 401.363C286.158 401.208 286.312 401.027 286.436 400.826C286.538 400.674 286.583 400.492 286.565 400.311C286.547 400.129 286.466 399.96 286.337 399.831C286.223 399.726 286.087 399.649 285.938 399.606C285.79 399.563 285.633 399.555 285.481 399.583C285.248 399.624 285.023 399.701 284.814 399.811C284.45 399.985 284.101 400.188 283.77 400.418C283.216 400.82 282.727 401.303 282.317 401.85C281.64 402.794 281.481 403.51 281.55 403.54C281.62 403.57 281.939 402.944 282.665 402.128C283.09 401.66 283.571 401.245 284.098 400.895C284.417 400.697 284.75 400.521 285.093 400.368C285.451 400.189 285.78 400.12 285.909 400.279C286.038 400.438 285.969 400.358 285.909 400.488C285.818 400.634 285.704 400.765 285.571 400.875C285.306 401.14 285.023 401.386 284.725 401.611C284.221 401.994 283.681 402.328 283.113 402.606C282.544 402.862 281.993 403.154 281.461 403.481Z" fill="#263238"/>
<path d="M281.721 403.685C281.954 403.1 281.996 402.456 281.84 401.845C281.74 401.166 281.521 400.51 281.194 399.906C281.001 399.553 280.775 399.22 280.517 398.912C280.369 398.694 280.169 398.517 279.933 398.399C279.698 398.281 279.437 398.225 279.174 398.236C279.014 398.274 278.868 398.355 278.752 398.471C278.636 398.587 278.555 398.733 278.517 398.892C278.467 399.121 278.451 399.355 278.467 399.588C278.493 400.004 278.583 400.413 278.736 400.801C278.969 401.457 279.363 402.045 279.88 402.511C280.776 403.307 281.552 403.367 281.562 403.307C281.572 403.247 280.915 402.989 280.199 402.203C279.781 401.746 279.468 401.203 279.283 400.612C279.172 400.272 279.112 399.916 279.104 399.558C279.104 399.17 279.164 398.832 279.313 398.842C279.462 398.852 279.86 399.031 280.069 399.3C280.31 399.579 280.526 399.879 280.716 400.195C281.032 400.737 281.273 401.318 281.432 401.925C281.721 402.979 281.641 403.675 281.721 403.685Z" fill="#263238"/>
<path d="M317.354 395.982L303.304 317.774C302.614 313.912 302.957 309.937 304.299 306.25C305.851 301.918 308.703 298.169 312.466 295.516C316.229 292.863 320.72 291.435 325.325 291.426H374.92L407.321 305.773C407.322 308.541 406.751 311.28 405.641 313.817C404.532 316.353 402.91 318.633 400.876 320.513C398.842 322.393 396.441 323.832 393.824 324.74C391.207 325.647 388.429 326.004 385.667 325.787L332.748 321.641L340.371 392.482L317.354 395.982Z" fill="#263238"/>
<path d="M276.337 400.118L260.296 317.774C259.612 313.912 259.955 309.938 261.291 306.25C262.844 301.918 265.696 298.169 269.459 295.516C273.222 292.863 277.712 291.435 282.318 291.426H331.913L364.313 305.803V327.517L289.731 321.671L299.493 394.848L276.337 400.118Z" fill="#263238"/>
<path d="M299.505 394.834C299.505 394.834 299.436 394.535 299.336 393.959C299.237 393.382 299.117 392.487 298.958 391.423C298.63 389.186 298.182 386.015 297.625 382.117C296.55 374.163 295.077 363.366 293.445 351.385C291.943 339.881 290.569 329.422 289.554 321.676L289.634 321.816C286.082 319.37 283.385 317.182 281.444 315.761L279.225 314.11C278.951 313.936 278.692 313.74 278.449 313.523L278.668 313.643L279.285 314.021C279.812 314.369 280.589 314.895 281.564 315.591C283.554 316.964 286.291 319.111 289.843 321.497L289.913 321.547V321.627C290.958 329.372 292.38 339.822 293.943 351.325C295.515 363.306 296.928 374.193 297.973 382.077C298.46 385.975 298.859 389.147 299.137 391.404C299.257 392.467 299.356 393.313 299.426 393.939C299.479 394.234 299.506 394.534 299.505 394.834Z" fill="#455A64"/>
<path d="M252.555 258.743L256.067 252.161C256.27 251.857 256.548 251.612 256.874 251.448C257.2 251.284 257.564 251.208 257.928 251.226L259.5 251.296L262.177 248.8H265.302L267.71 247.199L276.984 248.979L284.626 251.027L280.278 259.617L275.919 258.703L268.596 258.574C266.479 258.536 264.458 257.685 262.953 256.197C261.649 254.92 259.894 254.206 258.068 254.209C258.068 254.209 255.769 259.369 252.555 258.743Z" fill="#FFBE9D"/>
<path d="M358.343 159.579L358.493 207.194L338.044 208.188L337.446 196.585C337.446 196.585 330.182 198.027 328.312 191.286C327.117 186.981 327.416 153.723 327.416 153.723L358.343 159.579Z" fill="#FFBE9D"/>
<path d="M358.653 196.859C360.832 194.602 361.837 191.46 362.344 188.368C362.852 185.276 362.932 182.114 363.618 179.052C364.325 175.83 365.688 172.788 366.375 169.567C367.061 166.345 367.011 162.746 365.101 160.062C365.101 160.062 363.837 156.373 358.444 156.084C358.444 156.084 353.856 148.667 347.08 149.314C337.875 150.189 337.626 147.484 331.278 146.49C330.53 146.31 329.754 146.28 328.995 146.401C328.235 146.522 327.508 146.793 326.853 147.197C326.199 147.601 325.632 148.13 325.184 148.755C324.735 149.379 324.416 150.086 324.242 150.835C324.242 150.835 320.988 153.251 320.839 156.741V156.83C320.79 158.555 321.299 160.25 322.29 161.663C323.282 163.076 324.702 164.132 326.342 164.675L327.566 165.083C328.755 165.365 329.862 165.92 330.8 166.703C332.084 167.986 332.293 169.974 332.223 171.784C332.153 173.593 331.905 175.463 332.512 177.163C332.721 177.739 333.218 178.376 333.815 178.217C334.412 178.058 334.492 177.043 334.561 176.308C334.77 174.18 337.547 172.559 339.437 174.12C340.034 174.57 340.458 175.209 340.639 175.933C340.82 176.657 340.747 177.421 340.433 178.097C339.716 179.589 338.154 180.762 337.855 182.432C337.348 185.226 340.632 187.672 341.885 189.193C342.313 189.742 342.793 190.248 343.318 190.705C346.035 192.981 348.692 196.143 352.274 197.376C354.662 198.201 357.578 197.992 359.389 196.233" fill="#263238"/>
<path d="M334.461 205.858C329.953 209.08 331.804 217.71 331.745 222.234C331.615 232.335 332.571 241.82 333.098 243.401C333.874 245.728 336.68 265.474 336.68 265.474L331.914 291.434C331.914 291.434 338.004 306.954 364.324 306.805L377.439 303.673C380.611 302.916 383.405 301.046 385.314 298.404C387.222 295.762 388.118 292.523 387.838 289.276L384.853 254.368L380.872 226.042C379.877 211.177 370.513 203.263 358.602 204.108L334.461 205.858Z" fill="#BA68C8"/>
<g opacity="0.5">
<path d="M345.217 303.431C342.331 301.939 346.212 272.877 349.565 257.993C350.879 252.186 352.62 246.191 356.75 241.896C360.138 238.615 364.408 236.391 369.039 235.493C373.312 234.616 377.664 234.19 382.025 234.22L386.145 300.378C386.145 300.378 357.606 309.873 345.217 303.431Z" fill="black"/>
</g>
<path d="M334.46 205.859C331.699 206.389 329.103 207.561 326.879 209.28C324.656 210.998 322.869 213.216 321.663 215.752C318.349 222.623 303.851 251.227 303.851 251.227L281.69 249.756L277.262 259.857L307.592 268C313.861 269.203 319.334 265.386 322.419 259.738L335.156 236.453L334.46 205.859Z" fill="#BA68C8"/>
<path d="M336.634 205.858C336.634 205.858 336.077 200.797 336.803 199.893C337.53 198.988 359.521 199.167 359.521 199.167L360.685 204.973L358.237 209.308L337.34 211.128L336.634 205.858Z" fill="#BA68C8"/>
<path d="M306.441 256.218C305.093 255.032 304.264 253.365 304.133 251.574C304.916 253.115 305.685 254.663 306.441 256.218Z" fill="#263238"/>
<path d="M338.193 228.543C337.263 231.222 336.169 233.842 334.919 236.388C333.82 239.004 332.567 241.554 331.168 244.024C332.099 241.345 333.192 238.725 334.442 236.179C335.536 233.56 336.789 231.01 338.193 228.543Z" fill="#263238"/>
<path d="M360.492 204.086C360.492 204.086 360.621 204.305 360.621 204.782C360.619 205.135 360.505 205.477 360.296 205.761C360.087 206.045 359.793 206.256 359.457 206.363C357.158 206.502 353.486 206.671 349.277 206.82C345.734 206.95 342.55 207.039 340.192 207.069C339.254 207.078 338.326 206.878 337.475 206.482C336.878 206.164 336.649 205.866 336.669 205.846C336.689 205.826 336.968 206.055 337.555 206.293C338.401 206.604 339.301 206.743 340.202 206.701C342.49 206.572 345.715 206.433 349.257 206.303C353.436 206.154 357.148 206.065 359.457 206.045C359.746 205.96 360.003 205.791 360.195 205.559C360.386 205.326 360.504 205.042 360.531 204.742C360.502 204.335 360.452 204.086 360.492 204.086Z" fill="#263238"/>
<path d="M323.893 212.231C324.023 212.291 319.664 220.951 314.161 231.569C308.658 242.188 304.101 250.748 303.972 250.669C303.842 250.589 308.201 241.939 313.704 231.321C319.206 220.702 323.764 212.161 323.893 212.231Z" fill="#263238"/>
<path d="M332.23 218.591C332.23 218.591 332.419 218.531 332.738 218.67C332.971 218.765 333.18 218.91 333.352 219.093C333.524 219.277 333.654 219.496 333.733 219.734C333.831 220.099 333.815 220.486 333.687 220.841C333.559 221.197 333.325 221.504 333.016 221.723C332.648 221.982 332.202 222.108 331.753 222.081C331.315 222.081 330.887 222.001 330.469 221.972C330.103 221.934 329.733 221.981 329.388 222.109C329.043 222.236 328.732 222.441 328.479 222.707C328.265 222.927 328.097 223.187 327.985 223.472C327.872 223.757 327.817 224.062 327.822 224.368C327.873 224.959 328.049 225.531 328.34 226.048C328.34 226.108 327.593 225.641 327.454 224.388C327.425 224.028 327.47 223.666 327.586 223.324C327.703 222.982 327.888 222.667 328.131 222.399C328.431 222.067 328.806 221.81 329.224 221.65C329.643 221.489 330.093 221.429 330.539 221.474C331.434 221.564 332.24 221.743 332.778 221.355C333.02 221.191 333.209 220.959 333.32 220.689C333.431 220.418 333.461 220.121 333.405 219.834C333.308 219.426 333.059 219.07 332.708 218.839C332.39 218.67 332.22 218.631 332.23 218.591Z" fill="#FAFAFA"/>
<path d="M361.608 218.912C361.608 218.912 361.807 218.862 362.125 218.991C362.348 219.095 362.548 219.244 362.711 219.429C362.873 219.614 362.996 219.831 363.071 220.065C363.17 220.429 363.155 220.815 363.029 221.17C362.903 221.526 362.671 221.834 362.364 222.054C361.99 222.3 361.548 222.425 361.1 222.412C360.652 222.412 360.235 222.322 359.817 222.293C359.45 222.256 359.08 222.305 358.735 222.434C358.39 222.563 358.079 222.77 357.826 223.038C357.613 223.258 357.445 223.518 357.332 223.803C357.22 224.088 357.164 224.393 357.17 224.699C357.214 225.291 357.391 225.865 357.687 226.379C357.687 226.429 356.941 225.962 356.801 224.719C356.773 224.359 356.817 223.998 356.932 223.656C357.046 223.315 357.229 223 357.468 222.73C357.769 222.395 358.145 222.136 358.565 221.974C358.985 221.811 359.438 221.75 359.886 221.795C360.782 221.885 361.578 222.064 362.125 221.676C362.367 221.513 362.555 221.283 362.666 221.015C362.778 220.746 362.808 220.45 362.752 220.165C362.649 219.759 362.402 219.405 362.056 219.17C361.777 219.001 361.598 218.952 361.608 218.912Z" fill="#FAFAFA"/>
<path d="M361.252 240.138C361.252 240.138 361.252 240.347 361.053 240.625C360.9 240.818 360.709 240.978 360.491 241.092C360.274 241.207 360.034 241.275 359.789 241.292C359.407 241.302 359.032 241.195 358.713 240.985C358.395 240.775 358.148 240.473 358.008 240.118C357.864 239.693 357.864 239.231 358.008 238.806C358.117 238.378 358.296 237.98 358.426 237.593C358.551 237.24 358.594 236.863 358.553 236.491C358.512 236.119 358.386 235.761 358.187 235.445C357.846 234.937 357.322 234.581 356.724 234.45C356.139 234.356 355.541 234.394 354.973 234.56C355.214 234.338 355.507 234.179 355.824 234.098C356.142 234.016 356.475 234.014 356.794 234.092C357.155 234.146 357.501 234.275 357.809 234.47C358.118 234.665 358.382 234.923 358.585 235.226C358.839 235.597 359.001 236.023 359.058 236.469C359.115 236.915 359.065 237.368 358.913 237.791C358.615 238.637 358.247 239.372 358.495 239.989C358.593 240.267 358.771 240.509 359.006 240.686C359.242 240.863 359.525 240.967 359.819 240.983C360.235 240.982 360.635 240.826 360.943 240.546C361.132 240.287 361.222 240.128 361.252 240.138Z" fill="#FAFAFA"/>
<path d="M348.396 270.254C348.396 270.254 348.396 270.463 348.197 270.732C348.043 270.925 347.85 271.085 347.631 271.2C347.412 271.314 347.171 271.382 346.923 271.398C346.543 271.409 346.169 271.304 345.85 271.096C345.532 270.888 345.285 270.587 345.142 270.234C345.003 269.805 345.003 269.342 345.142 268.912C345.252 268.484 345.431 268.097 345.56 267.699C345.691 267.349 345.737 266.973 345.696 266.601C345.654 266.23 345.526 265.874 345.321 265.561C345.157 265.308 344.944 265.089 344.694 264.919C344.445 264.748 344.164 264.628 343.869 264.567C343.285 264.469 342.686 264.503 342.117 264.666C342.057 264.666 342.684 264.04 343.938 264.209C344.298 264.263 344.642 264.391 344.95 264.585C345.259 264.778 345.524 265.032 345.729 265.332C345.98 265.705 346.141 266.131 346.198 266.576C346.255 267.022 346.207 267.474 346.058 267.898C345.749 268.753 345.381 269.479 345.63 270.095C345.725 270.374 345.902 270.619 346.138 270.796C346.374 270.973 346.658 271.076 346.953 271.09C347.373 271.092 347.778 270.936 348.088 270.652C348.247 270.394 348.336 270.234 348.396 270.254Z" fill="#FAFAFA"/>
<path d="M374.773 226.207C374.773 226.207 374.972 226.207 375.291 226.287C375.524 226.384 375.733 226.53 375.905 226.715C376.077 226.901 376.207 227.121 376.286 227.36C376.385 227.724 376.37 228.11 376.244 228.465C376.118 228.821 375.886 229.129 375.579 229.349C375.206 229.597 374.763 229.719 374.315 229.697C373.868 229.697 373.44 229.618 373.032 229.588C372.666 229.552 372.297 229.6 371.952 229.727C371.607 229.854 371.296 230.058 371.042 230.324C370.827 230.545 370.658 230.806 370.545 231.093C370.433 231.38 370.378 231.686 370.385 231.994C370.426 232.583 370.603 233.155 370.902 233.665C370.902 233.724 370.156 233.257 370.017 232.014C369.987 231.655 370.031 231.293 370.146 230.951C370.261 230.61 370.443 230.295 370.683 230.025C370.984 229.691 371.36 229.432 371.781 229.269C372.201 229.107 372.653 229.046 373.101 229.091C373.997 229.18 374.793 229.359 375.33 228.971C375.574 228.81 375.764 228.581 375.877 228.312C375.99 228.043 376.022 227.747 375.967 227.46C375.865 227.055 375.617 226.701 375.271 226.466C374.942 226.297 374.763 226.247 374.773 226.207Z" fill="#FAFAFA"/>
<path d="M344.091 252.888C344.091 252.888 343.942 252.749 343.892 252.401C343.862 252.157 343.883 251.91 343.955 251.675C344.027 251.44 344.148 251.223 344.31 251.039C344.571 250.759 344.911 250.567 345.286 250.489C345.66 250.41 346.049 250.45 346.4 250.601C346.821 250.782 347.171 251.096 347.395 251.496C347.624 251.884 347.773 252.282 347.962 252.66C348.124 252.997 348.36 253.293 348.653 253.525C348.946 253.758 349.289 253.921 349.654 254.002C350.251 254.118 350.87 253.993 351.375 253.654C351.856 253.308 352.254 252.86 352.54 252.341C352.589 252.341 352.54 253.187 351.545 253.962C351.251 254.177 350.917 254.329 350.563 254.409C350.209 254.49 349.842 254.496 349.485 254.429C349.043 254.345 348.627 254.158 348.271 253.884C347.915 253.609 347.628 253.254 347.435 252.848C347.047 252.033 346.788 251.257 346.171 250.999C345.906 250.876 345.611 250.834 345.323 250.879C345.034 250.923 344.765 251.051 344.549 251.248C344.256 251.547 344.083 251.943 344.061 252.361C344.071 252.66 344.131 252.868 344.091 252.888Z" fill="#FAFAFA"/>
<path d="M345.537 232.931C345.537 232.931 345.736 232.871 346.045 233.01C346.278 233.104 346.489 233.248 346.66 233.432C346.832 233.616 346.962 233.835 347.04 234.074C347.139 234.438 347.125 234.824 346.998 235.179C346.872 235.535 346.64 235.843 346.333 236.063C345.957 236.314 345.511 236.439 345.06 236.421C344.622 236.421 344.194 236.331 343.786 236.302C343.419 236.269 343.05 236.319 342.706 236.448C342.361 236.577 342.05 236.782 341.796 237.047C341.582 237.267 341.414 237.527 341.302 237.812C341.189 238.097 341.134 238.402 341.139 238.708C341.19 239.3 341.37 239.873 341.666 240.388C341.666 240.438 340.92 239.981 340.781 238.728C340.747 238.368 340.789 238.006 340.904 237.663C341.019 237.321 341.204 237.006 341.447 236.739C341.747 236.405 342.121 236.147 342.54 235.986C342.958 235.825 343.409 235.766 343.856 235.814C344.761 235.904 345.557 236.083 346.094 235.695C346.339 235.533 346.529 235.301 346.641 235.03C346.752 234.759 346.78 234.461 346.721 234.174C346.623 233.769 346.378 233.415 346.035 233.179C345.706 233.01 345.527 232.97 345.537 232.931Z" fill="#FAFAFA"/>
<path d="M344.938 280.152C344.938 280.152 345.137 280.152 345.445 280.232C345.677 280.331 345.886 280.477 346.058 280.663C346.229 280.848 346.359 281.067 346.44 281.306C346.54 281.67 346.525 282.055 346.399 282.411C346.272 282.766 346.04 283.075 345.734 283.295C345.356 283.541 344.911 283.666 344.46 283.652C344.022 283.652 343.594 283.563 343.176 283.533C342.81 283.498 342.44 283.547 342.095 283.676C341.75 283.805 341.439 284.011 341.186 284.279C340.971 284.498 340.803 284.758 340.69 285.043C340.577 285.328 340.522 285.633 340.529 285.939C340.582 286.527 340.759 287.096 341.047 287.61C341.047 287.67 340.311 287.202 340.161 285.959C340.132 285.599 340.176 285.237 340.293 284.895C340.409 284.553 340.595 284.238 340.838 283.971C341.137 283.636 341.511 283.377 341.93 283.215C342.348 283.052 342.799 282.991 343.246 283.036C344.142 283.125 344.948 283.304 345.485 282.917C345.728 282.756 345.918 282.526 346.03 282.257C346.142 281.987 346.17 281.691 346.112 281.405C346.016 280.999 345.771 280.644 345.425 280.411C345.107 280.242 344.928 280.192 344.938 280.152Z" fill="#FAFAFA"/>
<path d="M316.788 254.981C316.788 254.981 316.988 254.922 317.306 255.061C317.531 255.162 317.732 255.311 317.895 255.496C318.058 255.681 318.179 255.899 318.251 256.135C318.355 256.499 318.343 256.886 318.216 257.242C318.089 257.598 317.855 257.907 317.545 258.124C317.176 258.382 316.731 258.509 316.281 258.482C315.833 258.482 315.415 258.402 314.997 258.372C314.632 258.336 314.262 258.384 313.918 258.511C313.573 258.639 313.262 258.843 313.007 259.108C312.792 259.329 312.624 259.591 312.511 259.877C312.398 260.164 312.344 260.471 312.35 260.779C312.397 261.367 312.573 261.937 312.868 262.449C312.868 262.509 312.122 262.041 311.982 260.788C311.951 260.428 311.995 260.066 312.112 259.723C312.228 259.381 312.415 259.067 312.659 258.8C312.958 258.465 313.332 258.205 313.75 258.043C314.169 257.88 314.62 257.819 315.067 257.865C315.963 257.955 316.769 258.134 317.306 257.746C317.549 257.582 317.739 257.351 317.85 257.08C317.962 256.809 317.991 256.512 317.933 256.224C317.836 255.816 317.587 255.46 317.236 255.23C316.958 255.071 316.788 255.021 316.788 254.981Z" fill="#FAFAFA"/>
<path d="M324.299 241.231C324.299 241.231 324.299 241.43 324.169 241.738C324.047 241.952 323.881 242.137 323.682 242.283C323.483 242.429 323.256 242.531 323.015 242.583C322.641 242.652 322.256 242.603 321.91 242.445C321.565 242.287 321.277 242.026 321.085 241.698C320.868 241.304 320.784 240.851 320.846 240.406C320.846 239.958 321.005 239.55 321.075 239.133C321.146 238.767 321.134 238.389 321.037 238.029C320.94 237.669 320.763 237.336 320.517 237.055C320.317 236.822 320.072 236.631 319.797 236.492C319.522 236.354 319.222 236.271 318.915 236.249C318.325 236.249 317.742 236.375 317.204 236.617C317.144 236.617 317.671 235.911 318.935 235.891C319.308 235.884 319.678 235.955 320.021 236.101C320.364 236.246 320.672 236.463 320.925 236.736C321.23 237.066 321.452 237.463 321.575 237.895C321.698 238.327 321.717 238.782 321.632 239.222C321.463 240.107 321.214 240.883 321.542 241.46C321.684 241.717 321.898 241.927 322.158 242.063C322.418 242.199 322.713 242.256 323.005 242.225C323.416 242.157 323.787 241.941 324.05 241.619C324.199 241.39 324.259 241.221 324.299 241.231Z" fill="#FAFAFA"/>
<path d="M345.806 216.108C345.806 216.108 345.806 216.307 345.687 216.605C345.565 216.82 345.399 217.007 345.2 217.155C345.001 217.302 344.774 217.406 344.532 217.46C344.156 217.528 343.768 217.479 343.421 217.319C343.073 217.159 342.784 216.895 342.592 216.565C342.374 216.171 342.291 215.718 342.353 215.272C342.353 214.835 342.512 214.417 342.582 214.01C342.656 213.645 342.646 213.267 342.551 212.907C342.456 212.546 342.279 212.213 342.035 211.931C341.626 211.464 341.051 211.175 340.432 211.126C339.838 211.119 339.25 211.244 338.711 211.494C338.916 211.238 339.182 211.037 339.484 210.909C339.786 210.78 340.115 210.729 340.442 210.758C340.808 210.758 341.169 210.834 341.503 210.981C341.837 211.129 342.137 211.344 342.383 211.613C342.689 211.942 342.914 212.339 343.038 212.771C343.162 213.203 343.183 213.658 343.099 214.099C342.92 214.974 342.671 215.76 343.01 216.326C343.147 216.585 343.359 216.796 343.618 216.932C343.877 217.069 344.172 217.125 344.463 217.092C344.876 217.03 345.252 216.818 345.517 216.496C345.706 216.257 345.766 216.088 345.806 216.108Z" fill="#FAFAFA"/>
<path d="M374.642 214.402C374.642 214.402 374.642 214.601 374.513 214.909C374.391 215.123 374.225 215.309 374.026 215.454C373.827 215.6 373.6 215.702 373.359 215.755C372.985 215.824 372.599 215.777 372.253 215.618C371.907 215.46 371.619 215.198 371.428 214.87C371.211 214.476 371.127 214.022 371.189 213.577C371.189 213.129 371.349 212.722 371.418 212.304C371.49 211.938 371.477 211.561 371.381 211.201C371.284 210.84 371.106 210.507 370.861 210.226C370.458 209.758 369.885 209.468 369.269 209.42C368.676 209.42 368.089 209.545 367.547 209.788C367.488 209.788 368.025 209.082 369.279 209.063C369.643 209.061 370.004 209.136 370.338 209.281C370.672 209.427 370.972 209.64 371.219 209.908C371.526 210.236 371.75 210.633 371.873 211.066C371.995 211.498 372.014 211.953 371.926 212.394C371.757 213.279 371.508 214.054 371.846 214.631C371.985 214.888 372.197 215.099 372.456 215.235C372.715 215.371 373.008 215.428 373.299 215.397C373.712 215.334 374.085 215.118 374.344 214.79C374.543 214.561 374.603 214.392 374.642 214.402Z" fill="#FAFAFA"/>
<path d="M298.779 258.625C298.779 258.625 298.779 258.824 298.65 259.132C298.528 259.345 298.364 259.53 298.167 259.675C297.97 259.821 297.744 259.924 297.505 259.977C297.13 260.048 296.742 260.001 296.395 259.842C296.047 259.684 295.758 259.422 295.565 259.092C295.348 258.699 295.264 258.245 295.326 257.8C295.326 257.352 295.485 256.944 295.555 256.527C295.629 256.161 295.617 255.783 295.521 255.422C295.424 255.062 295.245 254.728 294.998 254.449C294.594 253.98 294.022 253.691 293.406 253.643C292.812 253.643 292.225 253.768 291.684 254.011C291.624 254.011 292.162 253.305 293.416 253.285C293.78 253.283 294.141 253.357 294.476 253.502C294.81 253.648 295.11 253.862 295.356 254.13C295.663 254.459 295.886 254.856 296.009 255.288C296.132 255.72 296.15 256.176 296.063 256.616C295.893 257.501 295.645 258.277 295.983 258.854C296.123 259.11 296.335 259.32 296.594 259.456C296.852 259.592 297.145 259.649 297.436 259.619C297.851 259.555 298.226 259.339 298.491 259.013C298.64 258.734 298.739 258.565 298.779 258.625Z" fill="#FAFAFA"/>
<path d="M344.989 332.117L344.203 419.552H349.179L349.557 333.857C349.557 333.857 349.805 329.94 352.791 329.681C355.776 329.423 400.555 331.67 400.555 331.67L413.75 419.552H419.482L406.546 331.68C406.546 331.68 368.941 318.973 350.253 322.89C350.253 322.89 345.765 322.065 345.517 325.505C345.268 328.945 344.989 332.117 344.989 332.117Z" fill="#E0E0E0"/>
<path d="M345.868 322.018C345.868 322.018 353.65 261.368 356.446 251.088C357.78 246.438 360.875 242.49 365.074 240.081C367.45 238.645 370.188 237.92 372.965 237.993L414.271 238.898C415.163 238.917 416.04 239.126 416.843 239.512C417.647 239.898 418.359 240.452 418.93 241.136C419.502 241.82 419.92 242.619 420.156 243.478C420.393 244.337 420.442 245.237 420.301 246.116L406.609 331.682C391.414 331.682 355.859 331.682 355.859 331.682C355.859 331.682 307.209 326.383 299.736 326.055C295.069 325.846 294.761 327.646 294.323 329.594C289.944 326.055 292.561 318.767 298.184 319.115L345.868 322.018Z" fill="#455A64"/>
<path d="M420.041 243.052C419.925 243.065 419.808 243.065 419.693 243.052H418.648L414.667 243.102L399.95 243.182H389.78H381.153C380.158 243.182 379.163 243.182 378.167 243.241C376.065 243.459 374.068 244.27 372.41 245.58C370.751 246.89 369.501 248.645 368.804 250.639C368.473 251.699 368.236 252.787 368.097 253.89C367.918 255.013 367.729 256.147 367.54 257.28C367.168 259.56 366.794 261.88 366.415 264.24C363.321 282.922 360.515 299.834 358.455 312.113C357.46 318.218 356.574 323.16 355.997 326.62C355.698 328.3 355.459 329.602 355.3 330.597C355.221 331.024 355.151 331.362 355.101 331.591C355.092 331.707 355.065 331.821 355.022 331.929C355.008 331.813 355.008 331.697 355.022 331.581C355.022 331.322 355.101 330.984 355.161 330.587C355.31 329.652 355.509 328.33 355.768 326.61C356.315 323.14 357.091 318.188 358.057 312.074C360.047 299.795 362.803 282.872 365.838 264.17C366.223 261.837 366.601 259.517 366.973 257.211C367.162 256.067 367.351 254.944 367.53 253.82C367.678 252.688 367.921 251.571 368.256 250.479C368.987 248.394 370.299 246.562 372.037 245.196C373.775 243.831 375.868 242.991 378.068 242.774C379.123 242.694 380.128 242.724 381.123 242.724H389.75H399.92L414.638 242.804L418.618 242.853H419.663L420.041 243.052Z" fill="#263238"/>
<path d="M294.23 332.116L291.961 419.551H296.936L298.22 333.995C298.22 333.995 298.28 328.894 302.2 329.322C305.186 329.65 350.403 334.899 350.403 334.899L365.618 419.551H371.349L355.856 331.678L300.439 324.718C299.286 324.55 298.109 324.726 297.056 325.225C296.243 325.635 295.558 326.259 295.075 327.03C294.593 327.802 294.331 328.691 294.319 329.6C294.061 333.03 294.23 332.116 294.23 332.116Z" fill="#EBEBEB"/>
<path d="M407.32 238.734C407.32 238.734 379.458 329.38 345.863 322.013L346.421 317.738C346.421 317.738 372.353 322.043 402.872 238.645L407.32 238.734Z" fill="#BA68C8"/>
<path d="M348.266 320.993C348.399 330.432 350.251 339.767 353.729 348.544C354.724 351.089 356.057 353.774 358.525 354.967C360.993 356.16 363.859 355.533 366.486 354.818C372.992 353.024 379.339 350.696 385.462 347.858C387.701 346.814 390.059 345.561 391.204 343.374C392.577 340.759 391.851 337.587 391.064 334.744C388.557 325.616 385.741 316.575 382.616 307.62C381.969 305.761 378.974 298.562 378.974 298.562" fill="#BA68C8"/>
<path d="M382.314 309.328C382.342 309.489 382.342 309.654 382.314 309.815C382.314 310.133 382.314 310.601 382.224 311.197C382.058 312.896 381.742 314.576 381.279 316.218C380.593 318.677 379.551 321.022 378.184 323.178C376.501 325.818 374.276 328.072 371.657 329.79C369.041 331.528 366.03 332.581 362.9 332.852C360.347 333.047 357.783 332.667 355.397 331.739C353.794 331.118 352.31 330.226 351.008 329.104C350.656 328.794 350.324 328.462 350.013 328.11C349.899 327.996 349.799 327.869 349.715 327.732C349.715 327.732 350.202 328.189 351.128 328.935C352.456 329.974 353.936 330.802 355.516 331.391C357.86 332.247 360.362 332.586 362.85 332.385C365.892 332.107 368.818 331.082 371.368 329.402C373.925 327.726 376.105 325.535 377.766 322.969C379.127 320.871 380.185 318.591 380.911 316.198C381.4 314.571 381.769 312.909 382.016 311.227C382.224 309.935 382.274 309.328 382.314 309.328Z" fill="#263238"/>
<path d="M369.101 334.484C368.935 333.044 368.935 331.589 369.101 330.149C369.115 328.697 369.298 327.252 369.649 325.844C369.818 327.284 369.818 328.739 369.649 330.179C369.639 331.63 369.455 333.076 369.101 334.484Z" fill="#263238"/>
<path d="M67.8281 354.072C75.0724 356.598 84.5258 354.341 90.7152 349.817C96.9047 345.293 101.373 338.811 105.333 332.239C107.015 329.435 108.667 326.512 109.194 323.29C109.721 320.069 108.945 316.43 106.438 314.342C102.547 311.061 96.5763 312.721 92.1481 315.247C85.2475 319.263 79.4279 324.896 75.1911 331.66C70.9543 338.424 68.4274 346.116 67.8281 354.072Z" fill="#BA68C8"/>
<path d="M75.6094 371.401C79.9579 377.138 87.4311 379.693 94.6355 380.021C101.84 380.349 108.945 378.371 115.672 375.786C118.11 374.851 120.777 373.569 121.642 371.103C121.908 370.147 121.93 369.14 121.708 368.173C121.485 367.206 121.025 366.309 120.369 365.565C119.039 364.088 117.374 362.952 115.513 362.254C108.769 359.569 101.331 359.167 94.337 361.111C87.3714 362.91 81.2913 366.947 75.6392 371.401" fill="#BA68C8"/>
<path d="M67.7203 323.05C73.6908 323.169 78.2583 317.919 80.9749 312.57C84.75 305.097 86.0032 296.604 84.5473 288.36C84 285.298 82.8457 281.997 80.0992 280.525C77.3528 279.054 73.6809 280.008 71.3424 282.146C69.0039 284.284 67.78 287.316 66.7849 290.339C63.5608 300.748 64.2574 312.709 67.7103 323.05" fill="#BA68C8"/>
<path d="M48.0153 356.202C58.2448 338.812 59.9564 317.535 53.9062 298.287C52.9111 295.165 51.0802 291.585 47.8063 291.376C44.1842 291.148 41.9154 295.184 40.9203 298.664C37.4076 310.894 38.1539 323.869 38.9301 336.565C39.4078 344.38 42.0945 351.072 48.0153 356.202Z" fill="#BA68C8"/>
<path d="M37.3769 363.354C35.4722 357.395 32.2538 351.939 27.9587 347.388C23.6636 342.836 18.4012 339.306 12.5594 337.056C9.84275 336.062 6.38979 335.455 4.35981 337.523C2.32982 339.591 2.98658 342.972 4.2603 345.477C6.32013 349.594 9.66364 352.894 12.9972 356.056C15.9825 358.94 19.1668 361.833 23.0078 363.503C26.8489 365.174 33.8742 365.601 37.3769 363.324" fill="#BA68C8"/>
<path d="M100.796 318.677L100.617 318.836L100.059 319.264L97.92 320.865L96.3676 322.008C95.8004 322.436 95.2233 322.943 94.5765 323.46C93.3127 324.514 91.8201 325.657 90.3075 327.089L87.8994 329.276C87.0635 330.042 86.2675 330.907 85.3918 331.762C83.6305 333.452 81.9289 335.431 80.0979 337.469C76.239 341.993 72.7138 346.792 69.5499 351.826C66.4584 356.911 63.7348 362.211 61.4001 367.684C60.4051 370.239 59.41 372.655 58.6636 374.972C58.2855 376.125 57.8676 377.239 57.5591 378.323L56.6735 381.455C56.0665 383.443 55.6784 385.293 55.34 386.893C55.1609 387.699 54.9719 388.444 54.8325 389.13L54.5042 391.039C54.3052 392.153 54.1459 393.028 54.0265 393.664C53.9768 393.943 53.927 394.171 53.8972 394.35C53.8855 394.429 53.862 394.507 53.8275 394.579C53.8231 394.499 53.8231 394.42 53.8275 394.34C53.8275 394.161 53.8574 393.933 53.9171 393.654C54.0066 393.008 54.136 392.123 54.2952 391.009C54.3848 390.423 54.4843 389.787 54.5937 389.091C54.7032 388.395 54.8923 387.649 55.0515 386.834C55.4097 385.223 55.7381 383.364 56.3252 381.365C56.5939 380.371 56.8824 379.307 57.181 378.213C57.4795 377.12 57.8875 376.006 58.2656 374.843C58.9821 372.496 59.9772 370.08 60.9723 367.515C65.5337 356.452 71.8656 346.203 79.7198 337.17C81.5706 335.132 83.2921 333.193 85.0734 331.483C85.949 330.628 86.765 329.763 87.6009 329.008L90.0488 326.83C91.5713 325.408 93.0341 324.285 94.3675 323.251C95.0243 322.734 95.6114 322.257 96.1885 321.829L97.7707 320.706L99.9699 319.174L100.547 318.787C100.716 318.707 100.786 318.667 100.796 318.677Z" fill="#263238"/>
<path d="M114.337 366.889C114.099 366.87 113.862 366.83 113.631 366.769C113.173 366.69 112.516 366.511 111.641 366.372C102.323 364.519 92.6824 365.144 83.6831 368.186C74.6838 371.227 66.6423 376.578 60.3638 383.702C58.709 385.56 57.1798 387.526 55.7863 389.588C55.2689 390.313 54.9306 390.9 54.6718 391.288C54.5541 391.495 54.414 391.688 54.2539 391.864C54.3475 391.648 54.4573 391.438 54.5823 391.238C54.8211 390.84 55.1395 390.244 55.6271 389.488C56.9661 387.389 58.463 385.395 60.105 383.523C65.5156 377.226 72.3283 372.285 79.9961 369.096C87.6639 365.907 95.9733 364.558 104.257 365.159C106.755 365.326 109.237 365.681 111.681 366.223C112.546 366.401 113.203 366.6 113.671 366.72C113.898 366.754 114.121 366.81 114.337 366.889Z" fill="#263238"/>
<path d="M76.5671 287.461C76.5671 287.461 76.5671 287.55 76.5671 287.729C76.5671 287.908 76.4676 288.187 76.398 288.515C76.2387 289.231 76.0099 290.235 75.7312 291.498C75.1441 294.093 74.2386 297.841 73.1142 302.434C70.8553 311.691 67.5815 324.437 64.1583 338.566C62.4667 345.645 60.9342 352.396 59.6108 358.55C58.2873 364.705 57.2027 370.273 56.3867 374.966C55.9389 377.302 55.6105 379.43 55.2921 381.299C54.9736 383.168 54.7249 384.769 54.5358 386.091C54.3467 387.414 54.1776 388.398 54.0582 389.124C54.0084 389.442 53.9587 389.7 53.9288 389.909C53.9159 390.001 53.8925 390.091 53.8592 390.178C53.8542 390.085 53.8542 389.992 53.8592 389.899C53.8592 389.7 53.8591 389.432 53.9388 389.104C54.0383 388.378 54.1676 387.354 54.3268 386.061C54.4861 384.769 54.7149 383.079 55.0035 381.259C55.2921 379.44 55.6105 377.282 55.9986 374.906C56.7748 370.203 57.8495 364.625 59.1232 358.461C60.3969 352.296 61.9492 345.536 63.6409 338.456C67.0541 324.328 70.3876 311.611 72.7161 302.355C73.8804 297.761 74.8257 294.033 75.4825 291.418C75.8109 290.155 76.0596 289.161 76.2487 288.435L76.4577 287.67C76.4865 287.596 76.5232 287.526 76.5671 287.461Z" fill="#263238"/>
<path d="M53.0704 388.866C53.0445 388.798 53.0245 388.728 53.0107 388.657L52.8615 388.03C52.7421 387.434 52.5729 386.628 52.3639 385.604C51.9261 383.497 51.3688 380.444 50.7021 376.656C49.3886 369.06 47.8761 358.551 46.881 346.858C46.4133 341.012 46.1546 335.434 46.0451 330.354C45.9356 325.273 46.0451 320.689 46.1645 316.852C46.1645 314.933 46.3337 313.203 46.4133 311.681C46.4929 310.16 46.6023 308.848 46.7019 307.774C46.8014 306.7 46.871 305.915 46.9307 305.308C46.9307 305.05 46.9307 304.841 47.0004 304.672C46.991 304.599 46.991 304.526 47.0004 304.453C47.0109 304.526 47.0109 304.599 47.0004 304.672C47.0004 304.851 47.0004 305.06 47.0004 305.318C47.0004 305.925 46.9208 306.75 46.8611 307.784C46.8014 308.818 46.7118 310.17 46.662 311.691C46.6123 313.213 46.4929 314.943 46.473 316.861C46.3536 320.699 46.3436 325.273 46.473 330.344C46.6023 335.414 46.881 340.982 47.3487 346.818C48.3438 358.491 49.7966 368.99 51.0305 376.567C51.6375 380.355 52.1649 383.417 52.5331 385.515C52.7122 386.509 52.8515 387.354 52.951 387.951C52.951 388.199 53.0207 388.408 53.0505 388.587C53.0821 388.676 53.089 388.773 53.0704 388.866Z" fill="#263238"/>
<path d="M53.8473 391.039C53.7458 390.847 53.6593 390.647 53.5886 390.442C53.4095 389.995 53.1906 389.448 52.912 388.692C52.7627 388.304 52.6035 387.887 52.4343 387.42C52.2651 386.952 52.0064 386.425 51.7775 385.958L51.0213 384.268C50.7626 383.661 50.4143 383.065 50.0958 382.408C49.7774 381.752 49.4092 381.086 49.1008 380.42C48.7923 379.754 48.2848 379.028 47.8569 378.282C47.031 376.791 45.9662 375.3 44.9413 373.669C42.5642 370.247 39.9927 366.964 37.2393 363.836C34.4477 360.74 31.4983 357.789 28.4029 354.997C26.9301 353.754 25.5868 352.521 24.2235 351.477L22.293 349.936L20.4521 348.584C19.2878 347.699 18.2032 346.963 17.2379 346.327C16.2727 345.691 15.4567 345.114 14.7602 344.696L13.178 343.702C12.9821 343.602 12.8012 343.475 12.6406 343.324C12.8404 343.409 13.0334 343.508 13.2178 343.622L14.8597 344.547C15.5662 344.945 16.422 345.472 17.3872 346.108C18.3524 346.744 19.4769 347.45 20.6511 348.315L22.5119 349.648L24.5021 351.179C25.8753 352.173 27.2386 353.436 28.7213 354.669C31.8692 357.453 34.8591 360.41 37.6771 363.528C40.4501 366.68 43.0256 370.001 45.3891 373.47C46.3842 375.111 47.4688 376.622 48.2748 378.133L49.5087 380.301C49.857 381.007 50.2053 381.693 50.5038 382.349C50.8024 383.005 51.1606 383.621 51.4094 384.228C51.6581 384.834 51.9069 385.401 52.1358 385.938L52.7527 387.429C52.912 387.9 53.0612 388.328 53.2005 388.712L53.7876 390.502C53.8248 390.678 53.8448 390.858 53.8473 391.039Z" fill="#263238"/>
<path d="M96.9951 338.851C96.9951 338.92 95.7612 338.92 93.771 339.03C88.5794 339.308 83.4487 340.281 78.5162 341.923C76.6256 342.55 75.4713 343.007 75.4414 342.918C75.6803 342.745 75.9414 342.604 76.2176 342.5C76.7151 342.261 77.4714 341.943 78.4068 341.585C80.8597 340.669 83.3864 339.964 85.9595 339.477C88.5284 338.983 91.1354 338.714 93.7511 338.672C94.7462 338.672 95.5721 338.672 96.1294 338.722C96.4229 338.72 96.7149 338.763 96.9951 338.851Z" fill="#263238"/>
<path d="M104.711 376.499C103.588 374.211 102.174 372.079 100.502 370.155C98.7218 368.35 96.7148 366.782 94.5312 365.492C95.2668 365.681 95.9661 365.99 96.601 366.407C99.8107 368.254 102.388 371.026 103.995 374.361C104.342 375.032 104.584 375.753 104.711 376.499Z" fill="#263238"/>
<path d="M78.405 301.582C78.4945 301.691 76.6138 303.571 74.5639 306.076C72.514 308.582 71.0413 310.819 70.9219 310.739C71.7659 308.934 72.8651 307.26 74.1858 305.768C75.3817 304.176 76.803 302.766 78.405 301.582Z" fill="#263238"/>
<path d="M72.2236 290.926C72.9961 293.578 73.4602 296.31 73.6068 299.069C73.1424 297.763 72.8286 296.409 72.6714 295.032C72.3593 293.686 72.209 292.307 72.2236 290.926Z" fill="#263238"/>
<path d="M53.092 324.383C52.2435 326.547 51.246 328.65 50.1067 330.676C49.1085 332.779 47.9647 334.808 46.6836 336.751C47.5343 334.588 48.5317 332.485 49.6689 330.458C50.6671 328.356 51.8109 326.326 53.092 324.383Z" fill="#263238"/>
<path d="M41.6953 313.027C42.6791 314.464 43.5285 315.989 44.2328 317.581C45.0801 319.101 45.7862 320.695 46.3424 322.344C45.3586 320.907 44.5092 319.382 43.8049 317.79C42.9597 316.269 42.2536 314.675 41.6953 313.027Z" fill="#263238"/>
<path d="M24.9897 351.876C24.9897 352.015 22.9299 351.617 20.3924 351.448C17.8549 351.279 15.7951 351.368 15.7852 351.229C17.3063 350.866 18.8802 350.778 20.4322 350.97C21.9932 350.998 23.5366 351.305 24.9897 351.876Z" fill="#263238"/>
<path d="M36.3945 386.229L42.0865 416.146C42.2692 417.104 42.7805 417.969 43.5324 418.591C44.2843 419.214 45.2297 419.555 46.2061 419.556H63.0331C64.0273 419.555 64.9889 419.202 65.7469 418.56C66.5049 417.917 67.0101 417.026 67.1727 416.046L72.1482 386.219L36.3945 386.229Z" fill="#263238"/>
<path d="M38.2454 395.95H70.4167L72.1183 386.227H36.3945L38.2454 395.95Z" fill="#455A64"/>
<path d="M38.2461 395.945L38.9228 399.495H69.9198L70.4174 395.945H38.2461Z" fill="#FAFAFA"/>
</svg>
