<svg width="450" height="460" viewBox="0 0 450 460" fill="none" xmlns="http://www.w3.org/2000/svg">
<path d="M320.784 438.799C332.259 451.741 351.823 453.14 351.823 453.14C351.823 453.14 352.773 433.565 341.297 420.66C329.822 407.756 310.246 406.332 310.246 406.332C310.246 406.332 309.296 425.87 320.784 438.799Z" fill="#BA68C8"/>
<path opacity="0.6" d="M320.784 438.799C332.259 451.741 351.823 453.14 351.823 453.14C351.823 453.14 352.773 433.565 341.297 420.66C329.822 407.756 310.246 406.332 310.246 406.332C310.246 406.332 309.296 425.87 320.784 438.799Z" fill="white"/>
<path d="M337.16 392.816C337.16 422.634 360.799 446.807 360.799 446.807C360.799 446.807 384.437 422.634 384.437 392.816C384.437 362.997 360.799 338.812 360.799 338.812C360.799 338.812 337.16 362.985 337.16 392.816Z" fill="#BA68C8"/>
<path opacity="0.6" d="M337.16 392.816C337.16 422.634 360.799 446.807 360.799 446.807C360.799 446.807 384.437 422.634 384.437 392.816C384.437 362.997 360.799 338.812 360.799 338.812C360.799 338.812 337.16 362.985 337.16 392.816Z" fill="white"/>
<path d="M360.797 446.807V338.812" stroke="#BA68C8" stroke-miterlimit="10"/>
<path d="M360.797 377.199L347.559 365.656" stroke="#BA68C8" stroke-miterlimit="10"/>
<path d="M361.008 395.051L377.396 371.316" stroke="#BA68C8" stroke-miterlimit="10"/>
<path d="M360.796 405.333L341.258 387.906" stroke="#BA68C8" stroke-miterlimit="10"/>
<path d="M361.008 419.183L380.334 401.969" stroke="#BA68C8" stroke-miterlimit="10"/>
<path d="M361.009 431.151L345.883 419.184" stroke="#BA68C8" stroke-miterlimit="10"/>
<path d="M351.823 453.138L310.246 406.293" stroke="#BA68C8" stroke-miterlimit="10"/>
<path d="M325.019 422.949L314.844 423.024" stroke="#BA68C8" stroke-miterlimit="10"/>
<path d="M331.983 430.605L329.957 414.016" stroke="#BA68C8" stroke-miterlimit="10"/>
<path d="M335.86 435.152L320.672 435.102" stroke="#BA68C8" stroke-miterlimit="10"/>
<path d="M341.285 441.074L343.036 426.184" stroke="#BA68C8" stroke-miterlimit="10"/>
<path d="M345.886 446.273L334.723 446.899" stroke="#BA68C8" stroke-miterlimit="10"/>
<path d="M381.012 420.237C368.961 432.642 369.023 452.242 369.023 452.242C369.023 452.242 388.637 451.73 400.688 439.325C412.738 426.92 412.676 407.32 412.676 407.32C412.676 407.32 393.075 407.745 381.012 420.237Z" fill="#BA68C8"/>
<path opacity="0.6" d="M381.012 420.237C368.961 432.642 369.023 452.242 369.023 452.242C369.023 452.242 388.637 451.73 400.688 439.325C412.738 426.92 412.676 407.32 412.676 407.32C412.676 407.32 393.075 407.745 381.012 420.237Z" fill="white"/>
<path d="M369.023 452.176L412.676 407.254" stroke="#BA68C8" stroke-miterlimit="10"/>
<path d="M397.158 423.222L396.32 413.078" stroke="#BA68C8" stroke-miterlimit="10"/>
<path d="M390.035 430.732L406.436 427.484" stroke="#BA68C8" stroke-miterlimit="10"/>
<path d="M385.787 434.929L384.699 419.789" stroke="#BA68C8" stroke-miterlimit="10"/>
<path d="M380.273 440.777L395.274 441.415" stroke="#BA68C8" stroke-miterlimit="10"/>
<path d="M375.435 445.757L373.984 434.664" stroke="#BA68C8" stroke-miterlimit="10"/>
<path d="M106.371 391.615C116.109 402.583 132.685 403.77 132.685 403.77C132.685 403.77 133.485 387.181 123.759 376.213C114.034 365.245 97.5079 364.07 97.5079 364.07C97.5079 364.07 96.6453 380.66 106.371 391.615Z" fill="#BA68C8"/>
<path opacity="0.6" d="M106.371 391.615C116.109 402.583 132.685 403.77 132.685 403.77C132.685 403.77 133.485 387.181 123.759 376.213C114.034 365.245 97.5079 364.07 97.5079 364.07C97.5079 364.07 96.6453 380.66 106.371 391.615Z" fill="white"/>
<path d="M120.312 352.641C120.312 377.913 140.313 398.4 140.313 398.4C140.313 398.4 160.314 377.913 160.314 352.641C160.314 327.37 140.313 306.883 140.313 306.883C140.313 306.883 120.312 327.37 120.312 352.641Z" fill="#BA68C8"/>
<path opacity="0.6" d="M120.312 352.641C120.312 377.913 140.313 398.4 140.313 398.4C140.313 398.4 160.314 377.913 160.314 352.641C160.314 327.37 140.313 306.883 140.313 306.883C140.313 306.883 120.312 327.37 120.312 352.641Z" fill="white"/>
<path d="M140.285 398.4V306.883" stroke="#BA68C8" stroke-miterlimit="10"/>
<path d="M140.287 339.41L129.074 329.629" stroke="#BA68C8" stroke-miterlimit="10"/>
<path d="M140.461 354.542L154.349 334.43" stroke="#BA68C8" stroke-miterlimit="10"/>
<path d="M140.285 363.258L123.734 348.492" stroke="#BA68C8" stroke-miterlimit="10"/>
<path d="M140.461 375.001L156.849 360.41" stroke="#BA68C8" stroke-miterlimit="10"/>
<path d="M140.462 385.147L127.648 375.004" stroke="#BA68C8" stroke-miterlimit="10"/>
<path d="M132.685 403.77L97.4453 364.07" stroke="#BA68C8" stroke-miterlimit="10"/>
<path d="M109.969 378.176L101.344 378.251" stroke="#BA68C8" stroke-miterlimit="10"/>
<path d="M115.873 384.675L114.16 370.609" stroke="#BA68C8" stroke-miterlimit="10"/>
<path d="M119.148 388.522L106.285 388.484" stroke="#BA68C8" stroke-miterlimit="10"/>
<path d="M123.746 393.555L125.234 380.926" stroke="#BA68C8" stroke-miterlimit="10"/>
<path d="M127.65 397.949L118.188 398.474" stroke="#BA68C8" stroke-miterlimit="10"/>
<path d="M157.425 375.826C147.212 386.344 147.262 402.959 147.262 402.959C147.262 402.959 163.875 402.522 174.088 392.003C184.301 381.485 184.251 364.883 184.251 364.883C184.251 364.883 167.638 365.27 157.425 375.826Z" fill="#BA68C8"/>
<path opacity="0.6" d="M157.425 375.826C147.212 386.344 147.262 402.959 147.262 402.959C147.262 402.959 163.875 402.522 174.088 392.003C184.301 381.485 184.251 364.883 184.251 364.883C184.251 364.883 167.638 365.27 157.425 375.826Z" fill="white"/>
<path d="M147.262 402.959L184.251 364.883" stroke="#BA68C8" stroke-miterlimit="10"/>
<path d="M171.099 378.415L170.387 369.82" stroke="#BA68C8" stroke-miterlimit="10"/>
<path d="M165.062 384.78L178.963 382.02" stroke="#BA68C8" stroke-miterlimit="10"/>
<path d="M161.464 388.333L160.551 375.504" stroke="#BA68C8" stroke-miterlimit="10"/>
<path d="M156.801 393.293L169.501 393.831" stroke="#BA68C8" stroke-miterlimit="10"/>
<path d="M152.699 397.515L151.461 388.121" stroke="#BA68C8" stroke-miterlimit="10"/>
<path d="M67.3953 451.877C73.4956 458.748 83.8837 459.498 83.8837 459.498C83.8837 459.498 84.3837 449.104 78.2834 442.233C72.1831 435.363 61.7951 434.613 61.7951 434.613C61.7951 434.613 61.295 445.007 67.3953 451.877Z" fill="#BA68C8"/>
<path opacity="0.6" d="M67.3953 451.877C73.4956 458.748 83.8837 459.498 83.8837 459.498C83.8837 459.498 84.3837 449.104 78.2834 442.233C72.1831 435.363 61.7951 434.613 61.7951 434.613C61.7951 434.613 61.295 445.007 67.3953 451.877Z" fill="white"/>
<path d="M76.0977 427.455C76.0977 443.295 88.5983 456.186 88.5983 456.186C88.5983 456.186 101.099 443.345 101.099 427.455C101.099 411.565 88.5983 398.785 88.5983 398.785C88.5983 398.785 76.0977 411.615 76.0977 427.455Z" fill="#BA68C8"/>
<path opacity="0.6" d="M76.0977 427.455C76.0977 443.295 88.5983 456.186 88.5983 456.186C88.5983 456.186 101.099 443.345 101.099 427.455C101.099 411.565 88.5983 398.785 88.5983 398.785C88.5983 398.785 76.0977 411.615 76.0977 427.455Z" fill="white"/>
<path d="M88.6445 456.136V398.785" stroke="#BA68C8" stroke-width="0.5" stroke-miterlimit="10"/>
<path d="M88.6503 419.164L81.625 413.043" stroke="#BA68C8" stroke-width="0.5" stroke-miterlimit="10"/>
<path d="M88.7617 428.643L97.4622 416.051" stroke="#BA68C8" stroke-width="0.5" stroke-miterlimit="10"/>
<path d="M88.649 434.104L78.2734 424.859" stroke="#BA68C8" stroke-width="0.5" stroke-miterlimit="10"/>
<path d="M88.7617 441.46L99.0247 432.328" stroke="#BA68C8" stroke-width="0.5" stroke-miterlimit="10"/>
<path d="M88.7605 447.823L80.7227 441.465" stroke="#BA68C8" stroke-width="0.5" stroke-miterlimit="10"/>
<path d="M83.8816 459.498L61.793 434.613" stroke="#BA68C8" stroke-width="0.5" stroke-miterlimit="10"/>
<path d="M69.6471 443.461L64.2344 443.498" stroke="#BA68C8" stroke-width="0.5" stroke-miterlimit="10"/>
<path d="M73.3448 447.534L72.2695 438.715" stroke="#BA68C8" stroke-width="0.5" stroke-miterlimit="10"/>
<path d="M75.3949 449.939L67.332 449.914" stroke="#BA68C8" stroke-width="0.5" stroke-miterlimit="10"/>
<path d="M78.2852 453.091L79.2104 445.184" stroke="#BA68C8" stroke-width="0.5" stroke-miterlimit="10"/>
<path d="M80.7347 455.852L74.7969 456.177" stroke="#BA68C8" stroke-width="0.5" stroke-miterlimit="10"/>
<path d="M99.3831 441.983C92.9828 448.579 93.0078 458.985 93.0078 458.985C93.0078 458.985 103.421 458.71 109.821 452.127C116.221 445.543 116.196 435.125 116.196 435.125C116.196 435.125 105.783 435.4 99.3831 441.983Z" fill="#BA68C8"/>
<path opacity="0.6" d="M99.3831 441.983C92.9828 448.579 93.0078 458.985 93.0078 458.985C93.0078 458.985 103.421 458.71 109.821 452.127C116.221 445.543 116.196 435.125 116.196 435.125C116.196 435.125 105.783 435.4 99.3831 441.983Z" fill="white"/>
<path d="M93.0078 458.985L116.196 435.125" stroke="#BA68C8" stroke-width="0.5" stroke-miterlimit="10"/>
<path d="M107.962 443.611L107.512 438.227" stroke="#BA68C8" stroke-width="0.5" stroke-miterlimit="10"/>
<path d="M104.172 447.595L112.885 445.871" stroke="#BA68C8" stroke-width="0.5" stroke-miterlimit="10"/>
<path d="M101.92 449.818L101.332 441.785" stroke="#BA68C8" stroke-width="0.5" stroke-miterlimit="10"/>
<path d="M98.9844 452.926L106.96 453.263" stroke="#BA68C8" stroke-width="0.5" stroke-miterlimit="10"/>
<path d="M96.4236 455.575L95.6484 449.691" stroke="#BA68C8" stroke-width="0.5" stroke-miterlimit="10"/>
<path d="M272.816 400.061C278.904 406.932 289.292 407.681 289.292 407.681C289.292 407.681 289.804 397.288 283.704 390.417C277.604 383.546 267.216 382.797 267.216 382.797C267.216 382.797 266.741 393.19 272.816 400.061Z" fill="#BA68C8"/>
<path opacity="0.6" d="M272.816 400.061C278.904 406.932 289.292 407.681 289.292 407.681C289.292 407.681 289.804 397.288 283.704 390.417C277.604 383.546 267.216 382.797 267.216 382.797C267.216 382.797 266.741 393.19 272.816 400.061Z" fill="white"/>
<path d="M281.566 375.638C281.566 391.478 294.067 404.37 294.067 404.37C294.067 404.37 306.568 391.528 306.568 375.638C306.568 359.748 294.067 346.969 294.067 346.969C294.067 346.969 281.566 359.811 281.566 375.638Z" fill="#BA68C8"/>
<path opacity="0.6" d="M281.566 375.638C281.566 391.478 294.067 404.37 294.067 404.37C294.067 404.37 306.568 391.528 306.568 375.638C306.568 359.748 294.067 346.969 294.067 346.969C294.067 346.969 281.566 359.811 281.566 375.638Z" fill="white"/>
<path d="M294.094 404.32V346.969" stroke="#BA68C8" stroke-width="0.5" stroke-miterlimit="10"/>
<path d="M294.093 367.356L287.055 361.223" stroke="#BA68C8" stroke-width="0.5" stroke-miterlimit="10"/>
<path d="M294.207 376.826L302.907 364.234" stroke="#BA68C8" stroke-width="0.5" stroke-miterlimit="10"/>
<path d="M294.094 382.3L283.719 373.043" stroke="#BA68C8" stroke-width="0.5" stroke-miterlimit="10"/>
<path d="M294.207 389.656L304.47 380.512" stroke="#BA68C8" stroke-width="0.5" stroke-miterlimit="10"/>
<path d="M294.21 396.006L286.172 389.66" stroke="#BA68C8" stroke-width="0.5" stroke-miterlimit="10"/>
<path d="M289.318 407.681L267.242 382.797" stroke="#BA68C8" stroke-width="0.5" stroke-miterlimit="10"/>
<path d="M275.096 391.641L269.684 391.691" stroke="#BA68C8" stroke-width="0.5" stroke-miterlimit="10"/>
<path d="M278.794 395.717L277.719 386.91" stroke="#BA68C8" stroke-width="0.5" stroke-miterlimit="10"/>
<path d="M280.844 398.123L272.781 398.098" stroke="#BA68C8" stroke-width="0.5" stroke-miterlimit="10"/>
<path d="M283.73 401.271L284.656 393.363" stroke="#BA68C8" stroke-width="0.5" stroke-miterlimit="10"/>
<path d="M286.171 404.031L280.246 404.356" stroke="#BA68C8" stroke-width="0.5" stroke-miterlimit="10"/>
<path d="M304.832 390.167C298.432 396.763 298.457 407.169 298.457 407.169C298.457 407.169 308.87 406.894 315.27 400.31C321.671 393.727 321.633 383.309 321.633 383.309C321.633 383.309 311.233 383.583 304.832 390.167Z" fill="#BA68C8"/>
<path opacity="0.6" d="M304.832 390.167C298.432 396.763 298.457 407.169 298.457 407.169C298.457 407.169 308.87 406.894 315.27 400.31C321.671 393.727 321.633 383.309 321.633 383.309C321.633 383.309 311.233 383.583 304.832 390.167Z" fill="white"/>
<path d="M298.457 407.169L321.633 383.309" stroke="#BA68C8" stroke-width="0.5" stroke-miterlimit="10"/>
<path d="M313.395 391.794L312.957 386.41" stroke="#BA68C8" stroke-width="0.5" stroke-miterlimit="10"/>
<path d="M309.621 395.778L318.334 394.055" stroke="#BA68C8" stroke-width="0.5" stroke-miterlimit="10"/>
<path d="M307.356 398.01L306.781 389.965" stroke="#BA68C8" stroke-width="0.5" stroke-miterlimit="10"/>
<path d="M304.43 401.109L312.393 401.447" stroke="#BA68C8" stroke-width="0.5" stroke-miterlimit="10"/>
<path d="M301.869 403.759L301.094 397.875" stroke="#BA68C8" stroke-width="0.5" stroke-miterlimit="10"/>
<path d="M412.083 181.874C418.696 181.224 423.546 175.465 423.546 175.465C423.546 175.465 417.671 170.756 411.046 171.405C410.241 171.481 409.445 171.636 408.671 171.867C409.824 169.987 410.438 167.827 410.446 165.621C409.157 165.728 407.892 166.031 406.695 166.521C408.746 148.295 402.27 129.794 387.344 114.054C387.935 114.163 388.532 114.234 389.132 114.266C396.032 114.566 401.858 109.344 401.858 109.344C401.858 109.344 396.857 104.06 390.32 103.411C391.816 102.574 393.22 101.582 394.507 100.45C403.395 92.5425 404.333 79.0885 404.333 79.0885C404.333 79.0885 390.857 78.4639 381.969 86.3714C380.892 87.3376 379.901 88.395 379.007 89.5319C378.691 85.5889 377.299 81.808 374.981 78.6013C374.217 79.255 373.502 79.9649 372.844 80.7249C363.856 51.4185 336.792 31.3686 300.79 28.1082C301.524 27.0073 302.135 25.8304 302.615 24.5979C302.615 24.5979 296.865 22.6991 291.815 24.8353C292.584 23.6285 293.221 22.3428 293.715 21.0002C297.078 11.6936 292.465 1.5 292.465 1.5C292.465 1.5 282.364 6.37192 279.002 15.666C278.599 16.7997 278.293 17.9657 278.089 19.1513C276.299 16.3911 273.781 14.1779 270.814 12.7554C270.272 14.1752 269.906 15.6562 269.726 17.1651C253.955 7.37194 235.565 2.62985 217.021 3.57429C198.477 4.51872 180.665 11.1046 165.971 22.4493C165.95 19.709 165.332 17.0062 164.158 14.5293C164.158 14.5293 158.833 17.4524 156.971 22.5867C156.607 21.2051 156.1 19.8653 155.458 18.5892C150.933 9.84473 140.307 6.2345 140.307 6.2345C140.307 6.2345 136.982 16.9402 141.557 25.7347C142.105 26.8034 142.749 27.8195 143.482 28.7703C140.242 28.2049 136.909 28.5376 133.844 29.7322C134.239 30.5508 134.698 31.3362 135.22 32.0807C103.28 37.7646 79.9293 56.915 71.8789 83.4607C70.8363 82.6124 69.7192 81.8598 68.5413 81.2121C68.5413 81.2121 65.4036 87.7705 67.1537 94.104C65.8353 93.0072 64.4019 92.0564 62.8785 91.2683C52.303 85.8217 39.4023 89.7942 39.4023 89.7942C39.4023 89.7942 43.6651 102.586 54.2531 108.02C55.543 108.682 56.8902 109.225 58.2783 109.644C54.7111 111.354 51.6837 114.012 49.5278 117.327C52.4117 118.87 55.5994 119.761 58.8658 119.938C31.0894 151.555 35.6272 192.292 71.929 220.249C71.929 222.748 71.9289 225.109 72.179 227.482C69.1462 227.206 66.0888 227.546 63.191 228.482C63.191 228.482 65.8036 235.265 71.6289 238.313C69.9258 238.536 68.2502 238.933 66.6287 239.5C55.3781 243.472 49.4778 255.564 49.4778 255.564C49.4778 255.564 61.7159 261.223 72.929 257.251C74.2944 256.769 75.6126 256.163 76.8667 255.44C76.4369 256.61 76.1433 257.825 75.9916 259.062C75.9848 259.2 75.9848 259.337 75.9916 259.474C75.745 262.022 75.9225 264.593 76.5167 267.082C79.3817 266.114 82.0249 264.585 84.2921 262.585H84.5046C84.7046 262.872 84.9171 263.147 85.1296 263.422C84.3929 264.09 83.7076 264.812 83.0795 265.583C76.9042 273.316 78.0167 284.459 78.0167 284.459C78.0167 284.459 89.0548 283.072 95.3051 275.327L95.5551 274.977C97.2177 276.451 98.8428 277.65 100.655 278.987C101.443 279.637 101.905 280.061 102.393 280.374C118.369 291.617 139.657 297.538 163.996 296.301C201.573 329.655 255.45 328.568 291.215 293.74C313.516 293.978 332.967 288.294 347.88 278.263C348.831 280.247 350.31 281.933 352.155 283.135C353.348 280.959 353.812 278.46 353.48 276.002C354.168 276.673 354.927 277.268 355.743 277.775C361.393 281.261 368.744 279.599 368.744 279.599C368.744 279.599 366.918 272.304 361.243 268.819C360.838 268.573 360.421 268.347 359.993 268.144C360.518 267.594 361.031 267.045 361.531 266.495C362.583 265.751 363.519 264.854 364.306 263.834L363.981 263.634C374.706 250.343 380.319 233.266 379.069 214.028C390.32 204.572 398.07 193.928 402.558 182.798C403.131 184.169 404.027 185.382 405.17 186.333C407.322 187.812 409.918 188.504 412.521 188.294C412.152 185.845 411.009 183.577 409.258 181.824C410.196 181.937 411.142 181.954 412.083 181.874Z" fill="#BA68C8" stroke="#263238" stroke-miterlimit="10"/>
<path opacity="0.1" d="M412.083 181.874C418.696 181.224 423.546 175.465 423.546 175.465C423.546 175.465 417.671 170.756 411.046 171.405C410.241 171.481 409.445 171.636 408.671 171.867C409.824 169.987 410.438 167.827 410.446 165.621C409.157 165.728 407.892 166.031 406.695 166.521C408.746 148.295 402.27 129.794 387.344 114.054C387.935 114.163 388.532 114.234 389.132 114.266C396.032 114.566 401.858 109.344 401.858 109.344C401.858 109.344 396.857 104.06 390.32 103.411C391.816 102.574 393.22 101.582 394.507 100.45C403.395 92.5425 404.333 79.0885 404.333 79.0885C404.333 79.0885 390.857 78.4639 381.969 86.3714C380.892 87.3376 379.901 88.395 379.007 89.5319C378.691 85.5889 377.299 81.808 374.981 78.6013C374.217 79.255 373.502 79.9649 372.844 80.7249C363.856 51.4185 336.792 31.3686 300.79 28.1082C301.524 27.0073 302.135 25.8304 302.615 24.5979C302.615 24.5979 296.865 22.6991 291.815 24.8353C292.584 23.6285 293.221 22.3428 293.715 21.0002C297.078 11.6936 292.465 1.5 292.465 1.5C292.465 1.5 282.364 6.37192 279.002 15.666C278.599 16.7997 278.293 17.9657 278.089 19.1513C276.299 16.3911 273.781 14.1779 270.814 12.7554C270.272 14.1752 269.906 15.6562 269.726 17.1651C253.955 7.37194 235.565 2.62985 217.021 3.57429C198.477 4.51872 180.665 11.1046 165.971 22.4493C165.95 19.709 165.332 17.0062 164.158 14.5293C164.158 14.5293 158.833 17.4524 156.971 22.5867C156.607 21.2051 156.1 19.8653 155.458 18.5892C150.933 9.84473 140.307 6.2345 140.307 6.2345C140.307 6.2345 136.982 16.9402 141.557 25.7347C142.105 26.8034 142.749 27.8195 143.482 28.7703C140.242 28.2049 136.909 28.5376 133.844 29.7322C134.239 30.5508 134.698 31.3362 135.22 32.0807C103.28 37.7646 79.9293 56.915 71.8789 83.4607C70.8363 82.6124 69.7192 81.8598 68.5413 81.2121C68.5413 81.2121 65.4036 87.7705 67.1537 94.104C65.8353 93.0072 64.4019 92.0564 62.8785 91.2683C52.303 85.8217 39.4023 89.7942 39.4023 89.7942C39.4023 89.7942 43.6651 102.586 54.2531 108.02C55.543 108.682 56.8902 109.225 58.2783 109.644C54.7111 111.354 51.6837 114.012 49.5278 117.327C52.4117 118.87 55.5994 119.761 58.8658 119.938C31.0894 151.555 35.6272 192.292 71.929 220.249C71.929 222.748 71.9289 225.109 72.179 227.482C69.1462 227.206 66.0888 227.546 63.191 228.482C63.191 228.482 65.8036 235.265 71.6289 238.313C69.9258 238.536 68.2502 238.933 66.6287 239.5C55.3781 243.472 49.4778 255.564 49.4778 255.564C49.4778 255.564 61.7159 261.223 72.929 257.251C74.2944 256.769 75.6126 256.163 76.8667 255.44C76.5437 256.302 76.301 257.193 76.1417 258.1C75.9773 259.008 75.8812 259.927 75.8541 260.849C75.8051 261.681 75.8051 262.515 75.8541 263.347C75.8541 264.022 75.9792 264.696 76.0917 265.358C76.1542 265.795 76.2417 266.233 76.3417 266.607C76.3417 266.745 76.3417 266.87 76.4292 267.007C79.2942 266.039 81.9374 264.51 84.2045 262.51H84.4171C84.6171 262.797 84.8296 263.072 85.0421 263.347C84.3054 264.015 83.6201 264.737 82.992 265.508C76.8167 273.241 77.9292 284.384 77.9292 284.384C77.9292 284.384 89.0548 283.072 95.3051 275.327L95.5551 274.977C97.2177 276.451 98.6178 277.476 100.418 278.825C101.43 279.562 101.918 280.074 102.393 280.374C118.369 291.617 139.657 297.538 163.996 296.301C201.573 329.655 255.45 328.568 291.215 293.74C313.516 293.978 332.967 288.294 347.88 278.263C348.831 280.247 350.31 281.933 352.155 283.135C353.348 280.959 353.812 278.46 353.48 276.002C354.168 276.673 354.927 277.268 355.743 277.775C361.393 281.261 368.744 279.599 368.744 279.599C368.744 279.599 366.918 272.304 361.243 268.819C360.838 268.573 360.421 268.347 359.993 268.144C360.518 267.594 361.031 267.045 361.531 266.495C362.583 265.751 363.519 264.854 364.306 263.834L363.981 263.634C374.706 250.343 380.319 233.266 379.069 214.028C390.32 204.572 398.07 193.928 402.558 182.798C403.131 184.169 404.027 185.382 405.17 186.333C407.322 187.812 409.918 188.504 412.521 188.294C412.152 185.845 411.009 183.577 409.258 181.824C410.196 181.937 411.142 181.954 412.083 181.874Z" fill="black"/>
<path d="M318.189 440.108C298.488 436.96 271.3 423.169 271.3 397.635C271.3 372.101 267.362 224.919 271.3 215.076C275.237 205.232 283.913 208.829 292.551 211.928C296.618 213.505 300.107 216.286 302.551 219.897C302.827 220.31 303.191 220.656 303.617 220.911C304.043 221.165 304.52 221.322 305.014 221.37C305.508 221.418 306.007 221.356 306.473 221.187C306.94 221.019 307.364 220.749 307.714 220.397C308.048 220.028 308.293 219.587 308.429 219.108C308.565 218.629 308.589 218.125 308.498 217.636C308.407 217.146 308.205 216.684 307.906 216.286C307.608 215.887 307.221 215.563 306.776 215.338C303.226 213.589 298.401 210.616 297.676 207.206C296.426 201.696 298.063 202.084 300.426 200.51C302.966 198.491 305.383 196.321 307.664 194.014C308.026 193.708 308.318 193.329 308.523 192.902C308.727 192.474 308.839 192.008 308.85 191.535C308.86 191.061 308.771 190.591 308.586 190.155C308.402 189.718 308.127 189.326 307.779 189.004C307.432 188.682 307.02 188.437 306.571 188.286C306.122 188.134 305.646 188.08 305.174 188.126C304.703 188.172 304.246 188.317 303.835 188.553C303.424 188.788 303.067 189.108 302.789 189.492C299.951 193.314 293.551 200.272 285.463 198.548C274.425 196.187 266.937 187.131 270.462 168.567C272.962 155.738 283.15 141.772 289.213 134.414C289.668 133.938 290 133.359 290.181 132.727C290.362 132.094 290.386 131.427 290.252 130.783C290.118 130.139 289.829 129.538 289.411 129.03C288.993 128.522 288.457 128.123 287.85 127.868C286.881 127.429 285.779 127.381 284.774 127.735C283.77 128.089 282.942 128.817 282.463 129.767C278.9 136.85 269.287 154.314 261.424 154.002C254.511 153.727 246.423 149.192 242.236 146.506C241.959 146.319 241.646 146.192 241.317 146.133C240.988 146.074 240.65 146.084 240.325 146.163C240.001 146.242 239.696 146.387 239.431 146.591C239.166 146.794 238.946 147.05 238.785 147.343C238.507 147.886 238.453 148.516 238.636 149.098C238.818 149.68 239.222 150.167 239.761 150.454C247.998 154.776 256.774 163.72 257.874 167.78C259.061 172.115 256.699 179.198 248.823 193.764C240.948 208.33 218.822 215.813 207.846 199.673C199.096 186.831 196.771 158.549 198.033 145.794C198.101 145.222 198.053 144.643 197.894 144.089C197.734 143.536 197.465 143.02 197.103 142.572C196.74 142.124 196.292 141.753 195.785 141.48C195.277 141.208 194.72 141.039 194.146 140.985C193.564 140.947 192.981 141.03 192.432 141.228C191.884 141.426 191.383 141.736 190.96 142.137C190.538 142.538 190.203 143.023 189.976 143.56C189.75 144.097 189.637 144.675 189.646 145.257C189.796 154.839 194.271 175.238 190.508 185.894C185.783 199.286 170.42 205.969 160.957 198.886C154.306 193.889 155.656 181.097 157.044 173.902C157.182 173.445 157.196 172.96 157.086 172.497C156.975 172.033 156.743 171.607 156.414 171.261C156.085 170.916 155.671 170.664 155.213 170.531C154.754 170.398 154.269 170.388 153.806 170.504C153.17 170.621 152.594 170.958 152.181 171.455C151.767 171.953 151.542 172.58 151.544 173.227C151.544 177.937 151.006 189.804 145.993 192.927C141.868 195.5 137.918 192.365 135.68 189.879C135.241 189.38 134.628 189.068 133.966 189.005C133.304 188.942 132.643 189.134 132.118 189.542C131.832 189.771 131.599 190.057 131.433 190.383C131.268 190.709 131.174 191.067 131.157 191.432C131.14 191.797 131.202 192.162 131.337 192.502C131.473 192.841 131.679 193.148 131.943 193.402C133.58 194.963 136.28 197.512 139.556 200.572C140.731 202.234 142.318 205.132 141.268 207.505C140.218 209.879 134.768 211.078 131.53 211.54C131.236 211.584 130.955 211.69 130.706 211.851C130.456 212.012 130.244 212.224 130.083 212.473C129.922 212.723 129.816 213.004 129.773 213.298C129.729 213.591 129.749 213.891 129.83 214.176V214.276C129.92 214.579 130.076 214.859 130.288 215.093C130.5 215.328 130.762 215.512 131.055 215.632C131.348 215.752 131.664 215.805 131.98 215.786C132.296 215.768 132.603 215.679 132.88 215.525C137.243 213.239 147.506 213.027 149.781 213.102C161.332 213.839 172.632 221.134 178.77 230.791C184.908 240.447 184.595 253.714 185.283 264.794C186.858 290.378 187.333 408.179 180.633 418.022C173.932 427.866 149.381 441.058 149.381 441.058" fill="white"/>
<path d="M318.189 440.108C298.488 436.96 271.3 423.169 271.3 397.635C271.3 372.101 267.362 224.919 271.3 215.076C275.237 205.232 283.913 208.829 292.551 211.928C296.618 213.505 300.107 216.286 302.551 219.897C302.827 220.31 303.191 220.656 303.617 220.911C304.043 221.165 304.52 221.322 305.014 221.37C305.508 221.418 306.007 221.356 306.473 221.187C306.94 221.019 307.364 220.749 307.714 220.397C308.048 220.028 308.293 219.587 308.429 219.108C308.565 218.629 308.589 218.125 308.498 217.636C308.407 217.146 308.205 216.684 307.906 216.286C307.608 215.887 307.221 215.563 306.776 215.338C303.226 213.589 298.401 210.616 297.676 207.206C296.426 201.696 298.063 202.084 300.426 200.51C302.966 198.491 305.383 196.321 307.664 194.014C308.026 193.708 308.318 193.329 308.523 192.902C308.727 192.474 308.839 192.008 308.85 191.535C308.86 191.061 308.771 190.591 308.586 190.155C308.402 189.718 308.127 189.326 307.779 189.004C307.432 188.682 307.02 188.437 306.571 188.286C306.122 188.134 305.646 188.08 305.174 188.126C304.703 188.172 304.246 188.317 303.835 188.553C303.424 188.788 303.067 189.108 302.789 189.492C299.951 193.314 293.551 200.272 285.463 198.548C274.425 196.187 266.937 187.131 270.462 168.567C272.962 155.738 283.15 141.772 289.213 134.414C289.668 133.938 290 133.359 290.181 132.727C290.362 132.094 290.386 131.427 290.252 130.783C290.118 130.139 289.829 129.538 289.411 129.03C288.993 128.522 288.457 128.123 287.85 127.868C286.881 127.429 285.779 127.381 284.774 127.735C283.77 128.089 282.942 128.817 282.463 129.767C278.9 136.85 269.287 154.314 261.424 154.002C254.511 153.727 246.423 149.192 242.236 146.506C241.959 146.319 241.646 146.192 241.317 146.133C240.988 146.074 240.65 146.084 240.325 146.163C240.001 146.242 239.696 146.387 239.431 146.591C239.166 146.794 238.946 147.05 238.785 147.343C238.507 147.886 238.453 148.516 238.636 149.098C238.818 149.68 239.222 150.167 239.761 150.454C247.998 154.776 256.774 163.72 257.874 167.78C259.061 172.115 256.699 179.198 248.823 193.764C240.948 208.33 218.822 215.813 207.846 199.673C199.096 186.831 196.771 158.549 198.033 145.794C198.101 145.222 198.053 144.643 197.894 144.089C197.734 143.536 197.465 143.02 197.103 142.572C196.74 142.124 196.292 141.753 195.785 141.48C195.277 141.208 194.72 141.039 194.146 140.985C193.564 140.947 192.981 141.03 192.432 141.228C191.884 141.426 191.383 141.736 190.96 142.137C190.538 142.538 190.203 143.023 189.976 143.56C189.75 144.097 189.637 144.675 189.646 145.257C189.796 154.839 194.271 175.238 190.508 185.894C185.783 199.286 170.42 205.969 160.957 198.886C154.306 193.889 155.656 181.097 157.044 173.902C157.182 173.445 157.196 172.96 157.086 172.497C156.975 172.033 156.743 171.607 156.414 171.261C156.085 170.916 155.671 170.664 155.213 170.531C154.754 170.398 154.269 170.388 153.806 170.504C153.17 170.621 152.594 170.958 152.181 171.455C151.767 171.953 151.542 172.58 151.544 173.227C151.544 177.937 151.006 189.804 145.993 192.927C141.868 195.5 137.918 192.365 135.68 189.879C135.241 189.38 134.628 189.068 133.966 189.005C133.304 188.942 132.643 189.134 132.118 189.542C131.832 189.771 131.599 190.057 131.433 190.383C131.268 190.709 131.174 191.067 131.157 191.432C131.14 191.797 131.202 192.162 131.337 192.502C131.473 192.841 131.679 193.148 131.943 193.402C133.58 194.963 136.28 197.512 139.556 200.572C140.731 202.234 142.318 205.132 141.268 207.505C140.218 209.879 134.768 211.078 131.53 211.54C131.236 211.584 130.955 211.69 130.706 211.851C130.456 212.012 130.244 212.224 130.083 212.473C129.922 212.723 129.816 213.004 129.773 213.298C129.729 213.591 129.749 213.891 129.83 214.176V214.276C129.92 214.579 130.076 214.859 130.288 215.093C130.5 215.328 130.762 215.512 131.055 215.632C131.348 215.752 131.664 215.805 131.98 215.786C132.296 215.768 132.603 215.679 132.88 215.525C137.243 213.239 147.506 213.027 149.781 213.102C161.332 213.839 172.632 221.134 178.77 230.791C184.908 240.447 184.595 253.714 185.283 264.794C186.858 290.378 187.333 408.179 180.633 418.022C173.932 427.866 149.381 441.058 149.381 441.058" stroke="#263238" stroke-width="0.75" stroke-linecap="round" stroke-linejoin="round"/>
<path d="M318.189 440.108C298.488 436.96 271.3 423.169 271.3 397.635C271.3 372.101 267.362 224.919 271.3 215.076C275.237 205.232 283.913 208.829 292.551 211.928C296.618 213.505 300.107 216.286 302.551 219.897C302.827 220.31 303.191 220.656 303.617 220.911C304.043 221.165 304.52 221.322 305.014 221.37C305.508 221.418 306.007 221.356 306.473 221.187C306.94 221.019 307.364 220.749 307.714 220.397C308.048 220.028 308.293 219.587 308.429 219.108C308.565 218.629 308.589 218.125 308.498 217.636C308.407 217.146 308.205 216.684 307.906 216.286C307.608 215.887 307.221 215.563 306.776 215.338C303.226 213.589 298.401 210.616 297.676 207.206C296.426 201.696 298.063 202.084 300.426 200.51C302.966 198.491 305.383 196.321 307.664 194.014C308.026 193.708 308.318 193.329 308.523 192.902C308.727 192.474 308.839 192.008 308.85 191.535C308.86 191.061 308.771 190.591 308.586 190.155C308.402 189.718 308.127 189.326 307.779 189.004C307.432 188.682 307.02 188.437 306.571 188.286C306.122 188.134 305.646 188.08 305.174 188.126C304.703 188.172 304.246 188.317 303.835 188.553C303.424 188.788 303.067 189.108 302.789 189.492C299.951 193.314 293.551 200.272 285.463 198.548C274.425 196.187 266.937 187.131 270.462 168.567C272.962 155.738 283.15 141.772 289.213 134.414C289.668 133.938 290 133.359 290.181 132.727C290.362 132.094 290.386 131.427 290.252 130.783C290.118 130.139 289.829 129.538 289.411 129.03C288.993 128.522 288.457 128.123 287.85 127.868C286.881 127.429 285.779 127.381 284.774 127.735C283.77 128.089 282.942 128.817 282.463 129.767C278.9 136.85 269.287 154.314 261.424 154.002C254.511 153.727 246.423 149.192 242.236 146.506C241.959 146.319 241.646 146.192 241.317 146.133C240.988 146.074 240.65 146.084 240.325 146.163C240.001 146.242 239.696 146.387 239.431 146.591C239.166 146.794 238.946 147.05 238.785 147.343C238.507 147.886 238.453 148.516 238.636 149.098C238.818 149.68 239.222 150.167 239.761 150.454C247.998 154.776 256.774 163.72 257.874 167.78C259.061 172.115 256.699 179.198 248.823 193.764C240.948 208.33 218.822 215.813 207.846 199.673C199.096 186.831 196.771 158.549 198.033 145.794C198.101 145.222 198.053 144.643 197.894 144.089C197.734 143.536 197.465 143.02 197.103 142.572C196.74 142.124 196.292 141.753 195.785 141.48C195.277 141.208 194.72 141.039 194.146 140.985C193.564 140.947 192.981 141.03 192.432 141.228C191.884 141.426 191.383 141.736 190.96 142.137C190.538 142.538 190.203 143.023 189.976 143.56C189.75 144.097 189.637 144.675 189.646 145.257C189.796 154.839 194.271 175.238 190.508 185.894C185.783 199.286 170.42 205.969 160.957 198.886C154.306 193.889 155.656 181.097 157.044 173.902C157.182 173.445 157.196 172.96 157.086 172.497C156.975 172.033 156.743 171.607 156.414 171.261C156.085 170.916 155.671 170.664 155.213 170.531C154.754 170.398 154.269 170.388 153.806 170.504C153.17 170.621 152.594 170.958 152.181 171.455C151.767 171.953 151.542 172.58 151.544 173.227C151.544 177.937 151.006 189.804 145.993 192.927C141.868 195.5 137.918 192.365 135.68 189.879C135.241 189.38 134.628 189.068 133.966 189.005C133.304 188.942 132.643 189.134 132.118 189.542C131.832 189.771 131.599 190.057 131.433 190.383C131.268 190.709 131.174 191.067 131.157 191.432C131.14 191.797 131.202 192.162 131.337 192.502C131.473 192.841 131.679 193.148 131.943 193.402C133.58 194.963 136.28 197.512 139.556 200.572C140.731 202.234 142.318 205.132 141.268 207.505C140.218 209.879 134.768 211.078 131.53 211.54C131.236 211.584 130.955 211.69 130.706 211.851C130.456 212.012 130.244 212.224 130.083 212.473C129.922 212.723 129.816 213.004 129.773 213.298C129.729 213.591 129.749 213.891 129.83 214.176V214.276C129.92 214.579 130.076 214.859 130.288 215.093C130.5 215.328 130.762 215.512 131.055 215.632C131.348 215.752 131.664 215.805 131.98 215.786C132.296 215.768 132.603 215.679 132.88 215.525C137.243 213.239 147.506 213.027 149.781 213.102C161.332 213.839 172.632 221.134 178.77 230.791C184.908 240.447 184.595 253.714 185.283 264.794C186.858 290.378 187.333 408.179 180.633 418.022C173.932 427.866 149.381 441.058 149.381 441.058" fill="white"/>
<g style="mix-blend-mode:multiply" opacity="0.5">
<path d="M312.348 440.135C308.919 439.158 305.574 437.904 302.348 436.387C302.348 436.387 300.31 435.313 297.248 433.352C287.985 428.742 279.522 421.946 274.909 412.877C274.596 412.402 274.296 411.94 274.009 411.465L273.871 410.641C272.144 406.501 271.26 402.059 271.271 397.574C271.271 395.001 271.271 391.191 271.159 386.444C270.696 380.073 270.421 373.19 270.609 366.706C270.609 364.845 270.684 362.159 270.709 358.849C270.071 322.834 269.196 272.303 269.646 241.573C269.534 233.79 269.471 229.018 269.471 229.018C269.471 229.018 269.646 228.381 270.009 227.407C270.284 220.873 270.696 216.464 271.259 215.015C275.197 205.171 283.872 208.768 292.51 211.867C296.577 213.444 300.066 216.225 302.51 219.836C302.99 220.527 303.707 221.018 304.525 221.216C305.343 221.414 306.205 221.306 306.948 220.911C304.998 219.262 302.485 217.063 298.91 214.29C288.71 206.358 277.372 200.699 267.734 208.631C258.096 216.564 250.72 236.389 250.72 248.281V351.403C250.72 351.403 252.42 359.898 246.758 356.5C241.095 353.102 249.02 327.606 242.22 315.713C235.42 303.821 236.557 322.522 237.807 334.989C239.057 347.456 237.807 377.462 235.532 380.31C233.257 383.158 231.569 365.582 230.432 371.253C229.294 376.925 231.569 400.71 231.569 404.682C231.569 408.655 233.832 411.478 239.507 412.615C245.182 413.751 245.183 422.808 248.008 430.179C249.92 435.175 254.133 439.822 256.346 440.472H257.208C257.708 440.247 257.908 439.51 257.646 438.124C256.521 431.877 245.07 425.232 250.795 418.074C256.521 410.916 266.721 418.848 267.859 420.572C268.996 422.296 287.172 432.34 289.697 434.388C292.222 436.437 296.16 435.463 292.672 440.285L312.348 440.135Z" fill="#BA68C8"/>
</g>
<g style="mix-blend-mode:multiply" opacity="0.5">
<path d="M186.718 294.376C186.718 294.376 191.131 334.475 192.894 327.43C194.656 320.384 191.568 256.924 195.981 265.731C200.394 274.538 196.856 357.386 196.856 364.881C196.856 372.376 199.944 364.444 199.944 350.777C199.944 337.111 200.394 291.29 202.156 308.042C203.919 324.794 201.706 390.003 201.706 400.134C201.706 410.265 198.619 422.62 194.206 424.368C189.793 426.117 189.356 423.044 185.381 423.044C181.405 423.044 165.105 436.711 161.129 438.909C157.154 441.108 150.991 445.08 158.479 437.148C165.967 429.215 181.855 424.368 183.181 411.152C184.506 397.935 186.268 319.959 186.268 319.959L186.718 294.376Z" fill="#BA68C8"/>
</g>
<path d="M318.189 440.108C298.488 436.96 271.3 423.169 271.3 397.635C271.3 372.101 267.362 224.919 271.3 215.076C275.237 205.232 283.913 208.829 292.551 211.928C296.618 213.505 300.107 216.286 302.551 219.897C302.827 220.31 303.191 220.656 303.617 220.911C304.043 221.165 304.52 221.322 305.014 221.37C305.508 221.418 306.007 221.356 306.473 221.187C306.94 221.019 307.364 220.749 307.714 220.397C308.048 220.028 308.293 219.587 308.429 219.108C308.565 218.629 308.589 218.125 308.498 217.636C308.407 217.146 308.205 216.684 307.906 216.286C307.608 215.887 307.221 215.563 306.776 215.338C303.226 213.589 298.401 210.616 297.676 207.206C296.426 201.696 298.063 202.084 300.426 200.51C302.966 198.491 305.383 196.321 307.664 194.014C308.026 193.708 308.318 193.329 308.523 192.902C308.727 192.474 308.839 192.008 308.85 191.535C308.86 191.061 308.771 190.591 308.586 190.155C308.402 189.718 308.127 189.326 307.779 189.004C307.432 188.682 307.02 188.437 306.571 188.286C306.122 188.134 305.646 188.08 305.174 188.126C304.703 188.172 304.246 188.317 303.835 188.553C303.424 188.788 303.067 189.108 302.789 189.492C299.951 193.314 293.551 200.272 285.463 198.548C274.425 196.187 266.937 187.131 270.462 168.567C272.962 155.738 283.15 141.772 289.213 134.414C289.668 133.938 290 133.359 290.181 132.727C290.362 132.094 290.386 131.427 290.252 130.783C290.118 130.139 289.829 129.538 289.411 129.03C288.993 128.522 288.457 128.123 287.85 127.868C286.881 127.429 285.779 127.381 284.774 127.735C283.77 128.089 282.942 128.817 282.463 129.767C278.9 136.85 269.287 154.314 261.424 154.002C254.511 153.727 246.423 149.192 242.236 146.506C241.959 146.319 241.646 146.192 241.317 146.133C240.988 146.074 240.65 146.084 240.325 146.163C240.001 146.242 239.696 146.387 239.431 146.591C239.166 146.794 238.946 147.05 238.785 147.343C238.507 147.886 238.453 148.516 238.636 149.098C238.818 149.68 239.222 150.167 239.761 150.454C247.998 154.776 256.774 163.72 257.874 167.78C259.061 172.115 256.699 179.198 248.823 193.764C240.948 208.33 218.822 215.813 207.846 199.673C199.096 186.831 196.771 158.549 198.033 145.794C198.101 145.222 198.053 144.643 197.894 144.089C197.734 143.536 197.465 143.02 197.103 142.572C196.74 142.124 196.292 141.753 195.785 141.48C195.277 141.208 194.72 141.039 194.146 140.985C193.564 140.947 192.981 141.03 192.432 141.228C191.884 141.426 191.383 141.736 190.96 142.137C190.538 142.538 190.203 143.023 189.976 143.56C189.75 144.097 189.637 144.675 189.646 145.257C189.796 154.839 194.271 175.238 190.508 185.894C185.783 199.286 170.42 205.969 160.957 198.886C154.306 193.889 155.656 181.097 157.044 173.902C157.182 173.445 157.196 172.96 157.086 172.497C156.975 172.033 156.743 171.607 156.414 171.261C156.085 170.916 155.671 170.664 155.213 170.531C154.754 170.398 154.269 170.388 153.806 170.504C153.17 170.621 152.594 170.958 152.181 171.455C151.767 171.953 151.542 172.58 151.544 173.227C151.544 177.937 151.006 189.804 145.993 192.927C141.868 195.5 137.918 192.365 135.68 189.879C135.241 189.38 134.628 189.068 133.966 189.005C133.304 188.942 132.643 189.134 132.118 189.542C131.832 189.771 131.599 190.057 131.433 190.383C131.268 190.709 131.174 191.067 131.157 191.432C131.14 191.797 131.202 192.162 131.337 192.502C131.473 192.841 131.679 193.148 131.943 193.402C133.58 194.963 136.28 197.512 139.556 200.572C140.731 202.234 142.318 205.132 141.268 207.505C140.218 209.879 134.768 211.078 131.53 211.54C131.236 211.584 130.955 211.69 130.706 211.851C130.456 212.012 130.244 212.224 130.083 212.473C129.922 212.723 129.816 213.004 129.773 213.298C129.729 213.591 129.749 213.891 129.83 214.176V214.276C129.92 214.579 130.076 214.859 130.288 215.093C130.5 215.328 130.762 215.512 131.055 215.632C131.348 215.752 131.664 215.805 131.98 215.786C132.296 215.768 132.603 215.679 132.88 215.525C137.243 213.239 147.506 213.027 149.781 213.102C161.332 213.839 172.632 221.134 178.77 230.791C184.908 240.447 184.595 253.714 185.283 264.794C186.858 290.378 187.333 408.179 180.633 418.022C173.932 427.866 149.381 441.058 149.381 441.058" stroke="#263238" stroke-width="0.75" stroke-linecap="round" stroke-linejoin="round"/>
<g style="mix-blend-mode:multiply" opacity="0.5">
<path d="M244.401 199.811C234.563 210.054 217.237 213.377 207.874 199.673C199.123 186.832 196.798 158.549 198.061 145.795C198.128 145.223 198.081 144.643 197.921 144.09C197.761 143.536 197.492 143.021 197.13 142.573C196.768 142.124 196.32 141.753 195.812 141.481C195.304 141.208 194.747 141.04 194.173 140.986C193.591 140.948 193.008 141.03 192.46 141.229C191.912 141.427 191.41 141.736 190.988 142.138C190.565 142.539 190.23 143.023 190.004 143.56C189.777 144.097 189.665 144.675 189.673 145.258C189.823 154.839 194.298 175.239 190.535 185.895C185.81 199.286 170.447 205.969 160.984 198.886C154.334 193.89 155.684 181.098 157.071 173.902C157.209 173.446 157.223 172.961 157.113 172.497C157.002 172.033 156.771 171.607 156.442 171.262C156.113 170.917 155.698 170.665 155.24 170.532C154.782 170.399 154.297 170.389 153.834 170.504C153.197 170.621 152.622 170.958 152.208 171.456C151.795 171.954 151.569 172.581 151.571 173.228C151.571 177.937 151.034 189.805 146.021 192.928C141.896 195.501 137.945 192.366 135.708 189.88C135.268 189.381 134.655 189.068 133.993 189.006C133.331 188.943 132.67 189.135 132.145 189.542C131.86 189.771 131.626 190.058 131.461 190.384C131.295 190.71 131.201 191.068 131.184 191.433C131.168 191.798 131.229 192.163 131.365 192.502C131.5 192.842 131.707 193.149 131.97 193.402C133.608 194.964 136.308 197.512 139.583 200.573C140.758 202.234 142.346 205.133 141.296 207.506C140.245 209.88 134.795 211.079 131.558 211.541C131.264 211.585 130.983 211.691 130.733 211.851C130.484 212.012 130.271 212.225 130.11 212.474C129.949 212.724 129.844 213.005 129.8 213.298C129.756 213.592 129.776 213.891 129.857 214.177V214.277C129.947 214.58 130.104 214.859 130.316 215.094C130.528 215.329 130.79 215.513 131.083 215.633C131.375 215.753 131.691 215.805 132.007 215.787C132.323 215.768 132.631 215.679 132.908 215.526C137.27 213.24 147.533 213.028 149.808 213.102C150.496 213.102 151.196 213.227 151.884 213.315C148.771 209.655 142.058 200.673 151.546 200.673C163.447 200.673 178.76 212.565 185.56 210.304C192.361 208.043 196.336 196.138 199.173 200.673C202.011 205.207 204.836 217.662 218.449 219.936C230.8 222.022 241.275 211.503 244.401 199.811Z" fill="#BA68C8"/>
</g>
<g style="mix-blend-mode:multiply" opacity="0.5">
<path d="M239.786 150.405C248.024 154.727 256.799 163.671 257.899 167.731C258.837 171.167 257.537 176.326 253.062 185.545C253.162 199.161 254.512 181.922 262.125 167.794C263.74 164.927 265.683 162.257 267.912 159.836C267.421 161.14 267.004 162.47 266.662 163.821C262.7 180.261 262.7 189.892 268.362 196.126C274.025 202.359 281.401 202.921 288.213 201.785C290.851 201.347 293.664 198.849 296.351 195.838C294.824 197.009 293.068 197.846 291.197 198.296C289.326 198.746 287.381 198.798 285.488 198.449C274.45 196.088 266.962 187.032 270.488 168.468C271.738 162.222 274.75 155.651 278.275 149.73C281.185 144.914 284.409 140.294 287.926 135.901L288.013 135.789C288.426 135.277 288.826 134.777 289.263 134.315C289.479 134.052 289.668 133.767 289.826 133.465C289.888 133.353 289.926 133.24 289.976 133.128C290.026 133.016 290.126 132.766 290.176 132.591C290.221 132.435 290.255 132.277 290.276 132.116C290.276 131.979 290.276 131.854 290.338 131.716C290.351 131.529 290.351 131.341 290.338 131.154C290.345 131.059 290.345 130.963 290.338 130.867C290.3 130.656 290.25 130.448 290.188 130.242V130.08C290.107 129.853 290.002 129.636 289.876 129.43L289.813 129.343C289.676 129.113 289.508 128.903 289.313 128.718C288.939 128.329 288.494 128.015 288.001 127.794C287.031 127.354 285.929 127.307 284.925 127.66C283.921 128.014 283.092 128.743 282.613 129.693C279.05 136.776 269.437 154.24 261.575 153.927C254.662 153.653 246.574 149.118 242.386 146.432C242.109 146.245 241.796 146.118 241.467 146.059C241.138 146 240.801 146.01 240.476 146.089C240.151 146.167 239.846 146.313 239.581 146.516C239.316 146.72 239.096 146.976 238.936 147.269C238.64 147.799 238.563 148.424 238.722 149.01C238.88 149.596 239.262 150.097 239.786 150.405Z" fill="#BA68C8"/>
</g>
<g style="mix-blend-mode:multiply" opacity="0.5">
<path d="M227.598 417.337C227.598 417.337 223.922 410.291 213.759 416.487C203.596 422.683 202.509 431.165 195.408 433.426C188.308 435.687 183.833 433.139 182.42 439.06C181.008 444.982 179.595 447.243 180.72 448.092C181.845 448.942 181.57 441.846 185.52 440.197C189.471 438.548 196.534 438.223 201.896 433.951C207.259 429.679 219.41 415.65 227.598 417.337Z" fill="#BA68C8"/>
</g>
<path d="M170.859 217.312C177.543 221.048 182.516 227.227 184.735 234.552" stroke="#263238" stroke-width="0.75" stroke-linecap="round" stroke-linejoin="round"/>
<path d="M185.695 237.34C186.173 240.199 186.507 243.08 186.696 245.972" stroke="#263238" stroke-width="0.75" stroke-linecap="round" stroke-linejoin="round"/>
<path d="M188.312 258.441C188.312 258.441 191.126 340.215 188.913 371.158" stroke="#263238" stroke-width="0.75" stroke-linecap="round" stroke-linejoin="round"/>
<path d="M188.909 375.379C188.909 375.379 187.909 395.679 187.496 398.889" stroke="#263238" stroke-width="0.75" stroke-linecap="round" stroke-linejoin="round"/>
<path d="M196.746 275.512L197.159 290.577" stroke="#263238" stroke-width="0.75" stroke-linecap="round" stroke-linejoin="round"/>
<path d="M197.359 295.602C197.359 295.602 198.36 352.066 197.559 370.754" stroke="#263238" stroke-width="0.75" stroke-linecap="round" stroke-linejoin="round"/>
<path d="M203.984 346.441L204.597 379.795" stroke="#263238" stroke-width="0.75" stroke-linecap="round" stroke-linejoin="round"/>
<path d="M204.996 383.223L205.196 391.055" stroke="#263238" stroke-width="0.75" stroke-linecap="round" stroke-linejoin="round"/>
<path d="M260.087 165.395C260.087 165.395 261.338 167.606 260.9 172.428C260.474 175.835 259.521 179.156 258.074 182.271" stroke="#263238" stroke-width="0.75" stroke-linecap="round" stroke-linejoin="round"/>
<path d="M257.078 185.285C257.078 185.285 252.253 194.729 250.828 196.341" stroke="#263238" stroke-width="0.75" stroke-linecap="round" stroke-linejoin="round"/>
<path d="M184.886 199.961C182.593 202.066 179.814 203.571 176.798 204.343C173.781 205.114 170.621 205.128 167.598 204.383" stroke="#263238" stroke-width="0.75" stroke-linecap="round" stroke-linejoin="round"/>
<path d="M196.351 383.625V421.001C196.351 421.001 194.738 426.223 184.487 430.033C181.591 430.663 179.012 432.301 177.212 434.655C174.074 438.653 172.637 442.088 168.637 445.236" stroke="#263238" stroke-width="0.75" stroke-linecap="round" stroke-linejoin="round"/>
<path d="M204.397 342.595L202.672 252.539" stroke="#263238" stroke-width="0.75" stroke-linecap="round" stroke-linejoin="round"/>
<path d="M193.812 437.511C193.812 437.511 196.388 438.073 202.963 432.651C209.538 427.23 216.989 417.211 226.427 417.211C235.865 417.211 240.44 422.932 240.44 422.932" stroke="#263238" stroke-width="0.75" stroke-linecap="round" stroke-linejoin="round"/>
<path d="M241.562 424.93C242.601 427.091 243.277 429.408 243.563 431.788" stroke="#263238" stroke-width="0.75" stroke-linecap="round" stroke-linejoin="round"/>
<path d="M255.314 434.65C255.314 434.65 245.589 425.219 250.739 418.061C255.889 410.903 267.327 418.923 273.34 424.644" stroke="#263238" stroke-width="0.75" stroke-linecap="round" stroke-linejoin="round"/>
<path d="M277.629 427.508C277.629 427.508 277.916 429.507 289.642 434.366C289.642 434.366 295.08 436.939 291.655 441.511C289.089 444.741 286.212 447.712 283.067 450.381" stroke="#263238" stroke-width="0.75" stroke-linecap="round" stroke-linejoin="round"/>
<path d="M191.561 438.074C189.181 438.927 187.23 440.675 186.123 442.946C184.41 446.694 184.41 447.806 184.41 447.806" stroke="#263238" stroke-width="0.75" stroke-linecap="round" stroke-linejoin="round"/>
<path d="M313.393 447.23C313.393 447.23 305.093 442.945 299.643 442.945C294.192 442.945 290.492 450.94 290.492 450.94" stroke="#263238" stroke-width="0.75" stroke-linecap="round" stroke-linejoin="round"/>
<path d="M262.363 270.016V376.149" stroke="#263238" stroke-width="0.75" stroke-linecap="round" stroke-linejoin="round"/>
<path d="M266.8 395.741L266.438 342.5" stroke="#263238" stroke-width="0.75" stroke-linecap="round" stroke-linejoin="round"/>
<path d="M262.364 382.762C262.364 382.762 262.002 393.118 262.364 400.513C262.727 407.908 269.402 412.356 269.402 412.356" stroke="#263238" stroke-width="0.75" stroke-linecap="round" stroke-linejoin="round"/>
<path d="M255.699 262.621V299.598" stroke="#263238" stroke-width="0.75" stroke-linecap="round" stroke-linejoin="round"/>
<path d="M210.934 207.872C210.934 207.872 219.071 214.531 229.435 213.793C239.798 213.056 247.56 203.438 247.56 203.438" stroke="#263238" stroke-width="0.75" stroke-linecap="round" stroke-linejoin="round"/>
<path d="M197.234 270.02L196.559 243.4C196.935 236.097 194.722 228.895 190.309 223.062" stroke="#263238" stroke-width="0.75" stroke-linecap="round" stroke-linejoin="round"/>
<path d="M192.06 426.069C192.06 426.069 190.948 421.635 183.547 424.958C176.147 428.281 162.821 440.123 159.871 443.446" stroke="#263238" stroke-width="0.75" stroke-linecap="round" stroke-linejoin="round"/>
<path d="M172.332 137.641C172.332 137.641 191.495 154.33 213.584 135.68L172.332 137.641Z" fill="#BA68C8"/>
<path d="M172.332 137.641C172.332 137.641 191.495 154.33 213.584 135.68" stroke="#263238" stroke-width="0.75" stroke-linecap="round" stroke-linejoin="round"/>
<path d="M144.32 170.047C144.32 170.047 152.683 180.366 163.484 168.086L144.32 170.047Z" fill="#BA68C8"/>
<path d="M144.32 170.047C144.32 170.047 152.683 180.366 163.484 168.086" stroke="#263238" stroke-width="0.75" stroke-linecap="round" stroke-linejoin="round"/>
<path d="M135.481 184.289C135.481 184.289 140.394 197.056 124.668 195.532L135.481 184.289Z" fill="#BA68C8"/>
<path d="M135.481 184.289C135.481 184.289 140.394 197.056 124.668 195.532" stroke="#263238" stroke-width="0.75" stroke-linecap="round" stroke-linejoin="round"/>
<path d="M125.66 208.348C125.66 208.348 135.486 210.846 131.548 220.14L125.66 208.348Z" fill="#BA68C8"/>
<path d="M125.66 208.348C125.66 208.348 135.486 210.846 131.548 220.14" stroke="#263238" stroke-width="0.75" stroke-linecap="round" stroke-linejoin="round"/>
<path d="M226.383 146.97C226.383 146.97 226.383 151.88 236.208 151.88C246.034 151.88 243.584 141.074 243.584 141.074" fill="#BA68C8"/>
<path d="M226.383 146.97C226.383 146.97 226.383 151.88 236.208 151.88C246.034 151.88 243.584 141.074 243.584 141.074" stroke="#263238" stroke-width="0.75" stroke-linecap="round" stroke-linejoin="round"/>
<path d="M275.028 122.922C275.028 122.922 273.553 133.728 285.841 137.163C298.129 140.598 305.492 128.806 305.492 128.806" fill="#BA68C8"/>
<path d="M275.028 122.922C275.028 122.922 273.553 133.728 285.841 137.163C298.129 140.598 305.492 128.806 305.492 128.806" stroke="#263238" stroke-width="0.75" stroke-linecap="round" stroke-linejoin="round"/>
<path d="M304.067 181.336C304.067 181.336 297.679 186.745 302.592 193.128C307.504 199.512 313.392 197.051 313.392 197.051" fill="#BA68C8"/>
<path d="M304.067 181.336C304.067 181.336 297.679 186.745 302.592 193.128C307.504 199.512 313.392 197.051 313.392 197.051" stroke="#263238" stroke-width="0.75" stroke-linecap="round" stroke-linejoin="round"/>
<path d="M317.818 215.226C317.818 215.226 309.992 208.056 303.567 217.725C297.142 227.393 308.98 234.426 308.98 234.426" fill="#BA68C8"/>
<path d="M317.818 215.226C317.818 215.226 309.992 208.056 303.567 217.725C297.142 227.393 308.98 234.426 308.98 234.426" stroke="#263238" stroke-width="0.75" stroke-linecap="round" stroke-linejoin="round"/>
<path opacity="0.1" d="M172.332 137.641C172.332 137.641 191.495 154.33 213.584 135.68L172.332 137.641Z" fill="black"/>
<path opacity="0.1" d="M144.32 170.047C144.32 170.047 152.683 180.366 163.484 168.086L144.32 170.047Z" fill="black"/>
<path opacity="0.1" d="M135.481 184.289C135.481 184.289 140.394 197.056 124.668 195.532L135.481 184.289Z" fill="black"/>
<path opacity="0.1" d="M125.66 208.348C125.66 208.348 135.486 210.846 131.548 220.14L125.66 208.348Z" fill="black"/>
<path opacity="0.1" d="M226.383 146.97C226.383 146.97 226.383 151.88 236.208 151.88C246.034 151.88 243.584 141.074 243.584 141.074" fill="black"/>
<path opacity="0.1" d="M275.028 122.922C275.028 122.922 273.553 133.728 285.841 137.163C298.129 140.598 305.492 128.806 305.492 128.806" fill="black"/>
<path opacity="0.1" d="M304.067 181.336C304.067 181.336 297.679 186.745 302.592 193.128C307.504 199.512 313.392 197.051 313.392 197.051" fill="black"/>
<path opacity="0.1" d="M317.818 215.226C317.818 215.226 309.992 208.056 303.567 217.725C297.142 227.393 308.98 234.426 308.98 234.426" fill="black"/>
<path d="M223.462 121.297C216.831 121.297 210.472 118.664 205.784 113.979C201.095 109.293 198.461 102.939 198.461 96.3123C198.461 89.6861 201.095 83.3313 205.784 78.6458C210.472 73.9604 216.831 71.3281 223.462 71.3281C230.093 71.3281 236.452 73.9604 241.141 78.6458C245.829 83.3313 248.463 89.6861 248.463 96.3123C248.463 102.939 245.829 109.293 241.141 113.979C236.452 118.664 230.093 121.297 223.462 121.297Z" fill="#263238"/>
<path fill-rule="evenodd" clip-rule="evenodd" d="M237.888 95.678C237.774 92.2031 236.321 88.9066 233.832 86.4772C231.343 84.0478 228.011 82.6735 224.532 82.6412C221.053 82.609 217.696 83.9213 215.163 86.3042C212.629 88.687 211.115 91.956 210.937 95.4282C210.937 95.628 210.937 95.8154 210.937 96.0153C210.922 98.4494 211.57 100.842 212.812 102.936L210.387 110.106L217.887 107.733C219.933 108.861 222.238 109.438 224.575 109.407C226.911 109.377 229.2 108.741 231.216 107.561C233.233 106.381 234.908 104.697 236.078 102.675C237.247 100.654 237.871 98.363 237.888 96.0278C237.895 95.9113 237.895 95.7945 237.888 95.678ZM224.412 107.258C222.191 107.268 220.016 106.62 218.162 105.397L213.799 106.783L215.212 102.611C213.817 100.694 213.065 98.3854 213.062 96.0153C213.043 95.6533 213.043 95.2905 213.062 94.9285C213.367 92.1311 214.702 89.547 216.807 87.678C218.912 85.809 221.637 84.7887 224.452 84.8151C227.268 84.8416 229.973 85.913 232.043 87.8212C234.112 89.7294 235.398 92.3382 235.65 95.1408C235.65 95.4281 235.65 95.7155 235.65 96.0153C235.65 98.9949 234.467 101.853 232.36 103.961C230.252 106.069 227.394 107.255 224.412 107.258Z" fill="white"/>
<path fill-rule="evenodd" clip-rule="evenodd" d="M230.586 98.714C230.248 98.5516 228.636 97.7521 228.323 97.6522C228.01 97.5522 227.81 97.4897 227.585 97.8145C227.36 98.1393 226.723 98.8764 226.535 99.0637C226.348 99.2511 226.148 99.3136 225.81 99.1512C224.838 98.7701 223.941 98.2203 223.16 97.5272C222.438 96.8648 221.819 96.0986 221.323 95.2537C221.288 95.2013 221.264 95.1425 221.252 95.0808C221.24 95.019 221.24 94.9555 221.253 94.8939C221.266 94.8323 221.291 94.7738 221.326 94.7219C221.362 94.67 221.407 94.6257 221.46 94.5916C221.623 94.4417 221.798 94.2043 221.96 94.0169L222.085 93.8545C222.167 93.7315 222.238 93.602 222.298 93.4673C222.345 93.3788 222.369 93.2802 222.369 93.18C222.369 93.0798 222.345 92.9811 222.298 92.8927C222.21 92.7303 221.548 91.1188 221.273 90.4567C220.998 89.7946 220.723 89.9195 220.523 89.9195C220.323 89.9195 220.11 89.9195 219.898 89.9195C219.73 89.9251 219.564 89.9644 219.412 90.0352C219.259 90.1061 219.123 90.2069 219.01 90.3318C218.638 90.6828 218.344 91.1073 218.146 91.5784C217.948 92.0495 217.851 92.5567 217.86 93.0676C217.863 93.4438 217.918 93.8179 218.022 94.1793C218.277 95.0028 218.68 95.7731 219.21 96.4529C220.579 98.6177 222.534 100.35 224.848 101.45C228.211 102.699 228.21 102.312 228.823 102.262C229.284 102.174 229.72 101.99 230.104 101.721C230.488 101.451 230.81 101.104 231.048 100.7C231.261 100.209 231.33 99.6677 231.248 99.1387C231.061 98.951 230.835 98.8061 230.586 98.714Z" fill="white"/>
<path d="M349.931 226.609C343.3 226.609 336.941 223.977 332.252 219.291C327.564 214.606 324.93 208.251 324.93 201.625C324.93 194.999 327.564 188.644 332.252 183.958C336.941 179.273 343.3 176.641 349.931 176.641C356.562 176.641 362.921 179.273 367.609 183.958C372.298 188.644 374.932 194.999 374.932 201.625C374.932 208.251 372.298 214.606 367.609 219.291C362.921 223.977 356.562 226.609 349.931 226.609Z" fill="#263238"/>
<path d="M364.893 194.127C364.716 193.463 364.367 192.858 363.882 192.371C363.397 191.885 362.793 191.534 362.13 191.353C359.693 190.691 349.93 190.691 349.93 190.691C349.93 190.691 340.167 190.691 337.729 191.353C337.067 191.533 336.464 191.884 335.981 192.371C335.499 192.858 335.153 193.464 334.979 194.127C334.096 199.127 334.096 204.242 334.979 209.242C335.153 209.905 335.499 210.511 335.981 210.998C336.464 211.485 337.067 211.836 337.729 212.015C340.167 212.678 349.93 212.678 349.93 212.678C349.93 212.678 359.693 212.678 362.13 212.015C362.793 211.835 363.397 211.484 363.882 210.998C364.367 210.511 364.716 209.906 364.893 209.242C365.76 204.241 365.76 199.128 364.893 194.127Z" fill="white"/>
<path d="M346.742 206.257V196.988L354.905 201.623L346.742 206.257Z" fill="#263238"/>
<path d="M91.0911 220.113C84.4603 220.113 78.1012 217.481 73.4125 212.795C68.7239 208.11 66.0898 201.755 66.0898 195.129C66.0898 188.503 68.7239 182.148 73.4125 177.462C78.1012 172.777 84.4603 170.145 91.0911 170.145C97.7218 170.145 104.081 172.777 108.77 177.462C113.458 182.148 116.092 188.503 116.092 195.129C116.092 201.755 113.458 208.11 108.77 212.795C104.081 217.481 97.7218 220.113 91.0911 220.113Z" fill="#263238"/>
<path d="M87.1322 210.217H93.22V194.964H97.4827L97.9327 189.855H93.22V186.944C93.22 185.695 93.47 185.258 94.6326 185.258H97.9327V179.961H93.7075C89.1698 179.961 87.1322 181.96 87.1322 185.782V189.855H83.957V195.026H87.1322V210.217Z" fill="white"/>
<path d="M344.517 150.035C337.886 150.035 331.527 147.403 326.838 142.717C322.15 138.032 319.516 131.677 319.516 125.051C319.516 118.424 322.15 112.07 326.838 107.384C331.527 102.699 337.886 100.066 344.517 100.066C351.148 100.066 357.507 102.699 362.195 107.384C366.884 112.07 369.518 118.424 369.518 125.051C369.518 131.677 366.884 138.032 362.195 142.717C357.507 147.403 351.148 150.035 344.517 150.035Z" fill="#263238"/>
<path d="M344.519 113.752C348.181 113.752 348.619 113.752 350.069 113.84C350.923 113.849 351.768 114.005 352.569 114.302C353.159 114.535 353.694 114.887 354.141 115.337C354.589 115.786 354.939 116.322 355.169 116.913C355.466 117.713 355.626 118.558 355.644 119.411C355.707 120.86 355.719 121.285 355.719 124.958C355.719 128.63 355.719 129.055 355.644 130.504C355.629 131.358 355.469 132.203 355.169 133.003C354.953 133.603 354.602 134.145 354.144 134.589C353.701 135.042 353.163 135.392 352.569 135.614C351.768 135.91 350.923 136.07 350.069 136.088C348.619 136.088 348.181 136.163 344.519 136.163C340.856 136.163 340.418 136.163 338.968 136.088C338.114 136.07 337.269 135.91 336.468 135.614C335.874 135.392 335.336 135.042 334.893 134.589C334.435 134.145 334.084 133.603 333.868 133.003C333.569 132.203 333.408 131.358 333.393 130.504C333.331 129.055 333.306 128.618 333.306 124.958C333.306 121.298 333.306 120.86 333.393 119.411C333.411 118.558 333.572 117.713 333.868 116.913C334.099 116.322 334.449 115.786 334.896 115.337C335.343 114.887 335.879 114.535 336.468 114.302C337.269 114.005 338.115 113.849 338.968 113.84C340.418 113.765 340.856 113.752 344.519 113.752ZM344.519 111.254C340.768 111.254 340.318 111.254 338.856 111.341C337.715 111.362 336.586 111.577 335.518 111.978C334.609 112.335 333.783 112.875 333.093 113.565C332.402 114.255 331.862 115.08 331.506 115.988C331.104 117.056 330.889 118.184 330.868 119.324C330.805 120.785 330.793 121.248 330.793 124.983C330.793 128.718 330.793 129.168 330.868 130.642C330.89 131.777 331.106 132.901 331.506 133.965C331.852 134.882 332.394 135.713 333.093 136.4C333.777 137.095 334.605 137.633 335.518 137.975C336.585 138.38 337.715 138.596 338.856 138.612C340.318 138.687 340.793 138.699 344.519 138.699C348.244 138.699 348.719 138.699 350.181 138.612C351.319 138.598 352.445 138.382 353.507 137.975C354.425 137.636 355.258 137.098 355.944 136.4C356.644 135.713 357.185 134.882 357.532 133.965C357.925 132.899 358.14 131.777 358.169 130.642C358.232 129.168 358.244 128.705 358.244 124.983C358.244 121.26 358.244 120.785 358.169 119.324C358.141 118.185 357.926 117.058 357.532 115.988C357.175 115.078 356.634 114.251 355.941 113.561C355.248 112.871 354.419 112.332 353.507 111.978C352.443 111.577 351.318 111.362 350.181 111.341C348.719 111.279 348.244 111.254 344.519 111.254Z" fill="white"/>
<path d="M344.515 117.926C343.121 117.926 341.758 118.339 340.598 119.113C339.439 119.887 338.535 120.988 338.002 122.275C337.468 123.563 337.328 124.979 337.6 126.346C337.872 127.713 338.544 128.968 339.53 129.953C340.516 130.939 341.772 131.61 343.14 131.882C344.507 132.153 345.925 132.014 347.213 131.481C348.502 130.947 349.603 130.044 350.377 128.886C351.152 127.727 351.566 126.365 351.566 124.971C351.567 124.046 351.386 123.129 351.032 122.273C350.678 121.418 350.159 120.64 349.504 119.986C348.849 119.331 348.071 118.812 347.215 118.459C346.359 118.105 345.442 117.924 344.515 117.926ZM344.515 129.543C343.61 129.543 342.726 129.275 341.973 128.773C341.221 128.271 340.635 127.556 340.288 126.721C339.942 125.886 339.851 124.966 340.028 124.079C340.204 123.192 340.64 122.378 341.28 121.738C341.92 121.099 342.735 120.663 343.623 120.487C344.51 120.311 345.43 120.401 346.266 120.747C347.102 121.093 347.817 121.679 348.319 122.431C348.822 123.183 349.09 124.067 349.09 124.971C349.09 126.184 348.608 127.347 347.75 128.204C346.892 129.062 345.729 129.543 344.515 129.543Z" fill="white"/>
<path d="M353.492 117.679C353.495 118.006 353.4 118.326 353.22 118.598C353.04 118.871 352.783 119.084 352.482 119.211C352.181 119.338 351.849 119.372 351.528 119.31C351.207 119.248 350.911 119.092 350.679 118.862C350.447 118.632 350.289 118.338 350.224 118.018C350.159 117.698 350.191 117.366 350.316 117.064C350.44 116.762 350.652 116.503 350.924 116.322C351.195 116.14 351.515 116.043 351.842 116.043C352.277 116.043 352.695 116.215 353.004 116.521C353.314 116.828 353.489 117.244 353.492 117.679Z" fill="white"/>
<path d="M312.529 285.211C305.898 285.211 299.539 282.578 294.85 277.893C290.161 273.207 287.527 266.853 287.527 260.226C287.527 253.6 290.161 247.245 294.85 242.56C299.539 237.874 305.898 235.242 312.529 235.242C319.159 235.242 325.518 237.874 330.207 242.56C334.896 247.245 337.53 253.6 337.53 260.226C337.53 266.853 334.896 273.207 330.207 277.893C325.518 282.578 319.159 285.211 312.529 285.211Z" fill="#263238"/>
<path d="M308.79 269.691C309.454 269.563 310.083 269.297 310.637 268.909C311.191 268.522 311.656 268.022 312.003 267.442C312.531 266.605 312.805 265.633 312.791 264.644C312.821 263.737 312.581 262.842 312.103 262.071C311.62 261.345 310.907 260.804 310.078 260.534C310.586 260.294 311.041 259.954 311.415 259.535C311.984 258.796 312.272 257.88 312.228 256.949C312.254 255.995 311.974 255.058 311.428 254.275C310.872 253.627 310.169 253.119 309.378 252.796C308.587 252.472 307.73 252.341 306.878 252.414H298.402V269.903H306.303C307.137 269.919 307.971 269.848 308.79 269.691ZM301.903 255.45H305.715C306.417 255.434 307.117 255.527 307.79 255.725C308.1 255.859 308.359 256.089 308.527 256.382C308.696 256.674 308.767 257.013 308.728 257.348C308.759 257.645 308.71 257.945 308.584 258.215C308.459 258.486 308.262 258.717 308.015 258.885C307.45 259.197 306.81 259.349 306.165 259.322H301.903V255.45ZM301.903 266.892V262.22H306.215C306.817 262.198 307.417 262.3 307.978 262.52C308.336 262.678 308.635 262.943 308.835 263.279C309.034 263.615 309.124 264.005 309.09 264.394C309.138 264.831 309.054 265.273 308.849 265.662C308.644 266.052 308.328 266.371 307.94 266.58C307.379 266.815 306.773 266.922 306.165 266.892H301.903Z" fill="white"/>
<path d="M315.754 268.78C317.048 269.811 318.662 270.359 320.317 270.329C321.219 270.383 322.121 270.241 322.963 269.914C323.805 269.586 324.565 269.08 325.192 268.43C325.846 267.803 326.284 266.985 326.442 266.094H322.98C322.746 266.572 322.375 266.968 321.914 267.233C321.453 267.498 320.922 267.619 320.392 267.58C319.737 267.6 319.091 267.431 318.529 267.093C318.086 266.793 317.727 266.383 317.489 265.904C317.25 265.425 317.139 264.892 317.167 264.357H326.617C326.643 263.498 326.605 262.638 326.505 261.784C326.369 260.825 326.014 259.91 325.467 259.111C324.917 258.272 324.142 257.605 323.23 257.187C322.266 256.776 321.227 256.572 320.179 256.587C319.325 256.552 318.473 256.693 317.675 257C316.878 257.307 316.151 257.775 315.542 258.374C314.914 259.073 314.432 259.891 314.125 260.779C313.818 261.667 313.692 262.608 313.754 263.545C313.657 264.513 313.787 265.49 314.134 266.399C314.481 267.308 315.036 268.123 315.754 268.78ZM318.179 260.16C318.449 259.906 318.768 259.71 319.116 259.583C319.464 259.456 319.834 259.402 320.204 259.423C320.939 259.401 321.655 259.65 322.217 260.123C322.498 260.385 322.723 260.702 322.878 261.054C323.032 261.407 323.114 261.787 323.117 262.171H317.279C317.362 261.424 317.677 260.72 318.179 260.16Z" fill="white"/>
<path d="M323.789 253.418H316.164V255.191H323.789V253.418Z" fill="white"/>
<path d="M118.419 149.98C111.788 149.98 105.429 147.348 100.741 142.662C96.052 137.977 93.418 131.622 93.418 124.996C93.418 118.37 96.052 112.015 100.741 107.329C105.429 102.644 111.788 100.012 118.419 100.012C125.05 100.012 131.409 102.644 136.098 107.329C140.786 112.015 143.42 118.37 143.42 124.996C143.42 131.622 140.786 137.977 136.098 142.662C131.409 147.348 125.05 149.98 118.419 149.98Z" fill="#263238"/>
<path d="M105.078 133.345C107.483 134.888 110.266 135.741 113.123 135.809C115.98 135.877 118.8 135.159 121.276 133.732C123.752 132.306 125.787 130.226 127.159 127.721C128.531 125.216 129.186 122.382 129.054 119.529C130.128 118.754 131.055 117.793 131.792 116.693C130.79 117.134 129.729 117.425 128.642 117.555C129.787 116.874 130.645 115.8 131.054 114.532C129.978 115.163 128.803 115.611 127.579 115.856C126.752 114.981 125.659 114.401 124.47 114.208C123.281 114.015 122.06 114.218 120.998 114.786C119.936 115.355 119.09 116.257 118.592 117.353C118.094 118.45 117.97 119.68 118.241 120.853C116.07 120.743 113.947 120.178 112.008 119.194C110.07 118.211 108.361 116.831 106.991 115.144C106.288 116.346 106.072 117.771 106.386 119.127C106.699 120.483 107.519 121.668 108.678 122.44C107.803 122.417 106.946 122.185 106.178 121.765C106.162 123.04 106.591 124.28 107.392 125.272C108.193 126.264 109.316 126.946 110.566 127.199C109.749 127.414 108.895 127.444 108.066 127.286C108.424 128.364 109.108 129.304 110.024 129.975C110.94 130.647 112.043 131.017 113.179 131.034C112.047 131.933 110.749 132.6 109.359 132.996C107.969 133.393 106.514 133.511 105.078 133.345Z" fill="white"/>
<path d="M149.384 85.4489C142.753 85.4489 136.394 82.8166 131.706 78.1312C127.017 73.4457 124.383 67.0909 124.383 60.4647C124.383 53.8385 127.017 47.4836 131.706 42.7982C136.394 38.1127 142.753 35.4805 149.384 35.4805C156.015 35.4805 162.374 38.1127 167.063 42.7982C171.751 47.4836 174.385 53.8385 174.385 60.4647C174.385 67.0909 171.751 73.4457 167.063 78.1312C162.374 82.8166 156.015 85.4489 149.384 85.4489Z" fill="#263238"/>
<path d="M142.508 54.2812H137.32V71.0082H142.508V54.2812Z" fill="white"/>
<path d="M139.895 52.0982C140.51 52.1056 141.113 51.93 141.628 51.5935C142.143 51.2571 142.547 50.7752 142.787 50.209C143.027 49.6429 143.093 49.0182 142.976 48.4145C142.86 47.8107 142.567 47.2552 142.133 46.8187C141.7 46.3821 141.146 46.0843 140.543 45.9631C139.94 45.8419 139.314 45.9028 138.746 46.1381C138.178 46.3734 137.692 46.7723 137.351 47.2842C137.01 47.7961 136.83 48.3978 136.832 49.0127C136.83 49.4162 136.908 49.8161 137.061 50.1896C137.214 50.5631 137.44 50.9028 137.724 51.1893C138.008 51.4758 138.346 51.7036 138.719 51.8595C139.091 52.0155 139.491 52.0966 139.895 52.0982Z" fill="white"/>
<path d="M150.795 62.2245C150.795 59.876 151.87 58.4769 153.945 58.4769C156.02 58.4769 156.77 59.8261 156.77 62.2245V70.969H161.933V60.4631C161.933 55.9785 159.433 53.8049 155.833 53.8049C154.831 53.7972 153.844 54.0486 152.968 54.5345C152.091 55.0204 151.356 55.7244 150.832 56.5781V54.317H145.832V71.0565H150.832L150.795 62.2245Z" fill="white"/>
<path d="M297.568 87.0192C290.937 87.0192 284.578 84.3869 279.889 79.7015C275.2 75.016 272.566 68.6612 272.566 62.035C272.566 55.4088 275.2 49.0539 279.889 44.3685C284.578 39.683 290.937 37.0508 297.568 37.0508C300.851 37.0508 304.102 37.697 307.135 38.9526C310.169 40.2082 312.925 42.0485 315.246 44.3685C317.568 46.6885 319.409 49.4427 320.666 52.4739C321.922 55.5052 322.569 58.754 322.569 62.035C322.569 65.316 321.922 68.5648 320.666 71.596C319.409 74.6273 317.568 77.3815 315.246 79.7015C312.925 82.0215 310.169 83.8618 307.135 85.1174C304.102 86.373 300.851 87.0192 297.568 87.0192Z" fill="#263238"/>
<path d="M283.451 62.0857C283.451 65.7832 284.92 69.3292 287.537 71.9436C290.153 74.5581 293.701 76.0269 297.401 76.0269C298.278 76.0271 299.153 75.9434 300.014 75.7771C301.578 76.7207 303.413 77.1111 305.226 76.8856C307.039 76.6601 308.723 75.8317 310.007 74.5338C311.291 73.2358 312.102 71.5438 312.307 69.73C312.512 67.9162 312.101 66.0861 311.139 64.5342C311.284 63.7093 311.355 62.8732 311.352 62.0358C311.352 60.2056 310.991 58.3933 310.29 56.7026C309.589 55.0119 308.561 53.4758 307.265 52.1823C305.97 50.8887 304.432 49.863 302.739 49.1637C301.047 48.4645 299.233 48.1054 297.401 48.1071C296.541 48.1032 295.683 48.1827 294.839 48.3444C293.275 47.3821 291.432 46.9767 289.608 47.1939C287.785 47.4112 286.088 48.2384 284.795 49.5411C283.501 50.8439 282.687 52.5455 282.484 54.3694C282.28 56.1933 282.701 58.0322 283.676 59.5873C283.529 60.4122 283.454 61.248 283.451 62.0857ZM297.551 52.192C302.052 52.4543 304.689 54.4281 304.939 56.2769C304.979 56.5601 304.953 56.8486 304.864 57.1205C304.776 57.3924 304.627 57.6406 304.428 57.8464C304.229 58.0522 303.986 58.2101 303.718 58.3083C303.449 58.4065 303.161 58.4423 302.877 58.413C300.839 58.413 300.626 55.7023 297.126 55.7023C295.551 55.7023 294.214 56.3643 294.214 57.7884C294.214 60.7616 305.464 59.0376 305.464 65.596C305.464 69.3436 302.439 71.8421 297.964 71.8421C293.989 71.8421 289.988 70.0432 290.013 66.9452C290 66.4929 290.163 66.0531 290.469 65.7194C290.775 65.3858 291.199 65.1846 291.651 65.1588C293.989 65.1588 293.964 68.6316 297.689 68.6316C300.301 68.6316 301.201 67.2075 301.201 66.2081C301.201 62.6229 289.951 64.8215 289.951 58.0758C289.838 54.4281 292.814 51.9047 297.551 52.192Z" fill="white"/>
<path d="M129.056 279.074C122.425 279.074 116.066 276.442 111.377 271.756C106.689 267.071 104.055 260.716 104.055 254.09C104.055 247.463 106.689 241.109 111.377 236.423C116.066 231.738 122.425 229.105 129.056 229.105C135.687 229.105 142.046 231.738 146.734 236.423C151.423 241.109 154.057 247.463 154.057 254.09C154.057 260.716 151.423 267.071 146.734 271.756C142.046 276.442 135.687 279.074 129.056 279.074Z" fill="#263238"/>
<path fill-rule="evenodd" clip-rule="evenodd" d="M143.595 261.362C143.298 261.208 142.983 261.094 142.657 261.024C141.118 260.493 139.772 259.514 138.794 258.213C138.242 257.514 137.799 256.735 137.482 255.902C137.407 255.749 137.368 255.58 137.368 255.409C137.368 255.238 137.407 255.069 137.482 254.916C137.83 254.508 138.291 254.212 138.807 254.066C139.457 253.877 140.064 253.563 140.594 253.142C140.706 253.05 140.796 252.935 140.857 252.804C140.864 252.763 140.864 252.721 140.857 252.679C140.887 252.606 140.903 252.528 140.903 252.448C140.903 252.369 140.887 252.29 140.857 252.217C140.713 251.96 140.495 251.751 140.232 251.618C140.071 251.524 139.89 251.467 139.704 251.452C139.518 251.437 139.331 251.464 139.157 251.53C138.846 251.641 138.529 251.732 138.207 251.805C137.851 251.9 137.475 251.9 137.119 251.805C137.128 251.726 137.128 251.647 137.119 251.568C137.119 250.918 137.119 250.244 137.119 249.544C137.188 248.461 137.162 247.375 137.044 246.296C136.65 244.455 135.557 242.838 133.994 241.786C132.884 241.019 131.59 240.562 130.244 240.462C129.795 240.417 129.345 240.396 128.894 240.4C127.065 240.367 125.277 240.938 123.806 242.024C122.709 242.871 121.849 243.985 121.306 245.259C120.884 246.534 120.747 247.886 120.906 249.219C120.982 250.083 121.003 250.951 120.968 251.818C120.555 251.894 120.132 251.894 119.718 251.818C119.384 251.747 119.054 251.655 118.731 251.543C118.564 251.511 118.393 251.514 118.228 251.55C118.062 251.587 117.906 251.656 117.768 251.755C117.622 251.832 117.497 251.944 117.405 252.082C117.314 252.219 117.258 252.377 117.243 252.542V252.617C117.287 252.828 117.401 253.018 117.568 253.154L117.906 253.404C118.54 253.77 119.216 254.06 119.918 254.266C120.123 254.335 120.309 254.447 120.465 254.596C120.62 254.745 120.741 254.927 120.818 255.128C120.874 255.666 120.746 256.207 120.456 256.664C119.75 258.061 118.706 259.259 117.418 260.15C116.734 260.612 115.978 260.958 115.181 261.174C114.865 261.22 114.578 261.386 114.381 261.636V261.724C114.348 261.83 114.343 261.943 114.365 262.052C114.386 262.161 114.435 262.263 114.506 262.348C114.601 262.456 114.716 262.545 114.843 262.611C115.496 262.948 116.195 263.188 116.918 263.323C117.343 263.392 117.761 263.496 118.168 263.635L118.293 263.997C118.418 264.36 118.481 264.784 118.606 265.247C118.628 265.309 118.666 265.365 118.717 265.409C118.767 265.453 118.828 265.483 118.893 265.496C119.052 265.546 119.222 265.546 119.381 265.496C120.448 265.23 121.56 265.191 122.643 265.384C123.738 265.793 124.773 266.347 125.719 267.033C126.456 267.553 127.319 267.863 128.219 267.932C128.91 267.97 129.603 267.97 130.294 267.932C130.876 267.875 131.437 267.683 131.931 267.37C133.044 266.746 134.032 265.984 135.107 265.509C135.516 265.409 135.935 265.359 136.357 265.359C137.251 265.336 138.145 265.382 139.032 265.496H139.119C139.241 265.478 139.352 265.415 139.432 265.321C139.476 265.267 139.507 265.203 139.519 265.134C139.519 265.009 139.519 265.047 139.519 265.134V265.059C139.604 264.589 139.778 264.14 140.032 263.735C140.189 263.615 140.385 263.557 140.582 263.573C141.309 263.446 142.021 263.245 142.707 262.973C143.046 262.866 143.349 262.667 143.582 262.398C143.628 262.33 143.66 262.253 143.675 262.172C143.69 262.091 143.689 262.008 143.672 261.928C143.654 261.847 143.621 261.771 143.573 261.704C143.525 261.637 143.465 261.58 143.395 261.536L143.595 261.362Z" fill="white"/>
</svg>
